<?xml version="1.0" encoding="utf-8"?>
<!-- Generator: Adobe Illustrator 26.0.1, SVG Export Plug-In . SVG Version: 6.00 Build 0)  -->
<svg version="1.1" id="Ebene_1" xmlns="http://www.w3.org/2000/svg" xmlns:xlink="http://www.w3.org/1999/xlink" x="0px" y="0px"
	 viewBox="0 0 841.9 595.3" style="enable-background:new 0 0 841.9 595.3;" xml:space="preserve">
<style type="text/css">
	.st0{opacity:0.9;fill:#FFE266;}
	.st1{fill:none;}
	.st2{fill:#FFFFFF;}
	.st3{fill:#335AA5;stroke:#1E1E1C;stroke-width:0.75;stroke-miterlimit:10;}
	.st4{opacity:0.9;fill:#FFE267;stroke:#020203;stroke-width:0.75;stroke-miterlimit:10;enable-background:new    ;}
	.st5{fill:#1E1E1C;}
	.st6{fill:none;stroke:#1E1E1C;stroke-width:0.75;stroke-miterlimit:10;}
	.st7{fill:#D94536;stroke:#1E1E1C;stroke-width:0.75;stroke-miterlimit:10;}
	.st8{fill:#232A51;stroke:#1E1E1C;stroke-width:0.75;stroke-miterlimit:10;}
	.st9{fill:#009CBF;}
	.st10{fill:#009CBF;stroke:#1E1E1C;stroke-width:0.75;stroke-miterlimit:10;}
	.st11{fill:#020203;}
</style>
<g>
	<path class="st0" d="M382.6,181.3c-10.6,9.2-23.4,16.3-37.2,22.4c-3.9,1.7-7.7,3.5-11.3,5.5c-1.3,0.7-2.3,2.5-2.2,3.6
		c0.2,1.8,2.6,2.1,4.8,2c9.6-0.2,18.5-2.5,27.5-4.7c19.1-4.6,37-11.4,53.9-19.6c6.1-3,11.5-3.6,18.6-2c23.3,5.2,47.2,7.5,71.4,7.1
		c45.8-0.8,87.1-11.7,122.8-34c14.6-9.1,27-19.9,32-34c8.5-24.4,2.2-46.3-21.8-64.5c-20.1-15.1-44.4-24.3-71.4-29.6
		c-25.7-5-51.9-5.4-78.2-4.6c-20.4,0.6-40.6,2.6-60.4,6.6c-32.4,6.6-60.5,18.8-83.1,38c-10.6,9-18.7,19.2-22.2,31.2
		c-4.3,14.6,0.6,27.9,11.3,40.2c10,11.5,24.1,19.1,39.7,25.4c3.8,1.6,7.6,3.1,12,4.8C386.7,177.4,384.8,179.5,382.6,181.3z"/>
	<path class="st1" d="M377,170.5c-15.6-6.3-29.7-14-39.7-25.4c-10.6-12.2-15.5-25.5-11.3-40.2c3.5-12,11.5-22.2,22.2-31.2
		c22.6-19.2,50.7-31.3,83.1-38c19.8-4.1,40-6,60.4-6.6c26.3-0.8,52.5-0.4,78.2,4.6c27,5.3,51.3,14.4,71.4,29.6
		c24.1,18.1,30.3,40.1,21.8,64.5c-4.9,14.1-17.4,24.9-32,34c-35.7,22.3-76.9,33.2-122.8,34c-24.2,0.4-48.1-1.9-71.4-7.1
		c-7.1-1.6-12.6-1-18.6,2c-16.9,8.2-34.7,15-53.9,19.6c-9,2.2-18,4.5-27.5,4.7c-2.1,0.1-4.5-0.2-4.8-2c-0.2-1.2,0.9-2.9,2.2-3.6
		c3.5-2,7.4-3.8,11.3-5.5c13.8-6.1,26.5-13.3,37.2-22.4c2.2-1.9,4.1-3.9,6.3-6C384.6,173.6,380.8,172,377,170.5z M379.8,200.9
		c12.4-4.5,24.7-9.4,36.6-14.8c6.9-3.1,13-3.9,20.9-2.1c26.1,5.9,52.8,8.3,80,6.9c44.3-2.3,83.7-14,116.6-37.3
		c11.4-8,20.9-17.5,24.2-29.3c5.8-20.2,1.6-38.9-17.3-54.7c-19.1-15.9-43.1-25.4-69.9-31c-20.3-4.3-41.2-5.4-62.2-5.3
		c-25.7,0-51.1,1.7-76,6.8c-31,6.3-57.9,17.9-79.7,36.2c-10.2,8.5-18,18.2-21.3,29.6c-4.1,14.1,1.1,26.6,11.8,38
		c7,7.6,16,13.5,26.4,18.1c7,3.1,14.1,6,21.2,8.9c4,1.6,5.2,3.3,2.7,6.2c-3.2,3.6-6.8,7.1-10.7,10.3c-9.8,8-21.3,14.2-33.5,19.7
		c-1.4,0.7-2.9,1.4-4.3,2C357.3,207.5,368.9,204.8,379.8,200.9z"/>
	<path class="st2" d="M353.1,76.3"/>
</g>
<g>
	<path class="st3" d="M191.9,318.6l-19.8-5.5c-5.2-2-5.7,10.5-7.3,28.4c-1.6,17.9-1.1,28.9,3.1,31.3c0.5,0.3,0.9,0.4,1.4,0.4
		l22.6,6.7L191.9,318.6L191.9,318.6z"/>
	<path class="st4" d="M184.9,206.1c0,0-30.6,50.6,0,90.5c12,5.3,66.6,10.6,73.2,0c4-8,15.9-59.9,4.6-90.5
		C252.8,202.1,206.2,192.8,184.9,206.1z"/>
	<circle class="st5" cx="255.9" cy="239" r="3.7"/>
	<circle class="st5" cx="217.5" cy="241.1" r="3.7"/>
	<path class="st6" d="M226.7,279.9c6.8,7.2,18.9,6.9,26.9-0.7"/>
	<path class="st4" d="M213.8,301.9v14.5c0,0,2.6,5.7,8.5,5.7c6.1,0,8.5-5.6,8.5-5.6v-14L213.8,301.9z"/>
	<polygon class="st7" points="190.3,386.9 201.2,454.7 210.9,454.7 210,396.4 233.7,397 236.7,454.7 245.9,454.7 250.9,388.2 	"/>
	<polygon class="st5" points="200.8,454.7 200.8,459.1 217.3,459.1 210.8,454.7 	"/>
	<polygon class="st5" points="236.4,454.7 236.4,459.1 252,459.1 245.8,454.7 	"/>
	<path class="st4" d="M183.1,406.5c-2.1-2-3.4-6.3-4-11.8h12C193.2,410,186.5,409.8,183.1,406.5z"/>
	<path class="st4" d="M260.2,399.6c-0.6,3.2-2.2,6.7-4.8,6.7c-2.7,0-4.8-1.1-4.8-4.4c0-0.9-0.4-6.7-0.2-7.5l0.6-5.1h9.5
		C260.6,393.4,260.6,397.3,260.2,399.6z"/>
	<path class="st8" d="M260.5,389.3H251c0,0-59.8-3-59.8,5.4h-12c-2.8-25.2,7-77.8,7-77.8l27.7-0.2l41.5,0.2l4.8,62.4
		C260.2,382.1,260.4,385.8,260.5,389.3z"/>
	<g>
		<path class="st9" d="M230.9,309.7h10.9c0,0,10.5,0.7,13.8,7.1l-24.6-0.3L230.9,309.7L230.9,309.7z"/>
		<path class="st5" d="M255.7,316.8v-0.3c-3.3-6.5-13.5-7.1-14-7.1h-11.2v7.6l25.1,0.3 M231.2,316.2v-6.1h10.5
			c0.1,0,9.7,0.8,13.2,6.4L231.2,316.2z"/>
	</g>
	<path class="st5" d="M191.2,394.7"/>
	<path class="st10" d="M171.5,312.7c0,0,11.8-3.6,42.4-2.9v6.9l-27.7,0.2L171.5,312.7z"/>
	<line class="st1" x1="179.1" y1="394.7" x2="171.5" y2="394.7"/>
	<line class="st6" x1="191.2" y1="394.7" x2="199.8" y2="339.7"/>
	<line class="st6" x1="243.1" y1="338.8" x2="251" y2="389.3"/>
	<line class="st1" x1="267.6" y1="389.3" x2="260.5" y2="389.3"/>
	<path class="st11" d="M159.5,288.5c-1.2-3.2-27.8-67-13.7-89.8c2.7-3.1,12.4-26.4,62.9-18.4c9.9,1.9,25.4,16.5,87.9,9.3
		c-6.7,3.8-30,17.3-30,17.3l2.6,9.2c0,0-50.9,7.6-72.6,3.4c-3,7.4-13.8,14.9-13.1,32.3c1.1,9.4,5.3,45.6,5.3,45.6s-8,16-21.3,6.1
		C163.9,299.7,159.5,288.5,159.5,288.5z"/>
</g>
<g>
	<path d="M382.4,83.6V67.1h3.5c1.2,0,2.3,0.2,3.3,0.6c1,0.4,1.9,1,2.6,1.8s1.3,1.6,1.8,2.6s0.6,2.1,0.6,3.2c0,1.2-0.2,2.2-0.6,3.2
		s-1,1.9-1.8,2.6c-0.8,0.8-1.6,1.3-2.6,1.8c-1,0.4-2.1,0.6-3.3,0.6H382.4z M383.5,82.6h2.4c1,0,2-0.2,2.8-0.6
		c0.9-0.4,1.7-0.9,2.3-1.5c0.7-0.7,1.2-1.4,1.5-2.3c0.4-0.9,0.6-1.8,0.6-2.9c0-1-0.2-2-0.5-2.9c-0.4-0.9-0.9-1.6-1.5-2.3
		c-0.7-0.7-1.4-1.2-2.3-1.5c-0.9-0.4-1.8-0.6-2.8-0.6h-2.4V82.6z"/>
	<path d="M402.7,83.9c-1,0-1.8-0.2-2.6-0.7c-0.8-0.5-1.4-1.1-1.8-1.9c-0.4-0.8-0.7-1.8-0.7-2.8c0-1.1,0.2-2,0.7-2.8
		c0.4-0.8,1.1-1.5,1.8-1.9s1.6-0.7,2.6-0.7c1,0,1.9,0.2,2.6,0.7c0.8,0.5,1.4,1.1,1.8,2v-2.4h1.1v10.2h-1.1v-2.4
		c-0.4,0.8-1,1.5-1.8,2S403.6,83.9,402.7,83.9z M402.9,83c0.8,0,1.6-0.2,2.2-0.6s1.1-0.9,1.5-1.6s0.5-1.5,0.5-2.3
		c0-0.9-0.2-1.7-0.5-2.3c-0.4-0.7-0.9-1.2-1.5-1.6s-1.4-0.6-2.2-0.6s-1.6,0.2-2.2,0.6s-1.1,0.9-1.5,1.6c-0.4,0.7-0.5,1.5-0.5,2.3
		c0,0.9,0.2,1.6,0.5,2.3s0.9,1.2,1.5,1.6C401.3,82.8,402.1,83,402.9,83z"/>
	<path d="M415.1,83.9c-0.8,0-1.6-0.2-2.2-0.7c-0.6-0.4-1.1-1.1-1.5-1.9l0.6-0.5c0.3,0.7,0.7,1.2,1.2,1.6c0.5,0.4,1.1,0.6,1.8,0.6
		c0.5,0,0.9-0.1,1.3-0.3c0.4-0.2,0.7-0.5,0.9-0.8c0.2-0.4,0.4-0.8,0.4-1.3c0-0.4-0.1-0.8-0.3-1c-0.2-0.2-0.5-0.5-0.9-0.6
		c-0.4-0.2-0.9-0.4-1.4-0.6c-0.4-0.2-0.9-0.4-1.3-0.6c-0.4-0.2-0.8-0.5-1-0.8c-0.3-0.3-0.4-0.8-0.4-1.3c0-0.5,0.1-0.9,0.4-1.3
		c0.3-0.4,0.6-0.7,1.1-0.9s1-0.3,1.6-0.3c0.6,0,1.1,0.1,1.6,0.4c0.5,0.3,0.9,0.7,1.3,1.1l-0.6,0.6c-0.5-0.9-1.3-1.3-2.3-1.3
		c-0.6,0-1.1,0.2-1.5,0.5c-0.4,0.3-0.6,0.8-0.6,1.3c0,0.4,0.1,0.7,0.3,0.9c0.2,0.2,0.5,0.4,0.9,0.6s0.8,0.3,1.2,0.5
		c0.6,0.2,1.2,0.5,1.6,0.7c0.5,0.2,0.8,0.5,1.1,0.9c0.2,0.3,0.4,0.8,0.4,1.4c0,0.7-0.2,1.2-0.5,1.7s-0.7,0.9-1.3,1.1
		S415.8,83.9,415.1,83.9z"/>
	<path d="M432.2,83.9c-1.1,0-2-0.2-2.9-0.7c-0.8-0.5-1.5-1.1-2-1.9c-0.5-0.8-0.7-1.7-0.7-2.7c0-0.8,0.1-1.5,0.4-2.2
		c0.3-0.7,0.7-1.2,1.2-1.8s1.1-0.9,1.7-1.2c0.6-0.3,1.3-0.4,2.1-0.4c1,0,1.8,0.2,2.6,0.7s1.4,1.1,1.9,1.8c0.5,0.8,0.7,1.7,0.8,2.7
		c0,0.1,0,0.1,0,0.2c0,0,0,0.1,0,0.2h-9.6c0,0.9,0.2,1.6,0.6,2.3c0.4,0.7,0.9,1.2,1.6,1.6c0.7,0.4,1.5,0.6,2.3,0.6
		c0.8,0,1.6-0.2,2.3-0.5s1.2-0.9,1.6-1.5l0.8,0.4c-0.5,0.8-1.1,1.4-2,1.8C434.1,83.7,433.2,83.9,432.2,83.9z M427.8,77.7h8.5
		c-0.1-0.7-0.3-1.4-0.7-1.9c-0.4-0.6-0.9-1-1.5-1.3c-0.6-0.3-1.3-0.5-2-0.5c-0.7,0-1.4,0.2-2,0.5c-0.6,0.3-1.1,0.8-1.5,1.3
		C428.1,76.3,427.9,77,427.8,77.7z"/>
	<path d="M441.4,71.3c-0.1,0-0.3,0-0.4-0.1c-0.1-0.1-0.2-0.2-0.3-0.3c-0.1-0.1-0.1-0.2-0.1-0.4c0-0.1,0-0.3,0.1-0.4
		c0.1-0.1,0.2-0.2,0.3-0.3c0.1-0.1,0.2-0.1,0.4-0.1c0.1,0,0.3,0,0.4,0.1c0.1,0.1,0.2,0.2,0.3,0.3c0.1,0.1,0.1,0.2,0.1,0.4
		c0,0.1,0,0.3-0.1,0.4c-0.1,0.1-0.2,0.2-0.3,0.3C441.6,71.3,441.5,71.3,441.4,71.3z M440.8,83.6V73.4h1.1v10.2H440.8z"/>
	<path d="M450.8,89.1c-1.3,0-2.4-0.3-3.2-0.8c-0.9-0.5-1.5-1.2-2-2.2l0.9-0.4c0.3,0.8,0.9,1.4,1.6,1.8c0.8,0.5,1.7,0.7,2.7,0.7
		c0.8,0,1.6-0.2,2.2-0.5c0.7-0.3,1.2-0.8,1.6-1.4c0.4-0.6,0.6-1.4,0.6-2.3v-2.8c-0.4,0.8-1,1.5-1.8,2s-1.6,0.7-2.6,0.7
		c-1,0-1.8-0.2-2.6-0.7c-0.8-0.5-1.4-1.1-1.8-1.9c-0.5-0.8-0.7-1.8-0.7-2.8c0-1.1,0.2-2,0.7-2.8c0.4-0.8,1.1-1.5,1.8-1.9
		s1.6-0.7,2.6-0.7c1,0,1.8,0.2,2.6,0.7c0.8,0.5,1.4,1.1,1.8,2v-2.4h1.1v10.5c0,1.2-0.2,2.1-0.7,2.9c-0.5,0.8-1.1,1.4-1.9,1.7
		C452.9,88.9,451.9,89.1,450.8,89.1z M451,83c0.8,0,1.6-0.2,2.2-0.6c0.6-0.4,1.1-0.9,1.5-1.6c0.4-0.7,0.5-1.5,0.5-2.3
		c0-0.9-0.2-1.6-0.5-2.3c-0.4-0.7-0.9-1.2-1.5-1.6c-0.6-0.4-1.4-0.6-2.2-0.6c-0.8,0-1.6,0.2-2.2,0.6s-1.1,0.9-1.5,1.6
		c-0.4,0.7-0.5,1.5-0.5,2.3c0,0.9,0.2,1.6,0.5,2.3s0.9,1.2,1.5,1.6C449.5,82.8,450.2,83,451,83z"/>
	<path d="M465.4,83.9c-1.1,0-2-0.2-2.9-0.7c-0.8-0.5-1.5-1.1-2-1.9c-0.5-0.8-0.7-1.7-0.7-2.7c0-0.8,0.1-1.5,0.4-2.2
		c0.3-0.7,0.7-1.2,1.1-1.8c0.5-0.5,1.1-0.9,1.7-1.2c0.6-0.3,1.3-0.4,2.1-0.4c1,0,1.8,0.2,2.6,0.7c0.8,0.4,1.4,1.1,1.9,1.8
		c0.5,0.8,0.7,1.7,0.8,2.7c0,0.1,0,0.1,0,0.2c0,0,0,0.1,0,0.2h-9.6c0,0.9,0.2,1.6,0.6,2.3c0.4,0.7,0.9,1.2,1.6,1.6s1.5,0.6,2.3,0.6
		c0.8,0,1.6-0.2,2.3-0.5s1.2-0.9,1.6-1.5l0.8,0.4c-0.5,0.8-1.1,1.4-2,1.8C467.3,83.7,466.4,83.9,465.4,83.9z M461,77.7h8.5
		c-0.1-0.7-0.3-1.4-0.7-1.9c-0.4-0.6-0.9-1-1.5-1.3s-1.3-0.5-2-0.5c-0.7,0-1.4,0.2-2,0.5c-0.6,0.3-1.1,0.8-1.5,1.3
		C461.3,76.3,461.1,77,461,77.7z"/>
	<path d="M474,83.6V73.4h1.1v1.5c0.3-0.5,0.7-0.9,1.3-1.3c0.6-0.3,1.3-0.5,2.2-0.5c0.8,0,1.5,0.2,2,0.5c0.6,0.3,1,0.8,1.3,1.4
		c0.3,0.6,0.5,1.4,0.5,2.3v6.4h-1.1v-6.2c0-1.1-0.3-2-0.8-2.6s-1.3-0.9-2.2-0.9c-0.7,0-1.2,0.1-1.7,0.4s-0.8,0.6-1.1,1
		c-0.3,0.4-0.4,0.9-0.4,1.4v6.8H474z"/>
	<path d="M491.4,83.9c-1.1,0-2-0.2-2.9-0.7c-0.8-0.5-1.5-1.1-2-1.9c-0.5-0.8-0.7-1.7-0.7-2.7c0-0.8,0.1-1.5,0.4-2.2
		c0.3-0.7,0.7-1.2,1.2-1.8s1.1-0.9,1.7-1.2c0.6-0.3,1.3-0.4,2.1-0.4c1,0,1.8,0.2,2.6,0.7s1.4,1.1,1.9,1.8c0.5,0.8,0.7,1.7,0.8,2.7
		c0,0.1,0,0.1,0,0.2c0,0,0,0.1,0,0.2h-9.6c0,0.9,0.2,1.6,0.6,2.3c0.4,0.7,0.9,1.2,1.6,1.6c0.7,0.4,1.5,0.6,2.3,0.6
		c0.8,0,1.6-0.2,2.3-0.5s1.2-0.9,1.6-1.5l0.8,0.4c-0.5,0.8-1.1,1.4-2,1.8C493.3,83.7,492.4,83.9,491.4,83.9z M487,77.7h8.5
		c-0.1-0.7-0.3-1.4-0.7-1.9c-0.4-0.6-0.9-1-1.5-1.3c-0.6-0.3-1.3-0.5-2-0.5c-0.7,0-1.4,0.2-2,0.5c-0.6,0.3-1.1,0.8-1.5,1.3
		C487.3,76.3,487.1,77,487,77.7z"/>
	<path d="M504.2,83.6l11.3-15.5h-10.2v-1h12.2l-11.3,15.5H517v1H504.2z"/>
	<path d="M525.1,83.9c-1.5,0-2.5-0.3-3.2-1S521,81,521,79.4v-6.1h1.1v5.9c0,1.3,0.2,2.3,0.7,2.9s1.2,0.9,2.3,0.9s1.9-0.3,2.3-0.9
		c0.5-0.6,0.7-1.5,0.7-2.9v-5.9h1.1v6.1c0,1.6-0.3,2.8-0.9,3.5C527.6,83.6,526.5,83.9,525.1,83.9z"/>
	<path d="M533.5,83.6V66.4h1.1v8.4c0.3-0.5,0.7-0.9,1.3-1.3c0.6-0.3,1.3-0.5,2.2-0.5c0.8,0,1.5,0.2,2,0.5c0.6,0.3,1,0.8,1.3,1.4
		c0.3,0.6,0.5,1.4,0.5,2.3v6.4h-1.1v-6.2c0-1.1-0.3-2-0.8-2.6c-0.5-0.6-1.3-0.9-2.2-0.9c-0.7,0-1.2,0.1-1.7,0.4s-0.8,0.6-1.1,1.1
		c-0.3,0.4-0.4,0.9-0.4,1.4v6.8H533.5z"/>
	<path d="M550.4,83.9c-1,0-1.8-0.2-2.6-0.7c-0.8-0.5-1.4-1.1-1.8-1.9c-0.4-0.8-0.7-1.8-0.7-2.8c0-1.1,0.2-2,0.7-2.8
		c0.4-0.8,1.1-1.5,1.8-1.9c0.8-0.5,1.6-0.7,2.6-0.7s1.9,0.2,2.6,0.7c0.8,0.5,1.4,1.1,1.8,2v-2.4h1.1v10.2h-1.1v-2.4
		c-0.4,0.8-1,1.5-1.8,2C552.3,83.7,551.4,83.9,550.4,83.9z M550.7,83c0.8,0,1.6-0.2,2.2-0.6s1.1-0.9,1.5-1.6s0.5-1.5,0.5-2.3
		c0-0.9-0.2-1.7-0.5-2.3c-0.4-0.7-0.9-1.2-1.5-1.6s-1.4-0.6-2.2-0.6c-0.8,0-1.6,0.2-2.2,0.6s-1.1,0.9-1.5,1.6
		c-0.4,0.7-0.5,1.5-0.5,2.3c0,0.9,0.2,1.6,0.5,2.3c0.4,0.7,0.9,1.2,1.5,1.6C549.1,82.8,549.8,83,550.7,83z"/>
	<path d="M564.3,83.9c-1.5,0-2.5-0.3-3.2-1s-0.9-1.8-0.9-3.5v-6.1h1.1v5.9c0,1.3,0.2,2.3,0.7,2.9s1.2,0.9,2.3,0.9s1.9-0.3,2.3-0.9
		c0.5-0.6,0.7-1.5,0.7-2.9v-5.9h1.1v6.1c0,1.6-0.3,2.8-0.9,3.5C566.8,83.6,565.8,83.9,564.3,83.9z"/>
	<path d="M575.2,83.9c-0.8,0-1.6-0.2-2.2-0.7c-0.6-0.4-1.1-1.1-1.5-1.9l0.6-0.5c0.3,0.7,0.7,1.2,1.2,1.6c0.5,0.4,1.1,0.6,1.8,0.6
		c0.5,0,0.9-0.1,1.3-0.3c0.4-0.2,0.7-0.5,0.9-0.8c0.2-0.4,0.3-0.8,0.3-1.3c0-0.4-0.1-0.8-0.3-1c-0.2-0.2-0.5-0.5-0.9-0.6
		c-0.4-0.2-0.9-0.4-1.5-0.6c-0.4-0.2-0.9-0.4-1.3-0.6c-0.4-0.2-0.8-0.5-1-0.8c-0.3-0.3-0.4-0.8-0.4-1.3c0-0.5,0.1-0.9,0.4-1.3
		c0.3-0.4,0.6-0.7,1.1-0.9c0.5-0.2,1-0.3,1.6-0.3c0.6,0,1.1,0.1,1.6,0.4c0.5,0.3,0.9,0.7,1.3,1.1l-0.6,0.6c-0.5-0.9-1.3-1.3-2.3-1.3
		c-0.6,0-1.1,0.2-1.5,0.5c-0.4,0.3-0.6,0.8-0.6,1.3c0,0.4,0.1,0.7,0.3,0.9c0.2,0.2,0.5,0.4,0.9,0.6c0.4,0.2,0.8,0.3,1.2,0.5
		c0.6,0.2,1.2,0.5,1.6,0.7c0.5,0.2,0.8,0.5,1.1,0.9c0.2,0.3,0.4,0.8,0.4,1.4c0,0.7-0.2,1.2-0.5,1.7c-0.3,0.5-0.7,0.9-1.3,1.1
		C576.5,83.8,575.9,83.9,575.2,83.9z"/>
	<path d="M587.2,83.9c-1.1,0-2-0.2-2.9-0.7c-0.8-0.5-1.5-1.1-2-1.9c-0.5-0.8-0.7-1.7-0.7-2.7c0-0.8,0.1-1.5,0.4-2.2
		c0.3-0.7,0.7-1.2,1.1-1.8c0.5-0.5,1.1-0.9,1.7-1.2c0.6-0.3,1.3-0.4,2.1-0.4c1,0,1.8,0.2,2.6,0.7c0.8,0.4,1.4,1.1,1.9,1.8
		c0.5,0.8,0.7,1.7,0.8,2.7c0,0.1,0,0.1,0,0.2c0,0,0,0.1,0,0.2h-9.6c0,0.9,0.2,1.6,0.6,2.3c0.4,0.7,0.9,1.2,1.6,1.6s1.5,0.6,2.3,0.6
		c0.8,0,1.6-0.2,2.3-0.5s1.2-0.9,1.6-1.5l0.8,0.4c-0.5,0.8-1.1,1.4-2,1.8C589.1,83.7,588.2,83.9,587.2,83.9z M582.8,77.7h8.5
		c-0.1-0.7-0.3-1.4-0.7-1.9c-0.4-0.6-0.9-1-1.5-1.3s-1.3-0.5-2-0.5c-0.7,0-1.4,0.2-2,0.5c-0.6,0.3-1.1,0.8-1.5,1.3
		C583.1,76.3,582.9,77,582.8,77.7z"/>
	<path d="M599.6,83.6l8.1-9.3h-7.3v-0.9h9.3l-8.1,9.3h7.9v0.9H599.6z"/>
	<path d="M616.9,83.9c-1.5,0-2.5-0.3-3.2-1s-0.9-1.8-0.9-3.5v-6.1h1.1v5.9c0,1.3,0.2,2.3,0.7,2.9c0.5,0.6,1.2,0.9,2.3,0.9
		c1.1,0,1.9-0.3,2.3-0.9c0.5-0.6,0.7-1.5,0.7-2.9v-5.9h1.1v6.1c0,1.6-0.3,2.8-0.9,3.5C619.4,83.6,618.4,83.9,616.9,83.9z"/>
	<path d="M379.4,107.9c-0.8,0-1.6-0.2-2.2-0.7c-0.6-0.4-1.1-1.1-1.5-1.9l0.6-0.5c0.3,0.7,0.7,1.2,1.2,1.6c0.5,0.4,1.1,0.6,1.8,0.6
		c0.5,0,0.9-0.1,1.3-0.3c0.4-0.2,0.7-0.5,0.9-0.8c0.2-0.4,0.4-0.8,0.4-1.3c0-0.4-0.1-0.8-0.3-1c-0.2-0.2-0.5-0.5-0.9-0.6
		c-0.4-0.2-0.9-0.4-1.4-0.6c-0.4-0.2-0.9-0.4-1.3-0.6c-0.4-0.2-0.8-0.5-1-0.8c-0.3-0.3-0.4-0.8-0.4-1.3c0-0.5,0.1-0.9,0.4-1.3
		c0.3-0.4,0.6-0.7,1.1-0.9s1-0.3,1.6-0.3c0.6,0,1.1,0.1,1.6,0.4c0.5,0.3,0.9,0.7,1.3,1.1l-0.6,0.6c-0.5-0.9-1.3-1.3-2.3-1.3
		c-0.6,0-1.1,0.2-1.5,0.5c-0.4,0.3-0.6,0.8-0.6,1.3c0,0.4,0.1,0.7,0.3,0.9c0.2,0.2,0.5,0.4,0.9,0.6s0.8,0.3,1.2,0.5
		c0.6,0.2,1.2,0.5,1.6,0.7c0.5,0.2,0.8,0.5,1.1,0.9c0.2,0.3,0.4,0.8,0.4,1.4c0,0.7-0.2,1.2-0.5,1.7s-0.7,0.9-1.3,1.1
		S380.1,107.9,379.4,107.9z"/>
	<path d="M386.7,107.6V90.4h1.1v11.3l4.2-4.3h1.4l-4.6,4.8l4.8,5.5h-1.4l-4.4-5.1v5.1H386.7z"/>
	<path d="M397.7,95.3c-0.1,0-0.3,0-0.4-0.1c-0.1-0.1-0.2-0.2-0.3-0.3c-0.1-0.1-0.1-0.2-0.1-0.4c0-0.1,0-0.3,0.1-0.4
		c0.1-0.1,0.2-0.2,0.3-0.3c0.1-0.1,0.2-0.1,0.4-0.1c0.1,0,0.3,0,0.4,0.1c0.1,0.1,0.2,0.2,0.3,0.3c0.1,0.1,0.1,0.2,0.1,0.4
		c0,0.1,0,0.3-0.1,0.4c-0.1,0.1-0.2,0.2-0.3,0.3C398,95.3,397.9,95.3,397.7,95.3z M397.2,107.6V97.4h1.1v10.2H397.2z"/>
	<path d="M401.4,107.6l8.1-9.3h-7.3v-0.9h9.3l-8.1,9.3h7.9v0.9H401.4z"/>
	<path d="M413.4,107.6l8.1-9.3h-7.3v-0.9h9.3l-8.1,9.3h7.9v0.9H413.4z"/>
	<path d="M427.3,95.3c-0.1,0-0.3,0-0.4-0.1c-0.1-0.1-0.2-0.2-0.3-0.3c-0.1-0.1-0.1-0.2-0.1-0.4c0-0.1,0-0.3,0.1-0.4
		c0.1-0.1,0.2-0.2,0.3-0.3c0.1-0.1,0.2-0.1,0.4-0.1c0.1,0,0.3,0,0.4,0.1c0.1,0.1,0.2,0.2,0.3,0.3c0.1,0.1,0.1,0.2,0.1,0.4
		c0,0.1,0,0.3-0.1,0.4c-0.1,0.1-0.2,0.2-0.3,0.3C427.5,95.3,427.4,95.3,427.3,95.3z M426.8,107.6V97.4h1.1v10.2H426.8z"/>
	<path d="M437.1,107.9c-1.1,0-2-0.2-2.9-0.7c-0.8-0.5-1.5-1.1-2-1.9c-0.5-0.8-0.7-1.7-0.7-2.7c0-0.8,0.1-1.5,0.4-2.2
		c0.3-0.7,0.7-1.2,1.2-1.8s1.1-0.9,1.7-1.2c0.6-0.3,1.3-0.4,2.1-0.4c1,0,1.8,0.2,2.6,0.7s1.4,1.1,1.9,1.8c0.5,0.8,0.7,1.7,0.8,2.7
		c0,0.1,0,0.1,0,0.2c0,0,0,0.1,0,0.2h-9.6c0,0.9,0.2,1.6,0.6,2.3c0.4,0.7,0.9,1.2,1.6,1.6c0.7,0.4,1.5,0.6,2.3,0.6
		c0.8,0,1.6-0.2,2.3-0.5s1.2-0.9,1.6-1.5l0.8,0.4c-0.5,0.8-1.1,1.4-2,1.8C439,107.7,438.1,107.9,437.1,107.9z M432.6,101.7h8.5
		c-0.1-0.7-0.3-1.4-0.7-1.9c-0.4-0.6-0.9-1-1.5-1.3c-0.6-0.3-1.3-0.5-2-0.5c-0.7,0-1.4,0.2-2,0.5c-0.6,0.3-1.1,0.8-1.5,1.3
		C433,100.3,432.7,101,432.6,101.7z"/>
	<path d="M445.7,107.6V97.4h1.1v1.5c0.3-0.6,0.7-1.1,1.2-1.4c0.5-0.3,1.1-0.5,1.8-0.5c0.3,0,0.6,0,0.9,0.1s0.5,0.1,0.8,0.2l-0.4,0.9
		c-0.2-0.1-0.4-0.2-0.7-0.2c-0.2,0-0.5-0.1-0.7-0.1c-0.5,0-0.9,0.1-1.4,0.4s-0.8,0.6-1.1,1c-0.3,0.4-0.4,0.8-0.4,1.3v7H445.7z"/>
	<path d="M459,107.9c-1.1,0-2-0.2-2.9-0.7c-0.8-0.5-1.5-1.1-2-1.9c-0.5-0.8-0.7-1.7-0.7-2.7c0-0.8,0.1-1.5,0.4-2.2
		c0.3-0.7,0.7-1.2,1.1-1.8c0.5-0.5,1.1-0.9,1.7-1.2c0.6-0.3,1.3-0.4,2.1-0.4c1,0,1.8,0.2,2.6,0.7c0.8,0.4,1.4,1.1,1.9,1.8
		c0.5,0.8,0.7,1.7,0.8,2.7c0,0.1,0,0.1,0,0.2c0,0,0,0.1,0,0.2h-9.6c0,0.9,0.2,1.6,0.6,2.3c0.4,0.7,0.9,1.2,1.6,1.6s1.5,0.6,2.3,0.6
		c0.8,0,1.6-0.2,2.3-0.5s1.2-0.9,1.6-1.5l0.8,0.4c-0.5,0.8-1.1,1.4-2,1.8C460.9,107.7,460,107.9,459,107.9z M454.6,101.7h8.5
		c-0.1-0.7-0.3-1.4-0.7-1.9c-0.4-0.6-0.9-1-1.5-1.3s-1.3-0.5-2-0.5c-0.7,0-1.4,0.2-2,0.5c-0.6,0.3-1.1,0.8-1.5,1.3
		C454.9,100.3,454.7,101,454.6,101.7z"/>
	<path d="M467.7,107.6V97.4h1.1v1.5c0.3-0.5,0.7-0.9,1.3-1.3c0.6-0.3,1.3-0.5,2.2-0.5c0.8,0,1.5,0.2,2,0.5c0.6,0.3,1,0.8,1.3,1.4
		c0.3,0.6,0.5,1.4,0.5,2.3v6.4h-1.1v-6.2c0-1.1-0.3-2-0.8-2.6s-1.3-0.9-2.2-0.9c-0.7,0-1.2,0.1-1.7,0.4c-0.5,0.3-0.8,0.6-1.1,1
		c-0.3,0.4-0.4,0.9-0.4,1.4v6.8H467.7z"/>
	<path d="M489.3,107.9c-1.5,0-2.5-0.3-3.2-1s-0.9-1.8-0.9-3.5v-6.1h1.1v5.9c0,1.3,0.2,2.3,0.7,2.9s1.2,0.9,2.3,0.9s1.9-0.3,2.3-0.9
		c0.5-0.6,0.7-1.5,0.7-2.9v-5.9h1.1v6.1c0,1.6-0.3,2.8-0.9,3.5C491.8,107.6,490.7,107.9,489.3,107.9z"/>
	<path d="M497.7,107.6V97.4h1.1v1.5c0.3-0.5,0.7-0.9,1.3-1.3c0.6-0.3,1.3-0.5,2.2-0.5c0.8,0,1.5,0.2,2,0.5c0.6,0.3,1,0.8,1.3,1.4
		c0.3,0.6,0.5,1.4,0.5,2.3v6.4h-1.1v-6.2c0-1.1-0.3-2-0.8-2.6s-1.3-0.9-2.2-0.9c-0.7,0-1.2,0.1-1.7,0.4s-0.8,0.6-1.1,1
		c-0.3,0.4-0.4,0.9-0.4,1.4v6.8H497.7z"/>
	<path d="M514.7,107.9c-1,0-1.8-0.2-2.6-0.7c-0.8-0.5-1.4-1.1-1.8-1.9c-0.4-0.8-0.7-1.8-0.7-2.8c0-1.1,0.2-2,0.7-2.8
		c0.4-0.8,1.1-1.5,1.8-1.9s1.6-0.7,2.6-0.7c1,0,1.8,0.2,2.6,0.7c0.8,0.5,1.4,1.1,1.8,2v-9.3h1.1v17.2h-1.1v-2.4
		c-0.4,0.8-1,1.5-1.8,2S515.6,107.9,514.7,107.9z M514.9,107c0.8,0,1.6-0.2,2.2-0.6c0.6-0.4,1.1-0.9,1.5-1.6s0.5-1.5,0.5-2.3
		c0-0.9-0.2-1.6-0.5-2.3c-0.4-0.7-0.9-1.2-1.5-1.6c-0.6-0.4-1.4-0.6-2.2-0.6c-0.8,0-1.5,0.2-2.2,0.6s-1.1,0.9-1.5,1.6
		c-0.4,0.7-0.5,1.5-0.5,2.3c0,0.9,0.2,1.6,0.5,2.3s0.9,1.2,1.5,1.6C513.3,106.8,514,107,514.9,107z"/>
	<path d="M534.1,107.9c-1,0-1.8-0.2-2.6-0.7c-0.8-0.5-1.4-1.1-1.8-1.9c-0.4-0.8-0.7-1.8-0.7-2.8c0-1.1,0.2-2,0.7-2.8
		c0.4-0.8,1.1-1.5,1.8-1.9c0.8-0.5,1.6-0.7,2.6-0.7s1.9,0.2,2.6,0.7c0.8,0.5,1.4,1.1,1.8,2v-2.4h1.1v10.2h-1.1v-2.4
		c-0.4,0.8-1,1.5-1.8,2C535.9,107.7,535,107.9,534.1,107.9z M534.3,107c0.8,0,1.6-0.2,2.2-0.6s1.1-0.9,1.5-1.6s0.5-1.5,0.5-2.3
		c0-0.9-0.2-1.7-0.5-2.3c-0.4-0.7-0.9-1.2-1.5-1.6s-1.4-0.6-2.2-0.6c-0.8,0-1.6,0.2-2.2,0.6s-1.1,0.9-1.5,1.6
		c-0.4,0.7-0.5,1.5-0.5,2.3c0,0.9,0.2,1.6,0.5,2.3c0.4,0.7,0.9,1.2,1.5,1.6C532.7,106.8,533.5,107,534.3,107z"/>
	<path d="M547.9,107.9c-1.5,0-2.5-0.3-3.2-1c-0.6-0.7-0.9-1.8-0.9-3.5v-6.1h1.1v5.9c0,1.3,0.2,2.3,0.7,2.9c0.5,0.6,1.2,0.9,2.3,0.9
		c1.1,0,1.9-0.3,2.3-0.9c0.5-0.6,0.7-1.5,0.7-2.9v-5.9h1.1v6.1c0,1.6-0.3,2.8-0.9,3.5C550.5,107.6,549.4,107.9,547.9,107.9z"/>
	<path d="M556.5,107.6v-9.4h-1v-0.8h1v-3.9c0-0.7,0.1-1.3,0.3-1.8c0.2-0.5,0.5-0.9,0.9-1.1c0.4-0.3,0.9-0.4,1.4-0.4
		c0.3,0,0.7,0,1,0.1c0.3,0.1,0.5,0.2,0.8,0.4l-0.4,0.8c-0.3-0.2-0.7-0.4-1.2-0.4c-0.4,0-0.7,0.1-1,0.3c-0.3,0.2-0.4,0.4-0.6,0.8
		c-0.1,0.3-0.2,0.8-0.2,1.2v4h2.7v0.8h-2.7v9.4H556.5z"/>
	<path d="M568.8,107.9c-1,0-1.8-0.2-2.6-0.7c-0.8-0.5-1.4-1.1-1.8-2v2.4h-1.1V90.4h1.1v9.3c0.4-0.8,1-1.5,1.8-2
		c0.8-0.5,1.6-0.7,2.6-0.7c1,0,1.8,0.2,2.6,0.7s1.4,1.1,1.8,1.9c0.4,0.8,0.7,1.8,0.7,2.8c0,1-0.2,2-0.7,2.8
		c-0.4,0.8-1.1,1.5-1.8,1.9C570.6,107.7,569.8,107.9,568.8,107.9z M568.6,107c0.8,0,1.5-0.2,2.2-0.6c0.6-0.4,1.1-0.9,1.5-1.6
		s0.5-1.5,0.5-2.3c0-0.9-0.2-1.6-0.5-2.3c-0.4-0.7-0.9-1.2-1.5-1.6s-1.4-0.6-2.2-0.6c-0.8,0-1.6,0.2-2.2,0.6
		c-0.6,0.4-1.1,0.9-1.5,1.6c-0.4,0.7-0.5,1.5-0.5,2.3c0,0.9,0.2,1.6,0.5,2.3s0.9,1.2,1.5,1.6C567,106.8,567.7,107,568.6,107z"/>
	<path d="M582,107.9c-1,0-1.8-0.2-2.6-0.7c-0.8-0.5-1.4-1.1-1.8-1.9c-0.4-0.8-0.7-1.8-0.7-2.8c0-1.1,0.2-2,0.7-2.8
		c0.4-0.8,1.1-1.5,1.8-1.9c0.8-0.5,1.6-0.7,2.6-0.7s1.9,0.2,2.6,0.7c0.8,0.5,1.4,1.1,1.8,2v-2.4h1.1v10.2h-1.1v-2.4
		c-0.4,0.8-1,1.5-1.8,2C583.9,107.7,583,107.9,582,107.9z M582.3,107c0.8,0,1.6-0.2,2.2-0.6s1.1-0.9,1.5-1.6s0.5-1.5,0.5-2.3
		c0-0.9-0.2-1.7-0.5-2.3c-0.4-0.7-0.9-1.2-1.5-1.6s-1.4-0.6-2.2-0.6c-0.8,0-1.6,0.2-2.2,0.6s-1.1,0.9-1.5,1.6
		c-0.4,0.7-0.5,1.5-0.5,2.3c0,0.9,0.2,1.6,0.5,2.3c0.4,0.7,0.9,1.2,1.5,1.6C580.7,106.8,581.4,107,582.3,107z"/>
	<path d="M595.9,107.9c-1.5,0-2.5-0.3-3.2-1c-0.6-0.7-0.9-1.8-0.9-3.5v-6.1h1.1v5.9c0,1.3,0.2,2.3,0.7,2.9c0.5,0.6,1.2,0.9,2.3,0.9
		c1.1,0,1.9-0.3,2.3-0.9c0.5-0.6,0.7-1.5,0.7-2.9v-5.9h1.1v6.1c0,1.6-0.3,2.8-0.9,3.5C598.4,107.6,597.4,107.9,595.9,107.9z"/>
	<path d="M609.1,107.9c-1.1,0-2-0.2-2.9-0.7c-0.8-0.5-1.5-1.1-2-1.9c-0.5-0.8-0.7-1.7-0.7-2.7c0-0.8,0.1-1.5,0.4-2.2
		c0.3-0.7,0.7-1.2,1.2-1.8s1.1-0.9,1.7-1.2c0.6-0.3,1.3-0.4,2.1-0.4c1,0,1.8,0.2,2.6,0.7s1.4,1.1,1.9,1.8c0.5,0.8,0.7,1.7,0.8,2.7
		c0,0.1,0,0.1,0,0.2c0,0,0,0.1,0,0.2h-9.6c0,0.9,0.2,1.6,0.6,2.3c0.4,0.7,0.9,1.2,1.6,1.6s1.5,0.6,2.3,0.6c0.8,0,1.6-0.2,2.3-0.5
		s1.2-0.9,1.6-1.5l0.8,0.4c-0.5,0.8-1.1,1.4-2,1.8C611,107.7,610.1,107.9,609.1,107.9z M604.6,101.7h8.5c-0.1-0.7-0.3-1.4-0.7-1.9
		c-0.4-0.6-0.9-1-1.5-1.3c-0.6-0.3-1.3-0.5-2-0.5c-0.7,0-1.4,0.2-2,0.5s-1.1,0.8-1.5,1.3C605,100.3,604.7,101,604.6,101.7z"/>
	<path d="M617.7,107.6V97.4h1.1v1.5c0.3-0.5,0.7-0.9,1.3-1.3c0.6-0.3,1.3-0.5,2.2-0.5c0.8,0,1.5,0.2,2,0.5c0.6,0.3,1,0.8,1.3,1.4
		c0.3,0.6,0.5,1.4,0.5,2.3v6.4H625v-6.2c0-1.1-0.3-2-0.8-2.6s-1.3-0.9-2.2-0.9c-0.7,0-1.2,0.1-1.7,0.4c-0.5,0.3-0.8,0.6-1.1,1
		c-0.3,0.4-0.4,0.9-0.4,1.4v6.8H617.7z"/>
	<path d="M372.3,131.6l-4.9-10.2h1.2l4,8.6l3.4-8.6h0.7l3.4,8.6l4-8.6h1.2l-4.9,10.2h-0.7l-3.4-8.5l-3.4,8.5H372.3z"/>
	<path d="M392.8,131.9c-1,0-1.8-0.2-2.6-0.7c-0.8-0.5-1.4-1.1-1.8-1.9c-0.4-0.8-0.7-1.8-0.7-2.8c0-1.1,0.2-2,0.7-2.8
		c0.4-0.8,1.1-1.5,1.8-1.9s1.6-0.7,2.6-0.7c1,0,1.9,0.2,2.6,0.7c0.8,0.5,1.4,1.1,1.8,2v-2.4h1.1v10.2h-1.1v-2.4
		c-0.4,0.8-1,1.5-1.8,2S393.7,131.9,392.8,131.9z M393,131c0.8,0,1.6-0.2,2.2-0.6s1.1-0.9,1.5-1.6s0.5-1.5,0.5-2.3
		c0-0.9-0.2-1.7-0.5-2.3c-0.4-0.7-0.9-1.2-1.5-1.6s-1.4-0.6-2.2-0.6s-1.6,0.2-2.2,0.6s-1.1,0.9-1.5,1.6c-0.4,0.7-0.5,1.5-0.5,2.3
		c0,0.9,0.2,1.6,0.5,2.3s0.9,1.2,1.5,1.6C391.4,130.8,392.2,131,393,131z M391.3,118c-0.2,0-0.4-0.1-0.5-0.2
		c-0.1-0.1-0.2-0.3-0.2-0.5s0.1-0.4,0.2-0.5c0.1-0.1,0.3-0.2,0.5-0.2s0.4,0.1,0.5,0.2c0.1,0.1,0.2,0.3,0.2,0.5s-0.1,0.4-0.2,0.5
		C391.7,118,391.5,118,391.3,118z M396,118c-0.2,0-0.4-0.1-0.5-0.2c-0.1-0.1-0.2-0.3-0.2-0.5s0.1-0.4,0.2-0.5
		c0.1-0.1,0.3-0.2,0.5-0.2s0.4,0.1,0.5,0.2c0.1,0.1,0.2,0.3,0.2,0.5s-0.1,0.4-0.2,0.5C396.4,118,396.2,118,396,118z"/>
	<path d="M402.7,131.6v-10.2h1.1v1.5c0.3-0.6,0.7-1.1,1.2-1.4c0.5-0.3,1.1-0.5,1.8-0.5c0.3,0,0.6,0,0.9,0.1s0.5,0.1,0.8,0.2
		l-0.4,0.9c-0.2-0.1-0.4-0.2-0.7-0.2c-0.2,0-0.5-0.1-0.7-0.1c-0.5,0-0.9,0.1-1.4,0.4s-0.8,0.6-1.1,1c-0.3,0.4-0.4,0.8-0.4,1.3v7
		H402.7z"/>
	<path d="M416,131.9c-1.1,0-2-0.2-2.9-0.7s-1.5-1.1-2-1.9c-0.5-0.8-0.7-1.7-0.7-2.7c0-0.8,0.1-1.5,0.4-2.2c0.3-0.7,0.7-1.2,1.1-1.8
		c0.5-0.5,1.1-0.9,1.7-1.2c0.6-0.3,1.3-0.4,2.1-0.4c1,0,1.8,0.2,2.6,0.7c0.8,0.4,1.4,1.1,1.9,1.8c0.5,0.8,0.7,1.7,0.8,2.7
		c0,0.1,0,0.1,0,0.2c0,0,0,0.1,0,0.2h-9.6c0,0.9,0.2,1.6,0.6,2.3c0.4,0.7,0.9,1.2,1.6,1.6c0.7,0.4,1.5,0.6,2.3,0.6
		c0.8,0,1.6-0.2,2.3-0.5s1.2-0.9,1.6-1.5l0.8,0.4c-0.5,0.8-1.1,1.4-2,1.8C417.9,131.7,417,131.9,416,131.9z M411.6,125.7h8.5
		c-0.1-0.7-0.3-1.4-0.7-1.9c-0.4-0.6-0.9-1-1.5-1.3c-0.6-0.3-1.3-0.5-2-0.5c-0.7,0-1.4,0.2-2,0.5s-1.1,0.8-1.5,1.3
		C411.9,124.3,411.7,125,411.6,125.7z"/>
	<path d="M432.4,131.9c-0.8,0-1.6-0.2-2.2-0.7c-0.6-0.4-1.1-1.1-1.5-1.9l0.6-0.5c0.3,0.7,0.7,1.2,1.2,1.6c0.5,0.4,1.1,0.6,1.8,0.6
		c0.5,0,0.9-0.1,1.3-0.3c0.4-0.2,0.7-0.5,0.9-0.8c0.2-0.4,0.3-0.8,0.3-1.3c0-0.4-0.1-0.8-0.3-1c-0.2-0.2-0.5-0.5-0.9-0.6
		c-0.4-0.2-0.9-0.4-1.5-0.6c-0.4-0.2-0.9-0.4-1.3-0.6c-0.4-0.2-0.8-0.5-1-0.8c-0.3-0.3-0.4-0.8-0.4-1.3c0-0.5,0.1-0.9,0.4-1.3
		c0.3-0.4,0.6-0.7,1.1-0.9c0.5-0.2,1-0.3,1.6-0.3c0.6,0,1.1,0.1,1.6,0.4c0.5,0.3,0.9,0.7,1.3,1.1l-0.6,0.6c-0.5-0.9-1.3-1.3-2.3-1.3
		c-0.6,0-1.1,0.2-1.5,0.5c-0.4,0.3-0.6,0.8-0.6,1.3c0,0.4,0.1,0.7,0.3,0.9c0.2,0.2,0.5,0.4,0.9,0.6c0.4,0.2,0.8,0.3,1.2,0.5
		c0.6,0.2,1.2,0.5,1.6,0.7c0.5,0.2,0.8,0.5,1.1,0.9c0.2,0.3,0.4,0.8,0.4,1.4c0,0.7-0.2,1.2-0.5,1.7c-0.3,0.5-0.7,0.9-1.3,1.1
		C433.7,131.8,433.1,131.9,432.4,131.9z"/>
	<path d="M444.4,131.9c-0.8,0-1.5-0.1-2.2-0.4s-1.3-0.6-1.8-1.1c-0.5-0.5-0.9-1.1-1.2-1.7c-0.3-0.7-0.4-1.4-0.4-2.2s0.1-1.5,0.4-2.2
		s0.7-1.2,1.2-1.7c0.5-0.5,1.1-0.9,1.8-1.1c0.7-0.3,1.4-0.4,2.2-0.4c0.7,0,1.3,0.1,1.9,0.3s1.1,0.5,1.6,0.9l-0.5,0.7
		c-0.8-0.6-1.8-1-2.9-1c-0.9,0-1.7,0.2-2.4,0.6c-0.7,0.4-1.2,0.9-1.6,1.6c-0.4,0.7-0.6,1.5-0.6,2.3c0,0.9,0.2,1.6,0.6,2.3
		c0.4,0.7,0.9,1.2,1.6,1.6s1.5,0.6,2.4,0.6c0.6,0,1.1-0.1,1.6-0.2c0.5-0.2,0.9-0.4,1.3-0.7l0.5,0.7c-0.5,0.4-1,0.6-1.6,0.8
		C445.7,131.8,445,131.9,444.4,131.9z"/>
	<path d="M451.2,131.6v-17.2h1.1v8.4c0.3-0.5,0.7-0.9,1.3-1.3c0.6-0.3,1.3-0.5,2.2-0.5c0.8,0,1.5,0.2,2,0.5c0.6,0.3,1,0.8,1.3,1.4
		c0.3,0.6,0.5,1.4,0.5,2.3v6.4h-1.1v-6.2c0-1.1-0.3-2-0.8-2.6c-0.5-0.6-1.3-0.9-2.2-0.9c-0.7,0-1.2,0.1-1.7,0.4
		c-0.5,0.3-0.8,0.6-1.1,1.1c-0.3,0.4-0.4,0.9-0.4,1.4v6.8H451.2z"/>
	<path d="M468.7,131.9c-1.1,0-2-0.2-2.8-0.7c-0.8-0.5-1.5-1.1-2-1.9c-0.5-0.8-0.7-1.8-0.7-2.8c0-1.1,0.2-2,0.7-2.8
		c0.5-0.8,1.2-1.5,2-1.9c0.8-0.5,1.8-0.7,2.8-0.7c1.1,0,2,0.2,2.8,0.7c0.8,0.5,1.5,1.1,2,1.9c0.5,0.8,0.7,1.8,0.7,2.8
		c0,1.1-0.2,2-0.7,2.8c-0.5,0.8-1.2,1.5-2,1.9C470.7,131.7,469.7,131.9,468.7,131.9z M468.7,131c0.9,0,1.6-0.2,2.3-0.6
		c0.7-0.4,1.2-0.9,1.6-1.6s0.6-1.4,0.6-2.3c0-0.9-0.2-1.6-0.6-2.3c-0.4-0.7-0.9-1.2-1.6-1.6c-0.7-0.4-1.4-0.6-2.3-0.6
		c-0.9,0-1.6,0.2-2.3,0.6c-0.7,0.4-1.2,0.9-1.6,1.6c-0.4,0.7-0.6,1.4-0.6,2.3c0,0.9,0.2,1.6,0.6,2.3s0.9,1.2,1.6,1.6
		S467.8,131,468.7,131z"/>
	<path d="M477.9,131.6v-10.2h1.1v1.5c0.3-0.5,0.7-0.9,1.3-1.3c0.6-0.3,1.3-0.5,2.2-0.5c0.8,0,1.5,0.2,2,0.5c0.6,0.3,1,0.8,1.3,1.4
		c0.3,0.6,0.5,1.4,0.5,2.3v6.4h-1.1v-6.2c0-1.1-0.3-2-0.8-2.6s-1.3-0.9-2.2-0.9c-0.7,0-1.2,0.1-1.7,0.4c-0.5,0.3-0.8,0.6-1.1,1
		c-0.3,0.4-0.4,0.9-0.4,1.4v6.8H477.9z"/>
	<path d="M500.4,131.9c-1.1,0-2-0.2-2.9-0.7c-0.8-0.5-1.5-1.1-2-1.9c-0.5-0.8-0.7-1.7-0.7-2.7c0-0.8,0.1-1.5,0.4-2.2
		c0.3-0.7,0.7-1.2,1.1-1.8c0.5-0.5,1.1-0.9,1.7-1.2c0.6-0.3,1.3-0.4,2.1-0.4c1,0,1.8,0.2,2.6,0.7c0.8,0.4,1.4,1.1,1.9,1.8
		c0.5,0.8,0.7,1.7,0.8,2.7c0,0.1,0,0.1,0,0.2c0,0,0,0.1,0,0.2h-9.6c0,0.9,0.2,1.6,0.6,2.3c0.4,0.7,0.9,1.2,1.6,1.6s1.5,0.6,2.3,0.6
		c0.8,0,1.6-0.2,2.3-0.5s1.2-0.9,1.6-1.5l0.8,0.4c-0.5,0.8-1.1,1.4-2,1.8C502.3,131.7,501.4,131.9,500.4,131.9z M495.9,125.7h8.5
		c-0.1-0.7-0.3-1.4-0.7-1.9c-0.4-0.6-0.9-1-1.5-1.3s-1.3-0.5-2-0.5c-0.7,0-1.4,0.2-2,0.5c-0.6,0.3-1.1,0.8-1.5,1.3
		C496.3,124.3,496,125,495.9,125.7z"/>
	<path d="M509.5,119.3c-0.1,0-0.3,0-0.4-0.1c-0.1-0.1-0.2-0.2-0.3-0.3c-0.1-0.1-0.1-0.2-0.1-0.4c0-0.1,0-0.3,0.1-0.4
		c0.1-0.1,0.2-0.2,0.3-0.3c0.1-0.1,0.2-0.1,0.4-0.1c0.1,0,0.3,0,0.4,0.1c0.1,0.1,0.2,0.2,0.3,0.3c0.1,0.1,0.1,0.2,0.1,0.4
		c0,0.1,0,0.3-0.1,0.4c-0.1,0.1-0.2,0.2-0.3,0.3C509.8,119.3,509.7,119.3,509.5,119.3z M509,131.6v-10.2h1.1v10.2H509z"/>
	<path d="M514.6,131.6v-10.2h1.1v1.5c0.3-0.5,0.7-0.9,1.3-1.3c0.6-0.3,1.3-0.5,2.2-0.5c0.8,0,1.5,0.2,2,0.5c0.6,0.3,1,0.8,1.3,1.4
		c0.3,0.6,0.5,1.4,0.5,2.3v6.4h-1.1v-6.2c0-1.1-0.3-2-0.8-2.6s-1.3-0.9-2.2-0.9c-0.7,0-1.2,0.1-1.7,0.4c-0.5,0.3-0.8,0.6-1.1,1
		c-0.3,0.4-0.4,0.9-0.4,1.4v6.8H514.6z"/>
	<path d="M535.6,131.6v-15.5h-5.2v-1h11.6v1h-5.3v15.5H535.6z"/>
	<path d="M548.7,131.9c-1.1,0-2-0.2-2.8-0.7s-1.5-1.1-2-1.9c-0.5-0.8-0.7-1.8-0.7-2.8c0-1.1,0.2-2,0.7-2.8c0.5-0.8,1.2-1.5,2-1.9
		s1.8-0.7,2.8-0.7c1.1,0,2,0.2,2.8,0.7c0.8,0.5,1.5,1.1,2,1.9c0.5,0.8,0.7,1.8,0.7,2.8c0,1.1-0.2,2-0.7,2.8c-0.5,0.8-1.2,1.5-2,1.9
		C550.7,131.7,549.8,131.9,548.7,131.9z M548.7,131c0.9,0,1.6-0.2,2.3-0.6s1.2-0.9,1.6-1.6c0.4-0.7,0.6-1.4,0.6-2.3
		c0-0.9-0.2-1.6-0.6-2.3c-0.4-0.7-0.9-1.2-1.6-1.6c-0.7-0.4-1.4-0.6-2.3-0.6c-0.9,0-1.6,0.2-2.3,0.6c-0.7,0.4-1.2,0.9-1.6,1.6
		c-0.4,0.7-0.6,1.4-0.6,2.3c0,0.9,0.2,1.6,0.6,2.3c0.4,0.7,0.9,1.2,1.6,1.6S547.9,131,548.7,131z"/>
	<path d="M558,126.3v-0.9h6.4v0.9H558z"/>
	<path d="M569.5,131.6v-16.5h3.5c1.2,0,2.3,0.2,3.3,0.6s1.9,1,2.6,1.8c0.8,0.8,1.3,1.6,1.8,2.6c0.4,1,0.6,2.1,0.6,3.2
		c0,1.2-0.2,2.2-0.6,3.2s-1,1.9-1.8,2.6c-0.8,0.8-1.6,1.3-2.6,1.8s-2.1,0.6-3.3,0.6H569.5z M570.6,130.6h2.4c1,0,2-0.2,2.8-0.6
		c0.9-0.4,1.7-0.9,2.3-1.5c0.7-0.7,1.2-1.4,1.5-2.3c0.4-0.9,0.6-1.8,0.6-2.9c0-1-0.2-2-0.5-2.9c-0.4-0.9-0.9-1.6-1.5-2.3
		c-0.7-0.7-1.4-1.2-2.3-1.5c-0.9-0.4-1.8-0.6-2.8-0.6h-2.4V130.6z"/>
	<path d="M590.2,131.9c-1.1,0-2-0.2-2.8-0.7c-0.8-0.5-1.5-1.1-2-1.9c-0.5-0.8-0.7-1.8-0.7-2.8c0-1.1,0.2-2,0.7-2.8
		c0.5-0.8,1.2-1.5,2-1.9c0.8-0.5,1.8-0.7,2.8-0.7c1.1,0,2,0.2,2.8,0.7c0.8,0.5,1.5,1.1,2,1.9c0.5,0.8,0.7,1.8,0.7,2.8
		c0,1.1-0.2,2-0.7,2.8c-0.5,0.8-1.2,1.5-2,1.9C592.2,131.7,591.3,131.9,590.2,131.9z M590.2,131c0.9,0,1.6-0.2,2.3-0.6
		c0.7-0.4,1.2-0.9,1.6-1.6s0.6-1.4,0.6-2.3c0-0.9-0.2-1.6-0.6-2.3c-0.4-0.7-0.9-1.2-1.6-1.6c-0.7-0.4-1.4-0.6-2.3-0.6
		c-0.9,0-1.6,0.2-2.3,0.6c-0.7,0.4-1.2,0.9-1.6,1.6c-0.4,0.7-0.6,1.4-0.6,2.3c0,0.9,0.2,1.6,0.6,2.3s0.9,1.2,1.6,1.6
		S589.4,131,590.2,131z"/>
	<path d="M609,131.9c-1,0-1.8-0.2-2.6-0.7c-0.8-0.5-1.4-1.1-1.8-1.9c-0.4-0.8-0.7-1.8-0.7-2.8c0-1.1,0.2-2,0.7-2.8
		c0.4-0.8,1.1-1.5,1.8-1.9s1.6-0.7,2.6-0.7c1,0,1.9,0.2,2.6,0.7c0.8,0.5,1.4,1.1,1.8,2v-2.4h1.1v10.2h-1.1v-2.4
		c-0.4,0.8-1,1.5-1.8,2C610.8,131.7,610,131.9,609,131.9z M609.2,131c0.8,0,1.6-0.2,2.2-0.6s1.1-0.9,1.5-1.6s0.5-1.5,0.5-2.3
		c0-0.9-0.2-1.7-0.5-2.3c-0.4-0.7-0.9-1.2-1.5-1.6s-1.4-0.6-2.2-0.6c-0.8,0-1.6,0.2-2.2,0.6s-1.1,0.9-1.5,1.6
		c-0.4,0.7-0.6,1.5-0.6,2.3c0,0.9,0.2,1.6,0.6,2.3s0.9,1.2,1.5,1.6C607.7,130.8,608.4,131,609.2,131z"/>
	<path d="M622.9,131.9c-1.5,0-2.5-0.3-3.2-1s-0.9-1.8-0.9-3.5v-6.1h1.1v5.9c0,1.3,0.2,2.3,0.7,2.9c0.5,0.6,1.2,0.9,2.3,0.9
		c1.1,0,1.9-0.3,2.3-0.9c0.5-0.6,0.7-1.5,0.7-2.9v-5.9h1.1v6.1c0,1.6-0.3,2.8-0.9,3.5C625.4,131.6,624.4,131.9,622.9,131.9z"/>
	<path d="M631.4,131.6v-9.4h-0.9v-0.8h0.9v-3.9c0-0.7,0.1-1.3,0.3-1.8c0.2-0.5,0.5-0.9,0.9-1.1c0.4-0.3,0.9-0.4,1.4-0.4
		c0.3,0,0.7,0,1,0.1c0.3,0.1,0.5,0.2,0.8,0.4l-0.4,0.8c-0.3-0.2-0.7-0.4-1.2-0.4c-0.4,0-0.7,0.1-1,0.3s-0.4,0.4-0.6,0.8
		c-0.1,0.3-0.2,0.8-0.2,1.2v4h2.7v0.8h-2.7v9.4H631.4z"/>
	<path d="M436.5,155.6v-10.2h1.1v1.5c0.4-0.6,0.9-1,1.4-1.3s1.2-0.5,2-0.5c0.9,0,1.6,0.2,2.2,0.6c0.6,0.4,1,0.9,1.3,1.6
		c0.4-0.7,0.9-1.2,1.5-1.6c0.6-0.4,1.4-0.6,2.2-0.6c0.7,0,1.4,0.1,1.9,0.4c0.6,0.3,1,0.7,1.3,1.3c0.3,0.6,0.5,1.3,0.5,2.1v6.7h-1.1
		v-6.4c0-1-0.3-1.8-0.8-2.4c-0.5-0.6-1.2-0.9-2.1-0.9c-0.6,0-1.2,0.1-1.7,0.4s-0.9,0.6-1.2,1c-0.3,0.4-0.4,0.8-0.4,1.3v7h-1.1V149
		c0-0.9-0.3-1.7-0.8-2.3s-1.2-0.8-2.1-0.8c-0.6,0-1.1,0.1-1.6,0.4c-0.5,0.3-0.9,0.6-1.2,1s-0.5,0.8-0.5,1.2v7.1H436.5z"/>
	<path d="M461,155.9c-1.1,0-2-0.2-2.9-0.7c-0.8-0.5-1.5-1.1-2-1.9c-0.5-0.8-0.7-1.7-0.7-2.7c0-0.8,0.1-1.5,0.4-2.2
		c0.3-0.7,0.7-1.2,1.1-1.8c0.5-0.5,1.1-0.9,1.7-1.2c0.6-0.3,1.3-0.4,2.1-0.4c1,0,1.8,0.2,2.6,0.7c0.8,0.4,1.4,1.1,1.9,1.8
		c0.5,0.8,0.7,1.7,0.8,2.7c0,0.1,0,0.1,0,0.2c0,0,0,0.1,0,0.2h-9.6c0,0.9,0.2,1.6,0.6,2.3c0.4,0.7,0.9,1.2,1.6,1.6s1.5,0.6,2.3,0.6
		c0.8,0,1.6-0.2,2.3-0.5s1.2-0.9,1.6-1.5l0.8,0.4c-0.5,0.8-1.1,1.4-2,1.8C463,155.7,462,155.9,461,155.9z M456.6,149.7h8.5
		c-0.1-0.7-0.3-1.4-0.7-1.9c-0.4-0.6-0.9-1-1.5-1.3s-1.3-0.5-2-0.5c-0.7,0-1.4,0.2-2,0.5c-0.6,0.3-1.1,0.8-1.5,1.3
		C456.9,148.3,456.7,149,456.6,149.7z"/>
	<path d="M470.2,143.3c-0.1,0-0.3,0-0.4-0.1c-0.1-0.1-0.2-0.2-0.3-0.3c-0.1-0.1-0.1-0.2-0.1-0.4c0-0.1,0-0.3,0.1-0.4
		c0.1-0.1,0.2-0.2,0.3-0.3c0.1-0.1,0.2-0.1,0.4-0.1c0.1,0,0.3,0,0.4,0.1c0.1,0.1,0.2,0.2,0.3,0.3c0.1,0.1,0.1,0.2,0.1,0.4
		c0,0.1,0,0.3-0.1,0.4c-0.1,0.1-0.2,0.2-0.3,0.3C470.5,143.3,470.3,143.3,470.2,143.3z M469.7,155.6v-10.2h1.1v10.2H469.7z"/>
	<path d="M475.2,155.6v-10.2h1.1v1.5c0.3-0.5,0.7-0.9,1.3-1.3c0.6-0.3,1.3-0.5,2.2-0.5c0.8,0,1.5,0.2,2,0.5c0.6,0.3,1,0.8,1.3,1.4
		c0.3,0.6,0.5,1.4,0.5,2.3v6.4h-1.1v-6.2c0-1.1-0.3-2-0.8-2.6s-1.3-0.9-2.2-0.9c-0.7,0-1.2,0.1-1.7,0.4s-0.8,0.6-1.1,1
		c-0.3,0.4-0.4,0.9-0.4,1.4v6.8H475.2z"/>
	<path d="M492.6,155.9c-1.1,0-2-0.2-2.9-0.7c-0.8-0.5-1.5-1.1-2-1.9c-0.5-0.8-0.7-1.7-0.7-2.7c0-0.8,0.1-1.5,0.4-2.2
		c0.3-0.7,0.7-1.2,1.2-1.8s1.1-0.9,1.7-1.2c0.6-0.3,1.3-0.4,2.1-0.4c1,0,1.8,0.2,2.6,0.7s1.4,1.1,1.9,1.8c0.5,0.8,0.7,1.7,0.8,2.7
		c0,0.1,0,0.1,0,0.2c0,0,0,0.1,0,0.2h-9.6c0,0.9,0.2,1.6,0.6,2.3c0.4,0.7,0.9,1.2,1.6,1.6c0.7,0.4,1.5,0.6,2.3,0.6
		c0.8,0,1.6-0.2,2.3-0.5s1.2-0.9,1.6-1.5l0.8,0.4c-0.5,0.8-1.1,1.4-2,1.8C494.5,155.7,493.6,155.9,492.6,155.9z M488.1,149.7h8.5
		c-0.1-0.7-0.3-1.4-0.7-1.9c-0.4-0.6-0.9-1-1.5-1.3c-0.6-0.3-1.3-0.5-2-0.5c-0.7,0-1.4,0.2-2,0.5c-0.6,0.3-1.1,0.8-1.5,1.3
		C488.5,148.3,488.2,149,488.1,149.7z"/>
	<path d="M501.2,155.6v-10.2h1.1v1.5c0.3-0.6,0.7-1.1,1.2-1.4c0.5-0.3,1.1-0.5,1.8-0.5c0.3,0,0.6,0,0.9,0.1s0.5,0.1,0.8,0.2
		l-0.4,0.9c-0.2-0.1-0.4-0.2-0.7-0.2c-0.2,0-0.5-0.1-0.7-0.1c-0.5,0-0.9,0.1-1.4,0.4s-0.8,0.6-1.1,1c-0.3,0.4-0.4,0.8-0.4,1.3v7
		H501.2z"/>
	<path d="M515.5,155.6v-16.5h1.1v15.5h7.1v1H515.5z"/>
	<path d="M527.8,143.3c-0.1,0-0.3,0-0.4-0.1c-0.1-0.1-0.2-0.2-0.3-0.3c-0.1-0.1-0.1-0.2-0.1-0.4c0-0.1,0-0.3,0.1-0.4
		c0.1-0.1,0.2-0.2,0.3-0.3c0.1-0.1,0.2-0.1,0.4-0.1c0.1,0,0.3,0,0.4,0.1c0.1,0.1,0.2,0.2,0.3,0.3c0.1,0.1,0.1,0.2,0.1,0.4
		c0,0.1,0,0.3-0.1,0.4c-0.1,0.1-0.2,0.2-0.3,0.3C528.1,143.3,528,143.3,527.8,143.3z M527.3,155.6v-10.2h1.1v10.2H527.3z"/>
	<path d="M535.4,155.9c-0.8,0-1.6-0.2-2.2-0.7c-0.6-0.4-1.1-1.1-1.5-1.9l0.6-0.5c0.3,0.7,0.7,1.2,1.2,1.6c0.5,0.4,1.1,0.6,1.8,0.6
		c0.5,0,0.9-0.1,1.3-0.3c0.4-0.2,0.7-0.5,0.9-0.8c0.2-0.4,0.3-0.8,0.3-1.3c0-0.4-0.1-0.8-0.3-1c-0.2-0.2-0.5-0.5-0.9-0.6
		c-0.4-0.2-0.9-0.4-1.5-0.6c-0.4-0.2-0.9-0.4-1.3-0.6c-0.4-0.2-0.8-0.5-1-0.8c-0.3-0.3-0.4-0.8-0.4-1.3c0-0.5,0.1-0.9,0.4-1.3
		c0.3-0.4,0.6-0.7,1.1-0.9c0.5-0.2,1-0.3,1.6-0.3c0.6,0,1.1,0.1,1.6,0.4c0.5,0.3,0.9,0.7,1.3,1.1l-0.6,0.6c-0.5-0.9-1.3-1.3-2.3-1.3
		c-0.6,0-1.1,0.2-1.5,0.5c-0.4,0.3-0.6,0.8-0.6,1.3c0,0.4,0.1,0.7,0.3,0.9c0.2,0.2,0.5,0.4,0.9,0.6c0.4,0.2,0.8,0.3,1.2,0.5
		c0.6,0.2,1.2,0.5,1.6,0.7c0.5,0.2,0.8,0.5,1.1,0.9c0.2,0.3,0.4,0.8,0.4,1.4c0,0.7-0.2,1.2-0.5,1.7c-0.3,0.5-0.7,0.9-1.3,1.1
		C536.7,155.8,536.1,155.9,535.4,155.9z"/>
	<path d="M544.8,155.9c-0.7,0-1.3-0.2-1.6-0.7c-0.4-0.5-0.6-1.2-0.6-2v-7h-1v-0.8h1v-3.8h1.1v3.8h2.6v0.8h-2.6v6.9
		c0,0.6,0.1,1.1,0.3,1.4c0.2,0.3,0.6,0.5,1,0.5c0.4,0,0.8-0.1,1.1-0.3l0.3,0.9c-0.2,0.1-0.4,0.2-0.7,0.3S545.1,155.9,544.8,155.9z"
		/>
	<path d="M554.4,155.9c-1.1,0-2-0.2-2.9-0.7c-0.8-0.5-1.5-1.1-2-1.9c-0.5-0.8-0.7-1.7-0.7-2.7c0-0.8,0.1-1.5,0.4-2.2
		c0.3-0.7,0.7-1.2,1.1-1.8c0.5-0.5,1.1-0.9,1.7-1.2c0.6-0.3,1.3-0.4,2.1-0.4c1,0,1.8,0.2,2.6,0.7c0.8,0.4,1.4,1.1,1.9,1.8
		c0.5,0.8,0.7,1.7,0.8,2.7c0,0.1,0,0.1,0,0.2c0,0,0,0.1,0,0.2h-9.6c0,0.9,0.2,1.6,0.6,2.3c0.4,0.7,0.9,1.2,1.6,1.6s1.5,0.6,2.3,0.6
		c0.8,0,1.6-0.2,2.3-0.5s1.2-0.9,1.6-1.5l0.8,0.4c-0.5,0.8-1.1,1.4-2,1.8C556.3,155.7,555.4,155.9,554.4,155.9z M550,149.7h8.5
		c-0.1-0.7-0.3-1.4-0.7-1.9c-0.4-0.6-0.9-1-1.5-1.3s-1.3-0.5-2-0.5c-0.7,0-1.4,0.2-2,0.5c-0.6,0.3-1.1,0.8-1.5,1.3
		C550.3,148.3,550.1,149,550,149.7z"/>
	<path d="M564.6,155.9c-0.1,0-0.3,0-0.4-0.1c-0.1-0.1-0.2-0.2-0.3-0.3c-0.1-0.1-0.1-0.3-0.1-0.4c0-0.1,0-0.3,0.1-0.4
		c0.1-0.1,0.2-0.2,0.3-0.3c0.1-0.1,0.2-0.1,0.4-0.1c0.1,0,0.3,0,0.4,0.1c0.1,0.1,0.2,0.2,0.3,0.3s0.1,0.2,0.1,0.4
		c0,0.1,0,0.3-0.1,0.4c-0.1,0.1-0.2,0.2-0.3,0.3C564.9,155.9,564.8,155.9,564.6,155.9z"/>
</g>
</svg>
