<?xml version="1.0" encoding="utf-8"?>
<!-- Generator: Adobe Illustrator 26.0.1, SVG Export Plug-In . SVG Version: 6.00 Build 0)  -->
<svg version="1.1" id="Ebene_1" xmlns="http://www.w3.org/2000/svg" xmlns:xlink="http://www.w3.org/1999/xlink" x="0px" y="0px"
	 viewBox="0 0 841.9 595.3" style="enable-background:new 0 0 841.9 595.3;" xml:space="preserve">
<style type="text/css">
	.st0{opacity:0.9;fill:#FFE266;}
	.st1{fill:none;}
	.st2{fill:#FFFFFF;}
	.st3{fill:#335AA5;stroke:#1E1E1C;stroke-width:0.75;stroke-miterlimit:10;}
	.st4{opacity:0.9;fill:#FFE267;stroke:#020203;stroke-width:0.75;stroke-miterlimit:10;enable-background:new    ;}
	.st5{fill:#1E1E1C;}
	.st6{fill:none;stroke:#1E1E1C;stroke-width:0.75;stroke-miterlimit:10;}
	.st7{fill:#D94536;stroke:#1E1E1C;stroke-width:0.75;stroke-miterlimit:10;}
	.st8{fill:#232A51;stroke:#1E1E1C;stroke-width:0.75;stroke-miterlimit:10;}
	.st9{fill:#009CBF;}
	.st10{fill:#009CBF;stroke:#1E1E1C;stroke-width:0.75;stroke-miterlimit:10;}
	.st11{fill:#020203;}
</style>
<g>
	<path class="st0" d="M382.6,181.3c-10.6,9.2-23.4,16.3-37.2,22.4c-3.9,1.7-7.7,3.5-11.3,5.5c-1.3,0.7-2.3,2.5-2.2,3.6
		c0.2,1.8,2.6,2.1,4.8,2c9.6-0.2,18.5-2.5,27.5-4.7c19.1-4.6,37-11.4,53.9-19.6c6.1-3,11.5-3.6,18.6-2c23.3,5.2,47.2,7.5,71.4,7.1
		c45.8-0.8,87.1-11.7,122.8-34c14.6-9.1,27-19.9,32-34c8.5-24.4,2.2-46.3-21.8-64.5c-20.1-15.1-44.4-24.3-71.4-29.6
		c-25.7-5-51.9-5.4-78.2-4.6c-20.4,0.6-40.6,2.6-60.4,6.6c-32.4,6.6-60.5,18.8-83.1,38c-10.6,9-18.7,19.2-22.2,31.2
		c-4.3,14.6,0.6,27.9,11.3,40.2c10,11.5,24.1,19.1,39.7,25.4c3.8,1.6,7.6,3.1,12,4.8C386.7,177.4,384.8,179.5,382.6,181.3z"/>
	<path class="st1" d="M377,170.5c-15.6-6.3-29.7-14-39.7-25.4c-10.6-12.2-15.5-25.5-11.3-40.2c3.5-12,11.5-22.2,22.2-31.2
		c22.6-19.2,50.7-31.3,83.1-38c19.8-4.1,40-6,60.4-6.6c26.3-0.8,52.5-0.4,78.2,4.6c27,5.3,51.3,14.4,71.4,29.6
		c24.1,18.1,30.3,40.1,21.8,64.5c-4.9,14.1-17.4,24.9-32,34c-35.7,22.3-76.9,33.2-122.8,34c-24.2,0.4-48.1-1.9-71.4-7.1
		c-7.1-1.6-12.6-1-18.6,2c-16.9,8.2-34.7,15-53.9,19.6c-9,2.2-18,4.5-27.5,4.7c-2.1,0.1-4.5-0.2-4.8-2c-0.2-1.2,0.9-2.9,2.2-3.6
		c3.5-2,7.4-3.8,11.3-5.5c13.8-6.1,26.5-13.3,37.2-22.4c2.2-1.9,4.1-3.9,6.3-6C384.6,173.6,380.8,172,377,170.5z M379.8,200.9
		c12.4-4.5,24.7-9.4,36.6-14.8c6.9-3.1,13-3.9,20.9-2.1c26.1,5.9,52.8,8.3,80,6.9c44.3-2.3,83.7-14,116.6-37.3
		c11.4-8,20.9-17.5,24.2-29.3c5.8-20.2,1.6-38.9-17.3-54.7c-19.1-15.9-43.1-25.4-69.9-31c-20.3-4.3-41.2-5.4-62.2-5.3
		c-25.7,0-51.1,1.7-76,6.8c-31,6.3-57.9,17.9-79.7,36.2c-10.2,8.5-18,18.2-21.3,29.6c-4.1,14.1,1.1,26.6,11.8,38
		c7,7.6,16,13.5,26.4,18.1c7,3.1,14.1,6,21.2,8.9c4,1.6,5.2,3.3,2.7,6.2c-3.2,3.6-6.8,7.1-10.7,10.3c-9.8,8-21.3,14.2-33.5,19.7
		c-1.4,0.7-2.9,1.4-4.3,2C357.3,207.5,368.9,204.8,379.8,200.9z"/>
	<path class="st2" d="M353.1,76.3"/>
</g>
<g>
	<path class="st3" d="M191.9,318.6l-19.8-5.5c-5.2-2-5.7,10.5-7.3,28.4c-1.6,17.9-1.1,28.9,3.1,31.3c0.5,0.3,0.9,0.4,1.4,0.4
		l22.6,6.7L191.9,318.6L191.9,318.6z"/>
	<path class="st4" d="M184.9,206.1c0,0-30.6,50.6,0,90.5c12,5.3,66.6,10.6,73.2,0c4-8,15.9-59.9,4.6-90.5
		C252.8,202.1,206.2,192.8,184.9,206.1z"/>
	<circle class="st5" cx="255.9" cy="239" r="3.7"/>
	<circle class="st5" cx="217.5" cy="241.1" r="3.7"/>
	<path class="st6" d="M226.7,279.9c6.8,7.2,18.9,6.9,26.9-0.7"/>
	<path class="st4" d="M213.8,301.9v14.5c0,0,2.6,5.7,8.5,5.7c6.1,0,8.5-5.6,8.5-5.6v-14L213.8,301.9z"/>
	<polygon class="st7" points="190.3,386.9 201.2,454.7 210.9,454.7 210,396.4 233.7,397 236.7,454.7 245.9,454.7 250.9,388.2 	"/>
	<polygon class="st5" points="200.8,454.7 200.8,459.1 217.3,459.1 210.8,454.7 	"/>
	<polygon class="st5" points="236.4,454.7 236.4,459.1 252,459.1 245.8,454.7 	"/>
	<path class="st4" d="M183.1,406.5c-2.1-2-3.4-6.3-4-11.8h12C193.2,410,186.5,409.8,183.1,406.5z"/>
	<path class="st4" d="M260.2,399.6c-0.6,3.2-2.2,6.7-4.8,6.7c-2.7,0-4.8-1.1-4.8-4.4c0-0.9-0.4-6.7-0.2-7.5l0.6-5.1h9.5
		C260.6,393.4,260.6,397.3,260.2,399.6z"/>
	<path class="st8" d="M260.5,389.3H251c0,0-59.8-3-59.8,5.4h-12c-2.8-25.2,7-77.8,7-77.8l27.7-0.2l41.5,0.2l4.8,62.4
		C260.2,382.1,260.4,385.8,260.5,389.3z"/>
	<g>
		<path class="st9" d="M230.9,309.7h10.9c0,0,10.5,0.7,13.8,7.1l-24.6-0.3L230.9,309.7L230.9,309.7z"/>
		<path class="st5" d="M255.7,316.8v-0.3c-3.3-6.5-13.5-7.1-14-7.1h-11.2v7.6l25.1,0.3 M231.2,316.2v-6.1h10.5
			c0.1,0,9.7,0.8,13.2,6.4L231.2,316.2z"/>
	</g>
	<path class="st5" d="M191.2,394.7"/>
	<path class="st10" d="M171.5,312.7c0,0,11.8-3.6,42.4-2.9v6.9l-27.7,0.2L171.5,312.7z"/>
	<line class="st1" x1="179.1" y1="394.7" x2="171.5" y2="394.7"/>
	<line class="st6" x1="191.2" y1="394.7" x2="199.8" y2="339.7"/>
	<line class="st6" x1="243.1" y1="338.8" x2="251" y2="389.3"/>
	<line class="st1" x1="267.6" y1="389.3" x2="260.5" y2="389.3"/>
	<path class="st11" d="M159.5,288.5c-1.2-3.2-27.8-67-13.7-89.8c2.7-3.1,12.4-26.4,62.9-18.4c9.9,1.9,25.4,16.5,87.9,9.3
		c-6.7,3.8-30,17.3-30,17.3l2.6,9.2c0,0-50.9,7.6-72.6,3.4c-3,7.4-13.8,14.9-13.1,32.3c1.1,9.4,5.3,45.6,5.3,45.6s-8,16-21.3,6.1
		C163.9,299.7,159.5,288.5,159.5,288.5z"/>
</g>
<g>
	<path d="M359.6,87.3V70.8h1.1v16.5H359.6z"/>
	<path d="M370.5,87.6c-0.8,0-1.5-0.1-2.2-0.4s-1.3-0.6-1.8-1.1c-0.5-0.5-0.9-1.1-1.2-1.7c-0.3-0.7-0.4-1.4-0.4-2.2s0.1-1.5,0.4-2.2
		c0.3-0.7,0.7-1.2,1.2-1.7c0.5-0.5,1.1-0.9,1.8-1.1s1.4-0.4,2.2-0.4c0.7,0,1.3,0.1,1.9,0.3c0.6,0.2,1.1,0.5,1.6,0.9l-0.5,0.7
		c-0.8-0.6-1.8-1-2.9-1c-0.9,0-1.7,0.2-2.4,0.6c-0.7,0.4-1.2,0.9-1.6,1.6c-0.4,0.7-0.6,1.5-0.6,2.3c0,0.9,0.2,1.6,0.6,2.3
		c0.4,0.7,0.9,1.2,1.6,1.6s1.5,0.6,2.4,0.6c0.6,0,1.1-0.1,1.6-0.2c0.5-0.2,0.9-0.4,1.3-0.7l0.5,0.7c-0.5,0.4-1,0.6-1.6,0.8
		C371.8,87.5,371.2,87.6,370.5,87.6z"/>
	<path d="M377.3,87.3V70h1.1v8.4c0.3-0.5,0.7-0.9,1.3-1.3c0.6-0.3,1.3-0.5,2.2-0.5c0.8,0,1.5,0.2,2,0.5c0.6,0.3,1,0.8,1.3,1.4
		c0.3,0.6,0.5,1.4,0.5,2.3v6.4h-1.1v-6.2c0-1.1-0.3-2-0.8-2.6c-0.5-0.6-1.3-0.9-2.2-0.9c-0.7,0-1.2,0.1-1.7,0.4
		c-0.5,0.3-0.8,0.6-1.1,1.1c-0.3,0.4-0.4,0.9-0.4,1.4v6.8H377.3z"/>
	<path d="M395,87.3V70h1.1v8.4c0.3-0.5,0.7-0.9,1.3-1.3c0.6-0.3,1.3-0.5,2.2-0.5c0.8,0,1.5,0.2,2,0.5c0.6,0.3,1,0.8,1.3,1.4
		c0.3,0.6,0.5,1.4,0.5,2.3v6.4h-1.1v-6.2c0-1.1-0.3-2-0.8-2.6c-0.5-0.6-1.3-0.9-2.2-0.9c-0.7,0-1.2,0.1-1.7,0.4
		c-0.5,0.3-0.8,0.6-1.1,1.1c-0.3,0.4-0.4,0.9-0.4,1.4v6.8H395z"/>
	<path d="M412,87.6c-1,0-1.8-0.2-2.6-0.7c-0.8-0.5-1.4-1.1-1.8-1.9c-0.4-0.8-0.7-1.8-0.7-2.8c0-1.1,0.2-2,0.7-2.8
		c0.4-0.8,1.1-1.5,1.8-1.9s1.6-0.7,2.6-0.7c1,0,1.9,0.2,2.6,0.7c0.8,0.5,1.4,1.1,1.8,2V77h1.1v10.2h-1.1v-2.4c-0.4,0.8-1,1.5-1.8,2
		S413,87.6,412,87.6z M412.2,86.6c0.8,0,1.6-0.2,2.2-0.6s1.1-0.9,1.5-1.6s0.5-1.5,0.5-2.3c0-0.9-0.2-1.7-0.5-2.3
		c-0.4-0.7-0.9-1.2-1.5-1.6s-1.4-0.6-2.2-0.6s-1.6,0.2-2.2,0.6s-1.1,0.9-1.5,1.6c-0.4,0.7-0.5,1.5-0.5,2.3c0,0.9,0.2,1.6,0.5,2.3
		s0.9,1.2,1.5,1.6C410.7,86.4,411.4,86.6,412.2,86.6z"/>
	<path d="M427.4,87.6c-1,0-1.8-0.2-2.6-0.7c-0.8-0.5-1.4-1.1-1.8-2v2.4H422V70.1h1.1v9.3c0.4-0.8,1-1.5,1.8-2
		c0.8-0.5,1.6-0.7,2.6-0.7c1,0,1.8,0.2,2.6,0.7s1.4,1.1,1.8,1.9c0.4,0.8,0.7,1.8,0.7,2.8c0,1-0.2,2-0.7,2.8
		c-0.4,0.8-1.1,1.5-1.8,1.9C429.3,87.3,428.4,87.6,427.4,87.6z M427.2,86.6c0.8,0,1.5-0.2,2.2-0.6c0.6-0.4,1.1-0.9,1.5-1.6
		s0.5-1.5,0.5-2.3c0-0.9-0.2-1.6-0.5-2.3c-0.4-0.7-0.9-1.2-1.5-1.6s-1.4-0.6-2.2-0.6c-0.8,0-1.6,0.2-2.2,0.6
		c-0.6,0.4-1.1,0.9-1.5,1.6c-0.4,0.7-0.5,1.5-0.5,2.3c0,0.9,0.2,1.6,0.5,2.3s0.9,1.2,1.5,1.6C425.6,86.4,426.4,86.6,427.2,86.6z"/>
	<path d="M441.1,87.6c-1.1,0-2-0.2-2.9-0.7c-0.8-0.5-1.5-1.1-2-1.9c-0.5-0.8-0.7-1.7-0.7-2.7c0-0.8,0.1-1.5,0.4-2.2
		c0.3-0.7,0.7-1.2,1.1-1.8c0.5-0.5,1.1-0.9,1.7-1.2c0.6-0.3,1.3-0.4,2.1-0.4c1,0,1.8,0.2,2.6,0.7c0.8,0.4,1.4,1.1,1.9,1.8
		c0.5,0.8,0.7,1.7,0.8,2.7c0,0.1,0,0.1,0,0.2c0,0,0,0.1,0,0.2h-9.6c0,0.9,0.2,1.6,0.6,2.3c0.4,0.7,0.9,1.2,1.6,1.6s1.5,0.6,2.3,0.6
		c0.8,0,1.6-0.2,2.3-0.5s1.2-0.9,1.6-1.5l0.8,0.4c-0.5,0.8-1.1,1.4-2,1.8C443,87.4,442.1,87.6,441.1,87.6z M436.6,81.4h8.5
		c-0.1-0.7-0.3-1.4-0.7-1.9c-0.4-0.6-0.9-1-1.5-1.3s-1.3-0.5-2-0.5c-0.7,0-1.4,0.2-2,0.5c-0.6,0.3-1.1,0.8-1.5,1.3
		C436.9,80,436.7,80.6,436.6,81.4z"/>
	<path d="M458.2,87.3L453.3,77h1.2l4,8.7l4-8.7h1.2l-4.9,10.2H458.2z"/>
	<path d="M467.3,75c-0.1,0-0.3,0-0.4-0.1c-0.1-0.1-0.2-0.2-0.3-0.3c-0.1-0.1-0.1-0.2-0.1-0.4c0-0.1,0-0.3,0.1-0.4
		c0.1-0.1,0.2-0.2,0.3-0.3c0.1-0.1,0.2-0.1,0.4-0.1c0.1,0,0.3,0,0.4,0.1c0.1,0.1,0.2,0.2,0.3,0.3c0.1,0.1,0.1,0.2,0.1,0.4
		c0,0.1,0,0.3-0.1,0.4c-0.1,0.1-0.2,0.2-0.3,0.3C467.6,74.9,467.4,75,467.3,75z M466.8,87.3V77h1.1v10.2H466.8z"/>
	<path d="M477.1,87.6c-1.1,0-2-0.2-2.9-0.7c-0.8-0.5-1.5-1.1-2-1.9c-0.5-0.8-0.7-1.7-0.7-2.7c0-0.8,0.1-1.5,0.4-2.2
		c0.3-0.7,0.7-1.2,1.2-1.8s1.1-0.9,1.7-1.2c0.6-0.3,1.3-0.4,2.1-0.4c1,0,1.8,0.2,2.6,0.7s1.4,1.1,1.9,1.8c0.5,0.8,0.7,1.7,0.8,2.7
		c0,0.1,0,0.1,0,0.2c0,0,0,0.1,0,0.2h-9.6c0,0.9,0.2,1.6,0.6,2.3c0.4,0.7,0.9,1.2,1.6,1.6c0.7,0.4,1.5,0.6,2.3,0.6
		c0.8,0,1.6-0.2,2.3-0.5s1.2-0.9,1.6-1.5l0.8,0.4c-0.5,0.8-1.1,1.4-2,1.8C479,87.4,478.1,87.6,477.1,87.6z M472.7,81.4h8.5
		c-0.1-0.7-0.3-1.4-0.7-1.9c-0.4-0.6-0.9-1-1.5-1.3c-0.6-0.3-1.3-0.5-2-0.5c-0.7,0-1.4,0.2-2,0.5c-0.6,0.3-1.1,0.8-1.5,1.3
		C473,80,472.7,80.6,472.7,81.4z"/>
	<path d="M485.7,87.3V70.1h1.1v17.2H485.7z"/>
	<path d="M496,87.6c-1.1,0-2-0.2-2.9-0.7c-0.8-0.5-1.5-1.1-2-1.9c-0.5-0.8-0.7-1.7-0.7-2.7c0-0.8,0.1-1.5,0.4-2.2
		c0.3-0.7,0.7-1.2,1.1-1.8c0.5-0.5,1.1-0.9,1.7-1.2c0.6-0.3,1.3-0.4,2.1-0.4c1,0,1.8,0.2,2.6,0.7c0.8,0.4,1.4,1.1,1.9,1.8
		c0.5,0.8,0.7,1.7,0.8,2.7c0,0.1,0,0.1,0,0.2c0,0,0,0.1,0,0.2h-9.6c0,0.9,0.2,1.6,0.6,2.3c0.4,0.7,0.9,1.2,1.6,1.6s1.5,0.6,2.3,0.6
		c0.8,0,1.6-0.2,2.3-0.5s1.2-0.9,1.6-1.5l0.8,0.4c-0.5,0.8-1.1,1.4-2,1.8C498,87.4,497.1,87.6,496,87.6z M491.6,81.4h8.5
		c-0.1-0.7-0.3-1.4-0.7-1.9c-0.4-0.6-0.9-1-1.5-1.3s-1.3-0.5-2-0.5c-0.7,0-1.4,0.2-2,0.5c-0.6,0.3-1.1,0.8-1.5,1.3
		C491.9,80,491.7,80.6,491.6,81.4z"/>
	<path d="M510.4,87.3V70.8h8.1v1h-7.6l0.6-0.4v8.1l-0.6-0.9h7.1v1h-7.1l0.6-0.9v8.7H510.4z"/>
	<path d="M522.2,87.3V77h1.1v1.5c0.3-0.6,0.7-1.1,1.2-1.4c0.5-0.3,1.1-0.5,1.8-0.5c0.3,0,0.6,0,0.9,0.1s0.5,0.1,0.8,0.2l-0.4,0.9
		c-0.2-0.1-0.4-0.2-0.7-0.2c-0.2,0-0.5-0.1-0.7-0.1c-0.5,0-0.9,0.1-1.4,0.4s-0.8,0.6-1.1,1c-0.3,0.4-0.4,0.8-0.4,1.3v7H522.2z"/>
	<path d="M535.5,87.6c-1.1,0-2-0.2-2.9-0.7c-0.8-0.5-1.5-1.1-2-1.9c-0.5-0.8-0.7-1.7-0.7-2.7c0-0.8,0.1-1.5,0.4-2.2
		c0.3-0.7,0.7-1.2,1.1-1.8c0.5-0.5,1.1-0.9,1.7-1.2c0.6-0.3,1.3-0.4,2.1-0.4c1,0,1.8,0.2,2.6,0.7c0.8,0.4,1.4,1.1,1.9,1.8
		c0.5,0.8,0.7,1.7,0.8,2.7c0,0.1,0,0.1,0,0.2c0,0,0,0.1,0,0.2H531c0,0.9,0.2,1.6,0.6,2.3c0.4,0.7,0.9,1.2,1.6,1.6s1.5,0.6,2.3,0.6
		c0.8,0,1.6-0.2,2.3-0.5s1.2-0.9,1.6-1.5l0.8,0.4c-0.5,0.8-1.1,1.4-2,1.8C537.5,87.4,536.5,87.6,535.5,87.6z M531.1,81.4h8.5
		c-0.1-0.7-0.3-1.4-0.7-1.9c-0.4-0.6-0.9-1-1.5-1.3s-1.3-0.5-2-0.5c-0.7,0-1.4,0.2-2,0.5c-0.6,0.3-1.1,0.8-1.5,1.3
		C531.4,80,531.2,80.6,531.1,81.4z"/>
	<path d="M548.1,87.6c-1.5,0-2.5-0.3-3.2-1c-0.6-0.7-0.9-1.8-0.9-3.5V77h1.1v5.9c0,1.3,0.2,2.3,0.7,2.9c0.5,0.6,1.2,0.9,2.3,0.9
		c1.1,0,1.9-0.3,2.3-0.9c0.5-0.6,0.7-1.5,0.7-2.9V77h1.1v6.1c0,1.6-0.3,2.8-0.9,3.5C550.7,87.2,549.6,87.6,548.1,87.6z"/>
	<path d="M556.5,87.3V77h1.1v1.5c0.3-0.5,0.7-0.9,1.3-1.3c0.6-0.3,1.3-0.5,2.2-0.5c0.8,0,1.5,0.2,2,0.5c0.6,0.3,1,0.8,1.3,1.4
		c0.3,0.6,0.5,1.4,0.5,2.3v6.4h-1.1v-6.2c0-1.1-0.3-2-0.8-2.6s-1.3-0.9-2.2-0.9c-0.7,0-1.2,0.1-1.7,0.4c-0.5,0.3-0.8,0.6-1.1,1
		c-0.3,0.4-0.4,0.9-0.4,1.4v6.8H556.5z"/>
	<path d="M573.5,87.6c-1,0-1.8-0.2-2.6-0.7c-0.8-0.5-1.4-1.1-1.8-1.9c-0.5-0.8-0.7-1.8-0.7-2.8c0-1.1,0.2-2,0.7-2.8
		c0.4-0.8,1.1-1.5,1.8-1.9s1.6-0.7,2.6-0.7c1,0,1.8,0.2,2.6,0.7c0.8,0.5,1.4,1.1,1.8,2V70h1.1v17.2h-1.1v-2.4c-0.4,0.8-1,1.5-1.8,2
		C575.3,87.3,574.5,87.6,573.5,87.6z M573.7,86.6c0.8,0,1.6-0.2,2.2-0.6c0.6-0.4,1.1-0.9,1.5-1.6s0.5-1.5,0.5-2.3
		c0-0.9-0.2-1.6-0.5-2.3c-0.4-0.7-0.9-1.2-1.5-1.6c-0.6-0.4-1.4-0.6-2.2-0.6c-0.8,0-1.5,0.2-2.2,0.6s-1.1,0.9-1.5,1.6
		c-0.4,0.7-0.5,1.5-0.5,2.3c0,0.9,0.2,1.6,0.5,2.3s0.9,1.2,1.5,1.6C572.2,86.4,572.9,86.6,573.7,86.6z"/>
	<path d="M588.2,87.6c-1.1,0-2-0.2-2.9-0.7c-0.8-0.5-1.5-1.1-2-1.9c-0.5-0.8-0.7-1.7-0.7-2.7c0-0.8,0.1-1.5,0.4-2.2
		c0.3-0.7,0.7-1.2,1.2-1.8s1.1-0.9,1.7-1.2c0.6-0.3,1.3-0.4,2.1-0.4c1,0,1.8,0.2,2.6,0.7s1.4,1.1,1.9,1.8c0.5,0.8,0.7,1.7,0.8,2.7
		c0,0.1,0,0.1,0,0.2c0,0,0,0.1,0,0.2h-9.6c0,0.9,0.2,1.6,0.6,2.3c0.4,0.7,0.9,1.2,1.6,1.6s1.5,0.6,2.3,0.6c0.8,0,1.6-0.2,2.3-0.5
		s1.2-0.9,1.6-1.5l0.8,0.4c-0.5,0.8-1.1,1.4-2,1.8C590.2,87.4,589.2,87.6,588.2,87.6z M583.8,81.4h8.5c-0.1-0.7-0.3-1.4-0.7-1.9
		c-0.4-0.6-0.9-1-1.5-1.3s-1.3-0.5-2-0.5c-0.7,0-1.4,0.2-2,0.5c-0.6,0.3-1.1,0.8-1.5,1.3C584.1,80,583.9,80.6,583.8,81.4z"/>
	<path d="M605.9,87.6c-1.5,0-2.5-0.3-3.2-1s-0.9-1.8-0.9-3.5V77h1.1v5.9c0,1.3,0.2,2.3,0.7,2.9c0.5,0.6,1.2,0.9,2.3,0.9
		c1.1,0,1.9-0.3,2.3-0.9c0.5-0.6,0.7-1.5,0.7-2.9V77h1.1v6.1c0,1.6-0.3,2.8-0.9,3.5C608.4,87.2,607.4,87.6,605.9,87.6z"/>
	<path d="M614.3,87.3V77h1.1v1.5c0.3-0.5,0.7-0.9,1.3-1.3c0.6-0.3,1.3-0.5,2.2-0.5c0.8,0,1.5,0.2,2,0.5c0.6,0.3,1,0.8,1.3,1.4
		c0.3,0.6,0.5,1.4,0.5,2.3v6.4h-1.1v-6.2c0-1.1-0.3-2-0.8-2.6s-1.3-0.9-2.2-0.9c-0.7,0-1.2,0.1-1.7,0.4c-0.5,0.3-0.8,0.6-1.1,1
		c-0.3,0.4-0.4,0.9-0.4,1.4v6.8H614.3z"/>
	<path d="M631.3,87.6c-1,0-1.8-0.2-2.6-0.7c-0.8-0.5-1.4-1.1-1.8-1.9c-0.5-0.8-0.7-1.8-0.7-2.8c0-1.1,0.2-2,0.7-2.8
		c0.4-0.8,1.1-1.5,1.8-1.9s1.6-0.7,2.6-0.7c1,0,1.8,0.2,2.6,0.7c0.8,0.5,1.4,1.1,1.8,2V70h1.1v17.2h-1.1v-2.4c-0.4,0.8-1,1.5-1.8,2
		C633.1,87.3,632.3,87.6,631.3,87.6z M631.5,86.6c0.8,0,1.6-0.2,2.2-0.6s1.1-0.9,1.5-1.6s0.5-1.5,0.5-2.3c0-0.9-0.2-1.6-0.5-2.3
		c-0.4-0.7-0.9-1.2-1.5-1.6s-1.4-0.6-2.2-0.6c-0.8,0-1.5,0.2-2.2,0.6s-1.1,0.9-1.5,1.6c-0.4,0.7-0.6,1.5-0.6,2.3
		c0,0.9,0.2,1.6,0.5,2.3s0.9,1.2,1.5,1.6C630,86.4,630.7,86.6,631.5,86.6z"/>
	<path d="M353,111.3V94.1h1.1v11.3l4.2-4.3h1.4l-4.6,4.8l4.8,5.5h-1.4l-4.4-5.1v5.1H353z"/>
	<path d="M367.9,111.6c-1.1,0-2-0.2-2.8-0.7c-0.8-0.5-1.5-1.1-2-1.9c-0.5-0.8-0.7-1.8-0.7-2.8c0-1.1,0.2-2,0.7-2.8
		c0.5-0.8,1.2-1.5,2-1.9c0.8-0.5,1.8-0.7,2.8-0.7s2,0.2,2.8,0.7s1.5,1.1,2,1.9c0.5,0.8,0.7,1.8,0.7,2.8c0,1.1-0.2,2-0.7,2.8
		c-0.5,0.8-1.2,1.5-2,1.9S368.9,111.6,367.9,111.6z M367.9,110.6c0.9,0,1.6-0.2,2.3-0.6c0.7-0.4,1.2-0.9,1.6-1.6
		c0.4-0.7,0.6-1.4,0.6-2.3c0-0.9-0.2-1.6-0.6-2.3c-0.4-0.7-0.9-1.2-1.6-1.6c-0.7-0.4-1.4-0.6-2.3-0.6s-1.6,0.2-2.3,0.6
		c-0.7,0.4-1.2,0.9-1.6,1.6c-0.4,0.7-0.6,1.4-0.6,2.3c0,0.9,0.2,1.6,0.6,2.3c0.4,0.7,0.9,1.2,1.6,1.6S367,110.6,367.9,110.6z"/>
	<path d="M377.2,111.3V101h1.1v1.5c0.4-0.6,0.9-1,1.4-1.3c0.6-0.3,1.2-0.5,2-0.5c0.9,0,1.6,0.2,2.2,0.6c0.6,0.4,1,0.9,1.3,1.6
		c0.4-0.7,0.9-1.2,1.5-1.6c0.6-0.4,1.4-0.6,2.2-0.6c0.7,0,1.4,0.1,1.9,0.4c0.6,0.3,1,0.7,1.3,1.3c0.3,0.6,0.5,1.3,0.5,2.1v6.7h-1.1
		v-6.4c0-1-0.3-1.8-0.8-2.4c-0.5-0.6-1.2-0.9-2.1-0.9c-0.6,0-1.2,0.1-1.6,0.4c-0.5,0.3-0.9,0.6-1.2,1c-0.3,0.4-0.4,0.8-0.4,1.3v7
		h-1.1v-6.6c0-0.9-0.3-1.7-0.8-2.3s-1.2-0.8-2.1-0.8c-0.6,0-1.1,0.1-1.6,0.4c-0.5,0.3-0.9,0.6-1.2,1s-0.5,0.8-0.5,1.2v7.1H377.2z"/>
	<path d="M396.9,111.3V101h1.1v1.5c0.4-0.6,0.9-1,1.4-1.3c0.6-0.3,1.2-0.5,2-0.5c0.9,0,1.6,0.2,2.2,0.6c0.6,0.4,1,0.9,1.3,1.6
		c0.4-0.7,0.9-1.2,1.5-1.6c0.6-0.4,1.4-0.6,2.2-0.6c0.7,0,1.4,0.1,1.9,0.4c0.6,0.3,1,0.7,1.3,1.3c0.3,0.6,0.5,1.3,0.5,2.1v6.7h-1.1
		v-6.4c0-1-0.3-1.8-0.8-2.4c-0.5-0.6-1.2-0.9-2.1-0.9c-0.6,0-1.2,0.1-1.6,0.4c-0.5,0.3-0.9,0.6-1.2,1c-0.3,0.4-0.4,0.8-0.4,1.3v7
		h-1.1v-6.6c0-0.9-0.3-1.7-0.8-2.3s-1.2-0.8-2.1-0.8c-0.6,0-1.1,0.1-1.6,0.4c-0.5,0.3-0.9,0.6-1.2,1s-0.5,0.8-0.5,1.2v7.1H396.9z"/>
	<path d="M421.4,111.6c-1.1,0-2-0.2-2.9-0.7s-1.5-1.1-2-1.9c-0.5-0.8-0.7-1.7-0.7-2.7c0-0.8,0.1-1.5,0.4-2.2
		c0.3-0.7,0.7-1.2,1.1-1.8c0.5-0.5,1.1-0.9,1.7-1.2c0.6-0.3,1.3-0.4,2.1-0.4c1,0,1.8,0.2,2.6,0.7s1.4,1.1,1.9,1.8
		c0.5,0.8,0.7,1.7,0.8,2.7c0,0.1,0,0.1,0,0.2c0,0,0,0.1,0,0.2h-9.6c0,0.9,0.2,1.6,0.6,2.3c0.4,0.7,0.9,1.2,1.6,1.6
		c0.7,0.4,1.5,0.6,2.3,0.6c0.8,0,1.6-0.2,2.3-0.5s1.2-0.9,1.6-1.5l0.8,0.4c-0.5,0.8-1.1,1.4-2,1.8
		C423.3,111.4,422.4,111.6,421.4,111.6z M416.9,105.4h8.5c-0.1-0.7-0.3-1.4-0.7-1.9c-0.4-0.6-0.9-1-1.5-1.3c-0.6-0.3-1.3-0.5-2-0.5
		c-0.7,0-1.4,0.2-2,0.5s-1.1,0.8-1.5,1.3C417.3,104,417,104.6,416.9,105.4z"/>
	<path d="M435.3,111.3v-9.4h-1V101h1v-3.9c0-0.7,0.1-1.3,0.3-1.8c0.2-0.5,0.5-0.9,0.9-1.1c0.4-0.3,0.9-0.4,1.4-0.4
		c0.3,0,0.7,0,1,0.1c0.3,0.1,0.5,0.2,0.8,0.4l-0.4,0.8c-0.3-0.2-0.7-0.4-1.2-0.4c-0.4,0-0.7,0.1-1,0.3c-0.3,0.2-0.4,0.4-0.6,0.8
		c-0.1,0.3-0.2,0.8-0.2,1.2v4h2.7v0.8h-2.7v9.4H435.3z"/>
	<path d="M446.5,111.6c-1,0-1.8-0.2-2.6-0.7c-0.8-0.5-1.4-1.1-1.8-1.9c-0.5-0.8-0.7-1.8-0.7-2.8c0-1.1,0.2-2,0.7-2.8
		c0.4-0.8,1.1-1.5,1.8-1.9c0.8-0.5,1.6-0.7,2.6-0.7c1,0,1.9,0.2,2.6,0.7c0.8,0.5,1.4,1.1,1.8,2V101h1.1v10.2h-1.1v-2.4
		c-0.4,0.8-1,1.5-1.8,2C448.3,111.3,447.4,111.6,446.5,111.6z M446.7,110.6c0.8,0,1.6-0.2,2.2-0.6s1.1-0.9,1.5-1.6s0.5-1.5,0.5-2.3
		c0-0.9-0.2-1.7-0.5-2.3c-0.4-0.7-0.9-1.2-1.5-1.6s-1.4-0.6-2.2-0.6c-0.8,0-1.6,0.2-2.2,0.6s-1.1,0.9-1.5,1.6
		c-0.4,0.7-0.5,1.5-0.5,2.3c0,0.9,0.2,1.6,0.5,2.3c0.4,0.7,0.9,1.2,1.5,1.6C445.1,110.4,445.9,110.6,446.7,110.6z"/>
	<path d="M458.9,111.6c-0.8,0-1.6-0.2-2.2-0.7c-0.6-0.4-1.1-1.1-1.5-1.9l0.6-0.5c0.3,0.7,0.7,1.2,1.2,1.6c0.5,0.4,1.1,0.6,1.8,0.6
		c0.5,0,0.9-0.1,1.3-0.3c0.4-0.2,0.7-0.5,0.9-0.8c0.2-0.4,0.3-0.8,0.3-1.3c0-0.4-0.1-0.8-0.3-1c-0.2-0.2-0.5-0.5-0.9-0.6
		c-0.4-0.2-0.9-0.4-1.5-0.6c-0.4-0.2-0.9-0.4-1.3-0.6c-0.4-0.2-0.8-0.5-1-0.8c-0.3-0.3-0.4-0.8-0.4-1.3c0-0.5,0.1-0.9,0.4-1.3
		c0.3-0.4,0.6-0.7,1.1-0.9c0.5-0.2,1-0.3,1.6-0.3c0.6,0,1.1,0.1,1.6,0.4c0.5,0.3,0.9,0.7,1.3,1.1l-0.6,0.6c-0.5-0.9-1.3-1.3-2.3-1.3
		c-0.6,0-1.1,0.2-1.5,0.5c-0.4,0.3-0.6,0.8-0.6,1.3c0,0.4,0.1,0.7,0.3,0.9c0.2,0.2,0.5,0.4,0.9,0.6c0.4,0.2,0.8,0.3,1.2,0.5
		c0.6,0.2,1.2,0.5,1.6,0.7c0.5,0.2,0.8,0.5,1.1,0.9c0.2,0.3,0.4,0.8,0.4,1.4c0,0.7-0.2,1.2-0.5,1.7c-0.3,0.5-0.7,0.9-1.3,1.1
		C460.2,111.4,459.6,111.6,458.9,111.6z"/>
	<path d="M468.3,111.6c-0.7,0-1.3-0.2-1.6-0.7c-0.4-0.5-0.6-1.2-0.6-2v-7h-1V101h1v-3.8h1.1v3.8h2.6v0.8h-2.6v6.9
		c0,0.6,0.1,1.1,0.3,1.4c0.2,0.3,0.6,0.5,1,0.5c0.4,0,0.8-0.1,1.1-0.3l0.3,0.9c-0.2,0.1-0.4,0.2-0.7,0.3S468.6,111.6,468.3,111.6z"
		/>
	<path d="M478.2,111.3V101h1.1v1.5c0.4-0.6,0.9-1,1.4-1.3s1.2-0.5,2-0.5c0.9,0,1.6,0.2,2.2,0.6c0.6,0.4,1,0.9,1.3,1.6
		c0.4-0.7,0.9-1.2,1.5-1.6c0.6-0.4,1.4-0.6,2.2-0.6c0.7,0,1.4,0.1,1.9,0.4c0.6,0.3,1,0.7,1.3,1.3c0.3,0.6,0.5,1.3,0.5,2.1v6.7h-1.1
		v-6.4c0-1-0.3-1.8-0.8-2.4c-0.5-0.6-1.2-0.9-2.1-0.9c-0.6,0-1.2,0.1-1.7,0.4s-0.9,0.6-1.2,1c-0.3,0.4-0.4,0.8-0.4,1.3v7h-1.1v-6.6
		c0-0.9-0.3-1.7-0.8-2.3s-1.2-0.8-2.1-0.8c-0.6,0-1.1,0.1-1.6,0.4c-0.5,0.3-0.9,0.6-1.2,1s-0.5,0.8-0.5,1.2v7.1H478.2z"/>
	<path d="M498.5,99c-0.1,0-0.3,0-0.4-0.1c-0.1-0.1-0.2-0.2-0.3-0.3c-0.1-0.1-0.1-0.2-0.1-0.4c0-0.1,0-0.3,0.1-0.4
		c0.1-0.1,0.2-0.2,0.3-0.3c0.1-0.1,0.2-0.1,0.4-0.1c0.1,0,0.3,0,0.4,0.1c0.1,0.1,0.2,0.2,0.3,0.3c0.1,0.1,0.1,0.2,0.1,0.4
		c0,0.1,0,0.3-0.1,0.4c-0.1,0.1-0.2,0.2-0.3,0.3C498.7,98.9,498.6,99,498.5,99z M497.9,111.3V101h1.1v10.2H497.9z"/>
	<path d="M505.8,111.6c-0.7,0-1.3-0.2-1.6-0.7c-0.4-0.5-0.6-1.2-0.6-2v-7h-1V101h1v-3.8h1.1v3.8h2.6v0.8h-2.6v6.9
		c0,0.6,0.1,1.1,0.3,1.4c0.2,0.3,0.6,0.5,1,0.5c0.4,0,0.8-0.1,1.1-0.3l0.3,0.9c-0.2,0.1-0.4,0.2-0.7,0.3S506.1,111.6,505.8,111.6z"
		/>
	<path d="M514.2,116.8c-0.3,0-0.6,0-0.9-0.1s-0.5-0.2-0.7-0.4l0.3-0.8c0.3,0.3,0.7,0.4,1.2,0.4c1.1,0,1.7-0.7,1.7-2.2V101h1.1v12.6
		c0,1-0.2,1.8-0.7,2.3C515.7,116.5,515.1,116.8,514.2,116.8z M516.3,99c-0.1,0-0.3,0-0.4-0.1c-0.1-0.1-0.2-0.2-0.3-0.3
		c-0.1-0.1-0.1-0.2-0.1-0.4c0-0.1,0-0.3,0.1-0.4c0.1-0.1,0.2-0.2,0.3-0.3c0.1-0.1,0.2-0.1,0.4-0.1c0.1,0,0.3,0,0.4,0.1
		c0.1,0.1,0.2,0.2,0.3,0.3c0.1,0.1,0.1,0.2,0.1,0.4s0,0.3-0.1,0.4c-0.1,0.1-0.2,0.2-0.3,0.3C516.5,98.9,516.4,99,516.3,99z"/>
	<path d="M526.1,111.6c-1.1,0-2-0.2-2.9-0.7c-0.8-0.5-1.5-1.1-2-1.9c-0.5-0.8-0.7-1.7-0.7-2.7c0-0.8,0.1-1.5,0.4-2.2
		c0.3-0.7,0.7-1.2,1.1-1.8c0.5-0.5,1.1-0.9,1.7-1.2c0.6-0.3,1.3-0.4,2.1-0.4c1,0,1.8,0.2,2.6,0.7c0.8,0.4,1.4,1.1,1.9,1.8
		c0.5,0.8,0.7,1.7,0.8,2.7c0,0.1,0,0.1,0,0.2c0,0,0,0.1,0,0.2h-9.6c0,0.9,0.2,1.6,0.6,2.3c0.4,0.7,0.9,1.2,1.6,1.6s1.5,0.6,2.3,0.6
		c0.8,0,1.6-0.2,2.3-0.5s1.2-0.9,1.6-1.5l0.8,0.4c-0.5,0.8-1.1,1.4-2,1.8C528,111.4,527.1,111.6,526.1,111.6z M521.6,105.4h8.5
		c-0.1-0.7-0.3-1.4-0.7-1.9c-0.4-0.6-0.9-1-1.5-1.3s-1.3-0.5-2-0.5c-0.7,0-1.4,0.2-2,0.5c-0.6,0.3-1.1,0.8-1.5,1.3
		C522,104,521.7,104.6,521.6,105.4z"/>
	<path d="M539.1,111.6c-1,0-1.8-0.2-2.6-0.7c-0.8-0.5-1.4-1.1-1.8-1.9c-0.4-0.8-0.7-1.8-0.7-2.8c0-1.1,0.2-2,0.7-2.8
		c0.4-0.8,1.1-1.5,1.8-1.9s1.6-0.7,2.6-0.7c1,0,1.8,0.2,2.6,0.7c0.8,0.5,1.4,1.1,1.8,2V94h1.1v17.2h-1.1v-2.4c-0.4,0.8-1,1.5-1.8,2
		S540.1,111.6,539.1,111.6z M539.3,110.6c0.8,0,1.6-0.2,2.2-0.6c0.6-0.4,1.1-0.9,1.5-1.6s0.5-1.5,0.5-2.3c0-0.9-0.2-1.6-0.5-2.3
		c-0.4-0.7-0.9-1.2-1.5-1.6c-0.6-0.4-1.4-0.6-2.2-0.6c-0.8,0-1.5,0.2-2.2,0.6s-1.1,0.9-1.5,1.6c-0.4,0.7-0.5,1.5-0.5,2.3
		c0,0.9,0.2,1.6,0.5,2.3s0.9,1.2,1.5,1.6C537.8,110.4,538.5,110.6,539.3,110.6z"/>
	<path d="M553.8,111.6c-1.1,0-2-0.2-2.9-0.7c-0.8-0.5-1.5-1.1-2-1.9c-0.5-0.8-0.7-1.7-0.7-2.7c0-0.8,0.1-1.5,0.4-2.2
		c0.3-0.7,0.7-1.2,1.2-1.8s1.1-0.9,1.7-1.2c0.6-0.3,1.3-0.4,2.1-0.4c1,0,1.8,0.2,2.6,0.7s1.4,1.1,1.9,1.8c0.5,0.8,0.7,1.7,0.8,2.7
		c0,0.1,0,0.1,0,0.2c0,0,0,0.1,0,0.2h-9.6c0,0.9,0.2,1.6,0.6,2.3c0.4,0.7,0.9,1.2,1.6,1.6c0.7,0.4,1.5,0.6,2.3,0.6
		c0.8,0,1.6-0.2,2.3-0.5s1.2-0.9,1.6-1.5l0.8,0.4c-0.5,0.8-1.1,1.4-2,1.8C555.8,111.4,554.9,111.6,553.8,111.6z M549.4,105.4h8.5
		c-0.1-0.7-0.3-1.4-0.7-1.9c-0.4-0.6-0.9-1-1.5-1.3c-0.6-0.3-1.3-0.5-2-0.5c-0.7,0-1.4,0.2-2,0.5c-0.6,0.3-1.1,0.8-1.5,1.3
		C549.7,104,549.5,104.6,549.4,105.4z"/>
	<path d="M562.5,111.3V101h1.1v1.5c0.3-0.6,0.7-1.1,1.2-1.4c0.5-0.3,1.1-0.5,1.8-0.5c0.3,0,0.6,0,0.9,0.1s0.5,0.1,0.8,0.2l-0.4,0.9
		c-0.2-0.1-0.4-0.2-0.7-0.2c-0.2,0-0.5-0.1-0.7-0.1c-0.5,0-0.9,0.1-1.4,0.4s-0.8,0.6-1.1,1c-0.3,0.4-0.4,0.8-0.4,1.3v7H562.5z"/>
	<path d="M576.8,111.3V94.8h4c1.1,0,2,0.2,2.8,0.6c0.8,0.4,1.4,0.9,1.8,1.6c0.4,0.7,0.6,1.5,0.6,2.4c0,0.9-0.2,1.8-0.6,2.5
		c-0.4,0.7-1,1.3-1.8,1.7c-0.8,0.4-1.7,0.6-2.8,0.6h-2.9v7.1H576.8z M577.9,103.2h2.7c0.9,0,1.7-0.2,2.3-0.5
		c0.6-0.3,1.1-0.8,1.5-1.3s0.5-1.2,0.5-2c0-0.8-0.2-1.4-0.5-2c-0.3-0.6-0.8-1-1.5-1.3c-0.6-0.3-1.4-0.5-2.3-0.5h-2.7V103.2z"/>
	<path d="M593.6,111.6c-1.1,0-2-0.2-2.9-0.7c-0.8-0.5-1.5-1.1-2-1.9c-0.5-0.8-0.7-1.7-0.7-2.7c0-0.8,0.1-1.5,0.4-2.2
		c0.3-0.7,0.7-1.2,1.2-1.8s1.1-0.9,1.7-1.2c0.6-0.3,1.3-0.4,2.1-0.4c1,0,1.8,0.2,2.6,0.7s1.4,1.1,1.9,1.8c0.5,0.8,0.7,1.7,0.8,2.7
		c0,0.1,0,0.1,0,0.2c0,0,0,0.1,0,0.2h-9.6c0,0.9,0.2,1.6,0.6,2.3c0.4,0.7,0.9,1.2,1.6,1.6s1.5,0.6,2.3,0.6c0.8,0,1.6-0.2,2.3-0.5
		s1.2-0.9,1.6-1.5l0.8,0.4c-0.5,0.8-1.1,1.4-2,1.8C595.5,111.4,594.6,111.6,593.6,111.6z M589.2,105.4h8.5c-0.1-0.7-0.3-1.4-0.7-1.9
		c-0.4-0.6-0.9-1-1.5-1.3c-0.6-0.3-1.3-0.5-2-0.5c-0.7,0-1.4,0.2-2,0.5s-1.1,0.8-1.5,1.3C589.5,104,589.3,104.6,589.2,105.4z"/>
	<path d="M602.2,111.3V101h1.1v1.5c0.3-0.6,0.7-1.1,1.2-1.4c0.5-0.3,1.1-0.5,1.8-0.5c0.3,0,0.6,0,0.9,0.1s0.5,0.1,0.8,0.2l-0.4,0.9
		c-0.2-0.1-0.4-0.2-0.7-0.2c-0.2,0-0.5-0.1-0.7-0.1c-0.5,0-0.9,0.1-1.4,0.4c-0.4,0.2-0.8,0.6-1.1,1c-0.3,0.4-0.4,0.8-0.4,1.3v7
		H602.2z"/>
	<path d="M613.3,111.6c-0.8,0-1.6-0.2-2.2-0.7c-0.6-0.4-1.1-1.1-1.5-1.9l0.6-0.5c0.3,0.7,0.7,1.2,1.2,1.6c0.5,0.4,1.1,0.6,1.8,0.6
		c0.5,0,0.9-0.1,1.3-0.3c0.4-0.2,0.7-0.5,0.9-0.8c0.2-0.4,0.3-0.8,0.3-1.3c0-0.4-0.1-0.8-0.3-1c-0.2-0.2-0.5-0.5-0.9-0.6
		c-0.4-0.2-0.9-0.4-1.5-0.6c-0.4-0.2-0.9-0.4-1.3-0.6c-0.4-0.2-0.8-0.5-1-0.8c-0.3-0.3-0.4-0.8-0.4-1.3c0-0.5,0.1-0.9,0.4-1.3
		c0.3-0.4,0.6-0.7,1.1-0.9c0.5-0.2,1-0.3,1.6-0.3c0.6,0,1.1,0.1,1.6,0.4s0.9,0.7,1.3,1.1l-0.6,0.6c-0.5-0.9-1.3-1.3-2.3-1.3
		c-0.6,0-1.1,0.2-1.5,0.5s-0.6,0.8-0.6,1.3c0,0.4,0.1,0.7,0.3,0.9s0.5,0.4,0.9,0.6c0.4,0.2,0.8,0.3,1.2,0.5c0.6,0.2,1.2,0.5,1.6,0.7
		c0.5,0.2,0.8,0.5,1.1,0.9c0.2,0.3,0.4,0.8,0.4,1.4c0,0.7-0.2,1.2-0.5,1.7c-0.3,0.5-0.7,0.9-1.3,1.1
		C614.6,111.4,614,111.6,613.3,111.6z"/>
	<path d="M625.4,111.6c-1.1,0-2-0.2-2.8-0.7c-0.8-0.5-1.5-1.1-2-1.9c-0.5-0.8-0.7-1.8-0.7-2.8c0-1.1,0.2-2,0.7-2.8
		c0.5-0.8,1.2-1.5,2-1.9c0.8-0.5,1.8-0.7,2.8-0.7c1.1,0,2,0.2,2.8,0.7c0.8,0.5,1.5,1.1,2,1.9c0.5,0.8,0.7,1.8,0.7,2.8
		c0,1.1-0.2,2-0.7,2.8c-0.5,0.8-1.2,1.5-2,1.9C627.4,111.3,626.5,111.6,625.4,111.6z M625.4,110.6c0.9,0,1.6-0.2,2.3-0.6
		s1.2-0.9,1.6-1.6c0.4-0.7,0.6-1.4,0.6-2.3c0-0.9-0.2-1.6-0.6-2.3c-0.4-0.7-0.9-1.2-1.6-1.6c-0.7-0.4-1.4-0.6-2.3-0.6
		c-0.9,0-1.6,0.2-2.3,0.6c-0.7,0.4-1.2,0.9-1.6,1.6c-0.4,0.7-0.6,1.4-0.6,2.3c0,0.9,0.2,1.6,0.6,2.3c0.4,0.7,0.9,1.2,1.6,1.6
		S624.5,110.6,625.4,110.6z"/>
	<path d="M634.7,111.3V101h1.1v1.5c0.3-0.5,0.7-0.9,1.3-1.3c0.6-0.3,1.3-0.5,2.2-0.5c0.8,0,1.5,0.2,2,0.5c0.6,0.3,1,0.8,1.3,1.4
		c0.3,0.6,0.5,1.4,0.5,2.3v6.4h-1.1v-6.2c0-1.1-0.3-2-0.8-2.6s-1.3-0.9-2.2-0.9c-0.7,0-1.2,0.1-1.7,0.4c-0.5,0.3-0.8,0.6-1.1,1
		c-0.3,0.4-0.4,0.9-0.4,1.4v6.8H634.7z"/>
	<path d="M350.9,140.8c-1.3,0-2.4-0.3-3.2-0.8c-0.9-0.5-1.5-1.2-2-2.2l0.9-0.4c0.3,0.8,0.9,1.4,1.6,1.8c0.8,0.5,1.7,0.7,2.7,0.7
		c0.8,0,1.6-0.2,2.2-0.5c0.7-0.3,1.2-0.8,1.6-1.4c0.4-0.6,0.6-1.4,0.6-2.3v-2.8c-0.4,0.8-1,1.5-1.8,2c-0.8,0.5-1.6,0.7-2.6,0.7
		c-1,0-1.8-0.2-2.6-0.7c-0.8-0.5-1.4-1.1-1.8-1.9c-0.5-0.8-0.7-1.8-0.7-2.8c0-1.1,0.2-2,0.7-2.8c0.4-0.8,1.1-1.5,1.8-1.9
		s1.6-0.7,2.6-0.7c1,0,1.8,0.2,2.6,0.7c0.8,0.5,1.4,1.1,1.8,2V125h1.1v10.5c0,1.2-0.2,2.1-0.7,2.9c-0.5,0.8-1.1,1.4-1.9,1.7
		C353,140.6,352,140.8,350.9,140.8z M351.1,134.6c0.8,0,1.6-0.2,2.2-0.6c0.6-0.4,1.1-0.9,1.5-1.6c0.4-0.7,0.5-1.5,0.5-2.3
		c0-0.9-0.2-1.6-0.5-2.3c-0.4-0.7-0.9-1.2-1.5-1.6c-0.6-0.4-1.4-0.6-2.2-0.6c-0.8,0-1.6,0.2-2.2,0.6c-0.6,0.4-1.1,0.9-1.5,1.6
		c-0.4,0.7-0.5,1.5-0.5,2.3c0,0.9,0.2,1.6,0.5,2.3s0.9,1.2,1.5,1.6C349.6,134.4,350.3,134.6,351.1,134.6z"/>
	<path d="M364.8,135.6c-1.5,0-2.5-0.3-3.2-1c-0.6-0.7-0.9-1.8-0.9-3.5V125h1.1v5.9c0,1.3,0.2,2.3,0.7,2.9c0.5,0.6,1.2,0.9,2.3,0.9
		c1.1,0,1.9-0.3,2.3-0.9s0.7-1.5,0.7-2.9V125h1.1v6.1c0,1.6-0.3,2.8-0.9,3.5S366.2,135.6,364.8,135.6z"/>
	<path d="M375.4,135.6c-0.7,0-1.3-0.2-1.6-0.7c-0.4-0.5-0.6-1.2-0.6-2v-7h-1V125h1v-3.8h1.1v3.8h2.6v0.8h-2.6v6.9
		c0,0.6,0.1,1.1,0.4,1.4c0.2,0.3,0.6,0.5,1,0.5c0.4,0,0.8-0.1,1.1-0.3l0.3,0.9c-0.2,0.1-0.4,0.2-0.7,0.3S375.7,135.6,375.4,135.6z"
		/>
	<path d="M389.7,135.6c-1,0-1.8-0.2-2.6-0.7c-0.8-0.5-1.4-1.1-1.8-1.9c-0.4-0.8-0.7-1.8-0.7-2.8c0-1.1,0.2-2,0.7-2.8
		c0.4-0.8,1.1-1.5,1.8-1.9s1.6-0.7,2.6-0.7c1,0,1.9,0.2,2.6,0.7c0.8,0.5,1.4,1.1,1.8,2V125h1.1v10.2h-1.1v-2.4c-0.4,0.8-1,1.5-1.8,2
		S390.7,135.6,389.7,135.6z M389.9,134.6c0.8,0,1.6-0.2,2.2-0.6s1.1-0.9,1.5-1.6s0.5-1.5,0.5-2.3c0-0.9-0.2-1.7-0.5-2.3
		c-0.4-0.7-0.9-1.2-1.5-1.6s-1.4-0.6-2.2-0.6s-1.6,0.2-2.2,0.6s-1.1,0.9-1.5,1.6c-0.4,0.7-0.5,1.5-0.5,2.3c0,0.9,0.2,1.6,0.5,2.3
		s0.9,1.2,1.5,1.6C388.4,134.4,389.1,134.6,389.9,134.6z"/>
	<path d="M403.6,135.6c-1.5,0-2.5-0.3-3.2-1c-0.6-0.7-0.9-1.8-0.9-3.5V125h1.1v5.9c0,1.3,0.2,2.3,0.7,2.9c0.5,0.6,1.2,0.9,2.3,0.9
		c1.1,0,1.9-0.3,2.3-0.9s0.7-1.5,0.7-2.9V125h1.1v6.1c0,1.6-0.3,2.8-0.9,3.5S405,135.6,403.6,135.6z"/>
	<path d="M414.5,135.6c-0.8,0-1.6-0.2-2.2-0.7c-0.6-0.4-1.1-1.1-1.5-1.9l0.6-0.5c0.3,0.7,0.7,1.2,1.2,1.6c0.5,0.4,1.1,0.6,1.8,0.6
		c0.5,0,0.9-0.1,1.3-0.3c0.4-0.2,0.7-0.5,0.9-0.8c0.2-0.4,0.4-0.8,0.4-1.3c0-0.4-0.1-0.8-0.3-1c-0.2-0.2-0.5-0.5-0.9-0.6
		c-0.4-0.2-0.9-0.4-1.4-0.6c-0.4-0.2-0.9-0.4-1.3-0.6c-0.4-0.2-0.8-0.5-1-0.8c-0.3-0.3-0.4-0.8-0.4-1.3c0-0.5,0.1-0.9,0.4-1.3
		c0.3-0.4,0.6-0.7,1.1-0.9s1-0.3,1.6-0.3c0.6,0,1.1,0.1,1.6,0.4c0.5,0.3,0.9,0.7,1.3,1.1l-0.6,0.6c-0.5-0.9-1.3-1.3-2.3-1.3
		c-0.6,0-1.1,0.2-1.5,0.5c-0.4,0.3-0.6,0.8-0.6,1.3c0,0.4,0.1,0.7,0.3,0.9c0.2,0.2,0.5,0.4,0.9,0.6s0.8,0.3,1.2,0.5
		c0.6,0.2,1.2,0.5,1.6,0.7c0.5,0.2,0.8,0.5,1.1,0.9c0.2,0.3,0.4,0.8,0.4,1.4c0,0.7-0.2,1.2-0.5,1.7s-0.7,0.9-1.3,1.1
		S415.2,135.6,414.5,135.6z"/>
	<path d="M422.7,137.4l-0.2-0.2c0.1-0.1,0.2-0.3,0.3-0.5c0.1-0.2,0.1-0.4,0.2-0.6c0-0.2,0.1-0.4,0.1-0.6c-0.2,0-0.4-0.1-0.5-0.3
		c-0.1-0.1-0.2-0.3-0.2-0.5c0-0.2,0.1-0.4,0.2-0.6c0.1-0.1,0.3-0.2,0.6-0.2c0.3,0,0.5,0.1,0.6,0.2s0.2,0.4,0.2,0.7
		c0,0.4-0.1,0.9-0.4,1.3C423.3,136.8,423,137.2,422.7,137.4z"/>
	<path d="M434.5,123c-0.1,0-0.3,0-0.4-0.1c-0.1-0.1-0.2-0.2-0.3-0.3c-0.1-0.1-0.1-0.2-0.1-0.4c0-0.1,0-0.3,0.1-0.4
		c0.1-0.1,0.2-0.2,0.3-0.3c0.1-0.1,0.2-0.1,0.4-0.1c0.1,0,0.3,0,0.4,0.1c0.1,0.1,0.2,0.2,0.3,0.3c0.1,0.1,0.1,0.2,0.1,0.4
		c0,0.1,0,0.3-0.1,0.4c-0.1,0.1-0.2,0.2-0.3,0.3C434.8,122.9,434.6,123,434.5,123z M434,135.3V125h1.1v10.2H434z"/>
	<path d="M442.1,135.6c-0.8,0-1.6-0.2-2.2-0.7c-0.6-0.4-1.1-1.1-1.5-1.9l0.6-0.5c0.3,0.7,0.7,1.2,1.2,1.6c0.5,0.4,1.1,0.6,1.8,0.6
		c0.5,0,0.9-0.1,1.3-0.3c0.4-0.2,0.7-0.5,0.9-0.8c0.2-0.4,0.4-0.8,0.4-1.3c0-0.4-0.1-0.8-0.3-1s-0.5-0.5-0.9-0.6
		c-0.4-0.2-0.9-0.4-1.4-0.6c-0.4-0.2-0.9-0.4-1.3-0.6c-0.4-0.2-0.8-0.5-1-0.8c-0.3-0.3-0.4-0.8-0.4-1.3c0-0.5,0.1-0.9,0.4-1.3
		c0.3-0.4,0.6-0.7,1.1-0.9c0.5-0.2,1-0.3,1.6-0.3c0.6,0,1.1,0.1,1.6,0.4s0.9,0.7,1.3,1.1l-0.6,0.6c-0.5-0.9-1.3-1.3-2.3-1.3
		c-0.6,0-1.1,0.2-1.5,0.5s-0.6,0.8-0.6,1.3c0,0.4,0.1,0.7,0.3,0.9s0.5,0.4,0.9,0.6c0.4,0.2,0.8,0.3,1.2,0.5c0.6,0.2,1.2,0.5,1.6,0.7
		s0.8,0.5,1.1,0.9c0.2,0.3,0.4,0.8,0.4,1.4c0,0.7-0.2,1.2-0.5,1.7c-0.3,0.5-0.7,0.9-1.3,1.1C443.4,135.4,442.8,135.6,442.1,135.6z"
		/>
	<path d="M451.5,135.6c-0.7,0-1.3-0.2-1.6-0.7c-0.4-0.5-0.6-1.2-0.6-2v-7h-1V125h1v-3.8h1.1v3.8h2.6v0.8h-2.6v6.9
		c0,0.6,0.1,1.1,0.4,1.4c0.2,0.3,0.6,0.5,1,0.5c0.4,0,0.8-0.1,1.1-0.3l0.3,0.9c-0.2,0.1-0.4,0.2-0.7,0.3S451.7,135.6,451.5,135.6z"
		/>
	<path d="M465.8,135.6c-1,0-1.8-0.2-2.6-0.7c-0.8-0.5-1.4-1.1-1.8-1.9c-0.4-0.8-0.7-1.8-0.7-2.8c0-1.1,0.2-2,0.7-2.8
		c0.4-0.8,1.1-1.5,1.8-1.9s1.6-0.7,2.6-0.7c1,0,1.8,0.2,2.6,0.7c0.8,0.5,1.4,1.1,1.8,2V118h1.1v17.2h-1.1v-2.4c-0.4,0.8-1,1.5-1.8,2
		S466.8,135.6,465.8,135.6z M466,134.6c0.8,0,1.6-0.2,2.2-0.6c0.6-0.4,1.1-0.9,1.5-1.6s0.5-1.5,0.5-2.3c0-0.9-0.2-1.6-0.5-2.3
		c-0.4-0.7-0.9-1.2-1.5-1.6c-0.6-0.4-1.4-0.6-2.2-0.6c-0.8,0-1.5,0.2-2.2,0.6s-1.1,0.9-1.5,1.6c-0.4,0.7-0.5,1.5-0.5,2.3
		c0,0.9,0.2,1.6,0.5,2.3s0.9,1.2,1.5,1.6C464.5,134.4,465.2,134.6,466,134.6z"/>
	<path d="M480.1,135.6c-1,0-1.8-0.2-2.6-0.7c-0.8-0.5-1.4-1.1-1.8-1.9c-0.5-0.8-0.7-1.8-0.7-2.8c0-1.1,0.2-2,0.7-2.8
		c0.4-0.8,1.1-1.5,1.8-1.9c0.8-0.5,1.6-0.7,2.6-0.7c1,0,1.9,0.2,2.6,0.7c0.8,0.5,1.4,1.1,1.8,2V125h1.1v10.2h-1.1v-2.4
		c-0.4,0.8-1,1.5-1.8,2C482,135.3,481.1,135.6,480.1,135.6z M480.4,134.6c0.8,0,1.6-0.2,2.2-0.6s1.1-0.9,1.5-1.6s0.5-1.5,0.5-2.3
		c0-0.9-0.2-1.7-0.5-2.3c-0.4-0.7-0.9-1.2-1.5-1.6s-1.4-0.6-2.2-0.6c-0.8,0-1.6,0.2-2.2,0.6s-1.1,0.9-1.5,1.6
		c-0.4,0.7-0.5,1.5-0.5,2.3c0,0.9,0.2,1.6,0.5,2.3c0.4,0.7,0.9,1.2,1.5,1.6C478.8,134.4,479.5,134.6,480.4,134.6z"/>
	<path d="M499.9,135.6c-1.1,0-2-0.2-2.9-0.7c-0.8-0.5-1.5-1.1-2-1.9c-0.5-0.8-0.7-1.7-0.7-2.7c0-0.8,0.1-1.5,0.4-2.2
		c0.3-0.7,0.7-1.2,1.1-1.8c0.5-0.5,1.1-0.9,1.7-1.2c0.6-0.3,1.3-0.4,2.1-0.4c1,0,1.8,0.2,2.6,0.7c0.8,0.4,1.4,1.1,1.9,1.8
		c0.5,0.8,0.7,1.7,0.8,2.7c0,0.1,0,0.1,0,0.2c0,0,0,0.1,0,0.2h-9.6c0,0.9,0.2,1.6,0.6,2.3c0.4,0.7,0.9,1.2,1.6,1.6s1.5,0.6,2.3,0.6
		c0.8,0,1.6-0.2,2.3-0.5s1.2-0.9,1.6-1.5l0.8,0.4c-0.5,0.8-1.1,1.4-2,1.8C501.8,135.4,500.9,135.6,499.9,135.6z M495.5,129.4h8.5
		c-0.1-0.7-0.3-1.4-0.7-1.9c-0.4-0.6-0.9-1-1.5-1.3s-1.3-0.5-2-0.5c-0.7,0-1.4,0.2-2,0.5c-0.6,0.3-1.1,0.8-1.5,1.3
		C495.8,128,495.6,128.6,495.5,129.4z"/>
	<path d="M510.8,135.6c-0.7,0-1.3-0.2-1.6-0.7c-0.4-0.5-0.6-1.2-0.6-2v-7h-1V125h1v-3.8h1.1v3.8h2.6v0.8h-2.6v6.9
		c0,0.6,0.1,1.1,0.3,1.4c0.2,0.3,0.6,0.5,1,0.5c0.4,0,0.8-0.1,1.1-0.3l0.3,0.9c-0.2,0.1-0.4,0.2-0.7,0.3S511.1,135.6,510.8,135.6z"
		/>
	<path d="M519.1,135.3l-4.9-10.2h1.2l4,8.6l3.4-8.6h0.7l3.4,8.6l4-8.6h1.2l-4.9,10.2h-0.7l-3.4-8.5l-3.4,8.5H519.1z"/>
	<path d="M539.4,135.6c-1,0-1.8-0.2-2.6-0.7c-0.8-0.5-1.4-1.1-1.8-1.9c-0.5-0.8-0.7-1.8-0.7-2.8c0-1.1,0.2-2,0.7-2.8
		c0.4-0.8,1.1-1.5,1.8-1.9c0.8-0.5,1.6-0.7,2.6-0.7c1,0,1.9,0.2,2.6,0.7c0.8,0.5,1.4,1.1,1.8,2V125h1.1v10.2h-1.1v-2.4
		c-0.4,0.8-1,1.5-1.8,2C541.3,135.3,540.4,135.6,539.4,135.6z M539.7,134.6c0.8,0,1.6-0.2,2.2-0.6s1.1-0.9,1.5-1.6s0.5-1.5,0.5-2.3
		c0-0.9-0.2-1.7-0.5-2.3c-0.4-0.7-0.9-1.2-1.5-1.6s-1.4-0.6-2.2-0.6c-0.8,0-1.6,0.2-2.2,0.6s-1.1,0.9-1.5,1.6
		c-0.4,0.7-0.5,1.5-0.5,2.3c0,0.9,0.2,1.6,0.5,2.3c0.4,0.7,0.9,1.2,1.5,1.6C538.1,134.4,538.8,134.6,539.7,134.6z"/>
	<path d="M551.9,135.6c-0.8,0-1.6-0.2-2.2-0.7c-0.6-0.4-1.1-1.1-1.5-1.9l0.6-0.5c0.3,0.7,0.7,1.2,1.2,1.6c0.5,0.4,1.1,0.6,1.8,0.6
		c0.5,0,0.9-0.1,1.3-0.3c0.4-0.2,0.7-0.5,0.9-0.8c0.2-0.4,0.3-0.8,0.3-1.3c0-0.4-0.1-0.8-0.3-1c-0.2-0.2-0.5-0.5-0.9-0.6
		c-0.4-0.2-0.9-0.4-1.5-0.6c-0.4-0.2-0.9-0.4-1.3-0.6c-0.4-0.2-0.8-0.5-1-0.8c-0.3-0.3-0.4-0.8-0.4-1.3c0-0.5,0.1-0.9,0.4-1.3
		c0.3-0.4,0.6-0.7,1.1-0.9c0.5-0.2,1-0.3,1.6-0.3c0.6,0,1.1,0.1,1.6,0.4c0.5,0.3,0.9,0.7,1.3,1.1l-0.6,0.6c-0.5-0.9-1.3-1.3-2.3-1.3
		c-0.6,0-1.1,0.2-1.5,0.5c-0.4,0.3-0.6,0.8-0.6,1.3c0,0.4,0.1,0.7,0.3,0.9c0.2,0.2,0.5,0.4,0.9,0.6c0.4,0.2,0.8,0.3,1.2,0.5
		c0.6,0.2,1.2,0.5,1.6,0.7c0.5,0.2,0.8,0.5,1.1,0.9c0.2,0.3,0.4,0.8,0.4,1.4c0,0.7-0.2,1.2-0.5,1.7c-0.3,0.5-0.7,0.9-1.3,1.1
		C553.2,135.4,552.6,135.6,551.9,135.6z"/>
	<path d="M564.4,135.3v-9.4h-1V125h1v-3.9c0-0.7,0.1-1.3,0.3-1.8c0.2-0.5,0.5-0.9,0.9-1.1c0.4-0.3,0.9-0.4,1.4-0.4
		c0.3,0,0.7,0,1,0.1c0.3,0.1,0.5,0.2,0.8,0.4l-0.4,0.8c-0.3-0.2-0.7-0.4-1.2-0.4c-0.4,0-0.7,0.1-1,0.3c-0.3,0.2-0.4,0.4-0.6,0.8
		c-0.1,0.3-0.2,0.8-0.2,1.2v4h2.7v0.8h-2.7v9.4H564.4z"/>
	<path d="M575.1,135.6c-1.5,0-2.5-0.3-3.2-1s-0.9-1.8-0.9-3.5V125h1.1v5.9c0,1.3,0.2,2.3,0.7,2.9s1.2,0.9,2.3,0.9s1.9-0.3,2.3-0.9
		c0.5-0.6,0.7-1.5,0.7-2.9V125h1.1v6.1c0,1.6-0.3,2.8-0.9,3.5C577.7,135.2,576.6,135.6,575.1,135.6z M572.8,122
		c-0.2,0-0.4-0.1-0.5-0.2c-0.1-0.1-0.2-0.3-0.2-0.5s0.1-0.4,0.2-0.5c0.1-0.1,0.3-0.2,0.5-0.2s0.4,0.1,0.5,0.2
		c0.1,0.1,0.2,0.3,0.2,0.5s-0.1,0.4-0.2,0.5C573.1,121.9,573,122,572.8,122z M577.5,122c-0.2,0-0.4-0.1-0.5-0.2
		c-0.1-0.1-0.2-0.3-0.2-0.5s0.1-0.4,0.2-0.5c0.1-0.1,0.3-0.2,0.5-0.2s0.4,0.1,0.5,0.2c0.1,0.1,0.2,0.3,0.2,0.5s-0.1,0.4-0.2,0.5
		C577.8,121.9,577.7,122,577.5,122z"/>
	<path d="M583.5,135.3V125h1.1v1.5c0.3-0.6,0.7-1.1,1.2-1.4c0.5-0.3,1.1-0.5,1.8-0.5c0.3,0,0.6,0,0.9,0.1c0.3,0.1,0.5,0.1,0.8,0.2
		l-0.4,0.9c-0.2-0.1-0.4-0.2-0.7-0.2c-0.2,0-0.5-0.1-0.7-0.1c-0.5,0-0.9,0.1-1.4,0.4c-0.4,0.2-0.8,0.6-1.1,1
		c-0.3,0.4-0.4,0.8-0.4,1.3v7H583.5z"/>
	<path d="M597.3,135.3V125h1.1v1.5c0.4-0.6,0.9-1,1.4-1.3c0.6-0.3,1.2-0.5,2-0.5c0.9,0,1.6,0.2,2.2,0.6c0.6,0.4,1,0.9,1.3,1.6
		c0.4-0.7,0.9-1.2,1.5-1.6c0.6-0.4,1.4-0.6,2.2-0.6c0.7,0,1.4,0.1,1.9,0.4c0.6,0.3,1,0.7,1.3,1.3c0.3,0.6,0.5,1.3,0.5,2.1v6.7h-1.1
		v-6.4c0-1-0.3-1.8-0.8-2.4c-0.5-0.6-1.2-0.9-2.1-0.9c-0.6,0-1.2,0.1-1.7,0.4s-0.9,0.6-1.2,1c-0.3,0.4-0.4,0.8-0.4,1.3v7h-1.1v-6.6
		c0-0.9-0.3-1.7-0.8-2.3s-1.2-0.8-2.1-0.8c-0.6,0-1.1,0.1-1.6,0.4c-0.5,0.3-0.9,0.6-1.2,1s-0.5,0.8-0.5,1.2v7.1H597.3z"/>
	<path d="M617.5,123c-0.1,0-0.3,0-0.4-0.1c-0.1-0.1-0.2-0.2-0.3-0.3c-0.1-0.1-0.1-0.2-0.1-0.4c0-0.1,0-0.3,0.1-0.4
		c0.1-0.1,0.2-0.2,0.3-0.3c0.1-0.1,0.2-0.1,0.4-0.1c0.1,0,0.3,0,0.4,0.1c0.1,0.1,0.2,0.2,0.3,0.3c0.1,0.1,0.1,0.2,0.1,0.4
		c0,0.1,0,0.3-0.1,0.4c-0.1,0.1-0.2,0.2-0.3,0.3C617.8,122.9,617.6,123,617.5,123z M617,135.3V125h1.1v10.2H617z"/>
	<path d="M627.3,135.6c-0.8,0-1.5-0.1-2.2-0.4s-1.3-0.6-1.8-1.1c-0.5-0.5-0.9-1.1-1.2-1.7c-0.3-0.7-0.4-1.4-0.4-2.2s0.1-1.5,0.4-2.2
		c0.3-0.7,0.7-1.2,1.2-1.7c0.5-0.5,1.1-0.9,1.8-1.1c0.7-0.3,1.4-0.4,2.2-0.4c0.7,0,1.3,0.1,1.9,0.3s1.1,0.5,1.6,0.9l-0.5,0.7
		c-0.8-0.6-1.8-1-2.9-1c-0.9,0-1.7,0.2-2.4,0.6c-0.7,0.4-1.2,0.9-1.6,1.6c-0.4,0.7-0.6,1.5-0.6,2.3c0,0.9,0.2,1.6,0.6,2.3
		c0.4,0.7,0.9,1.2,1.6,1.6c0.7,0.4,1.5,0.6,2.4,0.6c0.6,0,1.1-0.1,1.6-0.2c0.5-0.2,0.9-0.4,1.3-0.7l0.5,0.7c-0.5,0.4-1,0.6-1.6,0.8
		C628.6,135.5,628,135.6,627.3,135.6z"/>
	<path d="M634.1,135.3V118h1.1v8.4c0.3-0.5,0.7-0.9,1.3-1.3c0.6-0.3,1.3-0.5,2.2-0.5c0.8,0,1.5,0.2,2,0.5c0.6,0.3,1,0.8,1.3,1.4
		c0.3,0.6,0.5,1.4,0.5,2.3v6.4h-1.1v-6.2c0-1.1-0.3-2-0.8-2.6c-0.5-0.6-1.3-0.9-2.2-0.9c-0.7,0-1.2,0.1-1.7,0.4
		c-0.5,0.3-0.8,0.6-1.1,1.1c-0.3,0.4-0.4,0.9-0.4,1.4v6.8H634.1z"/>
	<path d="M648.9,135.6c-0.7,0-1.3-0.2-1.6-0.7c-0.4-0.5-0.6-1.2-0.6-2v-7h-1V125h1v-3.8h1.1v3.8h2.6v0.8h-2.6v6.9
		c0,0.6,0.1,1.1,0.4,1.4c0.2,0.3,0.6,0.5,1,0.5c0.4,0,0.8-0.1,1.1-0.3l0.3,0.9c-0.2,0.1-0.4,0.2-0.7,0.3S649.2,135.6,648.9,135.6z"
		/>
	<path d="M466.8,159.6c-1,0-1.8-0.2-2.6-0.7c-0.8-0.5-1.4-1.1-1.8-1.9c-0.4-0.8-0.7-1.8-0.7-2.8c0-1.1,0.2-2,0.7-2.8
		c0.4-0.8,1.1-1.5,1.8-1.9s1.6-0.7,2.6-0.7c1,0,1.8,0.2,2.6,0.7c0.8,0.5,1.4,1.1,1.8,2V142h1.1v17.2h-1.1v-2.4c-0.4,0.8-1,1.5-1.8,2
		S467.7,159.6,466.8,159.6z M467,158.6c0.8,0,1.6-0.2,2.2-0.6c0.6-0.4,1.1-0.9,1.5-1.6s0.5-1.5,0.5-2.3c0-0.9-0.2-1.6-0.5-2.3
		c-0.4-0.7-0.9-1.2-1.5-1.6c-0.6-0.4-1.4-0.6-2.2-0.6c-0.8,0-1.5,0.2-2.2,0.6s-1.1,0.9-1.5,1.6c-0.4,0.7-0.5,1.5-0.5,2.3
		c0,0.9,0.2,1.6,0.5,2.3s0.9,1.2,1.5,1.6C465.4,158.4,466.1,158.6,467,158.6z"/>
	<path d="M481.1,159.6c-1,0-1.8-0.2-2.6-0.7c-0.8-0.5-1.4-1.1-1.8-1.9c-0.5-0.8-0.7-1.8-0.7-2.8c0-1.1,0.2-2,0.7-2.8
		c0.4-0.8,1.1-1.5,1.8-1.9c0.8-0.5,1.6-0.7,2.6-0.7c1,0,1.9,0.2,2.6,0.7c0.8,0.5,1.4,1.1,1.8,2V149h1.1v10.2h-1.1v-2.4
		c-0.4,0.8-1,1.5-1.8,2C482.9,159.3,482,159.6,481.1,159.6z M481.3,158.6c0.8,0,1.6-0.2,2.2-0.6s1.1-0.9,1.5-1.6s0.5-1.5,0.5-2.3
		c0-0.9-0.2-1.7-0.5-2.3c-0.4-0.7-0.9-1.2-1.5-1.6s-1.4-0.6-2.2-0.6c-0.8,0-1.6,0.2-2.2,0.6s-1.1,0.9-1.5,1.6
		c-0.4,0.7-0.5,1.5-0.5,2.3c0,0.9,0.2,1.6,0.5,2.3c0.4,0.7,0.9,1.2,1.5,1.6C479.7,158.4,480.5,158.6,481.3,158.6z"/>
	<path d="M496.5,159.6c-1,0-1.8-0.2-2.6-0.7c-0.8-0.5-1.4-1.1-1.8-2v2.4H491v-17.2h1.1v9.3c0.4-0.8,1-1.5,1.8-2
		c0.8-0.5,1.6-0.7,2.6-0.7c1,0,1.8,0.2,2.6,0.7s1.4,1.1,1.8,1.9c0.4,0.8,0.7,1.8,0.7,2.8c0,1-0.2,2-0.7,2.8
		c-0.4,0.8-1.1,1.5-1.8,1.9C498.3,159.3,497.4,159.6,496.5,159.6z M496.3,158.6c0.8,0,1.5-0.2,2.2-0.6c0.6-0.4,1.1-0.9,1.5-1.6
		s0.5-1.5,0.5-2.3c0-0.9-0.2-1.6-0.5-2.3c-0.4-0.7-0.9-1.2-1.5-1.6s-1.4-0.6-2.2-0.6c-0.8,0-1.6,0.2-2.2,0.6
		c-0.6,0.4-1.1,0.9-1.5,1.6c-0.4,0.7-0.5,1.5-0.5,2.3c0,0.9,0.2,1.6,0.5,2.3s0.9,1.2,1.5,1.6C494.7,158.4,495.4,158.6,496.3,158.6z"
		/>
	<path d="M510.1,159.6c-1.1,0-2-0.2-2.9-0.7c-0.8-0.5-1.5-1.1-2-1.9c-0.5-0.8-0.7-1.7-0.7-2.7c0-0.8,0.1-1.5,0.4-2.2
		c0.3-0.7,0.7-1.2,1.1-1.8c0.5-0.5,1.1-0.9,1.7-1.2c0.6-0.3,1.3-0.4,2.1-0.4c1,0,1.8,0.2,2.6,0.7c0.8,0.4,1.4,1.1,1.9,1.8
		c0.5,0.8,0.7,1.7,0.8,2.7c0,0.1,0,0.1,0,0.2c0,0,0,0.1,0,0.2h-9.6c0,0.9,0.2,1.6,0.6,2.3c0.4,0.7,0.9,1.2,1.6,1.6s1.5,0.6,2.3,0.6
		c0.8,0,1.6-0.2,2.3-0.5s1.2-0.9,1.6-1.5l0.8,0.4c-0.5,0.8-1.1,1.4-2,1.8C512,159.4,511.1,159.6,510.1,159.6z M505.7,153.4h8.5
		c-0.1-0.7-0.3-1.4-0.7-1.9c-0.4-0.6-0.9-1-1.5-1.3s-1.3-0.5-2-0.5c-0.7,0-1.4,0.2-2,0.5c-0.6,0.3-1.1,0.8-1.5,1.3
		C506,152,505.8,152.6,505.7,153.4z"/>
	<path d="M519.3,147c-0.1,0-0.3,0-0.4-0.1c-0.1-0.1-0.2-0.2-0.3-0.3c-0.1-0.1-0.1-0.2-0.1-0.4c0-0.1,0-0.3,0.1-0.4
		c0.1-0.1,0.2-0.2,0.3-0.3c0.1-0.1,0.2-0.1,0.4-0.1c0.1,0,0.3,0,0.4,0.1c0.1,0.1,0.2,0.2,0.3,0.3c0.1,0.1,0.1,0.2,0.1,0.4
		c0,0.1,0,0.3-0.1,0.4c-0.1,0.1-0.2,0.2-0.3,0.3C519.5,146.9,519.4,147,519.3,147z M518.8,159.3V149h1.1v10.2H518.8z"/>
	<path d="M527.9,155.3v-3.9c0.1,0,0.2,0,0.3,0c0.1,0,0.2,0,0.3,0c0.8,0,1.5-0.2,2.2-0.5c0.6-0.3,1.1-0.8,1.5-1.4s0.5-1.3,0.5-2.2
		c0-0.8-0.2-1.5-0.5-2.1c-0.3-0.6-0.8-1-1.4-1.3c-0.6-0.3-1.3-0.5-2.1-0.5c-1.2,0-2.1,0.4-2.9,1.1s-1.1,1.7-1.1,2.9l-1-0.1
		c0-1,0.3-1.9,0.7-2.6c0.4-0.7,1-1.3,1.8-1.6s1.5-0.6,2.4-0.6c1,0,1.9,0.2,2.6,0.6c0.8,0.4,1.4,1,1.8,1.8c0.4,0.7,0.7,1.6,0.7,2.5
		c0,0.9-0.2,1.7-0.6,2.4c-0.4,0.7-1,1.3-1.7,1.8c-0.7,0.4-1.6,0.7-2.6,0.7v2.9H527.9z M528.3,159.6c-0.1,0-0.3,0-0.4-0.1
		c-0.1-0.1-0.2-0.2-0.3-0.3c-0.1-0.1-0.1-0.2-0.1-0.4c0-0.1,0-0.3,0.1-0.4c0.1-0.1,0.2-0.2,0.3-0.3s0.2-0.1,0.4-0.1
		c0.1,0,0.3,0,0.4,0.1c0.1,0.1,0.2,0.2,0.3,0.3c0.1,0.1,0.1,0.3,0.1,0.4c0,0.1,0,0.3-0.1,0.4c-0.1,0.1-0.2,0.2-0.3,0.3
		C528.6,159.5,528.5,159.6,528.3,159.6z"/>
</g>
</svg>
