<?xml version="1.0" encoding="utf-8"?>
<!-- Generator: Adobe Illustrator 26.0.1, SVG Export Plug-In . SVG Version: 6.00 Build 0)  -->
<svg version="1.1" id="Ebene_1" xmlns="http://www.w3.org/2000/svg" xmlns:xlink="http://www.w3.org/1999/xlink" x="0px" y="0px"
	 viewBox="0 0 841.9 595.3" style="enable-background:new 0 0 841.9 595.3;" xml:space="preserve">
<style type="text/css">
	.st0{opacity:0.9;fill:#FFE266;}
	.st1{fill:none;}
	.st2{fill:#FFFFFF;}
	.st3{fill:#335AA5;stroke:#1E1E1C;stroke-width:0.75;stroke-miterlimit:10;}
	.st4{opacity:0.9;fill:#FFE267;stroke:#020203;stroke-width:0.75;stroke-miterlimit:10;enable-background:new    ;}
	.st5{fill:#1E1E1C;}
	.st6{fill:none;stroke:#1E1E1C;stroke-width:0.75;stroke-miterlimit:10;}
	.st7{fill:#D94536;stroke:#1E1E1C;stroke-width:0.75;stroke-miterlimit:10;}
	.st8{fill:#232A51;stroke:#1E1E1C;stroke-width:0.75;stroke-miterlimit:10;}
	.st9{fill:#009CBF;}
	.st10{fill:#009CBF;stroke:#1E1E1C;stroke-width:0.75;stroke-miterlimit:10;}
	.st11{fill:#020203;}
</style>
<g>
	<path class="st0" d="M382.6,181.3c-10.6,9.2-23.4,16.3-37.2,22.4c-3.9,1.7-7.7,3.5-11.3,5.5c-1.3,0.7-2.3,2.5-2.2,3.6
		c0.2,1.8,2.6,2.1,4.8,2c9.6-0.2,18.5-2.5,27.5-4.7c19.1-4.6,37-11.4,53.9-19.6c6.1-3,11.5-3.6,18.6-2c23.3,5.2,47.2,7.5,71.4,7.1
		c45.8-0.8,87.1-11.7,122.8-34c14.6-9.1,27-19.9,32-34c8.5-24.4,2.2-46.3-21.8-64.5c-20.1-15.1-44.4-24.3-71.4-29.6
		c-25.7-5-51.9-5.4-78.2-4.6c-20.4,0.6-40.6,2.6-60.4,6.6c-32.4,6.6-60.5,18.8-83.1,38c-10.6,9-18.7,19.2-22.2,31.2
		c-4.3,14.6,0.6,27.9,11.3,40.2c10,11.5,24.1,19.1,39.7,25.4c3.8,1.6,7.6,3.1,12,4.8C386.7,177.4,384.8,179.5,382.6,181.3z"/>
	<path class="st1" d="M377,170.5c-15.6-6.3-29.7-14-39.7-25.4c-10.6-12.2-15.5-25.5-11.3-40.2c3.5-12,11.5-22.2,22.2-31.2
		c22.6-19.2,50.7-31.3,83.1-38c19.8-4.1,40-6,60.4-6.6c26.3-0.8,52.5-0.4,78.2,4.6c27,5.3,51.3,14.4,71.4,29.6
		c24.1,18.1,30.3,40.1,21.8,64.5c-4.9,14.1-17.4,24.9-32,34c-35.7,22.3-76.9,33.2-122.8,34c-24.2,0.4-48.1-1.9-71.4-7.1
		c-7.1-1.6-12.6-1-18.6,2c-16.9,8.2-34.7,15-53.9,19.6c-9,2.2-18,4.5-27.5,4.7c-2.1,0.1-4.5-0.2-4.8-2c-0.2-1.2,0.9-2.9,2.2-3.6
		c3.5-2,7.4-3.8,11.3-5.5c13.8-6.1,26.5-13.3,37.2-22.4c2.2-1.9,4.1-3.9,6.3-6C384.6,173.6,380.8,172,377,170.5z M379.8,200.9
		c12.4-4.5,24.7-9.4,36.6-14.8c6.9-3.1,13-3.9,20.9-2.1c26.1,5.9,52.8,8.3,80,6.9c44.3-2.3,83.7-14,116.6-37.3
		c11.4-8,20.9-17.5,24.2-29.3c5.8-20.2,1.6-38.9-17.3-54.7c-19.1-15.9-43.1-25.4-69.9-31c-20.3-4.3-41.2-5.4-62.2-5.3
		c-25.7,0-51.1,1.7-76,6.8c-31,6.3-57.9,17.9-79.7,36.2c-10.2,8.5-18,18.2-21.3,29.6c-4.1,14.1,1.1,26.6,11.8,38
		c7,7.6,16,13.5,26.4,18.1c7,3.1,14.1,6,21.2,8.9c4,1.6,5.2,3.3,2.7,6.2c-3.2,3.6-6.8,7.1-10.7,10.3c-9.8,8-21.3,14.2-33.5,19.7
		c-1.4,0.7-2.9,1.4-4.3,2C357.3,207.5,368.9,204.8,379.8,200.9z"/>
	<path class="st2" d="M353.1,76.3"/>
</g>
<g>
	<path class="st3" d="M191.9,318.6l-19.8-5.5c-5.2-2-5.7,10.5-7.3,28.4c-1.6,17.9-1.1,28.9,3.1,31.3c0.5,0.3,0.9,0.4,1.4,0.4
		l22.6,6.7L191.9,318.6L191.9,318.6z"/>
	<path class="st4" d="M184.9,206.1c0,0-30.6,50.6,0,90.5c12,5.3,66.6,10.6,73.2,0c4-8,15.9-59.9,4.6-90.5
		C252.8,202.1,206.2,192.8,184.9,206.1z"/>
	<circle class="st5" cx="255.9" cy="239" r="3.7"/>
	<circle class="st5" cx="217.5" cy="241.1" r="3.7"/>
	<path class="st6" d="M226.7,279.9c6.8,7.2,18.9,6.9,26.9-0.7"/>
	<path class="st4" d="M213.8,301.9v14.5c0,0,2.6,5.7,8.5,5.7c6.1,0,8.5-5.6,8.5-5.6v-14L213.8,301.9z"/>
	<polygon class="st7" points="190.3,386.9 201.2,454.7 210.9,454.7 210,396.4 233.7,397 236.7,454.7 245.9,454.7 250.9,388.2 	"/>
	<polygon class="st5" points="200.8,454.7 200.8,459.1 217.3,459.1 210.8,454.7 	"/>
	<polygon class="st5" points="236.4,454.7 236.4,459.1 252,459.1 245.8,454.7 	"/>
	<path class="st4" d="M183.1,406.5c-2.1-2-3.4-6.3-4-11.8h12C193.2,410,186.5,409.8,183.1,406.5z"/>
	<path class="st4" d="M260.2,399.6c-0.6,3.2-2.2,6.7-4.8,6.7c-2.7,0-4.8-1.1-4.8-4.4c0-0.9-0.4-6.7-0.2-7.5l0.6-5.1h9.5
		C260.6,393.4,260.6,397.3,260.2,399.6z"/>
	<path class="st8" d="M260.5,389.3H251c0,0-59.8-3-59.8,5.4h-12c-2.8-25.2,7-77.8,7-77.8l27.7-0.2l41.5,0.2l4.8,62.4
		C260.2,382.1,260.4,385.8,260.5,389.3z"/>
	<g>
		<path class="st9" d="M230.9,309.7h10.9c0,0,10.5,0.7,13.8,7.1l-24.6-0.3L230.9,309.7L230.9,309.7z"/>
		<path class="st5" d="M255.7,316.8v-0.3c-3.3-6.5-13.5-7.1-14-7.1h-11.2v7.6l25.1,0.3 M231.2,316.2v-6.1h10.5
			c0.1,0,9.7,0.8,13.2,6.4L231.2,316.2z"/>
	</g>
	<path class="st5" d="M191.2,394.7"/>
	<path class="st10" d="M171.5,312.7c0,0,11.8-3.6,42.4-2.9v6.9l-27.7,0.2L171.5,312.7z"/>
	<line class="st1" x1="179.1" y1="394.7" x2="171.5" y2="394.7"/>
	<line class="st6" x1="191.2" y1="394.7" x2="199.8" y2="339.7"/>
	<line class="st6" x1="243.1" y1="338.8" x2="251" y2="389.3"/>
	<line class="st1" x1="267.6" y1="389.3" x2="260.5" y2="389.3"/>
	<path class="st11" d="M159.5,288.5c-1.2-3.2-27.8-67-13.7-89.8c2.7-3.1,12.4-26.4,62.9-18.4c9.9,1.9,25.4,16.5,87.9,9.3
		c-6.7,3.8-30,17.3-30,17.3l2.6,9.2c0,0-50.9,7.6-72.6,3.4c-3,7.4-13.8,14.9-13.1,32.3c1.1,9.4,5.3,45.6,5.3,45.6s-8,16-21.3,6.1
		C163.9,299.7,159.5,288.5,159.5,288.5z"/>
</g>
<g>
	<path d="M355.2,92.9l2.3-16.5h1.2l5.1,13.6l5.1-13.6h1.2l2.3,16.5h-1.1l-2-14.4l-5,13.2h-0.9l-4.9-13.2l-2,14.4H355.2z"/>
	<path d="M381,93.2c-1.1,0-2-0.2-2.9-0.7s-1.5-1.1-2-1.9c-0.5-0.8-0.7-1.7-0.7-2.7c0-0.8,0.1-1.5,0.4-2.2c0.3-0.7,0.7-1.2,1.1-1.8
		c0.5-0.5,1.1-0.9,1.7-1.2c0.6-0.3,1.3-0.4,2.1-0.4c1,0,1.8,0.2,2.6,0.7c0.8,0.4,1.4,1.1,1.9,1.8c0.5,0.8,0.7,1.7,0.8,2.7
		c0,0.1,0,0.1,0,0.2c0,0,0,0.1,0,0.2h-9.6c0,0.9,0.2,1.6,0.6,2.3c0.4,0.7,0.9,1.2,1.6,1.6c0.7,0.4,1.5,0.6,2.3,0.6
		c0.8,0,1.6-0.2,2.3-0.5s1.2-0.9,1.6-1.5l0.8,0.4c-0.5,0.8-1.1,1.4-2,1.8C382.9,93,382,93.2,381,93.2z M376.6,87h8.5
		c-0.1-0.7-0.3-1.4-0.7-1.9c-0.4-0.6-0.9-1-1.5-1.3c-0.6-0.3-1.3-0.5-2-0.5c-0.7,0-1.4,0.2-2,0.5s-1.1,0.8-1.5,1.3
		C376.9,85.6,376.7,86.3,376.6,87z"/>
	<path d="M390.2,80.6c-0.1,0-0.3,0-0.4-0.1c-0.1-0.1-0.2-0.2-0.3-0.3c-0.1-0.1-0.1-0.2-0.1-0.4c0-0.1,0-0.3,0.1-0.4
		c0.1-0.1,0.2-0.2,0.3-0.3c0.1-0.1,0.2-0.1,0.4-0.1c0.1,0,0.3,0,0.4,0.1c0.1,0.1,0.2,0.2,0.3,0.3c0.1,0.1,0.1,0.2,0.1,0.4
		c0,0.1,0,0.3-0.1,0.4c-0.1,0.1-0.2,0.2-0.3,0.3C390.4,80.6,390.3,80.6,390.2,80.6z M389.6,92.9V82.6h1.1v10.2H389.6z"/>
	<path d="M395.2,92.9V82.6h1.1v1.5c0.3-0.5,0.7-0.9,1.3-1.3c0.6-0.3,1.3-0.5,2.2-0.5c0.8,0,1.5,0.2,2,0.5c0.6,0.3,1,0.8,1.3,1.4
		c0.3,0.6,0.5,1.4,0.5,2.3v6.4h-1.1v-6.2c0-1.1-0.3-2-0.8-2.6s-1.3-0.9-2.2-0.9c-0.7,0-1.2,0.1-1.7,0.4c-0.5,0.3-0.8,0.6-1.1,1
		c-0.3,0.4-0.4,0.9-0.4,1.4v6.8H395.2z"/>
	<path d="M416.2,92.9V77.4H411v-1h11.6v1h-5.3v15.5H416.2z"/>
	<path d="M424.8,92.9V82.6h1.1v1.5c0.3-0.6,0.7-1.1,1.2-1.4c0.5-0.3,1.1-0.5,1.8-0.5c0.3,0,0.6,0,0.9,0.1s0.5,0.1,0.8,0.2l-0.4,0.9
		c-0.2-0.1-0.4-0.2-0.7-0.2c-0.2,0-0.5-0.1-0.7-0.1c-0.5,0-0.9,0.1-1.4,0.4s-0.8,0.6-1.1,1c-0.3,0.4-0.4,0.8-0.4,1.3v7H424.8z"/>
	<path d="M437.7,93.2c-1,0-1.8-0.2-2.6-0.7c-0.8-0.5-1.4-1.1-1.8-1.9c-0.5-0.8-0.7-1.8-0.7-2.8c0-1.1,0.2-2,0.7-2.8
		c0.4-0.8,1.1-1.5,1.8-1.9c0.8-0.5,1.6-0.7,2.6-0.7c1,0,1.9,0.2,2.6,0.7c0.8,0.5,1.4,1.1,1.8,2v-2.4h1.1v10.2h-1.1v-2.4
		c-0.4,0.8-1,1.5-1.8,2C439.5,93,438.7,93.2,437.7,93.2z M437.9,92.3c0.8,0,1.6-0.2,2.2-0.6s1.1-0.9,1.5-1.6s0.5-1.5,0.5-2.3
		c0-0.9-0.2-1.7-0.5-2.3c-0.4-0.7-0.9-1.2-1.5-1.6s-1.4-0.6-2.2-0.6c-0.8,0-1.6,0.2-2.2,0.6s-1.1,0.9-1.5,1.6
		c-0.4,0.7-0.5,1.5-0.5,2.3c0,0.9,0.2,1.6,0.5,2.3c0.4,0.7,0.9,1.2,1.5,1.6C436.4,92.1,437.1,92.3,437.9,92.3z"/>
	<path d="M451.6,93.2c-1.5,0-2.5-0.3-3.2-1c-0.6-0.7-0.9-1.8-0.9-3.5v-6.1h1.1v5.9c0,1.3,0.2,2.3,0.7,2.9c0.5,0.6,1.2,0.9,2.3,0.9
		c1.1,0,1.9-0.3,2.3-0.9c0.5-0.6,0.7-1.5,0.7-2.9v-5.9h1.1v6.1c0,1.6-0.3,2.8-0.9,3.5C454.1,92.9,453,93.2,451.6,93.2z"/>
	<path d="M460,92.9V82.6h1.1v1.5c0.4-0.6,0.9-1,1.4-1.3s1.2-0.5,2-0.5c0.9,0,1.6,0.2,2.2,0.6c0.6,0.4,1,0.9,1.3,1.6
		c0.4-0.7,0.9-1.2,1.5-1.6c0.6-0.4,1.4-0.6,2.2-0.6c0.7,0,1.4,0.1,1.9,0.4c0.6,0.3,1,0.7,1.3,1.3c0.3,0.6,0.5,1.3,0.5,2.1v6.7h-1.1
		v-6.4c0-1-0.3-1.8-0.8-2.4c-0.5-0.6-1.2-0.9-2.1-0.9c-0.6,0-1.2,0.1-1.7,0.4s-0.9,0.6-1.2,1c-0.3,0.4-0.4,0.8-0.4,1.3v7h-1.1v-6.6
		c0-0.9-0.3-1.7-0.8-2.3s-1.2-0.8-2.1-0.8c-0.6,0-1.1,0.1-1.6,0.4c-0.5,0.3-0.9,0.6-1.2,1s-0.5,0.8-0.5,1.2v7.1H460z"/>
	<path d="M485.1,93.2c-1,0-1.8-0.2-2.6-0.7c-0.8-0.5-1.4-1.1-1.8-2v2.4h-1.1V75.7h1.1V85c0.4-0.8,1-1.5,1.8-2
		c0.8-0.5,1.6-0.7,2.6-0.7c1,0,1.8,0.2,2.6,0.7s1.4,1.1,1.8,1.9c0.4,0.8,0.7,1.8,0.7,2.8c0,1-0.2,2-0.7,2.8
		c-0.4,0.8-1.1,1.5-1.8,1.9C487,93,486.1,93.2,485.1,93.2z M484.9,92.3c0.8,0,1.5-0.2,2.2-0.6c0.6-0.4,1.1-0.9,1.5-1.6
		s0.5-1.5,0.5-2.3c0-0.9-0.2-1.6-0.5-2.3c-0.4-0.7-0.9-1.2-1.5-1.6s-1.4-0.6-2.2-0.6c-0.8,0-1.6,0.2-2.2,0.6
		c-0.6,0.4-1.1,0.9-1.5,1.6c-0.4,0.7-0.5,1.5-0.5,2.3c0,0.9,0.2,1.6,0.5,2.3s0.9,1.2,1.5,1.6C483.4,92.1,484.1,92.3,484.9,92.3z"/>
	<path d="M498.8,93.2c-1.1,0-2-0.2-2.9-0.7c-0.8-0.5-1.5-1.1-2-1.9c-0.5-0.8-0.7-1.7-0.7-2.7c0-0.8,0.1-1.5,0.4-2.2
		c0.3-0.7,0.7-1.2,1.2-1.8s1.1-0.9,1.7-1.2c0.6-0.3,1.3-0.4,2.1-0.4c1,0,1.8,0.2,2.6,0.7s1.4,1.1,1.9,1.8c0.5,0.8,0.7,1.7,0.8,2.7
		c0,0.1,0,0.1,0,0.2c0,0,0,0.1,0,0.2h-9.6c0,0.9,0.2,1.6,0.6,2.3c0.4,0.7,0.9,1.2,1.6,1.6c0.7,0.4,1.5,0.6,2.3,0.6
		c0.8,0,1.6-0.2,2.3-0.5s1.2-0.9,1.6-1.5l0.8,0.4c-0.5,0.8-1.1,1.4-2,1.8C500.7,93,499.8,93.2,498.8,93.2z M494.3,87h8.5
		c-0.1-0.7-0.3-1.4-0.7-1.9c-0.4-0.6-0.9-1-1.5-1.3c-0.6-0.3-1.3-0.5-2-0.5c-0.7,0-1.4,0.2-2,0.5c-0.6,0.3-1.1,0.8-1.5,1.3
		C494.7,85.6,494.4,86.3,494.3,87z"/>
	<path d="M507.4,92.9V82.6h1.1v1.5c0.3-0.6,0.7-1.1,1.2-1.4c0.5-0.3,1.1-0.5,1.8-0.5c0.3,0,0.6,0,0.9,0.1s0.5,0.1,0.8,0.2l-0.4,0.9
		c-0.2-0.1-0.4-0.2-0.7-0.2c-0.2,0-0.5-0.1-0.7-0.1c-0.5,0-0.9,0.1-1.4,0.4s-0.8,0.6-1.1,1c-0.3,0.4-0.4,0.8-0.4,1.3v7H507.4z"/>
	<path d="M520,93.2c-1.5,0-2.5-0.3-3.2-1s-0.9-1.8-0.9-3.5v-6.1h1.1v5.9c0,1.3,0.2,2.3,0.7,2.9s1.2,0.9,2.3,0.9s1.9-0.3,2.3-0.9
		c0.5-0.6,0.7-1.5,0.7-2.9v-5.9h1.1v6.1c0,1.6-0.3,2.8-0.9,3.5C522.5,92.9,521.5,93.2,520,93.2z"/>
	<path d="M528.5,92.9v-9.4h-1v-0.8h1v-3.9c0-0.7,0.1-1.3,0.3-1.8c0.2-0.5,0.5-0.9,0.9-1.1c0.4-0.3,0.9-0.4,1.4-0.4
		c0.3,0,0.7,0,1,0.1c0.3,0.1,0.5,0.2,0.8,0.4l-0.4,0.8c-0.3-0.2-0.7-0.4-1.2-0.4c-0.4,0-0.7,0.1-1,0.3s-0.4,0.4-0.6,0.8
		s-0.2,0.8-0.2,1.2v4h2.7v0.8h-2.7v9.4H528.5z"/>
	<path d="M543.8,92.9l-4.9-10.2h1.2l4,8.6l3.4-8.6h0.7l3.4,8.6l4-8.6h1.2l-4.9,10.2h-0.7l-3.4-8.5l-3.4,8.5H543.8z"/>
	<path d="M564.1,93.2c-1,0-1.8-0.2-2.6-0.7c-0.8-0.5-1.4-1.1-1.8-1.9c-0.4-0.8-0.7-1.8-0.7-2.8c0-1.1,0.2-2,0.7-2.8
		c0.4-0.8,1.1-1.5,1.8-1.9c0.8-0.5,1.6-0.7,2.6-0.7s1.9,0.2,2.6,0.7c0.8,0.5,1.4,1.1,1.8,2v-2.4h1.1v10.2h-1.1v-2.4
		c-0.4,0.8-1,1.5-1.8,2C565.9,93,565.1,93.2,564.1,93.2z M564.3,92.3c0.8,0,1.6-0.2,2.2-0.6s1.1-0.9,1.5-1.6s0.5-1.5,0.5-2.3
		c0-0.9-0.2-1.7-0.5-2.3c-0.4-0.7-0.9-1.2-1.5-1.6s-1.4-0.6-2.2-0.6c-0.8,0-1.6,0.2-2.2,0.6s-1.1,0.9-1.5,1.6
		c-0.4,0.7-0.5,1.5-0.5,2.3c0,0.9,0.2,1.6,0.5,2.3c0.4,0.7,0.9,1.2,1.5,1.6C562.8,92.1,563.5,92.3,564.3,92.3z"/>
	<path d="M574.1,92.9V82.6h1.1v1.5c0.3-0.6,0.7-1.1,1.2-1.4c0.5-0.3,1.1-0.5,1.8-0.5c0.3,0,0.6,0,0.9,0.1s0.5,0.1,0.8,0.2l-0.4,0.9
		c-0.2-0.1-0.4-0.2-0.7-0.2c-0.2,0-0.5-0.1-0.7-0.1c-0.5,0-0.9,0.1-1.4,0.4s-0.8,0.6-1.1,1c-0.3,0.4-0.4,0.8-0.4,1.3v7H574.1z"/>
	<path d="M590.4,93.2c-0.8,0-1.6-0.2-2.2-0.7c-0.6-0.4-1.1-1.1-1.5-1.9l0.6-0.5c0.3,0.7,0.7,1.2,1.2,1.6c0.5,0.4,1.1,0.6,1.8,0.6
		c0.5,0,0.9-0.1,1.3-0.3c0.4-0.2,0.7-0.5,0.9-0.8c0.2-0.4,0.3-0.8,0.3-1.3c0-0.4-0.1-0.8-0.3-1c-0.2-0.2-0.5-0.5-0.9-0.6
		c-0.4-0.2-0.9-0.4-1.5-0.6c-0.4-0.2-0.9-0.4-1.3-0.6c-0.4-0.2-0.8-0.5-1-0.8c-0.3-0.3-0.4-0.8-0.4-1.3c0-0.5,0.1-0.9,0.4-1.3
		c0.3-0.4,0.6-0.7,1.1-0.9c0.5-0.2,1-0.3,1.6-0.3c0.6,0,1.1,0.1,1.6,0.4s0.9,0.7,1.3,1.1l-0.6,0.6c-0.5-0.9-1.3-1.3-2.3-1.3
		c-0.6,0-1.1,0.2-1.5,0.5s-0.6,0.8-0.6,1.3c0,0.4,0.1,0.7,0.3,0.9s0.5,0.4,0.9,0.6c0.4,0.2,0.8,0.3,1.2,0.5c0.6,0.2,1.2,0.5,1.6,0.7
		c0.5,0.2,0.8,0.5,1.1,0.9c0.2,0.3,0.4,0.8,0.4,1.4c0,0.7-0.2,1.2-0.5,1.7c-0.3,0.5-0.7,0.9-1.3,1.1
		C591.7,93.1,591.1,93.2,590.4,93.2z"/>
	<path d="M602.4,93.2c-0.8,0-1.5-0.1-2.2-0.4s-1.3-0.6-1.8-1.1c-0.5-0.5-0.9-1.1-1.2-1.7c-0.3-0.7-0.4-1.4-0.4-2.2s0.1-1.5,0.4-2.2
		c0.3-0.7,0.7-1.2,1.2-1.7c0.5-0.5,1.1-0.9,1.8-1.1c0.7-0.3,1.4-0.4,2.2-0.4c0.7,0,1.3,0.1,1.9,0.3s1.1,0.5,1.6,0.9l-0.5,0.7
		c-0.8-0.6-1.8-1-2.9-1c-0.9,0-1.7,0.2-2.4,0.6c-0.7,0.4-1.2,0.9-1.6,1.6c-0.4,0.7-0.6,1.5-0.6,2.3c0,0.9,0.2,1.6,0.6,2.3
		c0.4,0.7,0.9,1.2,1.6,1.6c0.7,0.4,1.5,0.6,2.4,0.6c0.6,0,1.1-0.1,1.6-0.2c0.5-0.2,0.9-0.4,1.3-0.7l0.5,0.7c-0.5,0.4-1,0.6-1.6,0.8
		C603.7,93.1,603.1,93.2,602.4,93.2z"/>
	<path d="M609.2,92.9V75.7h1.1v8.4c0.3-0.5,0.7-0.9,1.3-1.3c0.6-0.3,1.3-0.5,2.2-0.5c0.8,0,1.5,0.2,2,0.5c0.6,0.3,1,0.8,1.3,1.4
		c0.3,0.6,0.5,1.4,0.5,2.3v6.4h-1.1v-6.2c0-1.1-0.3-2-0.8-2.6c-0.5-0.6-1.3-0.9-2.2-0.9c-0.7,0-1.2,0.1-1.7,0.4
		c-0.5,0.3-0.8,0.6-1.1,1.1c-0.3,0.4-0.4,0.9-0.4,1.4v6.8H609.2z"/>
	<path d="M626.7,93.2c-1.1,0-2-0.2-2.8-0.7c-0.8-0.5-1.5-1.1-2-1.9c-0.5-0.8-0.7-1.8-0.7-2.8c0-1.1,0.2-2,0.7-2.8
		c0.5-0.8,1.2-1.5,2-1.9c0.8-0.5,1.8-0.7,2.8-0.7c1.1,0,2,0.2,2.8,0.7c0.8,0.5,1.5,1.1,2,1.9c0.5,0.8,0.7,1.8,0.7,2.8
		c0,1.1-0.2,2-0.7,2.8c-0.5,0.8-1.2,1.5-2,1.9C628.7,93,627.7,93.2,626.7,93.2z M626.7,92.2c0.9,0,1.6-0.2,2.3-0.6s1.2-0.9,1.6-1.6
		c0.4-0.7,0.6-1.4,0.6-2.3c0-0.9-0.2-1.6-0.6-2.3c-0.4-0.7-0.9-1.2-1.6-1.6c-0.7-0.4-1.4-0.6-2.3-0.6c-0.9,0-1.6,0.2-2.3,0.6
		c-0.7,0.4-1.2,0.9-1.6,1.6c-0.4,0.7-0.6,1.4-0.6,2.3c0,0.9,0.2,1.6,0.6,2.3c0.4,0.7,0.9,1.2,1.6,1.6S625.8,92.2,626.7,92.2z"/>
	<path d="M635.9,92.9V82.6h1.1v1.5c0.3-0.5,0.7-0.9,1.3-1.3c0.6-0.3,1.3-0.5,2.2-0.5c0.8,0,1.5,0.2,2,0.5c0.6,0.3,1,0.8,1.3,1.4
		c0.3,0.6,0.5,1.4,0.5,2.3v6.4h-1.1v-6.2c0-1.1-0.3-2-0.8-2.6s-1.3-0.9-2.2-0.9c-0.7,0-1.2,0.1-1.7,0.4c-0.5,0.3-0.8,0.6-1.1,1
		c-0.3,0.4-0.4,0.9-0.4,1.4v6.8H635.9z"/>
	<path d="M406.2,117.2c-1,0-1.8-0.2-2.6-0.7c-0.8-0.5-1.4-1.1-1.8-1.9c-0.4-0.8-0.7-1.8-0.7-2.8c0-1.1,0.2-2,0.7-2.8
		c0.4-0.8,1.1-1.5,1.8-1.9s1.6-0.7,2.6-0.7c1,0,1.9,0.2,2.6,0.7c0.8,0.5,1.4,1.1,1.8,2v-2.4h1.1v10.2h-1.1v-2.4
		c-0.4,0.8-1,1.5-1.8,2S407.2,117.2,406.2,117.2z M406.5,116.3c0.8,0,1.6-0.2,2.2-0.6s1.1-0.9,1.5-1.6s0.5-1.5,0.5-2.3
		c0-0.9-0.2-1.7-0.5-2.3c-0.4-0.7-0.9-1.2-1.5-1.6s-1.4-0.6-2.2-0.6s-1.6,0.2-2.2,0.6s-1.1,0.9-1.5,1.6c-0.4,0.7-0.5,1.5-0.5,2.3
		c0,0.9,0.2,1.6,0.5,2.3s0.9,1.2,1.5,1.6C404.9,116.1,405.6,116.3,406.5,116.3z"/>
	<path d="M416.2,116.9V99.7h1.1v17.2H416.2z"/>
	<path d="M424.3,117.2c-0.8,0-1.6-0.2-2.2-0.7c-0.6-0.4-1.1-1.1-1.5-1.9l0.6-0.5c0.3,0.7,0.7,1.2,1.2,1.6c0.5,0.4,1.1,0.6,1.8,0.6
		c0.5,0,0.9-0.1,1.3-0.3c0.4-0.2,0.7-0.5,0.9-0.8c0.2-0.4,0.4-0.8,0.4-1.3c0-0.4-0.1-0.8-0.3-1s-0.5-0.5-0.9-0.6
		c-0.4-0.2-0.9-0.4-1.4-0.6c-0.4-0.2-0.9-0.4-1.3-0.6c-0.4-0.2-0.8-0.5-1-0.8c-0.3-0.3-0.4-0.8-0.4-1.3c0-0.5,0.1-0.9,0.4-1.3
		c0.3-0.4,0.6-0.7,1.1-0.9c0.5-0.2,1-0.3,1.6-0.3c0.6,0,1.1,0.1,1.6,0.4s0.9,0.7,1.3,1.1l-0.6,0.6c-0.5-0.9-1.3-1.3-2.3-1.3
		c-0.6,0-1.1,0.2-1.5,0.5s-0.6,0.8-0.6,1.3c0,0.4,0.1,0.7,0.3,0.9s0.5,0.4,0.9,0.6c0.4,0.2,0.8,0.3,1.2,0.5c0.6,0.2,1.2,0.5,1.6,0.7
		s0.8,0.5,1.1,0.9c0.2,0.3,0.4,0.8,0.4,1.4c0,0.7-0.2,1.2-0.5,1.7c-0.3,0.5-0.7,0.9-1.3,1.1C425.6,117.1,425,117.2,424.3,117.2z"/>
	<path d="M437.2,116.9v-16.5h1.1v7.7l7.7-7.7h1.4l-8.2,8.2l9,8.3h-1.6l-8.4-7.6v7.6H437.2z"/>
	<path d="M451.9,104.6c-0.1,0-0.3,0-0.4-0.1c-0.1-0.1-0.2-0.2-0.3-0.3c-0.1-0.1-0.1-0.2-0.1-0.4c0-0.1,0-0.3,0.1-0.4
		c0.1-0.1,0.2-0.2,0.3-0.3c0.1-0.1,0.2-0.1,0.4-0.1c0.1,0,0.3,0,0.4,0.1c0.1,0.1,0.2,0.2,0.3,0.3c0.1,0.1,0.1,0.2,0.1,0.4
		c0,0.1,0,0.3-0.1,0.4c-0.1,0.1-0.2,0.2-0.3,0.3C452.1,104.6,452,104.6,451.9,104.6z M451.3,116.9v-10.2h1.1v10.2H451.3z"/>
	<path d="M456.9,116.9v-10.2h1.1v1.5c0.3-0.5,0.7-0.9,1.3-1.3c0.6-0.3,1.3-0.5,2.2-0.5c0.8,0,1.5,0.2,2,0.5c0.6,0.3,1,0.8,1.3,1.4
		c0.3,0.6,0.5,1.4,0.5,2.3v6.4h-1.1v-6.2c0-1.1-0.3-2-0.8-2.6s-1.3-0.9-2.2-0.9c-0.7,0-1.2,0.1-1.7,0.4s-0.8,0.6-1.1,1
		c-0.3,0.4-0.4,0.9-0.4,1.4v6.8H456.9z"/>
	<path d="M473.9,117.2c-1,0-1.8-0.2-2.6-0.7c-0.8-0.5-1.4-1.1-1.8-1.9c-0.4-0.8-0.7-1.8-0.7-2.8c0-1.1,0.2-2,0.7-2.8
		c0.4-0.8,1.1-1.5,1.8-1.9s1.6-0.7,2.6-0.7c1,0,1.8,0.2,2.6,0.7c0.8,0.5,1.4,1.1,1.8,2v-9.3h1.1v17.2h-1.1v-2.4
		c-0.4,0.8-1,1.5-1.8,2S474.8,117.2,473.9,117.2z M474.1,116.3c0.8,0,1.6-0.2,2.2-0.6c0.6-0.4,1.1-0.9,1.5-1.6s0.5-1.5,0.5-2.3
		c0-0.9-0.2-1.6-0.5-2.3c-0.4-0.7-0.9-1.2-1.5-1.6c-0.6-0.4-1.4-0.6-2.2-0.6c-0.8,0-1.5,0.2-2.2,0.6s-1.1,0.9-1.5,1.6
		c-0.4,0.7-0.5,1.5-0.5,2.3c0,0.9,0.2,1.6,0.5,2.3s0.9,1.2,1.5,1.6C472.5,116.1,473.3,116.3,474.1,116.3z"/>
	<path d="M489.3,119l-0.2-0.2c0.1-0.1,0.2-0.3,0.3-0.5c0.1-0.2,0.1-0.4,0.2-0.6c0-0.2,0.1-0.4,0.1-0.6c-0.2,0-0.3-0.1-0.5-0.2
		c-0.1-0.1-0.2-0.3-0.2-0.5c0-0.2,0.1-0.4,0.2-0.5c0.1-0.1,0.3-0.2,0.5-0.2c0.2,0,0.4,0.1,0.6,0.2c0.2,0.2,0.2,0.4,0.2,0.7
		c0,0.4-0.1,0.8-0.4,1.3C489.9,118.4,489.6,118.7,489.3,119z M491.4,119l-0.2-0.2c0.1-0.1,0.2-0.3,0.3-0.5c0.1-0.2,0.1-0.4,0.2-0.6
		c0.1-0.2,0.1-0.4,0.1-0.6c-0.2,0-0.3-0.1-0.5-0.2c-0.1-0.1-0.2-0.3-0.2-0.5c0-0.2,0.1-0.4,0.2-0.5c0.1-0.1,0.3-0.2,0.5-0.2
		c0.2,0,0.4,0.1,0.6,0.2c0.2,0.2,0.2,0.4,0.2,0.7c0,0.4-0.1,0.8-0.4,1.3S491.7,118.7,491.4,119z"/>
	<path d="M497.6,116.9v-16.5h4c1.1,0,2,0.2,2.8,0.6c0.8,0.4,1.4,0.9,1.8,1.6c0.4,0.7,0.6,1.5,0.6,2.4c0,0.9-0.2,1.7-0.6,2.4
		c-0.4,0.7-0.9,1.2-1.6,1.6c-0.7,0.4-1.5,0.6-2.5,0.7l5.5,7.2h-1.4l-5.4-7.1h-2.2v7.1H497.6z M498.7,108.8h2.7
		c0.9,0,1.6-0.2,2.3-0.5c0.6-0.3,1.1-0.8,1.5-1.3c0.4-0.6,0.5-1.2,0.5-2c0-1.1-0.4-2.1-1.1-2.7c-0.8-0.7-1.8-1-3.2-1h-2.7V108.8z"/>
	<path d="M515.1,117.2c-1.1,0-2-0.2-2.8-0.7c-0.8-0.5-1.5-1.1-2-1.9c-0.5-0.8-0.7-1.8-0.7-2.8c0-1.1,0.2-2,0.7-2.8
		c0.5-0.8,1.2-1.5,2-1.9c0.8-0.5,1.8-0.7,2.8-0.7c1.1,0,2,0.2,2.8,0.7c0.8,0.5,1.5,1.1,2,1.9c0.5,0.8,0.7,1.8,0.7,2.8
		c0,1.1-0.2,2-0.7,2.8c-0.5,0.8-1.2,1.5-2,1.9C517.1,117,516.1,117.2,515.1,117.2z M515.1,116.2c0.9,0,1.6-0.2,2.3-0.6
		c0.7-0.4,1.2-0.9,1.6-1.6s0.6-1.4,0.6-2.3c0-0.9-0.2-1.6-0.6-2.3c-0.4-0.7-0.9-1.2-1.6-1.6c-0.7-0.4-1.4-0.6-2.3-0.6
		c-0.9,0-1.6,0.2-2.3,0.6c-0.7,0.4-1.2,0.9-1.6,1.6c-0.4,0.7-0.6,1.4-0.6,2.3c0,0.9,0.2,1.6,0.6,2.3s0.9,1.2,1.6,1.6
		S514.2,116.2,515.1,116.2z"/>
	<path d="M529.1,117.2c-0.8,0-1.5-0.1-2.2-0.4s-1.3-0.6-1.8-1.1c-0.5-0.5-0.9-1.1-1.2-1.7c-0.3-0.7-0.4-1.4-0.4-2.2s0.1-1.5,0.4-2.2
		s0.7-1.2,1.2-1.7c0.5-0.5,1.1-0.9,1.8-1.1c0.7-0.3,1.4-0.4,2.2-0.4c0.7,0,1.3,0.1,1.9,0.3s1.1,0.5,1.6,0.9l-0.5,0.7
		c-0.8-0.6-1.8-1-2.9-1c-0.9,0-1.7,0.2-2.4,0.6c-0.7,0.4-1.2,0.9-1.6,1.6c-0.4,0.7-0.6,1.5-0.6,2.3c0,0.9,0.2,1.6,0.6,2.3
		c0.4,0.7,0.9,1.2,1.6,1.6s1.5,0.6,2.4,0.6c0.6,0,1.1-0.1,1.6-0.2c0.5-0.2,0.9-0.4,1.3-0.7l0.5,0.7c-0.5,0.4-1,0.6-1.6,0.8
		C530.5,117.1,529.8,117.2,529.1,117.2z"/>
	<path d="M536,116.9V99.7h1.1v11.3l4.2-4.3h1.4l-4.6,4.8l4.8,5.5h-1.4l-4.4-5.1v5.1H536z"/>
	<path d="M549.1,117.2c-0.8,0-1.6-0.2-2.2-0.7c-0.6-0.4-1.1-1.1-1.5-1.9l0.6-0.5c0.3,0.7,0.7,1.2,1.2,1.6c0.5,0.4,1.1,0.6,1.8,0.6
		c0.5,0,0.9-0.1,1.3-0.3c0.4-0.2,0.7-0.5,0.9-0.8c0.2-0.4,0.4-0.8,0.4-1.3c0-0.4-0.1-0.8-0.3-1s-0.5-0.5-0.9-0.6
		c-0.4-0.2-0.9-0.4-1.4-0.6c-0.4-0.2-0.9-0.4-1.3-0.6c-0.4-0.2-0.8-0.5-1-0.8c-0.3-0.3-0.4-0.8-0.4-1.3c0-0.5,0.1-0.9,0.4-1.3
		c0.3-0.4,0.6-0.7,1.1-0.9c0.5-0.2,1-0.3,1.6-0.3c0.6,0,1.1,0.1,1.6,0.4s0.9,0.7,1.3,1.1l-0.6,0.6c-0.5-0.9-1.3-1.3-2.3-1.3
		c-0.6,0-1.1,0.2-1.5,0.5s-0.6,0.8-0.6,1.3c0,0.4,0.1,0.7,0.3,0.9s0.5,0.4,0.9,0.6c0.4,0.2,0.8,0.3,1.2,0.5c0.6,0.2,1.2,0.5,1.6,0.7
		s0.8,0.5,1.1,0.9c0.2,0.3,0.4,0.8,0.4,1.4c0,0.7-0.2,1.2-0.5,1.7c-0.3,0.5-0.7,0.9-1.3,1.1C550.5,117.1,549.8,117.2,549.1,117.2z"
		/>
	<path d="M558.5,117.2c-0.7,0-1.3-0.2-1.6-0.7c-0.4-0.5-0.6-1.2-0.6-2v-7h-1v-0.8h1v-3.8h1.1v3.8h2.6v0.8h-2.6v6.9
		c0,0.6,0.1,1.1,0.3,1.4c0.2,0.3,0.6,0.5,1,0.5c0.4,0,0.8-0.1,1.1-0.3l0.3,0.9c-0.2,0.1-0.4,0.2-0.7,0.3S558.8,117.2,558.5,117.2z"
		/>
	<path d="M567.7,117.2c-1,0-1.8-0.2-2.6-0.7c-0.8-0.5-1.4-1.1-1.8-1.9c-0.5-0.8-0.7-1.8-0.7-2.8c0-1.1,0.2-2,0.7-2.8
		c0.4-0.8,1.1-1.5,1.8-1.9c0.8-0.5,1.6-0.7,2.6-0.7c1,0,1.9,0.2,2.6,0.7c0.8,0.5,1.4,1.1,1.8,2v-2.4h1.1v10.2h-1.1v-2.4
		c-0.4,0.8-1,1.5-1.8,2C569.6,117,568.7,117.2,567.7,117.2z M567.9,116.3c0.8,0,1.6-0.2,2.2-0.6s1.1-0.9,1.5-1.6s0.5-1.5,0.5-2.3
		c0-0.9-0.2-1.7-0.5-2.3c-0.4-0.7-0.9-1.2-1.5-1.6s-1.4-0.6-2.2-0.6c-0.8,0-1.6,0.2-2.2,0.6s-1.1,0.9-1.5,1.6
		c-0.4,0.7-0.5,1.5-0.5,2.3c0,0.9,0.2,1.6,0.5,2.3c0.4,0.7,0.9,1.2,1.5,1.6C566.4,116.1,567.1,116.3,567.9,116.3z"/>
	<path d="M577.7,116.9v-10.2h1.1v1.5c0.3-0.6,0.7-1.1,1.2-1.4c0.5-0.3,1.1-0.5,1.8-0.5c0.3,0,0.6,0,0.9,0.1s0.5,0.1,0.8,0.2
		l-0.4,0.9c-0.2-0.1-0.4-0.2-0.7-0.2c-0.2,0-0.5-0.1-0.7-0.1c-0.5,0-0.9,0.1-1.4,0.4s-0.8,0.6-1.1,1c-0.3,0.4-0.4,0.8-0.4,1.3v7
		H577.7z"/>
	<path d="M587.3,103.4c-0.2,0-0.4-0.1-0.6-0.2c-0.2-0.2-0.2-0.4-0.2-0.7c0-0.4,0.1-0.8,0.4-1.3c0.2-0.5,0.5-0.8,0.8-1.1l0.2,0.2
		c-0.1,0.1-0.2,0.3-0.3,0.4c-0.1,0.2-0.1,0.4-0.2,0.6c0,0.2-0.1,0.4-0.1,0.6c0.2,0,0.4,0.1,0.5,0.2c0.1,0.1,0.2,0.3,0.2,0.5
		c0,0.2-0.1,0.4-0.2,0.5S587.5,103.4,587.3,103.4z M589.4,103.4c-0.2,0-0.4-0.1-0.6-0.2c-0.2-0.2-0.2-0.4-0.2-0.7
		c0-0.4,0.1-0.8,0.4-1.3c0.2-0.5,0.5-0.8,0.8-1.1l0.2,0.2c-0.1,0.1-0.2,0.3-0.3,0.4c-0.1,0.2-0.1,0.4-0.2,0.6c0,0.2-0.1,0.4-0.1,0.6
		c0.2,0,0.4,0.1,0.5,0.2s0.2,0.3,0.2,0.5c0,0.2-0.1,0.4-0.2,0.5C589.8,103.3,589.6,103.4,589.4,103.4z"/>
	<path d="M596.3,117.2c-0.1,0-0.3,0-0.4-0.1c-0.1-0.1-0.2-0.2-0.3-0.3c-0.1-0.1-0.1-0.3-0.1-0.4c0-0.1,0-0.3,0.1-0.4
		c0.1-0.1,0.2-0.2,0.3-0.3c0.1-0.1,0.2-0.1,0.4-0.1c0.1,0,0.3,0,0.4,0.1c0.1,0.1,0.2,0.2,0.3,0.3c0.1,0.1,0.1,0.2,0.1,0.4
		c0,0.1,0,0.3-0.1,0.4c-0.1,0.1-0.2,0.2-0.3,0.3C596.6,117.2,596.5,117.2,596.3,117.2z"/>
	<path d="M370.6,140.9v-16.5h1.1v7.8h9.7v-7.8h1.1v16.5h-1.1v-7.8h-9.7v7.8H370.6z"/>
	<path d="M392.4,141.2c-1.1,0-2-0.2-2.8-0.7c-0.8-0.5-1.5-1.1-2-1.9c-0.5-0.8-0.7-1.8-0.7-2.8c0-1.1,0.2-2,0.7-2.8
		c0.5-0.8,1.2-1.5,2-1.9c0.8-0.5,1.8-0.7,2.8-0.7s2,0.2,2.8,0.7s1.5,1.1,2,1.9c0.5,0.8,0.7,1.8,0.7,2.8c0,1.1-0.2,2-0.7,2.8
		c-0.5,0.8-1.2,1.5-2,1.9S393.4,141.2,392.4,141.2z M392.4,140.2c0.9,0,1.6-0.2,2.3-0.6c0.7-0.4,1.2-0.9,1.6-1.6
		c0.4-0.7,0.6-1.4,0.6-2.3c0-0.9-0.2-1.6-0.6-2.3c-0.4-0.7-0.9-1.2-1.6-1.6c-0.7-0.4-1.4-0.6-2.3-0.6s-1.6,0.2-2.3,0.6
		c-0.7,0.4-1.2,0.9-1.6,1.6c-0.4,0.7-0.6,1.4-0.6,2.3c0,0.9,0.2,1.6,0.6,2.3c0.4,0.7,0.9,1.2,1.6,1.6S391.5,140.2,392.4,140.2z"/>
	<path d="M402.2,140.9v-9.4h-0.9v-0.8h0.9v-3.9c0-0.8,0.1-1.4,0.3-1.9c0.2-0.5,0.5-0.8,0.9-1.1c0.4-0.2,0.9-0.3,1.4-0.3
		c0.4,0,0.7,0,0.9,0.1s0.5,0.2,0.6,0.3l-0.4,0.8c-0.1-0.1-0.3-0.1-0.4-0.2c-0.2,0-0.4-0.1-0.6-0.1c-0.5,0-1,0.2-1.2,0.5
		c-0.3,0.4-0.4,0.9-0.4,1.8v4h3.4v-3.9c0-0.8,0.1-1.4,0.3-1.9c0.2-0.5,0.5-0.8,0.9-1.1c0.4-0.2,0.8-0.3,1.4-0.3
		c0.4,0,0.8,0.1,1.1,0.2c0.3,0.1,0.5,0.2,0.7,0.4l-0.4,0.8c-0.1-0.1-0.3-0.2-0.5-0.3c-0.2-0.1-0.4-0.1-0.7-0.1c-0.5,0-1,0.2-1.2,0.5
		c-0.3,0.4-0.4,0.9-0.4,1.8v4h2.7v0.8h-2.7v9.4h-1.1v-9.4h-3.4v9.4H402.2z"/>
	<path d="M419.3,141.2c-1.1,0-2-0.2-2.9-0.7s-1.5-1.1-2-1.9c-0.5-0.8-0.7-1.7-0.7-2.7c0-0.8,0.1-1.5,0.4-2.2
		c0.3-0.7,0.7-1.2,1.1-1.8c0.5-0.5,1.1-0.9,1.7-1.2c0.6-0.3,1.3-0.4,2.1-0.4c1,0,1.8,0.2,2.6,0.7c0.8,0.4,1.4,1.1,1.9,1.8
		c0.5,0.8,0.7,1.7,0.8,2.7c0,0.1,0,0.1,0,0.2c0,0,0,0.1,0,0.2h-9.6c0,0.9,0.2,1.6,0.6,2.3c0.4,0.7,0.9,1.2,1.6,1.6
		c0.7,0.4,1.5,0.6,2.3,0.6c0.8,0,1.6-0.2,2.3-0.5s1.2-0.9,1.6-1.5l0.8,0.4c-0.5,0.8-1.1,1.4-2,1.8
		C421.3,141,420.3,141.2,419.3,141.2z M414.9,135h8.5c-0.1-0.7-0.3-1.4-0.7-1.9c-0.4-0.6-0.9-1-1.5-1.3c-0.6-0.3-1.3-0.5-2-0.5
		c-0.7,0-1.4,0.2-2,0.5s-1.1,0.8-1.5,1.3C415.2,133.6,415,134.3,414.9,135z"/>
	<path d="M428,140.9v-10.2h1.1v1.5c0.3-0.5,0.7-0.9,1.3-1.3c0.6-0.3,1.3-0.5,2.2-0.5c0.8,0,1.5,0.2,2,0.5c0.6,0.3,1,0.8,1.3,1.4
		c0.3,0.6,0.5,1.4,0.5,2.3v6.4h-1.1v-6.2c0-1.1-0.3-2-0.8-2.6s-1.3-0.9-2.2-0.9c-0.7,0-1.2,0.1-1.7,0.4s-0.8,0.6-1.1,1
		c-0.3,0.4-0.4,0.9-0.4,1.4v6.8H428z"/>
	<path d="M442.8,141.2c-0.7,0-1.3-0.2-1.6-0.7c-0.4-0.5-0.6-1.2-0.6-2v-7h-1v-0.8h1v-3.8h1.1v3.8h2.6v0.8h-2.6v6.9
		c0,0.6,0.1,1.1,0.3,1.4c0.2,0.3,0.6,0.5,1,0.5c0.4,0,0.8-0.1,1.1-0.3l0.3,0.9c-0.2,0.1-0.4,0.2-0.7,0.3S443,141.2,442.8,141.2z"/>
	<path d="M447.6,140.9v-17.2h1.1v17.2H447.6z"/>
	<path d="M453.7,128.6c-0.1,0-0.3,0-0.4-0.1c-0.1-0.1-0.2-0.2-0.3-0.3c-0.1-0.1-0.1-0.2-0.1-0.4c0-0.1,0-0.3,0.1-0.4
		c0.1-0.1,0.2-0.2,0.3-0.3c0.1-0.1,0.2-0.1,0.4-0.1c0.1,0,0.3,0,0.4,0.1c0.1,0.1,0.2,0.2,0.3,0.3c0.1,0.1,0.1,0.2,0.1,0.4
		c0,0.1,0,0.3-0.1,0.4c-0.1,0.1-0.2,0.2-0.3,0.3C454,128.6,453.8,128.6,453.7,128.6z M453.2,140.9v-10.2h1.1v10.2H453.2z"/>
	<path d="M463.5,141.2c-0.8,0-1.5-0.1-2.2-0.4s-1.3-0.6-1.8-1.1c-0.5-0.5-0.9-1.1-1.2-1.7c-0.3-0.7-0.4-1.4-0.4-2.2s0.1-1.5,0.4-2.2
		s0.7-1.2,1.2-1.7c0.5-0.5,1.1-0.9,1.8-1.1c0.7-0.3,1.4-0.4,2.2-0.4c0.7,0,1.3,0.1,1.9,0.3s1.1,0.5,1.6,0.9l-0.5,0.7
		c-0.8-0.6-1.8-1-2.9-1c-0.9,0-1.7,0.2-2.4,0.6c-0.7,0.4-1.2,0.9-1.6,1.6c-0.4,0.7-0.6,1.5-0.6,2.3c0,0.9,0.2,1.6,0.6,2.3
		c0.4,0.7,0.9,1.2,1.6,1.6s1.5,0.6,2.4,0.6c0.6,0,1.1-0.1,1.6-0.2c0.5-0.2,0.9-0.4,1.3-0.7l0.5,0.7c-0.5,0.4-1,0.6-1.6,0.8
		C464.8,141.1,464.1,141.2,463.5,141.2z"/>
	<path d="M470.3,140.9v-17.2h1.1v8.4c0.3-0.5,0.7-0.9,1.3-1.3c0.6-0.3,1.3-0.5,2.2-0.5c0.8,0,1.5,0.2,2,0.5c0.6,0.3,1,0.8,1.3,1.4
		c0.3,0.6,0.5,1.4,0.5,2.3v6.4h-1.1v-6.2c0-1.1-0.3-2-0.8-2.6c-0.5-0.6-1.3-0.9-2.2-0.9c-0.7,0-1.2,0.1-1.7,0.4
		c-0.5,0.3-0.8,0.6-1.1,1.1c-0.3,0.4-0.4,0.9-0.4,1.4v6.8H470.3z"/>
	<path d="M488,140.9v-17.2h1.1v11.3l4.2-4.3h1.4l-4.6,4.8l4.8,5.5h-1.4l-4.4-5.1v5.1H488z"/>
	<path d="M498.5,140.9v-17.2h1.1v17.2H498.5z"/>
	<path d="M508.5,141.2c-1,0-1.8-0.2-2.6-0.7c-0.8-0.5-1.4-1.1-1.8-1.9c-0.5-0.8-0.7-1.8-0.7-2.8c0-1.1,0.2-2,0.7-2.8
		c0.4-0.8,1.1-1.5,1.8-1.9c0.8-0.5,1.6-0.7,2.6-0.7c1,0,1.9,0.2,2.6,0.7c0.8,0.5,1.4,1.1,1.8,2v-2.4h1.1v10.2h-1.1v-2.4
		c-0.4,0.8-1,1.5-1.8,2C510.3,141,509.4,141.2,508.5,141.2z M508.7,140.3c0.8,0,1.6-0.2,2.2-0.6s1.1-0.9,1.5-1.6s0.5-1.5,0.5-2.3
		c0-0.9-0.2-1.7-0.5-2.3c-0.4-0.7-0.9-1.2-1.5-1.6s-1.4-0.6-2.2-0.6c-0.8,0-1.6,0.2-2.2,0.6s-1.1,0.9-1.5,1.6
		c-0.4,0.7-0.5,1.5-0.5,2.3c0,0.9,0.2,1.6,0.5,2.3c0.4,0.7,0.9,1.2,1.5,1.6C507.1,140.1,507.9,140.3,508.7,140.3z"/>
	<path d="M518.4,146.1v-15.4h1.1v2.3c0.4-0.8,1-1.5,1.8-1.9s1.6-0.7,2.6-0.7c1,0,1.9,0.2,2.6,0.7c0.8,0.5,1.4,1.1,1.8,1.9
		c0.4,0.8,0.7,1.7,0.7,2.8c0,1-0.2,2-0.7,2.8c-0.4,0.8-1.1,1.5-1.8,1.9c-0.8,0.5-1.6,0.7-2.6,0.7c-0.9,0-1.8-0.2-2.6-0.7
		c-0.8-0.5-1.4-1.1-1.8-2v7.6H518.4z M523.7,140.3c0.8,0,1.5-0.2,2.2-0.6c0.6-0.4,1.1-0.9,1.5-1.6s0.5-1.5,0.5-2.3
		c0-0.9-0.2-1.6-0.5-2.3c-0.4-0.7-0.9-1.2-1.5-1.6s-1.4-0.6-2.2-0.6c-0.8,0-1.6,0.2-2.2,0.6c-0.6,0.4-1.1,0.9-1.5,1.6
		c-0.4,0.7-0.5,1.5-0.5,2.3c0,0.9,0.2,1.6,0.5,2.3s0.9,1.2,1.5,1.6S522.8,140.3,523.7,140.3z"/>
	<path d="M532.7,146.1v-15.4h1.1v2.3c0.4-0.8,1-1.5,1.8-1.9s1.6-0.7,2.6-0.7c1,0,1.9,0.2,2.6,0.7c0.8,0.5,1.4,1.1,1.8,1.9
		c0.4,0.8,0.7,1.7,0.7,2.8c0,1-0.2,2-0.7,2.8c-0.4,0.8-1.1,1.5-1.8,1.9c-0.8,0.5-1.6,0.7-2.6,0.7c-0.9,0-1.8-0.2-2.6-0.7
		c-0.8-0.5-1.4-1.1-1.8-2v7.6H532.7z M538,140.3c0.8,0,1.5-0.2,2.2-0.6c0.6-0.4,1.1-0.9,1.5-1.6s0.5-1.5,0.5-2.3
		c0-0.9-0.2-1.6-0.5-2.3c-0.4-0.7-0.9-1.2-1.5-1.6s-1.4-0.6-2.2-0.6c-0.8,0-1.6,0.2-2.2,0.6c-0.6,0.4-1.1,0.9-1.5,1.6
		c-0.4,0.7-0.5,1.5-0.5,2.3c0,0.9,0.2,1.6,0.5,2.3s0.9,1.2,1.5,1.6S537.2,140.3,538,140.3z"/>
	<path d="M549.3,141.2c-0.7,0-1.3-0.2-1.6-0.7c-0.4-0.5-0.6-1.2-0.6-2v-7h-1v-0.8h1v-3.8h1.1v3.8h2.6v0.8h-2.6v6.9
		c0,0.6,0.1,1.1,0.4,1.4c0.2,0.3,0.6,0.5,1,0.5c0.4,0,0.8-0.1,1.1-0.3l0.3,0.9c-0.2,0.1-0.4,0.2-0.7,0.3S549.5,141.2,549.3,141.2z"
		/>
	<path d="M564,141.2c-1.1,0-2-0.2-2.9-0.7c-0.8-0.5-1.5-1.1-2-1.9c-0.5-0.8-0.7-1.7-0.7-2.7c0-0.8,0.1-1.5,0.4-2.2
		c0.3-0.7,0.7-1.2,1.2-1.8s1.1-0.9,1.7-1.2c0.6-0.3,1.3-0.4,2.1-0.4c1,0,1.8,0.2,2.6,0.7s1.4,1.1,1.9,1.8c0.5,0.8,0.7,1.7,0.8,2.7
		c0,0.1,0,0.1,0,0.2c0,0,0,0.1,0,0.2h-9.6c0,0.9,0.2,1.6,0.6,2.3c0.4,0.7,0.9,1.2,1.6,1.6c0.7,0.4,1.5,0.6,2.3,0.6
		c0.8,0,1.6-0.2,2.3-0.5s1.2-0.9,1.6-1.5l0.8,0.4c-0.5,0.8-1.1,1.4-2,1.8C565.9,141,565,141.2,564,141.2z M559.5,135h8.5
		c-0.1-0.7-0.3-1.4-0.7-1.9c-0.4-0.6-0.9-1-1.5-1.3c-0.6-0.3-1.3-0.5-2-0.5c-0.7,0-1.4,0.2-2,0.5c-0.6,0.3-1.1,0.8-1.5,1.3
		C559.9,133.6,559.6,134.3,559.5,135z"/>
	<path d="M575.2,141.2c-0.8,0-1.6-0.2-2.2-0.7c-0.6-0.4-1.1-1.1-1.5-1.9l0.6-0.5c0.3,0.7,0.7,1.2,1.2,1.6c0.5,0.4,1.1,0.6,1.8,0.6
		c0.5,0,0.9-0.1,1.3-0.3c0.4-0.2,0.7-0.5,0.9-0.8c0.2-0.4,0.4-0.8,0.4-1.3c0-0.4-0.1-0.8-0.3-1s-0.5-0.5-0.9-0.6
		c-0.4-0.2-0.9-0.4-1.4-0.6c-0.4-0.2-0.9-0.4-1.3-0.6c-0.4-0.2-0.8-0.5-1-0.8c-0.3-0.3-0.4-0.8-0.4-1.3c0-0.5,0.1-0.9,0.4-1.3
		c0.3-0.4,0.6-0.7,1.1-0.9c0.5-0.2,1-0.3,1.6-0.3c0.6,0,1.1,0.1,1.6,0.4s0.9,0.7,1.3,1.1l-0.6,0.6c-0.5-0.9-1.3-1.3-2.3-1.3
		c-0.6,0-1.1,0.2-1.5,0.5s-0.6,0.8-0.6,1.3c0,0.4,0.1,0.7,0.3,0.9s0.5,0.4,0.9,0.6c0.4,0.2,0.8,0.3,1.2,0.5c0.6,0.2,1.2,0.5,1.6,0.7
		s0.8,0.5,1.1,0.9c0.2,0.3,0.4,0.8,0.4,1.4c0,0.7-0.2,1.2-0.5,1.7c-0.3,0.5-0.7,0.9-1.3,1.1C576.5,141.1,575.9,141.2,575.2,141.2z"
		/>
	<path d="M587.5,140.9v-17.2h1.1v8.4c0.3-0.5,0.7-0.9,1.3-1.3c0.6-0.3,1.3-0.5,2.2-0.5c0.8,0,1.5,0.2,2,0.5c0.6,0.3,1,0.8,1.3,1.4
		c0.3,0.6,0.5,1.4,0.5,2.3v6.4h-1.1v-6.2c0-1.1-0.3-2-0.8-2.6c-0.5-0.6-1.3-0.9-2.2-0.9c-0.7,0-1.2,0.1-1.7,0.4
		c-0.5,0.3-0.8,0.6-1.1,1.1c-0.3,0.4-0.4,0.9-0.4,1.4v6.8H587.5z"/>
	<path d="M600.6,128.6c-0.1,0-0.3,0-0.4-0.1c-0.1-0.1-0.2-0.2-0.3-0.3c-0.1-0.1-0.1-0.2-0.1-0.4c0-0.1,0-0.3,0.1-0.4
		c0.1-0.1,0.2-0.2,0.3-0.3c0.1-0.1,0.2-0.1,0.4-0.1c0.1,0,0.3,0,0.4,0.1c0.1,0.1,0.2,0.2,0.3,0.3c0.1,0.1,0.1,0.2,0.1,0.4
		c0,0.1,0,0.3-0.1,0.4c-0.1,0.1-0.2,0.2-0.3,0.3C600.9,128.6,600.7,128.6,600.6,128.6z M600.1,140.9v-10.2h1.1v10.2H600.1z"/>
	<path d="M610.4,141.2c-1.1,0-2-0.2-2.9-0.7c-0.8-0.5-1.5-1.1-2-1.9c-0.5-0.8-0.7-1.7-0.7-2.7c0-0.8,0.1-1.5,0.4-2.2
		c0.3-0.7,0.7-1.2,1.2-1.8s1.1-0.9,1.7-1.2c0.6-0.3,1.3-0.4,2.1-0.4c1,0,1.8,0.2,2.6,0.7s1.4,1.1,1.9,1.8c0.5,0.8,0.7,1.7,0.8,2.7
		c0,0.1,0,0.1,0,0.2c0,0,0,0.1,0,0.2h-9.6c0,0.9,0.2,1.6,0.6,2.3c0.4,0.7,0.9,1.2,1.6,1.6s1.5,0.6,2.3,0.6c0.8,0,1.6-0.2,2.3-0.5
		s1.2-0.9,1.6-1.5l0.8,0.4c-0.5,0.8-1.1,1.4-2,1.8C612.3,141,611.4,141.2,610.4,141.2z M606,135h8.5c-0.1-0.7-0.3-1.4-0.7-1.9
		c-0.4-0.6-0.9-1-1.5-1.3c-0.6-0.3-1.3-0.5-2-0.5c-0.7,0-1.4,0.2-2,0.5s-1.1,0.8-1.5,1.3C606.3,133.6,606,134.3,606,135z"/>
	<path d="M619,140.9v-10.2h1.1v1.5c0.3-0.6,0.7-1.1,1.2-1.4c0.5-0.3,1.1-0.5,1.8-0.5c0.3,0,0.6,0,0.9,0.1s0.5,0.1,0.8,0.2l-0.4,0.9
		c-0.2-0.1-0.4-0.2-0.7-0.2c-0.2,0-0.5-0.1-0.7-0.1c-0.5,0-0.9,0.1-1.4,0.4c-0.4,0.2-0.8,0.6-1.1,1c-0.3,0.4-0.4,0.8-0.4,1.3v7H619z
		"/>
	<path d="M628.1,141.2c-0.1,0-0.3,0-0.4-0.1c-0.1-0.1-0.2-0.2-0.3-0.3c-0.1-0.1-0.1-0.3-0.1-0.4c0-0.1,0-0.3,0.1-0.4
		c0.1-0.1,0.2-0.2,0.3-0.3c0.1-0.1,0.2-0.1,0.4-0.1c0.1,0,0.3,0,0.4,0.1c0.1,0.1,0.2,0.2,0.3,0.3c0.1,0.1,0.1,0.2,0.1,0.4
		c0,0.1,0,0.3-0.1,0.4c-0.1,0.1-0.2,0.2-0.3,0.3C628.4,141.2,628.3,141.2,628.1,141.2z"/>
</g>
</svg>
