<?xml version="1.0" encoding="utf-8"?>
<!-- Generator: Adobe Illustrator 26.0.1, SVG Export Plug-In . SVG Version: 6.00 Build 0)  -->
<svg version="1.1" id="Ebene_1" xmlns="http://www.w3.org/2000/svg" xmlns:xlink="http://www.w3.org/1999/xlink" x="0px" y="0px"
	 viewBox="0 0 1282 595.3" style="enable-background:new 0 0 1282 595.3;" xml:space="preserve">
<style type="text/css">
	.st0{opacity:0.9;fill:#FFE266;enable-background:new    ;}
	.st1{fill:none;}
	.st2{fill:#FFFFFF;}
	.st3{opacity:0.9;fill:#FFC866;enable-background:new    ;}
	.st4{fill:#1D1D1B;}
	.st5{fill:none;stroke:#1D1D1B;stroke-width:0.75;stroke-miterlimit:10;}
	.st6{fill:#D94436;}
	.st7{fill:#222951;}
	.st8{fill:#3159A4;}
	.st9{fill:#009CBF;}
</style>
<g>
	<path class="st0" d="M393.2,172.2c-10.6,9.2-23.4,16.3-37.2,22.4c-3.9,1.7-7.7,3.5-11.3,5.5c-1.3,0.7-2.3,2.5-2.2,3.6
		c0.2,1.8,2.6,2.1,4.8,2c9.6-0.2,18.5-2.5,27.5-4.7c19.1-4.6,37-11.4,53.9-19.6c6.1-3,11.5-3.6,18.6-2c23.3,5.2,47.2,7.5,71.4,7.1
		c45.8-0.8,87.1-11.7,122.8-34c14.6-9.1,27-19.9,32-34c8.5-24.4,2.2-46.3-21.8-64.5c-20.1-15.1-44.4-24.3-71.4-29.6
		c-25.7-5-51.9-5.4-78.2-4.6c-20.4,0.6-40.6,2.6-60.4,6.6c-32.4,6.6-60.5,18.8-83.1,38c-10.6,9-18.7,19.2-22.2,31.2
		c-4.3,14.6,0.6,27.9,11.3,40.2c10,11.5,24.1,19.1,39.7,25.4c3.8,1.6,7.6,3.1,12,4.8C397.3,168.3,395.4,170.4,393.2,172.2z"/>
	<path class="st1" d="M387.6,161.4c-15.6-6.3-29.7-14-39.7-25.4c-10.6-12.2-15.5-25.5-11.3-40.2c3.5-12,11.5-22.2,22.2-31.2
		c22.6-19.2,50.7-31.3,83.1-38c19.8-4.1,40-6,60.4-6.6c26.3-0.8,52.5-0.4,78.2,4.6c27,5.3,51.3,14.4,71.4,29.6
		c24.1,18.1,30.3,40.1,21.8,64.5c-4.9,14.1-17.4,24.9-32,34c-35.7,22.3-76.9,33.2-122.8,34c-24.2,0.4-48.1-1.9-71.4-7.1
		c-7.1-1.6-12.6-1-18.6,2c-16.9,8.2-34.7,15-53.9,19.6c-9,2.2-18,4.5-27.5,4.7c-2.1,0.1-4.5-0.2-4.8-2c-0.2-1.2,0.9-2.9,2.2-3.6
		c3.5-2,7.4-3.8,11.3-5.5c13.8-6.1,26.5-13.3,37.2-22.4c2.2-1.9,4.1-3.9,6.3-6C395.2,164.5,391.4,162.9,387.6,161.4z M390.4,191.8
		c12.4-4.5,24.7-9.4,36.6-14.8c6.9-3.1,13-3.9,20.9-2.1c26.1,5.9,52.8,8.3,80,6.9c44.3-2.3,83.7-14,116.6-37.3
		c11.4-8,20.9-17.5,24.2-29.3c5.8-20.2,1.6-38.9-17.3-54.7c-19.1-15.9-43.1-25.4-69.9-31c-20.3-4.3-41.2-5.4-62.2-5.3
		c-25.7,0-51.1,1.7-76,6.8c-31,6.3-57.9,17.9-79.7,36.2c-10.2,8.5-18,18.2-21.3,29.6c-4.1,14.1,1.1,26.6,11.8,38
		c7,7.6,16,13.5,26.4,18.1c7,3.1,14.1,6,21.2,8.9c4,1.6,5.2,3.3,2.7,6.2c-3.2,3.6-6.8,7.1-10.7,10.3c-9.8,8-21.3,14.2-33.5,19.7
		c-1.4,0.7-2.9,1.4-4.3,2C367.9,198.4,379.5,195.7,390.4,191.8z"/>
	<path class="st2" d="M363.7,67.2"/>
</g>
<g>
	<path d="M393.9,73.8c-1.1,0-2.2-0.2-3.2-0.7c-1-0.4-1.9-1.1-2.6-1.8c-0.7-0.8-1.3-1.7-1.7-2.7c-0.4-1-0.6-2.1-0.6-3.3
		c0-1.1,0.2-2.2,0.5-3.2s0.9-1.9,1.6-2.8c0.7-0.8,1.6-1.5,2.6-1.9s2.2-0.7,3.5-0.7c0.9,0,1.7,0.1,2.5,0.3s1.5,0.5,2.1,0.9
		s1.2,0.9,1.6,1.4l-0.6,0.8c-0.6-0.8-1.4-1.4-2.4-1.8c-1-0.5-2-0.7-3.2-0.7c-1.1,0-2.1,0.2-3,0.6s-1.6,1-2.2,1.7s-1.1,1.5-1.4,2.4
		s-0.5,1.8-0.5,2.8c0,1.1,0.2,2.1,0.5,3c0.4,0.9,0.8,1.7,1.5,2.4s1.4,1.2,2.2,1.6c0.8,0.4,1.8,0.6,2.7,0.6c0.8,0,1.6-0.1,2.3-0.4
		c0.8-0.3,1.5-0.7,2.1-1.2s1.1-1.1,1.5-1.8c0.4-0.7,0.5-1.5,0.5-2.4v-0.7h-6.5v-0.9h7.6v1.2c0,1.2-0.2,2.3-0.7,3.1
		c-0.4,0.9-1,1.6-1.8,2.2c-0.7,0.6-1.6,1-2.4,1.3C395.7,73.6,394.8,73.8,393.9,73.8z"/>
	<path d="M405.9,61.2c-0.1,0-0.3,0-0.4-0.1s-0.2-0.2-0.3-0.3c-0.1-0.1-0.1-0.2-0.1-0.4c0-0.1,0-0.3,0.1-0.4s0.2-0.2,0.3-0.3
		c0.1-0.1,0.2-0.1,0.4-0.1c0.1,0,0.3,0,0.4,0.1s0.2,0.2,0.3,0.3c0.1,0.1,0.1,0.2,0.1,0.4c0,0.1,0,0.3-0.1,0.4s-0.2,0.2-0.3,0.3
		S406,61.2,405.9,61.2z M405.4,73.5V63.2h1.1v10.2L405.4,73.5L405.4,73.5z"/>
	<path d="M416.4,73.8c-1,0-1.8-0.2-2.6-0.7c-0.8-0.5-1.4-1.1-1.8-2v2.4h-1.1V56.3h1.1v9.3c0.4-0.8,1-1.5,1.8-2s1.6-0.7,2.6-0.7
		s1.8,0.2,2.6,0.7s1.4,1.1,1.8,1.9s0.7,1.8,0.7,2.8s-0.2,2-0.7,2.8c-0.4,0.8-1.1,1.5-1.8,1.9C418.2,73.6,417.3,73.8,416.4,73.8z
		 M416.2,72.9c0.8,0,1.5-0.2,2.2-0.6c0.6-0.4,1.1-0.9,1.5-1.6s0.5-1.5,0.5-2.3c0-0.9-0.2-1.6-0.5-2.3c-0.4-0.7-0.9-1.2-1.5-1.6
		s-1.4-0.6-2.2-0.6c-0.8,0-1.6,0.2-2.2,0.6s-1.1,0.9-1.5,1.6s-0.5,1.5-0.5,2.3c0,0.9,0.2,1.6,0.5,2.3c0.4,0.7,0.9,1.2,1.5,1.6
		S415.3,72.9,416.2,72.9z"/>
	<path d="M427.4,73.8c-0.7,0-1.3-0.2-1.6-0.7c-0.4-0.5-0.6-1.2-0.6-2v-7h-1v-0.8h1v-3.8h1.1v3.8h2.6v0.8h-2.6V71
		c0,0.6,0.1,1.1,0.4,1.4c0.2,0.3,0.6,0.5,1,0.5s0.8-0.1,1.1-0.3l0.3,0.9c-0.2,0.1-0.4,0.2-0.7,0.3S427.7,73.8,427.4,73.8z"/>
	<path d="M442.1,73.8c-1.1,0-2-0.2-2.9-0.7c-0.8-0.5-1.5-1.1-2-1.9s-0.7-1.7-0.7-2.7c0-0.8,0.1-1.5,0.4-2.2s0.7-1.2,1.2-1.8
		s1.1-0.9,1.7-1.2s1.3-0.4,2.1-0.4c1,0,1.8,0.2,2.6,0.7s1.4,1.1,1.9,1.8c0.5,0.8,0.7,1.7,0.8,2.7c0,0.1,0,0.1,0,0.2c0,0,0,0.1,0,0.2
		h-9.6c0,0.9,0.2,1.6,0.6,2.3c0.4,0.7,0.9,1.2,1.6,1.6s1.5,0.6,2.3,0.6s1.6-0.2,2.3-0.5s1.2-0.9,1.6-1.5l0.8,0.4
		c-0.5,0.8-1.1,1.4-2,1.8C444.1,73.6,443.2,73.8,442.1,73.8z M437.7,67.6h8.5c-0.1-0.7-0.3-1.4-0.7-1.9c-0.4-0.6-0.9-1-1.5-1.3
		s-1.3-0.5-2-0.5s-1.4,0.2-2,0.5s-1.1,0.8-1.5,1.3C438,66.2,437.8,66.9,437.7,67.6z"/>
	<path d="M453.3,73.8c-0.8,0-1.6-0.2-2.2-0.7c-0.6-0.4-1.1-1.1-1.5-1.9l0.6-0.5c0.3,0.7,0.7,1.2,1.2,1.6s1.1,0.6,1.8,0.6
		c0.5,0,0.9-0.1,1.3-0.3c0.4-0.2,0.7-0.5,0.9-0.8c0.2-0.4,0.3-0.8,0.3-1.3c0-0.4-0.1-0.8-0.3-1c-0.2-0.2-0.5-0.5-0.9-0.6
		c-0.4-0.2-0.9-0.4-1.5-0.6c-0.4-0.2-0.9-0.4-1.3-0.6s-0.8-0.5-1-0.8c-0.3-0.3-0.4-0.8-0.4-1.3s0.1-0.9,0.4-1.3s0.6-0.7,1.1-0.9
		s1-0.3,1.6-0.3s1.1,0.1,1.6,0.4s0.9,0.7,1.3,1.1l-0.6,0.6c-0.5-0.9-1.3-1.3-2.3-1.3c-0.6,0-1.1,0.2-1.5,0.5s-0.6,0.8-0.6,1.3
		c0,0.4,0.1,0.7,0.3,0.9c0.2,0.2,0.5,0.4,0.9,0.6s0.8,0.3,1.2,0.5c0.6,0.2,1.2,0.5,1.6,0.7c0.5,0.2,0.8,0.5,1.1,0.9
		c0.2,0.3,0.4,0.8,0.4,1.4c0,0.7-0.2,1.2-0.5,1.7s-0.7,0.9-1.3,1.1C454.6,73.7,454,73.8,453.3,73.8z"/>
	<path d="M470,73.8c-1,0-1.8-0.2-2.6-0.7c-0.8-0.5-1.4-1.1-1.8-1.9c-0.5-0.8-0.7-1.8-0.7-2.8c0-1.1,0.2-2,0.7-2.8
		c0.4-0.8,1.1-1.5,1.8-1.9S469,63,470,63s1.8,0.2,2.6,0.7c0.8,0.5,1.4,1.1,1.8,2v-9.3h1.1v17.2h-1.1v-2.4c-0.4,0.8-1,1.5-1.8,2
		C471.9,73.6,471,73.8,470,73.8z M470.3,72.9c0.8,0,1.6-0.2,2.2-0.6s1.1-0.9,1.5-1.6s0.5-1.5,0.5-2.3c0-0.9-0.2-1.6-0.5-2.3
		c-0.4-0.7-0.9-1.2-1.5-1.6s-1.4-0.6-2.2-0.6c-0.8,0-1.5,0.2-2.2,0.6s-1.1,0.9-1.5,1.6s-0.5,1.5-0.5,2.3c0,0.9,0.2,1.6,0.5,2.3
		s0.9,1.2,1.5,1.6S469.4,72.9,470.3,72.9z"/>
	<path d="M484.8,73.8c-1.1,0-2-0.2-2.9-0.7c-0.8-0.5-1.5-1.1-2-1.9s-0.7-1.7-0.7-2.7c0-0.8,0.1-1.5,0.4-2.2s0.7-1.2,1.1-1.8
		c0.5-0.5,1.1-0.9,1.7-1.2s1.3-0.4,2.1-0.4c1,0,1.8,0.2,2.6,0.7c0.8,0.4,1.4,1.1,1.9,1.8c0.5,0.8,0.7,1.7,0.8,2.7c0,0.1,0,0.1,0,0.2
		c0,0,0,0.1,0,0.2h-9.6c0,0.9,0.2,1.6,0.6,2.3c0.4,0.7,0.9,1.2,1.6,1.6s1.5,0.6,2.3,0.6s1.6-0.2,2.3-0.5s1.2-0.9,1.6-1.5l0.8,0.4
		c-0.5,0.8-1.1,1.4-2,1.8C486.7,73.6,485.8,73.8,484.8,73.8z M480.3,67.6h8.5c-0.1-0.7-0.3-1.4-0.7-1.9c-0.4-0.6-0.9-1-1.5-1.3
		s-1.3-0.5-2-0.5s-1.4,0.2-2,0.5s-1.1,0.8-1.5,1.3C480.6,66.2,480.4,66.9,480.3,67.6z"/>
	<path d="M493.4,73.5V63.2h1.1v1.5c0.3-0.5,0.7-0.9,1.3-1.3c0.6-0.3,1.3-0.5,2.2-0.5c0.8,0,1.5,0.2,2,0.5c0.6,0.3,1,0.8,1.3,1.4
		s0.5,1.4,0.5,2.3v6.4h-1.2v-6.2c0-1.1-0.3-2-0.8-2.6s-1.3-0.9-2.2-0.9c-0.7,0-1.2,0.1-1.7,0.4s-0.8,0.6-1.1,1
		c-0.3,0.4-0.4,0.9-0.4,1.4v6.8L493.4,73.5L493.4,73.5z"/>
	<path d="M506,73.5V63.2h1.1v1.5c0.3-0.5,0.7-0.9,1.3-1.3c0.6-0.3,1.3-0.5,2.2-0.5c0.8,0,1.5,0.2,2,0.5c0.6,0.3,1,0.8,1.3,1.4
		s0.5,1.4,0.5,2.3v6.4h-1.1v-6.2c0-1.1-0.3-2-0.8-2.6s-1.3-0.9-2.2-0.9c-0.7,0-1.2,0.1-1.7,0.4s-0.8,0.6-1.1,1
		c-0.3,0.4-0.4,0.9-0.4,1.4v6.8L506,73.5L506,73.5z"/>
	<path d="M527.6,73.8c-1.5,0-2.5-0.3-3.2-1c-0.6-0.7-0.9-1.8-0.9-3.5v-6.1h1.1v5.9c0,1.3,0.2,2.3,0.7,2.9s1.2,0.9,2.3,0.9
		s1.9-0.3,2.3-0.9c0.5-0.6,0.7-1.5,0.7-2.9v-5.9h1.1v6.1c0,1.6-0.3,2.8-0.9,3.5C530.1,73.4,529.1,73.8,527.6,73.8z M525.2,60.2
		c-0.2,0-0.4-0.1-0.5-0.2c-0.1-0.1-0.2-0.3-0.2-0.5s0.1-0.4,0.2-0.5c0.1-0.1,0.3-0.2,0.5-0.2s0.4,0.1,0.5,0.2
		c0.1,0.1,0.2,0.3,0.2,0.5s-0.1,0.4-0.2,0.5C525.6,60.1,525.4,60.2,525.2,60.2z M530,60.2c-0.2,0-0.4-0.1-0.5-0.2
		c-0.1-0.1-0.2-0.3-0.2-0.5s0.1-0.4,0.2-0.5c0.1-0.1,0.3-0.2,0.5-0.2s0.4,0.1,0.5,0.2c0.1,0.1,0.2,0.3,0.2,0.5s-0.1,0.4-0.2,0.5
		C530.3,60.1,530.1,60.2,530,60.2z"/>
	<path d="M541.5,73.8c-1,0-1.8-0.2-2.6-0.7c-0.8-0.5-1.4-1.1-1.8-2v2.4H536V56.3h1.1v9.3c0.4-0.8,1-1.5,1.8-2s1.6-0.7,2.6-0.7
		s1.8,0.2,2.6,0.7c0.8,0.5,1.4,1.1,1.8,1.9c0.4,0.8,0.7,1.8,0.7,2.8s-0.2,2-0.7,2.8c-0.4,0.8-1.1,1.5-1.8,1.9
		C543.3,73.6,542.4,73.8,541.5,73.8z M541.2,72.9c0.8,0,1.5-0.2,2.2-0.6c0.6-0.4,1.1-0.9,1.5-1.6c0.4-0.7,0.5-1.5,0.5-2.3
		c0-0.9-0.2-1.6-0.5-2.3c-0.4-0.7-0.9-1.2-1.5-1.6c-0.6-0.4-1.4-0.6-2.2-0.6c-0.8,0-1.6,0.2-2.2,0.6c-0.6,0.4-1.1,0.9-1.5,1.6
		c-0.4,0.7-0.5,1.5-0.5,2.3c0,0.9,0.2,1.6,0.5,2.3s0.9,1.2,1.5,1.6C539.7,72.7,540.4,72.9,541.2,72.9z"/>
	<path d="M555.1,73.8c-1.1,0-2-0.2-2.9-0.7c-0.8-0.5-1.5-1.1-2-1.9s-0.7-1.7-0.7-2.7c0-0.8,0.1-1.5,0.4-2.2s0.7-1.2,1.1-1.8
		c0.5-0.5,1.1-0.9,1.7-1.2c0.6-0.3,1.3-0.4,2.1-0.4c1,0,1.8,0.2,2.6,0.7c0.8,0.4,1.4,1.1,1.9,1.8c0.5,0.8,0.7,1.7,0.8,2.7
		c0,0.1,0,0.1,0,0.2c0,0,0,0.1,0,0.2h-9.5c0,0.9,0.2,1.6,0.6,2.3c0.4,0.7,0.9,1.2,1.6,1.6s1.5,0.6,2.3,0.6s1.6-0.2,2.3-0.5
		c0.7-0.3,1.2-0.9,1.6-1.5l0.8,0.4c-0.5,0.8-1.1,1.4-2,1.8C557,73.6,556.1,73.8,555.1,73.8z M550.7,67.6h8.5
		c-0.1-0.7-0.3-1.4-0.7-1.9c-0.4-0.6-0.9-1-1.5-1.3c-0.6-0.3-1.3-0.5-2-0.5s-1.4,0.2-2,0.5c-0.6,0.3-1.1,0.8-1.5,1.3
		C551,66.2,550.7,66.9,550.7,67.6z"/>
	<path d="M563.7,73.5V63.2h1.1v1.5c0.3-0.6,0.7-1.1,1.2-1.4s1.1-0.5,1.8-0.5c0.3,0,0.6,0,0.9,0.1s0.5,0.1,0.8,0.2l-0.4,0.9
		c-0.2-0.1-0.4-0.2-0.7-0.2c-0.2,0-0.5-0.1-0.7-0.1c-0.5,0-0.9,0.1-1.4,0.4c-0.5,0.3-0.8,0.6-1.1,1c-0.3,0.4-0.4,0.8-0.4,1.3v7
		L563.7,73.5L563.7,73.5z"/>
	<path d="M572.4,73.5V56.3h1.1v8.4c0.3-0.5,0.7-0.9,1.3-1.3c0.6-0.3,1.3-0.5,2.2-0.5c0.8,0,1.5,0.2,2,0.5c0.6,0.3,1,0.8,1.3,1.4
		s0.5,1.4,0.5,2.3v6.4h-1.2v-6.2c0-1.1-0.3-2-0.8-2.6s-1.3-0.9-2.2-0.9c-0.7,0-1.2,0.1-1.7,0.4s-0.8,0.6-1.1,1.1
		c-0.3,0.4-0.4,0.9-0.4,1.4v6.8L572.4,73.5L572.4,73.5z"/>
	<path d="M589.4,73.8c-1,0-1.8-0.2-2.6-0.7c-0.8-0.5-1.4-1.1-1.8-1.9c-0.4-0.8-0.7-1.8-0.7-2.8c0-1.1,0.2-2,0.7-2.8
		c0.4-0.8,1.1-1.5,1.8-1.9c0.8-0.5,1.6-0.7,2.6-0.7s1.9,0.2,2.6,0.7c0.8,0.5,1.4,1.1,1.8,2v-2.4h1.1v10.2h-1.1v-2.4
		c-0.4,0.8-1,1.5-1.8,2C591.2,73.6,590.3,73.8,589.4,73.8z M589.6,72.9c0.8,0,1.6-0.2,2.2-0.6c0.6-0.4,1.1-0.9,1.5-1.6
		c0.4-0.7,0.5-1.5,0.5-2.3c0-0.9-0.2-1.7-0.5-2.3c-0.4-0.7-0.9-1.2-1.5-1.6c-0.6-0.4-1.4-0.6-2.2-0.6c-0.8,0-1.6,0.2-2.2,0.6
		c-0.6,0.4-1.1,0.9-1.5,1.6c-0.4,0.7-0.5,1.5-0.5,2.3c0,0.9,0.2,1.6,0.5,2.3c0.4,0.7,0.9,1.2,1.5,1.6
		C588,72.7,588.8,72.9,589.6,72.9z"/>
	<path d="M603.2,73.8c-1.5,0-2.5-0.3-3.2-1s-0.9-1.8-0.9-3.5v-6.1h1.1v5.9c0,1.3,0.2,2.3,0.7,2.9s1.2,0.9,2.3,0.9s1.9-0.3,2.3-0.9
		c0.5-0.6,0.7-1.5,0.7-2.9v-5.9h1.1v6.1c0,1.6-0.3,2.8-0.9,3.5C605.8,73.4,604.7,73.8,603.2,73.8z"/>
	<path d="M611.6,78.7V63.2h1.1v2.3c0.4-0.8,1-1.5,1.8-1.9s1.6-0.7,2.6-0.7s1.9,0.2,2.6,0.7c0.8,0.5,1.4,1.1,1.8,1.9
		c0.4,0.8,0.7,1.7,0.7,2.8c0,1-0.2,2-0.7,2.8c-0.4,0.8-1.1,1.5-1.8,1.9c-0.8,0.5-1.6,0.7-2.6,0.7c-0.9,0-1.8-0.2-2.6-0.7
		c-0.8-0.5-1.4-1.1-1.8-2v7.6L611.6,78.7L611.6,78.7z M616.9,72.9c0.8,0,1.5-0.2,2.2-0.6c0.6-0.4,1.1-0.9,1.5-1.6
		c0.4-0.7,0.5-1.5,0.5-2.3c0-0.9-0.2-1.6-0.5-2.3c-0.4-0.7-0.9-1.2-1.5-1.6c-0.6-0.4-1.4-0.6-2.2-0.6c-0.8,0-1.6,0.2-2.2,0.6
		c-0.6,0.4-1.1,0.9-1.5,1.6c-0.4,0.7-0.5,1.5-0.5,2.3c0,0.9,0.2,1.6,0.5,2.3s0.9,1.2,1.5,1.6C615.3,72.7,616.1,72.9,616.9,72.9z"/>
	<path d="M628.2,73.8c-0.7,0-1.3-0.2-1.6-0.7c-0.4-0.5-0.6-1.2-0.6-2v-7h-1v-0.8h1v-3.8h1.1v3.8h2.6v0.8h-2.6V71
		c0,0.6,0.1,1.1,0.4,1.4c0.2,0.3,0.6,0.5,1,0.5c0.4,0,0.8-0.1,1.1-0.3l0.3,0.9c-0.2,0.1-0.4,0.2-0.7,0.3
		C628.9,73.9,628.4,73.8,628.2,73.8z"/>
	<path d="M370.5,97.8c-1.1,0-2-0.2-2.9-0.7s-1.5-1.1-2-1.9s-0.7-1.7-0.7-2.7c0-0.8,0.1-1.5,0.4-2.2s0.7-1.2,1.1-1.8
		c0.5-0.5,1.1-0.9,1.7-1.2c0.6-0.3,1.3-0.4,2.1-0.4c1,0,1.8,0.2,2.6,0.7c0.8,0.4,1.4,1.1,1.9,1.8c0.5,0.8,0.7,1.7,0.8,2.7
		c0,0.1,0,0.1,0,0.2c0,0,0,0.1,0,0.2h-9.6c0,0.9,0.2,1.6,0.6,2.3c0.4,0.7,0.9,1.2,1.6,1.6s1.5,0.6,2.3,0.6c0.8,0,1.6-0.2,2.3-0.5
		c0.7-0.3,1.2-0.9,1.6-1.5l0.8,0.4c-0.5,0.8-1.1,1.4-2,1.8C372.4,97.6,371.5,97.8,370.5,97.8z M366,91.6h8.5
		c-0.1-0.7-0.3-1.4-0.7-1.9c-0.4-0.6-0.9-1-1.5-1.3s-1.3-0.5-2-0.5c-0.7,0-1.4,0.2-2,0.5s-1.1,0.8-1.5,1.3
		C366.3,90.2,366.1,90.9,366,91.6z"/>
	<path d="M379.6,85.2c-0.1,0-0.3,0-0.4-0.1s-0.2-0.2-0.3-0.3c-0.1-0.1-0.1-0.2-0.1-0.4c0-0.1,0-0.3,0.1-0.4s0.2-0.2,0.3-0.3
		c0.1-0.1,0.2-0.1,0.4-0.1c0.1,0,0.3,0,0.4,0.1s0.2,0.2,0.3,0.3c0.1,0.1,0.1,0.2,0.1,0.4c0,0.1,0,0.3-0.1,0.4s-0.2,0.2-0.3,0.3
		C379.9,85.2,379.8,85.2,379.6,85.2z M379.1,97.5V87.2h1.1v10.2L379.1,97.5L379.1,97.5z"/>
	<path d="M384.6,97.5V87.2h1.1v1.5c0.3-0.5,0.7-0.9,1.3-1.3c0.6-0.3,1.3-0.5,2.2-0.5c0.8,0,1.5,0.2,2,0.5c0.6,0.3,1,0.8,1.3,1.4
		s0.5,1.4,0.5,2.3v6.4h-1.1v-6.2c0-1.1-0.3-2-0.8-2.6s-1.3-0.9-2.2-0.9c-0.7,0-1.2,0.1-1.7,0.4s-0.8,0.6-1.1,1
		c-0.3,0.4-0.4,0.9-0.4,1.4v6.8L384.6,97.5L384.6,97.5z"/>
	<path d="M402,97.8c-1.1,0-2-0.2-2.9-0.7s-1.5-1.1-2-1.9s-0.7-1.7-0.7-2.7c0-0.8,0.1-1.5,0.4-2.2s0.7-1.2,1.1-1.8
		c0.5-0.5,1.1-0.9,1.7-1.2c0.6-0.3,1.3-0.4,2.1-0.4c1,0,1.8,0.2,2.6,0.7c0.8,0.4,1.4,1.1,1.9,1.8c0.5,0.8,0.7,1.7,0.8,2.7
		c0,0.1,0,0.1,0,0.2c0,0,0,0.1,0,0.2h-9.6c0,0.9,0.2,1.6,0.6,2.3c0.4,0.7,0.9,1.2,1.6,1.6s1.5,0.6,2.3,0.6s1.6-0.2,2.3-0.5
		s1.2-0.9,1.6-1.5l0.8,0.4c-0.5,0.8-1.1,1.4-2,1.8C403.9,97.6,403,97.8,402,97.8z M397.6,91.6h8.5c-0.1-0.7-0.3-1.4-0.7-1.9
		c-0.4-0.6-0.9-1-1.5-1.3s-1.3-0.5-2-0.5s-1.4,0.2-2,0.5s-1.1,0.8-1.5,1.3C397.9,90.2,397.7,90.9,397.6,91.6z"/>
	<path d="M410.7,97.5V87.2h1.1v1.5c0.3-0.5,0.7-0.9,1.3-1.3c0.6-0.3,1.3-0.5,2.2-0.5c0.8,0,1.5,0.2,2,0.5c0.6,0.3,1,0.8,1.3,1.4
		s0.5,1.4,0.5,2.3v6.4H418v-6.2c0-1.1-0.3-2-0.8-2.6s-1.3-0.9-2.2-0.9c-0.7,0-1.2,0.1-1.7,0.4s-0.8,0.6-1.1,1
		c-0.3,0.4-0.4,0.9-0.4,1.4v6.8L410.7,97.5L410.7,97.5z"/>
	<path d="M432.6,97.8c-0.9,0-1.6-0.1-2.3-0.4c-0.6-0.3-1.2-0.6-1.6-1s-0.8-0.8-1-1.1c-0.2-0.4-0.4-0.6-0.5-0.8l0.7-0.7
		c0.1,0.2,0.3,0.4,0.5,0.8c0.2,0.3,0.5,0.7,0.9,1c0.4,0.4,0.8,0.6,1.4,0.9c0.6,0.2,1.2,0.4,2,0.4c0.7,0,1.4-0.1,2-0.4
		s1.1-0.7,1.5-1.2s0.5-1.2,0.5-1.9c0-0.6-0.1-1.2-0.4-1.6s-0.6-0.8-1-1.1c-0.4-0.3-0.9-0.6-1.4-0.8c-0.5-0.2-1.1-0.4-1.7-0.6
		c-0.4-0.1-0.8-0.3-1.2-0.5c-0.4-0.2-0.9-0.5-1.3-0.8s-0.7-0.7-1-1.2s-0.4-1-0.4-1.7c0-0.6,0.1-1.2,0.3-1.7c0.2-0.5,0.5-1,0.9-1.4
		s0.9-0.7,1.4-0.9s1.1-0.3,1.8-0.3c0.7,0,1.3,0.1,1.8,0.3s1,0.5,1.4,0.9s0.7,0.7,0.9,1.1l-0.6,0.7c-0.2-0.3-0.4-0.6-0.7-0.9
		c-0.3-0.3-0.7-0.5-1.2-0.7s-1-0.3-1.6-0.3c-0.7,0-1.4,0.2-1.9,0.5s-0.9,0.7-1.2,1.3c-0.3,0.5-0.4,1-0.4,1.6c0,0.5,0.1,1,0.3,1.3
		c0.2,0.4,0.5,0.7,0.8,0.9c0.3,0.2,0.7,0.4,1.1,0.6s0.8,0.3,1.2,0.4c0.6,0.2,1.2,0.5,1.8,0.7c0.6,0.3,1.1,0.6,1.6,0.9
		s0.9,0.8,1.1,1.3c0.3,0.5,0.4,1.2,0.4,2c0,1-0.2,1.8-0.7,2.5s-1.1,1.2-1.8,1.5C434.4,97.6,433.5,97.8,432.6,97.8z"/>
	<path d="M443.9,97.8c-0.7,0-1.3-0.2-1.6-0.7c-0.4-0.5-0.6-1.2-0.6-2v-7h-1v-0.8h1v-3.8h1.1v3.8h2.6v0.8h-2.6V95
		c0,0.6,0.1,1.1,0.4,1.4c0.2,0.3,0.6,0.5,1,0.5s0.8-0.1,1.1-0.3l0.3,0.9c-0.2,0.1-0.4,0.2-0.7,0.3S444.2,97.8,443.9,97.8z"/>
	<path d="M452.7,97.8c-1.5,0-2.5-0.3-3.2-1c-0.6-0.7-0.9-1.8-0.9-3.5v-6.1h1.1v5.9c0,1.3,0.2,2.3,0.7,2.9s1.2,0.9,2.3,0.9
		c1.1,0,1.9-0.3,2.3-0.9c0.5-0.6,0.7-1.5,0.7-2.9v-5.9h1.1v6.1c0,1.6-0.3,2.8-0.9,3.5C455.2,97.4,454.2,97.8,452.7,97.8z"/>
	<path d="M465.5,97.8c-1,0-1.8-0.2-2.6-0.7c-0.8-0.5-1.4-1.1-1.8-1.9s-0.7-1.8-0.7-2.8c0-1.1,0.2-2,0.7-2.8c0.4-0.8,1.1-1.5,1.8-1.9
		s1.6-0.7,2.6-0.7s1.8,0.2,2.6,0.7c0.8,0.5,1.4,1.1,1.8,2v-9.3h1.1v17.2h-1.1v-2.4c-0.4,0.8-1,1.5-1.8,2S466.4,97.8,465.5,97.8z
		 M465.7,96.9c0.8,0,1.6-0.2,2.2-0.6s1.1-0.9,1.5-1.6s0.5-1.5,0.5-2.3c0-0.9-0.2-1.6-0.5-2.3c-0.4-0.7-0.9-1.2-1.5-1.6
		s-1.4-0.6-2.2-0.6c-0.8,0-1.5,0.2-2.2,0.6s-1.1,0.9-1.5,1.6s-0.5,1.5-0.5,2.3c0,0.9,0.2,1.6,0.5,2.3s0.9,1.2,1.5,1.6
		C464.2,96.7,464.9,96.9,465.7,96.9z"/>
	<path d="M476,85.2c-0.1,0-0.3,0-0.4-0.1s-0.2-0.2-0.3-0.3c-0.1-0.1-0.1-0.2-0.1-0.4c0-0.1,0-0.3,0.1-0.4s0.2-0.2,0.3-0.3
		c0.1-0.1,0.2-0.1,0.4-0.1c0.1,0,0.3,0,0.4,0.1s0.2,0.2,0.3,0.3c0.1,0.1,0.1,0.2,0.1,0.4c0,0.1,0,0.3-0.1,0.4s-0.2,0.2-0.3,0.3
		C476.2,85.2,476.1,85.2,476,85.2z M475.4,97.5V87.2h1.1v10.2L475.4,97.5L475.4,97.5z"/>
	<path d="M485.7,97.8c-1.1,0-2-0.2-2.9-0.7c-0.8-0.5-1.5-1.1-2-1.9s-0.7-1.7-0.7-2.7c0-0.8,0.1-1.5,0.4-2.2s0.7-1.2,1.2-1.8
		s1.1-0.9,1.7-1.2c0.6-0.3,1.3-0.4,2.1-0.4c1,0,1.8,0.2,2.6,0.7s1.4,1.1,1.9,1.8c0.5,0.8,0.7,1.7,0.8,2.7c0,0.1,0,0.1,0,0.2
		c0,0,0,0.1,0,0.2h-9.6c0,0.9,0.2,1.6,0.6,2.3c0.4,0.7,0.9,1.2,1.6,1.6s1.5,0.6,2.3,0.6s1.6-0.2,2.3-0.5s1.2-0.9,1.6-1.5l0.8,0.4
		c-0.5,0.8-1.1,1.4-2,1.8C487.7,97.6,486.7,97.8,485.7,97.8z M481.3,91.6h8.5c-0.1-0.7-0.3-1.4-0.7-1.9c-0.4-0.6-0.9-1-1.5-1.3
		s-1.3-0.5-2-0.5s-1.4,0.2-2,0.5s-1.1,0.8-1.5,1.3C481.6,90.2,481.4,90.9,481.3,91.6z"/>
	<path d="M494.4,97.5V87.2h1.1v1.5c0.3-0.5,0.7-0.9,1.3-1.3c0.6-0.3,1.3-0.5,2.2-0.5c0.8,0,1.5,0.2,2,0.5c0.6,0.3,1,0.8,1.3,1.4
		s0.5,1.4,0.5,2.3v6.4h-1.2v-6.2c0-1.1-0.3-2-0.8-2.6s-1.3-0.9-2.2-0.9c-0.7,0-1.2,0.1-1.7,0.4s-0.8,0.6-1.1,1
		c-0.3,0.4-0.4,0.9-0.4,1.4v6.8L494.4,97.5L494.4,97.5z"/>
	<path d="M511.4,103c-1.3,0-2.4-0.3-3.2-0.8c-0.9-0.5-1.5-1.2-2-2.2l0.9-0.4c0.3,0.8,0.9,1.4,1.6,1.8c0.8,0.5,1.7,0.7,2.7,0.7
		c0.8,0,1.6-0.2,2.2-0.5c0.7-0.3,1.2-0.8,1.6-1.4c0.4-0.6,0.6-1.4,0.6-2.3v-2.8c-0.4,0.8-1,1.5-1.8,2s-1.6,0.7-2.6,0.7
		s-1.8-0.2-2.6-0.7c-0.8-0.5-1.4-1.1-1.8-1.9c-0.5-0.8-0.7-1.8-0.7-2.8c0-1.1,0.2-2,0.7-2.8c0.4-0.8,1.1-1.5,1.8-1.9
		s1.6-0.7,2.6-0.7s1.8,0.2,2.6,0.7c0.8,0.5,1.4,1.1,1.8,2v-2.4h1.1v10.5c0,1.2-0.2,2.1-0.7,2.9s-1.1,1.4-1.9,1.7
		C513.4,102.8,512.5,103,511.4,103z M511.6,96.9c0.8,0,1.6-0.2,2.2-0.6c0.6-0.4,1.1-0.9,1.5-1.6c0.4-0.7,0.5-1.5,0.5-2.3
		c0-0.9-0.2-1.6-0.5-2.3c-0.4-0.7-0.9-1.2-1.5-1.6c-0.6-0.4-1.4-0.6-2.2-0.6c-0.8,0-1.6,0.2-2.2,0.6s-1.1,0.9-1.5,1.6
		s-0.5,1.5-0.5,2.3c0,0.9,0.2,1.6,0.5,2.3s0.9,1.2,1.5,1.6S510.8,96.9,511.6,96.9z"/>
	<path d="M525.7,97.8c-1,0-1.8-0.2-2.6-0.7c-0.8-0.5-1.4-1.1-1.8-1.9c-0.5-0.8-0.7-1.8-0.7-2.8c0-1.1,0.2-2,0.7-2.8
		c0.4-0.8,1.1-1.5,1.8-1.9c0.8-0.5,1.6-0.7,2.6-0.7s1.9,0.2,2.6,0.7c0.8,0.5,1.4,1.1,1.8,2v-2.4h1.1v10.2h-1.1v-2.4
		c-0.4,0.8-1,1.5-1.8,2C527.5,97.6,526.7,97.8,525.7,97.8z M525.9,96.9c0.8,0,1.6-0.2,2.2-0.6c0.6-0.4,1.1-0.9,1.5-1.6
		c0.4-0.7,0.5-1.5,0.5-2.3c0-0.9-0.2-1.7-0.5-2.3c-0.4-0.7-0.9-1.2-1.5-1.6c-0.6-0.4-1.4-0.6-2.2-0.6c-0.8,0-1.6,0.2-2.2,0.6
		c-0.6,0.4-1.1,0.9-1.5,1.6c-0.4,0.7-0.5,1.5-0.5,2.3c0,0.9,0.2,1.6,0.5,2.3c0.4,0.7,0.9,1.2,1.5,1.6
		C524.4,96.7,525.1,96.9,525.9,96.9z"/>
	<path d="M535.6,97.5V87.2h1.1v1.5c0.3-0.5,0.7-0.9,1.3-1.3c0.6-0.3,1.3-0.5,2.2-0.5c0.8,0,1.5,0.2,2,0.5c0.6,0.3,1,0.8,1.3,1.4
		s0.5,1.4,0.5,2.3v6.4h-1.1v-6.2c0-1.1-0.3-2-0.8-2.6s-1.3-0.9-2.2-0.9c-0.7,0-1.2,0.1-1.7,0.4s-0.8,0.6-1.1,1
		c-0.3,0.4-0.4,0.9-0.4,1.4v6.8L535.6,97.5L535.6,97.5z"/>
	<path d="M552.7,103c-1.3,0-2.3-0.3-3.2-0.8s-1.5-1.2-2-2.2l0.9-0.4c0.3,0.8,0.9,1.4,1.6,1.8c0.8,0.5,1.7,0.7,2.7,0.7
		c0.8,0,1.6-0.2,2.2-0.5c0.7-0.3,1.2-0.8,1.6-1.4c0.4-0.6,0.6-1.4,0.6-2.3v-2.8c-0.4,0.8-1,1.5-1.8,2s-1.6,0.7-2.6,0.7
		s-1.8-0.2-2.6-0.7c-0.8-0.5-1.4-1.1-1.8-1.9c-0.5-0.8-0.7-1.8-0.7-2.8c0-1.1,0.2-2,0.7-2.8c0.4-0.8,1.1-1.5,1.8-1.9
		c0.7-0.4,1.6-0.7,2.6-0.7s1.8,0.2,2.6,0.7c0.8,0.5,1.4,1.1,1.8,2v-2.4h1.1v10.5c0,1.2-0.2,2.1-0.7,2.9s-1.1,1.4-1.9,1.7
		S553.8,103,552.7,103z M552.9,96.9c0.8,0,1.6-0.2,2.2-0.6c0.6-0.4,1.1-0.9,1.5-1.6c0.4-0.7,0.5-1.5,0.5-2.3c0-0.9-0.2-1.6-0.5-2.3
		c-0.4-0.7-0.9-1.2-1.5-1.6c-0.6-0.4-1.4-0.6-2.2-0.6c-0.8,0-1.5,0.2-2.2,0.6c-0.6,0.4-1.1,0.9-1.5,1.6c-0.4,0.7-0.5,1.5-0.5,2.3
		c0,0.9,0.2,1.6,0.5,2.3s0.9,1.2,1.5,1.6C551.3,96.7,552,96.9,552.9,96.9z"/>
	<path d="M573.1,97.8c-1,0-1.8-0.2-2.6-0.7c-0.8-0.5-1.4-1.1-1.8-2v2.4h-1.1V80.3h1.1v9.3c0.4-0.8,1-1.5,1.8-2s1.6-0.7,2.6-0.7
		s1.8,0.2,2.6,0.7c0.8,0.5,1.4,1.1,1.8,1.9c0.4,0.8,0.7,1.8,0.7,2.8s-0.2,2-0.7,2.8s-1.1,1.5-1.8,1.9
		C575,97.6,574.1,97.8,573.1,97.8z M572.9,96.9c0.8,0,1.5-0.2,2.2-0.6c0.6-0.4,1.1-0.9,1.5-1.6c0.4-0.7,0.5-1.5,0.5-2.3
		c0-0.9-0.2-1.6-0.5-2.3c-0.4-0.7-0.9-1.2-1.5-1.6c-0.6-0.4-1.4-0.6-2.2-0.6c-0.8,0-1.6,0.2-2.2,0.6c-0.6,0.4-1.1,0.9-1.5,1.6
		c-0.4,0.7-0.5,1.5-0.5,2.3c0,0.9,0.2,1.6,0.5,2.3c0.4,0.7,0.9,1.2,1.5,1.6C571.4,96.7,572.1,96.9,572.9,96.9z"/>
	<path d="M586.8,97.8c-1.1,0-2-0.2-2.9-0.7c-0.8-0.5-1.5-1.1-2-1.9s-0.7-1.7-0.7-2.7c0-0.8,0.1-1.5,0.4-2.2s0.7-1.2,1.2-1.8
		s1.1-0.9,1.7-1.2c0.6-0.3,1.3-0.4,2.1-0.4c1,0,1.8,0.2,2.6,0.7c0.8,0.5,1.4,1.1,1.9,1.8c0.5,0.8,0.7,1.7,0.8,2.7c0,0.1,0,0.1,0,0.2
		c0,0,0,0.1,0,0.2h-9.6c0,0.9,0.2,1.6,0.6,2.3c0.4,0.7,0.9,1.2,1.6,1.6s1.5,0.6,2.3,0.6s1.6-0.2,2.3-0.5c0.7-0.3,1.2-0.9,1.6-1.5
		l0.8,0.4c-0.5,0.8-1.1,1.4-2,1.8C588.7,97.6,587.8,97.8,586.8,97.8z M582.3,91.6h8.5c-0.1-0.7-0.3-1.4-0.7-1.9
		c-0.4-0.6-0.9-1-1.5-1.3c-0.6-0.3-1.3-0.5-2-0.5s-1.4,0.2-2,0.5c-0.6,0.3-1.1,0.8-1.5,1.3C582.7,90.2,582.4,90.9,582.3,91.6z"/>
	<path d="M595.9,85.2c-0.1,0-0.3,0-0.4-0.1c-0.1-0.1-0.2-0.2-0.3-0.3c-0.1-0.1-0.1-0.2-0.1-0.4c0-0.1,0-0.3,0.1-0.4
		c0.1-0.1,0.2-0.2,0.3-0.3c0.1-0.1,0.2-0.1,0.4-0.1c0.1,0,0.3,0,0.4,0.1c0.1,0.1,0.2,0.2,0.3,0.3c0.1,0.1,0.1,0.2,0.1,0.4
		c0,0.1,0,0.3-0.1,0.4c-0.1,0.1-0.2,0.2-0.3,0.3C596.2,85.2,596.1,85.2,595.9,85.2z M595.4,97.5V87.2h1.1v10.2L595.4,97.5
		L595.4,97.5z"/>
	<path d="M610.4,97.8c-1,0-1.8-0.2-2.6-0.7c-0.8-0.5-1.4-1.1-1.8-1.9c-0.5-0.8-0.7-1.8-0.7-2.8c0-1.1,0.2-2,0.7-2.8
		c0.4-0.8,1.1-1.5,1.8-1.9c0.7-0.4,1.6-0.7,2.6-0.7s1.8,0.2,2.6,0.7c0.8,0.5,1.4,1.1,1.8,2v-9.3h1.1v17.2h-1.1v-2.4
		c-0.4,0.8-1,1.5-1.8,2C612.2,97.6,611.4,97.8,610.4,97.8z M610.6,96.9c0.8,0,1.6-0.2,2.2-0.6c0.6-0.4,1.1-0.9,1.5-1.6
		c0.4-0.7,0.5-1.5,0.5-2.3c0-0.9-0.2-1.6-0.5-2.3c-0.4-0.7-0.9-1.2-1.5-1.6c-0.6-0.4-1.3-0.6-2.2-0.6c-0.8,0-1.5,0.2-2.2,0.6
		s-1.1,0.9-1.5,1.6c-0.4,0.7-0.6,1.5-0.6,2.3c0,0.9,0.2,1.6,0.5,2.3s0.9,1.2,1.5,1.6C609.1,96.7,609.8,96.9,610.6,96.9z"/>
	<path d="M625.1,97.8c-1.1,0-2-0.2-2.9-0.7c-0.8-0.5-1.5-1.1-2-1.9s-0.7-1.7-0.7-2.7c0-0.8,0.1-1.5,0.4-2.2s0.7-1.2,1.2-1.8
		s1.1-0.9,1.7-1.2c0.6-0.3,1.3-0.4,2.1-0.4c1,0,1.8,0.2,2.6,0.7c0.8,0.5,1.4,1.1,1.9,1.8c0.5,0.8,0.7,1.7,0.8,2.7c0,0.1,0,0.1,0,0.2
		c0,0,0,0.1,0,0.2h-9.6c0,0.9,0.2,1.6,0.6,2.3c0.4,0.7,0.9,1.2,1.6,1.6s1.5,0.6,2.3,0.6s1.6-0.2,2.3-0.5c0.7-0.3,1.2-0.9,1.6-1.5
		l0.8,0.4c-0.5,0.8-1.1,1.4-2,1.8C627.1,97.6,626.1,97.8,625.1,97.8z M620.7,91.6h8.5c-0.1-0.7-0.3-1.4-0.7-1.9
		c-0.4-0.6-0.9-1-1.5-1.3c-0.6-0.3-1.3-0.5-2-0.5s-1.4,0.2-2,0.5c-0.6,0.3-1.1,0.8-1.5,1.3C621,90.2,620.8,90.9,620.7,91.6z"/>
	<path d="M633.8,97.5V87.2h1.1v1.5c0.4-0.6,0.9-1,1.4-1.3c0.6-0.3,1.2-0.5,2-0.5c0.9,0,1.6,0.2,2.2,0.6c0.6,0.4,1,0.9,1.3,1.6
		c0.4-0.7,0.9-1.2,1.5-1.6s1.4-0.6,2.2-0.6c0.7,0,1.4,0.1,1.9,0.4c0.6,0.3,1,0.7,1.3,1.3c0.3,0.6,0.5,1.3,0.5,2.1v6.7h-1.1V91
		c0-1-0.3-1.8-0.8-2.4s-1.2-0.9-2.1-0.9c-0.6,0-1.2,0.1-1.7,0.4s-0.9,0.6-1.2,1s-0.4,0.8-0.4,1.3v7h-1.1v-6.5c0-0.9-0.3-1.7-0.8-2.3
		s-1.2-0.8-2.1-0.8c-0.6,0-1.1,0.1-1.6,0.4s-0.9,0.6-1.2,1s-0.5,0.8-0.5,1.2v7.1C634.6,97.5,633.8,97.5,633.8,97.5z"/>
	<path d="M394.9,121.5V106h-5.3v-1h11.6v1h-5.3v15.5H394.9z"/>
	<path d="M408,121.8c-1.1,0-2-0.2-2.9-0.7s-1.5-1.1-2-1.9s-0.7-1.7-0.7-2.7c0-0.8,0.1-1.5,0.4-2.2s0.7-1.2,1.1-1.8
		c0.5-0.5,1.1-0.9,1.7-1.2c0.6-0.3,1.3-0.4,2.1-0.4c1,0,1.8,0.2,2.6,0.7c0.8,0.4,1.4,1.1,1.9,1.8c0.5,0.8,0.7,1.7,0.8,2.7
		c0,0.1,0,0.1,0,0.2c0,0,0,0.1,0,0.2h-9.6c0,0.9,0.2,1.6,0.6,2.3s0.9,1.2,1.6,1.6s1.5,0.6,2.3,0.6s1.6-0.2,2.3-0.5s1.2-0.9,1.6-1.5
		l0.8,0.4c-0.5,0.8-1.1,1.4-2,1.8C409.9,121.6,409,121.8,408,121.8z M403.5,115.6h8.5c-0.1-0.7-0.3-1.4-0.7-1.9
		c-0.4-0.6-0.9-1-1.5-1.3s-1.3-0.5-2-0.5s-1.4,0.2-2,0.5s-1.1,0.8-1.5,1.3C403.8,114.2,403.6,114.9,403.5,115.6z"/>
	<path d="M421.4,121.8c-0.8,0-1.5-0.1-2.2-0.4s-1.3-0.6-1.8-1.1s-0.9-1.1-1.2-1.7c-0.3-0.7-0.4-1.4-0.4-2.2s0.1-1.5,0.4-2.2
		s0.7-1.2,1.2-1.7s1.1-0.9,1.8-1.1s1.4-0.4,2.2-0.4c0.7,0,1.3,0.1,1.9,0.3c0.6,0.2,1.1,0.5,1.6,0.9l-0.5,0.7c-0.8-0.6-1.8-1-2.9-1
		c-0.9,0-1.7,0.2-2.4,0.6c-0.7,0.4-1.2,0.9-1.6,1.6s-0.6,1.5-0.6,2.3c0,0.9,0.2,1.6,0.6,2.3s0.9,1.2,1.6,1.6s1.5,0.6,2.4,0.6
		c0.6,0,1.1-0.1,1.6-0.2c0.5-0.2,0.9-0.4,1.3-0.7l0.5,0.7c-0.5,0.4-1,0.6-1.6,0.8C422.7,121.7,422.1,121.8,421.4,121.8z"/>
	<path d="M428.3,121.5v-17.2h1.1v8.4c0.3-0.5,0.7-0.9,1.3-1.3c0.6-0.3,1.3-0.5,2.2-0.5c0.8,0,1.5,0.2,2,0.5c0.6,0.3,1,0.8,1.3,1.4
		s0.5,1.4,0.5,2.3v6.4h-1.1v-6.2c0-1.1-0.3-2-0.8-2.6s-1.3-0.9-2.2-0.9c-0.7,0-1.2,0.1-1.7,0.4s-0.8,0.6-1.1,1.1
		c-0.3,0.4-0.4,0.9-0.4,1.4v6.8L428.3,121.5L428.3,121.5z"/>
	<path d="M440.9,121.5v-10.2h1.1v1.5c0.3-0.5,0.7-0.9,1.3-1.3c0.6-0.3,1.3-0.5,2.2-0.5c0.8,0,1.5,0.2,2,0.5c0.6,0.3,1,0.8,1.3,1.4
		s0.5,1.4,0.5,2.3v6.4h-1.1v-6.2c0-1.1-0.3-2-0.8-2.6s-1.3-0.9-2.2-0.9c-0.7,0-1.2,0.1-1.7,0.4s-0.8,0.6-1.1,1
		c-0.3,0.4-0.4,0.9-0.4,1.4v6.8L440.9,121.5L440.9,121.5z"/>
	<path d="M454,109.2c-0.1,0-0.3,0-0.4-0.1s-0.2-0.2-0.3-0.3c-0.1-0.1-0.1-0.2-0.1-0.4c0-0.1,0-0.3,0.1-0.4s0.2-0.2,0.3-0.3
		c0.1-0.1,0.2-0.1,0.4-0.1c0.1,0,0.3,0,0.4,0.1s0.2,0.2,0.3,0.3c0.1,0.1,0.1,0.2,0.1,0.4c0,0.1,0,0.3-0.1,0.4s-0.2,0.2-0.3,0.3
		C454.2,109.2,454.1,109.2,454,109.2z M453.4,121.5v-10.2h1.1v10.2H453.4z"/>
	<path d="M459,121.5v-17.2h1.1v11.3l4.2-4.3h1.4l-4.6,4.8l4.8,5.5h-1.4l-4.4-5.1v5.1H459V121.5z"/>
	<path d="M478.5,121.8c-1.5,0-2.5-0.3-3.2-1c-0.6-0.7-0.9-1.8-0.9-3.5v-6.1h1.1v5.9c0,1.3,0.2,2.3,0.7,2.9s1.2,0.9,2.3,0.9
		c1.1,0,1.9-0.3,2.3-0.9c0.5-0.6,0.7-1.5,0.7-2.9v-5.9h1.1v6.1c0,1.6-0.3,2.8-0.9,3.5C481.1,121.4,480,121.8,478.5,121.8z"/>
	<path d="M486.9,121.5v-10.2h1.1v1.5c0.3-0.5,0.7-0.9,1.3-1.3c0.6-0.3,1.3-0.5,2.2-0.5c0.8,0,1.5,0.2,2,0.5c0.6,0.3,1,0.8,1.3,1.4
		s0.5,1.4,0.5,2.3v6.4h-1.1v-6.2c0-1.1-0.3-2-0.8-2.6s-1.3-0.9-2.2-0.9c-0.7,0-1.2,0.1-1.7,0.4s-0.8,0.6-1.1,1
		c-0.3,0.4-0.4,0.9-0.4,1.4v6.8L486.9,121.5L486.9,121.5z"/>
	<path d="M503.9,121.8c-1,0-1.8-0.2-2.6-0.7c-0.8-0.5-1.4-1.1-1.8-1.9c-0.5-0.8-0.7-1.8-0.7-2.8c0-1.1,0.2-2,0.7-2.8
		c0.4-0.8,1.1-1.5,1.8-1.9s1.6-0.7,2.6-0.7s1.8,0.2,2.6,0.7c0.8,0.5,1.4,1.1,1.8,2v-9.3h1.1v17.2h-1.1v-2.4c-0.4,0.8-1,1.5-1.8,2
		C505.7,121.6,504.9,121.8,503.9,121.8z M504.1,120.9c0.8,0,1.6-0.2,2.2-0.6s1.1-0.9,1.5-1.6s0.5-1.5,0.5-2.3c0-0.9-0.2-1.6-0.5-2.3
		c-0.4-0.7-0.9-1.2-1.5-1.6s-1.4-0.6-2.2-0.6c-0.8,0-1.5,0.2-2.2,0.6s-1.1,0.9-1.5,1.6s-0.5,1.5-0.5,2.3c0,0.9,0.2,1.6,0.5,2.3
		s0.9,1.2,1.5,1.6C502.6,120.7,503.3,120.9,504.1,120.9z"/>
	<path d="M519.5,121.5V105h1.1v7.7l7.7-7.7h1.4l-8.2,8.2l9,8.3h-1.6l-8.3-7.6v7.6H519.5z"/>
	<path d="M533.7,121.5v-10.2h1.1v1.5c0.3-0.6,0.7-1.1,1.2-1.4s1.1-0.5,1.8-0.5c0.3,0,0.6,0,0.9,0.1s0.5,0.1,0.8,0.2l-0.4,0.9
		c-0.2-0.1-0.4-0.2-0.7-0.2c-0.2,0-0.5-0.1-0.7-0.1c-0.5,0-0.9,0.1-1.4,0.4s-0.8,0.6-1.1,1c-0.3,0.4-0.4,0.8-0.4,1.3v7
		C534.8,121.5,533.7,121.5,533.7,121.5z"/>
	<path d="M547,121.8c-1.1,0-2-0.2-2.9-0.7c-0.8-0.5-1.5-1.1-2-1.9s-0.7-1.7-0.7-2.7c0-0.8,0.1-1.5,0.4-2.2s0.7-1.2,1.2-1.8
		s1.1-0.9,1.7-1.2c0.6-0.3,1.3-0.4,2.1-0.4c1,0,1.8,0.2,2.6,0.7c0.8,0.5,1.4,1.1,1.9,1.8c0.5,0.8,0.7,1.7,0.8,2.7c0,0.1,0,0.1,0,0.2
		c0,0,0,0.1,0,0.2h-9.6c0,0.9,0.2,1.6,0.6,2.3c0.4,0.7,0.9,1.2,1.6,1.6s1.5,0.6,2.3,0.6s1.6-0.2,2.3-0.5c0.7-0.3,1.2-0.9,1.6-1.5
		l0.8,0.4c-0.5,0.8-1.1,1.4-2,1.8C548.9,121.6,548,121.8,547,121.8z M542.5,115.6h8.5c-0.1-0.7-0.3-1.4-0.7-1.9
		c-0.4-0.6-0.9-1-1.5-1.3c-0.6-0.3-1.3-0.5-2-0.5s-1.4,0.2-2,0.5c-0.6,0.3-1.1,0.8-1.5,1.3C542.9,114.2,542.6,114.9,542.5,115.6z"/>
	<path d="M559.9,121.8c-1,0-1.8-0.2-2.6-0.7c-0.8-0.5-1.4-1.1-1.8-1.9c-0.5-0.8-0.7-1.8-0.7-2.8c0-1.1,0.2-2,0.7-2.8
		c0.4-0.8,1.1-1.5,1.8-1.9c0.8-0.5,1.6-0.7,2.6-0.7s1.9,0.2,2.6,0.7c0.8,0.5,1.4,1.1,1.8,2v-2.4h1.1v10.2h-1.1v-2.4
		c-0.4,0.8-1,1.5-1.8,2C561.8,121.6,560.9,121.8,559.9,121.8z M560.2,120.9c0.8,0,1.6-0.2,2.2-0.6c0.6-0.4,1.1-0.9,1.5-1.6
		c0.4-0.7,0.5-1.5,0.5-2.3c0-0.9-0.2-1.7-0.5-2.3c-0.4-0.7-0.9-1.2-1.5-1.6c-0.6-0.4-1.4-0.6-2.2-0.6c-0.8,0-1.6,0.2-2.2,0.6
		c-0.6,0.4-1.1,0.9-1.5,1.6c-0.4,0.7-0.5,1.5-0.5,2.3c0,0.9,0.2,1.6,0.5,2.3c0.4,0.7,0.9,1.2,1.5,1.6
		C558.6,120.7,559.3,120.9,560.2,120.9z"/>
	<path d="M572,121.8c-0.7,0-1.3-0.2-1.6-0.7c-0.4-0.5-0.6-1.2-0.6-2v-7h-1v-0.8h1v-3.8h1.1v3.8h2.6v0.8h-2.6v6.9
		c0,0.6,0.1,1.1,0.3,1.4s0.6,0.5,1,0.5c0.4,0,0.8-0.1,1.1-0.3l0.3,0.9c-0.2,0.1-0.4,0.2-0.7,0.3C572.6,121.9,572.3,121.8,572,121.8z
		"/>
	<path d="M577.4,109.2c-0.1,0-0.3,0-0.4-0.1c-0.1-0.1-0.2-0.2-0.3-0.3c-0.1-0.1-0.1-0.2-0.1-0.4c0-0.1,0-0.3,0.1-0.4
		c0.1-0.1,0.2-0.2,0.3-0.3c0.1-0.1,0.2-0.1,0.4-0.1c0.1,0,0.3,0,0.4,0.1c0.1,0.1,0.2,0.2,0.3,0.3c0.1,0.1,0.1,0.2,0.1,0.4
		c0,0.1,0,0.3-0.1,0.4c-0.1,0.1-0.2,0.2-0.3,0.3C577.7,109.2,577.6,109.2,577.4,109.2z M576.9,121.5v-10.2h1.1v10.2H576.9z"/>
	<path d="M585.8,121.5l-4.9-10.2h1.2l4,8.7l4-8.7h1.2l-4.9,10.2H585.8z"/>
	<path d="M594.9,109.2c-0.1,0-0.3,0-0.4-0.1c-0.1-0.1-0.2-0.2-0.3-0.3c-0.1-0.1-0.1-0.2-0.1-0.4c0-0.1,0-0.3,0.1-0.4
		c0.1-0.1,0.2-0.2,0.3-0.3c0.1-0.1,0.2-0.1,0.4-0.1c0.1,0,0.3,0,0.4,0.1c0.1,0.1,0.2,0.2,0.3,0.3c0.1,0.1,0.1,0.2,0.1,0.4
		c0,0.1,0,0.3-0.1,0.4c-0.1,0.1-0.2,0.2-0.3,0.3C595.2,109.2,595.1,109.2,594.9,109.2z M594.4,121.5v-10.2h1.1v10.2H594.4z"/>
	<path d="M602.3,121.8c-0.7,0-1.3-0.2-1.6-0.7c-0.4-0.5-0.6-1.2-0.6-2v-7h-1v-0.8h1v-3.8h1.1v3.8h2.6v0.8h-2.6v6.9
		c0,0.6,0.1,1.1,0.4,1.4c0.2,0.3,0.6,0.5,1,0.5c0.4,0,0.8-0.1,1.1-0.3l0.3,0.9c-0.2,0.1-0.4,0.2-0.7,0.3
		C603,121.9,602.5,121.8,602.3,121.8z"/>
	<path d="M611.5,121.8c-1,0-1.8-0.2-2.6-0.7c-0.8-0.5-1.4-1.1-1.8-1.9c-0.5-0.8-0.7-1.8-0.7-2.8c0-1.1,0.2-2,0.7-2.8
		c0.4-0.8,1.1-1.5,1.8-1.9c0.8-0.5,1.6-0.7,2.6-0.7s1.9,0.2,2.6,0.7c0.8,0.5,1.4,1.1,1.8,2v-2.4h1.1v10.2h-1.1v-2.4
		c-0.4,0.8-1,1.5-1.8,2S612.5,121.8,611.5,121.8z M611.7,120.9c0.8,0,1.6-0.2,2.2-0.6c0.6-0.4,1.1-0.9,1.5-1.6
		c0.4-0.7,0.5-1.5,0.5-2.3c0-0.9-0.2-1.7-0.5-2.3c-0.4-0.7-0.9-1.2-1.5-1.6c-0.6-0.4-1.4-0.6-2.2-0.6c-0.8,0-1.6,0.2-2.2,0.6
		c-0.6,0.4-1.1,0.9-1.5,1.6c-0.4,0.7-0.6,1.5-0.6,2.3c0,0.9,0.2,1.6,0.6,2.3c0.4,0.7,0.9,1.2,1.5,1.6
		C610.2,120.7,610.9,120.9,611.7,120.9z M610.1,107.9c-0.2,0-0.4-0.1-0.5-0.2c-0.1-0.1-0.2-0.3-0.2-0.5s0.1-0.4,0.2-0.5
		c0.1-0.1,0.3-0.2,0.5-0.2s0.4,0.1,0.5,0.2c0.1,0.1,0.2,0.3,0.2,0.5s-0.1,0.4-0.2,0.5C610.4,107.8,610.2,107.9,610.1,107.9z
		 M614.8,107.9c-0.2,0-0.4-0.1-0.5-0.2c-0.1-0.1-0.2-0.3-0.2-0.5s0.1-0.4,0.2-0.5c0.1-0.1,0.3-0.2,0.5-0.2s0.4,0.1,0.5,0.2
		c0.1,0.1,0.2,0.3,0.2,0.5s-0.1,0.4-0.2,0.5C615.1,107.8,615,107.9,614.8,107.9z"/>
	<path d="M623.8,121.8c-0.7,0-1.3-0.2-1.6-0.7c-0.4-0.5-0.6-1.2-0.6-2v-7h-1v-0.8h1v-3.8h1.1v3.8h2.6v0.8h-2.7v6.9
		c0,0.6,0.1,1.1,0.4,1.4c0.2,0.3,0.6,0.5,1,0.5c0.4,0,0.8-0.1,1.1-0.3l0.3,0.9c-0.2,0.1-0.4,0.2-0.7,0.3
		C624.4,121.9,624,121.8,623.8,121.8z"/>
	<path d="M446.3,145.5l-4.9-10.2h1.2l4,8.7l4-8.7h1.2l-4.9,10.2H446.3z"/>
	<path d="M459.6,145.8c-1.1,0-2-0.2-2.9-0.7c-0.8-0.5-1.5-1.1-2-1.9c-0.5-0.8-0.7-1.7-0.7-2.7c0-0.8,0.1-1.5,0.4-2.2
		s0.7-1.2,1.2-1.8s1.1-0.9,1.7-1.2s1.3-0.4,2.1-0.4c1,0,1.8,0.2,2.6,0.7s1.4,1.1,1.9,1.8c0.5,0.8,0.7,1.7,0.8,2.7c0,0.1,0,0.1,0,0.2
		c0,0,0,0.1,0,0.2h-9.6c0,0.9,0.2,1.6,0.6,2.3s0.9,1.2,1.6,1.6c0.7,0.4,1.5,0.6,2.3,0.6s1.6-0.2,2.3-0.5s1.2-0.9,1.6-1.5l0.8,0.4
		c-0.5,0.8-1.1,1.4-2,1.8C461.5,145.6,460.6,145.8,459.6,145.8z M455.2,139.6h8.5c-0.1-0.7-0.3-1.4-0.7-1.9c-0.4-0.6-0.9-1-1.5-1.3
		s-1.3-0.5-2-0.5s-1.4,0.2-2,0.5s-1.1,0.8-1.5,1.3C455.5,138.2,455.2,138.9,455.2,139.6z"/>
	<path d="M468.2,145.5v-10.2h1.1v1.5c0.3-0.6,0.7-1.1,1.2-1.4c0.5-0.3,1.1-0.5,1.8-0.5c0.3,0,0.6,0,0.9,0.1s0.5,0.1,0.8,0.2
		l-0.4,0.9c-0.2-0.1-0.4-0.2-0.7-0.2c-0.2,0-0.5-0.1-0.7-0.1c-0.5,0-0.9,0.1-1.4,0.4s-0.8,0.6-1.1,1c-0.3,0.4-0.4,0.8-0.4,1.3v7
		H468.2z"/>
	<path d="M481.5,145.8c-1.1,0-2-0.2-2.9-0.7c-0.8-0.5-1.5-1.1-2-1.9c-0.5-0.8-0.7-1.7-0.7-2.7c0-0.8,0.1-1.5,0.4-2.2
		s0.7-1.2,1.1-1.8c0.5-0.5,1.1-0.9,1.7-1.2s1.3-0.4,2.1-0.4c1,0,1.8,0.2,2.6,0.7c0.8,0.4,1.4,1.1,1.9,1.8c0.5,0.8,0.7,1.7,0.8,2.7
		c0,0.1,0,0.1,0,0.2c0,0,0,0.1,0,0.2h-9.6c0,0.9,0.2,1.6,0.6,2.3s0.9,1.2,1.6,1.6s1.5,0.6,2.3,0.6s1.6-0.2,2.3-0.5s1.2-0.9,1.6-1.5
		l0.8,0.4c-0.5,0.8-1.1,1.4-2,1.8C483.5,145.6,482.6,145.8,481.5,145.8z M477.1,139.6h8.5c-0.1-0.7-0.3-1.4-0.7-1.9
		c-0.4-0.6-0.9-1-1.5-1.3s-1.3-0.5-2-0.5s-1.4,0.2-2,0.5s-1.1,0.8-1.5,1.3C477.4,138.2,477.2,138.9,477.1,139.6z"/>
	<path d="M490.7,133.2c-0.1,0-0.3,0-0.4-0.1s-0.2-0.2-0.3-0.3c-0.1-0.1-0.1-0.2-0.1-0.4c0-0.1,0-0.3,0.1-0.4
		c0.1-0.1,0.2-0.2,0.3-0.3c0.1-0.1,0.2-0.1,0.4-0.1c0.1,0,0.3,0,0.4,0.1s0.2,0.2,0.3,0.3c0.1,0.1,0.1,0.2,0.1,0.4
		c0,0.1,0,0.3-0.1,0.4c-0.1,0.1-0.2,0.2-0.3,0.3C491,133.2,490.8,133.2,490.7,133.2z M490.2,145.5v-10.2h1.1v10.2H490.2z"/>
	<path d="M495.7,145.5v-10.2h1.1v1.5c0.3-0.5,0.7-0.9,1.3-1.3c0.6-0.3,1.3-0.5,2.2-0.5c0.8,0,1.5,0.2,2,0.5c0.6,0.3,1,0.8,1.3,1.4
		c0.3,0.6,0.5,1.4,0.5,2.3v6.4H503v-6.2c0-1.1-0.3-2-0.8-2.6s-1.3-0.9-2.2-0.9c-0.7,0-1.2,0.1-1.7,0.4s-0.8,0.6-1.1,1
		c-0.3,0.4-0.4,0.9-0.4,1.4v6.8L495.7,145.5L495.7,145.5z"/>
	<path d="M510.5,145.8c-0.7,0-1.3-0.2-1.6-0.7c-0.4-0.5-0.6-1.2-0.6-2v-7h-1v-0.8h1v-3.8h1.1v3.8h2.6v0.8h-2.6v6.9
		c0,0.6,0.1,1.1,0.4,1.4c0.2,0.3,0.6,0.5,1,0.5s0.8-0.1,1.1-0.3l0.3,0.9c-0.2,0.1-0.4,0.2-0.7,0.3S510.8,145.8,510.5,145.8z"/>
	<path d="M523,145.8c-0.8,0-1.6-0.2-2.2-0.7c-0.6-0.4-1.1-1.1-1.5-1.9l0.6-0.5c0.3,0.7,0.7,1.2,1.2,1.6c0.5,0.4,1.1,0.6,1.8,0.6
		c0.5,0,0.9-0.1,1.3-0.3c0.4-0.2,0.7-0.5,0.9-0.8c0.2-0.4,0.3-0.8,0.3-1.3c0-0.4-0.1-0.8-0.3-1c-0.2-0.2-0.5-0.5-0.9-0.6
		c-0.4-0.2-0.9-0.4-1.5-0.6c-0.4-0.2-0.9-0.4-1.3-0.6c-0.4-0.2-0.8-0.5-1-0.8c-0.3-0.3-0.4-0.8-0.4-1.3s0.1-0.9,0.4-1.3
		c0.3-0.4,0.6-0.7,1.1-0.9s1-0.3,1.6-0.3c0.6,0,1.1,0.1,1.6,0.4c0.5,0.3,0.9,0.7,1.3,1.1l-0.6,0.6c-0.5-0.9-1.3-1.3-2.3-1.3
		c-0.6,0-1.1,0.2-1.5,0.5c-0.4,0.3-0.6,0.8-0.6,1.3c0,0.4,0.1,0.7,0.3,0.9c0.2,0.2,0.5,0.4,0.9,0.6c0.4,0.2,0.8,0.3,1.2,0.5
		c0.6,0.2,1.2,0.5,1.6,0.7c0.5,0.2,0.8,0.5,1.1,0.9c0.2,0.3,0.4,0.8,0.4,1.4c0,0.7-0.2,1.2-0.5,1.7s-0.7,0.9-1.3,1.1
		C524.4,145.7,523.7,145.8,523,145.8z"/>
	<path d="M530.8,133.2c-0.1,0-0.3,0-0.4-0.1c-0.1-0.1-0.2-0.2-0.3-0.3s-0.1-0.2-0.1-0.4c0-0.1,0-0.3,0.1-0.4
		c0.1-0.1,0.2-0.2,0.3-0.3s0.2-0.1,0.4-0.1c0.1,0,0.3,0,0.4,0.1c0.1,0.1,0.2,0.2,0.3,0.3s0.1,0.2,0.1,0.4c0,0.1,0,0.3-0.1,0.4
		c-0.1,0.1-0.2,0.2-0.3,0.3S530.9,133.2,530.8,133.2z M530.3,145.5v-10.2h1.1v10.2H530.3z"/>
	<path d="M535.8,145.5v-10.2h1.1v1.5c0.3-0.5,0.7-0.9,1.3-1.3c0.6-0.3,1.3-0.5,2.2-0.5c0.8,0,1.5,0.2,2,0.5c0.6,0.3,1,0.8,1.3,1.4
		c0.3,0.6,0.5,1.4,0.5,2.3v6.4h-1.1v-6.2c0-1.1-0.3-2-0.8-2.6s-1.3-0.9-2.2-0.9c-0.7,0-1.2,0.1-1.7,0.4s-0.8,0.6-1.1,1
		c-0.3,0.4-0.4,0.9-0.4,1.4v6.8L535.8,145.5L535.8,145.5z"/>
	<path d="M552.8,145.8c-1,0-1.8-0.2-2.6-0.7c-0.8-0.5-1.4-1.1-1.8-1.9c-0.4-0.8-0.7-1.8-0.7-2.8c0-1.1,0.2-2,0.7-2.8
		c0.4-0.8,1.1-1.5,1.8-1.9c0.7-0.4,1.6-0.7,2.6-0.7s1.8,0.2,2.6,0.7c0.8,0.5,1.4,1.1,1.8,2v-9.3h1.1v17.2h-1.1v-2.4
		c-0.4,0.8-1,1.5-1.8,2S553.8,145.8,552.8,145.8z M553,144.9c0.8,0,1.6-0.2,2.2-0.6c0.6-0.4,1.1-0.9,1.5-1.6
		c0.4-0.7,0.5-1.5,0.5-2.3c0-0.9-0.2-1.6-0.5-2.3c-0.4-0.7-0.9-1.2-1.5-1.6c-0.6-0.4-1.4-0.6-2.2-0.6c-0.8,0-1.5,0.2-2.2,0.6
		s-1.1,0.9-1.5,1.6c-0.4,0.7-0.5,1.5-0.5,2.3c0,0.9,0.2,1.6,0.5,2.3s0.9,1.2,1.5,1.6C551.5,144.7,552.2,144.9,553,144.9z"/>
	<path d="M566.3,141.5v-3.9c0.1,0,0.2,0,0.3,0s0.2,0,0.3,0c0.8,0,1.5-0.2,2.2-0.5c0.6-0.3,1.1-0.8,1.5-1.4c0.4-0.6,0.5-1.3,0.5-2.2
		c0-0.8-0.2-1.5-0.5-2.1s-0.8-1-1.4-1.3c-0.6-0.3-1.3-0.5-2.1-0.5c-1.2,0-2.1,0.4-2.9,1.1s-1.1,1.7-1.1,2.9l-1-0.1
		c0-1,0.3-1.9,0.7-2.6c0.4-0.7,1-1.3,1.8-1.6s1.5-0.6,2.4-0.6c1,0,1.9,0.2,2.6,0.6c0.8,0.4,1.4,1,1.8,1.8c0.4,0.7,0.7,1.6,0.7,2.5
		s-0.2,1.7-0.6,2.4c-0.4,0.7-1,1.3-1.7,1.8c-0.7,0.4-1.6,0.7-2.6,0.7v2.9h-0.9L566.3,141.5L566.3,141.5z M566.8,145.8
		c-0.1,0-0.3,0-0.4-0.1c-0.1-0.1-0.2-0.2-0.3-0.3s-0.1-0.2-0.1-0.4c0-0.1,0-0.3,0.1-0.4c0.1-0.1,0.2-0.2,0.3-0.3s0.2-0.1,0.4-0.1
		c0.1,0,0.3,0,0.4,0.1c0.1,0.1,0.2,0.2,0.3,0.3s0.1,0.3,0.1,0.4c0,0.1,0,0.3-0.1,0.4c-0.1,0.1-0.2,0.2-0.3,0.3
		S566.9,145.8,566.8,145.8z"/>
</g>
<g>
	<path class="st0" d="M911.3,376c4.3-1.8,8.1-3.3,12-4.8c15.6-6.3,29.7-14,39.7-25.4c10.6-12.2,15.5-25.5,11.3-40.2
		c-3.5-12-11.5-22.2-22.2-31.2c-22.6-19.2-50.7-31.3-83.1-38c-19.8-4.1-40-6-60.4-6.6c-26.3-0.8-52.5-0.4-78.2,4.6
		c-27,5.3-51.3,14.4-71.4,29.6c-24.1,18.1-30.3,40.1-21.8,64.5c4.9,14.1,17.4,24.9,32,34c35.7,22.3,76.9,33.2,122.8,34
		c24.2,0.4,48.1-1.9,71.4-7.1c7.1-1.6,12.6-1,18.6,2c16.9,8.2,34.7,15,53.9,19.6c9,2.2,18,4.5,27.5,4.7c2.1,0.1,4.5-0.2,4.8-2
		c0.2-1.2-0.9-2.9-2.2-3.6c-3.5-2-7.4-3.8-11.3-5.5c-13.8-6.1-26.5-13.3-37.2-22.4C915.4,380.2,913.5,378.2,911.3,376z"/>
	<path class="st1" d="M911.3,376c2.2,2.1,4.1,4.2,6.3,6c10.6,9.2,23.4,16.3,37.2,22.4c3.9,1.7,7.7,3.5,11.3,5.5
		c1.3,0.7,2.3,2.5,2.2,3.6c-0.2,1.8-2.6,2.1-4.8,2c-9.6-0.2-18.5-2.5-27.5-4.7c-19.1-4.6-37-11.4-53.9-19.6c-6.1-3-11.5-3.6-18.6-2
		c-23.3,5.2-47.2,7.5-71.4,7.1c-45.8-0.8-87.1-11.7-122.8-34c-14.6-9.1-27-19.9-32-34c-8.5-24.4-2.2-46.3,21.8-64.5
		c20.1-15.1,44.4-24.3,71.4-29.6c25.7-5,51.9-5.4,78.2-4.6c20.4,0.6,40.6,2.6,60.4,6.6c32.4,6.6,60.5,18.8,83.1,38
		c10.6,9,18.7,19.2,22.2,31.2c4.3,14.6-0.6,27.9-11.3,40.2c-10,11.5-24.1,19.1-39.7,25.4C919.4,372.7,915.6,374.3,911.3,376z
		 M954.8,409.9c-1.4-0.7-2.8-1.4-4.3-2c-12.2-5.5-23.8-11.8-33.5-19.7c-3.9-3.2-7.5-6.7-10.7-10.3c-2.5-2.9-1.4-4.6,2.7-6.2
		c7.1-2.9,14.2-5.8,21.2-8.9c10.4-4.6,19.4-10.6,26.4-18.1c10.6-11.4,15.8-24,11.8-38c-3.3-11.5-11.1-21.2-21.3-29.7
		c-21.8-18.2-48.7-29.9-79.7-36.2c-24.9-5.1-50.3-6.8-76-6.8c-21,0-41.8,1.1-62.2,5.3c-26.8,5.6-50.8,15.1-69.9,31
		c-18.9,15.8-23.1,34.5-17.3,54.7c3.4,11.8,12.8,21.3,24.2,29.3c33,23.2,72.3,35,116.6,37.3c27.1,1.4,53.9-1,80-6.9
		c7.9-1.8,14-0.9,20.9,2.1c11.9,5.3,24.1,10.2,36.6,14.8C931.3,405.6,942.9,408.2,954.8,409.9z"/>
	<path class="st2" d="M947.1,277"/>
</g>
<g>
	<g>
		<path class="st3" d="M1077.1,316.5c0,0,31.6,52.3,0,93.5c-12.4,5.5-68.7,11-75.7,0c-4.1-8.3-16.3-61.9-4.8-93.5
			C1006.9,312.3,1055.1,302.7,1077.1,316.5z"/>
		<circle class="st4" cx="1003.7" cy="350.5" r="3.8"/>
		<circle class="st4" cx="1043.4" cy="352.6" r="3.8"/>
		<path class="st5" d="M1033.9,392.7c-7.1,7.5-19.5,7.1-27.8-0.7"/>
		<path class="st3" d="M1047.1,415.4v15.1c0,0-2.8,5.9-8.8,5.9c-6.3,0-8.8-5.8-8.8-5.8v-14.5L1047.1,415.4z"/>
		<polygon class="st6" points="1071.6,503.3 1060.3,573.2 1050.2,573.2 1051.2,513 1026.6,513.6 1023.5,573.2 1014.1,573.2 
			1008.9,504.6 		"/>
		<polygon class="st4" points="1060.7,573.2 1060.7,577.9 1043.6,577.9 1050.4,573.2 		"/>
		<polygon class="st4" points="1023.9,573.2 1023.9,577.9 1007.8,577.9 1014.1,573.2 		"/>
		<path class="st3" d="M1078.9,523.5c2.2-2.1,3.4-6.5,4.1-12.2h-12.4C1068.5,527.1,1075.5,526.9,1078.9,523.5z"/>
		<path class="st3" d="M999.3,516.3c0.6,3.4,2.3,6.9,5,6.9c2.8,0,5-1.1,5-4.5c0-0.9,0.4-7,0.1-7.7l-0.6-5.3H999
			C998.9,509.9,998.9,514,999.3,516.3z"/>
		<path class="st7" d="M999,505.7h9.8c0,0,61.8-3,61.8,5.6h12.4c2.9-26-7.3-80.4-7.3-80.4l-28.6-0.2l-42.9,0.2l-4.9,64.4
			C999.3,498.3,999.1,502.1,999,505.7z"/>
		<path class="st4" d="M1070.5,511.3"/>
		<line class="st1" x1="1083" y1="511.3" x2="1090.9" y2="511.3"/>
		<line class="st5" x1="1070.5" y1="511.3" x2="1061.7" y2="454.5"/>
		<line class="st5" x1="1017" y1="453.6" x2="1008.7" y2="505.7"/>
		<line class="st1" x1="991.7" y1="505.7" x2="999" y2="505.7"/>
		<path class="st7" d="M1040.7,425.5c-9.1-0.3-19.5-0.4-30.8-0.3c-4.7,1.1-5.6,5.6-5.6,5.6h36.4L1040.7,425.5L1040.7,425.5z"/>
		<path class="st7" d="M1039.4,425.7c9.1-0.3,19.5-0.4,30.8-0.3c4.7,1.1,5.6,5.6,5.6,5.6h-36.4V425.7L1039.4,425.7z"/>
	</g>
	<g>
		<g>
			<path d="M993.7,321.8l-0.8,11.6l28.4-0.1l0.3-22.4l55.5,5.5c0,0,23,52.8,10.5,114.2c17.4,5.9,27-0.2,27-0.2s14.9-114.7-2.1-124.6
				C1097.1,299.6,1003.2,286.7,993.7,321.8z"/>
			<polyline points="1013.3,309.2 1012.8,333.3 1041.2,333.3 1041.5,310.9 			"/>
			<path d="M1039.5,320.6c0,0,40.8,34.8,43.8,108.1c10.7,5,17.8-3.1,17.8-3.1L1081,311.3h-39.1L1039.5,320.6z"/>
		</g>
		<polygon points="1085.2,349 1083.4,428.6 1087.6,430.5 1103.1,403.3 1092.9,342.9 		"/>
	</g>
</g>
<g>
	<path d="M704.9,265.9v-16.5h3.2c1.6,0,2.9,0.4,3.7,1.1c0.9,0.7,1.3,1.8,1.3,3.1c0,1.8-0.8,3.1-2.4,3.8c1.2,0.2,2.2,0.6,2.9,1.3
		c0.7,0.7,1,1.7,1,2.9c0,0.9-0.2,1.7-0.6,2.4c-0.4,0.7-1,1.2-1.8,1.5s-1.7,0.5-2.8,0.5L704.9,265.9L704.9,265.9z M706,257h1.9
		c1.3,0,2.4-0.3,3.1-0.9s1.1-1.4,1.1-2.5s-0.4-1.9-1.1-2.5s-1.8-0.9-3.1-0.9H706V257z M706,265h3.3c1.4,0,2.4-0.3,3.1-0.9
		s1.1-1.5,1.1-2.6s-0.4-2-1.1-2.6c-0.8-0.6-1.8-0.9-3.1-0.9H706V265z"/>
	<path d="M722.7,266.2c-1.1,0-2-0.2-2.9-0.7c-0.9-0.5-1.5-1.1-2-1.9s-0.7-1.7-0.7-2.7c0-0.8,0.1-1.5,0.4-2.2s0.7-1.2,1.1-1.8
		c0.5-0.5,1.1-0.9,1.7-1.2c0.6-0.3,1.3-0.4,2.1-0.4c1,0,1.8,0.2,2.6,0.7c0.8,0.4,1.4,1.1,1.9,1.8c0.5,0.8,0.7,1.7,0.8,2.7
		c0,0.1,0,0.1,0,0.2c0,0,0,0.1,0,0.2h-9.6c0,0.9,0.2,1.6,0.6,2.3c0.4,0.7,0.9,1.2,1.6,1.6s1.5,0.6,2.3,0.6s1.6-0.2,2.3-0.5
		s1.2-0.9,1.6-1.5l0.8,0.4c-0.5,0.8-1.1,1.4-2,1.8C724.6,266,723.7,266.2,722.7,266.2z M718.3,260h8.5c-0.1-0.7-0.3-1.4-0.7-1.9
		c-0.4-0.6-0.9-1-1.5-1.3c-0.6-0.3-1.3-0.5-2-0.5s-1.4,0.2-2,0.5c-0.6,0.3-1.1,0.8-1.5,1.3C718.6,258.7,718.4,259.3,718.3,260z"/>
	<path d="M731.9,253.6c-0.1,0-0.3,0-0.4-0.1c-0.1-0.1-0.2-0.2-0.3-0.3c-0.1-0.1-0.1-0.2-0.1-0.4c0-0.1,0-0.3,0.1-0.4
		c0.1-0.1,0.2-0.2,0.3-0.3s0.2-0.1,0.4-0.1c0.1,0,0.3,0,0.4,0.1c0.1,0.1,0.2,0.2,0.3,0.3s0.1,0.2,0.1,0.4c0,0.1,0,0.3-0.1,0.4
		c-0.1,0.1-0.2,0.2-0.3,0.3C732.1,253.6,732,253.6,731.9,253.6z M731.3,265.9v-10.2h1.1v10.2H731.3z"/>
	<path d="M746.4,266.2c-1,0-1.8-0.2-2.6-0.7s-1.4-1.1-1.8-1.9c-0.4-0.8-0.7-1.8-0.7-2.8c0-1.1,0.2-2,0.7-2.8
		c0.4-0.8,1.1-1.5,1.8-1.9c0.7-0.4,1.6-0.7,2.6-0.7s1.8,0.2,2.6,0.7c0.8,0.5,1.4,1.1,1.8,2v-9.3h1.1V266h-1.1v-2.4
		c-0.4,0.8-1,1.5-1.8,2C748.2,266,747.3,266.2,746.4,266.2z M746.6,265.3c0.8,0,1.6-0.2,2.2-0.6c0.6-0.4,1.1-0.9,1.5-1.6
		c0.4-0.7,0.5-1.5,0.5-2.3c0-0.9-0.2-1.6-0.5-2.3c-0.4-0.7-0.9-1.2-1.5-1.6c-0.6-0.4-1.4-0.6-2.2-0.6c-0.8,0-1.5,0.2-2.2,0.6
		s-1.1,0.9-1.5,1.6c-0.4,0.7-0.5,1.5-0.5,2.3c0,0.9,0.2,1.6,0.5,2.3c0.3,0.7,0.9,1.2,1.5,1.6C745,265.1,745.8,265.3,746.6,265.3z"/>
	<path d="M761.1,266.2c-1.1,0-2-0.2-2.9-0.7c-0.9-0.5-1.5-1.1-2-1.9s-0.7-1.7-0.7-2.7c0-0.8,0.1-1.5,0.4-2.2s0.7-1.2,1.1-1.8
		c0.5-0.5,1.1-0.9,1.7-1.2c0.6-0.3,1.3-0.4,2.1-0.4c1,0,1.8,0.2,2.6,0.7c0.8,0.4,1.4,1.1,1.9,1.8c0.5,0.8,0.7,1.7,0.8,2.7
		c0,0.1,0,0.1,0,0.2c0,0,0,0.1,0,0.2h-9.6c0,0.9,0.2,1.6,0.6,2.3c0.4,0.7,0.9,1.2,1.6,1.6s1.5,0.6,2.3,0.6s1.6-0.2,2.3-0.5
		s1.2-0.9,1.6-1.5l0.8,0.4c-0.5,0.8-1.1,1.4-2,1.8C763,266,762.1,266.2,761.1,266.2z M756.6,260h8.5c-0.1-0.7-0.3-1.4-0.7-1.9
		c-0.4-0.6-0.9-1-1.5-1.3c-0.6-0.3-1.3-0.5-2-0.5s-1.4,0.2-2,0.5c-0.6,0.3-1.1,0.8-1.5,1.3C757,258.7,756.7,259.3,756.6,260z"/>
	<path d="M769.7,265.9v-10.2h1.1v1.5c0.3-0.6,0.7-1.1,1.2-1.4c0.5-0.3,1.1-0.5,1.8-0.5c0.3,0,0.6,0,0.9,0.1s0.5,0.1,0.8,0.2
		l-0.4,0.9c-0.2-0.1-0.4-0.2-0.7-0.2c-0.2,0-0.5-0.1-0.7-0.1c-0.5,0-0.9,0.1-1.4,0.4s-0.8,0.6-1.1,1s-0.4,0.8-0.4,1.3v7H769.7z"/>
	<path d="M784,265.9v-16.5h1.1v7.8h9.7v-7.8h1.1v16.5h-1.1v-7.8h-9.7v7.8L784,265.9L784,265.9z"/>
	<path d="M805.8,266.2c-1.1,0-2-0.2-2.8-0.7s-1.5-1.1-2-1.9s-0.7-1.8-0.7-2.8c0-1.1,0.2-2,0.7-2.8s1.2-1.5,2-1.9
		c0.8-0.5,1.8-0.7,2.8-0.7s2,0.2,2.8,0.7s1.5,1.1,2,1.9s0.7,1.8,0.7,2.8c0,1.1-0.2,2-0.7,2.8s-1.2,1.5-2,1.9
		S806.8,266.2,805.8,266.2z M805.8,265.3c0.9,0,1.6-0.2,2.3-0.6s1.2-0.9,1.6-1.6c0.4-0.7,0.6-1.4,0.6-2.3s-0.2-1.6-0.6-2.3
		c-0.4-0.7-0.9-1.2-1.6-1.6s-1.4-0.6-2.3-0.6c-0.9,0-1.6,0.2-2.3,0.6c-0.7,0.4-1.2,0.9-1.6,1.6c-0.4,0.7-0.6,1.4-0.6,2.3
		s0.2,1.6,0.6,2.3c0.4,0.7,0.9,1.2,1.6,1.6S804.9,265.3,805.8,265.3z"/>
	<path d="M819.8,266.2c-0.8,0-1.5-0.1-2.2-0.4s-1.3-0.6-1.8-1.1s-0.9-1.1-1.2-1.7c-0.3-0.7-0.4-1.4-0.4-2.2s0.1-1.5,0.4-2.2
		s0.7-1.2,1.2-1.7s1.1-0.9,1.8-1.1c0.7-0.2,1.4-0.4,2.2-0.4c0.7,0,1.3,0.1,1.9,0.3c0.6,0.2,1.1,0.5,1.6,0.9l-0.5,0.7
		c-0.8-0.6-1.8-1-2.9-1c-0.9,0-1.7,0.2-2.4,0.6s-1.2,0.9-1.6,1.6c-0.4,0.7-0.6,1.5-0.6,2.3c0,0.9,0.2,1.6,0.6,2.3
		c0.4,0.7,0.9,1.2,1.6,1.6s1.5,0.6,2.4,0.6c0.6,0,1.1-0.1,1.6-0.2c0.5-0.2,0.9-0.4,1.3-0.7l0.5,0.7c-0.5,0.4-1,0.6-1.6,0.8
		C821.2,266.1,820.5,266.2,819.8,266.2z"/>
	<path d="M826.7,265.9v-17.2h1.1v8.4c0.3-0.5,0.7-0.9,1.3-1.3c0.6-0.3,1.3-0.5,2.2-0.5c0.8,0,1.5,0.2,2,0.5c0.6,0.3,1,0.8,1.3,1.4
		s0.5,1.4,0.5,2.3v6.4H834v-6.2c0-1.1-0.3-2-0.8-2.6s-1.3-0.9-2.2-0.9c-0.7,0-1.2,0.1-1.7,0.4s-0.8,0.6-1.1,1.1
		c-0.3,0.4-0.4,0.9-0.4,1.4v6.8L826.7,265.9L826.7,265.9z"/>
	<path d="M841.8,266.2c-0.8,0-1.6-0.2-2.2-0.7c-0.6-0.4-1.1-1.1-1.5-1.9l0.6-0.5c0.3,0.7,0.7,1.2,1.2,1.6s1.1,0.6,1.8,0.6
		c0.5,0,0.9-0.1,1.3-0.3c0.4-0.2,0.7-0.5,0.9-0.8c0.2-0.4,0.4-0.8,0.4-1.3c0-0.4-0.1-0.8-0.3-1s-0.5-0.5-0.9-0.6
		c-0.4-0.2-0.9-0.4-1.4-0.6c-0.4-0.2-0.9-0.4-1.3-0.6c-0.4-0.2-0.8-0.5-1-0.8c-0.3-0.3-0.4-0.8-0.4-1.3s0.1-0.9,0.4-1.3
		s0.6-0.7,1.1-0.9s1-0.3,1.6-0.3s1.1,0.1,1.6,0.4c0.5,0.3,0.9,0.7,1.3,1.1l-0.6,0.6c-0.5-0.9-1.3-1.3-2.3-1.3
		c-0.6,0-1.1,0.2-1.5,0.5s-0.6,0.8-0.6,1.3c0,0.4,0.1,0.7,0.3,0.9c0.2,0.2,0.5,0.4,0.9,0.6s0.8,0.3,1.2,0.5c0.6,0.2,1.2,0.5,1.6,0.7
		c0.5,0.2,0.8,0.5,1.1,0.9c0.2,0.3,0.4,0.8,0.4,1.4c0,0.7-0.2,1.2-0.5,1.7s-0.7,0.9-1.3,1.1C843.1,266.1,842.5,266.2,841.8,266.2z"
		/>
	<path d="M853.8,266.2c-0.8,0-1.5-0.1-2.2-0.4s-1.3-0.6-1.8-1.1s-0.9-1.1-1.2-1.7c-0.3-0.7-0.4-1.4-0.4-2.2s0.1-1.5,0.4-2.2
		c0.3-0.7,0.7-1.2,1.2-1.7s1.1-0.9,1.8-1.1c0.7-0.2,1.4-0.4,2.2-0.4c0.7,0,1.3,0.1,1.9,0.3c0.6,0.2,1.1,0.5,1.6,0.9l-0.5,0.7
		c-0.8-0.6-1.8-1-2.9-1c-0.9,0-1.7,0.2-2.4,0.6s-1.2,0.9-1.6,1.6c-0.4,0.7-0.6,1.5-0.6,2.3c0,0.9,0.2,1.6,0.6,2.3
		c0.4,0.7,0.9,1.2,1.6,1.6c0.7,0.4,1.5,0.6,2.4,0.6c0.6,0,1.1-0.1,1.6-0.2c0.5-0.2,0.9-0.4,1.3-0.7l0.5,0.7c-0.5,0.4-1,0.6-1.6,0.8
		C855.1,266.1,854.5,266.2,853.8,266.2z"/>
	<path d="M860.7,265.9v-17.2h1.1v8.4c0.3-0.5,0.7-0.9,1.3-1.3c0.6-0.3,1.3-0.5,2.2-0.5c0.8,0,1.5,0.2,2,0.5c0.6,0.3,1,0.8,1.3,1.4
		s0.5,1.4,0.5,2.3v6.4H868v-6.2c0-1.1-0.3-2-0.8-2.6s-1.3-0.9-2.2-0.9c-0.7,0-1.2,0.1-1.7,0.4s-0.8,0.6-1.1,1.1
		c-0.3,0.4-0.4,0.9-0.4,1.4v6.8L860.7,265.9L860.7,265.9z"/>
	<path d="M877.2,266.2c-1.5,0-2.5-0.3-3.2-1s-0.9-1.8-0.9-3.5v-6.1h1.1v6c0,1.3,0.2,2.3,0.7,2.9s1.2,0.9,2.3,0.9s1.9-0.3,2.3-0.9
		c0.5-0.6,0.7-1.5,0.7-2.9v-5.9h1.1v6.1c0,1.6-0.3,2.8-0.9,3.5C879.7,265.9,878.7,266.2,877.2,266.2z"/>
	<path d="M885.6,265.9v-17.2h1.1v17.2H885.6z"/>
	<path d="M895.9,266.2c-1.1,0-2-0.2-2.9-0.7c-0.8-0.5-1.5-1.1-2-1.9s-0.7-1.7-0.7-2.7c0-0.8,0.1-1.5,0.4-2.2
		c0.3-0.7,0.7-1.2,1.2-1.8s1.1-0.9,1.7-1.2c0.6-0.3,1.3-0.4,2.1-0.4c1,0,1.8,0.2,2.6,0.7s1.4,1.1,1.9,1.8c0.5,0.8,0.7,1.7,0.8,2.7
		c0,0.1,0,0.1,0,0.2c0,0,0,0.1,0,0.2h-9.6c0,0.9,0.2,1.6,0.6,2.3c0.4,0.7,0.9,1.2,1.6,1.6s1.5,0.6,2.3,0.6s1.6-0.2,2.3-0.5
		s1.2-0.9,1.6-1.5l0.8,0.4c-0.5,0.8-1.1,1.4-2,1.8C897.8,266,896.9,266.2,895.9,266.2z M891.4,260h8.5c-0.1-0.7-0.3-1.4-0.7-1.9
		c-0.4-0.6-0.9-1-1.5-1.3s-1.3-0.5-2-0.5s-1.4,0.2-2,0.5s-1.1,0.8-1.5,1.3C891.8,258.7,891.5,259.3,891.4,260z"/>
	<path d="M656.4,289.9v-16.5h3.5c1.2,0,2.3,0.2,3.3,0.6s1.9,1,2.6,1.8s1.3,1.6,1.8,2.6s0.6,2.1,0.6,3.2c0,1.2-0.2,2.2-0.6,3.2
		c-0.4,1-1,1.9-1.8,2.6c-0.8,0.8-1.6,1.3-2.6,1.8c-1,0.4-2.1,0.6-3.3,0.6L656.4,289.9L656.4,289.9z M657.5,288.9h2.4
		c1,0,2-0.2,2.8-0.6c0.9-0.4,1.7-0.9,2.3-1.5c0.7-0.7,1.2-1.4,1.5-2.3c0.4-0.9,0.6-1.8,0.6-2.9c0-1-0.2-2-0.5-2.9
		c-0.4-0.9-0.9-1.6-1.5-2.3c-0.7-0.7-1.4-1.2-2.3-1.5c-0.9-0.4-1.8-0.6-2.8-0.6h-2.4L657.5,288.9L657.5,288.9L657.5,288.9z"/>
	<path d="M677,290.2c-1.1,0-2-0.2-2.9-0.7c-0.9-0.5-1.5-1.1-2-1.9s-0.7-1.7-0.7-2.7c0-0.8,0.1-1.5,0.4-2.2s0.7-1.2,1.1-1.8
		c0.5-0.5,1.1-0.9,1.7-1.2c0.6-0.3,1.3-0.4,2.1-0.4c1,0,1.8,0.2,2.6,0.7c0.8,0.4,1.4,1.1,1.9,1.8c0.5,0.8,0.7,1.7,0.8,2.7
		c0,0.1,0,0.1,0,0.2c0,0,0,0.1,0,0.2h-9.6c0,0.9,0.2,1.6,0.6,2.3c0.4,0.7,0.9,1.2,1.6,1.6s1.5,0.6,2.3,0.6s1.6-0.2,2.3-0.5
		c0.7-0.3,1.2-0.9,1.6-1.5l0.8,0.4c-0.5,0.8-1.1,1.4-2,1.8C679,290,678,290.2,677,290.2z M672.6,284h8.5c-0.1-0.7-0.3-1.4-0.7-1.9
		c-0.4-0.6-0.9-1-1.5-1.3c-0.6-0.3-1.3-0.5-2-0.5s-1.4,0.2-2,0.5c-0.6,0.3-1.1,0.8-1.5,1.3C672.9,282.7,672.7,283.3,672.6,284z"/>
	<path d="M688.2,290.2c-0.8,0-1.6-0.2-2.2-0.7c-0.6-0.4-1.1-1.1-1.5-1.9l0.6-0.5c0.3,0.7,0.7,1.2,1.2,1.6s1.1,0.6,1.8,0.6
		c0.5,0,0.9-0.1,1.3-0.3c0.4-0.2,0.7-0.5,0.9-0.8c0.2-0.4,0.4-0.8,0.4-1.3c0-0.4-0.1-0.8-0.3-1c-0.2-0.2-0.5-0.5-0.9-0.6
		c-0.4-0.2-0.9-0.4-1.4-0.6c-0.4-0.2-0.9-0.4-1.3-0.6c-0.4-0.2-0.8-0.5-1-0.8c-0.3-0.3-0.4-0.8-0.4-1.3s0.1-0.9,0.4-1.3
		s0.6-0.7,1.1-0.9c0.5-0.2,1-0.3,1.6-0.3c0.6,0,1.1,0.1,1.6,0.4s0.9,0.7,1.3,1.1l-0.6,0.6c-0.5-0.9-1.3-1.3-2.3-1.3
		c-0.6,0-1.1,0.2-1.5,0.5c-0.4,0.3-0.6,0.8-0.6,1.3c0,0.4,0.1,0.7,0.3,0.9c0.2,0.2,0.5,0.4,0.9,0.6c0.4,0.2,0.8,0.3,1.2,0.5
		c0.6,0.2,1.2,0.5,1.6,0.7c0.5,0.2,0.8,0.5,1.1,0.9c0.2,0.3,0.4,0.8,0.4,1.4c0,0.7-0.2,1.2-0.5,1.7s-0.7,0.9-1.3,1.1
		C689.5,290.1,688.9,290.2,688.2,290.2z"/>
	<path d="M696,277.6c-0.1,0-0.3,0-0.4-0.1c-0.1-0.1-0.2-0.2-0.3-0.3c-0.1-0.1-0.1-0.2-0.1-0.4c0-0.1,0-0.3,0.1-0.4
		c0.1-0.1,0.2-0.2,0.3-0.3c0.1-0.1,0.2-0.1,0.4-0.1c0.1,0,0.3,0,0.4,0.1c0.1,0.1,0.2,0.2,0.3,0.3c0.1,0.1,0.1,0.2,0.1,0.4
		c0,0.1,0,0.3-0.1,0.4c-0.1,0.1-0.2,0.2-0.3,0.3C696.2,277.6,696.1,277.6,696,277.6z M695.4,289.9v-10.2h1.1v10.2H695.4z"/>
	<path d="M705.4,295.4c-1.3,0-2.4-0.3-3.2-0.8c-0.9-0.5-1.5-1.2-2-2.2l0.9-0.4c0.3,0.8,0.9,1.4,1.6,1.8c0.8,0.5,1.7,0.7,2.7,0.7
		c0.8,0,1.6-0.2,2.2-0.5c0.7-0.3,1.2-0.8,1.6-1.4c0.4-0.6,0.6-1.4,0.6-2.3v-2.8c-0.4,0.8-1,1.5-1.8,2s-1.6,0.7-2.6,0.7
		s-1.8-0.2-2.6-0.7c-0.8-0.5-1.4-1.1-1.8-1.9c-0.5-0.8-0.7-1.8-0.7-2.8c0-1.1,0.2-2,0.7-2.8c0.4-0.8,1.1-1.5,1.8-1.9
		c0.7-0.4,1.6-0.7,2.6-0.7s1.8,0.2,2.6,0.7s1.4,1.1,1.8,2v-2.4h1.1v10.5c0,1.2-0.2,2.1-0.7,2.9s-1.1,1.4-1.9,1.7
		C707.5,295.2,706.5,295.4,705.4,295.4z M705.6,289.3c0.8,0,1.6-0.2,2.2-0.6c0.6-0.4,1.1-0.9,1.5-1.6c0.4-0.7,0.5-1.5,0.5-2.3
		c0-0.9-0.2-1.6-0.5-2.3c-0.4-0.7-0.9-1.2-1.5-1.6c-0.6-0.4-1.4-0.6-2.2-0.6c-0.8,0-1.6,0.2-2.2,0.6c-0.6,0.4-1.1,0.9-1.5,1.6
		c-0.4,0.7-0.5,1.5-0.5,2.3c0,0.9,0.2,1.6,0.5,2.3c0.3,0.7,0.9,1.2,1.5,1.6C704.1,289.1,704.8,289.3,705.6,289.3z"/>
	<path d="M715.3,289.9v-10.2h1.1v1.5c0.3-0.5,0.7-0.9,1.3-1.3c0.6-0.3,1.3-0.5,2.2-0.5c0.8,0,1.5,0.2,2,0.5c0.6,0.3,1,0.8,1.3,1.4
		s0.5,1.4,0.5,2.3v6.4h-1.1v-6.2c0-1.1-0.3-2-0.8-2.6s-1.3-0.9-2.2-0.9c-0.7,0-1.2,0.1-1.7,0.4s-0.8,0.6-1.1,1
		c-0.3,0.4-0.4,0.9-0.4,1.4v6.8C716.4,289.9,715.3,289.9,715.3,289.9z"/>
	<path d="M732.6,290.2c-0.9,0-1.6-0.2-2.4-0.5c-0.7-0.3-1.3-0.8-1.7-1.5s-0.6-1.5-0.6-2.4c0-1.1,0.3-2.1,1-3s1.6-1.6,2.9-2.2
		c-0.6-0.6-1-1.1-1.4-1.5c-0.3-0.4-0.6-0.9-0.7-1.2c-0.1-0.4-0.2-0.8-0.2-1.2c0-0.7,0.2-1.3,0.5-1.8s0.8-0.9,1.3-1.2
		c0.6-0.3,1.2-0.4,1.9-0.4c0.5,0,1,0.1,1.5,0.3c0.5,0.2,0.8,0.4,1.2,0.8c0.3,0.3,0.6,0.7,0.8,1.1s0.3,0.9,0.3,1.4
		c0,0.9-0.3,1.7-0.9,2.3c-0.6,0.6-1.5,1.2-2.6,1.7l4.9,5.3c0.1-0.1,0.3-0.3,0.5-0.6c0.2-0.3,0.4-0.5,0.6-0.8s0.4-0.5,0.5-0.8
		c0.2-0.2,0.3-0.4,0.3-0.5l0.7,0.5c-0.2,0.4-0.5,0.9-0.9,1.4c-0.4,0.5-0.7,1-1,1.4l2.9,3.1h-1.3l-2.2-2.5c-0.8,0.9-1.7,1.6-2.6,2.1
		C734.6,290,733.6,290.2,732.6,290.2z M732.7,289.2c0.8,0,1.7-0.2,2.5-0.7c0.8-0.4,1.6-1.1,2.3-1.9l-5.1-5.5c-1.1,0.5-2,1.2-2.6,2
		c-0.6,0.8-0.9,1.6-0.9,2.6c0,0.8,0.2,1.4,0.5,1.9s0.8,0.9,1.4,1.2C731.4,289.1,732,289.2,732.7,289.2z M732.7,280.1
		c0.7-0.3,1.2-0.6,1.7-1c0.5-0.3,0.8-0.7,1.1-1.1c0.2-0.4,0.4-0.9,0.4-1.4c0-0.6-0.1-1-0.4-1.4c-0.2-0.4-0.6-0.7-1-0.9
		c-0.4-0.2-0.9-0.3-1.4-0.3s-1,0.1-1.4,0.3c-0.4,0.2-0.7,0.5-1,0.9c-0.2,0.4-0.4,0.9-0.4,1.4c0,0.3,0.1,0.7,0.2,1
		c0.1,0.3,0.4,0.7,0.7,1.1C731.7,279.1,732.2,279.6,732.7,280.1z"/>
	<path d="M746.4,289.9v-16.5h1.1v7.7l7.7-7.7h1.4l-8.2,8.2l9,8.3h-1.6l-8.4-7.6v7.6H746.4z"/>
	<path d="M764.5,290.2c-1.5,0-2.5-0.3-3.2-1c-0.6-0.7-0.9-1.8-0.9-3.5v-6.1h1.1v6c0,1.3,0.2,2.3,0.7,2.9s1.2,0.9,2.3,0.9
		s1.9-0.3,2.3-0.9c0.4-0.6,0.7-1.5,0.7-2.9v-5.9h1.1v6.1c0,1.6-0.3,2.8-0.9,3.5C767.1,290,765.9,290.2,764.5,290.2z"/>
	<path d="M772.9,289.9v-10.2h1.1v1.5c0.3-0.5,0.7-0.9,1.3-1.3c0.6-0.3,1.3-0.5,2.2-0.5c0.8,0,1.5,0.2,2,0.5c0.6,0.3,1,0.8,1.3,1.4
		s0.5,1.4,0.5,2.3v6.4h-1.2v-6.2c0-1.1-0.3-2-0.8-2.6s-1.3-0.9-2.2-0.9c-0.7,0-1.2,0.1-1.7,0.4s-0.8,0.6-1.1,1
		c-0.3,0.4-0.4,0.9-0.4,1.4v6.8C773.9,289.9,772.9,289.9,772.9,289.9z"/>
	<path d="M787.9,290.2c-0.8,0-1.6-0.2-2.2-0.7c-0.6-0.4-1.1-1.1-1.5-1.9l0.6-0.5c0.3,0.7,0.7,1.2,1.2,1.6s1.1,0.6,1.8,0.6
		c0.5,0,0.9-0.1,1.3-0.3c0.4-0.2,0.7-0.5,0.9-0.8c0.2-0.4,0.4-0.8,0.4-1.3c0-0.4-0.1-0.8-0.3-1c-0.2-0.2-0.5-0.5-0.9-0.6
		c-0.4-0.2-0.9-0.4-1.4-0.6c-0.4-0.2-0.9-0.4-1.3-0.6c-0.4-0.2-0.8-0.5-1-0.8c-0.3-0.3-0.4-0.8-0.4-1.3s0.1-0.9,0.4-1.3
		s0.6-0.7,1.1-0.9c0.5-0.2,1-0.3,1.6-0.3c0.6,0,1.1,0.1,1.6,0.4s0.9,0.7,1.3,1.1l-0.6,0.6c-0.5-0.9-1.3-1.3-2.3-1.3
		c-0.6,0-1.1,0.2-1.5,0.5c-0.4,0.3-0.6,0.8-0.6,1.3c0,0.4,0.1,0.7,0.3,0.9c0.2,0.2,0.5,0.4,0.9,0.6c0.4,0.2,0.8,0.3,1.2,0.5
		c0.6,0.2,1.2,0.5,1.6,0.7c0.5,0.2,0.8,0.5,1.1,0.9c0.2,0.3,0.4,0.8,0.4,1.4c0,0.7-0.2,1.2-0.5,1.7s-0.7,0.9-1.3,1.1
		C789.2,290.1,788.6,290.2,787.9,290.2z"/>
	<path d="M797.3,290.2c-0.7,0-1.3-0.2-1.6-0.7c-0.4-0.5-0.6-1.2-0.6-2v-7h-1v-0.8h1v-3.8h1.1v3.8h2.6v0.8h-2.6v6.9
		c0,0.6,0.1,1.1,0.4,1.4c0.2,0.3,0.6,0.5,1,0.5c0.4,0,0.8-0.1,1.1-0.3l0.3,0.9c-0.2,0.1-0.4,0.2-0.7,0.3
		C798,290.3,797.6,290.2,797.3,290.2z"/>
	<path d="M812.7,290.2c-1,0-1.8-0.2-2.6-0.7s-1.4-1.1-1.8-2v2.4h-1.1v-17.2h1.1v9.3c0.4-0.8,1-1.5,1.8-2s1.6-0.7,2.6-0.7
		s1.8,0.2,2.6,0.7c0.8,0.5,1.4,1.1,1.8,1.9c0.4,0.8,0.7,1.8,0.7,2.8s-0.2,2-0.7,2.8c-0.4,0.8-1.1,1.5-1.8,1.9
		C814.6,290,813.7,290.2,812.7,290.2z M812.5,289.3c0.8,0,1.5-0.2,2.2-0.6c0.6-0.4,1.1-0.9,1.5-1.6c0.4-0.7,0.5-1.5,0.5-2.3
		c0-0.9-0.2-1.6-0.5-2.3c-0.4-0.7-0.9-1.2-1.5-1.6c-0.6-0.4-1.4-0.6-2.2-0.6s-1.6,0.2-2.2,0.6c-0.6,0.4-1.1,0.9-1.5,1.6
		c-0.4,0.7-0.5,1.5-0.5,2.3c0,0.9,0.2,1.6,0.5,2.3c0.4,0.7,0.9,1.2,1.5,1.6C810.9,289.1,811.7,289.3,812.5,289.3z"/>
	<path d="M822.1,277.6c-0.1,0-0.3,0-0.4-0.1c-0.1-0.1-0.2-0.2-0.3-0.3c-0.1-0.1-0.1-0.2-0.1-0.4c0-0.1,0-0.3,0.1-0.4
		c0.1-0.1,0.2-0.2,0.3-0.3c0.1-0.1,0.2-0.1,0.4-0.1c0.1,0,0.3,0,0.4,0.1c0.1,0.1,0.2,0.2,0.3,0.3c0.1,0.1,0.1,0.2,0.1,0.4
		c0,0.1,0,0.3-0.1,0.4s-0.2,0.2-0.3,0.3C822.4,277.6,822.2,277.6,822.1,277.6z M821.6,289.9v-10.2h1.1v10.2H821.6z"/>
	<path d="M829.7,290.2c-0.8,0-1.6-0.2-2.2-0.7c-0.6-0.4-1.1-1.1-1.5-1.9l0.6-0.5c0.3,0.7,0.7,1.2,1.2,1.6s1.1,0.6,1.8,0.6
		c0.5,0,0.9-0.1,1.3-0.3c0.4-0.2,0.7-0.5,0.9-0.8c0.2-0.4,0.4-0.8,0.4-1.3c0-0.4-0.1-0.8-0.3-1s-0.5-0.5-0.9-0.6
		c-0.4-0.2-0.9-0.4-1.4-0.6c-0.4-0.2-0.9-0.4-1.3-0.6c-0.4-0.2-0.8-0.5-1-0.8c-0.3-0.3-0.4-0.8-0.4-1.3s0.1-0.9,0.4-1.3
		c0.3-0.4,0.6-0.7,1.1-0.9c0.5-0.2,1-0.3,1.6-0.3s1.1,0.1,1.6,0.4s0.9,0.7,1.3,1.1l-0.6,0.6c-0.5-0.9-1.3-1.3-2.3-1.3
		c-0.6,0-1.1,0.2-1.5,0.5s-0.6,0.8-0.6,1.3c0,0.4,0.1,0.7,0.3,0.9c0.2,0.2,0.5,0.4,0.9,0.6s0.8,0.3,1.2,0.5c0.6,0.2,1.2,0.5,1.6,0.7
		c0.5,0.2,0.8,0.5,1.1,0.9c0.2,0.3,0.4,0.8,0.4,1.4c0,0.7-0.2,1.2-0.5,1.7s-0.7,0.9-1.3,1.1C831,290.1,830.4,290.2,829.7,290.2z"/>
	<path d="M839.1,290.2c-0.7,0-1.3-0.2-1.6-0.7c-0.4-0.5-0.6-1.2-0.6-2v-7h-1v-0.8h1v-3.8h1.1v3.8h2.6v0.8H838v6.9
		c0,0.6,0.1,1.1,0.4,1.4c0.2,0.3,0.6,0.5,1,0.5s0.8-0.1,1.1-0.3l0.3,0.9c-0.2,0.1-0.4,0.2-0.7,0.3
		C839.8,290.3,839.4,290.2,839.1,290.2z"/>
	<path d="M853.4,290.2c-1,0-1.8-0.2-2.6-0.7s-1.4-1.1-1.8-1.9c-0.4-0.8-0.7-1.8-0.7-2.8c0-1.1,0.2-2,0.7-2.8
		c0.4-0.8,1.1-1.5,1.8-1.9s1.6-0.7,2.6-0.7s1.8,0.2,2.6,0.7s1.4,1.1,1.8,2v-9.3h1.1V290h-1.1v-2.4c-0.4,0.8-1,1.5-1.8,2
		C855.2,290,854.4,290.2,853.4,290.2z M853.6,289.3c0.8,0,1.6-0.2,2.2-0.6c0.6-0.4,1.1-0.9,1.5-1.6s0.5-1.5,0.5-2.3
		c0-0.9-0.2-1.6-0.5-2.3c-0.4-0.7-0.9-1.2-1.5-1.6s-1.4-0.6-2.2-0.6s-1.5,0.2-2.2,0.6s-1.1,0.9-1.5,1.6s-0.5,1.5-0.5,2.3
		c0,0.9,0.2,1.6,0.5,2.3c0.3,0.7,0.9,1.2,1.5,1.6C852.1,289.1,852.8,289.3,853.6,289.3z"/>
	<path d="M867.3,290.2c-1.5,0-2.5-0.3-3.2-1s-0.9-1.8-0.9-3.5v-6.1h1.1v6c0,1.3,0.2,2.3,0.7,2.9s1.2,0.9,2.3,0.9s1.9-0.3,2.3-0.9
		c0.5-0.6,0.7-1.5,0.7-2.9v-5.9h1.1v6.1c0,1.6-0.3,2.8-0.9,3.5C869.8,289.9,868.8,290.2,867.3,290.2z"/>
	<path d="M880.8,289.9v-10.2h1.1v1.5c0.3-0.6,0.7-1.1,1.2-1.4s1.1-0.5,1.8-0.5c0.3,0,0.6,0,0.9,0.1c0.3,0.1,0.5,0.1,0.8,0.2
		l-0.4,0.9c-0.2-0.1-0.4-0.2-0.7-0.2c-0.2,0-0.5-0.1-0.7-0.1c-0.5,0-0.9,0.1-1.4,0.4c-0.4,0.2-0.8,0.6-1.1,1s-0.4,0.8-0.4,1.3v7
		L880.8,289.9L880.8,289.9z"/>
	<path d="M889.9,277.6c-0.1,0-0.3,0-0.4-0.1c-0.1-0.1-0.2-0.2-0.3-0.3s-0.1-0.2-0.1-0.4c0-0.1,0-0.3,0.1-0.4s0.2-0.2,0.3-0.3
		c0.1-0.1,0.2-0.1,0.4-0.1c0.1,0,0.3,0,0.4,0.1c0.1,0.1,0.2,0.2,0.3,0.3c0.1,0.1,0.1,0.2,0.1,0.4c0,0.1,0,0.3-0.1,0.4
		s-0.2,0.2-0.3,0.3C890.2,277.6,890.1,277.6,889.9,277.6z M889.4,289.9v-10.2h1.1v10.2H889.4z"/>
	<path d="M899.7,290.2c-0.8,0-1.5-0.1-2.2-0.4s-1.3-0.6-1.8-1.1s-0.9-1.1-1.2-1.7c-0.3-0.7-0.4-1.4-0.4-2.2s0.1-1.5,0.4-2.2
		c0.3-0.7,0.7-1.2,1.2-1.7s1.1-0.9,1.8-1.1c0.7-0.3,1.4-0.4,2.2-0.4c0.7,0,1.3,0.1,1.9,0.3c0.6,0.2,1.1,0.5,1.6,0.9l-0.5,0.7
		c-0.8-0.6-1.8-1-2.9-1c-0.9,0-1.7,0.2-2.4,0.6s-1.2,0.9-1.6,1.6c-0.4,0.7-0.6,1.5-0.6,2.3c0,0.9,0.2,1.6,0.6,2.3
		c0.4,0.7,0.9,1.2,1.6,1.6c0.7,0.4,1.5,0.6,2.4,0.6c0.6,0,1.1-0.1,1.6-0.2c0.5-0.2,0.9-0.4,1.3-0.7l0.5,0.7c-0.5,0.4-1,0.6-1.6,0.8
		C901,290.1,900.4,290.2,899.7,290.2z"/>
	<path d="M906.6,289.9v-17.2h1.1v8.4c0.3-0.5,0.7-0.9,1.3-1.3c0.6-0.3,1.3-0.5,2.2-0.5c0.8,0,1.5,0.2,2,0.5c0.6,0.3,1,0.8,1.3,1.4
		s0.5,1.4,0.5,2.3v6.4h-1.1v-6.2c0-1.1-0.3-2-0.8-2.6s-1.3-0.9-2.2-0.9c-0.7,0-1.2,0.1-1.7,0.4s-0.8,0.6-1.1,1.1
		c-0.3,0.4-0.4,0.9-0.4,1.4v6.8C907.7,289.9,906.6,289.9,906.6,289.9z"/>
	<path d="M921.4,290.2c-0.7,0-1.3-0.2-1.6-0.7c-0.4-0.5-0.6-1.2-0.6-2v-7h-1v-0.8h1v-3.8h1.1v3.8h2.6v0.8h-2.6v6.9
		c0,0.6,0.1,1.1,0.4,1.4c0.2,0.3,0.6,0.5,1,0.5s0.8-0.1,1.1-0.3l0.3,0.9c-0.2,0.1-0.4,0.2-0.7,0.3
		C922.1,290.3,921.6,290.2,921.4,290.2z"/>
	<path d="M926.7,277.6c-0.1,0-0.3,0-0.4-0.1c-0.1-0.1-0.2-0.2-0.3-0.3c-0.1-0.1-0.1-0.2-0.1-0.4c0-0.1,0-0.3,0.1-0.4
		s0.2-0.2,0.3-0.3s0.2-0.1,0.4-0.1c0.1,0,0.3,0,0.4,0.1c0.1,0.1,0.2,0.2,0.3,0.3c0.1,0.1,0.1,0.2,0.1,0.4c0,0.1,0,0.3-0.1,0.4
		s-0.2,0.2-0.3,0.3C927,277.6,926.9,277.6,926.7,277.6z M926.2,289.9v-10.2h1.1v10.2C927.3,289.9,926.2,289.9,926.2,289.9z"/>
	<path d="M936.2,295.4c-1.3,0-2.4-0.3-3.2-0.8c-0.9-0.5-1.5-1.2-2-2.2l0.9-0.4c0.3,0.8,0.9,1.4,1.6,1.8c0.8,0.5,1.7,0.7,2.7,0.7
		c0.8,0,1.6-0.2,2.2-0.5c0.7-0.3,1.2-0.8,1.6-1.4c0.4-0.6,0.6-1.4,0.6-2.3v-2.8c-0.4,0.8-1,1.5-1.8,2s-1.6,0.7-2.6,0.7
		s-1.8-0.2-2.6-0.7s-1.4-1.1-1.8-1.9c-0.5-0.8-0.7-1.8-0.7-2.8c0-1.1,0.2-2,0.7-2.8c0.4-0.8,1.1-1.5,1.8-1.9s1.6-0.7,2.6-0.7
		s1.8,0.2,2.6,0.7s1.4,1.1,1.8,2v-2.4h1.1v10.5c0,1.2-0.2,2.1-0.7,2.9s-1.1,1.4-1.9,1.7C938.2,295.2,937.3,295.4,936.2,295.4z
		 M936.4,289.3c0.8,0,1.6-0.2,2.2-0.6c0.6-0.4,1.1-0.9,1.5-1.6s0.5-1.5,0.5-2.3c0-0.9-0.2-1.6-0.5-2.3c-0.4-0.7-0.9-1.2-1.5-1.6
		s-1.4-0.6-2.2-0.6s-1.5,0.2-2.2,0.6c-0.6,0.4-1.1,0.9-1.5,1.6s-0.5,1.5-0.5,2.3c0,0.9,0.2,1.6,0.5,2.3c0.3,0.7,0.9,1.2,1.5,1.6
		S935.6,289.3,936.4,289.3z"/>
	<path d="M947.8,290.2c-0.1,0-0.3,0-0.4-0.1c-0.1-0.1-0.2-0.2-0.3-0.3s-0.1-0.3-0.1-0.4s0-0.3,0.1-0.4s0.2-0.2,0.3-0.3
		c0.1-0.1,0.2-0.1,0.4-0.1c0.1,0,0.3,0,0.4,0.1c0.1,0.1,0.2,0.2,0.3,0.3c0.1,0.1,0.1,0.2,0.1,0.4c0,0.1,0,0.3-0.1,0.4
		s-0.2,0.2-0.3,0.3S948,290.2,947.8,290.2z"/>
	<path d="M643.7,316l-0.2-0.2c0.1-0.1,0.2-0.3,0.3-0.5c0.1-0.2,0.1-0.4,0.2-0.6c0-0.2,0.1-0.4,0.1-0.6c-0.2,0-0.3-0.1-0.5-0.2
		c-0.1-0.1-0.2-0.3-0.2-0.5s0.1-0.4,0.2-0.5c0.1-0.1,0.3-0.2,0.5-0.2s0.4,0.1,0.6,0.2c0.2,0.2,0.2,0.4,0.2,0.7
		c0,0.4-0.1,0.8-0.4,1.3C644.3,315.4,644,315.7,643.7,316z M645.8,316l-0.2-0.2c0.1-0.1,0.2-0.3,0.3-0.5s0.1-0.4,0.2-0.6
		c0.1-0.2,0.1-0.4,0.1-0.6c-0.2,0-0.3-0.1-0.5-0.2c-0.1-0.1-0.2-0.3-0.2-0.5s0.1-0.4,0.2-0.5c0.1-0.1,0.3-0.2,0.5-0.2
		s0.4,0.1,0.6,0.2c0.2,0.2,0.2,0.4,0.2,0.7c0,0.4-0.1,0.8-0.4,1.3S646.1,315.7,645.8,316z"/>
	<path d="M652,313.9v-16.5h3.5c1.2,0,2.3,0.2,3.3,0.6s1.9,1,2.6,1.8s1.3,1.6,1.8,2.6s0.6,2.1,0.6,3.2c0,1.2-0.2,2.2-0.6,3.2
		c-0.4,1-1,1.9-1.8,2.6c-0.8,0.8-1.6,1.3-2.6,1.8c-1,0.4-2.1,0.6-3.3,0.6L652,313.9L652,313.9z M653.1,312.9h2.4c1,0,2-0.2,2.8-0.6
		c0.9-0.4,1.7-0.9,2.3-1.5c0.7-0.7,1.2-1.4,1.5-2.3c0.4-0.9,0.6-1.8,0.6-2.9c0-1-0.2-2-0.5-2.9c-0.4-0.9-0.9-1.6-1.5-2.3
		c-0.7-0.7-1.4-1.2-2.3-1.5c-0.9-0.4-1.8-0.6-2.8-0.6h-2.5V312.9z"/>
	<path d="M668.4,301.6c-0.1,0-0.3,0-0.4-0.1c-0.1-0.1-0.2-0.2-0.3-0.3s-0.1-0.2-0.1-0.4c0-0.1,0-0.3,0.1-0.4
		c0.1-0.1,0.2-0.2,0.3-0.3s0.2-0.1,0.4-0.1c0.1,0,0.3,0,0.4,0.1c0.1,0.1,0.2,0.2,0.3,0.3c0.1,0.1,0.1,0.2,0.1,0.4
		c0,0.1,0,0.3-0.1,0.4c-0.1,0.1-0.2,0.2-0.3,0.3C668.7,301.6,668.5,301.6,668.4,301.6z M667.9,313.9v-10.2h1.1v10.2H667.9z"/>
	<path d="M677.8,319.4c-1.3,0-2.4-0.3-3.2-0.8c-0.9-0.5-1.5-1.2-2-2.2l0.9-0.4c0.3,0.8,0.9,1.4,1.6,1.8c0.8,0.5,1.7,0.7,2.7,0.7
		c0.8,0,1.6-0.2,2.2-0.5c0.7-0.3,1.2-0.8,1.6-1.4c0.4-0.6,0.6-1.4,0.6-2.3v-2.8c-0.4,0.8-1,1.5-1.8,2s-1.6,0.7-2.6,0.7
		s-1.8-0.2-2.6-0.7s-1.4-1.1-1.8-1.9c-0.5-0.8-0.7-1.8-0.7-2.8c0-1.1,0.2-2,0.7-2.8c0.4-0.8,1.1-1.5,1.8-1.9s1.6-0.7,2.6-0.7
		s1.8,0.2,2.6,0.7c0.8,0.5,1.4,1.1,1.8,2v-2.4h1.1v10.5c0,1.2-0.2,2.1-0.7,2.9s-1.1,1.4-1.9,1.7
		C679.9,319.2,678.9,319.4,677.8,319.4z M678,313.3c0.8,0,1.6-0.2,2.2-0.6c0.6-0.4,1.1-0.9,1.5-1.6c0.4-0.7,0.5-1.5,0.5-2.3
		c0-0.9-0.2-1.6-0.5-2.3c-0.4-0.7-0.9-1.2-1.5-1.6c-0.6-0.4-1.4-0.6-2.2-0.6s-1.6,0.2-2.2,0.6c-0.6,0.4-1.1,0.9-1.5,1.6
		c-0.4,0.7-0.5,1.5-0.5,2.3c0,0.9,0.2,1.6,0.5,2.3c0.3,0.7,0.9,1.2,1.5,1.6C676.5,313.1,677.2,313.3,678,313.3z"/>
	<path d="M688.3,301.6c-0.1,0-0.3,0-0.4-0.1c-0.1-0.1-0.2-0.2-0.3-0.3s-0.1-0.2-0.1-0.4c0-0.1,0-0.3,0.1-0.4
		c0.1-0.1,0.2-0.2,0.3-0.3s0.2-0.1,0.4-0.1c0.1,0,0.3,0,0.4,0.1c0.1,0.1,0.2,0.2,0.3,0.3c0.1,0.1,0.1,0.2,0.1,0.4
		c0,0.1,0,0.3-0.1,0.4c-0.1,0.1-0.2,0.2-0.3,0.3C688.5,301.6,688.4,301.6,688.3,301.6z M687.7,313.9v-10.2h1.1v10.2H687.7z"/>
	<path d="M695.6,314.2c-0.7,0-1.3-0.2-1.6-0.7c-0.4-0.5-0.6-1.2-0.6-2v-7h-1v-0.8h1v-3.8h1.1v3.8h2.6v0.8h-2.6v6.9
		c0,0.6,0.1,1.1,0.4,1.4c0.2,0.3,0.6,0.5,1,0.5c0.4,0,0.8-0.1,1.1-0.3l0.3,0.9c-0.2,0.1-0.4,0.2-0.7,0.3
		C696.3,314.3,695.9,314.2,695.6,314.2z"/>
	<path d="M704.8,314.2c-1,0-1.8-0.2-2.6-0.7c-0.8-0.5-1.4-1.1-1.8-1.9c-0.4-0.8-0.7-1.8-0.7-2.8c0-1.1,0.2-2,0.7-2.8
		c0.4-0.8,1.1-1.5,1.8-1.9c0.7-0.4,1.6-0.7,2.6-0.7s1.9,0.2,2.6,0.7c0.8,0.5,1.4,1.1,1.8,2v-2.4h1.1v10.2h-1.1v-2.4
		c-0.4,0.8-1,1.5-1.8,2S705.8,314.2,704.8,314.2z M705,313.3c0.8,0,1.6-0.2,2.2-0.6c0.6-0.4,1.1-0.9,1.5-1.6
		c0.4-0.7,0.5-1.5,0.5-2.3c0-0.9-0.2-1.7-0.5-2.3c-0.4-0.7-0.9-1.2-1.5-1.6c-0.6-0.4-1.4-0.6-2.2-0.6c-0.8,0-1.6,0.2-2.2,0.6
		c-0.6,0.4-1.1,0.9-1.5,1.6c-0.4,0.7-0.5,1.5-0.5,2.3c0,0.9,0.2,1.6,0.5,2.3c0.3,0.7,0.9,1.2,1.5,1.6
		C703.5,313.1,704.2,313.3,705,313.3z"/>
	<path d="M714.8,313.9v-17.2h1.1v17.2H714.8z"/>
	<path d="M725.9,313.9v-16.5h1.1v16.5H725.9z"/>
	<path d="M736.4,314.2c-1,0-1.8-0.2-2.6-0.7s-1.4-1.1-1.8-1.9c-0.4-0.8-0.7-1.8-0.7-2.8c0-1.1,0.2-2,0.7-2.8
		c0.4-0.8,1.1-1.5,1.8-1.9c0.7-0.4,1.6-0.7,2.6-0.7s1.8,0.2,2.6,0.7c0.8,0.5,1.4,1.1,1.8,2v-9.3h1.1V314h-1.1v-2.4
		c-0.4,0.8-1,1.5-1.8,2C738.3,314,737.4,314.2,736.4,314.2z M736.7,313.3c0.8,0,1.6-0.2,2.2-0.6c0.6-0.4,1.1-0.9,1.5-1.6
		c0.4-0.7,0.5-1.5,0.5-2.3c0-0.9-0.2-1.6-0.5-2.3c-0.4-0.7-0.9-1.2-1.5-1.6c-0.6-0.4-1.4-0.6-2.2-0.6c-0.8,0-1.5,0.2-2.2,0.6
		s-1.1,0.9-1.5,1.6c-0.4,0.7-0.5,1.5-0.5,2.3c0,0.9,0.2,1.6,0.5,2.3c0.3,0.7,0.9,1.2,1.5,1.6C735.1,313.1,735.8,313.3,736.7,313.3z"
		/>
	<path d="M751.2,314.2c-1.1,0-2-0.2-2.9-0.7c-0.9-0.5-1.5-1.1-2-1.9s-0.7-1.7-0.7-2.7c0-0.8,0.1-1.5,0.4-2.2s0.7-1.2,1.1-1.8
		c0.5-0.5,1.1-0.9,1.7-1.2c0.6-0.3,1.3-0.4,2.1-0.4c1,0,1.8,0.2,2.6,0.7c0.8,0.4,1.4,1.1,1.9,1.8c0.5,0.8,0.7,1.7,0.8,2.7
		c0,0.1,0,0.1,0,0.2c0,0,0,0.1,0,0.2h-9.6c0,0.9,0.2,1.6,0.6,2.3c0.4,0.7,0.9,1.2,1.6,1.6s1.5,0.6,2.3,0.6s1.6-0.2,2.3-0.5
		s1.2-0.9,1.6-1.5l0.8,0.4c-0.5,0.8-1.1,1.4-2,1.8C753.1,314,752.2,314.2,751.2,314.2z M746.7,308h8.5c-0.1-0.7-0.3-1.4-0.7-1.9
		c-0.4-0.6-0.9-1-1.5-1.3c-0.6-0.3-1.3-0.5-2-0.5s-1.4,0.2-2,0.5c-0.6,0.3-1.1,0.8-1.5,1.3C747,306.7,746.8,307.3,746.7,308z"/>
	<path d="M764.1,314.2c-1,0-1.8-0.2-2.6-0.7s-1.4-1.1-1.8-1.9c-0.4-0.8-0.7-1.8-0.7-2.8c0-1.1,0.2-2,0.7-2.8
		c0.4-0.8,1.1-1.5,1.8-1.9c0.7-0.4,1.6-0.7,2.6-0.7s1.9,0.2,2.6,0.7c0.8,0.5,1.4,1.1,1.8,2v-2.4h1.1v10.2h-1.1v-2.4
		c-0.4,0.8-1,1.5-1.8,2S765.1,314.2,764.1,314.2z M764.3,313.3c0.8,0,1.6-0.2,2.2-0.6c0.6-0.4,1.1-0.9,1.5-1.6
		c0.4-0.7,0.5-1.5,0.5-2.3c0-0.9-0.2-1.7-0.5-2.3c-0.4-0.7-0.9-1.2-1.5-1.6c-0.6-0.4-1.4-0.6-2.2-0.6c-0.8,0-1.6,0.2-2.2,0.6
		c-0.6,0.4-1.1,0.9-1.5,1.6c-0.4,0.7-0.5,1.5-0.5,2.3c0,0.9,0.2,1.6,0.5,2.3c0.3,0.7,0.9,1.2,1.5,1.6
		C762.8,313.1,763.5,313.3,764.3,313.3z"/>
	<path d="M776.2,314.2c-0.7,0-1.3-0.2-1.6-0.7c-0.4-0.5-0.6-1.2-0.6-2v-7h-1v-0.8h1v-3.8h1.1v3.8h2.6v0.8h-2.6v6.9
		c0,0.6,0.1,1.1,0.4,1.4c0.2,0.3,0.6,0.5,1,0.5c0.4,0,0.8-0.1,1.1-0.3l0.3,0.9c-0.2,0.1-0.4,0.2-0.7,0.3
		C776.9,314.3,776.5,314.2,776.2,314.2z"/>
	<path d="M781.6,301.6c-0.1,0-0.3,0-0.4-0.1c-0.1-0.1-0.2-0.2-0.3-0.3c-0.1-0.1-0.1-0.2-0.1-0.4c0-0.1,0-0.3,0.1-0.4
		c0.1-0.1,0.2-0.2,0.3-0.3c0.1-0.1,0.2-0.1,0.4-0.1c0.1,0,0.3,0,0.4,0.1c0.1,0.1,0.2,0.2,0.3,0.3c0.1,0.1,0.1,0.2,0.1,0.4
		c0,0.1,0,0.3-0.1,0.4c-0.1,0.1-0.2,0.2-0.3,0.3C781.9,301.6,781.8,301.6,781.6,301.6z M781.1,313.9v-10.2h1.1v10.2H781.1z"/>
	<path d="M791.5,314.2c-1.1,0-2-0.2-2.8-0.7s-1.5-1.1-2-1.9s-0.7-1.8-0.7-2.8c0-1.1,0.2-2,0.7-2.8s1.2-1.5,2-1.9
		c0.8-0.5,1.8-0.7,2.8-0.7s2,0.2,2.8,0.7s1.5,1.1,2,1.9s0.7,1.8,0.7,2.8c0,1.1-0.2,2-0.7,2.8s-1.2,1.5-2,1.9
		S792.5,314.2,791.5,314.2z M791.5,313.3c0.9,0,1.6-0.2,2.3-0.6s1.2-0.9,1.6-1.6c0.4-0.7,0.6-1.4,0.6-2.3s-0.2-1.6-0.6-2.3
		c-0.4-0.7-0.9-1.2-1.6-1.6s-1.4-0.6-2.3-0.6c-0.9,0-1.6,0.2-2.3,0.6c-0.7,0.4-1.2,0.9-1.6,1.6c-0.4,0.7-0.6,1.4-0.6,2.3
		s0.2,1.6,0.6,2.3c0.4,0.7,0.9,1.2,1.6,1.6S790.6,313.3,791.5,313.3z"/>
	<path d="M800.7,313.9v-10.2h1.1v1.5c0.3-0.5,0.7-0.9,1.3-1.3c0.6-0.3,1.3-0.5,2.2-0.5c0.8,0,1.5,0.2,2,0.5c0.6,0.3,1,0.8,1.3,1.4
		s0.5,1.4,0.5,2.3v6.4H808v-6.2c0-1.1-0.3-2-0.8-2.6s-1.3-0.9-2.2-0.9c-0.7,0-1.2,0.1-1.7,0.4s-0.8,0.6-1.1,1s-0.4,0.9-0.4,1.4v6.8
		L800.7,313.9L800.7,313.9z"/>
	<path d="M814.3,300.4c-0.2,0-0.4-0.1-0.6-0.2c-0.2-0.2-0.2-0.4-0.2-0.7c0-0.4,0.1-0.8,0.4-1.3c0.2-0.5,0.5-0.8,0.8-1.1l0.2,0.2
		c-0.1,0.1-0.2,0.3-0.3,0.4c-0.1,0.1-0.1,0.4-0.2,0.6c0,0.2-0.1,0.4-0.1,0.6c0.2,0,0.4,0.1,0.5,0.2c0.1,0.1,0.2,0.3,0.2,0.5
		s-0.1,0.4-0.2,0.5C814.7,300.2,814.5,300.4,814.3,300.4z M816.4,300.4c-0.2,0-0.4-0.1-0.6-0.2c-0.2-0.2-0.2-0.4-0.2-0.7
		c0-0.4,0.1-0.8,0.4-1.3c0.2-0.5,0.5-0.8,0.8-1.1l0.2,0.2c-0.1,0.1-0.2,0.3-0.3,0.4s-0.1,0.4-0.2,0.6c0,0.2-0.1,0.4-0.1,0.6
		c0.2,0,0.4,0.1,0.5,0.2c0.1,0.1,0.2,0.3,0.2,0.5s-0.1,0.4-0.2,0.5S816.6,300.4,816.4,300.4z"/>
	<path d="M826.9,313.9v-17.2h1.1V308l4.2-4.3h1.4l-4.6,4.8l4.8,5.5h-1.4l-4.4-5.1v5.1h-1.1V313.9z"/>
	<path d="M842.3,314.2c-1.1,0-2-0.2-2.8-0.7s-1.5-1.1-2-1.9s-0.7-1.8-0.7-2.8c0-1.1,0.2-2,0.7-2.8s1.2-1.5,2-1.9
		c0.8-0.5,1.8-0.7,2.8-0.7s2,0.2,2.8,0.7s1.5,1.1,2,1.9s0.7,1.8,0.7,2.8c0,1.1-0.2,2-0.7,2.8s-1.2,1.5-2,1.9
		S843.3,314.2,842.3,314.2z M842.3,313.3c0.9,0,1.6-0.2,2.3-0.6s1.2-0.9,1.6-1.6c0.4-0.7,0.6-1.4,0.6-2.3s-0.2-1.6-0.6-2.3
		c-0.4-0.7-0.9-1.2-1.6-1.6c-0.7-0.4-1.4-0.6-2.3-0.6c-0.9,0-1.6,0.2-2.3,0.6s-1.2,0.9-1.6,1.6c-0.4,0.7-0.6,1.4-0.6,2.3
		s0.2,1.6,0.6,2.3c0.4,0.7,0.9,1.2,1.6,1.6S841.4,313.3,842.3,313.3z M839.9,300.3c-0.2,0-0.4-0.1-0.5-0.2s-0.2-0.3-0.2-0.5
		s0.1-0.4,0.2-0.5c0.1-0.1,0.3-0.2,0.5-0.2s0.4,0.1,0.5,0.2s0.2,0.3,0.2,0.5s-0.1,0.4-0.2,0.5C840.3,300.3,840.1,300.3,839.9,300.3z
		 M844.6,300.3c-0.2,0-0.4-0.1-0.5-0.2s-0.2-0.3-0.2-0.5s0.1-0.4,0.2-0.5c0.1-0.1,0.3-0.2,0.5-0.2s0.4,0.1,0.5,0.2s0.2,0.3,0.2,0.5
		s-0.1,0.4-0.2,0.5C845,300.3,844.8,300.3,844.6,300.3z"/>
	<path d="M851.6,313.9v-10.2h1.1v1.5c0.3-0.5,0.7-0.9,1.3-1.3c0.6-0.3,1.3-0.5,2.2-0.5c0.8,0,1.5,0.2,2,0.5c0.6,0.3,1,0.8,1.3,1.4
		s0.5,1.4,0.5,2.3v6.4h-1.1v-6.2c0-1.1-0.3-2-0.8-2.6s-1.3-0.9-2.2-0.9c-0.7,0-1.2,0.1-1.7,0.4s-0.8,0.6-1.1,1s-0.4,0.9-0.4,1.4v6.8
		L851.6,313.9L851.6,313.9z"/>
	<path d="M864.2,313.9v-10.2h1.1v1.5c0.3-0.5,0.7-0.9,1.3-1.3c0.6-0.3,1.3-0.5,2.2-0.5c0.8,0,1.5,0.2,2,0.5c0.6,0.3,1,0.8,1.3,1.4
		s0.5,1.4,0.5,2.3v6.4h-1.1v-6.2c0-1.1-0.3-2-0.8-2.6s-1.3-0.9-2.2-0.9c-0.7,0-1.2,0.1-1.7,0.4s-0.8,0.6-1.1,1s-0.4,0.9-0.4,1.4v6.8
		L864.2,313.9L864.2,313.9z"/>
	<path d="M879,314.2c-0.7,0-1.3-0.2-1.6-0.7c-0.4-0.5-0.6-1.2-0.6-2v-7h-1v-0.8h1v-3.8h1.1v3.8h2.6v0.8h-2.6v6.9
		c0,0.6,0.1,1.1,0.3,1.4s0.6,0.5,1,0.5s0.8-0.1,1.1-0.3l0.3,0.9c-0.2,0.1-0.4,0.2-0.7,0.3C879.6,314.3,879.3,314.2,879,314.2z"/>
	<path d="M888.6,314.2c-1.1,0-2-0.2-2.9-0.7c-0.8-0.5-1.5-1.1-2-1.9s-0.7-1.7-0.7-2.7c0-0.8,0.1-1.5,0.4-2.2
		c0.3-0.7,0.7-1.2,1.2-1.8s1.1-0.9,1.7-1.2c0.6-0.3,1.3-0.4,2.1-0.4c1,0,1.8,0.2,2.6,0.7s1.4,1.1,1.9,1.8c0.5,0.8,0.7,1.7,0.8,2.7
		c0,0.1,0,0.1,0,0.2c0,0,0,0.1,0,0.2h-9.6c0,0.9,0.2,1.6,0.6,2.3c0.4,0.7,0.9,1.2,1.6,1.6s1.5,0.6,2.3,0.6s1.6-0.2,2.3-0.5
		s1.2-0.9,1.6-1.5l0.8,0.4c-0.5,0.8-1.1,1.4-2,1.8C890.5,314,889.6,314.2,888.6,314.2z M884.2,308h8.5c-0.1-0.7-0.3-1.4-0.7-1.9
		c-0.4-0.6-0.9-1-1.5-1.3s-1.3-0.5-2-0.5s-1.4,0.2-2,0.5s-1.1,0.8-1.5,1.3C884.5,306.7,884.3,307.3,884.2,308z"/>
	<path d="M907.1,314.2c-1.1,0-2-0.2-2.9-0.7c-0.8-0.5-1.5-1.1-2-1.9s-0.7-1.7-0.7-2.7c0-0.8,0.1-1.5,0.4-2.2
		c0.3-0.7,0.7-1.2,1.2-1.8s1.1-0.9,1.7-1.2c0.6-0.3,1.3-0.4,2.1-0.4c1,0,1.8,0.2,2.6,0.7s1.4,1.1,1.9,1.8c0.5,0.8,0.7,1.7,0.8,2.7
		c0,0.1,0,0.1,0,0.2c0,0,0,0.1,0,0.2h-9.6c0,0.9,0.2,1.6,0.6,2.3c0.4,0.7,0.9,1.2,1.6,1.6s1.5,0.6,2.3,0.6s1.6-0.2,2.3-0.5
		s1.2-0.9,1.6-1.5l0.8,0.4c-0.5,0.8-1.1,1.4-2,1.8C909.1,314,908.1,314.2,907.1,314.2z M902.7,308h8.5c-0.1-0.7-0.3-1.4-0.7-1.9
		c-0.4-0.6-0.9-1-1.5-1.3s-1.3-0.5-2-0.5s-1.4,0.2-2,0.5s-1.1,0.8-1.5,1.3C903,306.7,902.8,307.3,902.7,308z"/>
	<path d="M918,314.2c-0.7,0-1.3-0.2-1.6-0.7c-0.4-0.5-0.6-1.2-0.6-2v-7h-1v-0.8h1v-3.8h1.1v3.8h2.6v0.8h-2.6v6.9
		c0,0.6,0.1,1.1,0.4,1.4c0.2,0.3,0.6,0.5,1,0.5s0.8-0.1,1.1-0.3l0.3,0.9c-0.2,0.1-0.4,0.2-0.7,0.3
		C918.7,314.3,918.3,314.2,918,314.2z"/>
	<path d="M926.3,313.9l-4.9-10.2h1.2l4,8.6l3.4-8.6h0.7l3.4,8.6l4-8.6h1.2l-4.9,10.2h-0.7l-3.4-8.5l-3.4,8.5H926.3z"/>
	<path d="M946.6,314.2c-1,0-1.8-0.2-2.6-0.7s-1.4-1.1-1.8-1.9c-0.5-0.8-0.7-1.8-0.7-2.8c0-1.1,0.2-2,0.7-2.8
		c0.4-0.8,1.1-1.5,1.8-1.9c0.8-0.5,1.6-0.7,2.6-0.7s1.9,0.2,2.6,0.7c0.8,0.5,1.4,1.1,1.8,2v-2.4h1.1v10.2h-1v-2.4
		c-0.4,0.8-1,1.5-1.8,2C948.5,314,947.6,314.2,946.6,314.2z M946.9,313.3c0.8,0,1.6-0.2,2.2-0.6c0.6-0.4,1.1-0.9,1.5-1.6
		s0.5-1.5,0.5-2.3c0-0.9-0.2-1.7-0.5-2.3c-0.4-0.7-0.9-1.2-1.5-1.6s-1.4-0.6-2.2-0.6s-1.6,0.2-2.2,0.6c-0.6,0.4-1.1,0.9-1.5,1.6
		s-0.6,1.5-0.6,2.3c0,0.9,0.2,1.6,0.6,2.3c0.4,0.7,0.9,1.2,1.5,1.6S946,313.3,946.9,313.3z"/>
	<path d="M959.1,314.2c-0.8,0-1.6-0.2-2.2-0.7c-0.6-0.4-1.1-1.1-1.5-1.9l0.6-0.5c0.3,0.7,0.7,1.2,1.2,1.6s1.1,0.6,1.8,0.6
		c0.5,0,0.9-0.1,1.3-0.3c0.4-0.2,0.7-0.5,0.9-0.8c0.2-0.4,0.3-0.8,0.3-1.3c0-0.4-0.1-0.8-0.3-1s-0.5-0.5-0.9-0.6
		c-0.4-0.2-0.9-0.4-1.5-0.6c-0.4-0.2-0.9-0.4-1.3-0.6c-0.4-0.2-0.8-0.5-1-0.8c-0.3-0.3-0.4-0.8-0.4-1.3s0.1-0.9,0.4-1.3
		c0.3-0.4,0.6-0.7,1.1-0.9c0.5-0.2,1-0.3,1.6-0.3s1.1,0.1,1.6,0.4s0.9,0.7,1.3,1.1l-0.6,0.6c-0.5-0.9-1.3-1.3-2.3-1.3
		c-0.6,0-1.1,0.2-1.5,0.5s-0.6,0.8-0.6,1.3c0,0.4,0.1,0.7,0.3,0.9s0.5,0.4,0.9,0.6s0.8,0.3,1.2,0.5c0.6,0.2,1.2,0.5,1.6,0.7
		c0.5,0.2,0.8,0.5,1.1,0.9c0.2,0.3,0.4,0.8,0.4,1.4c0,0.7-0.2,1.2-0.5,1.7s-0.7,0.9-1.3,1.1C960.4,314.1,959.8,314.2,959.1,314.2z"
		/>
	<path d="M739.4,337.9v-9.4h-1v-0.8h1v-3.9c0-0.7,0.1-1.3,0.3-1.8c0.2-0.5,0.5-0.9,0.9-1.1c0.4-0.3,0.9-0.4,1.4-0.4
		c0.3,0,0.7,0,1,0.1s0.5,0.2,0.8,0.4l-0.4,0.8c-0.3-0.2-0.7-0.4-1.2-0.4c-0.4,0-0.7,0.1-1,0.3c-0.3,0.2-0.4,0.4-0.6,0.8
		c-0.1,0.3-0.2,0.8-0.2,1.2v4h2.7v0.8h-2.7v9.4H739.4z"/>
	<path d="M750.2,338.2c-1.5,0-2.5-0.3-3.2-1c-0.6-0.7-0.9-1.8-0.9-3.5v-6.1h1.1v5.9c0,1.3,0.2,2.3,0.7,2.9s1.2,0.9,2.3,0.9
		c1.1,0,1.9-0.3,2.3-0.9c0.4-0.6,0.7-1.5,0.7-2.9v-5.9h1.1v6.1c0,1.6-0.3,2.8-0.9,3.5C752.8,337.9,751.7,338.2,750.2,338.2z
		 M747.8,324.6c-0.2,0-0.4-0.1-0.5-0.2c-0.1-0.1-0.2-0.3-0.2-0.5s0.1-0.4,0.2-0.5c0.1-0.1,0.3-0.2,0.5-0.2s0.4,0.1,0.5,0.2
		c0.1,0.1,0.2,0.3,0.2,0.5s-0.1,0.4-0.2,0.5C748.2,324.6,748,324.6,747.8,324.6z M752.5,324.6c-0.2,0-0.4-0.1-0.5-0.2
		c-0.1-0.1-0.2-0.3-0.2-0.5s0.1-0.4,0.2-0.5c0.1-0.1,0.3-0.2,0.5-0.2s0.4,0.1,0.5,0.2c0.1,0.1,0.2,0.3,0.2,0.5s-0.1,0.4-0.2,0.5
		C752.9,324.5,752.7,324.6,752.5,324.6z"/>
	<path d="M758.6,337.9v-10.2h1.1v1.5c0.3-0.6,0.7-1.1,1.2-1.4s1.1-0.5,1.8-0.5c0.3,0,0.6,0,0.9,0.1s0.5,0.1,0.8,0.2l-0.4,0.9
		c-0.2-0.1-0.4-0.2-0.7-0.2c-0.2,0-0.5-0.1-0.7-0.1c-0.5,0-0.9,0.1-1.4,0.4s-0.8,0.6-1.1,1s-0.4,0.8-0.4,1.3v7L758.6,337.9
		L758.6,337.9z"/>
	<path d="M776.7,338.2c-1,0-1.8-0.2-2.6-0.7s-1.4-1.1-1.8-1.9c-0.4-0.8-0.7-1.8-0.7-2.8c0-1.1,0.2-2,0.7-2.8
		c0.4-0.8,1.1-1.5,1.8-1.9c0.7-0.4,1.6-0.7,2.6-0.7s1.8,0.2,2.6,0.7c0.8,0.5,1.4,1.1,1.8,2v-9.3h1.1V338h-1.1v-2.4
		c-0.4,0.8-1,1.5-1.8,2C778.5,338,777.7,338.2,776.7,338.2z M776.9,337.3c0.8,0,1.6-0.2,2.2-0.6c0.6-0.4,1.1-0.9,1.5-1.6
		c0.4-0.7,0.5-1.5,0.5-2.3c0-0.9-0.2-1.6-0.5-2.3c-0.4-0.7-0.9-1.2-1.5-1.6c-0.6-0.4-1.4-0.6-2.2-0.6c-0.8,0-1.5,0.2-2.2,0.6
		s-1.1,0.9-1.5,1.6c-0.4,0.7-0.5,1.5-0.5,2.3c0,0.9,0.2,1.6,0.5,2.3c0.3,0.7,0.9,1.2,1.5,1.6C775.4,337.1,776.1,337.3,776.9,337.3z"
		/>
	<path d="M787.2,325.6c-0.1,0-0.3,0-0.4-0.1c-0.1-0.1-0.2-0.2-0.3-0.3c-0.1-0.1-0.1-0.2-0.1-0.4c0-0.1,0-0.3,0.1-0.4
		c0.1-0.1,0.2-0.2,0.3-0.3c0.1-0.1,0.2-0.1,0.4-0.1c0.1,0,0.3,0,0.4,0.1c0.1,0.1,0.2,0.2,0.3,0.3c0.1,0.1,0.1,0.2,0.1,0.4
		c0,0.1,0,0.3-0.1,0.4c-0.1,0.1-0.2,0.2-0.3,0.3C787.4,325.6,787.3,325.6,787.2,325.6z M786.6,337.9v-10.2h1.1v10.2H786.6z"/>
	<path d="M796.9,338.2c-0.8,0-1.5-0.1-2.2-0.4s-1.3-0.6-1.8-1.1s-0.9-1.1-1.2-1.7c-0.3-0.7-0.4-1.4-0.4-2.2c0-0.8,0.1-1.5,0.4-2.2
		s0.7-1.2,1.2-1.7s1.1-0.9,1.8-1.1c0.7-0.2,1.4-0.4,2.2-0.4c0.7,0,1.3,0.1,1.9,0.3c0.6,0.2,1.1,0.5,1.6,0.9l-0.5,0.7
		c-0.8-0.6-1.8-1-2.9-1c-0.9,0-1.7,0.2-2.4,0.6s-1.2,0.9-1.6,1.6c-0.4,0.7-0.6,1.5-0.6,2.3c0,0.9,0.2,1.6,0.6,2.3
		c0.4,0.7,0.9,1.2,1.6,1.6s1.5,0.6,2.4,0.6c0.6,0,1.1-0.1,1.6-0.2c0.5-0.2,0.9-0.4,1.3-0.7l0.5,0.7c-0.5,0.4-1,0.6-1.6,0.8
		C798.3,338.1,797.6,338.2,796.9,338.2z"/>
	<path d="M803.8,337.9v-17.2h1.1v8.4c0.3-0.5,0.7-0.9,1.3-1.3c0.6-0.3,1.3-0.5,2.2-0.5c0.8,0,1.5,0.2,2,0.5c0.6,0.3,1,0.8,1.3,1.4
		s0.5,1.4,0.5,2.3v6.4h-1.1v-6.2c0-1.1-0.3-2-0.8-2.6s-1.3-0.9-2.2-0.9c-0.7,0-1.2,0.1-1.7,0.4s-0.8,0.6-1.1,1.1
		c-0.3,0.4-0.4,0.9-0.4,1.4v6.8L803.8,337.9L803.8,337.9z"/>
	<path d="M824.1,338.2c-0.8,0-1.6-0.2-2.2-0.7c-0.6-0.4-1.1-1.1-1.5-1.9l0.6-0.5c0.3,0.7,0.7,1.2,1.2,1.6s1.1,0.6,1.8,0.6
		c0.5,0,0.9-0.1,1.3-0.3c0.4-0.2,0.7-0.5,0.9-0.8c0.2-0.4,0.4-0.8,0.4-1.3c0-0.4-0.1-0.8-0.3-1s-0.5-0.5-0.9-0.6
		c-0.4-0.2-0.9-0.4-1.4-0.6c-0.4-0.2-0.9-0.4-1.3-0.6s-0.8-0.5-1-0.8c-0.3-0.3-0.4-0.8-0.4-1.3s0.1-0.9,0.4-1.3s0.6-0.7,1.1-0.9
		c0.5-0.2,1-0.3,1.6-0.3s1.1,0.1,1.6,0.4s0.9,0.7,1.3,1.1l-0.6,0.6c-0.5-0.9-1.3-1.3-2.3-1.3c-0.6,0-1.1,0.2-1.5,0.5
		s-0.6,0.8-0.6,1.3c0,0.4,0.1,0.7,0.3,0.9c0.2,0.2,0.5,0.4,0.9,0.6s0.8,0.3,1.2,0.5c0.6,0.2,1.2,0.5,1.6,0.7
		c0.5,0.2,0.8,0.5,1.1,0.9c0.2,0.3,0.4,0.8,0.4,1.4c0,0.7-0.2,1.2-0.5,1.7s-0.7,0.9-1.3,1.1S824.8,338.2,824.1,338.2z"/>
	<path d="M836.1,338.2c-1.1,0-2-0.2-2.9-0.7s-1.5-1.1-2-1.9s-0.7-1.7-0.7-2.7c0-0.8,0.1-1.5,0.4-2.2c0.3-0.7,0.7-1.2,1.1-1.8
		c0.5-0.5,1.1-0.9,1.7-1.2c0.6-0.3,1.3-0.4,2.1-0.4c1,0,1.8,0.2,2.6,0.7c0.8,0.4,1.4,1.1,1.9,1.8c0.5,0.8,0.7,1.7,0.8,2.7
		c0,0.1,0,0.1,0,0.2c0,0,0,0.1,0,0.2h-9.6c0,0.9,0.2,1.6,0.6,2.3c0.4,0.7,0.9,1.2,1.6,1.6c0.7,0.4,1.5,0.6,2.3,0.6s1.6-0.2,2.3-0.5
		s1.2-0.9,1.6-1.5l0.8,0.4c-0.5,0.8-1.1,1.4-2,1.8C838,338,837.1,338.2,836.1,338.2z M831.6,332h8.5c-0.1-0.7-0.3-1.4-0.7-1.9
		c-0.4-0.6-0.9-1-1.5-1.3s-1.3-0.5-2-0.5s-1.4,0.2-2,0.5s-1.1,0.8-1.5,1.3C832,330.7,831.7,331.3,831.6,332z"/>
	<path d="M845.2,325.6c-0.1,0-0.3,0-0.4-0.1c-0.1-0.1-0.2-0.2-0.3-0.3c-0.1-0.1-0.1-0.2-0.1-0.4c0-0.1,0-0.3,0.1-0.4
		s0.2-0.2,0.3-0.3s0.2-0.1,0.4-0.1c0.1,0,0.3,0,0.4,0.1c0.1,0.1,0.2,0.2,0.3,0.3c0.1,0.1,0.1,0.2,0.1,0.4c0,0.1,0,0.3-0.1,0.4
		s-0.2,0.2-0.3,0.3C845.5,325.6,845.4,325.6,845.2,325.6z M844.7,337.9v-10.2h1.1v10.2H844.7z"/>
	<path d="M850.3,337.9v-10.2h1.1v1.5c0.3-0.5,0.7-0.9,1.3-1.3c0.6-0.3,1.3-0.5,2.2-0.5c0.8,0,1.5,0.2,2,0.5c0.6,0.3,1,0.8,1.3,1.4
		s0.5,1.4,0.5,2.3v6.4h-1.1v-6.2c0-1.1-0.3-2-0.8-2.6s-1.3-0.9-2.2-0.9c-0.7,0-1.2,0.1-1.7,0.4s-0.8,0.6-1.1,1s-0.4,0.9-0.4,1.4v6.8
		L850.3,337.9L850.3,337.9z"/>
	<path d="M864.4,338.2c-0.1,0-0.3,0-0.4-0.1c-0.1-0.1-0.2-0.2-0.3-0.3s-0.1-0.3-0.1-0.4s0-0.3,0.1-0.4s0.2-0.2,0.3-0.3
		c0.1-0.1,0.2-0.1,0.4-0.1c0.1,0,0.3,0,0.4,0.1c0.1,0.1,0.2,0.2,0.3,0.3c0.1,0.1,0.1,0.2,0.1,0.4c0,0.1,0,0.3-0.1,0.4
		s-0.2,0.2-0.3,0.3C864.6,338.2,864.5,338.2,864.4,338.2z"/>
	<path d="M685.8,362.2c-0.9,0-1.6-0.1-2.3-0.4c-0.6-0.3-1.2-0.6-1.6-1c-0.4-0.4-0.8-0.8-1-1.1c-0.2-0.4-0.4-0.6-0.5-0.8l0.7-0.7
		c0.1,0.2,0.3,0.4,0.5,0.8c0.2,0.3,0.5,0.7,0.9,1c0.4,0.4,0.8,0.6,1.4,0.9c0.6,0.2,1.2,0.4,2,0.4c0.7,0,1.4-0.1,2-0.4
		c0.6-0.3,1.1-0.7,1.5-1.2c0.4-0.5,0.5-1.2,0.5-1.9c0-0.6-0.1-1.2-0.4-1.6s-0.6-0.8-1-1.1c-0.4-0.3-0.9-0.6-1.4-0.8
		c-0.5-0.2-1.1-0.4-1.7-0.6c-0.4-0.1-0.8-0.3-1.2-0.5c-0.4-0.2-0.9-0.5-1.3-0.8c-0.4-0.3-0.7-0.7-1-1.2s-0.4-1-0.4-1.7
		c0-0.6,0.1-1.2,0.3-1.7s0.5-1,0.9-1.4c0.4-0.4,0.9-0.7,1.4-0.9c0.5-0.2,1.1-0.3,1.8-0.3s1.3,0.1,1.8,0.3c0.5,0.2,1,0.5,1.4,0.9
		c0.4,0.4,0.7,0.7,0.9,1.1l-0.6,0.7c-0.2-0.3-0.4-0.6-0.7-0.9c-0.3-0.3-0.7-0.5-1.2-0.7s-1-0.3-1.6-0.3c-0.7,0-1.4,0.2-1.9,0.5
		s-0.9,0.7-1.2,1.3c-0.3,0.5-0.4,1-0.4,1.6c0,0.5,0.1,1,0.3,1.3c0.2,0.4,0.5,0.7,0.8,0.9c0.3,0.2,0.7,0.4,1.1,0.6
		c0.4,0.2,0.8,0.3,1.2,0.4c0.6,0.2,1.2,0.5,1.8,0.7c0.6,0.3,1.1,0.6,1.6,0.9s0.9,0.8,1.1,1.3c0.3,0.5,0.4,1.2,0.4,2
		c0,1-0.2,1.8-0.7,2.5s-1.1,1.2-1.8,1.5C687.6,362.1,686.8,362.2,685.8,362.2z"/>
	<path d="M699.6,362.2c-0.8,0-1.5-0.1-2.2-0.4s-1.3-0.6-1.8-1.1s-0.9-1.1-1.2-1.7c-0.3-0.7-0.4-1.4-0.4-2.2c0-0.8,0.1-1.5,0.4-2.2
		s0.7-1.2,1.2-1.7s1.1-0.9,1.8-1.1c0.7-0.2,1.4-0.4,2.2-0.4c0.7,0,1.3,0.1,1.9,0.3c0.6,0.2,1.1,0.5,1.6,0.9l-0.5,0.7
		c-0.8-0.6-1.8-1-2.9-1c-0.9,0-1.7,0.2-2.4,0.6s-1.2,0.9-1.6,1.6c-0.4,0.7-0.6,1.5-0.6,2.3c0,0.9,0.2,1.6,0.6,2.3
		c0.4,0.7,0.9,1.2,1.6,1.6s1.5,0.6,2.4,0.6c0.6,0,1.1-0.1,1.6-0.2c0.5-0.2,0.9-0.4,1.3-0.7l0.5,0.7c-0.5,0.4-1,0.6-1.6,0.8
		C700.9,362.1,700.3,362.2,699.6,362.2z"/>
	<path d="M706.5,361.9v-17.2h1.1v8.4c0.3-0.5,0.7-0.9,1.3-1.3c0.6-0.3,1.3-0.5,2.2-0.5c0.8,0,1.5,0.2,2,0.5c0.6,0.3,1,0.8,1.3,1.4
		s0.5,1.4,0.5,2.3v6.4h-1.1v-6.2c0-1.1-0.3-2-0.8-2.6s-1.3-0.9-2.2-0.9c-0.7,0-1.2,0.1-1.7,0.4s-0.8,0.6-1.1,1.1
		c-0.3,0.4-0.4,0.9-0.4,1.4v6.8L706.5,361.9L706.5,361.9z"/>
	<path d="M723.5,362.2c-1,0-1.8-0.2-2.6-0.7c-0.8-0.5-1.4-1.1-1.8-1.9c-0.4-0.8-0.7-1.8-0.7-2.8c0-1.1,0.2-2,0.7-2.8
		c0.4-0.8,1.1-1.5,1.8-1.9c0.7-0.4,1.6-0.7,2.6-0.7s1.9,0.2,2.6,0.7c0.8,0.5,1.4,1.1,1.8,2v-2.4h1.1v10.2h-1.1v-2.4
		c-0.4,0.8-1,1.5-1.8,2S724.4,362.2,723.5,362.2z M723.7,361.3c0.8,0,1.6-0.2,2.2-0.6c0.6-0.4,1.1-0.9,1.5-1.6
		c0.4-0.7,0.5-1.5,0.5-2.3c0-0.9-0.2-1.7-0.5-2.3c-0.4-0.7-0.9-1.2-1.5-1.6c-0.6-0.4-1.4-0.6-2.2-0.6c-0.8,0-1.6,0.2-2.2,0.6
		c-0.6,0.4-1.1,0.9-1.5,1.6c-0.4,0.7-0.5,1.5-0.5,2.3c0,0.9,0.2,1.6,0.5,2.3c0.3,0.7,0.9,1.2,1.5,1.6
		C722.1,361.1,722.9,361.3,723.7,361.3z"/>
	<path d="M737.3,362.2c-1.5,0-2.5-0.3-3.2-1c-0.6-0.7-0.9-1.8-0.9-3.5v-6.1h1.1v5.9c0,1.3,0.2,2.3,0.7,2.9s1.2,0.9,2.3,0.9
		s1.9-0.3,2.3-0.9c0.4-0.6,0.7-1.5,0.7-2.9v-5.9h1.1v6.1c0,1.6-0.3,2.8-0.9,3.5C739.9,361.9,738.8,362.2,737.3,362.2z"/>
	<path d="M755.2,362.2c-1,0-1.8-0.2-2.6-0.7s-1.4-1.1-1.8-1.9c-0.4-0.8-0.7-1.8-0.7-2.8c0-1.1,0.2-2,0.7-2.8
		c0.4-0.8,1.1-1.5,1.8-1.9c0.7-0.4,1.6-0.7,2.6-0.7s1.8,0.2,2.6,0.7c0.8,0.5,1.4,1.1,1.8,2v-9.3h1.1V362h-1.1v-2.4
		c-0.4,0.8-1,1.5-1.8,2C757,362,756.2,362.2,755.2,362.2z M755.4,361.3c0.8,0,1.6-0.2,2.2-0.6c0.6-0.4,1.1-0.9,1.5-1.6
		c0.4-0.7,0.5-1.5,0.5-2.3c0-0.9-0.2-1.6-0.5-2.3c-0.4-0.7-0.9-1.2-1.5-1.6c-0.6-0.4-1.4-0.6-2.2-0.6c-0.8,0-1.5,0.2-2.2,0.6
		s-1.1,0.9-1.5,1.6c-0.4,0.7-0.5,1.5-0.5,2.3c0,0.9,0.2,1.6,0.5,2.3c0.3,0.7,0.9,1.2,1.5,1.6C753.9,361.1,754.6,361.3,755.4,361.3z"
		/>
	<path d="M770,362.2c-1.1,0-2-0.2-2.8-0.7s-1.5-1.1-2-1.9s-0.7-1.8-0.7-2.8c0-1.1,0.2-2,0.7-2.8s1.2-1.5,2-1.9
		c0.8-0.5,1.8-0.7,2.8-0.7s2,0.2,2.8,0.7s1.5,1.1,2,1.9s0.7,1.8,0.7,2.8c0,1.1-0.2,2-0.7,2.8s-1.2,1.5-2,1.9S771,362.2,770,362.2z
		 M770,361.3c0.9,0,1.6-0.2,2.3-0.6s1.2-0.9,1.6-1.6c0.4-0.7,0.6-1.4,0.6-2.3s-0.2-1.6-0.6-2.3c-0.4-0.7-0.9-1.2-1.6-1.6
		s-1.4-0.6-2.3-0.6c-0.9,0-1.6,0.2-2.3,0.6c-0.7,0.4-1.2,0.9-1.6,1.6c-0.4,0.7-0.6,1.4-0.6,2.3s0.2,1.6,0.6,2.3
		c0.4,0.7,0.9,1.2,1.6,1.6C768.4,361.1,769.1,361.3,770,361.3z"/>
	<path d="M784,362.2c-0.8,0-1.5-0.1-2.2-0.4s-1.3-0.6-1.8-1.1s-0.9-1.1-1.2-1.7c-0.3-0.7-0.4-1.4-0.4-2.2c0-0.8,0.1-1.5,0.4-2.2
		s0.7-1.2,1.2-1.7s1.1-0.9,1.8-1.1c0.7-0.2,1.4-0.4,2.2-0.4c0.7,0,1.3,0.1,1.9,0.3c0.6,0.2,1.1,0.5,1.6,0.9l-0.5,0.7
		c-0.8-0.6-1.8-1-2.9-1c-0.9,0-1.7,0.2-2.4,0.6c-0.7,0.4-1.2,0.9-1.6,1.6c-0.4,0.7-0.6,1.5-0.6,2.3c0,0.9,0.2,1.6,0.6,2.3
		c0.4,0.7,0.9,1.2,1.6,1.6s1.5,0.6,2.4,0.6c0.6,0,1.1-0.1,1.6-0.2c0.5-0.2,0.9-0.4,1.3-0.7l0.5,0.7c-0.5,0.4-1,0.6-1.6,0.8
		C785.4,362.1,784.7,362.2,784,362.2z"/>
	<path d="M790.9,361.9v-17.2h1.1v8.4c0.3-0.5,0.7-0.9,1.3-1.3c0.6-0.3,1.3-0.5,2.2-0.5c0.8,0,1.5,0.2,2,0.5c0.6,0.3,1,0.8,1.3,1.4
		s0.5,1.4,0.5,2.3v6.4h-1.2v-6.2c0-1.1-0.3-2-0.8-2.6s-1.3-0.9-2.2-0.9c-0.7,0-1.2,0.1-1.7,0.4s-0.8,0.6-1.1,1.1
		c-0.3,0.4-0.4,0.9-0.4,1.4v6.8L790.9,361.9L790.9,361.9z"/>
	<path d="M808.6,361.9v-10.2h1.1v1.5c0.4-0.6,0.9-1,1.4-1.3c0.6-0.3,1.2-0.5,2-0.5c0.9,0,1.6,0.2,2.2,0.6c0.6,0.4,1,0.9,1.3,1.6
		c0.4-0.7,0.9-1.2,1.5-1.6c0.6-0.4,1.4-0.6,2.2-0.6c0.7,0,1.4,0.1,1.9,0.4c0.6,0.3,1,0.7,1.3,1.3s0.5,1.3,0.5,2.1v6.7h-1.1v-6.4
		c0-1-0.3-1.8-0.8-2.4s-1.2-0.9-2.1-0.9c-0.6,0-1.2,0.1-1.6,0.4c-0.5,0.3-0.9,0.6-1.2,1c-0.3,0.4-0.4,0.8-0.4,1.3v7h-1.1v-6.6
		c0-0.9-0.3-1.7-0.8-2.3s-1.2-0.8-2.1-0.8c-0.6,0-1.1,0.1-1.6,0.4s-0.9,0.6-1.2,1c-0.3,0.4-0.5,0.8-0.5,1.2v7.1L808.6,361.9
		L808.6,361.9z"/>
	<path d="M832.7,362.2c-1,0-1.8-0.2-2.6-0.7s-1.4-1.1-1.8-1.9c-0.4-0.8-0.7-1.8-0.7-2.8c0-1.1,0.2-2,0.7-2.8
		c0.4-0.8,1.1-1.5,1.8-1.9s1.6-0.7,2.6-0.7s1.9,0.2,2.6,0.7c0.8,0.5,1.4,1.1,1.8,2v-2.4h1.1v10.2h-1.1v-2.4c-0.4,0.8-1,1.5-1.8,2
		S833.7,362.2,832.7,362.2z M832.9,361.3c0.8,0,1.6-0.2,2.2-0.6c0.6-0.4,1.1-0.9,1.5-1.6s0.5-1.5,0.5-2.3c0-0.9-0.2-1.7-0.5-2.3
		c-0.4-0.7-0.9-1.2-1.5-1.6s-1.4-0.6-2.2-0.6s-1.6,0.2-2.2,0.6c-0.6,0.4-1.1,0.9-1.5,1.6s-0.5,1.5-0.5,2.3c0,0.9,0.2,1.6,0.5,2.3
		c0.3,0.7,0.9,1.2,1.5,1.6C831.4,361.1,832.1,361.3,832.9,361.3z"/>
	<path d="M842.6,361.9v-17.2h1.1v17.2H842.6z"/>
	<path d="M856.6,361.9l-4.9-10.2h1.2l4,8.7l4-8.7h1.2l-4.9,10.2H856.6z"/>
	<path d="M870,362.2c-1.1,0-2-0.2-2.8-0.7s-1.5-1.1-2-1.9s-0.7-1.8-0.7-2.8c0-1.1,0.2-2,0.7-2.8s1.2-1.5,2-1.9
		c0.8-0.5,1.8-0.7,2.8-0.7c1.1,0,2,0.2,2.8,0.7s1.5,1.1,2,1.9s0.7,1.8,0.7,2.8c0,1.1-0.2,2-0.7,2.8s-1.2,1.5-2,1.9
		C872,362,871,362.2,870,362.2z M870,361.3c0.9,0,1.6-0.2,2.3-0.6s1.2-0.9,1.6-1.6c0.4-0.7,0.6-1.4,0.6-2.3s-0.2-1.6-0.6-2.3
		c-0.4-0.7-0.9-1.2-1.6-1.6s-1.4-0.6-2.3-0.6c-0.9,0-1.6,0.2-2.3,0.6s-1.2,0.9-1.6,1.6c-0.4,0.7-0.6,1.4-0.6,2.3s0.2,1.6,0.6,2.3
		c0.4,0.7,0.9,1.2,1.6,1.6C868.4,361.1,869.1,361.3,870,361.3z"/>
	<path d="M879.3,361.9v-10.2h1.1v1.5c0.3-0.6,0.7-1.1,1.2-1.4s1.1-0.5,1.8-0.5c0.3,0,0.6,0,0.9,0.1s0.5,0.1,0.8,0.2l-0.4,0.9
		c-0.2-0.1-0.4-0.2-0.7-0.2c-0.2,0-0.5-0.1-0.7-0.1c-0.5,0-0.9,0.1-1.4,0.4c-0.4,0.2-0.8,0.6-1.1,1s-0.4,0.8-0.4,1.3v7L879.3,361.9
		L879.3,361.9z"/>
	<path d="M893.4,362.2c-1,0-1.8-0.2-2.6-0.7s-1.4-1.1-1.8-2v2.4h-1.1v-17.2h1.1v9.3c0.4-0.8,1-1.5,1.8-2s1.6-0.7,2.6-0.7
		s1.8,0.2,2.6,0.7s1.4,1.1,1.8,1.9c0.4,0.8,0.7,1.8,0.7,2.8s-0.2,2-0.7,2.8s-1.1,1.5-1.8,1.9C895.2,362,894.3,362.2,893.4,362.2z
		 M893.2,361.3c0.8,0,1.5-0.2,2.2-0.6c0.6-0.4,1.1-0.9,1.5-1.6s0.5-1.5,0.5-2.3c0-0.9-0.2-1.6-0.5-2.3c-0.4-0.7-0.9-1.2-1.5-1.6
		s-1.4-0.6-2.2-0.6s-1.6,0.2-2.2,0.6c-0.6,0.4-1.1,0.9-1.5,1.6s-0.5,1.5-0.5,2.3c0,0.9,0.2,1.6,0.5,2.3c0.3,0.7,0.9,1.2,1.5,1.6
		C891.6,361.1,892.3,361.3,893.2,361.3z"/>
	<path d="M907,362.2c-1.1,0-2-0.2-2.9-0.7c-0.8-0.5-1.5-1.1-2-1.9s-0.7-1.7-0.7-2.7c0-0.8,0.1-1.5,0.4-2.2c0.3-0.7,0.7-1.2,1.2-1.8
		s1.1-0.9,1.7-1.2c0.6-0.3,1.3-0.4,2.1-0.4c1,0,1.8,0.2,2.6,0.7s1.4,1.1,1.9,1.8c0.5,0.8,0.7,1.7,0.8,2.7c0,0.1,0,0.1,0,0.2
		c0,0,0,0.1,0,0.2h-9.6c0,0.9,0.2,1.6,0.6,2.3c0.4,0.7,0.9,1.2,1.6,1.6c0.7,0.4,1.5,0.6,2.3,0.6s1.6-0.2,2.3-0.5s1.2-0.9,1.6-1.5
		l0.8,0.4c-0.5,0.8-1.1,1.4-2,1.8C908.9,362,908,362.2,907,362.2z M902.6,356h8.5c-0.1-0.7-0.3-1.4-0.7-1.9c-0.4-0.6-0.9-1-1.5-1.3
		s-1.3-0.5-2-0.5s-1.4,0.2-2,0.5s-1.1,0.8-1.5,1.3C902.9,354.7,902.7,355.3,902.6,356z"/>
	<path d="M916.2,349.6c-0.1,0-0.3,0-0.4-0.1c-0.1-0.1-0.2-0.2-0.3-0.3c-0.1-0.1-0.1-0.2-0.1-0.4c0-0.1,0-0.3,0.1-0.4
		s0.2-0.2,0.3-0.3s0.2-0.1,0.4-0.1c0.1,0,0.3,0,0.4,0.1c0.1,0.1,0.2,0.2,0.3,0.3s0.1,0.2,0.1,0.4c0,0.1,0,0.3-0.1,0.4
		s-0.2,0.2-0.3,0.3C916.4,349.6,916.3,349.6,916.2,349.6z M915.7,361.9v-10.2h1.1v10.2H915.7z"/>
	<path d="M922.6,362.2c-0.1,0-0.3,0-0.4-0.1c-0.1-0.1-0.2-0.2-0.3-0.3s-0.1-0.3-0.1-0.4s0-0.3,0.1-0.4s0.2-0.2,0.3-0.3
		c0.1-0.1,0.3-0.1,0.4-0.1c0.1,0,0.3,0,0.4,0.1c0.1,0.1,0.2,0.2,0.3,0.3s0.1,0.2,0.1,0.4c0,0.1,0,0.3-0.1,0.4s-0.2,0.2-0.3,0.3
		S922.7,362.2,922.6,362.2z M922.1,358.2l-0.1-13.5h1l-0.1,13.5H922.1z"/>
</g>
<g>
	<path class="st8" d="M212.8,296.6l-18.4-5.3c-5-2-6.4,10.4-8,27.7c-1.5,17.3-1.1,27.9,3,30.2c0.4,0.2,0.9,0.4,1.4,0.4l21.8,6.5
		L212.8,296.6z"/>
	<path class="st0" d="M205.9,188.2c0,0-29.6,48.8,0,87.4c11.6,5.1,64.3,10.3,70.7,0c3.9-7.7,15.3-57.8,4.4-87.4
		C271.5,184.3,226.5,175.3,205.9,188.2z"/>
	<circle class="st4" cx="274.5" cy="220" r="3.5"/>
	<circle class="st4" cx="237.4" cy="222" r="3.5"/>
	<path class="st5" d="M246.3,259.5c6.6,7,18.2,6.7,25.9-0.6"/>
	<path class="st0" d="M233.9,280.8v14c0,0,2.6,5.5,8.2,5.5c5.9,0,8.2-5.4,8.2-5.4v-13.6L233.9,280.8z"/>
	<polygon class="st6" points="211.1,362.8 221.6,428.2 231,428.2 230.1,372 253.1,372.5 256,428.2 264.9,428.2 269.6,364 	"/>
	<polygon class="st4" points="221.3,428.2 221.3,432.6 237.2,432.6 230.9,428.2 	"/>
	<polygon class="st4" points="255.6,428.2 255.6,432.6 270.7,432.6 264.8,428.2 	"/>
	<path class="st0" d="M204.2,381.8c-2-2-3.2-6-3.8-11.4H212C213.9,385.1,207.5,384.9,204.2,381.8z"/>
	<path class="st0" d="M278.7,375c-0.6,3.1-2.1,6.5-4.7,6.5c-2.6,0-4.6-1-4.6-4.2c0-0.8-0.4-6.5-0.2-7.2l0.6-5h9.1
		C279,369.1,279,372.8,278.7,375z"/>
	<path class="st7" d="M278.9,365.1h-9.1c0,0-57.8-2.9-57.8,5.2h-11.6c-2.8-24.3,6.7-75.1,6.7-75.1l26.8-0.2l40.1,0.2l4.6,60.3
		C278.7,358.2,278.8,361.7,278.9,365.1z"/>
	<g>
		<path class="st9" d="M250.3,288.5h10.4c0,0,10.1,0.5,13.3,6.7l-23.8-0.1L250.3,288.5z"/>
	</g>
	<path class="st4" d="M212,370.3"/>
	<path class="st9" d="M193,291.2c0,0,11.4-3.4,40.9-2.8v6.7l-26.8,0.1L193,291.2z"/>
	<line class="st1" x1="200.4" y1="370.3" x2="193" y2="370.3"/>
	<line class="st5" x1="212" y1="370.3" x2="220.3" y2="317.3"/>
	<line class="st5" x1="262.1" y1="316.4" x2="269.8" y2="365.1"/>
	<line class="st1" x1="285.8" y1="365.1" x2="278.9" y2="365.1"/>
	<path d="M181.4,267.8c-1.1-3.1-26.9-64.7-13.2-86.7c2.6-3,12-25.5,60.7-17.7c9.6,1.8,24.6,15.9,84.8,9c-6.4,3.7-29,16.7-29,16.7
		l2.5,8.8c0,0-49.1,7.4-70.1,3.3c-2.9,7.1-13.3,14.4-12.7,31.2c1.1,9,5.1,44.1,5.1,44.1s-7.8,15.5-20.6,5.9
		C185.7,278.6,181.4,267.8,181.4,267.8z"/>
</g>
</svg>
