<?xml version="1.0" encoding="utf-8"?>
<!-- Generator: Adobe Illustrator 26.0.1, SVG Export Plug-In . SVG Version: 6.00 Build 0)  -->
<svg version="1.1" id="Ebene_1" xmlns="http://www.w3.org/2000/svg" xmlns:xlink="http://www.w3.org/1999/xlink" x="0px" y="0px"
	 viewBox="0 0 1282 595.3" style="enable-background:new 0 0 1282 595.3;" xml:space="preserve">
<style type="text/css">
	.st0{fill:#3159A4;}
	.st1{opacity:0.9;fill:#FFE266;enable-background:new    ;}
	.st2{fill:#1D1D1B;}
	.st3{fill:none;stroke:#1D1D1B;stroke-width:0.75;stroke-miterlimit:10;}
	.st4{fill:#D94436;}
	.st5{fill:#222951;}
	.st6{fill:#009CBF;}
	.st7{fill:none;}
	.st8{opacity:0.9;fill:#FFE266;}
	.st9{fill:#FFFFFF;}
	.st10{opacity:0.9;fill:#FFC866;}
</style>
<g>
	<path class="st0" d="M212.8,296.6l-18.4-5.3c-5-2-6.4,10.4-8,27.7c-1.5,17.3-1.1,27.9,3,30.2c0.4,0.2,0.9,0.4,1.4,0.4l21.8,6.5
		L212.8,296.6z"/>
	<path class="st1" d="M205.9,188.2c0,0-29.6,48.8,0,87.4c11.6,5.1,64.3,10.3,70.7,0c3.9-7.7,15.3-57.8,4.4-87.4
		C271.5,184.3,226.5,175.3,205.9,188.2z"/>
	<circle class="st2" cx="274.5" cy="220" r="3.5"/>
	<circle class="st2" cx="237.4" cy="222" r="3.5"/>
	<path class="st3" d="M246.3,259.5c6.6,7,18.2,6.7,25.9-0.6"/>
	<path class="st1" d="M233.9,280.8v14c0,0,2.6,5.5,8.2,5.5c5.9,0,8.2-5.4,8.2-5.4v-13.6L233.9,280.8z"/>
	<polygon class="st4" points="211.1,362.8 221.6,428.2 231,428.2 230.1,372 253.1,372.5 256,428.2 264.9,428.2 269.6,364 	"/>
	<polygon class="st2" points="221.3,428.2 221.3,432.6 237.2,432.6 230.9,428.2 	"/>
	<polygon class="st2" points="255.6,428.2 255.6,432.6 270.7,432.6 264.8,428.2 	"/>
	<path class="st1" d="M204.2,381.8c-2-2-3.2-6-3.8-11.4H212C213.9,385.1,207.5,384.9,204.2,381.8z"/>
	<path class="st1" d="M278.7,375c-0.6,3.1-2.1,6.5-4.7,6.5c-2.6,0-4.6-1-4.6-4.2c0-0.8-0.4-6.5-0.2-7.2l0.6-5h9.1
		C279,369.1,279,372.8,278.7,375z"/>
	<path class="st5" d="M278.9,365.1h-9.1c0,0-57.8-2.9-57.8,5.2h-11.6c-2.8-24.3,6.7-75.1,6.7-75.1l26.8-0.2l40.1,0.2l4.6,60.3
		C278.7,358.2,278.8,361.7,278.9,365.1z"/>
	<g>
		<path class="st6" d="M250.3,288.5h10.4c0,0,10.1,0.5,13.3,6.7l-23.8-0.1L250.3,288.5z"/>
	</g>
	<path class="st2" d="M212,370.3"/>
	<path class="st6" d="M193,291.2c0,0,11.4-3.4,40.9-2.8v6.7l-26.8,0.1L193,291.2z"/>
	<line class="st7" x1="200.4" y1="370.3" x2="193" y2="370.3"/>
	<line class="st3" x1="212" y1="370.3" x2="220.3" y2="317.3"/>
	<line class="st3" x1="262.1" y1="316.4" x2="269.8" y2="365.1"/>
	<line class="st7" x1="285.8" y1="365.1" x2="278.9" y2="365.1"/>
	<path d="M181.4,267.8c-1.1-3.1-26.9-64.7-13.2-86.7c2.6-3,12-25.5,60.7-17.7c9.6,1.8,24.6,15.9,84.8,9c-6.4,3.7-29,16.7-29,16.7
		l2.5,8.8c0,0-49.1,7.4-70.1,3.3c-2.9,7.1-13.3,14.4-12.7,31.2c1.1,9,5.1,44.1,5.1,44.1s-7.8,15.5-20.6,5.9
		C185.7,278.6,181.4,267.8,181.4,267.8z"/>
</g>
<g>
	<path class="st8" d="M902.7,349.9c4.3-1.8,8.1-3.3,12-4.8c15.6-6.3,29.7-14,39.7-25.4c10.6-12.2,15.5-25.5,11.3-40.2
		c-3.5-12-11.5-22.2-22.2-31.2c-22.6-19.2-50.7-31.3-83.1-38c-19.8-4.1-40-6-60.4-6.6c-26.3-0.8-52.5-0.4-78.2,4.6
		c-27,5.3-51.3,14.4-71.4,29.6c-24.1,18.1-30.3,40.1-21.8,64.5c4.9,14.1,17.4,24.9,32,34c35.7,22.3,76.9,33.2,122.8,34
		c24.2,0.4,48.1-1.9,71.4-7.1c7.1-1.6,12.6-1,18.6,2c16.9,8.2,34.7,15,53.9,19.6c9,2.2,18,4.5,27.5,4.7c2.1,0.1,4.5-0.2,4.8-2
		c0.2-1.2-0.9-2.9-2.2-3.6c-3.5-2-7.4-3.8-11.3-5.5c-13.8-6.1-26.5-13.3-37.2-22.4C906.9,354.1,905,352,902.7,349.9z"/>
	<path class="st7" d="M902.7,349.9c2.2,2.1,4.1,4.2,6.3,6c10.6,9.2,23.4,16.3,37.2,22.4c3.9,1.7,7.7,3.5,11.3,5.5
		c1.3,0.7,2.3,2.5,2.2,3.6c-0.2,1.8-2.6,2.1-4.8,2c-9.6-0.2-18.5-2.5-27.5-4.7c-19.1-4.6-37-11.4-53.9-19.6c-6.1-3-11.5-3.6-18.6-2
		c-23.3,5.2-47.2,7.5-71.4,7.1c-45.8-0.8-87.1-11.7-122.8-34c-14.6-9.1-27-19.9-32-34c-8.5-24.4-2.2-46.3,21.8-64.5
		c20.1-15.1,44.4-24.3,71.4-29.6c25.7-5,51.9-5.4,78.2-4.6c20.4,0.6,40.6,2.6,60.4,6.6c32.4,6.6,60.5,18.8,83.1,38
		c10.6,9,18.7,19.2,22.2,31.2c4.3,14.6-0.6,27.9-11.3,40.2c-10,11.5-24.1,19.1-39.7,25.4C910.9,346.6,907.1,348.1,902.7,349.9z
		 M946.3,383.8c-1.4-0.7-2.8-1.4-4.3-2c-12.2-5.5-23.8-11.8-33.5-19.7c-3.9-3.2-7.5-6.7-10.7-10.3c-2.5-2.9-1.4-4.6,2.7-6.2
		c7.1-2.9,14.2-5.8,21.2-8.9c10.4-4.6,19.4-10.6,26.4-18.1c10.6-11.4,15.8-24,11.8-38c-3.3-11.4-11.1-21.1-21.3-29.6
		c-21.8-18.2-48.7-29.9-79.7-36.2c-24.9-5.1-50.3-6.8-76-6.8c-21,0-41.8,1.1-62.2,5.3c-26.8,5.6-50.8,15.1-69.9,31
		c-18.9,15.8-23.1,34.5-17.3,54.7c3.4,11.8,12.8,21.3,24.2,29.3c33,23.2,72.3,35,116.6,37.3c27.1,1.4,53.9-1,80-6.9
		c7.9-1.8,14-0.9,20.9,2.1c11.9,5.3,24.1,10.2,36.6,14.8C922.7,379.4,934.3,382.1,946.3,383.8z"/>
	<path class="st9" d="M938.6,250.9"/>
</g>
<g>
	<path class="st10" d="M1098.9,272.3c0,0,37,61.1,0,109.4c-14.5,6.4-80.5,12.9-88.5,0c-4.8-9.7-19.2-72.4-5.6-109.4
		C1016.8,267.4,1073.2,256.2,1098.9,272.3z"/>
	<circle class="st2" cx="1013.1" cy="312.1" r="4.4"/>
	<circle class="st2" cx="1059.5" cy="314.6" r="4.4"/>
	<path class="st3" d="M1015.9,360.8c8.3-8.7,22.8-8.4,32.5,0.8"/>
	<path class="st10" d="M1063.9,388.2v17.6c0,0-3.2,6.8-10.3,6.8c-7.3,0-10.3-6.8-10.3-6.8v-17L1063.9,388.2z"/>
	<polygon class="st4" points="1092.4,490.9 1079.2,572.8 1067.5,572.8 1068.6,502.4 1039.9,503.1 1036.2,572.8 1025.1,572.8 
		1019.2,492.4 	"/>
	<polygon class="st2" points="1079.7,572.8 1079.7,578.2 1059.8,578.2 1067.6,572.8 	"/>
	<polygon class="st2" points="1036.7,572.8 1036.7,578.2 1017.8,578.2 1025.3,572.8 	"/>
	<path class="st10" d="M1101.1,514.6c2.6-2.4,4-7.6,4.8-14.3h-14.6C1088.9,518.8,1097,518.5,1101.1,514.6z"/>
	<path class="st10" d="M1007.9,506.2c0.7,3.9,2.7,8.1,5.9,8.1c3.2,0,5.8-1.3,5.8-5.3c0-1,0.5-8.1,0.2-9l-0.7-6.2h-11.4
		C1007.4,498.7,1007.4,503.4,1007.9,506.2z"/>
	<path class="st5" d="M1007.5,493.7h11.4c0,0,72.3-3.6,72.3,6.6h14.6c3.4-30.5-8.5-94.1-8.5-94.1l-33.5-0.3l-50.2,0.2l-5.8,75.4
		C1007.9,485.1,1007.6,489.5,1007.5,493.7z"/>
	<path class="st2" d="M1091.3,500.3"/>
	<line class="st7" x1="1105.9" y1="500.3" x2="1115.1" y2="500.3"/>
	<line class="st3" x1="1091.3" y1="500.3" x2="1080.9" y2="433.9"/>
	<line class="st3" x1="1028.6" y1="432.7" x2="1019" y2="493.7"/>
	<line class="st7" x1="999" y1="493.7" x2="1007.5" y2="493.7"/>
	<g>
		<path d="M1001.2,283.5c0,0,39.6,6.2,58.3,2.4c0.6,0.4,31.3,4.6,46.7,1.1c0.2-0.9,2.5-20.1-17-27.9c-5-1.9-31.1-8-54,2.1
			c-2.5,0.9-18.5,3.6-20.8,3.6C1006.7,267.7,1004,267.7,1001.2,283.5z"/>
		<ellipse transform="matrix(0.9219 -0.3874 0.3874 0.9219 -15.0975 449.6353)" cx="1107.8" cy="262.3" rx="15.6" ry="12.2"/>
	</g>
	<path class="st5" d="M1056.3,400c-10.6-0.3-22.8-0.5-36-0.4c-5.5,1.3-6.6,6.6-6.6,6.6l42.6,0V400z"/>
	<path class="st5" d="M1054.8,400.1c10.6-0.3,22.8-0.5,36-0.4c5.5,1.3,6.6,6.6,6.6,6.6l-42.6,0V400.1z"/>
</g>
<g>
	<path d="M660.9,259.9c-0.9,0-1.6-0.1-2.3-0.4c-0.6-0.3-1.2-0.6-1.6-1c-0.4-0.4-0.8-0.8-1-1.1c-0.2-0.4-0.4-0.6-0.5-0.8l0.7-0.7
		c0.1,0.2,0.3,0.4,0.5,0.8c0.2,0.3,0.5,0.7,0.9,1c0.4,0.4,0.8,0.6,1.4,0.9c0.6,0.2,1.2,0.4,2,0.4c0.7,0,1.4-0.1,2-0.4
		s1.1-0.7,1.5-1.2c0.4-0.5,0.5-1.2,0.5-1.9c0-0.6-0.1-1.2-0.4-1.6s-0.6-0.8-1-1.1c-0.4-0.3-0.9-0.6-1.4-0.8
		c-0.5-0.2-1.1-0.4-1.7-0.6c-0.4-0.1-0.8-0.3-1.2-0.5c-0.4-0.2-0.9-0.5-1.3-0.8c-0.4-0.3-0.7-0.7-1-1.2c-0.3-0.5-0.4-1-0.4-1.7
		c0-0.6,0.1-1.2,0.3-1.7c0.2-0.5,0.5-1,0.9-1.4c0.4-0.4,0.9-0.7,1.4-0.9s1.1-0.3,1.8-0.3c0.7,0,1.3,0.1,1.8,0.3
		c0.5,0.2,1,0.5,1.4,0.9c0.4,0.4,0.7,0.7,0.9,1.1l-0.6,0.7c-0.2-0.3-0.4-0.6-0.7-0.9c-0.3-0.3-0.7-0.5-1.2-0.7s-1-0.3-1.6-0.3
		c-0.7,0-1.4,0.2-1.9,0.5c-0.5,0.3-0.9,0.7-1.2,1.3c-0.3,0.5-0.4,1-0.4,1.6c0,0.5,0.1,1,0.3,1.3c0.2,0.4,0.5,0.7,0.8,0.9
		c0.3,0.2,0.7,0.4,1.1,0.6s0.8,0.3,1.2,0.4c0.6,0.2,1.2,0.5,1.8,0.7c0.6,0.3,1.1,0.6,1.6,0.9s0.9,0.8,1.1,1.3c0.3,0.5,0.4,1.2,0.4,2
		c0,1-0.2,1.8-0.7,2.5c-0.5,0.7-1.1,1.2-1.8,1.5C662.8,259.7,661.9,259.9,660.9,259.9z"/>
	<path d="M674.8,259.9c-1.1,0-2-0.2-2.8-0.7c-0.8-0.5-1.5-1.1-2-1.9c-0.5-0.8-0.7-1.8-0.7-2.8c0-1.1,0.2-2,0.7-2.8
		c0.5-0.8,1.2-1.5,2-1.9c0.8-0.5,1.8-0.7,2.8-0.7s2,0.2,2.8,0.7s1.5,1.1,2,1.9c0.5,0.8,0.7,1.8,0.7,2.8c0,1.1-0.2,2-0.7,2.8
		c-0.5,0.8-1.2,1.5-2,1.9S675.9,259.9,674.8,259.9z M674.8,258.9c0.9,0,1.6-0.2,2.3-0.6c0.7-0.4,1.2-0.9,1.6-1.6
		c0.4-0.7,0.6-1.4,0.6-2.3c0-0.9-0.2-1.6-0.6-2.3c-0.4-0.7-0.9-1.2-1.6-1.6c-0.7-0.4-1.4-0.6-2.3-0.6s-1.6,0.2-2.3,0.6
		c-0.7,0.4-1.2,0.9-1.6,1.6c-0.4,0.7-0.6,1.4-0.6,2.3c0,0.9,0.2,1.6,0.6,2.3c0.4,0.7,0.9,1.2,1.6,1.6S674,258.9,674.8,258.9z"/>
	<path d="M682.8,259.6l8.1-9.3h-7.3v-0.9h9.3l-8.1,9.3h7.9v0.9H682.8z"/>
	<path d="M696.7,247.3c-0.1,0-0.3,0-0.4-0.1c-0.1-0.1-0.2-0.2-0.3-0.3c-0.1-0.1-0.1-0.2-0.1-0.4c0-0.1,0-0.3,0.1-0.4
		c0.1-0.1,0.2-0.2,0.3-0.3c0.1-0.1,0.2-0.1,0.4-0.1c0.1,0,0.3,0,0.4,0.1c0.1,0.1,0.2,0.2,0.3,0.3c0.1,0.1,0.1,0.2,0.1,0.4
		c0,0.1,0,0.3-0.1,0.4c-0.1,0.1-0.2,0.2-0.3,0.3C696.9,247.3,696.8,247.3,696.7,247.3z M696.1,259.6v-10.2h1.1v10.2H696.1z"/>
	<path d="M706.1,259.9c-1,0-1.8-0.2-2.6-0.7c-0.8-0.5-1.4-1.1-1.8-1.9c-0.4-0.8-0.7-1.8-0.7-2.8c0-1.1,0.2-2,0.7-2.8
		c0.4-0.8,1.1-1.5,1.8-1.9s1.6-0.7,2.6-0.7c1,0,1.9,0.2,2.6,0.7c0.8,0.5,1.4,1.1,1.8,2v-2.4h1.1v10.2h-1.1v-2.4
		c-0.4,0.8-1,1.5-1.8,2S707,259.9,706.1,259.9z M706.3,259c0.8,0,1.6-0.2,2.2-0.6s1.1-0.9,1.5-1.6s0.5-1.5,0.5-2.3
		c0-0.9-0.2-1.7-0.5-2.3c-0.4-0.7-0.9-1.2-1.5-1.6s-1.4-0.6-2.2-0.6s-1.6,0.2-2.2,0.6s-1.1,0.9-1.5,1.6c-0.4,0.7-0.5,1.5-0.5,2.3
		c0,0.9,0.2,1.6,0.5,2.3s0.9,1.2,1.5,1.6C704.7,258.8,705.5,259,706.3,259z"/>
	<path d="M716,259.6v-17.2h1.1v17.2H716z"/>
	<path d="M725.3,259.6l8.1-9.3h-7.3v-0.9h9.3l-8.1,9.3h7.9v0.9H725.3z"/>
	<path d="M742.6,259.9c-1.5,0-2.5-0.3-3.2-1c-0.6-0.7-0.9-1.8-0.9-3.5v-6.1h1.1v5.9c0,1.3,0.2,2.3,0.7,2.9c0.5,0.6,1.2,0.9,2.3,0.9
		c1.1,0,1.9-0.3,2.3-0.9s0.7-1.5,0.7-2.9v-5.9h1.1v6.1c0,1.6-0.3,2.8-0.9,3.5S744,259.9,742.6,259.9z"/>
	<path d="M758.6,259.9c-0.8,0-1.6-0.2-2.2-0.7c-0.6-0.4-1.1-1.1-1.5-1.9l0.6-0.5c0.3,0.7,0.7,1.2,1.2,1.6c0.5,0.4,1.1,0.6,1.8,0.6
		c0.5,0,0.9-0.1,1.3-0.3c0.4-0.2,0.7-0.5,0.9-0.8c0.2-0.4,0.4-0.8,0.4-1.3c0-0.4-0.1-0.8-0.3-1c-0.2-0.2-0.5-0.5-0.9-0.6
		c-0.4-0.2-0.9-0.4-1.4-0.6c-0.4-0.2-0.9-0.4-1.3-0.6c-0.4-0.2-0.8-0.5-1-0.8c-0.3-0.3-0.4-0.8-0.4-1.3c0-0.5,0.1-0.9,0.4-1.3
		c0.3-0.4,0.6-0.7,1.1-0.9s1-0.3,1.6-0.3c0.6,0,1.1,0.1,1.6,0.4c0.5,0.3,0.9,0.7,1.3,1.1l-0.6,0.6c-0.5-0.9-1.3-1.3-2.3-1.3
		c-0.6,0-1.1,0.2-1.5,0.5c-0.4,0.3-0.6,0.8-0.6,1.3c0,0.4,0.1,0.7,0.3,0.9c0.2,0.2,0.5,0.4,0.9,0.6s0.8,0.3,1.2,0.5
		c0.6,0.2,1.2,0.5,1.6,0.7c0.5,0.2,0.8,0.5,1.1,0.9c0.2,0.3,0.4,0.8,0.4,1.4c0,0.7-0.2,1.2-0.5,1.7s-0.7,0.9-1.3,1.1
		S759.3,259.9,758.6,259.9z"/>
	<path d="M770.6,259.9c-1.1,0-2-0.2-2.9-0.7s-1.5-1.1-2-1.9c-0.5-0.8-0.7-1.7-0.7-2.7c0-0.8,0.1-1.5,0.4-2.2
		c0.3-0.7,0.7-1.2,1.1-1.8c0.5-0.5,1.1-0.9,1.7-1.2c0.6-0.3,1.3-0.4,2.1-0.4c1,0,1.8,0.2,2.6,0.7c0.8,0.4,1.4,1.1,1.9,1.8
		c0.5,0.8,0.7,1.7,0.8,2.7c0,0.1,0,0.1,0,0.2c0,0,0,0.1,0,0.2h-9.6c0,0.9,0.2,1.6,0.6,2.3c0.4,0.7,0.9,1.2,1.6,1.6
		c0.7,0.4,1.5,0.6,2.3,0.6c0.8,0,1.6-0.2,2.3-0.5s1.2-0.9,1.6-1.5l0.8,0.4c-0.5,0.8-1.1,1.4-2,1.8
		C772.6,259.7,771.7,259.9,770.6,259.9z M766.2,253.7h8.5c-0.1-0.7-0.3-1.4-0.7-1.9c-0.4-0.6-0.9-1-1.5-1.3c-0.6-0.3-1.3-0.5-2-0.5
		c-0.7,0-1.4,0.2-2,0.5s-1.1,0.8-1.5,1.3C766.5,252.3,766.3,253,766.2,253.7z"/>
	<path d="M779.8,247.3c-0.1,0-0.3,0-0.4-0.1c-0.1-0.1-0.2-0.2-0.3-0.3c-0.1-0.1-0.1-0.2-0.1-0.4c0-0.1,0-0.3,0.1-0.4
		c0.1-0.1,0.2-0.2,0.3-0.3c0.1-0.1,0.2-0.1,0.4-0.1c0.1,0,0.3,0,0.4,0.1c0.1,0.1,0.2,0.2,0.3,0.3c0.1,0.1,0.1,0.2,0.1,0.4
		c0,0.1,0,0.3-0.1,0.4c-0.1,0.1-0.2,0.2-0.3,0.3C780.1,247.3,779.9,247.3,779.8,247.3z M779.3,259.6v-10.2h1.1v10.2H779.3z"/>
	<path d="M784.8,259.6v-10.2h1.1v1.5c0.3-0.5,0.7-0.9,1.3-1.3c0.6-0.3,1.3-0.5,2.2-0.5c0.8,0,1.5,0.2,2,0.5c0.6,0.3,1,0.8,1.3,1.4
		c0.3,0.6,0.5,1.4,0.5,2.3v6.4h-1.1v-6.2c0-1.1-0.3-2-0.8-2.6s-1.3-0.9-2.2-0.9c-0.7,0-1.2,0.1-1.7,0.4c-0.5,0.3-0.8,0.6-1.1,1
		c-0.3,0.4-0.4,0.9-0.4,1.4v6.8H784.8z"/>
	<path d="M803,247.3c-0.1,0-0.3,0-0.4-0.1c-0.1-0.1-0.2-0.2-0.3-0.3c-0.1-0.1-0.1-0.2-0.1-0.4c0-0.1,0-0.3,0.1-0.4
		c0.1-0.1,0.2-0.2,0.3-0.3c0.1-0.1,0.2-0.1,0.4-0.1c0.1,0,0.3,0,0.4,0.1c0.1,0.1,0.2,0.2,0.3,0.3c0.1,0.1,0.1,0.2,0.1,0.4
		c0,0.1,0,0.3-0.1,0.4c-0.1,0.1-0.2,0.2-0.3,0.3C803.3,247.3,803.2,247.3,803,247.3z M802.5,259.6v-10.2h1.1v10.2H802.5z"/>
	<path d="M810.6,259.9c-0.8,0-1.6-0.2-2.2-0.7c-0.6-0.4-1.1-1.1-1.5-1.9l0.6-0.5c0.3,0.7,0.7,1.2,1.2,1.6c0.5,0.4,1.1,0.6,1.8,0.6
		c0.5,0,0.9-0.1,1.3-0.3c0.4-0.2,0.7-0.5,0.9-0.8c0.2-0.4,0.4-0.8,0.4-1.3c0-0.4-0.1-0.8-0.3-1c-0.2-0.2-0.5-0.5-0.9-0.6
		c-0.4-0.2-0.9-0.4-1.4-0.6c-0.4-0.2-0.9-0.4-1.3-0.6c-0.4-0.2-0.8-0.5-1-0.8c-0.3-0.3-0.4-0.8-0.4-1.3c0-0.5,0.1-0.9,0.4-1.3
		c0.3-0.4,0.6-0.7,1.1-0.9s1-0.3,1.6-0.3c0.6,0,1.1,0.1,1.6,0.4c0.5,0.3,0.9,0.7,1.3,1.1l-0.6,0.6c-0.5-0.9-1.3-1.3-2.3-1.3
		c-0.6,0-1.1,0.2-1.5,0.5c-0.4,0.3-0.6,0.8-0.6,1.3c0,0.4,0.1,0.7,0.3,0.9c0.2,0.2,0.5,0.4,0.9,0.6s0.8,0.3,1.2,0.5
		c0.6,0.2,1.2,0.5,1.6,0.7c0.5,0.2,0.8,0.5,1.1,0.9c0.2,0.3,0.4,0.8,0.4,1.4c0,0.7-0.2,1.2-0.5,1.7s-0.7,0.9-1.3,1.1
		S811.3,259.9,810.6,259.9z"/>
	<path d="M820,259.9c-0.7,0-1.3-0.2-1.6-0.7c-0.4-0.5-0.6-1.2-0.6-2v-7h-1v-0.8h1v-3.8h1.1v3.8h2.6v0.8h-2.6v6.9
		c0,0.6,0.1,1.1,0.4,1.4c0.2,0.3,0.6,0.5,1,0.5c0.4,0,0.8-0.1,1.1-0.3l0.3,0.9c-0.2,0.1-0.4,0.2-0.7,0.3S820.3,259.9,820,259.9z"/>
	<path d="M828.4,265.1c-0.3,0-0.6,0-0.9-0.1c-0.3-0.1-0.5-0.2-0.7-0.4l0.3-0.8c0.3,0.3,0.7,0.4,1.2,0.4c1.1,0,1.7-0.7,1.7-2.2v-12.6
		h1.1V262c0,1-0.2,1.8-0.7,2.3C829.9,264.8,829.3,265.1,828.4,265.1z M830.5,247.3c-0.1,0-0.3,0-0.4-0.1c-0.1-0.1-0.2-0.2-0.3-0.3
		c-0.1-0.1-0.1-0.2-0.1-0.4c0-0.1,0-0.3,0.1-0.4c0.1-0.1,0.2-0.2,0.3-0.3c0.1-0.1,0.2-0.1,0.4-0.1s0.3,0,0.4,0.1
		c0.1,0.1,0.2,0.2,0.3,0.3c0.1,0.1,0.1,0.2,0.1,0.4s0,0.3-0.1,0.4c-0.1,0.1-0.2,0.2-0.3,0.3C830.7,247.3,830.6,247.3,830.5,247.3z"
		/>
	<path d="M839.9,259.9c-1,0-1.8-0.2-2.6-0.7c-0.8-0.5-1.4-1.1-1.8-1.9c-0.4-0.8-0.7-1.8-0.7-2.8c0-1.1,0.2-2,0.7-2.8
		c0.4-0.8,1.1-1.5,1.8-1.9s1.6-0.7,2.6-0.7c1,0,1.9,0.2,2.6,0.7c0.8,0.5,1.4,1.1,1.8,2v-2.4h1.1v10.2h-1.1v-2.4
		c-0.4,0.8-1,1.5-1.8,2S840.8,259.9,839.9,259.9z M840.1,259c0.8,0,1.6-0.2,2.2-0.6s1.1-0.9,1.5-1.6s0.5-1.5,0.5-2.3
		c0-0.9-0.2-1.7-0.5-2.3c-0.4-0.7-0.9-1.2-1.5-1.6s-1.4-0.6-2.2-0.6s-1.6,0.2-2.2,0.6s-1.1,0.9-1.5,1.6c-0.4,0.7-0.5,1.5-0.5,2.3
		c0,0.9,0.2,1.6,0.5,2.3s0.9,1.2,1.5,1.6C838.5,258.8,839.3,259,840.1,259z"/>
	<path d="M859.3,265.1c-1.3,0-2.3-0.3-3.2-0.8c-0.9-0.5-1.5-1.2-2-2.2l0.9-0.4c0.3,0.8,0.9,1.4,1.6,1.8c0.8,0.5,1.7,0.7,2.7,0.7
		c0.8,0,1.6-0.2,2.2-0.5c0.7-0.3,1.2-0.8,1.6-1.4c0.4-0.6,0.6-1.4,0.6-2.3v-2.8c-0.4,0.8-1,1.5-1.8,2c-0.8,0.5-1.6,0.7-2.6,0.7
		c-1,0-1.8-0.2-2.6-0.7c-0.8-0.5-1.4-1.1-1.8-1.9c-0.5-0.8-0.7-1.8-0.7-2.8c0-1.1,0.2-2,0.7-2.8c0.4-0.8,1.1-1.5,1.8-1.9
		s1.6-0.7,2.6-0.7c1,0,1.8,0.2,2.6,0.7c0.8,0.5,1.4,1.1,1.8,2v-2.4h1.1v10.5c0,1.2-0.2,2.1-0.7,2.9c-0.5,0.8-1.1,1.4-1.9,1.7
		S860.4,265.1,859.3,265.1z M859.5,259c0.8,0,1.6-0.2,2.2-0.6s1.1-0.9,1.5-1.6s0.5-1.5,0.5-2.3c0-0.9-0.2-1.6-0.5-2.3
		c-0.4-0.7-0.9-1.2-1.5-1.6s-1.4-0.6-2.2-0.6c-0.8,0-1.5,0.2-2.2,0.6c-0.6,0.4-1.1,0.9-1.5,1.6c-0.4,0.7-0.5,1.5-0.5,2.3
		c0,0.9,0.2,1.6,0.5,2.3s0.9,1.2,1.5,1.6C858,258.8,858.7,259,859.5,259z"/>
	<path d="M873.2,259.9c-1.5,0-2.5-0.3-3.2-1s-0.9-1.8-0.9-3.5v-6.1h1.1v5.9c0,1.3,0.2,2.3,0.7,2.9c0.5,0.6,1.2,0.9,2.3,0.9
		c1.1,0,1.9-0.3,2.3-0.9c0.5-0.6,0.7-1.5,0.7-2.9v-5.9h1.1v6.1c0,1.6-0.3,2.8-0.9,3.5C875.7,259.6,874.6,259.9,873.2,259.9z"/>
	<path d="M883.8,259.9c-0.7,0-1.3-0.2-1.6-0.7c-0.4-0.5-0.6-1.2-0.6-2v-7h-1v-0.8h1v-3.8h1.1v3.8h2.6v0.8h-2.6v6.9
		c0,0.6,0.1,1.1,0.4,1.4c0.2,0.3,0.6,0.5,1,0.5c0.4,0,0.8-0.1,1.1-0.3l0.3,0.9c-0.2,0.1-0.4,0.2-0.7,0.3S884.1,259.9,883.8,259.9z"
		/>
	<path d="M897.6,259.9c-1.5,0-2.5-0.3-3.2-1s-0.9-1.8-0.9-3.5v-6.1h1.1v5.9c0,1.3,0.2,2.3,0.7,2.9c0.5,0.6,1.2,0.9,2.3,0.9
		c1.1,0,1.9-0.3,2.3-0.9c0.5-0.6,0.7-1.5,0.7-2.9v-5.9h1.1v6.1c0,1.6-0.3,2.8-0.9,3.5C900.2,259.6,899.1,259.9,897.6,259.9z"/>
	<path d="M906,259.6v-10.2h1.1v1.5c0.3-0.5,0.7-0.9,1.3-1.3c0.6-0.3,1.3-0.5,2.2-0.5c0.8,0,1.5,0.2,2,0.5c0.6,0.3,1,0.8,1.3,1.4
		c0.3,0.6,0.5,1.4,0.5,2.3v6.4h-1.1v-6.2c0-1.1-0.3-2-0.8-2.6s-1.3-0.9-2.2-0.9c-0.7,0-1.2,0.1-1.7,0.4c-0.5,0.3-0.8,0.6-1.1,1
		c-0.3,0.4-0.4,0.9-0.4,1.4v6.8H906z"/>
	<path d="M923,259.9c-1,0-1.8-0.2-2.6-0.7c-0.8-0.5-1.4-1.1-1.8-1.9c-0.5-0.8-0.7-1.8-0.7-2.8c0-1.1,0.2-2,0.7-2.8
		c0.4-0.8,1.1-1.5,1.8-1.9s1.6-0.7,2.6-0.7c1,0,1.8,0.2,2.6,0.7c0.8,0.5,1.4,1.1,1.8,2v-9.3h1.1v17.2h-1.1v-2.4
		c-0.4,0.8-1,1.5-1.8,2C924.8,259.7,924,259.9,923,259.9z M923.2,259c0.8,0,1.6-0.2,2.2-0.6s1.1-0.9,1.5-1.6s0.5-1.5,0.5-2.3
		c0-0.9-0.2-1.6-0.5-2.3c-0.4-0.7-0.9-1.2-1.5-1.6s-1.4-0.6-2.2-0.6c-0.8,0-1.5,0.2-2.2,0.6s-1.1,0.9-1.5,1.6
		c-0.4,0.7-0.6,1.5-0.6,2.3c0,0.9,0.2,1.6,0.5,2.3s0.9,1.2,1.5,1.6C921.7,258.8,922.4,259,923.2,259z"/>
	<path d="M636.1,283.9c-0.8,0-1.6-0.2-2.2-0.7c-0.6-0.4-1.1-1.1-1.5-1.9l0.6-0.5c0.3,0.7,0.7,1.2,1.2,1.6c0.5,0.4,1.1,0.6,1.8,0.6
		c0.5,0,0.9-0.1,1.3-0.3c0.4-0.2,0.7-0.5,0.9-0.8c0.2-0.4,0.4-0.8,0.4-1.3c0-0.4-0.1-0.8-0.3-1c-0.2-0.2-0.5-0.5-0.9-0.6
		c-0.4-0.2-0.9-0.4-1.4-0.6c-0.4-0.2-0.9-0.4-1.3-0.6c-0.4-0.2-0.8-0.5-1-0.8c-0.3-0.3-0.4-0.8-0.4-1.3c0-0.5,0.1-0.9,0.4-1.3
		c0.3-0.4,0.6-0.7,1.1-0.9s1-0.3,1.6-0.3c0.6,0,1.1,0.1,1.6,0.4c0.5,0.3,0.9,0.7,1.3,1.1l-0.6,0.6c-0.5-0.9-1.3-1.3-2.3-1.3
		c-0.6,0-1.1,0.2-1.5,0.5c-0.4,0.3-0.6,0.8-0.6,1.3c0,0.4,0.1,0.7,0.3,0.9c0.2,0.2,0.5,0.4,0.9,0.6s0.8,0.3,1.2,0.5
		c0.6,0.2,1.2,0.5,1.6,0.7c0.5,0.2,0.8,0.5,1.1,0.9c0.2,0.3,0.4,0.8,0.4,1.4c0,0.7-0.2,1.2-0.5,1.7s-0.7,0.9-1.3,1.1
		S636.7,283.9,636.1,283.9z"/>
	<path d="M648,283.9c-0.8,0-1.5-0.1-2.2-0.4s-1.3-0.6-1.8-1.1c-0.5-0.5-0.9-1.1-1.2-1.7c-0.3-0.7-0.4-1.4-0.4-2.2s0.1-1.5,0.4-2.2
		c0.3-0.7,0.7-1.2,1.2-1.7c0.5-0.5,1.1-0.9,1.8-1.1s1.4-0.4,2.2-0.4c0.7,0,1.3,0.1,1.9,0.3c0.6,0.2,1.1,0.5,1.6,0.9l-0.5,0.7
		c-0.8-0.6-1.8-1-2.9-1c-0.9,0-1.7,0.2-2.4,0.6c-0.7,0.4-1.2,0.9-1.6,1.6c-0.4,0.7-0.6,1.5-0.6,2.3c0,0.9,0.2,1.6,0.6,2.3
		c0.4,0.7,0.9,1.2,1.6,1.6s1.5,0.6,2.4,0.6c0.6,0,1.1-0.1,1.6-0.2c0.5-0.2,0.9-0.4,1.3-0.7l0.5,0.7c-0.5,0.4-1,0.6-1.6,0.8
		C649.4,283.8,648.7,283.9,648,283.9z"/>
	<path d="M654.9,283.6v-17.2h1.1v8.4c0.3-0.5,0.7-0.9,1.3-1.3c0.6-0.3,1.3-0.5,2.2-0.5c0.8,0,1.5,0.2,2,0.5c0.6,0.3,1,0.8,1.3,1.4
		c0.3,0.6,0.5,1.4,0.5,2.3v6.4h-1.1v-6.2c0-1.1-0.3-2-0.8-2.6c-0.5-0.6-1.3-0.9-2.2-0.9c-0.7,0-1.2,0.1-1.7,0.4
		c-0.5,0.3-0.8,0.6-1.1,1.1c-0.3,0.4-0.4,0.9-0.4,1.4v6.8H654.9z"/>
	<path d="M672.3,283.9c-1.1,0-2-0.2-2.8-0.7c-0.8-0.5-1.5-1.1-2-1.9c-0.5-0.8-0.7-1.8-0.7-2.8c0-1.1,0.2-2,0.7-2.8
		c0.5-0.8,1.2-1.5,2-1.9c0.8-0.5,1.8-0.7,2.8-0.7s2,0.2,2.8,0.7s1.5,1.1,2,1.9c0.5,0.8,0.7,1.8,0.7,2.8c0,1.1-0.2,2-0.7,2.8
		c-0.5,0.8-1.2,1.5-2,1.9S673.4,283.9,672.3,283.9z M672.3,282.9c0.9,0,1.6-0.2,2.3-0.6c0.7-0.4,1.2-0.9,1.6-1.6
		c0.4-0.7,0.6-1.4,0.6-2.3c0-0.9-0.2-1.6-0.6-2.3c-0.4-0.7-0.9-1.2-1.6-1.6c-0.7-0.4-1.4-0.6-2.3-0.6s-1.6,0.2-2.3,0.6
		c-0.7,0.4-1.2,0.9-1.6,1.6c-0.4,0.7-0.6,1.4-0.6,2.3c0,0.9,0.2,1.6,0.6,2.3c0.4,0.7,0.9,1.2,1.6,1.6S671.5,282.9,672.3,282.9z
		 M670,270c-0.2,0-0.4-0.1-0.5-0.2c-0.1-0.1-0.2-0.3-0.2-0.5s0.1-0.4,0.2-0.5c0.1-0.1,0.3-0.2,0.5-0.2s0.4,0.1,0.5,0.2
		c0.1,0.1,0.2,0.3,0.2,0.5s-0.1,0.4-0.2,0.5C670.3,269.9,670.2,270,670,270z M674.7,270c-0.2,0-0.4-0.1-0.5-0.2
		c-0.1-0.1-0.2-0.3-0.2-0.5s0.1-0.4,0.2-0.5c0.1-0.1,0.3-0.2,0.5-0.2c0.2,0,0.4,0.1,0.5,0.2c0.1,0.1,0.2,0.3,0.2,0.5
		s-0.1,0.4-0.2,0.5C675.1,269.9,674.9,270,674.7,270z"/>
	<path d="M681.7,283.6v-10.2h1.1v1.5c0.3-0.5,0.7-0.9,1.3-1.3c0.6-0.3,1.3-0.5,2.2-0.5c0.8,0,1.5,0.2,2,0.5c0.6,0.3,1,0.8,1.3,1.4
		c0.3,0.6,0.5,1.4,0.5,2.3v6.4h-1.1v-6.2c0-1.1-0.3-2-0.8-2.6s-1.3-0.9-2.2-0.9c-0.7,0-1.2,0.1-1.7,0.4c-0.5,0.3-0.8,0.6-1.1,1
		c-0.3,0.4-0.4,0.9-0.4,1.4v6.8H681.7z"/>
	<path d="M695.2,285.8l-0.2-0.2c0.1-0.1,0.2-0.3,0.3-0.5c0.1-0.2,0.1-0.4,0.2-0.6c0-0.2,0.1-0.4,0.1-0.6c-0.2,0-0.4-0.1-0.5-0.3
		c-0.1-0.1-0.2-0.3-0.2-0.5c0-0.2,0.1-0.4,0.2-0.6c0.1-0.1,0.3-0.2,0.6-0.2c0.3,0,0.5,0.1,0.6,0.2s0.2,0.4,0.2,0.7
		c0,0.4-0.1,0.9-0.4,1.3C695.8,285.1,695.5,285.5,695.2,285.8z"/>
	<path d="M710.9,283.9c-1,0-1.8-0.2-2.6-0.7c-0.8-0.5-1.4-1.1-1.8-1.9c-0.4-0.8-0.7-1.8-0.7-2.8c0-1.1,0.2-2,0.7-2.8
		c0.4-0.8,1.1-1.5,1.8-1.9s1.6-0.7,2.6-0.7c1,0,1.8,0.2,2.6,0.7c0.8,0.5,1.4,1.1,1.8,2v-9.3h1.1v17.2h-1.1v-2.4
		c-0.4,0.8-1,1.5-1.8,2C712.7,283.7,711.9,283.9,710.9,283.9z M711.1,283c0.8,0,1.6-0.2,2.2-0.6s1.1-0.9,1.5-1.6s0.5-1.5,0.5-2.3
		c0-0.9-0.2-1.6-0.5-2.3c-0.4-0.7-0.9-1.2-1.5-1.6s-1.4-0.6-2.2-0.6c-0.8,0-1.5,0.2-2.2,0.6s-1.1,0.9-1.5,1.6
		c-0.4,0.7-0.5,1.5-0.5,2.3c0,0.9,0.2,1.6,0.5,2.3s0.9,1.2,1.5,1.6C709.6,282.8,710.3,283,711.1,283z"/>
	<path d="M725.7,283.9c-1.1,0-2-0.2-2.8-0.7c-0.8-0.5-1.5-1.1-2-1.9c-0.5-0.8-0.7-1.8-0.7-2.8c0-1.1,0.2-2,0.7-2.8
		c0.5-0.8,1.2-1.5,2-1.9c0.8-0.5,1.8-0.7,2.8-0.7s2,0.2,2.8,0.7s1.5,1.1,2,1.9c0.5,0.8,0.7,1.8,0.7,2.8c0,1.1-0.2,2-0.7,2.8
		c-0.5,0.8-1.2,1.5-2,1.9S726.7,283.9,725.7,283.9z M725.7,282.9c0.9,0,1.6-0.2,2.3-0.6c0.7-0.4,1.2-0.9,1.6-1.6
		c0.4-0.7,0.6-1.4,0.6-2.3c0-0.9-0.2-1.6-0.6-2.3c-0.4-0.7-0.9-1.2-1.6-1.6c-0.7-0.4-1.4-0.6-2.3-0.6s-1.6,0.2-2.3,0.6
		c-0.7,0.4-1.2,0.9-1.6,1.6c-0.4,0.7-0.6,1.4-0.6,2.3c0,0.9,0.2,1.6,0.6,2.3c0.4,0.7,0.9,1.2,1.6,1.6S724.8,282.9,725.7,282.9z"/>
	<path d="M739.7,283.9c-0.8,0-1.5-0.1-2.2-0.4s-1.3-0.6-1.8-1.1c-0.5-0.5-0.9-1.1-1.2-1.7c-0.3-0.7-0.4-1.4-0.4-2.2s0.1-1.5,0.4-2.2
		c0.3-0.7,0.7-1.2,1.2-1.7c0.5-0.5,1.1-0.9,1.8-1.1s1.4-0.4,2.2-0.4c0.7,0,1.3,0.1,1.9,0.3c0.6,0.2,1.1,0.5,1.6,0.9l-0.5,0.7
		c-0.8-0.6-1.8-1-2.9-1c-0.9,0-1.7,0.2-2.4,0.6c-0.7,0.4-1.2,0.9-1.6,1.6c-0.4,0.7-0.6,1.5-0.6,2.3c0,0.9,0.2,1.6,0.6,2.3
		c0.4,0.7,0.9,1.2,1.6,1.6s1.5,0.6,2.4,0.6c0.6,0,1.1-0.1,1.6-0.2c0.5-0.2,0.9-0.4,1.3-0.7l0.5,0.7c-0.5,0.4-1,0.6-1.6,0.8
		C741.1,283.8,740.4,283.9,739.7,283.9z"/>
	<path d="M746.6,283.6v-17.2h1.1v8.4c0.3-0.5,0.7-0.9,1.3-1.3c0.6-0.3,1.3-0.5,2.2-0.5c0.8,0,1.5,0.2,2,0.5c0.6,0.3,1,0.8,1.3,1.4
		c0.3,0.6,0.5,1.4,0.5,2.3v6.4h-1.1v-6.2c0-1.1-0.3-2-0.8-2.6c-0.5-0.6-1.3-0.9-2.2-0.9c-0.7,0-1.2,0.1-1.7,0.4
		c-0.5,0.3-0.8,0.6-1.1,1.1c-0.3,0.4-0.4,0.9-0.4,1.4v6.8H746.6z"/>
	<path d="M768.7,283.9c-1,0-1.8-0.2-2.6-0.7c-0.8-0.5-1.4-1.1-1.8-1.9c-0.4-0.8-0.7-1.8-0.7-2.8c0-1.1,0.2-2,0.7-2.8
		c0.4-0.8,1.1-1.5,1.8-1.9s1.6-0.7,2.6-0.7c1,0,1.8,0.2,2.6,0.7c0.8,0.5,1.4,1.1,1.8,2v-9.3h1.1v17.2h-1.1v-2.4
		c-0.4,0.8-1,1.5-1.8,2C770.5,283.7,769.6,283.9,768.7,283.9z M768.9,283c0.8,0,1.6-0.2,2.2-0.6s1.1-0.9,1.5-1.6s0.5-1.5,0.5-2.3
		c0-0.9-0.2-1.6-0.5-2.3c-0.4-0.7-0.9-1.2-1.5-1.6s-1.4-0.6-2.2-0.6c-0.8,0-1.5,0.2-2.2,0.6s-1.1,0.9-1.5,1.6
		c-0.4,0.7-0.5,1.5-0.5,2.3c0,0.9,0.2,1.6,0.5,2.3s0.9,1.2,1.5,1.6C767.3,282.8,768.1,283,768.9,283z"/>
	<path d="M783.4,283.9c-1.1,0-2-0.2-2.9-0.7s-1.5-1.1-2-1.9c-0.5-0.8-0.7-1.7-0.7-2.7c0-0.8,0.1-1.5,0.4-2.2
		c0.3-0.7,0.7-1.2,1.1-1.8c0.5-0.5,1.1-0.9,1.7-1.2c0.6-0.3,1.3-0.4,2.1-0.4c1,0,1.8,0.2,2.6,0.7c0.8,0.4,1.4,1.1,1.9,1.8
		c0.5,0.8,0.7,1.7,0.8,2.7c0,0.1,0,0.1,0,0.2c0,0,0,0.1,0,0.2h-9.6c0,0.9,0.2,1.6,0.6,2.3c0.4,0.7,0.9,1.2,1.6,1.6
		c0.7,0.4,1.5,0.6,2.3,0.6c0.8,0,1.6-0.2,2.3-0.5s1.2-0.9,1.6-1.5l0.8,0.4c-0.5,0.8-1.1,1.4-2,1.8
		C785.3,283.7,784.4,283.9,783.4,283.9z M778.9,277.7h8.5c-0.1-0.7-0.3-1.4-0.7-1.9c-0.4-0.6-0.9-1-1.5-1.3c-0.6-0.3-1.3-0.5-2-0.5
		c-0.7,0-1.4,0.2-2,0.5s-1.1,0.8-1.5,1.3C779.3,276.3,779,277,778.9,277.7z"/>
	<path d="M792,283.6v-10.2h1.1v1.5c0.3-0.6,0.7-1.1,1.2-1.4c0.5-0.3,1.1-0.5,1.8-0.5c0.3,0,0.6,0,0.9,0.1s0.5,0.1,0.8,0.2l-0.4,0.9
		c-0.2-0.1-0.4-0.2-0.7-0.2c-0.2,0-0.5-0.1-0.7-0.1c-0.5,0-0.9,0.1-1.4,0.4s-0.8,0.6-1.1,1c-0.3,0.4-0.4,0.8-0.4,1.3v7H792z"/>
	<path d="M806.3,283.6v-16.5h1.1v15.5h7.1v1H806.3z"/>
	<path d="M822.9,283.9c-1.1,0-2-0.2-2.8-0.7c-0.8-0.5-1.5-1.1-2-1.9c-0.5-0.8-0.7-1.8-0.7-2.8c0-1.1,0.2-2,0.7-2.8
		c0.5-0.8,1.2-1.5,2-1.9c0.8-0.5,1.8-0.7,2.8-0.7s2,0.2,2.8,0.7s1.5,1.1,2,1.9c0.5,0.8,0.7,1.8,0.7,2.8c0,1.1-0.2,2-0.7,2.8
		c-0.5,0.8-1.2,1.5-2,1.9S824,283.9,822.9,283.9z M822.9,282.9c0.9,0,1.6-0.2,2.3-0.6c0.7-0.4,1.2-0.9,1.6-1.6
		c0.4-0.7,0.6-1.4,0.6-2.3c0-0.9-0.2-1.6-0.6-2.3c-0.4-0.7-0.9-1.2-1.6-1.6c-0.7-0.4-1.4-0.6-2.3-0.6s-1.6,0.2-2.3,0.6
		c-0.7,0.4-1.2,0.9-1.6,1.6c-0.4,0.7-0.6,1.4-0.6,2.3c0,0.9,0.2,1.6,0.6,2.3c0.4,0.7,0.9,1.2,1.6,1.6S822.1,282.9,822.9,282.9z"/>
	<path d="M832.2,283.6v-17.2h1.1v8.4c0.3-0.5,0.7-0.9,1.3-1.3c0.6-0.3,1.3-0.5,2.2-0.5c0.8,0,1.5,0.2,2,0.5c0.6,0.3,1,0.8,1.3,1.4
		c0.3,0.6,0.5,1.4,0.5,2.3v6.4h-1.1v-6.2c0-1.1-0.3-2-0.8-2.6c-0.5-0.6-1.3-0.9-2.2-0.9c-0.7,0-1.2,0.1-1.7,0.4
		c-0.5,0.3-0.8,0.6-1.1,1.1c-0.3,0.4-0.4,0.9-0.4,1.4v6.8H832.2z"/>
	<path d="M844.8,283.6v-10.2h1.1v1.5c0.3-0.5,0.7-0.9,1.3-1.3c0.6-0.3,1.3-0.5,2.2-0.5c0.8,0,1.5,0.2,2,0.5c0.6,0.3,1,0.8,1.3,1.4
		c0.3,0.6,0.5,1.4,0.5,2.3v6.4h-1.1v-6.2c0-1.1-0.3-2-0.8-2.6s-1.3-0.9-2.2-0.9c-0.7,0-1.2,0.1-1.7,0.4c-0.5,0.3-0.8,0.6-1.1,1
		c-0.3,0.4-0.4,0.9-0.4,1.4v6.8H844.8z"/>
	<path d="M863,271.3c-0.1,0-0.3,0-0.4-0.1c-0.1-0.1-0.2-0.2-0.3-0.3c-0.1-0.1-0.1-0.2-0.1-0.4c0-0.1,0-0.3,0.1-0.4
		c0.1-0.1,0.2-0.2,0.3-0.3c0.1-0.1,0.2-0.1,0.4-0.1c0.1,0,0.3,0,0.4,0.1c0.1,0.1,0.2,0.2,0.3,0.3c0.1,0.1,0.1,0.2,0.1,0.4
		c0,0.1,0,0.3-0.1,0.4c-0.1,0.1-0.2,0.2-0.3,0.3C863.3,271.3,863.2,271.3,863,271.3z M862.5,283.6v-10.2h1.1v10.2H862.5z"/>
	<path d="M870.6,283.9c-0.8,0-1.6-0.2-2.2-0.7c-0.6-0.4-1.1-1.1-1.5-1.9l0.6-0.5c0.3,0.7,0.7,1.2,1.2,1.6c0.5,0.4,1.1,0.6,1.8,0.6
		c0.5,0,0.9-0.1,1.3-0.3c0.4-0.2,0.7-0.5,0.9-0.8c0.2-0.4,0.3-0.8,0.3-1.3c0-0.4-0.1-0.8-0.3-1c-0.2-0.2-0.5-0.5-0.9-0.6
		c-0.4-0.2-0.9-0.4-1.5-0.6c-0.4-0.2-0.9-0.4-1.3-0.6c-0.4-0.2-0.8-0.5-1-0.8c-0.3-0.3-0.4-0.8-0.4-1.3c0-0.5,0.1-0.9,0.4-1.3
		c0.3-0.4,0.6-0.7,1.1-0.9c0.5-0.2,1-0.3,1.6-0.3c0.6,0,1.1,0.1,1.6,0.4s0.9,0.7,1.3,1.1l-0.6,0.6c-0.5-0.9-1.3-1.3-2.3-1.3
		c-0.6,0-1.1,0.2-1.5,0.5c-0.4,0.3-0.6,0.8-0.6,1.3c0,0.4,0.1,0.7,0.3,0.9s0.5,0.4,0.9,0.6c0.4,0.2,0.8,0.3,1.2,0.5
		c0.6,0.2,1.2,0.5,1.6,0.7c0.5,0.2,0.8,0.5,1.1,0.9c0.2,0.3,0.4,0.8,0.4,1.4c0,0.7-0.2,1.2-0.5,1.7c-0.3,0.5-0.7,0.9-1.3,1.1
		C872,283.8,871.3,283.9,870.6,283.9z"/>
	<path d="M880,283.9c-0.7,0-1.3-0.2-1.6-0.7c-0.4-0.5-0.6-1.2-0.6-2v-7h-1v-0.8h1v-3.8h1.1v3.8h2.6v0.8h-2.6v6.9
		c0,0.6,0.1,1.1,0.4,1.4c0.2,0.3,0.6,0.5,1,0.5c0.4,0,0.8-0.1,1.1-0.3l0.3,0.9c-0.2,0.1-0.4,0.2-0.7,0.3S880.3,283.9,880,283.9z"/>
	<path d="M893.3,283.6l-4.9-10.2h1.2l4,8.7l4-8.7h1.2l-4.9,10.2H893.3z"/>
	<path d="M902.4,271.3c-0.1,0-0.3,0-0.4-0.1c-0.1-0.1-0.2-0.2-0.3-0.3c-0.1-0.1-0.1-0.2-0.1-0.4c0-0.1,0-0.3,0.1-0.4
		c0.1-0.1,0.2-0.2,0.3-0.3c0.1-0.1,0.2-0.1,0.4-0.1c0.1,0,0.3,0,0.4,0.1c0.1,0.1,0.2,0.2,0.3,0.3c0.1,0.1,0.1,0.2,0.1,0.4
		c0,0.1,0,0.3-0.1,0.4c-0.1,0.1-0.2,0.2-0.3,0.3C902.7,271.3,902.6,271.3,902.4,271.3z M901.9,283.6v-10.2h1.1v10.2H901.9z"/>
	<path d="M912.2,283.9c-1.1,0-2-0.2-2.9-0.7c-0.8-0.5-1.5-1.1-2-1.9c-0.5-0.8-0.7-1.7-0.7-2.7c0-0.8,0.1-1.5,0.4-2.2
		c0.3-0.7,0.7-1.2,1.2-1.8s1.1-0.9,1.7-1.2c0.6-0.3,1.3-0.4,2.1-0.4c1,0,1.8,0.2,2.6,0.7s1.4,1.1,1.9,1.8c0.5,0.8,0.7,1.7,0.8,2.7
		c0,0.1,0,0.1,0,0.2c0,0,0,0.1,0,0.2h-9.6c0,0.9,0.2,1.6,0.6,2.3c0.4,0.7,0.9,1.2,1.6,1.6s1.5,0.6,2.3,0.6c0.8,0,1.6-0.2,2.3-0.5
		s1.2-0.9,1.6-1.5l0.8,0.4c-0.5,0.8-1.1,1.4-2,1.8C914.2,283.7,913.2,283.9,912.2,283.9z M907.8,277.7h8.5c-0.1-0.7-0.3-1.4-0.7-1.9
		c-0.4-0.6-0.9-1-1.5-1.3c-0.6-0.3-1.3-0.5-2-0.5c-0.7,0-1.4,0.2-2,0.5s-1.1,0.8-1.5,1.3C908.1,276.3,907.9,277,907.8,277.7z"/>
	<path d="M920.9,283.6v-17.2h1.1v17.2H920.9z"/>
	<path d="M930.2,283.6l8-9.3h-7.3v-0.9h9.3l-8.1,9.3h7.9v0.9H930.2z"/>
	<path d="M947.4,283.9c-1.5,0-2.5-0.3-3.2-1s-0.9-1.8-0.9-3.5v-6.1h1.1v5.9c0,1.3,0.2,2.3,0.7,2.9c0.5,0.6,1.2,0.9,2.3,0.9
		c1.1,0,1.9-0.3,2.3-0.9c0.5-0.6,0.7-1.5,0.7-2.9v-5.9h1.1v6.1c0,1.6-0.3,2.8-0.9,3.5C950,283.6,948.9,283.9,947.4,283.9z"/>
	<path d="M638.6,307.6v-10.2h1.1v1.5c0.3-0.5,0.7-0.9,1.3-1.3c0.6-0.3,1.3-0.5,2.2-0.5c0.8,0,1.5,0.2,2,0.5c0.6,0.3,1,0.8,1.3,1.4
		c0.3,0.6,0.5,1.4,0.5,2.3v6.4h-1.1v-6.2c0-1.1-0.3-2-0.8-2.6s-1.3-0.9-2.2-0.9c-0.7,0-1.2,0.1-1.7,0.4c-0.5,0.3-0.8,0.6-1.1,1
		c-0.3,0.4-0.4,0.9-0.4,1.4v6.8H638.6z"/>
	<path d="M651.7,295.3c-0.1,0-0.3,0-0.4-0.1c-0.1-0.1-0.2-0.2-0.3-0.3c-0.1-0.1-0.1-0.2-0.1-0.4c0-0.1,0-0.3,0.1-0.4
		c0.1-0.1,0.2-0.2,0.3-0.3c0.1-0.1,0.2-0.1,0.4-0.1c0.1,0,0.3,0,0.4,0.1c0.1,0.1,0.2,0.2,0.3,0.3c0.1,0.1,0.1,0.2,0.1,0.4
		c0,0.1,0,0.3-0.1,0.4c-0.1,0.1-0.2,0.2-0.3,0.3C652,295.3,651.9,295.3,651.7,295.3z M651.2,307.6v-10.2h1.1v10.2H651.2z"/>
	<path d="M661.5,307.9c-1.1,0-2-0.2-2.9-0.7s-1.5-1.1-2-1.9c-0.5-0.8-0.7-1.7-0.7-2.7c0-0.8,0.1-1.5,0.4-2.2
		c0.3-0.7,0.7-1.2,1.1-1.8c0.5-0.5,1.1-0.9,1.7-1.2c0.6-0.3,1.3-0.4,2.1-0.4c1,0,1.8,0.2,2.6,0.7c0.8,0.4,1.4,1.1,1.9,1.8
		c0.5,0.8,0.7,1.7,0.8,2.7c0,0.1,0,0.1,0,0.2c0,0,0,0.1,0,0.2H657c0,0.9,0.2,1.6,0.6,2.3c0.4,0.7,0.9,1.2,1.6,1.6
		c0.7,0.4,1.5,0.6,2.3,0.6c0.8,0,1.6-0.2,2.3-0.5s1.2-0.9,1.6-1.5l0.8,0.4c-0.5,0.8-1.1,1.4-2,1.8
		C663.5,307.7,662.5,307.9,661.5,307.9z M657.1,301.7h8.5c-0.1-0.7-0.3-1.4-0.7-1.9c-0.4-0.6-0.9-1-1.5-1.3c-0.6-0.3-1.3-0.5-2-0.5
		c-0.7,0-1.4,0.2-2,0.5s-1.1,0.8-1.5,1.3C657.4,300.3,657.2,301,657.1,301.7z"/>
	<path d="M674.6,307.9c-1,0-1.8-0.2-2.6-0.7c-0.8-0.5-1.4-1.1-1.8-1.9c-0.4-0.8-0.7-1.8-0.7-2.8c0-1.1,0.2-2,0.7-2.8
		c0.4-0.8,1.1-1.5,1.8-1.9s1.6-0.7,2.6-0.7c1,0,1.8,0.2,2.6,0.7c0.8,0.5,1.4,1.1,1.8,2v-9.3h1.1v17.2H679v-2.4c-0.4,0.8-1,1.5-1.8,2
		C676.4,307.7,675.6,307.9,674.6,307.9z M674.8,307c0.8,0,1.6-0.2,2.2-0.6s1.1-0.9,1.5-1.6s0.5-1.5,0.5-2.3c0-0.9-0.2-1.6-0.5-2.3
		c-0.4-0.7-0.9-1.2-1.5-1.6s-1.4-0.6-2.2-0.6c-0.8,0-1.5,0.2-2.2,0.6s-1.1,0.9-1.5,1.6c-0.4,0.7-0.5,1.5-0.5,2.3
		c0,0.9,0.2,1.6,0.5,2.3s0.9,1.2,1.5,1.6C673.3,306.8,674,307,674.8,307z"/>
	<path d="M684.5,307.6v-10.2h1.1v1.5c0.3-0.6,0.7-1.1,1.2-1.4c0.5-0.3,1.1-0.5,1.8-0.5c0.3,0,0.6,0,0.9,0.1s0.5,0.1,0.8,0.2
		l-0.4,0.9c-0.2-0.1-0.4-0.2-0.7-0.2c-0.2,0-0.5-0.1-0.7-0.1c-0.5,0-0.9,0.1-1.4,0.4s-0.8,0.6-1.1,1c-0.3,0.4-0.4,0.8-0.4,1.3v7
		H684.5z"/>
	<path d="M693.7,295.3c-0.1,0-0.3,0-0.4-0.1c-0.1-0.1-0.2-0.2-0.3-0.3c-0.1-0.1-0.1-0.2-0.1-0.4c0-0.1,0-0.3,0.1-0.4
		c0.1-0.1,0.2-0.2,0.3-0.3c0.1-0.1,0.2-0.1,0.4-0.1c0.1,0,0.3,0,0.4,0.1c0.1,0.1,0.2,0.2,0.3,0.3c0.1,0.1,0.1,0.2,0.1,0.4
		c0,0.1,0,0.3-0.1,0.4c-0.1,0.1-0.2,0.2-0.3,0.3C694,295.3,693.9,295.3,693.7,295.3z M693.2,307.6v-10.2h1.1v10.2H693.2z"/>
	<path d="M703.2,313.1c-1.3,0-2.4-0.3-3.2-0.8c-0.9-0.5-1.5-1.2-2-2.2l0.9-0.4c0.3,0.8,0.9,1.4,1.6,1.8c0.8,0.5,1.7,0.7,2.7,0.7
		c0.8,0,1.6-0.2,2.2-0.5c0.7-0.3,1.2-0.8,1.6-1.4c0.4-0.6,0.6-1.4,0.6-2.3v-2.8c-0.4,0.8-1,1.5-1.8,2c-0.8,0.5-1.6,0.7-2.6,0.7
		c-1,0-1.8-0.2-2.6-0.7c-0.8-0.5-1.4-1.1-1.8-1.9c-0.5-0.8-0.7-1.8-0.7-2.8c0-1.1,0.2-2,0.7-2.8c0.4-0.8,1.1-1.5,1.8-1.9
		s1.6-0.7,2.6-0.7c1,0,1.8,0.2,2.6,0.7c0.8,0.5,1.4,1.1,1.8,2v-2.4h1.1v10.5c0,1.2-0.2,2.1-0.7,2.9c-0.5,0.8-1.1,1.4-1.9,1.7
		C705.2,312.9,704.2,313.1,703.2,313.1z M703.4,307c0.8,0,1.6-0.2,2.2-0.6c0.6-0.4,1.1-0.9,1.5-1.6c0.4-0.7,0.5-1.5,0.5-2.3
		c0-0.9-0.2-1.6-0.5-2.3c-0.4-0.7-0.9-1.2-1.5-1.6c-0.6-0.4-1.4-0.6-2.2-0.6c-0.8,0-1.6,0.2-2.2,0.6c-0.6,0.4-1.1,0.9-1.5,1.6
		c-0.4,0.7-0.5,1.5-0.5,2.3c0,0.9,0.2,1.6,0.5,2.3s0.9,1.2,1.5,1.6C701.8,306.8,702.5,307,703.4,307z"/>
	<path d="M714.5,307.9c-0.1,0-0.3,0-0.4-0.1c-0.1-0.1-0.2-0.2-0.3-0.3c-0.1-0.1-0.1-0.3-0.1-0.4c0-0.1,0-0.3,0.1-0.4
		s0.2-0.2,0.3-0.3c0.1-0.1,0.3-0.1,0.4-0.1c0.1,0,0.3,0,0.4,0.1c0.1,0.1,0.2,0.2,0.3,0.3c0.1,0.1,0.1,0.2,0.1,0.4
		c0,0.1,0,0.3-0.1,0.4c-0.1,0.1-0.2,0.2-0.3,0.3C714.7,307.9,714.6,307.9,714.5,307.9z M714,303.9l-0.1-13.5h1l-0.1,13.5H714z"/>
	<path d="M726,307.6v-16.5h8.1v1h-7v6.8h6.8v1H727v6.8h7v1H726z"/>
	<path d="M740.6,307.9c-0.8,0-1.6-0.2-2.2-0.7c-0.6-0.4-1.1-1.1-1.5-1.9l0.6-0.5c0.3,0.7,0.7,1.2,1.2,1.6c0.5,0.4,1.1,0.6,1.8,0.6
		c0.5,0,0.9-0.1,1.3-0.3c0.4-0.2,0.7-0.5,0.9-0.8c0.2-0.4,0.4-0.8,0.4-1.3c0-0.4-0.1-0.8-0.3-1c-0.2-0.2-0.5-0.5-0.9-0.6
		c-0.4-0.2-0.9-0.4-1.4-0.6c-0.4-0.2-0.9-0.4-1.3-0.6c-0.4-0.2-0.8-0.5-1-0.8c-0.3-0.3-0.4-0.8-0.4-1.3c0-0.5,0.1-0.9,0.4-1.3
		c0.3-0.4,0.6-0.7,1.1-0.9s1-0.3,1.6-0.3c0.6,0,1.1,0.1,1.6,0.4c0.5,0.3,0.9,0.7,1.3,1.1l-0.6,0.6c-0.5-0.9-1.3-1.3-2.3-1.3
		c-0.6,0-1.1,0.2-1.5,0.5c-0.4,0.3-0.6,0.8-0.6,1.3c0,0.4,0.1,0.7,0.3,0.9c0.2,0.2,0.5,0.4,0.9,0.6s0.8,0.3,1.2,0.5
		c0.6,0.2,1.2,0.5,1.6,0.7c0.5,0.2,0.8,0.5,1.1,0.9c0.2,0.3,0.4,0.8,0.4,1.4c0,0.7-0.2,1.2-0.5,1.7s-0.7,0.9-1.3,1.1
		S741.3,307.9,740.6,307.9z"/>
	<path d="M753.5,295.3c-0.1,0-0.3,0-0.4-0.1c-0.1-0.1-0.2-0.2-0.3-0.3c-0.1-0.1-0.1-0.2-0.1-0.4c0-0.1,0-0.3,0.1-0.4
		c0.1-0.1,0.2-0.2,0.3-0.3c0.1-0.1,0.2-0.1,0.4-0.1c0.1,0,0.3,0,0.4,0.1c0.1,0.1,0.2,0.2,0.3,0.3c0.1,0.1,0.1,0.2,0.1,0.4
		c0,0.1,0,0.3-0.1,0.4c-0.1,0.1-0.2,0.2-0.3,0.3C753.7,295.3,753.6,295.3,753.5,295.3z M753,307.6v-10.2h1.1v10.2H753z"/>
	<path d="M761.1,307.9c-0.8,0-1.6-0.2-2.2-0.7c-0.6-0.4-1.1-1.1-1.5-1.9l0.6-0.5c0.3,0.7,0.7,1.2,1.2,1.6c0.5,0.4,1.1,0.6,1.8,0.6
		c0.5,0,0.9-0.1,1.3-0.3c0.4-0.2,0.7-0.5,0.9-0.8c0.2-0.4,0.4-0.8,0.4-1.3c0-0.4-0.1-0.8-0.3-1c-0.2-0.2-0.5-0.5-0.9-0.6
		c-0.4-0.2-0.9-0.4-1.4-0.6c-0.4-0.2-0.9-0.4-1.3-0.6c-0.4-0.2-0.8-0.5-1-0.8c-0.3-0.3-0.4-0.8-0.4-1.3c0-0.5,0.1-0.9,0.4-1.3
		c0.3-0.4,0.6-0.7,1.1-0.9s1-0.3,1.6-0.3c0.6,0,1.1,0.1,1.6,0.4c0.5,0.3,0.9,0.7,1.3,1.1l-0.6,0.6c-0.5-0.9-1.3-1.3-2.3-1.3
		c-0.6,0-1.1,0.2-1.5,0.5c-0.4,0.3-0.6,0.8-0.6,1.3c0,0.4,0.1,0.7,0.3,0.9c0.2,0.2,0.5,0.4,0.9,0.6s0.8,0.3,1.2,0.5
		c0.6,0.2,1.2,0.5,1.6,0.7c0.5,0.2,0.8,0.5,1.1,0.9c0.2,0.3,0.4,0.8,0.4,1.4c0,0.7-0.2,1.2-0.5,1.7s-0.7,0.9-1.3,1.1
		S761.8,307.9,761.1,307.9z"/>
	<path d="M770.5,307.9c-0.7,0-1.3-0.2-1.6-0.7c-0.4-0.5-0.6-1.2-0.6-2v-7h-1v-0.8h1v-3.8h1.1v3.8h2.6v0.8h-2.6v6.9
		c0,0.6,0.1,1.1,0.4,1.4c0.2,0.3,0.6,0.5,1,0.5c0.4,0,0.8-0.1,1.1-0.3l0.3,0.9c-0.2,0.1-0.4,0.2-0.7,0.3S770.7,307.9,770.5,307.9z"
		/>
	<path d="M785.9,307.9c-1,0-1.8-0.2-2.6-0.7c-0.8-0.5-1.4-1.1-1.8-2v2.4h-1.1v-17.2h1.1v9.3c0.4-0.8,1-1.5,1.8-2
		c0.8-0.5,1.6-0.7,2.6-0.7c1,0,1.8,0.2,2.6,0.7s1.4,1.1,1.8,1.9c0.4,0.8,0.7,1.8,0.7,2.8c0,1-0.2,2-0.7,2.8
		c-0.4,0.8-1.1,1.5-1.8,1.9C787.7,307.7,786.8,307.9,785.9,307.9z M785.7,307c0.8,0,1.5-0.2,2.2-0.6c0.6-0.4,1.1-0.9,1.5-1.6
		s0.5-1.5,0.5-2.3c0-0.9-0.2-1.6-0.5-2.3c-0.4-0.7-0.9-1.2-1.5-1.6s-1.4-0.6-2.2-0.6c-0.8,0-1.6,0.2-2.2,0.6s-1.1,0.9-1.5,1.6
		c-0.4,0.7-0.5,1.5-0.5,2.3c0,0.9,0.2,1.6,0.5,2.3c0.4,0.7,0.9,1.2,1.5,1.6S784.8,307,785.7,307z"/>
	<path d="M799.5,307.9c-1.1,0-2-0.2-2.9-0.7s-1.5-1.1-2-1.9c-0.5-0.8-0.7-1.7-0.7-2.7c0-0.8,0.1-1.5,0.4-2.2
		c0.3-0.7,0.7-1.2,1.1-1.8c0.5-0.5,1.1-0.9,1.7-1.2c0.6-0.3,1.3-0.4,2.1-0.4c1,0,1.8,0.2,2.6,0.7c0.8,0.4,1.4,1.1,1.9,1.8
		c0.5,0.8,0.7,1.7,0.8,2.7c0,0.1,0,0.1,0,0.2c0,0,0,0.1,0,0.2H795c0,0.9,0.2,1.6,0.6,2.3c0.4,0.7,0.9,1.2,1.6,1.6
		c0.7,0.4,1.5,0.6,2.3,0.6c0.8,0,1.6-0.2,2.3-0.5s1.2-0.9,1.6-1.5l0.8,0.4c-0.5,0.8-1.1,1.4-2,1.8
		C801.4,307.7,800.5,307.9,799.5,307.9z M795.1,301.7h8.5c-0.1-0.7-0.3-1.4-0.7-1.9c-0.4-0.6-0.9-1-1.5-1.3c-0.6-0.3-1.3-0.5-2-0.5
		c-0.7,0-1.4,0.2-2,0.5s-1.1,0.8-1.5,1.3C795.4,300.3,795.1,301,795.1,301.7z"/>
	<path d="M810.7,307.9c-0.8,0-1.6-0.2-2.2-0.7c-0.6-0.4-1.1-1.1-1.5-1.9l0.6-0.5c0.3,0.7,0.7,1.2,1.2,1.6c0.5,0.4,1.1,0.6,1.8,0.6
		c0.5,0,0.9-0.1,1.3-0.3c0.4-0.2,0.7-0.5,0.9-0.8c0.2-0.4,0.4-0.8,0.4-1.3c0-0.4-0.1-0.8-0.3-1c-0.2-0.2-0.5-0.5-0.9-0.6
		c-0.4-0.2-0.9-0.4-1.4-0.6c-0.4-0.2-0.9-0.4-1.3-0.6c-0.4-0.2-0.8-0.5-1-0.8c-0.3-0.3-0.4-0.8-0.4-1.3c0-0.5,0.1-0.9,0.4-1.3
		c0.3-0.4,0.6-0.7,1.1-0.9s1-0.3,1.6-0.3c0.6,0,1.1,0.1,1.6,0.4c0.5,0.3,0.9,0.7,1.3,1.1l-0.6,0.6c-0.5-0.9-1.3-1.3-2.3-1.3
		c-0.6,0-1.1,0.2-1.5,0.5c-0.4,0.3-0.6,0.8-0.6,1.3c0,0.4,0.1,0.7,0.3,0.9c0.2,0.2,0.5,0.4,0.9,0.6s0.8,0.3,1.2,0.5
		c0.6,0.2,1.2,0.5,1.6,0.7c0.5,0.2,0.8,0.5,1.1,0.9c0.2,0.3,0.4,0.8,0.4,1.4c0,0.7-0.2,1.2-0.5,1.7s-0.7,0.9-1.3,1.1
		S811.4,307.9,810.7,307.9z"/>
	<path d="M820.5,307.9c-0.8,0-1.6-0.2-2.2-0.7c-0.6-0.4-1.1-1.1-1.5-1.9l0.6-0.5c0.3,0.7,0.7,1.2,1.2,1.6c0.5,0.4,1.1,0.6,1.8,0.6
		c0.5,0,0.9-0.1,1.3-0.3c0.4-0.2,0.7-0.5,0.9-0.8c0.2-0.4,0.4-0.8,0.4-1.3c0-0.4-0.1-0.8-0.3-1c-0.2-0.2-0.5-0.5-0.9-0.6
		c-0.4-0.2-0.9-0.4-1.4-0.6c-0.4-0.2-0.9-0.4-1.3-0.6c-0.4-0.2-0.8-0.5-1-0.8c-0.3-0.3-0.4-0.8-0.4-1.3c0-0.5,0.1-0.9,0.4-1.3
		c0.3-0.4,0.6-0.7,1.1-0.9s1-0.3,1.6-0.3c0.6,0,1.1,0.1,1.6,0.4c0.5,0.3,0.9,0.7,1.3,1.1l-0.6,0.6c-0.5-0.9-1.3-1.3-2.3-1.3
		c-0.6,0-1.1,0.2-1.5,0.5c-0.4,0.3-0.6,0.8-0.6,1.3c0,0.4,0.1,0.7,0.3,0.9c0.2,0.2,0.5,0.4,0.9,0.6s0.8,0.3,1.2,0.5
		c0.6,0.2,1.2,0.5,1.6,0.7c0.5,0.2,0.8,0.5,1.1,0.9c0.2,0.3,0.4,0.8,0.4,1.4c0,0.7-0.2,1.2-0.5,1.7s-0.7,0.9-1.3,1.1
		S821.2,307.9,820.5,307.9z"/>
	<path d="M832.5,307.9c-1.1,0-2-0.2-2.9-0.7s-1.5-1.1-2-1.9c-0.5-0.8-0.7-1.7-0.7-2.7c0-0.8,0.1-1.5,0.4-2.2
		c0.3-0.7,0.7-1.2,1.1-1.8c0.5-0.5,1.1-0.9,1.7-1.2c0.6-0.3,1.3-0.4,2.1-0.4c1,0,1.8,0.2,2.6,0.7c0.8,0.4,1.4,1.1,1.9,1.8
		c0.5,0.8,0.7,1.7,0.8,2.7c0,0.1,0,0.1,0,0.2c0,0,0,0.1,0,0.2H828c0,0.9,0.2,1.6,0.6,2.3c0.4,0.7,0.9,1.2,1.6,1.6
		c0.7,0.4,1.5,0.6,2.3,0.6c0.8,0,1.6-0.2,2.3-0.5s1.2-0.9,1.6-1.5l0.8,0.4c-0.5,0.8-1.1,1.4-2,1.8
		C834.5,307.7,833.5,307.9,832.5,307.9z M828.1,301.7h8.5c-0.1-0.7-0.3-1.4-0.7-1.9c-0.4-0.6-0.9-1-1.5-1.3c-0.6-0.3-1.3-0.5-2-0.5
		c-0.7,0-1.4,0.2-2,0.5s-1.1,0.8-1.5,1.3C828.4,300.3,828.2,301,828.1,301.7z"/>
	<path d="M841.2,307.6v-10.2h1.1v1.5c0.3-0.6,0.7-1.1,1.2-1.4c0.5-0.3,1.1-0.5,1.8-0.5c0.3,0,0.6,0,0.9,0.1s0.5,0.1,0.8,0.2
		l-0.4,0.9c-0.2-0.1-0.4-0.2-0.7-0.2c-0.2,0-0.5-0.1-0.7-0.1c-0.5,0-0.9,0.1-1.4,0.4s-0.8,0.6-1.1,1c-0.3,0.4-0.4,0.8-0.4,1.3v7
		H841.2z"/>
	<path d="M849.7,309.8l-0.2-0.2c0.1-0.1,0.2-0.3,0.3-0.5c0.1-0.2,0.1-0.4,0.2-0.6c0-0.2,0.1-0.4,0.1-0.6c-0.2,0-0.4-0.1-0.5-0.3
		c-0.1-0.1-0.2-0.3-0.2-0.5c0-0.2,0.1-0.4,0.2-0.6c0.1-0.1,0.3-0.2,0.6-0.2c0.3,0,0.5,0.1,0.6,0.2c0.2,0.2,0.2,0.4,0.2,0.7
		c0,0.4-0.1,0.9-0.4,1.3C850.3,309.1,850,309.5,849.7,309.8z"/>
	<path d="M864.3,307.6l-4.9-10.2h1.2l4,8.6l3.4-8.6h0.7l3.4,8.6l4-8.6h1.2l-4.9,10.2h-0.7l-3.4-8.5l-3.4,8.5H864.3z"/>
	<path d="M885.1,307.9c-1.1,0-2-0.2-2.9-0.7c-0.8-0.5-1.5-1.1-2-1.9c-0.5-0.8-0.7-1.7-0.7-2.7c0-0.8,0.1-1.5,0.4-2.2
		c0.3-0.7,0.7-1.2,1.2-1.8s1.1-0.9,1.7-1.2c0.6-0.3,1.3-0.4,2.1-0.4c1,0,1.8,0.2,2.6,0.7s1.4,1.1,1.9,1.8c0.5,0.8,0.7,1.7,0.8,2.7
		c0,0.1,0,0.1,0,0.2c0,0,0,0.1,0,0.2h-9.6c0,0.9,0.2,1.6,0.6,2.3c0.4,0.7,0.9,1.2,1.6,1.6s1.5,0.6,2.3,0.6c0.8,0,1.6-0.2,2.3-0.5
		s1.2-0.9,1.6-1.5l0.8,0.4c-0.5,0.8-1.1,1.4-2,1.8C887,307.7,886.1,307.9,885.1,307.9z M880.7,301.7h8.5c-0.1-0.7-0.3-1.4-0.7-1.9
		c-0.4-0.6-0.9-1-1.5-1.3c-0.6-0.3-1.3-0.5-2-0.5c-0.7,0-1.4,0.2-2,0.5s-1.1,0.8-1.5,1.3C881,300.3,880.7,301,880.7,301.7z"/>
	<path d="M893.7,307.6v-10.2h1.1v1.5c0.3-0.5,0.7-0.9,1.3-1.3c0.6-0.3,1.3-0.5,2.2-0.5c0.8,0,1.5,0.2,2,0.5c0.6,0.3,1,0.8,1.3,1.4
		c0.3,0.6,0.5,1.4,0.5,2.3v6.4H901v-6.2c0-1.1-0.3-2-0.8-2.6s-1.3-0.9-2.2-0.9c-0.7,0-1.2,0.1-1.7,0.4c-0.5,0.3-0.8,0.6-1.1,1
		c-0.3,0.4-0.4,0.9-0.4,1.4v6.8H893.7z"/>
	<path d="M906.3,307.6v-10.2h1.1v1.5c0.3-0.5,0.7-0.9,1.3-1.3c0.6-0.3,1.3-0.5,2.2-0.5c0.8,0,1.5,0.2,2,0.5c0.6,0.3,1,0.8,1.3,1.4
		c0.3,0.6,0.5,1.4,0.5,2.3v6.4h-1.1v-6.2c0-1.1-0.3-2-0.8-2.6s-1.3-0.9-2.2-0.9c-0.7,0-1.2,0.1-1.7,0.4c-0.5,0.3-0.8,0.6-1.1,1
		c-0.3,0.4-0.4,0.9-0.4,1.4v6.8H906.3z"/>
	<path d="M928.4,307.9c-1,0-1.8-0.2-2.6-0.7c-0.8-0.5-1.4-1.1-1.8-1.9c-0.5-0.8-0.7-1.8-0.7-2.8c0-1.1,0.2-2,0.7-2.8
		c0.4-0.8,1.1-1.5,1.8-1.9s1.6-0.7,2.6-0.7c1,0,1.8,0.2,2.6,0.7c0.8,0.5,1.4,1.1,1.8,2v-9.3h1.1v17.2h-1.1v-2.4
		c-0.4,0.8-1,1.5-1.8,2C930.2,307.7,929.4,307.9,928.4,307.9z M928.6,307c0.8,0,1.6-0.2,2.2-0.6s1.1-0.9,1.5-1.6s0.5-1.5,0.5-2.3
		c0-0.9-0.2-1.6-0.5-2.3c-0.4-0.7-0.9-1.2-1.5-1.6s-1.4-0.6-2.2-0.6c-0.8,0-1.5,0.2-2.2,0.6s-1.1,0.9-1.5,1.6
		c-0.4,0.7-0.6,1.5-0.6,2.3c0,0.9,0.2,1.6,0.5,2.3s0.9,1.2,1.5,1.6C927.1,306.8,927.8,307,928.6,307z"/>
	<path d="M942.3,307.9c-1.5,0-2.5-0.3-3.2-1s-0.9-1.8-0.9-3.5v-6.1h1.1v5.9c0,1.3,0.2,2.3,0.7,2.9c0.5,0.6,1.2,0.9,2.3,0.9
		c1.1,0,1.9-0.3,2.3-0.9c0.5-0.6,0.7-1.5,0.7-2.9v-5.9h1.1v6.1c0,1.6-0.3,2.8-0.9,3.5C944.8,307.6,943.7,307.9,942.3,307.9z"/>
	<path d="M729.6,331.6l-4.9-10.2h1.2l4,8.6l3.4-8.6h0.7l3.4,8.6l4-8.6h1.2l-4.9,10.2H737l-3.4-8.5l-3.4,8.5H729.6z"/>
	<path d="M750.4,331.9c-1.1,0-2-0.2-2.9-0.7s-1.5-1.1-2-1.9c-0.5-0.8-0.7-1.7-0.7-2.7c0-0.8,0.1-1.5,0.4-2.2
		c0.3-0.7,0.7-1.2,1.1-1.8c0.5-0.5,1.1-0.9,1.7-1.2c0.6-0.3,1.3-0.4,2.1-0.4c1,0,1.8,0.2,2.6,0.7c0.8,0.4,1.4,1.1,1.9,1.8
		c0.5,0.8,0.7,1.7,0.8,2.7c0,0.1,0,0.1,0,0.2c0,0,0,0.1,0,0.2h-9.6c0,0.9,0.2,1.6,0.6,2.3c0.4,0.7,0.9,1.2,1.6,1.6
		c0.7,0.4,1.5,0.6,2.3,0.6c0.8,0,1.6-0.2,2.3-0.5s1.2-0.9,1.6-1.5l0.8,0.4c-0.5,0.8-1.1,1.4-2,1.8
		C752.3,331.7,751.4,331.9,750.4,331.9z M745.9,325.7h8.5c-0.1-0.7-0.3-1.4-0.7-1.9c-0.4-0.6-0.9-1-1.5-1.3c-0.6-0.3-1.3-0.5-2-0.5
		c-0.7,0-1.4,0.2-2,0.5s-1.1,0.8-1.5,1.3C746.3,324.3,746,325,745.9,325.7z"/>
	<path d="M759.5,319.3c-0.1,0-0.3,0-0.4-0.1c-0.1-0.1-0.2-0.2-0.3-0.3c-0.1-0.1-0.1-0.2-0.1-0.4c0-0.1,0-0.3,0.1-0.4
		c0.1-0.1,0.2-0.2,0.3-0.3c0.1-0.1,0.2-0.1,0.4-0.1c0.1,0,0.3,0,0.4,0.1c0.1,0.1,0.2,0.2,0.3,0.3c0.1,0.1,0.1,0.2,0.1,0.4
		c0,0.1,0,0.3-0.1,0.4c-0.1,0.1-0.2,0.2-0.3,0.3C759.8,319.3,759.7,319.3,759.5,319.3z M759,331.6v-10.2h1.1v10.2H759z"/>
	<path d="M766.9,331.9c-0.7,0-1.3-0.2-1.6-0.7c-0.4-0.5-0.6-1.2-0.6-2v-7h-1v-0.8h1v-3.8h1.1v3.8h2.6v0.8h-2.6v6.9
		c0,0.6,0.1,1.1,0.4,1.4c0.2,0.3,0.6,0.5,1,0.5c0.4,0,0.8-0.1,1.1-0.3l0.3,0.9c-0.2,0.1-0.4,0.2-0.7,0.3S767.1,331.9,766.9,331.9z"
		/>
	<path d="M776.5,331.9c-1.1,0-2-0.2-2.9-0.7s-1.5-1.1-2-1.9c-0.5-0.8-0.7-1.7-0.7-2.7c0-0.8,0.1-1.5,0.4-2.2
		c0.3-0.7,0.7-1.2,1.1-1.8c0.5-0.5,1.1-0.9,1.7-1.2c0.6-0.3,1.3-0.4,2.1-0.4c1,0,1.8,0.2,2.6,0.7c0.8,0.4,1.4,1.1,1.9,1.8
		c0.5,0.8,0.7,1.7,0.8,2.7c0,0.1,0,0.1,0,0.2c0,0,0,0.1,0,0.2H772c0,0.9,0.2,1.6,0.6,2.3c0.4,0.7,0.9,1.2,1.6,1.6
		c0.7,0.4,1.5,0.6,2.3,0.6c0.8,0,1.6-0.2,2.3-0.5s1.2-0.9,1.6-1.5l0.8,0.4c-0.5,0.8-1.1,1.4-2,1.8
		C778.4,331.7,777.5,331.9,776.5,331.9z M772.1,325.7h8.5c-0.1-0.7-0.3-1.4-0.7-1.9c-0.4-0.6-0.9-1-1.5-1.3c-0.6-0.3-1.3-0.5-2-0.5
		c-0.7,0-1.4,0.2-2,0.5s-1.1,0.8-1.5,1.3C772.4,324.3,772.1,325,772.1,325.7z"/>
	<path d="M785.1,331.6v-10.2h1.1v1.5c0.3-0.6,0.7-1.1,1.2-1.4c0.5-0.3,1.1-0.5,1.8-0.5c0.3,0,0.6,0,0.9,0.1s0.5,0.1,0.8,0.2
		l-0.4,0.9c-0.2-0.1-0.4-0.2-0.7-0.2c-0.2,0-0.5-0.1-0.7-0.1c-0.5,0-0.9,0.1-1.4,0.4s-0.8,0.6-1.1,1c-0.3,0.4-0.4,0.8-0.4,1.3v7
		H785.1z"/>
	<path d="M803.3,337.1c-1.3,0-2.4-0.3-3.2-0.8c-0.9-0.5-1.5-1.2-2-2.2l0.9-0.4c0.3,0.8,0.9,1.4,1.6,1.8c0.8,0.5,1.7,0.7,2.7,0.7
		c0.8,0,1.6-0.2,2.2-0.5c0.7-0.3,1.2-0.8,1.6-1.4c0.4-0.6,0.6-1.4,0.6-2.3v-2.8c-0.4,0.8-1,1.5-1.8,2c-0.8,0.5-1.6,0.7-2.6,0.7
		c-1,0-1.8-0.2-2.6-0.7c-0.8-0.5-1.4-1.1-1.8-1.9c-0.5-0.8-0.7-1.8-0.7-2.8c0-1.1,0.2-2,0.7-2.8c0.4-0.8,1.1-1.5,1.8-1.9
		s1.6-0.7,2.6-0.7c1,0,1.8,0.2,2.6,0.7c0.8,0.5,1.4,1.1,1.8,2v-2.4h1.1v10.5c0,1.2-0.2,2.1-0.7,2.9c-0.5,0.8-1.1,1.4-1.9,1.7
		C805.3,336.9,804.4,337.1,803.3,337.1z M803.5,331c0.8,0,1.6-0.2,2.2-0.6c0.6-0.4,1.1-0.9,1.5-1.6c0.4-0.7,0.5-1.5,0.5-2.3
		c0-0.9-0.2-1.6-0.5-2.3c-0.4-0.7-0.9-1.2-1.5-1.6c-0.6-0.4-1.4-0.6-2.2-0.6c-0.8,0-1.6,0.2-2.2,0.6c-0.6,0.4-1.1,0.9-1.5,1.6
		c-0.4,0.7-0.5,1.5-0.5,2.3c0,0.9,0.2,1.6,0.5,2.3s0.9,1.2,1.5,1.6C801.9,330.8,802.7,331,803.5,331z"/>
	<path d="M817.9,331.9c-1.1,0-2-0.2-2.9-0.7s-1.5-1.1-2-1.9c-0.5-0.8-0.7-1.7-0.7-2.7c0-0.8,0.1-1.5,0.4-2.2
		c0.3-0.7,0.7-1.2,1.1-1.8c0.5-0.5,1.1-0.9,1.7-1.2c0.6-0.3,1.3-0.4,2.1-0.4c1,0,1.8,0.2,2.6,0.7c0.8,0.4,1.4,1.1,1.9,1.8
		c0.5,0.8,0.7,1.7,0.8,2.7c0,0.1,0,0.1,0,0.2c0,0,0,0.1,0,0.2h-9.6c0,0.9,0.2,1.6,0.6,2.3c0.4,0.7,0.9,1.2,1.6,1.6
		c0.7,0.4,1.5,0.6,2.3,0.6c0.8,0,1.6-0.2,2.3-0.5s1.2-0.9,1.6-1.5l0.8,0.4c-0.5,0.8-1.1,1.4-2,1.8
		C819.8,331.7,818.9,331.9,817.9,331.9z M813.5,325.7h8.5c-0.1-0.7-0.3-1.4-0.7-1.9c-0.4-0.6-0.9-1-1.5-1.3c-0.6-0.3-1.3-0.5-2-0.5
		c-0.7,0-1.4,0.2-2,0.5s-1.1,0.8-1.5,1.3C813.8,324.3,813.5,325,813.5,325.7z"/>
	<path d="M826.6,331.6v-17.2h1.1v8.4c0.3-0.5,0.7-0.9,1.3-1.3c0.6-0.3,1.3-0.5,2.2-0.5c0.8,0,1.5,0.2,2,0.5c0.6,0.3,1,0.8,1.3,1.4
		c0.3,0.6,0.5,1.4,0.5,2.3v6.4h-1.1v-6.2c0-1.1-0.3-2-0.8-2.6c-0.5-0.6-1.3-0.9-2.2-0.9c-0.7,0-1.2,0.1-1.7,0.4
		c-0.5,0.3-0.8,0.6-1.1,1.1c-0.3,0.4-0.4,0.9-0.4,1.4v6.8H826.6z"/>
	<path d="M841.7,331.9c-0.8,0-1.6-0.2-2.2-0.7c-0.6-0.4-1.1-1.1-1.5-1.9l0.6-0.5c0.3,0.7,0.7,1.2,1.2,1.6c0.5,0.4,1.1,0.6,1.8,0.6
		c0.5,0,0.9-0.1,1.3-0.3c0.4-0.2,0.7-0.5,0.9-0.8c0.2-0.4,0.4-0.8,0.4-1.3c0-0.4-0.1-0.8-0.3-1c-0.2-0.2-0.5-0.5-0.9-0.6
		c-0.4-0.2-0.9-0.4-1.4-0.6c-0.4-0.2-0.9-0.4-1.3-0.6c-0.4-0.2-0.8-0.5-1-0.8c-0.3-0.3-0.4-0.8-0.4-1.3c0-0.5,0.1-0.9,0.4-1.3
		c0.3-0.4,0.6-0.7,1.1-0.9s1-0.3,1.6-0.3c0.6,0,1.1,0.1,1.6,0.4c0.5,0.3,0.9,0.7,1.3,1.1l-0.6,0.6c-0.5-0.9-1.3-1.3-2.3-1.3
		c-0.6,0-1.1,0.2-1.5,0.5c-0.4,0.3-0.6,0.8-0.6,1.3c0,0.4,0.1,0.7,0.3,0.9c0.2,0.2,0.5,0.4,0.9,0.6s0.8,0.3,1.2,0.5
		c0.6,0.2,1.2,0.5,1.6,0.7c0.5,0.2,0.8,0.5,1.1,0.9c0.2,0.3,0.4,0.8,0.4,1.4c0,0.7-0.2,1.2-0.5,1.7s-0.7,0.9-1.3,1.1
		S842.4,331.9,841.7,331.9z"/>
	<path d="M851,331.9c-0.7,0-1.3-0.2-1.6-0.7c-0.4-0.5-0.6-1.2-0.6-2v-7h-1v-0.8h1v-3.8h1.1v3.8h2.6v0.8h-2.6v6.9
		c0,0.6,0.1,1.1,0.4,1.4c0.2,0.3,0.6,0.5,1,0.5c0.4,0,0.8-0.1,1.1-0.3l0.3,0.9c-0.2,0.1-0.4,0.2-0.7,0.3S851.3,331.9,851,331.9z"/>
	<path d="M857.3,331.9c-0.1,0-0.3,0-0.4-0.1c-0.1-0.1-0.2-0.2-0.3-0.3c-0.1-0.1-0.1-0.3-0.1-0.4c0-0.1,0-0.3,0.1-0.4
		c0.1-0.1,0.2-0.2,0.3-0.3c0.1-0.1,0.3-0.1,0.4-0.1c0.1,0,0.3,0,0.4,0.1c0.1,0.1,0.2,0.2,0.3,0.3s0.1,0.2,0.1,0.4
		c0,0.1,0,0.3-0.1,0.4c-0.1,0.1-0.2,0.2-0.3,0.3C857.5,331.9,857.4,331.9,857.3,331.9z M856.8,327.9l-0.1-13.5h1l-0.1,13.5H856.8z"
		/>
</g>
<g>
	<path class="st8" d="M369.8,223.4c-10.6,9.2-23.4,16.3-37.2,22.4c-3.9,1.7-7.7,3.5-11.3,5.5c-1.3,0.7-2.3,2.5-2.2,3.6
		c0.2,1.8,2.6,2.1,4.8,2c9.6-0.2,18.5-2.5,27.5-4.7c19.1-4.6,37-11.4,53.9-19.6c6.1-3,11.5-3.6,18.6-2c23.3,5.2,47.2,7.5,71.4,7.1
		c45.8-0.8,87.1-11.7,122.8-34c14.6-9.1,27-19.9,32-34c8.5-24.4,2.2-46.3-21.8-64.5c-20.1-15.1-44.4-24.3-71.4-29.6
		c-25.7-5-51.9-5.4-78.2-4.6c-20.4,0.6-40.6,2.6-60.4,6.6c-32.4,6.6-60.5,18.8-83.1,38c-10.6,9-18.7,19.2-22.2,31.2
		c-4.3,14.6,0.6,27.9,11.3,40.2c10,11.5,24.1,19.1,39.7,25.4c3.8,1.6,7.6,3.1,12,4.8C373.8,219.5,371.9,221.5,369.8,223.4z"/>
	<path class="st7" d="M364.1,212.5c-15.6-6.3-29.7-14-39.7-25.4c-10.6-12.2-15.5-25.5-11.3-40.2c3.5-12,11.5-22.2,22.2-31.2
		c22.6-19.2,50.7-31.3,83.1-38c19.8-4.1,40-6,60.4-6.6c26.3-0.8,52.5-0.4,78.2,4.6c27,5.3,51.3,14.4,71.4,29.6
		c24.1,18.1,30.3,40.1,21.8,64.5c-4.9,14.1-17.4,24.9-32,34c-35.7,22.3-76.9,33.2-122.8,34c-24.2,0.4-48.1-1.9-71.4-7.1
		c-7.1-1.6-12.6-1-18.6,2c-16.9,8.2-34.7,15-53.9,19.6c-9,2.2-18,4.5-27.5,4.7c-2.1,0.1-4.5-0.2-4.8-2c-0.2-1.2,0.9-2.9,2.2-3.6
		c3.5-2,7.4-3.8,11.3-5.5c13.8-6.1,26.5-13.3,37.2-22.4c2.2-1.9,4.1-3.9,6.3-6C371.7,215.6,367.9,214,364.1,212.5z M367,242.9
		c12.4-4.5,24.7-9.4,36.6-14.8c6.9-3.1,13-3.9,20.9-2.1c26.1,5.9,52.8,8.3,80,6.9c44.3-2.3,83.7-14,116.6-37.3
		c11.4-8,20.9-17.5,24.2-29.3c5.8-20.2,1.6-38.9-17.3-54.7c-19.1-15.9-43.1-25.4-69.9-31c-20.3-4.3-41.2-5.4-62.2-5.3
		c-25.7,0-51.1,1.7-76,6.8c-31,6.3-57.9,17.9-79.7,36.2c-10.2,8.5-18,18.2-21.3,29.6c-4.1,14.1,1.1,26.6,11.8,38
		c7,7.6,16,13.5,26.4,18.1c7,3.1,14.1,6,21.2,8.9c4,1.6,5.2,3.3,2.7,6.2c-3.2,3.6-6.8,7.1-10.7,10.3c-9.8,8-21.3,14.2-33.5,19.7
		c-1.4,0.7-2.9,1.4-4.3,2C344.5,249.5,356.1,246.9,367,242.9z"/>
	<path class="st9" d="M340.2,118.3"/>
</g>
<g>
	<path d="M346.8,129.3v-16.5h1.1v16.5H346.8z"/>
	<path d="M357.6,129.6c-0.8,0-1.5-0.1-2.2-0.4s-1.3-0.6-1.8-1.1c-0.5-0.5-0.9-1.1-1.2-1.7c-0.3-0.7-0.4-1.4-0.4-2.2s0.1-1.5,0.4-2.2
		c0.3-0.7,0.7-1.2,1.2-1.7c0.5-0.5,1.1-0.9,1.8-1.1s1.4-0.4,2.2-0.4c0.7,0,1.3,0.1,1.9,0.3c0.6,0.2,1.1,0.5,1.6,0.9l-0.5,0.7
		c-0.8-0.6-1.8-1-2.9-1c-0.9,0-1.7,0.2-2.4,0.6c-0.7,0.4-1.2,0.9-1.6,1.6c-0.4,0.7-0.6,1.5-0.6,2.3c0,0.9,0.2,1.6,0.6,2.3
		c0.4,0.7,0.9,1.2,1.6,1.6c0.7,0.4,1.5,0.6,2.4,0.6c0.6,0,1.1-0.1,1.6-0.2c0.5-0.2,0.9-0.4,1.3-0.7l0.5,0.7c-0.5,0.4-1,0.6-1.6,0.8
		C359,129.5,358.3,129.6,357.6,129.6z"/>
	<path d="M364.5,129.3v-17.2h1.1v8.4c0.3-0.5,0.7-0.9,1.3-1.3c0.6-0.3,1.3-0.5,2.2-0.5c0.8,0,1.5,0.2,2,0.5c0.6,0.3,1,0.8,1.3,1.4
		c0.3,0.6,0.5,1.4,0.5,2.3v6.4h-1.1v-6.2c0-1.1-0.3-2-0.8-2.6c-0.5-0.6-1.3-0.9-2.2-0.9c-0.7,0-1.2,0.1-1.7,0.4
		c-0.5,0.3-0.8,0.6-1.1,1.1c-0.3,0.4-0.4,0.9-0.4,1.4v6.8H364.5z"/>
	<path d="M382.2,129.3v-17.2h1.1v8.4c0.3-0.5,0.7-0.9,1.3-1.3c0.6-0.3,1.3-0.5,2.2-0.5c0.8,0,1.5,0.2,2,0.5c0.6,0.3,1,0.8,1.3,1.4
		c0.3,0.6,0.5,1.4,0.5,2.3v6.4h-1.1v-6.2c0-1.1-0.3-2-0.8-2.6c-0.5-0.6-1.3-0.9-2.2-0.9c-0.7,0-1.2,0.1-1.7,0.4
		c-0.5,0.3-0.8,0.6-1.1,1.1c-0.3,0.4-0.4,0.9-0.4,1.4v6.8H382.2z"/>
	<path d="M399.2,129.6c-1,0-1.8-0.2-2.6-0.7c-0.8-0.5-1.4-1.1-1.8-1.9c-0.4-0.8-0.7-1.8-0.7-2.8c0-1.1,0.2-2,0.7-2.8
		c0.4-0.8,1.1-1.5,1.8-1.9s1.6-0.7,2.6-0.7c1,0,1.9,0.2,2.6,0.7c0.8,0.5,1.4,1.1,1.8,2V119h1.1v10.2h-1.1v-2.4c-0.4,0.8-1,1.5-1.8,2
		S400.1,129.6,399.2,129.6z M399.4,128.7c0.8,0,1.6-0.2,2.2-0.6c0.6-0.4,1.1-0.9,1.5-1.6s0.5-1.5,0.5-2.3c0-0.9-0.2-1.7-0.5-2.3
		c-0.4-0.7-0.9-1.2-1.5-1.6s-1.4-0.6-2.2-0.6s-1.6,0.2-2.2,0.6s-1.1,0.9-1.5,1.6c-0.4,0.7-0.5,1.5-0.5,2.3c0,0.9,0.2,1.6,0.5,2.3
		s0.9,1.2,1.5,1.6C397.8,128.5,398.6,128.7,399.4,128.7z"/>
	<path d="M414.6,129.6c-1,0-1.8-0.2-2.6-0.7c-0.8-0.5-1.4-1.1-1.8-2v2.4h-1.1v-17.2h1.1v9.3c0.4-0.8,1-1.5,1.8-2
		c0.8-0.5,1.6-0.7,2.6-0.7c1,0,1.8,0.2,2.6,0.7s1.4,1.1,1.8,1.9c0.4,0.8,0.7,1.8,0.7,2.8c0,1-0.2,2-0.7,2.8
		c-0.4,0.8-1.1,1.5-1.8,1.9C416.4,129.4,415.5,129.6,414.6,129.6z M414.4,128.7c0.8,0,1.5-0.2,2.2-0.6c0.6-0.4,1.1-0.9,1.5-1.6
		s0.5-1.5,0.5-2.3c0-0.9-0.2-1.6-0.5-2.3c-0.4-0.7-0.9-1.2-1.5-1.6s-1.4-0.6-2.2-0.6c-0.8,0-1.6,0.2-2.2,0.6
		c-0.6,0.4-1.1,0.9-1.5,1.6c-0.4,0.7-0.5,1.5-0.5,2.3c0,0.9,0.2,1.6,0.5,2.3s0.9,1.2,1.5,1.6C412.8,128.5,413.5,128.7,414.4,128.7z"
		/>
	<path d="M428.2,129.6c-1.1,0-2-0.2-2.9-0.7c-0.8-0.5-1.5-1.1-2-1.9c-0.5-0.8-0.7-1.7-0.7-2.7c0-0.8,0.1-1.5,0.4-2.2
		c0.3-0.7,0.7-1.2,1.1-1.8c0.5-0.5,1.1-0.9,1.7-1.2c0.6-0.3,1.3-0.4,2.1-0.4c1,0,1.8,0.2,2.6,0.7c0.8,0.4,1.4,1.1,1.9,1.8
		c0.5,0.8,0.7,1.7,0.8,2.7c0,0.1,0,0.1,0,0.2c0,0,0,0.1,0,0.2h-9.6c0,0.9,0.2,1.6,0.6,2.3c0.4,0.7,0.9,1.2,1.6,1.6
		c0.7,0.4,1.5,0.6,2.3,0.6c0.8,0,1.6-0.2,2.3-0.5c0.7-0.4,1.2-0.9,1.6-1.5l0.8,0.4c-0.5,0.8-1.1,1.4-2,1.8
		C430.1,129.4,429.2,129.6,428.2,129.6z M423.8,123.4h8.5c-0.1-0.7-0.3-1.4-0.7-1.9c-0.4-0.6-0.9-1-1.5-1.3s-1.3-0.5-2-0.5
		c-0.7,0-1.4,0.2-2,0.5c-0.6,0.3-1.1,0.8-1.5,1.3C424.1,122,423.9,122.7,423.8,123.4z"/>
	<path d="M445.3,129.3l-4.9-10.2h1.2l4,8.7l4-8.7h1.2l-4.9,10.2H445.3z"/>
	<path d="M454.5,117c-0.1,0-0.3,0-0.4-0.1c-0.1-0.1-0.2-0.2-0.3-0.3c-0.1-0.1-0.1-0.2-0.1-0.4c0-0.1,0-0.3,0.1-0.4
		c0.1-0.1,0.2-0.2,0.3-0.3c0.1-0.1,0.2-0.1,0.4-0.1c0.1,0,0.3,0,0.4,0.1c0.1,0.1,0.2,0.2,0.3,0.3c0.1,0.1,0.1,0.2,0.1,0.4
		c0,0.1,0,0.3-0.1,0.4c-0.1,0.1-0.2,0.2-0.3,0.3C454.7,117,454.6,117,454.5,117z M453.9,129.3V119h1.1v10.2H453.9z"/>
	<path d="M464.3,129.6c-1.1,0-2-0.2-2.9-0.7c-0.8-0.5-1.5-1.1-2-1.9c-0.5-0.8-0.7-1.7-0.7-2.7c0-0.8,0.1-1.5,0.4-2.2
		c0.3-0.7,0.7-1.2,1.2-1.8s1.1-0.9,1.7-1.2c0.6-0.3,1.3-0.4,2.1-0.4c1,0,1.8,0.2,2.6,0.7s1.4,1.1,1.9,1.8c0.5,0.8,0.7,1.7,0.8,2.7
		c0,0.1,0,0.1,0,0.2c0,0,0,0.1,0,0.2h-9.6c0,0.9,0.2,1.6,0.6,2.3c0.4,0.7,0.9,1.2,1.6,1.6c0.7,0.4,1.5,0.6,2.3,0.6
		c0.8,0,1.6-0.2,2.3-0.5c0.7-0.4,1.2-0.9,1.6-1.5l0.8,0.4c-0.5,0.8-1.1,1.4-2,1.8C466.2,129.4,465.3,129.6,464.3,129.6z
		 M459.8,123.4h8.5c-0.1-0.7-0.3-1.4-0.7-1.9c-0.4-0.6-0.9-1-1.5-1.3c-0.6-0.3-1.3-0.5-2-0.5c-0.7,0-1.4,0.2-2,0.5
		c-0.6,0.3-1.1,0.8-1.5,1.3C460.1,122,459.9,122.7,459.8,123.4z"/>
	<path d="M472.9,129.3v-17.2h1.1v17.2H472.9z"/>
	<path d="M483.2,129.6c-1.1,0-2-0.2-2.9-0.7c-0.8-0.5-1.5-1.1-2-1.9c-0.5-0.8-0.7-1.7-0.7-2.7c0-0.8,0.1-1.5,0.4-2.2
		c0.3-0.7,0.7-1.2,1.1-1.8c0.5-0.5,1.1-0.9,1.7-1.2c0.6-0.3,1.3-0.4,2.1-0.4c1,0,1.8,0.2,2.6,0.7c0.8,0.4,1.4,1.1,1.9,1.8
		c0.5,0.8,0.7,1.7,0.8,2.7c0,0.1,0,0.1,0,0.2c0,0,0,0.1,0,0.2h-9.6c0,0.9,0.2,1.6,0.6,2.3c0.4,0.7,0.9,1.2,1.6,1.6
		c0.7,0.4,1.5,0.6,2.3,0.6c0.8,0,1.6-0.2,2.3-0.5c0.7-0.4,1.2-0.9,1.6-1.5l0.8,0.4c-0.5,0.8-1.1,1.4-2,1.8
		C485.1,129.4,484.2,129.6,483.2,129.6z M478.8,123.4h8.5c-0.1-0.7-0.3-1.4-0.7-1.9c-0.4-0.6-0.9-1-1.5-1.3s-1.3-0.5-2-0.5
		c-0.7,0-1.4,0.2-2,0.5c-0.6,0.3-1.1,0.8-1.5,1.3C479.1,122,478.8,122.7,478.8,123.4z"/>
	<path d="M497.5,129.3v-16.5h8.1v1h-7.6l0.6-0.4v8.1l-0.6-0.9h7.1v1h-7.1l0.6-0.9v8.7H497.5z"/>
	<path d="M509.4,129.3V119h1.1v1.5c0.3-0.6,0.7-1.1,1.2-1.4c0.5-0.3,1.1-0.5,1.8-0.5c0.3,0,0.6,0,0.9,0.1s0.5,0.1,0.8,0.2l-0.4,0.9
		c-0.2-0.1-0.4-0.2-0.7-0.2c-0.2,0-0.5-0.1-0.7-0.1c-0.5,0-0.9,0.1-1.4,0.4c-0.4,0.2-0.8,0.6-1.1,1c-0.3,0.4-0.4,0.8-0.4,1.3v7
		H509.4z"/>
	<path d="M522.7,129.6c-1.1,0-2-0.2-2.9-0.7c-0.8-0.5-1.5-1.1-2-1.9c-0.5-0.8-0.7-1.7-0.7-2.7c0-0.8,0.1-1.5,0.4-2.2
		c0.3-0.7,0.7-1.2,1.1-1.8c0.5-0.5,1.1-0.9,1.7-1.2c0.6-0.3,1.3-0.4,2.1-0.4c1,0,1.8,0.2,2.6,0.7c0.8,0.4,1.4,1.1,1.9,1.8
		c0.5,0.8,0.7,1.7,0.8,2.7c0,0.1,0,0.1,0,0.2c0,0,0,0.1,0,0.2h-9.6c0,0.9,0.2,1.6,0.6,2.3c0.4,0.7,0.9,1.2,1.6,1.6
		c0.7,0.4,1.5,0.6,2.3,0.6c0.8,0,1.6-0.2,2.3-0.5c0.7-0.4,1.2-0.9,1.6-1.5l0.8,0.4c-0.5,0.8-1.1,1.4-2,1.8
		C524.6,129.4,523.7,129.6,522.7,129.6z M518.3,123.4h8.5c-0.1-0.7-0.3-1.4-0.7-1.9c-0.4-0.6-0.9-1-1.5-1.3s-1.3-0.5-2-0.5
		c-0.7,0-1.4,0.2-2,0.5c-0.6,0.3-1.1,0.8-1.5,1.3C518.6,122,518.3,122.7,518.3,123.4z"/>
	<path d="M535.3,129.6c-1.5,0-2.5-0.3-3.2-1c-0.6-0.7-0.9-1.8-0.9-3.5V119h1.1v5.9c0,1.3,0.2,2.3,0.7,2.9c0.5,0.6,1.2,0.9,2.3,0.9
		c1.1,0,1.9-0.3,2.3-0.9c0.5-0.6,0.7-1.5,0.7-2.9V119h1.1v6.1c0,1.6-0.3,2.8-0.9,3.5C537.8,129.3,536.8,129.6,535.3,129.6z"/>
	<path d="M543.7,129.3V119h1.1v1.5c0.3-0.5,0.7-0.9,1.3-1.3c0.6-0.3,1.3-0.5,2.2-0.5c0.8,0,1.5,0.2,2,0.5c0.6,0.3,1,0.8,1.3,1.4
		c0.3,0.6,0.5,1.4,0.5,2.3v6.4h-1.1v-6.2c0-1.1-0.3-2-0.8-2.6s-1.3-0.9-2.2-0.9c-0.7,0-1.2,0.1-1.7,0.4c-0.5,0.3-0.8,0.6-1.1,1
		c-0.3,0.4-0.4,0.9-0.4,1.4v6.8H543.7z"/>
	<path d="M560.7,129.6c-1,0-1.8-0.2-2.6-0.7c-0.8-0.5-1.4-1.1-1.8-1.9c-0.5-0.8-0.7-1.8-0.7-2.8c0-1.1,0.2-2,0.7-2.8
		c0.4-0.8,1.1-1.5,1.8-1.9s1.6-0.7,2.6-0.7c1,0,1.8,0.2,2.6,0.7c0.8,0.5,1.4,1.1,1.8,2v-9.3h1.1v17.2h-1.1v-2.4
		c-0.4,0.8-1,1.5-1.8,2C562.5,129.4,561.6,129.6,560.7,129.6z M560.9,128.7c0.8,0,1.6-0.2,2.2-0.6c0.6-0.4,1.1-0.9,1.5-1.6
		s0.5-1.5,0.5-2.3c0-0.9-0.2-1.6-0.5-2.3c-0.4-0.7-0.9-1.2-1.5-1.6c-0.6-0.4-1.4-0.6-2.2-0.6c-0.8,0-1.5,0.2-2.2,0.6
		s-1.1,0.9-1.5,1.6c-0.4,0.7-0.5,1.5-0.5,2.3c0,0.9,0.2,1.6,0.5,2.3s0.9,1.2,1.5,1.6C559.3,128.5,560.1,128.7,560.9,128.7z"/>
	<path d="M575.4,129.6c-1.1,0-2-0.2-2.9-0.7c-0.8-0.5-1.5-1.1-2-1.9c-0.5-0.8-0.7-1.7-0.7-2.7c0-0.8,0.1-1.5,0.4-2.2
		c0.3-0.7,0.7-1.2,1.2-1.8s1.1-0.9,1.7-1.2c0.6-0.3,1.3-0.4,2.1-0.4c1,0,1.8,0.2,2.6,0.7s1.4,1.1,1.9,1.8c0.5,0.8,0.7,1.7,0.8,2.7
		c0,0.1,0,0.1,0,0.2c0,0,0,0.1,0,0.2h-9.6c0,0.9,0.2,1.6,0.6,2.3c0.4,0.7,0.9,1.2,1.6,1.6c0.7,0.4,1.5,0.6,2.3,0.6
		c0.8,0,1.6-0.2,2.3-0.5c0.7-0.4,1.2-0.9,1.6-1.5l0.8,0.4c-0.5,0.8-1.1,1.4-2,1.8C577.3,129.4,576.4,129.6,575.4,129.6z M571,123.4
		h8.5c-0.1-0.7-0.3-1.4-0.7-1.9c-0.4-0.6-0.9-1-1.5-1.3s-1.3-0.5-2-0.5c-0.7,0-1.4,0.2-2,0.5c-0.6,0.3-1.1,0.8-1.5,1.3
		C571.3,122,571,122.7,571,123.4z"/>
	<path d="M593.1,129.6c-1.5,0-2.5-0.3-3.2-1c-0.6-0.7-0.9-1.8-0.9-3.5V119h1.1v5.9c0,1.3,0.2,2.3,0.7,2.9c0.5,0.6,1.2,0.9,2.3,0.9
		c1.1,0,1.9-0.3,2.3-0.9c0.5-0.6,0.7-1.5,0.7-2.9V119h1.1v6.1c0,1.6-0.3,2.8-0.9,3.5C595.6,129.3,594.6,129.6,593.1,129.6z"/>
	<path d="M601.5,129.3V119h1.1v1.5c0.3-0.5,0.7-0.9,1.3-1.3c0.6-0.3,1.3-0.5,2.2-0.5c0.8,0,1.5,0.2,2,0.5c0.6,0.3,1,0.8,1.3,1.4
		c0.3,0.6,0.5,1.4,0.5,2.3v6.4h-1.1v-6.2c0-1.1-0.3-2-0.8-2.6s-1.3-0.9-2.2-0.9c-0.7,0-1.2,0.1-1.7,0.4c-0.5,0.3-0.8,0.6-1.1,1
		c-0.3,0.4-0.4,0.9-0.4,1.4v6.8H601.5z"/>
	<path d="M618.5,129.6c-1,0-1.8-0.2-2.6-0.7c-0.8-0.5-1.4-1.1-1.8-1.9c-0.5-0.8-0.7-1.8-0.7-2.8c0-1.1,0.2-2,0.7-2.8
		c0.4-0.8,1.1-1.5,1.8-1.9s1.6-0.7,2.6-0.7c1,0,1.8,0.2,2.6,0.7c0.8,0.5,1.4,1.1,1.8,2v-9.3h1.1v17.2h-1.1v-2.4
		c-0.4,0.8-1,1.5-1.8,2C620.3,129.4,619.4,129.6,618.5,129.6z M618.7,128.7c0.8,0,1.6-0.2,2.2-0.6c0.6-0.4,1.1-0.9,1.5-1.6
		s0.5-1.5,0.5-2.3c0-0.9-0.2-1.6-0.5-2.3c-0.4-0.7-0.9-1.2-1.5-1.6s-1.4-0.6-2.2-0.6c-0.8,0-1.5,0.2-2.2,0.6s-1.1,0.9-1.5,1.6
		c-0.4,0.7-0.6,1.5-0.6,2.3c0,0.9,0.2,1.6,0.5,2.3s0.9,1.2,1.5,1.6C617.1,128.5,617.8,128.7,618.7,128.7z"/>
	<path d="M340.2,153.3v-17.2h1.1v11.3l4.2-4.3h1.4l-4.6,4.8l4.8,5.5h-1.4l-4.4-5.1v5.1H340.2z"/>
	<path d="M355,153.6c-1.1,0-2-0.2-2.8-0.7c-0.8-0.5-1.5-1.1-2-1.9c-0.5-0.8-0.7-1.8-0.7-2.8c0-1.1,0.2-2,0.7-2.8
		c0.5-0.8,1.2-1.5,2-1.9c0.8-0.5,1.8-0.7,2.8-0.7s2,0.2,2.8,0.7s1.5,1.1,2,1.9c0.5,0.8,0.7,1.8,0.7,2.8c0,1.1-0.2,2-0.7,2.8
		c-0.5,0.8-1.2,1.5-2,1.9S356.1,153.6,355,153.6z M355,152.6c0.9,0,1.6-0.2,2.3-0.6c0.7-0.4,1.2-0.9,1.6-1.6
		c0.4-0.7,0.6-1.4,0.6-2.3c0-0.9-0.2-1.6-0.6-2.3c-0.4-0.7-0.9-1.2-1.6-1.6c-0.7-0.4-1.4-0.6-2.3-0.6s-1.6,0.2-2.3,0.6
		c-0.7,0.4-1.2,0.9-1.6,1.6c-0.4,0.7-0.6,1.4-0.6,2.3c0,0.9,0.2,1.6,0.6,2.3c0.4,0.7,0.9,1.2,1.6,1.6S354.2,152.6,355,152.6z"/>
	<path d="M364.3,153.3V143h1.1v1.5c0.4-0.6,0.9-1,1.4-1.3c0.6-0.3,1.2-0.5,2-0.5c0.9,0,1.6,0.2,2.2,0.6c0.6,0.4,1,0.9,1.3,1.6
		c0.4-0.7,0.9-1.2,1.5-1.6c0.6-0.4,1.4-0.6,2.2-0.6c0.7,0,1.4,0.1,1.9,0.4c0.6,0.3,1,0.7,1.3,1.3c0.3,0.6,0.5,1.3,0.5,2.1v6.7h-1.1
		v-6.4c0-1-0.3-1.8-0.8-2.4c-0.5-0.6-1.2-0.9-2.1-0.9c-0.6,0-1.2,0.1-1.6,0.4c-0.5,0.3-0.9,0.6-1.2,1c-0.3,0.4-0.4,0.8-0.4,1.3v7
		h-1.1v-6.6c0-0.9-0.3-1.7-0.8-2.3s-1.2-0.8-2.1-0.8c-0.6,0-1.1,0.1-1.6,0.4c-0.5,0.3-0.9,0.6-1.2,1s-0.5,0.8-0.5,1.2v7.1H364.3z"/>
	<path d="M384,153.3V143h1.1v1.5c0.4-0.6,0.9-1,1.4-1.3c0.6-0.3,1.2-0.5,2-0.5c0.9,0,1.6,0.2,2.2,0.6c0.6,0.4,1,0.9,1.3,1.6
		c0.4-0.7,0.9-1.2,1.5-1.6c0.6-0.4,1.4-0.6,2.2-0.6c0.7,0,1.4,0.1,1.9,0.4c0.6,0.3,1,0.7,1.3,1.3c0.3,0.6,0.5,1.3,0.5,2.1v6.7h-1.1
		v-6.4c0-1-0.3-1.8-0.8-2.4c-0.5-0.6-1.2-0.9-2.1-0.9c-0.6,0-1.2,0.1-1.6,0.4c-0.5,0.3-0.9,0.6-1.2,1c-0.3,0.4-0.4,0.8-0.4,1.3v7
		h-1.1v-6.6c0-0.9-0.3-1.7-0.8-2.3s-1.2-0.8-2.1-0.8c-0.6,0-1.1,0.1-1.6,0.4c-0.5,0.3-0.9,0.6-1.2,1s-0.5,0.8-0.5,1.2v7.1H384z"/>
	<path d="M408.5,153.6c-1.1,0-2-0.2-2.9-0.7s-1.5-1.1-2-1.9c-0.5-0.8-0.7-1.7-0.7-2.7c0-0.8,0.1-1.5,0.4-2.2
		c0.3-0.7,0.7-1.2,1.1-1.8c0.5-0.5,1.1-0.9,1.7-1.2c0.6-0.3,1.3-0.4,2.1-0.4c1,0,1.8,0.2,2.6,0.7s1.4,1.1,1.9,1.8
		c0.5,0.8,0.7,1.7,0.8,2.7c0,0.1,0,0.1,0,0.2c0,0,0,0.1,0,0.2H404c0,0.9,0.2,1.6,0.6,2.3c0.4,0.7,0.9,1.2,1.6,1.6
		c0.7,0.4,1.5,0.6,2.3,0.6c0.8,0,1.6-0.2,2.3-0.5s1.2-0.9,1.6-1.5l0.8,0.4c-0.5,0.8-1.1,1.4-2,1.8
		C410.4,153.4,409.5,153.6,408.5,153.6z M404.1,147.4h8.5c-0.1-0.7-0.3-1.4-0.7-1.9c-0.4-0.6-0.9-1-1.5-1.3c-0.6-0.3-1.3-0.5-2-0.5
		c-0.7,0-1.4,0.2-2,0.5s-1.1,0.8-1.5,1.3C404.4,146,404.2,146.7,404.1,147.4z"/>
	<path d="M422.4,153.3v-9.4h-1V143h1v-3.9c0-0.7,0.1-1.3,0.3-1.8c0.2-0.5,0.5-0.9,0.9-1.1c0.4-0.3,0.9-0.4,1.4-0.4
		c0.3,0,0.7,0,1,0.1c0.3,0.1,0.5,0.2,0.8,0.4l-0.4,0.8c-0.3-0.2-0.7-0.4-1.2-0.4c-0.4,0-0.7,0.1-1,0.3c-0.3,0.2-0.4,0.4-0.6,0.8
		c-0.1,0.3-0.2,0.8-0.2,1.2v4h2.7v0.8h-2.7v9.4H422.4z"/>
	<path d="M433.6,153.6c-1,0-1.8-0.2-2.6-0.7c-0.8-0.5-1.4-1.1-1.8-1.9c-0.5-0.8-0.7-1.8-0.7-2.8c0-1.1,0.2-2,0.7-2.8
		c0.4-0.8,1.1-1.5,1.8-1.9c0.8-0.5,1.6-0.7,2.6-0.7c1,0,1.9,0.2,2.6,0.7c0.8,0.5,1.4,1.1,1.8,2V143h1.1v10.2H438v-2.4
		c-0.4,0.8-1,1.5-1.8,2C435.5,153.4,434.6,153.6,433.6,153.6z M433.9,152.7c0.8,0,1.6-0.2,2.2-0.6s1.1-0.9,1.5-1.6s0.5-1.5,0.5-2.3
		c0-0.9-0.2-1.7-0.5-2.3c-0.4-0.7-0.9-1.2-1.5-1.6s-1.4-0.6-2.2-0.6c-0.8,0-1.6,0.2-2.2,0.6s-1.1,0.9-1.5,1.6
		c-0.4,0.7-0.5,1.5-0.5,2.3c0,0.9,0.2,1.6,0.5,2.3c0.4,0.7,0.9,1.2,1.5,1.6C432.3,152.5,433,152.7,433.9,152.7z"/>
	<path d="M446.1,153.6c-0.8,0-1.6-0.2-2.2-0.7c-0.6-0.4-1.1-1.1-1.5-1.9l0.6-0.5c0.3,0.7,0.7,1.2,1.2,1.6c0.5,0.4,1.1,0.6,1.8,0.6
		c0.5,0,0.9-0.1,1.3-0.3c0.4-0.2,0.7-0.5,0.9-0.8c0.2-0.4,0.3-0.8,0.3-1.3c0-0.4-0.1-0.8-0.3-1c-0.2-0.2-0.5-0.5-0.9-0.6
		c-0.4-0.2-0.9-0.4-1.5-0.6c-0.4-0.2-0.9-0.4-1.3-0.6c-0.4-0.2-0.8-0.5-1-0.8c-0.3-0.3-0.4-0.8-0.4-1.3c0-0.5,0.1-0.9,0.4-1.3
		c0.3-0.4,0.6-0.7,1.1-0.9c0.5-0.2,1-0.3,1.6-0.3c0.6,0,1.1,0.1,1.6,0.4c0.5,0.3,0.9,0.7,1.3,1.1l-0.6,0.6c-0.5-0.9-1.3-1.3-2.3-1.3
		c-0.6,0-1.1,0.2-1.5,0.5c-0.4,0.3-0.6,0.8-0.6,1.3c0,0.4,0.1,0.7,0.3,0.9c0.2,0.2,0.5,0.4,0.9,0.6c0.4,0.2,0.8,0.3,1.2,0.5
		c0.6,0.2,1.2,0.5,1.6,0.7c0.5,0.2,0.8,0.5,1.1,0.9c0.2,0.3,0.4,0.8,0.4,1.4c0,0.7-0.2,1.2-0.5,1.7c-0.3,0.5-0.7,0.9-1.3,1.1
		C447.4,153.5,446.8,153.6,446.1,153.6z"/>
	<path d="M455.4,153.6c-0.7,0-1.3-0.2-1.6-0.7c-0.4-0.5-0.6-1.2-0.6-2v-7h-1V143h1v-3.8h1.1v3.8h2.6v0.8h-2.6v6.9
		c0,0.6,0.1,1.1,0.3,1.4c0.2,0.3,0.6,0.5,1,0.5c0.4,0,0.8-0.1,1.1-0.3l0.3,0.9c-0.2,0.1-0.4,0.2-0.7,0.3S455.7,153.6,455.4,153.6z"
		/>
	<path d="M465.4,153.3V143h1.1v1.5c0.4-0.6,0.9-1,1.4-1.3s1.2-0.5,2-0.5c0.9,0,1.6,0.2,2.2,0.6c0.6,0.4,1,0.9,1.3,1.6
		c0.4-0.7,0.9-1.2,1.5-1.6c0.6-0.4,1.4-0.6,2.2-0.6c0.7,0,1.4,0.1,1.9,0.4c0.6,0.3,1,0.7,1.3,1.3c0.3,0.6,0.5,1.3,0.5,2.1v6.7h-1.1
		v-6.4c0-1-0.3-1.8-0.8-2.4c-0.5-0.6-1.2-0.9-2.1-0.9c-0.6,0-1.2,0.1-1.7,0.4s-0.9,0.6-1.2,1c-0.3,0.4-0.4,0.8-0.4,1.3v7h-1.1v-6.6
		c0-0.9-0.3-1.7-0.8-2.3s-1.2-0.8-2.1-0.8c-0.6,0-1.1,0.1-1.6,0.4c-0.5,0.3-0.9,0.6-1.2,1s-0.5,0.8-0.5,1.2v7.1H465.4z"/>
	<path d="M485.6,141c-0.1,0-0.3,0-0.4-0.1c-0.1-0.1-0.2-0.2-0.3-0.3c-0.1-0.1-0.1-0.2-0.1-0.4c0-0.1,0-0.3,0.1-0.4
		c0.1-0.1,0.2-0.2,0.3-0.3c0.1-0.1,0.2-0.1,0.4-0.1c0.1,0,0.3,0,0.4,0.1c0.1,0.1,0.2,0.2,0.3,0.3c0.1,0.1,0.1,0.2,0.1,0.4
		c0,0.1,0,0.3-0.1,0.4c-0.1,0.1-0.2,0.2-0.3,0.3C485.9,141,485.8,141,485.6,141z M485.1,153.3V143h1.1v10.2H485.1z"/>
	<path d="M493,153.6c-0.7,0-1.3-0.2-1.6-0.7c-0.4-0.5-0.6-1.2-0.6-2v-7h-1V143h1v-3.8h1.1v3.8h2.6v0.8h-2.6v6.9
		c0,0.6,0.1,1.1,0.3,1.4c0.2,0.3,0.6,0.5,1,0.5c0.4,0,0.8-0.1,1.1-0.3l0.3,0.9c-0.2,0.1-0.4,0.2-0.7,0.3S493.2,153.6,493,153.6z"/>
	<path d="M501.4,158.8c-0.3,0-0.6,0-0.9-0.1s-0.5-0.2-0.7-0.4l0.3-0.8c0.3,0.3,0.7,0.4,1.2,0.4c1.1,0,1.7-0.7,1.7-2.2V143h1.1v12.6
		c0,1-0.2,1.8-0.7,2.3C502.9,158.5,502.2,158.8,501.4,158.8z M503.4,141c-0.1,0-0.3,0-0.4-0.1c-0.1-0.1-0.2-0.2-0.3-0.3
		c-0.1-0.1-0.1-0.2-0.1-0.4c0-0.1,0-0.3,0.1-0.4c0.1-0.1,0.2-0.2,0.3-0.3c0.1-0.1,0.2-0.1,0.4-0.1c0.1,0,0.3,0,0.4,0.1
		c0.1,0.1,0.2,0.2,0.3,0.3c0.1,0.1,0.1,0.2,0.1,0.4s0,0.3-0.1,0.4c-0.1,0.1-0.2,0.2-0.3,0.3C503.7,141,503.6,141,503.4,141z"/>
	<path d="M513.2,153.6c-1.1,0-2-0.2-2.9-0.7c-0.8-0.5-1.5-1.1-2-1.9c-0.5-0.8-0.7-1.7-0.7-2.7c0-0.8,0.1-1.5,0.4-2.2
		c0.3-0.7,0.7-1.2,1.1-1.8c0.5-0.5,1.1-0.9,1.7-1.2c0.6-0.3,1.3-0.4,2.1-0.4c1,0,1.8,0.2,2.6,0.7c0.8,0.4,1.4,1.1,1.9,1.8
		c0.5,0.8,0.7,1.7,0.8,2.7c0,0.1,0,0.1,0,0.2c0,0,0,0.1,0,0.2h-9.6c0,0.9,0.2,1.6,0.6,2.3c0.4,0.7,0.9,1.2,1.6,1.6s1.5,0.6,2.3,0.6
		c0.8,0,1.6-0.2,2.3-0.5s1.2-0.9,1.6-1.5l0.8,0.4c-0.5,0.8-1.1,1.4-2,1.8C515.1,153.4,514.2,153.6,513.2,153.6z M508.8,147.4h8.5
		c-0.1-0.7-0.3-1.4-0.7-1.9c-0.4-0.6-0.9-1-1.5-1.3s-1.3-0.5-2-0.5c-0.7,0-1.4,0.2-2,0.5c-0.6,0.3-1.1,0.8-1.5,1.3
		C509.1,146,508.9,146.7,508.8,147.4z"/>
	<path d="M526.3,153.6c-1,0-1.8-0.2-2.6-0.7c-0.8-0.5-1.4-1.1-1.8-1.9c-0.4-0.8-0.7-1.8-0.7-2.8c0-1.1,0.2-2,0.7-2.8
		c0.4-0.8,1.1-1.5,1.8-1.9s1.6-0.7,2.6-0.7c1,0,1.8,0.2,2.6,0.7c0.8,0.5,1.4,1.1,1.8,2v-9.3h1.1v17.2h-1.1v-2.4
		c-0.4,0.8-1,1.5-1.8,2S527.2,153.6,526.3,153.6z M526.5,152.7c0.8,0,1.6-0.2,2.2-0.6c0.6-0.4,1.1-0.9,1.5-1.6s0.5-1.5,0.5-2.3
		c0-0.9-0.2-1.6-0.5-2.3c-0.4-0.7-0.9-1.2-1.5-1.6c-0.6-0.4-1.4-0.6-2.2-0.6c-0.8,0-1.5,0.2-2.2,0.6s-1.1,0.9-1.5,1.6
		c-0.4,0.7-0.5,1.5-0.5,2.3c0,0.9,0.2,1.6,0.5,2.3s0.9,1.2,1.5,1.6C525,152.5,525.7,152.7,526.5,152.7z"/>
	<path d="M541,153.6c-1.1,0-2-0.2-2.9-0.7c-0.8-0.5-1.5-1.1-2-1.9c-0.5-0.8-0.7-1.7-0.7-2.7c0-0.8,0.1-1.5,0.4-2.2
		c0.3-0.7,0.7-1.2,1.2-1.8s1.1-0.9,1.7-1.2c0.6-0.3,1.3-0.4,2.1-0.4c1,0,1.8,0.2,2.6,0.7s1.4,1.1,1.9,1.8c0.5,0.8,0.7,1.7,0.8,2.7
		c0,0.1,0,0.1,0,0.2c0,0,0,0.1,0,0.2h-9.6c0,0.9,0.2,1.6,0.6,2.3c0.4,0.7,0.9,1.2,1.6,1.6c0.7,0.4,1.5,0.6,2.3,0.6
		c0.8,0,1.6-0.2,2.3-0.5s1.2-0.9,1.6-1.5l0.8,0.4c-0.5,0.8-1.1,1.4-2,1.8C542.9,153.4,542,153.6,541,153.6z M536.6,147.4h8.5
		c-0.1-0.7-0.3-1.4-0.7-1.9c-0.4-0.6-0.9-1-1.5-1.3c-0.6-0.3-1.3-0.5-2-0.5c-0.7,0-1.4,0.2-2,0.5c-0.6,0.3-1.1,0.8-1.5,1.3
		C536.9,146,536.6,146.7,536.6,147.4z"/>
	<path d="M549.6,153.3V143h1.1v1.5c0.3-0.6,0.7-1.1,1.2-1.4c0.5-0.3,1.1-0.5,1.8-0.5c0.3,0,0.6,0,0.9,0.1s0.5,0.1,0.8,0.2l-0.4,0.9
		c-0.2-0.1-0.4-0.2-0.7-0.2c-0.2,0-0.5-0.1-0.7-0.1c-0.5,0-0.9,0.1-1.4,0.4s-0.8,0.6-1.1,1c-0.3,0.4-0.4,0.8-0.4,1.3v7H549.6z"/>
	<path d="M563.9,153.3v-16.5h4c1.1,0,2,0.2,2.8,0.6c0.8,0.4,1.4,0.9,1.8,1.6c0.4,0.7,0.6,1.5,0.6,2.4c0,0.9-0.2,1.8-0.6,2.5
		c-0.4,0.7-1,1.3-1.8,1.7c-0.8,0.4-1.7,0.6-2.8,0.6H565v7.1H563.9z M565,145.2h2.7c0.9,0,1.7-0.2,2.3-0.5c0.6-0.3,1.1-0.8,1.5-1.3
		s0.5-1.2,0.5-2c0-0.8-0.2-1.4-0.5-2c-0.3-0.6-0.8-1-1.5-1.3c-0.6-0.3-1.4-0.5-2.3-0.5H565V145.2z"/>
	<path d="M580.8,153.6c-1.1,0-2-0.2-2.9-0.7c-0.8-0.5-1.5-1.1-2-1.9c-0.5-0.8-0.7-1.7-0.7-2.7c0-0.8,0.1-1.5,0.4-2.2
		c0.3-0.7,0.7-1.2,1.2-1.8s1.1-0.9,1.7-1.2c0.6-0.3,1.3-0.4,2.1-0.4c1,0,1.8,0.2,2.6,0.7s1.4,1.1,1.9,1.8c0.5,0.8,0.7,1.7,0.8,2.7
		c0,0.1,0,0.1,0,0.2c0,0,0,0.1,0,0.2h-9.6c0,0.9,0.2,1.6,0.6,2.3c0.4,0.7,0.9,1.2,1.6,1.6s1.5,0.6,2.3,0.6c0.8,0,1.6-0.2,2.3-0.5
		c0.7-0.4,1.2-0.9,1.6-1.5l0.8,0.4c-0.5,0.8-1.1,1.4-2,1.8C582.7,153.4,581.8,153.6,580.8,153.6z M576.3,147.4h8.5
		c-0.1-0.7-0.3-1.4-0.7-1.9c-0.4-0.6-0.9-1-1.5-1.3c-0.6-0.3-1.3-0.5-2-0.5c-0.7,0-1.4,0.2-2,0.5s-1.1,0.8-1.5,1.3
		C576.6,146,576.4,146.7,576.3,147.4z"/>
	<path d="M589.4,153.3V143h1.1v1.5c0.3-0.6,0.7-1.1,1.2-1.4c0.5-0.3,1.1-0.5,1.8-0.5c0.3,0,0.6,0,0.9,0.1s0.5,0.1,0.8,0.2l-0.4,0.9
		c-0.2-0.1-0.4-0.2-0.7-0.2c-0.2,0-0.5-0.1-0.7-0.1c-0.5,0-0.9,0.1-1.4,0.4c-0.4,0.2-0.8,0.6-1.1,1c-0.3,0.4-0.4,0.8-0.4,1.3v7
		H589.4z"/>
	<path d="M600.5,153.6c-0.8,0-1.6-0.2-2.2-0.7c-0.6-0.4-1.1-1.1-1.5-1.9l0.6-0.5c0.3,0.7,0.7,1.2,1.2,1.6c0.5,0.4,1.1,0.6,1.8,0.6
		c0.5,0,0.9-0.1,1.3-0.3c0.4-0.2,0.7-0.5,0.9-0.8c0.2-0.4,0.3-0.8,0.3-1.3c0-0.4-0.1-0.8-0.3-1c-0.2-0.2-0.5-0.5-0.9-0.6
		c-0.4-0.2-0.9-0.4-1.5-0.6c-0.4-0.2-0.9-0.4-1.3-0.6c-0.4-0.2-0.8-0.5-1-0.8c-0.3-0.3-0.4-0.8-0.4-1.3c0-0.5,0.1-0.9,0.4-1.3
		c0.3-0.4,0.6-0.7,1.1-0.9c0.5-0.2,1-0.3,1.6-0.3c0.6,0,1.1,0.1,1.6,0.4s0.9,0.7,1.3,1.1l-0.6,0.6c-0.5-0.9-1.3-1.3-2.3-1.3
		c-0.6,0-1.1,0.2-1.5,0.5s-0.6,0.8-0.6,1.3c0,0.4,0.1,0.7,0.3,0.9s0.5,0.4,0.9,0.6c0.4,0.2,0.8,0.3,1.2,0.5c0.6,0.2,1.2,0.5,1.6,0.7
		c0.5,0.2,0.8,0.5,1.1,0.9c0.2,0.3,0.4,0.8,0.4,1.4c0,0.7-0.2,1.2-0.5,1.7c-0.3,0.5-0.7,0.9-1.3,1.1
		C601.8,153.5,601.2,153.6,600.5,153.6z"/>
	<path d="M612.6,153.6c-1.1,0-2-0.2-2.8-0.7c-0.8-0.5-1.5-1.1-2-1.9c-0.5-0.8-0.7-1.8-0.7-2.8c0-1.1,0.2-2,0.7-2.8
		c0.5-0.8,1.2-1.5,2-1.9c0.8-0.5,1.8-0.7,2.8-0.7c1.1,0,2,0.2,2.8,0.7c0.8,0.5,1.5,1.1,2,1.9c0.5,0.8,0.7,1.8,0.7,2.8
		c0,1.1-0.2,2-0.7,2.8c-0.5,0.8-1.2,1.5-2,1.9C614.6,153.4,613.6,153.6,612.6,153.6z M612.6,152.6c0.9,0,1.6-0.2,2.3-0.6
		s1.2-0.9,1.6-1.6c0.4-0.7,0.6-1.4,0.6-2.3c0-0.9-0.2-1.6-0.6-2.3c-0.4-0.7-0.9-1.2-1.6-1.6c-0.7-0.4-1.4-0.6-2.3-0.6
		c-0.9,0-1.6,0.2-2.3,0.6c-0.7,0.4-1.2,0.9-1.6,1.6c-0.4,0.7-0.6,1.4-0.6,2.3c0,0.9,0.2,1.6,0.6,2.3c0.4,0.7,0.9,1.2,1.6,1.6
		S611.7,152.6,612.6,152.6z"/>
	<path d="M621.8,153.3V143h1.1v1.5c0.3-0.5,0.7-0.9,1.3-1.3c0.6-0.3,1.3-0.5,2.2-0.5c0.8,0,1.5,0.2,2,0.5c0.6,0.3,1,0.8,1.3,1.4
		c0.3,0.6,0.5,1.4,0.5,2.3v6.4h-1.1v-6.2c0-1.1-0.3-2-0.8-2.6s-1.3-0.9-2.2-0.9c-0.7,0-1.2,0.1-1.7,0.4c-0.5,0.3-0.8,0.6-1.1,1
		c-0.3,0.4-0.4,0.9-0.4,1.4v6.8H621.8z"/>
	<path d="M338.1,182.8c-1.3,0-2.4-0.3-3.2-0.8c-0.9-0.5-1.5-1.2-2-2.2l0.9-0.4c0.3,0.8,0.9,1.4,1.6,1.8c0.8,0.5,1.7,0.7,2.7,0.7
		c0.8,0,1.6-0.2,2.2-0.5c0.7-0.3,1.2-0.8,1.6-1.4c0.4-0.6,0.6-1.4,0.6-2.3v-2.8c-0.4,0.8-1,1.5-1.8,2c-0.8,0.5-1.6,0.7-2.6,0.7
		c-1,0-1.8-0.2-2.6-0.7c-0.8-0.5-1.4-1.1-1.8-1.9c-0.5-0.8-0.7-1.8-0.7-2.8c0-1.1,0.2-2,0.7-2.8c0.4-0.8,1.1-1.5,1.8-1.9
		s1.6-0.7,2.6-0.7c1,0,1.8,0.2,2.6,0.7c0.8,0.5,1.4,1.1,1.8,2V167h1.1v10.5c0,1.2-0.2,2.1-0.7,2.9c-0.5,0.8-1.1,1.4-1.9,1.7
		C340.1,182.6,339.2,182.8,338.1,182.8z M338.3,176.7c0.8,0,1.6-0.2,2.2-0.6c0.6-0.4,1.1-0.9,1.5-1.6c0.4-0.7,0.5-1.5,0.5-2.3
		c0-0.9-0.2-1.6-0.5-2.3c-0.4-0.7-0.9-1.2-1.5-1.6c-0.6-0.4-1.4-0.6-2.2-0.6c-0.8,0-1.6,0.2-2.2,0.6c-0.6,0.4-1.1,0.9-1.5,1.6
		c-0.4,0.7-0.5,1.5-0.5,2.3c0,0.9,0.2,1.6,0.5,2.3s0.9,1.2,1.5,1.6C336.7,176.5,337.4,176.7,338.3,176.7z"/>
	<path d="M351.9,177.6c-1.5,0-2.5-0.3-3.2-1c-0.6-0.7-0.9-1.8-0.9-3.5V167h1.1v5.9c0,1.3,0.2,2.3,0.7,2.9c0.5,0.6,1.2,0.9,2.3,0.9
		c1.1,0,1.9-0.3,2.3-0.9s0.7-1.5,0.7-2.9V167h1.1v6.1c0,1.6-0.3,2.8-0.9,3.5S353.4,177.6,351.9,177.6z"/>
	<path d="M362.5,177.6c-0.7,0-1.3-0.2-1.6-0.7c-0.4-0.5-0.6-1.2-0.6-2v-7h-1V167h1v-3.8h1.1v3.8h2.6v0.8h-2.6v6.9
		c0,0.6,0.1,1.1,0.4,1.4c0.2,0.3,0.6,0.5,1,0.5c0.4,0,0.8-0.1,1.1-0.3l0.3,0.9c-0.2,0.1-0.4,0.2-0.7,0.3S362.8,177.6,362.5,177.6z"
		/>
	<path d="M376.9,177.6c-1,0-1.8-0.2-2.6-0.7c-0.8-0.5-1.4-1.1-1.8-1.9c-0.4-0.8-0.7-1.8-0.7-2.8c0-1.1,0.2-2,0.7-2.8
		c0.4-0.8,1.1-1.5,1.8-1.9s1.6-0.7,2.6-0.7c1,0,1.9,0.2,2.6,0.7c0.8,0.5,1.4,1.1,1.8,2V167h1.1v10.2h-1.1v-2.4c-0.4,0.8-1,1.5-1.8,2
		S377.8,177.6,376.9,177.6z M377.1,176.7c0.8,0,1.6-0.2,2.2-0.6s1.1-0.9,1.5-1.6s0.5-1.5,0.5-2.3c0-0.9-0.2-1.7-0.5-2.3
		c-0.4-0.7-0.9-1.2-1.5-1.6s-1.4-0.6-2.2-0.6s-1.6,0.2-2.2,0.6s-1.1,0.9-1.5,1.6c-0.4,0.7-0.5,1.5-0.5,2.3c0,0.9,0.2,1.6,0.5,2.3
		s0.9,1.2,1.5,1.6C375.5,176.5,376.3,176.7,377.1,176.7z"/>
	<path d="M390.7,177.6c-1.5,0-2.5-0.3-3.2-1c-0.6-0.7-0.9-1.8-0.9-3.5V167h1.1v5.9c0,1.3,0.2,2.3,0.7,2.9c0.5,0.6,1.2,0.9,2.3,0.9
		c1.1,0,1.9-0.3,2.3-0.9s0.7-1.5,0.7-2.9V167h1.1v6.1c0,1.6-0.3,2.8-0.9,3.5S392.2,177.6,390.7,177.6z"/>
	<path d="M401.6,177.6c-0.8,0-1.6-0.2-2.2-0.7c-0.6-0.4-1.1-1.1-1.5-1.9l0.6-0.5c0.3,0.7,0.7,1.2,1.2,1.6c0.5,0.4,1.1,0.6,1.8,0.6
		c0.5,0,0.9-0.1,1.3-0.3c0.4-0.2,0.7-0.5,0.9-0.8c0.2-0.4,0.4-0.8,0.4-1.3c0-0.4-0.1-0.8-0.3-1c-0.2-0.2-0.5-0.5-0.9-0.6
		c-0.4-0.2-0.9-0.4-1.4-0.6c-0.4-0.2-0.9-0.4-1.3-0.6c-0.4-0.2-0.8-0.5-1-0.8c-0.3-0.3-0.4-0.8-0.4-1.3c0-0.5,0.1-0.9,0.4-1.3
		c0.3-0.4,0.6-0.7,1.1-0.9s1-0.3,1.6-0.3c0.6,0,1.1,0.1,1.6,0.4c0.5,0.3,0.9,0.7,1.3,1.1l-0.6,0.6c-0.5-0.9-1.3-1.3-2.3-1.3
		c-0.6,0-1.1,0.2-1.5,0.5c-0.4,0.3-0.6,0.8-0.6,1.3c0,0.4,0.1,0.7,0.3,0.9c0.2,0.2,0.5,0.4,0.9,0.6s0.8,0.3,1.2,0.5
		c0.6,0.2,1.2,0.5,1.6,0.7c0.5,0.2,0.8,0.5,1.1,0.9c0.2,0.3,0.4,0.8,0.4,1.4c0,0.7-0.2,1.2-0.5,1.7s-0.7,0.9-1.3,1.1
		S402.3,177.6,401.6,177.6z"/>
	<path d="M409.8,179.5l-0.2-0.2c0.1-0.1,0.2-0.3,0.3-0.5c0.1-0.2,0.1-0.4,0.2-0.6c0-0.2,0.1-0.4,0.1-0.6c-0.2,0-0.4-0.1-0.5-0.3
		c-0.1-0.1-0.2-0.3-0.2-0.5c0-0.2,0.1-0.4,0.2-0.6c0.1-0.1,0.3-0.2,0.6-0.2c0.3,0,0.5,0.1,0.6,0.2s0.2,0.4,0.2,0.7
		c0,0.4-0.1,0.9-0.4,1.3C410.4,178.8,410.1,179.2,409.8,179.5z"/>
	<path d="M421.6,165c-0.1,0-0.3,0-0.4-0.1c-0.1-0.1-0.2-0.2-0.3-0.3c-0.1-0.1-0.1-0.2-0.1-0.4c0-0.1,0-0.3,0.1-0.4
		c0.1-0.1,0.2-0.2,0.3-0.3c0.1-0.1,0.2-0.1,0.4-0.1c0.1,0,0.3,0,0.4,0.1c0.1,0.1,0.2,0.2,0.3,0.3c0.1,0.1,0.1,0.2,0.1,0.4
		c0,0.1,0,0.3-0.1,0.4c-0.1,0.1-0.2,0.2-0.3,0.3C421.9,165,421.8,165,421.6,165z M421.1,177.3V167h1.1v10.2H421.1z"/>
	<path d="M429.3,177.6c-0.8,0-1.6-0.2-2.2-0.7c-0.6-0.4-1.1-1.1-1.5-1.9l0.6-0.5c0.3,0.7,0.7,1.2,1.2,1.6c0.5,0.4,1.1,0.6,1.8,0.6
		c0.5,0,0.9-0.1,1.3-0.3c0.4-0.2,0.7-0.5,0.9-0.8c0.2-0.4,0.4-0.8,0.4-1.3c0-0.4-0.1-0.8-0.3-1s-0.5-0.5-0.9-0.6
		c-0.4-0.2-0.9-0.4-1.4-0.6c-0.4-0.2-0.9-0.4-1.3-0.6c-0.4-0.2-0.8-0.5-1-0.8c-0.3-0.3-0.4-0.8-0.4-1.3c0-0.5,0.1-0.9,0.4-1.3
		c0.3-0.4,0.6-0.7,1.1-0.9c0.5-0.2,1-0.3,1.6-0.3c0.6,0,1.1,0.1,1.6,0.4s0.9,0.7,1.3,1.1l-0.6,0.6c-0.5-0.9-1.3-1.3-2.3-1.3
		c-0.6,0-1.1,0.2-1.5,0.5s-0.6,0.8-0.6,1.3c0,0.4,0.1,0.7,0.3,0.9s0.5,0.4,0.9,0.6c0.4,0.2,0.8,0.3,1.2,0.5c0.6,0.2,1.2,0.5,1.6,0.7
		s0.8,0.5,1.1,0.9c0.2,0.3,0.4,0.8,0.4,1.4c0,0.7-0.2,1.2-0.5,1.7c-0.3,0.5-0.7,0.9-1.3,1.1C430.6,177.5,429.9,177.6,429.3,177.6z"
		/>
	<path d="M438.6,177.6c-0.7,0-1.3-0.2-1.6-0.7c-0.4-0.5-0.6-1.2-0.6-2v-7h-1V167h1v-3.8h1.1v3.8h2.6v0.8h-2.6v6.9
		c0,0.6,0.1,1.1,0.4,1.4c0.2,0.3,0.6,0.5,1,0.5c0.4,0,0.8-0.1,1.1-0.3l0.3,0.9c-0.2,0.1-0.4,0.2-0.7,0.3S438.9,177.6,438.6,177.6z"
		/>
	<path d="M453,177.6c-1,0-1.8-0.2-2.6-0.7c-0.8-0.5-1.4-1.1-1.8-1.9c-0.4-0.8-0.7-1.8-0.7-2.8c0-1.1,0.2-2,0.7-2.8
		c0.4-0.8,1.1-1.5,1.8-1.9s1.6-0.7,2.6-0.7c1,0,1.8,0.2,2.6,0.7c0.8,0.5,1.4,1.1,1.8,2v-9.3h1.1v17.2h-1.1v-2.4
		c-0.4,0.8-1,1.5-1.8,2S453.9,177.6,453,177.6z M453.2,176.7c0.8,0,1.6-0.2,2.2-0.6c0.6-0.4,1.1-0.9,1.5-1.6s0.5-1.5,0.5-2.3
		c0-0.9-0.2-1.6-0.5-2.3c-0.4-0.7-0.9-1.2-1.5-1.6c-0.6-0.4-1.4-0.6-2.2-0.6c-0.8,0-1.5,0.2-2.2,0.6s-1.1,0.9-1.5,1.6
		c-0.4,0.7-0.5,1.5-0.5,2.3c0,0.9,0.2,1.6,0.5,2.3s0.9,1.2,1.5,1.6C451.6,176.5,452.3,176.7,453.2,176.7z"/>
	<path d="M467.3,177.6c-1,0-1.8-0.2-2.6-0.7c-0.8-0.5-1.4-1.1-1.8-1.9c-0.5-0.8-0.7-1.8-0.7-2.8c0-1.1,0.2-2,0.7-2.8
		c0.4-0.8,1.1-1.5,1.8-1.9c0.8-0.5,1.6-0.7,2.6-0.7c1,0,1.9,0.2,2.6,0.7c0.8,0.5,1.4,1.1,1.8,2V167h1.1v10.2h-1.1v-2.4
		c-0.4,0.8-1,1.5-1.8,2C469.1,177.4,468.2,177.6,467.3,177.6z M467.5,176.7c0.8,0,1.6-0.2,2.2-0.6s1.1-0.9,1.5-1.6s0.5-1.5,0.5-2.3
		c0-0.9-0.2-1.7-0.5-2.3c-0.4-0.7-0.9-1.2-1.5-1.6s-1.4-0.6-2.2-0.6c-0.8,0-1.6,0.2-2.2,0.6s-1.1,0.9-1.5,1.6
		c-0.4,0.7-0.5,1.5-0.5,2.3c0,0.9,0.2,1.6,0.5,2.3c0.4,0.7,0.9,1.2,1.5,1.6C465.9,176.5,466.7,176.7,467.5,176.7z"/>
	<path d="M487.1,177.6c-1.1,0-2-0.2-2.9-0.7c-0.8-0.5-1.5-1.1-2-1.9c-0.5-0.8-0.7-1.7-0.7-2.7c0-0.8,0.1-1.5,0.4-2.2
		c0.3-0.7,0.7-1.2,1.1-1.8c0.5-0.5,1.1-0.9,1.7-1.2c0.6-0.3,1.3-0.4,2.1-0.4c1,0,1.8,0.2,2.6,0.7c0.8,0.4,1.4,1.1,1.9,1.8
		c0.5,0.8,0.7,1.7,0.8,2.7c0,0.1,0,0.1,0,0.2c0,0,0,0.1,0,0.2h-9.6c0,0.9,0.2,1.6,0.6,2.3c0.4,0.7,0.9,1.2,1.6,1.6s1.5,0.6,2.3,0.6
		c0.8,0,1.6-0.2,2.3-0.5s1.2-0.9,1.6-1.5l0.8,0.4c-0.5,0.8-1.1,1.4-2,1.8C489,177.4,488.1,177.6,487.1,177.6z M482.6,171.4h8.5
		c-0.1-0.7-0.3-1.4-0.7-1.9c-0.4-0.6-0.9-1-1.5-1.3s-1.3-0.5-2-0.5c-0.7,0-1.4,0.2-2,0.5c-0.6,0.3-1.1,0.8-1.5,1.3
		C483,170,482.7,170.7,482.6,171.4z"/>
	<path d="M498,177.6c-0.7,0-1.3-0.2-1.6-0.7c-0.4-0.5-0.6-1.2-0.6-2v-7h-1V167h1v-3.8h1.1v3.8h2.6v0.8h-2.6v6.9
		c0,0.6,0.1,1.1,0.3,1.4c0.2,0.3,0.6,0.5,1,0.5c0.4,0,0.8-0.1,1.1-0.3l0.3,0.9c-0.2,0.1-0.4,0.2-0.7,0.3S498.2,177.6,498,177.6z"/>
	<path d="M506.3,177.3l-4.9-10.2h1.2l4,8.6l3.4-8.6h0.7l3.4,8.6l4-8.6h1.2l-4.9,10.2h-0.7l-3.4-8.5l-3.4,8.5H506.3z"/>
	<path d="M526.6,177.6c-1,0-1.8-0.2-2.6-0.7c-0.8-0.5-1.4-1.1-1.8-1.9c-0.5-0.8-0.7-1.8-0.7-2.8c0-1.1,0.2-2,0.7-2.8
		c0.4-0.8,1.1-1.5,1.8-1.9c0.8-0.5,1.6-0.7,2.6-0.7c1,0,1.9,0.2,2.6,0.7c0.8,0.5,1.4,1.1,1.8,2V167h1.1v10.2H531v-2.4
		c-0.4,0.8-1,1.5-1.8,2C528.4,177.4,527.5,177.6,526.6,177.6z M526.8,176.7c0.8,0,1.6-0.2,2.2-0.6s1.1-0.9,1.5-1.6s0.5-1.5,0.5-2.3
		c0-0.9-0.2-1.7-0.5-2.3c-0.4-0.7-0.9-1.2-1.5-1.6s-1.4-0.6-2.2-0.6c-0.8,0-1.6,0.2-2.2,0.6s-1.1,0.9-1.5,1.6
		c-0.4,0.7-0.5,1.5-0.5,2.3c0,0.9,0.2,1.6,0.5,2.3c0.4,0.7,0.9,1.2,1.5,1.6C525.2,176.5,526,176.7,526.8,176.7z"/>
	<path d="M539,177.6c-0.8,0-1.6-0.2-2.2-0.7c-0.6-0.4-1.1-1.1-1.5-1.9l0.6-0.5c0.3,0.7,0.7,1.2,1.2,1.6c0.5,0.4,1.1,0.6,1.8,0.6
		c0.5,0,0.9-0.1,1.3-0.3c0.4-0.2,0.7-0.5,0.9-0.8c0.2-0.4,0.3-0.8,0.3-1.3c0-0.4-0.1-0.8-0.3-1c-0.2-0.2-0.5-0.5-0.9-0.6
		c-0.4-0.2-0.9-0.4-1.5-0.6c-0.4-0.2-0.9-0.4-1.3-0.6c-0.4-0.2-0.8-0.5-1-0.8c-0.3-0.3-0.4-0.8-0.4-1.3c0-0.5,0.1-0.9,0.4-1.3
		c0.3-0.4,0.6-0.7,1.1-0.9c0.5-0.2,1-0.3,1.6-0.3c0.6,0,1.1,0.1,1.6,0.4c0.5,0.3,0.9,0.7,1.3,1.1l-0.6,0.6c-0.5-0.9-1.3-1.3-2.3-1.3
		c-0.6,0-1.1,0.2-1.5,0.5c-0.4,0.3-0.6,0.8-0.6,1.3c0,0.4,0.1,0.7,0.3,0.9c0.2,0.2,0.5,0.4,0.9,0.6c0.4,0.2,0.8,0.3,1.2,0.5
		c0.6,0.2,1.2,0.5,1.6,0.7c0.5,0.2,0.8,0.5,1.1,0.9c0.2,0.3,0.4,0.8,0.4,1.4c0,0.7-0.2,1.2-0.5,1.7c-0.3,0.5-0.7,0.9-1.3,1.1
		C540.3,177.5,539.7,177.6,539,177.6z"/>
	<path d="M551.5,177.3v-9.4h-1V167h1v-3.9c0-0.7,0.1-1.3,0.3-1.8c0.2-0.5,0.5-0.9,0.9-1.1c0.4-0.3,0.9-0.4,1.4-0.4
		c0.3,0,0.7,0,1,0.1c0.3,0.1,0.5,0.2,0.8,0.4l-0.4,0.8c-0.3-0.2-0.7-0.4-1.2-0.4c-0.4,0-0.7,0.1-1,0.3c-0.3,0.2-0.4,0.4-0.6,0.8
		c-0.1,0.3-0.2,0.8-0.2,1.2v4h2.7v0.8h-2.7v9.4H551.5z"/>
	<path d="M562.3,177.6c-1.5,0-2.5-0.3-3.2-1s-0.9-1.8-0.9-3.5V167h1.1v5.9c0,1.3,0.2,2.3,0.7,2.9s1.2,0.9,2.3,0.9s1.9-0.3,2.3-0.9
		c0.5-0.6,0.7-1.5,0.7-2.9V167h1.1v6.1c0,1.6-0.3,2.8-0.9,3.5C564.8,177.3,563.8,177.6,562.3,177.6z M559.9,164
		c-0.2,0-0.4-0.1-0.5-0.2c-0.1-0.1-0.2-0.3-0.2-0.5s0.1-0.4,0.2-0.5c0.1-0.1,0.3-0.2,0.5-0.2s0.4,0.1,0.5,0.2
		c0.1,0.1,0.2,0.3,0.2,0.5s-0.1,0.4-0.2,0.5C560.3,163.9,560.1,164,559.9,164z M564.6,164c-0.2,0-0.4-0.1-0.5-0.2
		c-0.1-0.1-0.2-0.3-0.2-0.5s0.1-0.4,0.2-0.5c0.1-0.1,0.3-0.2,0.5-0.2s0.4,0.1,0.5,0.2c0.1,0.1,0.2,0.3,0.2,0.5s-0.1,0.4-0.2,0.5
		C565,163.9,564.8,164,564.6,164z"/>
	<path d="M570.7,177.3V167h1.1v1.5c0.3-0.6,0.7-1.1,1.2-1.4c0.5-0.3,1.1-0.5,1.8-0.5c0.3,0,0.6,0,0.9,0.1c0.3,0.1,0.5,0.1,0.8,0.2
		l-0.4,0.9c-0.2-0.1-0.4-0.2-0.7-0.2c-0.2,0-0.5-0.1-0.7-0.1c-0.5,0-0.9,0.1-1.4,0.4c-0.4,0.2-0.8,0.6-1.1,1
		c-0.3,0.4-0.4,0.8-0.4,1.3v7H570.7z"/>
	<path d="M584.4,177.3V167h1.1v1.5c0.4-0.6,0.9-1,1.4-1.3c0.6-0.3,1.2-0.5,2-0.5c0.9,0,1.6,0.2,2.2,0.6c0.6,0.4,1,0.9,1.3,1.6
		c0.4-0.7,0.9-1.2,1.5-1.6c0.6-0.4,1.4-0.6,2.2-0.6c0.7,0,1.4,0.1,1.9,0.4c0.6,0.3,1,0.7,1.3,1.3c0.3,0.6,0.5,1.3,0.5,2.1v6.7h-1.1
		v-6.4c0-1-0.3-1.8-0.8-2.4c-0.5-0.6-1.2-0.9-2.1-0.9c-0.6,0-1.2,0.1-1.7,0.4s-0.9,0.6-1.2,1c-0.3,0.4-0.4,0.8-0.4,1.3v7h-1.1v-6.6
		c0-0.9-0.3-1.7-0.8-2.3s-1.2-0.8-2.1-0.8c-0.6,0-1.1,0.1-1.6,0.4c-0.5,0.3-0.9,0.6-1.2,1s-0.5,0.8-0.5,1.2v7.1H584.4z"/>
	<path d="M604.7,165c-0.1,0-0.3,0-0.4-0.1c-0.1-0.1-0.2-0.2-0.3-0.3c-0.1-0.1-0.1-0.2-0.1-0.4c0-0.1,0-0.3,0.1-0.4
		c0.1-0.1,0.2-0.2,0.3-0.3c0.1-0.1,0.2-0.1,0.4-0.1c0.1,0,0.3,0,0.4,0.1c0.1,0.1,0.2,0.2,0.3,0.3c0.1,0.1,0.1,0.2,0.1,0.4
		c0,0.1,0,0.3-0.1,0.4c-0.1,0.1-0.2,0.2-0.3,0.3C604.9,165,604.8,165,604.7,165z M604.1,177.3V167h1.1v10.2H604.1z"/>
	<path d="M614.4,177.6c-0.8,0-1.5-0.1-2.2-0.4s-1.3-0.6-1.8-1.1c-0.5-0.5-0.9-1.1-1.2-1.7c-0.3-0.7-0.4-1.4-0.4-2.2s0.1-1.5,0.4-2.2
		c0.3-0.7,0.7-1.2,1.2-1.7c0.5-0.5,1.1-0.9,1.8-1.1c0.7-0.3,1.4-0.4,2.2-0.4c0.7,0,1.3,0.1,1.9,0.3s1.1,0.5,1.6,0.9l-0.5,0.7
		c-0.8-0.6-1.8-1-2.9-1c-0.9,0-1.7,0.2-2.4,0.6c-0.7,0.4-1.2,0.9-1.6,1.6c-0.4,0.7-0.6,1.5-0.6,2.3c0,0.9,0.2,1.6,0.6,2.3
		c0.4,0.7,0.9,1.2,1.6,1.6c0.7,0.4,1.5,0.6,2.4,0.6c0.6,0,1.1-0.1,1.6-0.2c0.5-0.2,0.9-0.4,1.3-0.7l0.5,0.7c-0.5,0.4-1,0.6-1.6,0.8
		C615.7,177.5,615.1,177.6,614.4,177.6z"/>
	<path d="M621.3,177.3v-17.2h1.1v8.4c0.3-0.5,0.7-0.9,1.3-1.3c0.6-0.3,1.3-0.5,2.2-0.5c0.8,0,1.5,0.2,2,0.5c0.6,0.3,1,0.8,1.3,1.4
		c0.3,0.6,0.5,1.4,0.5,2.3v6.4h-1.1v-6.2c0-1.1-0.3-2-0.8-2.6c-0.5-0.6-1.3-0.9-2.2-0.9c-0.7,0-1.2,0.1-1.7,0.4
		c-0.5,0.3-0.8,0.6-1.1,1.1c-0.3,0.4-0.4,0.9-0.4,1.4v6.8H621.3z"/>
	<path d="M636.1,177.6c-0.7,0-1.3-0.2-1.6-0.7c-0.4-0.5-0.6-1.2-0.6-2v-7h-1V167h1v-3.8h1.1v3.8h2.6v0.8h-2.6v6.9
		c0,0.6,0.1,1.1,0.4,1.4c0.2,0.3,0.6,0.5,1,0.5c0.4,0,0.8-0.1,1.1-0.3l0.3,0.9c-0.2,0.1-0.4,0.2-0.7,0.3S636.4,177.6,636.1,177.6z"
		/>
	<path d="M453.9,201.6c-1,0-1.8-0.2-2.6-0.7c-0.8-0.5-1.4-1.1-1.8-1.9c-0.4-0.8-0.7-1.8-0.7-2.8c0-1.1,0.2-2,0.7-2.8
		c0.4-0.8,1.1-1.5,1.8-1.9s1.6-0.7,2.6-0.7c1,0,1.8,0.2,2.6,0.7c0.8,0.5,1.4,1.1,1.8,2v-9.3h1.1v17.2h-1.1v-2.4
		c-0.4,0.8-1,1.5-1.8,2S454.9,201.6,453.9,201.6z M454.1,200.7c0.8,0,1.6-0.2,2.2-0.6c0.6-0.4,1.1-0.9,1.5-1.6s0.5-1.5,0.5-2.3
		c0-0.9-0.2-1.6-0.5-2.3c-0.4-0.7-0.9-1.2-1.5-1.6c-0.6-0.4-1.4-0.6-2.2-0.6c-0.8,0-1.5,0.2-2.2,0.6s-1.1,0.9-1.5,1.6
		c-0.4,0.7-0.5,1.5-0.5,2.3c0,0.9,0.2,1.6,0.5,2.3s0.9,1.2,1.5,1.6C452.6,200.5,453.3,200.7,454.1,200.7z"/>
	<path d="M468.2,201.6c-1,0-1.8-0.2-2.6-0.7c-0.8-0.5-1.4-1.1-1.8-1.9c-0.5-0.8-0.7-1.8-0.7-2.8c0-1.1,0.2-2,0.7-2.8
		c0.4-0.8,1.1-1.5,1.8-1.9c0.8-0.5,1.6-0.7,2.6-0.7c1,0,1.9,0.2,2.6,0.7c0.8,0.5,1.4,1.1,1.8,2V191h1.1v10.2h-1.1v-2.4
		c-0.4,0.8-1,1.5-1.8,2C470.1,201.4,469.2,201.6,468.2,201.6z M468.5,200.7c0.8,0,1.6-0.2,2.2-0.6s1.1-0.9,1.5-1.6s0.5-1.5,0.5-2.3
		c0-0.9-0.2-1.7-0.5-2.3c-0.4-0.7-0.9-1.2-1.5-1.6s-1.4-0.6-2.2-0.6c-0.8,0-1.6,0.2-2.2,0.6s-1.1,0.9-1.5,1.6
		c-0.4,0.7-0.5,1.5-0.5,2.3c0,0.9,0.2,1.6,0.5,2.3c0.4,0.7,0.9,1.2,1.5,1.6C466.9,200.5,467.6,200.7,468.5,200.7z"/>
	<path d="M483.6,201.6c-1,0-1.8-0.2-2.6-0.7c-0.8-0.5-1.4-1.1-1.8-2v2.4h-1.1v-17.2h1.1v9.3c0.4-0.8,1-1.5,1.8-2
		c0.8-0.5,1.6-0.7,2.6-0.7c1,0,1.8,0.2,2.6,0.7s1.4,1.1,1.8,1.9c0.4,0.8,0.7,1.8,0.7,2.8c0,1-0.2,2-0.7,2.8
		c-0.4,0.8-1.1,1.5-1.8,1.9C485.5,201.4,484.6,201.6,483.6,201.6z M483.4,200.7c0.8,0,1.5-0.2,2.2-0.6c0.6-0.4,1.1-0.9,1.5-1.6
		s0.5-1.5,0.5-2.3c0-0.9-0.2-1.6-0.5-2.3c-0.4-0.7-0.9-1.2-1.5-1.6s-1.4-0.6-2.2-0.6c-0.8,0-1.6,0.2-2.2,0.6
		c-0.6,0.4-1.1,0.9-1.5,1.6c-0.4,0.7-0.5,1.5-0.5,2.3c0,0.9,0.2,1.6,0.5,2.3s0.9,1.2,1.5,1.6C481.9,200.5,482.6,200.7,483.4,200.7z"
		/>
	<path d="M497.3,201.6c-1.1,0-2-0.2-2.9-0.7c-0.8-0.5-1.5-1.1-2-1.9c-0.5-0.8-0.7-1.7-0.7-2.7c0-0.8,0.1-1.5,0.4-2.2
		c0.3-0.7,0.7-1.2,1.1-1.8c0.5-0.5,1.1-0.9,1.7-1.2c0.6-0.3,1.3-0.4,2.1-0.4c1,0,1.8,0.2,2.6,0.7c0.8,0.4,1.4,1.1,1.9,1.8
		c0.5,0.8,0.7,1.7,0.8,2.7c0,0.1,0,0.1,0,0.2c0,0,0,0.1,0,0.2h-9.6c0,0.9,0.2,1.6,0.6,2.3c0.4,0.7,0.9,1.2,1.6,1.6s1.5,0.6,2.3,0.6
		c0.8,0,1.6-0.2,2.3-0.5s1.2-0.9,1.6-1.5l0.8,0.4c-0.5,0.8-1.1,1.4-2,1.8C499.2,201.4,498.3,201.6,497.3,201.6z M492.8,195.4h8.5
		c-0.1-0.7-0.3-1.4-0.7-1.9c-0.4-0.6-0.9-1-1.5-1.3s-1.3-0.5-2-0.5c-0.7,0-1.4,0.2-2,0.5c-0.6,0.3-1.1,0.8-1.5,1.3
		C493.2,194,492.9,194.7,492.8,195.4z"/>
	<path d="M506.4,189c-0.1,0-0.3,0-0.4-0.1c-0.1-0.1-0.2-0.2-0.3-0.3c-0.1-0.1-0.1-0.2-0.1-0.4c0-0.1,0-0.3,0.1-0.4
		c0.1-0.1,0.2-0.2,0.3-0.3c0.1-0.1,0.2-0.1,0.4-0.1c0.1,0,0.3,0,0.4,0.1c0.1,0.1,0.2,0.2,0.3,0.3c0.1,0.1,0.1,0.2,0.1,0.4
		c0,0.1,0,0.3-0.1,0.4c-0.1,0.1-0.2,0.2-0.3,0.3C506.7,189,506.6,189,506.4,189z M505.9,201.3V191h1.1v10.2H505.9z"/>
	<path d="M515,197.3v-3.9c0.1,0,0.2,0,0.3,0c0.1,0,0.2,0,0.3,0c0.8,0,1.5-0.2,2.2-0.5c0.6-0.3,1.1-0.8,1.5-1.4s0.5-1.3,0.5-2.2
		c0-0.8-0.2-1.5-0.5-2.1c-0.3-0.6-0.8-1-1.4-1.3c-0.6-0.3-1.3-0.5-2.1-0.5c-1.2,0-2.1,0.4-2.9,1.1s-1.1,1.7-1.1,2.9l-1-0.1
		c0-1,0.3-1.9,0.7-2.6c0.4-0.7,1-1.3,1.8-1.6s1.5-0.6,2.4-0.6c1,0,1.9,0.2,2.6,0.6c0.8,0.4,1.4,1,1.8,1.8c0.4,0.7,0.7,1.6,0.7,2.5
		c0,0.9-0.2,1.7-0.6,2.4c-0.4,0.7-1,1.3-1.7,1.8c-0.7,0.4-1.6,0.7-2.6,0.7v2.9H515z M515.5,201.6c-0.1,0-0.3,0-0.4-0.1
		c-0.1-0.1-0.2-0.2-0.3-0.3c-0.1-0.1-0.1-0.2-0.1-0.4c0-0.1,0-0.3,0.1-0.4c0.1-0.1,0.2-0.2,0.3-0.3c0.1-0.1,0.2-0.1,0.4-0.1
		c0.1,0,0.3,0,0.4,0.1c0.1,0.1,0.2,0.2,0.3,0.3c0.1,0.1,0.1,0.3,0.1,0.4c0,0.1,0,0.3-0.1,0.4c-0.1,0.1-0.2,0.2-0.3,0.3
		C515.8,201.6,515.6,201.6,515.5,201.6z"/>
</g>
</svg>
