<?xml version="1.0" encoding="utf-8"?>
<!-- Generator: Adobe Illustrator 26.0.1, SVG Export Plug-In . SVG Version: 6.00 Build 0)  -->
<svg version="1.1" id="Layer_1" xmlns="http://www.w3.org/2000/svg" xmlns:xlink="http://www.w3.org/1999/xlink" x="0px" y="0px"
	 viewBox="0 0 841.89 595.28" style="enable-background:new 0 0 841.89 595.28;" xml:space="preserve">
<style type="text/css">
	.st0{opacity:0.9;fill:#FECA82;enable-background:new    ;}
	.st1{fill:none;stroke:#1D1D1B;stroke-width:0.75;stroke-miterlimit:10;}
	.st2{opacity:0.9;fill:#FFCE83;enable-background:new    ;}
	.st3{opacity:0.9;fill:#FFCE83;}
	.st4{fill:#1D1D1B;}
	.st5{fill:#262262;}
	.st6{fill:#FFFFFF;}
	.st7{fill:#C2B59B;}
	.st8{fill:none;}
	.st9{fill:#754C29;}
	.st10{fill:#010101;}
	.st11{fill:#FFC868;}
	.st12{fill:none;stroke:#1D1D1B;stroke-miterlimit:10;}
	.st13{fill:#006838;}
	.st14{fill:#3C2415;enable-background:new    ;}
	.st15{opacity:0.9;fill:#FFC868;enable-background:new    ;}
	.st16{fill:#3C2415;}
	.st17{opacity:0.23;fill:#EE1F52;}
	.st18{fill:#DB5041;}
	.st19{font-family:'MyriadPro-Regular';}
	.st20{font-size:21px;}
</style>
<g>
	<g>
		<path class="st0" d="M427.97,218.97v13.49c0,0-2.78,5.27-8.72,5.27c-6.25,0-8.72-5.18-8.72-5.18v-12.95L427.97,218.97z"/>
		<path class="st1" d="M118.3,216.9"/>
		<g>
			<path class="st2" d="M374.99,322.86c0.59,2.53,2.27,5.13,4.93,5.13c2.76,0,4.93-0.82,4.93-3.35c0-0.67,0.39-5.21,0.1-5.73
				l-0.59-3.94h-9.67C374.6,318.11,374.6,321.15,374.99,322.86z"/>
			<path class="st2" d="M463.21,325.79c1.98-1.75,3.06-5.41,3.69-10.15h-11.16C453.85,328.79,460.15,328.62,463.21,325.79z"/>
		</g>
		<path class="st3" d="M462.31,119.6c4.75,7.2,10.49,18.03,13.07,31.99c5.73,30.91-7.97,55.44-13.07,63.63
			c-9.99,2.97-25.23,6.4-43.96,6.33c-18.4-0.07-30.16-0.2-39.41-6.33c-26.86-17.8-7.24-69.88-3.39-80.11
			c1.96-5.21,3.95-9.47,5.44-12.47l0,0c0,0,20.05-7.56,32.15-9.9C424.02,110.65,440.03,110.55,462.31,119.6z"/>
	</g>
	<g>
		<ellipse class="st4" cx="377.27" cy="154.97" rx="4.24" ry="3.91"/>
		<ellipse class="st4" cx="421.56" cy="157.16" rx="4.24" ry="3.91"/>
		<path class="st1" d="M411,198.19c-7.71,7.84-21.58,7.81-31.01-0.08"/>
		<polygon class="st5" points="453.03,312.37 440.44,384.44 429.25,384.44 430.29,322.46 402.83,323.06 399.38,384.44 
			388.78,384.44 383.07,313.67 		"/>
		<polygon class="st6" points="440.87,384.44 440.87,389.2 421.84,389.2 429.35,384.44 		"/>
		<polygon class="st6" points="399.8,384.44 399.8,389.2 381.8,389.2 388.91,384.44 		"/>
		<path class="st7" d="M371.97,314.86h10.93c0,0,69.05-3.15,69.05,5.77h13.91c3.24-26.81-8.09-82.8-8.09-82.8l-31.97-0.23
			l-47.93,0.2l-5.49,66.4C372.29,307.26,372.08,311.14,371.97,314.86z"/>
		<path class="st4" d="M451.95,320.63"/>
		<line class="st8" x1="465.86" y1="320.63" x2="474.69" y2="320.63"/>
		<line class="st1" x1="451.95" y1="320.63" x2="442.05" y2="262.15"/>
		<line class="st1" x1="392.09" y1="261.16" x2="382.9" y2="314.86"/>
		<line class="st8" x1="363.8" y1="314.86" x2="371.97" y2="314.86"/>
		<path class="st9" d="M374.72,132.41c0,0,35.49,5.52,52.25,2.16c0.52,0.39,28.07,4.04,41.82,1.01c0.19-0.84,2.26-17.82-15.26-24.72
			c-4.52-1.68-27.88-7.06-48.42,1.85c-2.26,0.84-16.58,3.19-18.65,3.19C379.64,118.37,377.29,118.41,374.72,132.41z"/>
		
			<ellipse transform="matrix(0.049 -0.9988 0.9988 0.049 319.0131 558.9495)" class="st9" cx="453.03" cy="111.95" rx="10.78" ry="14.87"/>
		<path class="st7" d="M418.55,232.31c-10.11-0.28-21.76-0.44-34.38-0.35c-5.24,1.1-6.3,5.85-6.3,5.85l40.68,0.02V232.31z"/>
		<path class="st7" d="M417.13,232.4c10.11-0.28,21.76-0.44,34.38-0.35c5.24,1.1,6.3,5.85,6.3,5.85l-40.68,0.02V232.4z"/>
	</g>
</g>
<g>
	<path class="st3" d="M216.93,124.41c4.09,7.79,9.03,19.52,11.26,34.64c4.94,33.46-6.87,60.02-11.26,68.89
		c-8.61,3.21-21.73,6.93-37.86,6.85c-12.09-0.06-25.24-0.12-33.94-6.85c-16.94-13.09-19.22-53.14-6.09-97.71
		c6.77-4.53,19.07-11.39,35.55-13.24C194.14,114.79,209.44,120.79,216.93,124.41z"/>
	<rect x="149.34" y="229.87" class="st10" width="62.93" height="15.52"/>
	<path class="st0" d="M188.03,229.87v14.4c0,0-2.61,5.63-8.21,5.63c-5.88,0-8.21-5.53-8.21-5.53v-13.83L188.03,229.87z"/>
	<path class="st11" d="M239.63,226.94"/>
	<path class="st12" d="M187.96,195.62c-4.26,7.15-11.7,6.77-16.68-0.67"/>
	<ellipse class="st4" cx="157.77" cy="164.94" rx="4.19" ry="4.28"/>
	<ellipse class="st4" cx="201.49" cy="166" rx="4.19" ry="4.28"/>
	<ellipse class="st1" cx="156.59" cy="164.94" rx="19.55" ry="19.97"/>
	<ellipse class="st1" cx="203.05" cy="164.94" rx="19.55" ry="19.97"/>
	<path class="st1" d="M27.18,150.03"/>
	<line class="st1" x1="176.13" y1="164.94" x2="183.5" y2="164.94"/>
	<line class="st1" x1="137.04" y1="164.94" x2="124.14" y2="158.17"/>
	<line class="st1" x1="222.59" y1="164.94" x2="236.16" y2="159.44"/>
	<path class="st10" d="M207.46,126.16"/>
	<g>
		<polygon points="210.85,315.68 200.31,382.33 190.88,382.33 191.82,324.93 168.86,325.5 165.97,382.33 157.2,382.33 
			152.35,316.92 		"/>
		<polygon class="st6" points="200.68,382.33 200.68,386.81 184.72,386.81 191.07,382.33 		"/>
		<polygon class="st6" points="166.34,382.33 166.34,386.81 151.32,386.81 157.2,382.33 		"/>
		<path class="st2" d="M217.66,334.94c2.05-2,3.17-6.2,3.83-11.63h-11.57C207.96,338.38,214.49,338.19,217.66,334.94z"/>
		<path class="st2" d="M143.39,328.08c0.56,3.24,2.15,6.58,4.67,6.58c2.61,0,4.67-1.05,4.67-4.29c0-0.86,0.37-6.67,0.09-7.34
			l-0.56-5.05h-9.14C143.01,321.98,143.01,325.89,143.39,328.08z"/>
		<path class="st13" d="M143.11,317.97h9.14c0,0,57.67-2.86,57.67,5.34h11.57c2.71-24.79-6.81-76.66-6.81-76.66l-26.69-0.19
			l-40.03,0.19l-4.57,61.4C143.39,310.92,143.2,314.54,143.11,317.97z"/>
		<path class="st4" d="M209.82,323.31"/>
		<line class="st8" x1="221.49" y1="323.31" x2="228.86" y2="323.31"/>
		<line class="st1" x1="209.82" y1="323.31" x2="201.61" y2="269.15"/>
		<line class="st1" x1="159.9" y1="268.3" x2="152.16" y2="317.97"/>
		<line class="st8" x1="136.3" y1="317.97" x2="143.11" y2="317.97"/>
		<path class="st13" d="M182.02,241.5c-8.49-0.29-18.2-0.38-28.74-0.29c-4.39,1.05-5.23,5.34-5.23,5.34h33.96L182.02,241.5
			L182.02,241.5z"/>
		<path class="st13" d="M180.8,241.69c8.49-0.29,18.2-0.38,28.74-0.29c4.39,1.05,5.23,5.34,5.23,5.34H180.8V241.69L180.8,241.69z"/>
	</g>
	<path class="st10" d="M157.28,138.6c-9.91,10.5-14.16,20.77-16.15,27.6c-8.52,29.23,4.44,63.49,31.94,88.94
		c-14.8,0.61-32.43-0.69-51.28-6.61c-3.24-1.02-6.36-2.12-9.34-3.28l5.33-110.52c9.52-23,29.26-36.06,46.62-33.17
		c10.08,1.68,17.11,8.36,20.79,12.64C175.89,122.33,166.58,130.47,157.28,138.6z"/>
	<path class="st10" d="M204.04,138.6c9.91,10.5,14.16,20.77,16.15,27.6c8.52,29.23-4.44,63.49-31.94,88.94
		c14.8,0.61,32.43-0.69,51.28-6.61c3.24-1.02,6.36-2.12,9.34-3.28l-5.33-110.52c-9.52-23-29.26-36.06-46.62-33.17
		c-10.08,1.68-17.11,8.36-20.79,12.64C185.43,122.33,194.73,130.47,204.04,138.6z"/>
</g>
<g>
	<g>
		<path class="st14" d="M706.3,131.1c0,0,30.06,94.01,0,123.35c-16.78,7.26-89.33,10.99-98.8-3.53
			c-15.3-14.94-25.66-78.13-10.11-119.82C609.02,119.76,676.54,112.89,706.3,131.1z"/>
		<path class="st15" d="M695.71,120.01c0,0,24.85,73.22,0,96.07c-13.87,5.65-73.85,8.56-81.68-2.75
			c-12.65-11.63-21.22-60.86-8.35-93.32C615.27,111.18,671.1,105.83,695.71,120.01z"/>
		<g>
			<g>
				<path class="st16" d="M712.71,159.4c1.52-4.19,6-18.32-1.91-32.23c-13.56-23.86-53.01-30.14-59.42-21.93
					c-4.63,5.92,7.31,20.38,11.27,25.18C678.95,150.17,702,156.97,712.71,159.4z"/>
				<path class="st16" d="M592.47,163.43c-1.56-4.55-6.12-19.89,2.39-35.12c14.22-25.44,54.37-34.14,63-24.47
					c6.55,7.34-4.07,26.61-13.44,37.06C626.11,161.3,599.03,163.15,592.47,163.43z"/>
			</g>
		</g>
		<ellipse class="st4" cx="633.85" cy="163.43" rx="4.25" ry="3.9"/>
		<ellipse class="st4" cx="671.84" cy="163.43" rx="4.25" ry="3.9"/>
		<path class="st15" d="M661.9,219.65v15.52c0,0-3.13,6.06-9.83,6.06c-7.04,0-9.83-5.96-9.83-5.96v-14.9L661.9,219.65z"/>
		<path class="st12" d="M667.6,191.08c-7.93,7.71-21.79,7.3-31.07-0.72"/>
		<g>
			<polygon points="688.58,311.73 675.95,383.55 664.67,383.55 665.78,321.7 638.29,322.31 634.83,383.55 624.33,383.55 
				618.52,313.06 			"/>
			<polygon class="st6" points="676.4,383.55 676.4,388.38 657.29,388.38 664.89,383.55 			"/>
			<polygon class="st6" points="635.28,383.55 635.28,388.38 617.29,388.38 624.33,383.55 			"/>
			<path class="st15" d="M696.74,332.48c2.46-2.16,3.8-6.68,4.58-12.54h-13.86C685.12,336.18,692.94,335.98,696.74,332.48z"/>
			<path class="st15" d="M607.79,325.09c0.67,3.49,2.57,7.09,5.59,7.09c3.13,0,5.59-1.13,5.59-4.62c0-0.92,0.45-7.19,0.11-7.91
				l-0.67-5.45h-10.95C607.34,318.51,607.34,322.72,607.79,325.09z"/>
			<path d="M607.45,314.19h10.95c0,0,69.06-3.08,69.06,5.75h13.86c3.24-26.71-8.16-82.61-8.16-82.61l-31.96-0.21l-47.94,0.21
				l-5.48,66.17C607.79,306.59,607.56,310.5,607.45,314.19z"/>
			<path class="st4" d="M687.35,319.95"/>
			<line class="st8" x1="701.32" y1="319.95" x2="710.15" y2="319.95"/>
			<line class="st1" x1="687.35" y1="319.95" x2="677.52" y2="261.59"/>
			<line class="st1" x1="627.57" y1="260.66" x2="618.29" y2="314.19"/>
			<line class="st8" x1="599.3" y1="314.19" x2="607.45" y2="314.19"/>
			<path d="M654.05,231.79c-10.17-0.31-21.79-0.41-34.42-0.31c-5.25,1.13-6.26,5.75-6.26,5.75h40.68L654.05,231.79L654.05,231.79z"
				/>
			<path d="M652.6,232c10.17-0.31,21.79-0.41,34.42-0.31c5.25,1.13,6.26,5.75,6.26,5.75H652.6V232L652.6,232z"/>
		</g>
		<ellipse class="st17" cx="687.03" cy="181" rx="5.61" ry="5.16"/>
		<ellipse class="st6" cx="600.97" cy="181" rx="1.68" ry="1.54"/>
		<ellipse class="st6" cx="706.75" cy="179.45" rx="1.68" ry="1.54"/>
		<ellipse class="st17" cx="618.52" cy="179.45" rx="5.61" ry="5.16"/>
	</g>
</g>
<g>
	<path class="st18" d="M151.86,421.99v-14.85h5.06c0.97,0,1.82,0.17,2.57,0.5s1.34,0.84,1.77,1.5c0.43,0.66,0.65,1.49,0.65,2.48
		c0,0.98-0.22,1.82-0.65,2.52c-0.43,0.7-1.02,1.23-1.77,1.6s-1.61,0.55-2.57,0.55h-2.14v5.7H151.86z M154.77,413.96h1.24
		c0.51,0,0.98-0.08,1.41-0.23c0.43-0.15,0.78-0.39,1.04-0.72s0.4-0.76,0.4-1.3c0-0.55-0.13-0.98-0.4-1.31s-0.61-0.56-1.04-0.71
		c-0.43-0.15-0.9-0.22-1.41-0.22h-1.24V413.96z"/>
	<path class="st18" d="M167.33,422.28c-0.85,0-1.62-0.21-2.31-0.63c-0.69-0.42-1.24-1-1.65-1.75c-0.41-0.74-0.61-1.59-0.61-2.53
		c0-0.92,0.19-1.75,0.58-2.49c0.39-0.74,0.93-1.32,1.62-1.75c0.69-0.43,1.47-0.64,2.36-0.64c0.65,0,1.26,0.12,1.83,0.37
		c0.57,0.25,1.03,0.59,1.39,1.04v-1.12h2.76v9.22h-2.76v-1.21c-0.42,0.49-0.9,0.86-1.45,1.12S167.96,422.28,167.33,422.28z
		 M168.15,419.93c0.48,0,0.91-0.11,1.28-0.33c0.37-0.22,0.66-0.52,0.87-0.9c0.21-0.38,0.31-0.82,0.31-1.31
		c0-0.5-0.11-0.94-0.32-1.32c-0.21-0.38-0.5-0.68-0.87-0.9s-0.79-0.33-1.27-0.33c-0.47,0-0.9,0.11-1.27,0.33
		c-0.37,0.22-0.67,0.52-0.88,0.9c-0.22,0.38-0.32,0.82-0.32,1.31s0.11,0.93,0.32,1.31s0.5,0.69,0.88,0.9
		C167.24,419.82,167.67,419.93,168.15,419.93z"/>
	<path class="st18" d="M179.61,422.28c-0.92,0-1.63-0.29-2.14-0.88s-0.76-1.4-0.76-2.45v-4.08h-1.23v-2.1h1.23v-3.46h2.76v3.46h2.02
		v2.1h-2.02v3.88c0,0.35,0.07,0.61,0.21,0.79c0.14,0.18,0.34,0.27,0.6,0.27c0.29,0,0.56-0.1,0.83-0.29l0.69,2.21
		c-0.31,0.17-0.66,0.3-1.05,0.4C180.36,422.23,179.98,422.28,179.61,422.28z"/>
	<path class="st18" d="M184.19,421.99v-9.22h2.76v1.32c0.34-0.52,0.76-0.91,1.26-1.19c0.5-0.28,1.03-0.42,1.6-0.42
		c0.32,0,0.66,0.05,1.01,0.14c0.35,0.1,0.64,0.22,0.87,0.37l-1.15,2.33c-0.2-0.14-0.44-0.25-0.71-0.33
		c-0.27-0.08-0.53-0.12-0.76-0.12c-0.36,0-0.7,0.09-1.03,0.28c-0.32,0.19-0.58,0.43-0.78,0.72c-0.2,0.3-0.3,0.62-0.3,0.96v5.15
		H184.19z"/>
	<path class="st18" d="M194.59,410.86c-0.3,0-0.57-0.07-0.82-0.22c-0.25-0.15-0.45-0.35-0.6-0.6s-0.22-0.53-0.22-0.83
		c0-0.3,0.07-0.57,0.22-0.82s0.35-0.44,0.6-0.59c0.25-0.15,0.52-0.22,0.82-0.22s0.57,0.07,0.82,0.22c0.25,0.15,0.44,0.34,0.59,0.59
		c0.15,0.25,0.22,0.52,0.22,0.82c0,0.3-0.07,0.58-0.22,0.83c-0.15,0.25-0.34,0.45-0.59,0.6
		C195.16,410.78,194.89,410.86,194.59,410.86z M193.2,421.99v-9.22h2.76v9.22H193.2z"/>
	<path class="st18" d="M203.54,422.28c-0.7,0-1.36-0.13-1.99-0.38c-0.62-0.25-1.17-0.6-1.64-1.05c-0.47-0.45-0.85-0.97-1.12-1.56
		c-0.27-0.59-0.41-1.23-0.41-1.9c0-0.65,0.13-1.28,0.38-1.86c0.25-0.59,0.61-1.11,1.08-1.57c0.46-0.46,1.01-0.82,1.64-1.08
		c0.63-0.26,1.31-0.4,2.04-0.4c0.59,0,1.17,0.08,1.71,0.25s0.99,0.38,1.33,0.65l-0.94,1.86c-0.45-0.33-1.01-0.49-1.67-0.49
		c-0.57,0-1.05,0.13-1.45,0.38c-0.4,0.25-0.7,0.58-0.9,0.98c-0.21,0.4-0.31,0.83-0.31,1.27c0,0.49,0.11,0.93,0.33,1.33
		c0.22,0.4,0.54,0.72,0.94,0.95c0.4,0.23,0.87,0.35,1.41,0.35c0.33,0,0.64-0.04,0.93-0.14c0.29-0.09,0.53-0.21,0.73-0.36l0.94,1.86
		c-0.34,0.26-0.78,0.47-1.32,0.64C204.71,422.19,204.14,422.28,203.54,422.28z"/>
	<path class="st18" d="M210.14,410.86c-0.3,0-0.57-0.07-0.82-0.22c-0.25-0.15-0.45-0.35-0.6-0.6s-0.22-0.53-0.22-0.83
		c0-0.3,0.07-0.57,0.22-0.82s0.35-0.44,0.6-0.59c0.25-0.15,0.52-0.22,0.82-0.22s0.57,0.07,0.82,0.22c0.25,0.15,0.44,0.34,0.59,0.59
		c0.15,0.25,0.22,0.52,0.22,0.82c0,0.3-0.07,0.58-0.22,0.83c-0.15,0.25-0.34,0.45-0.59,0.6
		C210.71,410.78,210.44,410.86,210.14,410.86z M208.76,421.99v-9.22h2.76v9.22H208.76z"/>
	<path class="st18" d="M218.62,422.28c-0.85,0-1.62-0.21-2.31-0.63c-0.69-0.42-1.24-1-1.65-1.75c-0.41-0.74-0.61-1.59-0.61-2.53
		c0-0.92,0.19-1.75,0.58-2.49c0.39-0.74,0.93-1.32,1.62-1.75c0.69-0.43,1.47-0.64,2.36-0.64c0.65,0,1.26,0.12,1.83,0.37
		c0.57,0.25,1.03,0.59,1.39,1.04v-1.12h2.76v9.22h-2.76v-1.21c-0.42,0.49-0.9,0.86-1.45,1.12S219.25,422.28,218.62,422.28z
		 M219.44,419.93c0.48,0,0.91-0.11,1.28-0.33c0.37-0.22,0.66-0.52,0.87-0.9c0.21-0.38,0.31-0.82,0.31-1.31
		c0-0.5-0.11-0.94-0.32-1.32c-0.21-0.38-0.5-0.68-0.87-0.9s-0.79-0.33-1.27-0.33c-0.47,0-0.9,0.11-1.27,0.33
		c-0.37,0.22-0.67,0.52-0.88,0.9c-0.22,0.38-0.32,0.82-0.32,1.31s0.11,0.93,0.32,1.31s0.5,0.69,0.88,0.9
		C218.53,419.82,218.96,419.93,219.44,419.93z"/>
	<path class="st18" d="M122.93,443.59l5.97-14.85h2.71l5.96,14.85h-3.14l-1.26-3.38h-5.83l-1.26,3.38H122.93z M128.33,437.65h3.84
		l-1.93-4.98L128.33,437.65z"/>
	<path class="st18" d="M145.37,443.88c-0.64,0-1.23-0.13-1.79-0.4c-0.56-0.26-1.04-0.63-1.45-1.11v1.21h-2.76v-15.48h2.76v7.39
		c0.37-0.44,0.83-0.79,1.38-1.04c0.55-0.25,1.15-0.37,1.79-0.37c0.89,0,1.68,0.21,2.38,0.64c0.7,0.43,1.24,1.01,1.64,1.75
		c0.4,0.73,0.59,1.57,0.59,2.51c0,0.95-0.2,1.8-0.61,2.54s-0.96,1.32-1.64,1.73C146.97,443.67,146.21,443.88,145.37,443.88z
		 M144.54,441.53c0.49,0,0.91-0.11,1.28-0.33s0.65-0.52,0.86-0.9c0.21-0.38,0.31-0.81,0.31-1.3c0-0.49-0.11-0.93-0.32-1.32
		c-0.22-0.39-0.51-0.69-0.87-0.91c-0.37-0.22-0.79-0.33-1.26-0.33c-0.47,0-0.9,0.11-1.27,0.33s-0.67,0.53-0.89,0.91
		c-0.22,0.38-0.32,0.83-0.32,1.32c0,0.49,0.11,0.92,0.32,1.3c0.21,0.38,0.51,0.68,0.88,0.9S144.06,441.53,144.54,441.53z"/>
	<path class="st18" d="M156.27,443.88c-0.83,0-1.59-0.21-2.28-0.63c-0.69-0.42-1.23-0.99-1.64-1.73c-0.41-0.74-0.61-1.58-0.61-2.54
		c0-0.94,0.2-1.77,0.59-2.51c0.4-0.74,0.94-1.32,1.63-1.75c0.69-0.43,1.49-0.64,2.38-0.64c0.65,0,1.25,0.12,1.8,0.37
		c0.55,0.25,1.01,0.6,1.38,1.04v-7.39h2.76v15.48h-2.76v-1.21c-0.41,0.47-0.89,0.84-1.45,1.11
		C157.51,443.75,156.91,443.88,156.27,443.88z M157.1,441.53c0.49,0,0.91-0.11,1.29-0.33s0.67-0.52,0.88-0.9s0.32-0.82,0.32-1.31
		c0-0.49-0.11-0.93-0.32-1.31s-0.51-0.69-0.88-0.91s-0.8-0.33-1.28-0.33c-0.47,0-0.9,0.11-1.26,0.33s-0.66,0.53-0.88,0.91
		c-0.22,0.39-0.32,0.83-0.32,1.32c0,0.49,0.1,0.92,0.31,1.3c0.21,0.38,0.5,0.68,0.87,0.9S156.62,441.53,157.1,441.53z"/>
	<path class="st18" d="M169.96,443.88c-1,0-1.89-0.21-2.68-0.64c-0.79-0.43-1.42-1.01-1.88-1.75s-0.69-1.57-0.69-2.5
		c0-0.68,0.13-1.32,0.39-1.92c0.26-0.59,0.63-1.11,1.09-1.56c0.47-0.45,1.01-0.79,1.63-1.04s1.29-0.37,2.01-0.37
		c0.96,0,1.8,0.2,2.52,0.6c0.72,0.4,1.29,0.95,1.69,1.66s0.61,1.53,0.61,2.47c0,0.08,0,0.15,0,0.2c0,0.06-0.01,0.16-0.03,0.32h-7.06
		c0,0.47,0.11,0.88,0.32,1.22c0.21,0.35,0.51,0.62,0.9,0.81c0.38,0.2,0.83,0.29,1.34,0.29c0.48,0,0.9-0.09,1.27-0.28
		c0.37-0.19,0.72-0.48,1.07-0.89l1.99,1c-0.43,0.74-1.04,1.33-1.84,1.75S170.93,443.88,169.96,443.88z M167.66,437.81h4.28
		c-0.06-0.35-0.19-0.66-0.38-0.92s-0.44-0.46-0.74-0.59s-0.64-0.21-1.02-0.21c-0.4,0-0.76,0.07-1.06,0.21s-0.55,0.34-0.74,0.59
		C167.81,437.15,167.7,437.46,167.66,437.81z"/>
	<path class="st18" d="M177.12,443.59v-9.22h2.76v1.32c0.34-0.52,0.76-0.91,1.26-1.19c0.5-0.28,1.03-0.42,1.6-0.42
		c0.32,0,0.66,0.05,1.01,0.14s0.64,0.22,0.87,0.37l-1.15,2.33c-0.2-0.14-0.44-0.25-0.71-0.33c-0.27-0.08-0.53-0.12-0.76-0.12
		c-0.36,0-0.7,0.09-1.03,0.28c-0.32,0.19-0.58,0.43-0.78,0.72c-0.2,0.3-0.3,0.62-0.3,0.96v5.15H177.12z"/>
	<path class="st18" d="M186.15,443.59v-15.48h2.76v7.29c0.35-0.4,0.8-0.71,1.33-0.95c0.53-0.24,1.12-0.36,1.76-0.36
		c0.71,0,1.33,0.15,1.87,0.46c0.54,0.31,0.96,0.74,1.26,1.29c0.31,0.55,0.46,1.19,0.46,1.92v5.83h-2.76v-5.25
		c0-0.66-0.17-1.17-0.52-1.54c-0.34-0.37-0.82-0.55-1.42-0.55c-0.41,0-0.76,0.08-1.06,0.25s-0.53,0.39-0.68,0.67
		c-0.16,0.29-0.24,0.61-0.24,0.97v5.45H186.15z"/>
	<path class="st18" d="M202.5,443.88c-0.85,0-1.62-0.21-2.31-0.63c-0.69-0.42-1.24-1-1.65-1.75s-0.61-1.58-0.61-2.53
		c0-0.92,0.19-1.75,0.58-2.49c0.39-0.74,0.93-1.32,1.62-1.75c0.69-0.43,1.47-0.64,2.36-0.64c0.65,0,1.26,0.12,1.83,0.37
		c0.57,0.25,1.03,0.6,1.39,1.04v-1.12h2.76v9.22h-2.76v-1.21c-0.42,0.49-0.9,0.86-1.45,1.12S203.14,443.88,202.5,443.88z
		 M203.32,441.53c0.48,0,0.91-0.11,1.28-0.33s0.66-0.52,0.87-0.9c0.21-0.38,0.31-0.82,0.31-1.31c0-0.5-0.11-0.94-0.32-1.32
		s-0.5-0.68-0.87-0.9c-0.37-0.22-0.79-0.33-1.27-0.33c-0.47,0-0.9,0.11-1.27,0.33c-0.37,0.22-0.67,0.52-0.88,0.91
		c-0.22,0.38-0.32,0.82-0.32,1.31s0.11,0.93,0.32,1.31s0.5,0.69,0.88,0.9S202.84,441.53,203.32,441.53z"/>
	<path class="st18" d="M211.74,443.59v-15.48h2.76v15.48H211.74z"/>
	<path class="st18" d="M221.57,443.88c-0.83,0-1.59-0.21-2.28-0.63c-0.69-0.42-1.23-0.99-1.64-1.73c-0.41-0.74-0.61-1.58-0.61-2.54
		c0-0.94,0.2-1.77,0.59-2.51c0.4-0.74,0.94-1.32,1.63-1.75c0.69-0.43,1.49-0.64,2.38-0.64c0.65,0,1.25,0.12,1.8,0.37
		c0.55,0.25,1.01,0.6,1.38,1.04v-7.39h2.76v15.48h-2.76v-1.21c-0.41,0.47-0.89,0.84-1.45,1.11
		C222.81,443.75,222.21,443.88,221.57,443.88z M222.39,441.53c0.49,0,0.91-0.11,1.29-0.33s0.67-0.52,0.88-0.9s0.32-0.82,0.32-1.31
		c0-0.49-0.11-0.93-0.32-1.31s-0.51-0.69-0.88-0.91s-0.8-0.33-1.28-0.33c-0.47,0-0.9,0.11-1.26,0.33s-0.66,0.53-0.88,0.91
		c-0.22,0.39-0.32,0.83-0.32,1.32c0,0.49,0.1,0.92,0.31,1.3c0.21,0.38,0.5,0.68,0.87,0.9S221.92,441.53,222.39,441.53z"/>
	<path class="st18" d="M235.25,443.88c-1,0-1.89-0.21-2.68-0.64c-0.79-0.43-1.42-1.01-1.88-1.75s-0.69-1.57-0.69-2.5
		c0-0.68,0.13-1.32,0.39-1.92c0.26-0.59,0.63-1.11,1.09-1.56c0.47-0.45,1.01-0.79,1.63-1.04s1.29-0.37,2.01-0.37
		c0.96,0,1.8,0.2,2.52,0.6c0.72,0.4,1.29,0.95,1.69,1.66s0.61,1.53,0.61,2.47c0,0.08,0,0.15,0,0.2c0,0.06-0.01,0.16-0.03,0.32h-7.06
		c0,0.47,0.11,0.88,0.32,1.22c0.21,0.35,0.51,0.62,0.9,0.81c0.38,0.2,0.83,0.29,1.34,0.29c0.48,0,0.9-0.09,1.27-0.28
		c0.37-0.19,0.72-0.48,1.07-0.89l1.99,1c-0.43,0.74-1.04,1.33-1.84,1.75S236.23,443.88,235.25,443.88z M232.95,437.81h4.28
		c-0.06-0.35-0.19-0.66-0.38-0.92s-0.44-0.46-0.74-0.59s-0.64-0.21-1.02-0.21c-0.4,0-0.76,0.07-1.06,0.21s-0.55,0.34-0.74,0.59
		C233.11,437.15,232.99,437.46,232.95,437.81z"/>
	<path class="st18" d="M242.42,443.59v-9.22h2.76v1.03c0.35-0.4,0.8-0.71,1.33-0.95c0.53-0.24,1.12-0.36,1.76-0.36
		c0.71,0,1.33,0.15,1.87,0.46c0.54,0.31,0.96,0.74,1.26,1.29c0.31,0.55,0.46,1.19,0.46,1.92v5.83h-2.76v-5.25
		c0-0.66-0.17-1.17-0.52-1.54c-0.34-0.37-0.82-0.55-1.42-0.55c-0.41,0-0.76,0.08-1.06,0.25s-0.53,0.39-0.68,0.67
		c-0.16,0.29-0.24,0.61-0.24,0.97v5.45H242.42z"/>
</g>
<text transform="matrix(1 0 0 1 384.9333 425.1492)" class="st19 st20"> </text>
<g>
	<path d="M138.9,458.45v4.51h5.22v-4.51h1.41v10.79h-1.41v-5.06h-5.22v5.06h-1.39v-10.79H138.9z"/>
	<path d="M148.68,465.62c0.03,1.9,1.25,2.69,2.66,2.69c1.01,0,1.62-0.18,2.15-0.4l0.24,1.01c-0.5,0.22-1.34,0.48-2.58,0.48
		c-2.39,0-3.81-1.57-3.81-3.91s1.38-4.18,3.63-4.18c2.53,0,3.2,2.22,3.2,3.65c0,0.29-0.03,0.51-0.05,0.66H148.68z M152.81,464.61
		c0.02-0.9-0.37-2.29-1.95-2.29c-1.42,0-2.05,1.31-2.16,2.29H152.81z"/>
	<path d="M160.2,469.24l-0.11-0.98h-0.05c-0.43,0.61-1.26,1.15-2.37,1.15c-1.57,0-2.37-1.1-2.37-2.22c0-1.87,1.67-2.9,4.66-2.88
		v-0.16c0-0.64-0.18-1.79-1.76-1.79c-0.72,0-1.47,0.22-2.02,0.58l-0.32-0.93c0.64-0.42,1.57-0.69,2.54-0.69
		c2.37,0,2.95,1.62,2.95,3.17v2.9c0,0.67,0.03,1.33,0.13,1.86H160.2z M159.99,465.29c-1.54-0.03-3.28,0.24-3.28,1.74
		c0,0.91,0.61,1.34,1.33,1.34c1.01,0,1.65-0.64,1.87-1.3c0.05-0.14,0.08-0.3,0.08-0.45V465.29z"/>
	<path d="M170.31,457.88v9.36c0,0.69,0.02,1.47,0.06,2h-1.26l-0.06-1.34h-0.03c-0.43,0.86-1.38,1.52-2.64,1.52
		c-1.87,0-3.31-1.58-3.31-3.94c-0.02-2.58,1.58-4.16,3.47-4.16c1.18,0,1.98,0.56,2.34,1.18h0.03v-4.63H170.31z M168.91,464.65
		c0-0.18-0.02-0.42-0.06-0.59c-0.21-0.9-0.98-1.63-2.03-1.63c-1.46,0-2.32,1.28-2.32,2.99c0,1.57,0.77,2.87,2.29,2.87
		c0.95,0,1.81-0.62,2.07-1.68c0.05-0.19,0.06-0.38,0.06-0.61V464.65z"/>
	<path d="M183.05,465.3c0,2.87-1.99,4.11-3.86,4.11c-2.1,0-3.71-1.54-3.71-3.99c0-2.59,1.7-4.11,3.84-4.11
		C181.55,461.32,183.05,462.93,183.05,465.3z M176.9,465.38c0,1.7,0.98,2.98,2.35,2.98c1.34,0,2.35-1.26,2.35-3.01
		c0-1.31-0.66-2.98-2.32-2.98C177.62,462.37,176.9,463.91,176.9,465.38z"/>
	<path d="M184.97,469.24v-6.67h-1.09v-1.07h1.09v-0.37c0-1.09,0.24-2.08,0.9-2.71c0.53-0.51,1.23-0.72,1.89-0.72
		c0.5,0,0.93,0.11,1.2,0.22l-0.19,1.09c-0.21-0.1-0.5-0.18-0.9-0.18c-1.2,0-1.5,1.06-1.5,2.24v0.42h1.87v1.07h-1.87v6.67H184.97z"/>
	<path d="M200.48,468.89c-0.51,0.26-1.54,0.51-2.85,0.51c-3.04,0-5.33-1.92-5.33-5.46c0-3.38,2.29-5.67,5.63-5.67
		c1.34,0,2.19,0.29,2.56,0.48l-0.34,1.14c-0.53-0.26-1.28-0.45-2.18-0.45c-2.53,0-4.21,1.62-4.21,4.45c0,2.64,1.52,4.34,4.15,4.34
		c0.85,0,1.71-0.18,2.27-0.45L200.48,468.89z"/>
	<path d="M209,465.3c0,2.87-1.99,4.11-3.86,4.11c-2.1,0-3.71-1.54-3.71-3.99c0-2.59,1.7-4.11,3.84-4.11
		C207.5,461.32,209,462.93,209,465.3z M202.86,465.38c0,1.7,0.98,2.98,2.35,2.98c1.34,0,2.35-1.26,2.35-3.01
		c0-1.31-0.66-2.98-2.32-2.98C203.58,462.37,202.86,463.91,202.86,465.38z"/>
	<path d="M217.47,457.88v9.36c0,0.69,0.02,1.47,0.06,2h-1.26l-0.06-1.34h-0.03c-0.43,0.86-1.38,1.52-2.64,1.52
		c-1.87,0-3.31-1.58-3.31-3.94c-0.02-2.58,1.58-4.16,3.47-4.16c1.18,0,1.98,0.56,2.34,1.18h0.03v-4.63H217.47z M216.06,464.65
		c0-0.18-0.02-0.42-0.06-0.59c-0.21-0.9-0.98-1.63-2.03-1.63c-1.46,0-2.32,1.28-2.32,2.99c0,1.57,0.77,2.87,2.29,2.87
		c0.95,0,1.81-0.62,2.07-1.68c0.05-0.19,0.06-0.38,0.06-0.61V464.65z"/>
	<path d="M220.58,465.62c0.03,1.9,1.25,2.69,2.66,2.69c1.01,0,1.62-0.18,2.15-0.4l0.24,1.01c-0.5,0.22-1.34,0.48-2.58,0.48
		c-2.38,0-3.81-1.57-3.81-3.91s1.38-4.18,3.63-4.18c2.53,0,3.2,2.22,3.2,3.65c0,0.29-0.03,0.51-0.05,0.66H220.58z M224.71,464.61
		c0.02-0.9-0.37-2.29-1.95-2.29c-1.42,0-2.05,1.31-2.16,2.29H224.71z"/>
</g>
<g>
	<path d="M623.63,458.45v4.51h5.22v-4.51h1.41v10.79h-1.41v-5.06h-5.22v5.06h-1.39v-10.79H623.63z"/>
	<path d="M633.41,465.62c0.03,1.9,1.25,2.69,2.66,2.69c1.01,0,1.62-0.18,2.15-0.4l0.24,1.01c-0.5,0.22-1.34,0.48-2.58,0.48
		c-2.39,0-3.81-1.57-3.81-3.91s1.38-4.18,3.63-4.18c2.53,0,3.2,2.22,3.2,3.65c0,0.29-0.03,0.51-0.05,0.66H633.41z M637.54,464.61
		c0.02-0.9-0.37-2.29-1.95-2.29c-1.42,0-2.05,1.31-2.16,2.29H637.54z"/>
	<path d="M644.93,469.24l-0.11-0.98h-0.05c-0.43,0.61-1.26,1.15-2.37,1.15c-1.57,0-2.37-1.1-2.37-2.22c0-1.87,1.66-2.9,4.66-2.88
		v-0.16c0-0.64-0.18-1.79-1.76-1.79c-0.72,0-1.47,0.22-2.02,0.58l-0.32-0.93c0.64-0.42,1.57-0.69,2.54-0.69
		c2.37,0,2.95,1.62,2.95,3.17v2.9c0,0.67,0.03,1.33,0.13,1.86H644.93z M644.72,465.29c-1.54-0.03-3.28,0.24-3.28,1.74
		c0,0.91,0.61,1.34,1.33,1.34c1.01,0,1.65-0.64,1.87-1.3c0.05-0.14,0.08-0.3,0.08-0.45V465.29z"/>
	<path d="M655.04,457.88v9.36c0,0.69,0.02,1.47,0.06,2h-1.26l-0.06-1.34h-0.03c-0.43,0.86-1.38,1.52-2.64,1.52
		c-1.87,0-3.31-1.58-3.31-3.94c-0.02-2.58,1.58-4.16,3.47-4.16c1.18,0,1.98,0.56,2.34,1.18h0.03v-4.63H655.04z M653.63,464.65
		c0-0.18-0.02-0.42-0.06-0.59c-0.21-0.9-0.98-1.63-2.03-1.63c-1.46,0-2.32,1.28-2.32,2.99c0,1.57,0.77,2.87,2.29,2.87
		c0.95,0,1.81-0.62,2.07-1.68c0.05-0.19,0.06-0.38,0.06-0.61V464.65z"/>
	<path d="M667.78,465.3c0,2.87-1.99,4.11-3.86,4.11c-2.1,0-3.71-1.54-3.71-3.99c0-2.59,1.7-4.11,3.84-4.11
		C666.27,461.32,667.78,462.93,667.78,465.3z M661.63,465.38c0,1.7,0.98,2.98,2.35,2.98c1.34,0,2.35-1.26,2.35-3.01
		c0-1.31-0.66-2.98-2.32-2.98C662.35,462.37,661.63,463.91,661.63,465.38z"/>
	<path d="M669.69,469.24v-6.67h-1.09v-1.07h1.09v-0.37c0-1.09,0.24-2.08,0.9-2.71c0.53-0.51,1.23-0.72,1.89-0.72
		c0.5,0,0.93,0.11,1.2,0.22l-0.19,1.09c-0.21-0.1-0.5-0.18-0.9-0.18c-1.2,0-1.5,1.06-1.5,2.24v0.42h1.87v1.07h-1.87v6.67H669.69z"/>
	<path d="M685.2,468.89c-0.51,0.26-1.54,0.51-2.85,0.51c-3.04,0-5.33-1.92-5.33-5.46c0-3.38,2.29-5.67,5.63-5.67
		c1.34,0,2.19,0.29,2.56,0.48l-0.34,1.14c-0.53-0.26-1.28-0.45-2.18-0.45c-2.53,0-4.21,1.62-4.21,4.45c0,2.64,1.52,4.34,4.15,4.34
		c0.85,0,1.71-0.18,2.27-0.45L685.2,468.89z"/>
	<path d="M696.03,464.5c-0.08-1.5-0.18-3.31-0.16-4.66h-0.05c-0.37,1.26-0.82,2.61-1.36,4.1l-1.9,5.23h-1.06l-1.75-5.14
		c-0.51-1.52-0.94-2.91-1.25-4.19h-0.03c-0.03,1.34-0.11,3.15-0.21,4.77l-0.29,4.63h-1.33l0.75-10.79h1.78l1.84,5.22
		c0.45,1.33,0.82,2.51,1.09,3.63h0.05c0.27-1.09,0.66-2.27,1.14-3.63l1.92-5.22h1.78l0.67,10.79h-1.36L696.03,464.5z"/>
	<path d="M699.61,467.54c0.62,0.38,1.54,0.7,2.5,0.7c1.42,0,2.26-0.75,2.26-1.84c0-1.01-0.58-1.58-2.03-2.14
		c-1.76-0.62-2.85-1.54-2.85-3.06c0-1.68,1.39-2.93,3.49-2.93c1.1,0,1.91,0.26,2.38,0.53l-0.38,1.14c-0.35-0.19-1.07-0.51-2.05-0.51
		c-1.47,0-2.03,0.88-2.03,1.62c0,1.01,0.66,1.5,2.15,2.08c1.82,0.7,2.75,1.58,2.75,3.17c0,1.67-1.23,3.11-3.78,3.11
		c-1.04,0-2.18-0.3-2.75-0.69L699.61,467.54z"/>
</g>
<g>
	<path d="M368.85,458.45v4.51h5.22v-4.51h1.41v10.79h-1.41v-5.06h-5.22v5.06h-1.39v-10.79H368.85z"/>
	<path d="M378.63,465.62c0.03,1.9,1.25,2.69,2.66,2.69c1.01,0,1.62-0.18,2.15-0.4l0.24,1.01c-0.5,0.22-1.34,0.48-2.58,0.48
		c-2.39,0-3.81-1.57-3.81-3.91s1.38-4.18,3.63-4.18c2.53,0,3.2,2.22,3.2,3.65c0,0.29-0.03,0.51-0.05,0.66H378.63z M382.76,464.61
		c0.02-0.9-0.37-2.29-1.95-2.29c-1.42,0-2.05,1.31-2.16,2.29H382.76z"/>
	<path d="M390.15,469.24l-0.11-0.98h-0.05c-0.43,0.61-1.26,1.15-2.37,1.15c-1.57,0-2.37-1.1-2.37-2.22c0-1.87,1.67-2.9,4.66-2.88
		v-0.16c0-0.64-0.18-1.79-1.76-1.79c-0.72,0-1.47,0.22-2.02,0.58l-0.32-0.93c0.64-0.42,1.57-0.69,2.54-0.69
		c2.37,0,2.95,1.62,2.95,3.17v2.9c0,0.67,0.03,1.33,0.13,1.86H390.15z M389.94,465.29c-1.54-0.03-3.28,0.24-3.28,1.74
		c0,0.91,0.61,1.34,1.33,1.34c1.01,0,1.65-0.64,1.87-1.3c0.05-0.14,0.08-0.3,0.08-0.45V465.29z"/>
	<path d="M400.26,457.88v9.36c0,0.69,0.02,1.47,0.06,2h-1.26l-0.06-1.34h-0.03c-0.43,0.86-1.38,1.52-2.64,1.52
		c-1.87,0-3.31-1.58-3.31-3.94c-0.02-2.58,1.58-4.16,3.47-4.16c1.18,0,1.98,0.56,2.34,1.18h0.03v-4.63H400.26z M398.85,464.65
		c0-0.18-0.02-0.42-0.06-0.59c-0.21-0.9-0.98-1.63-2.03-1.63c-1.46,0-2.32,1.28-2.32,2.99c0,1.57,0.77,2.87,2.29,2.87
		c0.95,0,1.81-0.62,2.07-1.68c0.05-0.19,0.06-0.38,0.06-0.61V464.65z"/>
	<path d="M413,465.3c0,2.87-1.99,4.11-3.86,4.11c-2.1,0-3.71-1.54-3.71-3.99c0-2.59,1.7-4.11,3.84-4.11
		C411.49,461.32,413,462.93,413,465.3z M406.85,465.38c0,1.7,0.98,2.98,2.35,2.98c1.34,0,2.35-1.26,2.35-3.01
		c0-1.31-0.66-2.98-2.32-2.98C407.57,462.37,406.85,463.91,406.85,465.38z"/>
	<path d="M414.91,469.24v-6.67h-1.09v-1.07h1.09v-0.37c0-1.09,0.24-2.08,0.9-2.71c0.53-0.51,1.23-0.72,1.89-0.72
		c0.5,0,0.93,0.11,1.2,0.22l-0.19,1.09c-0.21-0.1-0.5-0.18-0.9-0.18c-1.2,0-1.5,1.06-1.5,2.24v0.42h1.87v1.07h-1.87v6.67H414.91z"/>
	<path d="M422.88,458.59c0.85-0.13,1.86-0.22,2.96-0.22c2,0,3.43,0.46,4.37,1.34c0.96,0.88,1.52,2.13,1.52,3.87
		c0,1.76-0.54,3.2-1.55,4.19c-1.01,1.01-2.67,1.55-4.77,1.55c-0.99,0-1.82-0.05-2.53-0.13V458.59z M424.27,468.13
		c0.35,0.06,0.86,0.08,1.41,0.08c2.98,0,4.59-1.67,4.59-4.58c0.02-2.54-1.42-4.16-4.37-4.16c-0.72,0-1.26,0.06-1.63,0.14V468.13z"/>
	<path d="M434.34,465.62c0.03,1.9,1.25,2.69,2.66,2.69c1.01,0,1.62-0.18,2.14-0.4l0.24,1.01c-0.5,0.22-1.34,0.48-2.58,0.48
		c-2.38,0-3.81-1.57-3.81-3.91s1.38-4.18,3.63-4.18c2.53,0,3.2,2.22,3.2,3.65c0,0.29-0.03,0.51-0.05,0.66H434.34z M438.47,464.61
		c0.02-0.9-0.37-2.29-1.95-2.29c-1.42,0-2.05,1.31-2.16,2.29H438.47z"/>
	<path d="M441.38,467.8c0.42,0.27,1.15,0.56,1.86,0.56c1.02,0,1.5-0.51,1.5-1.15c0-0.67-0.4-1.04-1.44-1.42
		c-1.39-0.5-2.05-1.26-2.05-2.19c0-1.25,1.01-2.27,2.67-2.27c0.78,0,1.47,0.22,1.9,0.48l-0.35,1.02c-0.3-0.19-0.86-0.45-1.58-0.45
		c-0.83,0-1.3,0.48-1.3,1.06c0,0.64,0.46,0.93,1.47,1.31c1.34,0.51,2.03,1.18,2.03,2.34c0,1.36-1.06,2.32-2.9,2.32
		c-0.85,0-1.63-0.21-2.18-0.53L441.38,467.8z"/>
	<path d="M449.47,459.32c0.02,0.48-0.34,0.86-0.9,0.86c-0.5,0-0.85-0.38-0.85-0.86c0-0.5,0.37-0.88,0.88-0.88
		C449.14,458.43,449.47,458.82,449.47,459.32z M447.9,469.24v-7.75h1.41v7.75H447.9z"/>
	<path d="M458.32,461.49c-0.03,0.56-0.06,1.18-0.06,2.13v4.5c0,1.78-0.35,2.87-1.1,3.54c-0.75,0.7-1.84,0.93-2.82,0.93
		c-0.93,0-1.95-0.22-2.58-0.64l0.35-1.07c0.51,0.32,1.31,0.61,2.27,0.61c1.44,0,2.5-0.75,2.5-2.71v-0.86h-0.03
		c-0.43,0.72-1.26,1.3-2.46,1.3c-1.92,0-3.3-1.63-3.3-3.78c0-2.62,1.71-4.11,3.49-4.11c1.34,0,2.08,0.7,2.42,1.34h0.03l0.06-1.17
		H458.32z M456.87,464.55c0-0.24-0.02-0.45-0.08-0.64c-0.26-0.82-0.94-1.49-1.97-1.49c-1.34,0-2.3,1.14-2.3,2.93
		c0,1.52,0.77,2.79,2.29,2.79c0.87,0,1.65-0.54,1.95-1.44c0.08-0.24,0.11-0.51,0.11-0.75V464.55z"/>
	<path d="M460.5,463.59c0-0.8-0.02-1.46-0.06-2.1h1.25l0.08,1.28h0.03c0.38-0.74,1.28-1.46,2.56-1.46c1.07,0,2.74,0.64,2.74,3.3
		v4.63h-1.41v-4.47c0-1.25-0.46-2.29-1.79-2.29c-0.93,0-1.65,0.66-1.89,1.44c-0.06,0.18-0.1,0.42-0.1,0.66v4.66h-1.41V463.59z"/>
</g>
<g>
	<path class="st18" d="M403.95,421.99v-12.28h-3.76v-2.57h10.44v2.57h-3.77v12.28H403.95z"/>
	<path class="st18" d="M413.98,410.86c-0.3,0-0.57-0.07-0.82-0.22s-0.45-0.35-0.6-0.6s-0.22-0.53-0.22-0.83
		c0-0.3,0.07-0.57,0.22-0.82s0.35-0.44,0.6-0.59s0.52-0.22,0.82-0.22s0.57,0.07,0.82,0.22s0.44,0.34,0.59,0.59
		c0.15,0.25,0.22,0.52,0.22,0.82c0,0.3-0.07,0.58-0.22,0.83c-0.15,0.25-0.34,0.45-0.59,0.6S414.28,410.86,413.98,410.86z
		 M412.59,421.99v-9.22h2.76v9.22H412.59z"/>
	<path class="st18" d="M418.61,421.99v-9.22h2.76v1.03c0.35-0.4,0.8-0.71,1.33-0.95s1.12-0.36,1.76-0.36c0.71,0,1.33,0.15,1.87,0.46
		c0.54,0.31,0.96,0.74,1.26,1.29c0.31,0.55,0.46,1.19,0.46,1.92v5.83h-2.76v-5.25c0-0.66-0.17-1.17-0.52-1.54
		c-0.34-0.37-0.82-0.55-1.42-0.55c-0.41,0-0.76,0.08-1.06,0.25c-0.3,0.17-0.53,0.39-0.68,0.68c-0.16,0.29-0.24,0.61-0.24,0.97v5.45
		H418.61z"/>
	<path class="st18" d="M435.71,422.28c-1.01,0-1.93-0.21-2.75-0.62c-0.82-0.42-1.46-0.99-1.94-1.73c-0.48-0.73-0.72-1.58-0.72-2.54
		c0-0.96,0.24-1.81,0.72-2.54c0.48-0.74,1.12-1.31,1.94-1.73c0.82-0.42,1.74-0.63,2.75-0.63c1.02,0,1.94,0.21,2.75,0.63
		c0.82,0.42,1.46,0.99,1.94,1.73c0.48,0.74,0.72,1.58,0.72,2.54c0,0.96-0.24,1.81-0.72,2.54c-0.48,0.73-1.12,1.31-1.94,1.73
		C437.65,422.07,436.73,422.28,435.71,422.28z M435.72,419.92c0.47,0,0.89-0.11,1.28-0.32c0.38-0.22,0.69-0.51,0.91-0.9
		c0.22-0.38,0.33-0.82,0.33-1.32s-0.11-0.94-0.33-1.32s-0.53-0.68-0.91-0.89c-0.38-0.22-0.81-0.32-1.28-0.32
		c-0.47,0-0.9,0.11-1.28,0.32c-0.38,0.21-0.68,0.51-0.9,0.89s-0.33,0.82-0.33,1.32s0.11,0.94,0.33,1.32c0.22,0.38,0.52,0.68,0.9,0.9
		C434.82,419.81,435.25,419.92,435.72,419.92z"/>
	<path class="st18" d="M356.82,443.59v-14.85h8.34v2.56h-6.13l0.7-0.64v5.02l-0.7-0.81h5.72v2.56h-5.72l0.7-0.81v6.98H356.82z"/>
	<path class="st18" d="M367.71,443.59v-9.22h2.76v1.32c0.34-0.52,0.76-0.91,1.26-1.19s1.03-0.42,1.6-0.42
		c0.32,0,0.66,0.05,1.01,0.14c0.35,0.1,0.64,0.22,0.87,0.37l-1.15,2.33c-0.2-0.14-0.44-0.25-0.71-0.33
		c-0.27-0.08-0.53-0.12-0.76-0.12c-0.36,0-0.7,0.09-1.03,0.28c-0.32,0.19-0.58,0.43-0.78,0.72c-0.2,0.3-0.3,0.62-0.3,0.96v5.15
		H367.71z"/>
	<path class="st18" d="M381.06,443.88c-1,0-1.89-0.21-2.68-0.64c-0.79-0.43-1.42-1.01-1.88-1.75c-0.46-0.74-0.69-1.57-0.69-2.5
		c0-0.68,0.13-1.32,0.39-1.92c0.26-0.59,0.63-1.12,1.09-1.56s1.01-0.79,1.63-1.04s1.29-0.37,2.01-0.37c0.96,0,1.8,0.2,2.52,0.6
		c0.72,0.4,1.29,0.95,1.69,1.66c0.41,0.71,0.61,1.53,0.61,2.48c0,0.08,0,0.15,0,0.2c0,0.06-0.01,0.16-0.03,0.32h-7.06
		c0,0.47,0.11,0.88,0.32,1.22s0.51,0.62,0.9,0.81s0.83,0.29,1.34,0.29c0.48,0,0.9-0.09,1.27-0.28s0.72-0.48,1.07-0.89l1.99,1
		c-0.43,0.74-1.04,1.33-1.84,1.75S382.03,443.88,381.06,443.88z M378.75,437.81h4.28c-0.06-0.35-0.19-0.66-0.38-0.92
		c-0.2-0.26-0.44-0.46-0.74-0.59c-0.3-0.14-0.64-0.21-1.02-0.21c-0.4,0-0.76,0.07-1.06,0.21c-0.31,0.14-0.55,0.34-0.74,0.59
		C378.91,437.15,378.8,437.46,378.75,437.81z"/>
	<path class="st18" d="M389.6,432.46c-0.3,0-0.57-0.07-0.82-0.22c-0.25-0.15-0.45-0.35-0.6-0.6s-0.22-0.53-0.22-0.83
		s0.07-0.57,0.22-0.82s0.35-0.44,0.6-0.59c0.25-0.15,0.52-0.22,0.82-0.22s0.57,0.07,0.82,0.22c0.25,0.15,0.44,0.34,0.59,0.59
		c0.15,0.25,0.22,0.52,0.22,0.82s-0.07,0.58-0.22,0.83c-0.15,0.25-0.34,0.45-0.59,0.6C390.17,432.38,389.9,432.46,389.6,432.46z
		 M388.21,443.59v-9.22h2.76v9.22H388.21z"/>
	<path class="st18" d="M400.24,443.88c-0.64,0-1.23-0.13-1.79-0.4c-0.56-0.26-1.04-0.63-1.45-1.11v1.21h-2.76v-15.48H397v7.39
		c0.37-0.44,0.83-0.79,1.38-1.04c0.55-0.25,1.15-0.37,1.79-0.37c0.89,0,1.68,0.21,2.38,0.64c0.7,0.43,1.24,1.01,1.64,1.75
		c0.4,0.74,0.59,1.57,0.59,2.51c0,0.95-0.2,1.8-0.61,2.54s-0.96,1.32-1.64,1.73C401.83,443.67,401.07,443.88,400.24,443.88z
		 M399.41,441.53c0.49,0,0.91-0.11,1.28-0.33c0.37-0.22,0.65-0.52,0.86-0.9c0.21-0.38,0.31-0.81,0.31-1.3
		c0-0.49-0.11-0.93-0.32-1.32c-0.22-0.39-0.51-0.69-0.87-0.91c-0.37-0.22-0.79-0.33-1.26-0.33c-0.47,0-0.9,0.11-1.27,0.33
		c-0.38,0.22-0.67,0.53-0.89,0.91c-0.22,0.38-0.32,0.83-0.32,1.32c0,0.49,0.11,0.92,0.32,1.3c0.21,0.38,0.51,0.68,0.88,0.9
		C398.5,441.42,398.93,441.53,399.41,441.53z"/>
	<path class="st18" d="M411.84,443.88c-1.68,0-2.89-0.33-3.64-1s-1.12-1.76-1.12-3.27v-5.24h2.76v4.59c0,0.97,0.15,1.66,0.45,2.06
		s0.81,0.6,1.54,0.6c0.73,0,1.25-0.2,1.54-0.6s0.45-1.09,0.45-2.06v-4.59h2.76v5.24c0,1.51-0.37,2.6-1.11,3.27
		C414.74,443.54,413.52,443.88,411.84,443.88z"/>
	<path class="st18" d="M419.62,443.59v-9.22h2.76v1.32c0.34-0.52,0.76-0.91,1.26-1.19s1.03-0.42,1.6-0.42
		c0.32,0,0.66,0.05,1.01,0.14c0.35,0.1,0.64,0.22,0.87,0.37l-1.15,2.33c-0.2-0.14-0.44-0.25-0.71-0.33
		c-0.27-0.08-0.53-0.12-0.76-0.12c-0.36,0-0.7,0.09-1.03,0.28c-0.32,0.19-0.58,0.43-0.78,0.72c-0.2,0.3-0.3,0.62-0.3,0.96v5.15
		H419.62z"/>
	<path class="st18" d="M432.94,448.54c-1.24,0-2.29-0.23-3.13-0.68c-0.85-0.45-1.46-1.12-1.84-2l2.25-1.1
		c0.25,0.43,0.62,0.76,1.12,1.02s1.03,0.38,1.6,0.38c0.52,0,0.98-0.1,1.38-0.31c0.4-0.21,0.71-0.5,0.93-0.87
		c0.22-0.38,0.33-0.81,0.33-1.3v-1.29c-0.41,0.47-0.89,0.84-1.45,1.11c-0.56,0.26-1.16,0.4-1.8,0.4c-0.83,0-1.59-0.21-2.28-0.62
		c-0.69-0.42-1.23-0.99-1.64-1.73c-0.41-0.74-0.61-1.58-0.61-2.54c0-0.94,0.2-1.77,0.6-2.51c0.4-0.73,0.94-1.32,1.64-1.75
		c0.69-0.43,1.48-0.64,2.37-0.64c0.65,0,1.25,0.12,1.8,0.37c0.55,0.25,1.01,0.6,1.38,1.04v-1.12h2.76v9.47
		c0,0.91-0.2,1.71-0.59,2.42c-0.39,0.71-0.99,1.27-1.79,1.67C435.16,448.34,434.16,448.54,432.94,448.54z M433.15,441.53
		c0.49,0,0.92-0.11,1.29-0.33c0.38-0.22,0.67-0.52,0.88-0.9c0.21-0.38,0.31-0.81,0.31-1.3c0-0.5-0.11-0.94-0.32-1.32
		c-0.21-0.38-0.51-0.69-0.88-0.91c-0.37-0.22-0.79-0.33-1.27-0.33s-0.9,0.11-1.27,0.33c-0.37,0.22-0.67,0.53-0.88,0.91
		c-0.22,0.39-0.32,0.83-0.32,1.32c0,0.49,0.1,0.92,0.31,1.3c0.21,0.38,0.5,0.68,0.87,0.9C432.25,441.42,432.68,441.53,433.15,441.53
		z"/>
	<path class="st18" d="M441.58,443.59v-15.48h2.76v7.29c0.35-0.4,0.8-0.71,1.33-0.95s1.12-0.36,1.76-0.36
		c0.71,0,1.33,0.15,1.87,0.46s0.96,0.74,1.26,1.29c0.31,0.55,0.46,1.19,0.46,1.92v5.83h-2.76v-5.25c0-0.66-0.17-1.17-0.52-1.54
		c-0.34-0.37-0.82-0.55-1.42-0.55c-0.41,0-0.76,0.08-1.06,0.25c-0.3,0.17-0.53,0.39-0.68,0.68c-0.16,0.29-0.24,0.61-0.24,0.97v5.46
		H441.58z"/>
	<path class="st18" d="M457.94,443.88c-0.85,0-1.62-0.21-2.31-0.63c-0.69-0.42-1.24-1-1.65-1.75s-0.61-1.58-0.61-2.53
		c0-0.92,0.19-1.75,0.58-2.49c0.39-0.73,0.93-1.32,1.62-1.75c0.69-0.43,1.47-0.64,2.36-0.64c0.65,0,1.26,0.12,1.83,0.37
		c0.57,0.25,1.03,0.6,1.39,1.04v-1.12h2.76v9.22h-2.76v-1.21c-0.42,0.49-0.9,0.86-1.45,1.12S458.57,443.88,457.94,443.88z
		 M458.76,441.53c0.48,0,0.91-0.11,1.28-0.33c0.37-0.22,0.66-0.52,0.87-0.9c0.21-0.38,0.31-0.82,0.31-1.31
		c0-0.5-0.11-0.94-0.32-1.32c-0.21-0.38-0.5-0.68-0.87-0.9c-0.37-0.22-0.79-0.33-1.27-0.33c-0.47,0-0.9,0.11-1.27,0.33
		c-0.37,0.22-0.67,0.52-0.88,0.91c-0.22,0.38-0.32,0.82-0.32,1.31s0.11,0.93,0.32,1.31c0.21,0.38,0.5,0.69,0.88,0.9
		C457.85,441.42,458.28,441.53,458.76,441.53z"/>
	<path class="st18" d="M471.69,443.88c-1.68,0-2.89-0.33-3.64-1s-1.12-1.76-1.12-3.27v-5.24h2.76v4.59c0,0.97,0.15,1.66,0.45,2.06
		s0.81,0.6,1.54,0.6c0.73,0,1.25-0.2,1.54-0.6s0.45-1.09,0.45-2.06v-4.59h2.76v5.24c0,1.51-0.37,2.6-1.11,3.27
		C474.59,443.54,473.38,443.88,471.69,443.88z"/>
	<path class="st18" d="M482.01,443.88c-0.78,0-1.48-0.12-2.09-0.37s-1.13-0.61-1.53-1.08l1.16-1.85c0.38,0.41,0.79,0.72,1.21,0.94
		c0.42,0.22,0.84,0.32,1.26,0.32c0.23,0,0.44-0.04,0.61-0.12c0.17-0.08,0.31-0.19,0.41-0.34c0.1-0.15,0.15-0.33,0.15-0.54
		c0-0.24-0.07-0.43-0.2-0.57s-0.34-0.27-0.62-0.38c-0.28-0.12-0.63-0.27-1.07-0.45c-0.37-0.16-0.73-0.33-1.07-0.53
		c-0.34-0.2-0.62-0.45-0.83-0.76c-0.21-0.31-0.32-0.69-0.32-1.16c0-0.57,0.16-1.07,0.48-1.51c0.32-0.44,0.76-0.78,1.32-1.02
		c0.56-0.25,1.21-0.37,1.94-0.37c0.46,0,0.93,0.07,1.43,0.21c0.5,0.14,1.04,0.35,1.61,0.63l-0.95,1.77
		c-0.77-0.5-1.47-0.75-2.08-0.75c-0.34,0-0.62,0.07-0.82,0.22s-0.31,0.34-0.31,0.57c0,0.22,0.11,0.4,0.32,0.56
		c0.21,0.16,0.47,0.3,0.78,0.42c0.31,0.12,0.6,0.24,0.89,0.34c0.46,0.17,0.87,0.35,1.23,0.56c0.36,0.21,0.64,0.47,0.84,0.8
		c0.2,0.33,0.31,0.76,0.31,1.31c0,0.67-0.16,1.23-0.48,1.7c-0.32,0.46-0.78,0.82-1.39,1.07
		C483.58,443.75,482.86,443.88,482.01,443.88z"/>
</g>
<g>
	<path class="st18" d="M611.31,421.99l1.48-14.85h3.1l3.55,9.29l3.55-9.29h3.1l1.48,14.85h-2.92l-0.92-9.61l-3.39,9.24h-1.79
		l-3.38-9.24l-0.93,9.61H611.31z"/>
	<path class="st18" d="M634.35,422.28c-0.85,0-1.62-0.21-2.31-0.63c-0.69-0.42-1.24-1-1.65-1.75s-0.61-1.58-0.61-2.53
		c0-0.92,0.19-1.75,0.58-2.49c0.39-0.74,0.93-1.32,1.62-1.75c0.69-0.43,1.47-0.64,2.36-0.64c0.65,0,1.26,0.12,1.83,0.37
		c0.57,0.25,1.03,0.6,1.39,1.04v-1.12h2.76v9.22h-2.76v-1.21c-0.42,0.49-0.9,0.86-1.45,1.12S634.99,422.28,634.35,422.28z
		 M635.17,419.93c0.48,0,0.91-0.11,1.28-0.33s0.66-0.52,0.87-0.9c0.21-0.38,0.31-0.82,0.31-1.31c0-0.5-0.11-0.94-0.32-1.32
		s-0.5-0.68-0.87-0.9c-0.37-0.22-0.79-0.33-1.27-0.33c-0.47,0-0.9,0.11-1.27,0.33c-0.37,0.22-0.67,0.52-0.88,0.91
		c-0.22,0.38-0.32,0.82-0.32,1.31s0.11,0.93,0.32,1.31s0.5,0.69,0.88,0.9S634.69,419.93,635.17,419.93z"/>
	<path class="st18" d="M643.59,421.99v-9.22h2.76v1.03c0.35-0.4,0.8-0.71,1.33-0.95c0.53-0.24,1.12-0.36,1.76-0.36
		c0.71,0,1.33,0.15,1.87,0.46c0.54,0.31,0.96,0.74,1.26,1.29c0.31,0.55,0.46,1.19,0.46,1.92v5.83h-2.76v-5.25
		c0-0.66-0.17-1.17-0.52-1.54c-0.34-0.37-0.82-0.55-1.42-0.55c-0.41,0-0.76,0.08-1.06,0.25s-0.53,0.39-0.68,0.67
		c-0.16,0.29-0.24,0.61-0.24,0.97v5.45H643.59z"/>
	<path class="st18" d="M655.72,426.67l2.98-5.83l-4.38-8.06h3.17l2.83,5.4l2.45-5.4h3.17l-7.05,13.9H655.72z"/>
	<path class="st18" d="M667.45,421.99v-9.22h2.76v1.03c0.35-0.4,0.8-0.71,1.33-0.95c0.53-0.24,1.12-0.36,1.76-0.36
		c0.71,0,1.33,0.15,1.87,0.46c0.54,0.31,0.96,0.74,1.26,1.29c0.31,0.55,0.46,1.19,0.46,1.92v5.83h-2.76v-5.25
		c0-0.66-0.17-1.17-0.52-1.54c-0.34-0.37-0.82-0.55-1.42-0.55c-0.41,0-0.76,0.08-1.06,0.25s-0.53,0.39-0.68,0.67
		c-0.16,0.29-0.24,0.61-0.24,0.97v5.45H667.45z"/>
	<path class="st18" d="M684.55,422.28c-1.01,0-1.93-0.21-2.75-0.63c-0.82-0.42-1.46-0.99-1.94-1.73c-0.48-0.74-0.72-1.58-0.72-2.54
		s0.24-1.81,0.72-2.54c0.48-0.74,1.12-1.31,1.94-1.73c0.82-0.42,1.74-0.62,2.75-0.62c1.02,0,1.94,0.21,2.75,0.62
		c0.82,0.42,1.46,0.99,1.94,1.73c0.48,0.73,0.72,1.58,0.72,2.54s-0.24,1.81-0.72,2.54c-0.48,0.73-1.12,1.31-1.94,1.73
		C686.48,422.07,685.57,422.28,684.55,422.28z M684.55,419.92c0.47,0,0.89-0.11,1.28-0.32s0.69-0.51,0.91-0.9
		c0.22-0.38,0.33-0.82,0.33-1.32s-0.11-0.94-0.33-1.32s-0.53-0.68-0.91-0.9s-0.81-0.32-1.28-0.32c-0.47,0-0.9,0.11-1.28,0.32
		s-0.68,0.51-0.9,0.9s-0.33,0.82-0.33,1.32s0.11,0.94,0.33,1.32c0.22,0.38,0.52,0.68,0.9,0.9S684.08,419.92,684.55,419.92z"/>
	<path class="st18" d="M696.92,422.28c-1.68,0-2.89-0.33-3.64-1s-1.12-1.75-1.12-3.27v-5.24h2.76v4.59c0,0.97,0.15,1.66,0.45,2.06
		c0.3,0.4,0.81,0.6,1.54,0.6c0.73,0,1.25-0.2,1.54-0.6c0.3-0.4,0.45-1.09,0.45-2.06v-4.59h2.76v5.24c0,1.51-0.37,2.6-1.11,3.27
		C699.82,421.95,698.61,422.28,696.92,422.28z"/>
	<path class="st18" d="M704.71,421.99v-15.48h2.76v9.63l3.4-3.37h3.58l-4.51,4.52l4.72,4.7h-3.55l-3.65-3.65v3.65H704.71z"/>
	<path class="st18" d="M614.99,443.59v-14.85h2.92v6.19l5.44-6.19h3.56l-6.34,7.15l7.24,7.7h-4.03l-5.88-6.27v6.27H614.99z"/>
	<path class="st18" d="M632.71,443.88c-0.85,0-1.62-0.21-2.31-0.63c-0.69-0.42-1.24-1-1.65-1.75c-0.41-0.74-0.61-1.59-0.61-2.53
		c0-0.92,0.19-1.75,0.58-2.49c0.39-0.74,0.93-1.32,1.62-1.75c0.69-0.43,1.47-0.64,2.36-0.64c0.65,0,1.26,0.12,1.83,0.37
		c0.57,0.25,1.03,0.59,1.39,1.04v-1.12h2.76v9.22h-2.76v-1.21c-0.42,0.49-0.9,0.86-1.45,1.12S633.35,443.88,632.71,443.88z
		 M633.53,441.53c0.48,0,0.91-0.11,1.28-0.33c0.37-0.22,0.66-0.52,0.87-0.9c0.21-0.38,0.31-0.82,0.31-1.31
		c0-0.5-0.11-0.94-0.32-1.32c-0.21-0.38-0.5-0.68-0.87-0.9s-0.79-0.33-1.27-0.33c-0.47,0-0.9,0.11-1.27,0.33
		c-0.37,0.22-0.67,0.52-0.88,0.9c-0.22,0.38-0.32,0.82-0.32,1.31s0.11,0.93,0.32,1.31s0.5,0.69,0.88,0.9
		C632.62,441.42,633.05,441.53,633.53,441.53z"/>
	<path class="st18" d="M646.46,443.88c-1.68,0-2.89-0.33-3.64-1s-1.12-1.75-1.12-3.27v-5.24h2.76v4.59c0,0.97,0.15,1.66,0.45,2.06
		c0.3,0.4,0.81,0.6,1.54,0.6c0.73,0,1.25-0.2,1.54-0.6c0.3-0.4,0.45-1.09,0.45-2.06v-4.59h2.76v5.24c0,1.51-0.37,2.6-1.11,3.27
		C649.36,443.54,648.15,443.88,646.46,443.88z"/>
	<path class="st18" d="M654.64,443.59v-7.12h-1.23v-2.1h1.23v-2.29c0-0.86,0.14-1.62,0.41-2.25c0.27-0.64,0.66-1.13,1.17-1.48
		c0.5-0.34,1.11-0.52,1.83-0.52c0.44,0,0.88,0.07,1.31,0.2c0.43,0.13,0.79,0.32,1.09,0.56l-0.95,1.93c-0.28-0.17-0.6-0.26-0.96-0.26
		c-0.31,0-0.55,0.08-0.71,0.24s-0.27,0.38-0.32,0.66c-0.06,0.28-0.08,0.6-0.08,0.98v2.22h2.18v2.1h-2.18v7.12H654.64z"/>
	<path class="st18" d="M661.64,443.59v-9.22h2.76v1.03c0.46-0.46,0.91-0.79,1.36-1s0.94-0.32,1.46-0.32c0.71,0,1.35,0.16,1.92,0.48
		c0.57,0.32,0.98,0.74,1.22,1.28c0.45-0.58,0.93-1.02,1.45-1.31c0.52-0.29,1.11-0.44,1.77-0.44s1.26,0.14,1.77,0.41
		c0.52,0.28,0.92,0.67,1.22,1.17s0.45,1.11,0.45,1.79v6.12h-2.76v-5.36c0-0.6-0.16-1.07-0.47-1.42c-0.31-0.34-0.73-0.52-1.25-0.52
		c-0.36,0-0.68,0.08-0.95,0.22c-0.27,0.15-0.49,0.35-0.64,0.6c-0.16,0.25-0.23,0.53-0.23,0.84v5.63h-2.76v-5.42
		c0-0.57-0.15-1.03-0.46-1.37c-0.3-0.34-0.72-0.51-1.26-0.51c-0.35,0-0.67,0.08-0.95,0.22c-0.28,0.15-0.5,0.35-0.65,0.61
		s-0.23,0.54-0.23,0.86v5.61H661.64z"/>
	<path class="st18" d="M683.97,443.88c-0.85,0-1.62-0.21-2.31-0.63c-0.69-0.42-1.24-1-1.65-1.75c-0.41-0.74-0.61-1.59-0.61-2.53
		c0-0.92,0.19-1.75,0.58-2.49c0.39-0.74,0.93-1.32,1.62-1.75c0.69-0.43,1.47-0.64,2.36-0.64c0.65,0,1.26,0.12,1.83,0.37
		c0.57,0.25,1.03,0.59,1.39,1.04v-1.12h2.76v9.22h-2.76v-1.21c-0.42,0.49-0.9,0.86-1.45,1.12S684.6,443.88,683.97,443.88z
		 M684.79,441.53c0.48,0,0.91-0.11,1.28-0.33c0.37-0.22,0.66-0.52,0.87-0.9c0.21-0.38,0.31-0.82,0.31-1.31
		c0-0.5-0.11-0.94-0.32-1.32c-0.21-0.38-0.5-0.68-0.87-0.9s-0.79-0.33-1.27-0.33c-0.47,0-0.9,0.11-1.27,0.33
		c-0.37,0.22-0.67,0.52-0.88,0.9c-0.22,0.38-0.32,0.82-0.32,1.31s0.11,0.93,0.32,1.31s0.5,0.69,0.88,0.9
		C683.88,441.42,684.3,441.53,684.79,441.53z"/>
	<path class="st18" d="M693.2,443.59v-9.22h2.76v1.03c0.35-0.4,0.8-0.71,1.33-0.95s1.12-0.36,1.76-0.36c0.71,0,1.33,0.15,1.87,0.46
		c0.54,0.31,0.96,0.74,1.26,1.29c0.31,0.55,0.46,1.19,0.46,1.92v5.83h-2.76v-5.25c0-0.66-0.17-1.17-0.52-1.54
		c-0.34-0.37-0.82-0.55-1.42-0.55c-0.41,0-0.76,0.08-1.06,0.25c-0.3,0.17-0.53,0.39-0.68,0.68c-0.16,0.29-0.24,0.61-0.24,0.97v5.45
		H693.2z"/>
	<path class="st18" d="M705.71,443.59v-9.22h2.76v1.03c0.35-0.4,0.8-0.71,1.33-0.95s1.12-0.36,1.76-0.36c0.71,0,1.33,0.15,1.87,0.46
		c0.54,0.31,0.96,0.74,1.26,1.29c0.31,0.55,0.46,1.19,0.46,1.92v5.83h-2.76v-5.25c0-0.66-0.17-1.17-0.52-1.54
		c-0.34-0.37-0.82-0.55-1.42-0.55c-0.41,0-0.76,0.08-1.06,0.25c-0.3,0.17-0.53,0.39-0.68,0.68c-0.16,0.29-0.24,0.61-0.24,0.97v5.45
		H705.71z"/>
</g>
<rect x="180.18" y="30.06" class="st8" width="3.32" height="0"/>
<rect x="161.43" y="550.6" class="st8" width="21.63" height="1.44"/>
</svg>
