<?xml version="1.0" encoding="utf-8"?>
<!-- Generator: Adobe Illustrator 26.0.1, SVG Export Plug-In . SVG Version: 6.00 Build 0)  -->
<svg version="1.1" id="Layer_1" xmlns="http://www.w3.org/2000/svg" xmlns:xlink="http://www.w3.org/1999/xlink" x="0px" y="0px"
	 viewBox="0 0 841.89 595.28" style="enable-background:new 0 0 841.89 595.28;" xml:space="preserve">
<style type="text/css">
	.st0{opacity:0.9;fill:#FECA82;enable-background:new    ;}
	.st1{fill:none;stroke:#1D1D1B;stroke-width:0.75;stroke-miterlimit:10;}
	.st2{opacity:0.9;fill:#FFCE83;enable-background:new    ;}
	.st3{opacity:0.9;fill:#FFCE83;}
	.st4{fill:#1D1D1B;}
	.st5{fill:#262262;}
	.st6{fill:#FFFFFF;}
	.st7{fill:#C2B59B;}
	.st8{fill:none;}
	.st9{fill:#754C29;}
	.st10{fill:#010101;}
	.st11{fill:#FFC868;}
	.st12{fill:none;stroke:#1D1D1B;stroke-miterlimit:10;}
	.st13{fill:#006838;}
	.st14{fill:#3C2415;enable-background:new    ;}
	.st15{opacity:0.9;fill:#FFC868;enable-background:new    ;}
	.st16{fill:#3C2415;}
	.st17{opacity:0.23;fill:#EE1F52;}
	.st18{fill:#DB5041;}
	.st19{font-family:'Spartan-Bold';}
	.st20{font-size:18px;}
	.st21{font-family:'MyriadPro-Regular';}
	.st22{font-size:21px;}
</style>
<g>
	<g>
		<path class="st0" d="M427.97,218.97v13.49c0,0-2.78,5.27-8.72,5.27c-6.25,0-8.72-5.18-8.72-5.18v-12.95L427.97,218.97z"/>
		<path class="st1" d="M118.3,216.9"/>
		<g>
			<path class="st2" d="M374.99,322.86c0.59,2.53,2.27,5.13,4.93,5.13c2.76,0,4.93-0.82,4.93-3.35c0-0.67,0.39-5.21,0.1-5.73
				l-0.59-3.94h-9.67C374.6,318.11,374.6,321.15,374.99,322.86z"/>
			<path class="st2" d="M463.21,325.79c1.98-1.75,3.06-5.41,3.69-10.15h-11.16C453.85,328.79,460.15,328.62,463.21,325.79z"/>
		</g>
		<path class="st3" d="M462.31,119.6c4.75,7.2,10.49,18.03,13.07,31.99c5.73,30.91-7.97,55.44-13.07,63.63
			c-9.99,2.97-25.23,6.4-43.96,6.33c-18.4-0.07-30.16-0.2-39.41-6.33c-26.86-17.8-7.24-69.88-3.39-80.11
			c1.96-5.21,3.95-9.47,5.44-12.47l0,0c0,0,20.05-7.56,32.15-9.9C424.02,110.65,440.03,110.55,462.31,119.6z"/>
	</g>
	<g>
		<ellipse class="st4" cx="377.27" cy="154.97" rx="4.24" ry="3.91"/>
		<ellipse class="st4" cx="421.56" cy="157.16" rx="4.24" ry="3.91"/>
		<path class="st1" d="M411,198.19c-7.71,7.84-21.58,7.81-31.01-0.08"/>
		<polygon class="st5" points="453.03,312.37 440.44,384.44 429.25,384.44 430.29,322.46 402.83,323.06 399.38,384.44 
			388.78,384.44 383.07,313.67 		"/>
		<polygon class="st6" points="440.87,384.44 440.87,389.2 421.84,389.2 429.35,384.44 		"/>
		<polygon class="st6" points="399.8,384.44 399.8,389.2 381.8,389.2 388.91,384.44 		"/>
		<path class="st7" d="M371.97,314.86h10.93c0,0,69.05-3.15,69.05,5.77h13.91c3.24-26.81-8.09-82.8-8.09-82.8l-31.97-0.23
			l-47.93,0.2l-5.49,66.4C372.29,307.26,372.08,311.14,371.97,314.86z"/>
		<path class="st4" d="M451.95,320.63"/>
		<line class="st8" x1="465.86" y1="320.63" x2="474.69" y2="320.63"/>
		<line class="st1" x1="451.95" y1="320.63" x2="442.05" y2="262.15"/>
		<line class="st1" x1="392.09" y1="261.16" x2="382.9" y2="314.86"/>
		<line class="st8" x1="363.8" y1="314.86" x2="371.97" y2="314.86"/>
		<path class="st9" d="M374.72,132.41c0,0,35.49,5.52,52.25,2.16c0.52,0.39,28.07,4.04,41.82,1.01c0.19-0.84,2.26-17.82-15.26-24.72
			c-4.52-1.68-27.88-7.06-48.42,1.85c-2.26,0.84-16.58,3.19-18.65,3.19C379.64,118.37,377.29,118.41,374.72,132.41z"/>
		
			<ellipse transform="matrix(0.049 -0.9988 0.9988 0.049 319.0131 558.9495)" class="st9" cx="453.03" cy="111.95" rx="10.78" ry="14.87"/>
		<path class="st7" d="M418.55,232.31c-10.11-0.28-21.76-0.44-34.38-0.35c-5.24,1.1-6.3,5.85-6.3,5.85l40.68,0.02V232.31z"/>
		<path class="st7" d="M417.13,232.4c10.11-0.28,21.76-0.44,34.38-0.35c5.24,1.1,6.3,5.85,6.3,5.85l-40.68,0.02V232.4z"/>
	</g>
</g>
<g>
	<path class="st3" d="M216.93,124.41c4.09,7.79,9.03,19.52,11.26,34.64c4.94,33.46-6.87,60.02-11.26,68.89
		c-8.61,3.21-21.73,6.93-37.86,6.85c-12.09-0.06-25.24-0.12-33.94-6.85c-16.94-13.09-19.22-53.14-6.09-97.71
		c6.77-4.53,19.07-11.39,35.55-13.24C194.14,114.79,209.44,120.79,216.93,124.41z"/>
	<rect x="149.34" y="229.87" class="st10" width="62.93" height="15.52"/>
	<path class="st0" d="M188.03,229.87v14.4c0,0-2.61,5.63-8.21,5.63c-5.88,0-8.21-5.53-8.21-5.53v-13.83L188.03,229.87z"/>
	<path class="st11" d="M239.63,226.94"/>
	<path class="st12" d="M187.96,195.62c-4.26,7.15-11.7,6.77-16.68-0.67"/>
	<ellipse class="st4" cx="157.77" cy="164.94" rx="4.19" ry="4.28"/>
	<ellipse class="st4" cx="201.49" cy="166" rx="4.19" ry="4.28"/>
	<ellipse class="st1" cx="156.59" cy="164.94" rx="19.55" ry="19.97"/>
	<ellipse class="st1" cx="203.05" cy="164.94" rx="19.55" ry="19.97"/>
	<path class="st1" d="M27.18,150.03"/>
	<line class="st1" x1="176.13" y1="164.94" x2="183.5" y2="164.94"/>
	<line class="st1" x1="137.04" y1="164.94" x2="124.14" y2="158.17"/>
	<line class="st1" x1="222.59" y1="164.94" x2="236.16" y2="159.44"/>
	<path class="st10" d="M207.46,126.16"/>
	<g>
		<polygon points="210.85,315.68 200.31,382.33 190.88,382.33 191.82,324.93 168.86,325.5 165.97,382.33 157.2,382.33 
			152.35,316.92 		"/>
		<polygon class="st6" points="200.68,382.33 200.68,386.81 184.72,386.81 191.07,382.33 		"/>
		<polygon class="st6" points="166.34,382.33 166.34,386.81 151.32,386.81 157.2,382.33 		"/>
		<path class="st2" d="M217.66,334.94c2.05-2,3.17-6.2,3.83-11.63h-11.57C207.96,338.38,214.49,338.19,217.66,334.94z"/>
		<path class="st2" d="M143.39,328.08c0.56,3.24,2.15,6.58,4.67,6.58c2.61,0,4.67-1.05,4.67-4.29c0-0.86,0.37-6.67,0.09-7.34
			l-0.56-5.05h-9.14C143.01,321.98,143.01,325.89,143.39,328.08z"/>
		<path class="st13" d="M143.11,317.97h9.14c0,0,57.67-2.86,57.67,5.34h11.57c2.71-24.79-6.81-76.66-6.81-76.66l-26.69-0.19
			l-40.03,0.19l-4.57,61.4C143.39,310.92,143.2,314.54,143.11,317.97z"/>
		<path class="st4" d="M209.82,323.31"/>
		<line class="st8" x1="221.49" y1="323.31" x2="228.86" y2="323.31"/>
		<line class="st1" x1="209.82" y1="323.31" x2="201.61" y2="269.15"/>
		<line class="st1" x1="159.9" y1="268.3" x2="152.16" y2="317.97"/>
		<line class="st8" x1="136.3" y1="317.97" x2="143.11" y2="317.97"/>
		<path class="st13" d="M182.02,241.5c-8.49-0.29-18.2-0.38-28.74-0.29c-4.39,1.05-5.23,5.34-5.23,5.34h33.96L182.02,241.5
			L182.02,241.5z"/>
		<path class="st13" d="M180.8,241.69c8.49-0.29,18.2-0.38,28.74-0.29c4.39,1.05,5.23,5.34,5.23,5.34H180.8V241.69L180.8,241.69z"/>
	</g>
	<path class="st10" d="M157.28,138.6c-9.91,10.5-14.16,20.77-16.15,27.6c-8.52,29.23,4.44,63.49,31.94,88.94
		c-14.8,0.61-32.43-0.69-51.28-6.61c-3.24-1.02-6.36-2.12-9.34-3.28l5.33-110.52c9.52-23,29.26-36.06,46.62-33.17
		c10.08,1.68,17.11,8.36,20.79,12.64C175.89,122.33,166.58,130.47,157.28,138.6z"/>
	<path class="st10" d="M204.04,138.6c9.91,10.5,14.16,20.77,16.15,27.6c8.52,29.23-4.44,63.49-31.94,88.94
		c14.8,0.61,32.43-0.69,51.28-6.61c3.24-1.02,6.36-2.12,9.34-3.28l-5.33-110.52c-9.52-23-29.26-36.06-46.62-33.17
		c-10.08,1.68-17.11,8.36-20.79,12.64C185.43,122.33,194.73,130.47,204.04,138.6z"/>
</g>
<g>
	<g>
		<path class="st14" d="M706.3,131.1c0,0,30.06,94.01,0,123.35c-16.78,7.26-89.33,10.99-98.8-3.53
			c-15.3-14.94-25.66-78.13-10.11-119.82C609.02,119.76,676.54,112.89,706.3,131.1z"/>
		<path class="st15" d="M695.71,120.01c0,0,24.85,73.22,0,96.07c-13.87,5.65-73.85,8.56-81.68-2.75
			c-12.65-11.63-21.22-60.86-8.35-93.32C615.27,111.18,671.1,105.83,695.71,120.01z"/>
		<g>
			<g>
				<path class="st16" d="M712.71,159.4c1.52-4.19,6-18.32-1.91-32.23c-13.56-23.86-53.01-30.14-59.42-21.93
					c-4.63,5.92,7.31,20.38,11.27,25.18C678.95,150.17,702,156.97,712.71,159.4z"/>
				<path class="st16" d="M592.47,163.43c-1.56-4.55-6.12-19.89,2.39-35.12c14.22-25.44,54.37-34.14,63-24.47
					c6.55,7.34-4.07,26.61-13.44,37.06C626.11,161.3,599.03,163.15,592.47,163.43z"/>
			</g>
		</g>
		<ellipse class="st4" cx="633.85" cy="163.43" rx="4.25" ry="3.9"/>
		<ellipse class="st4" cx="671.84" cy="163.43" rx="4.25" ry="3.9"/>
		<path class="st15" d="M661.9,219.65v15.52c0,0-3.13,6.06-9.83,6.06c-7.04,0-9.83-5.96-9.83-5.96v-14.9L661.9,219.65z"/>
		<path class="st12" d="M667.6,191.08c-7.93,7.71-21.79,7.3-31.07-0.72"/>
		<g>
			<polygon points="688.58,311.73 675.95,383.55 664.67,383.55 665.78,321.7 638.29,322.31 634.83,383.55 624.33,383.55 
				618.52,313.06 			"/>
			<polygon class="st6" points="676.4,383.55 676.4,388.38 657.29,388.38 664.89,383.55 			"/>
			<polygon class="st6" points="635.28,383.55 635.28,388.38 617.29,388.38 624.33,383.55 			"/>
			<path class="st15" d="M696.74,332.48c2.46-2.16,3.8-6.68,4.58-12.54h-13.86C685.12,336.18,692.94,335.98,696.74,332.48z"/>
			<path class="st15" d="M607.79,325.09c0.67,3.49,2.57,7.09,5.59,7.09c3.13,0,5.59-1.13,5.59-4.62c0-0.92,0.45-7.19,0.11-7.91
				l-0.67-5.45h-10.95C607.34,318.51,607.34,322.72,607.79,325.09z"/>
			<path d="M607.45,314.19h10.95c0,0,69.06-3.08,69.06,5.75h13.86c3.24-26.71-8.16-82.61-8.16-82.61l-31.96-0.21l-47.94,0.21
				l-5.48,66.17C607.79,306.59,607.56,310.5,607.45,314.19z"/>
			<path class="st4" d="M687.35,319.95"/>
			<line class="st8" x1="701.32" y1="319.95" x2="710.15" y2="319.95"/>
			<line class="st1" x1="687.35" y1="319.95" x2="677.52" y2="261.59"/>
			<line class="st1" x1="627.57" y1="260.66" x2="618.29" y2="314.19"/>
			<line class="st8" x1="599.3" y1="314.19" x2="607.45" y2="314.19"/>
			<path d="M654.05,231.79c-10.17-0.31-21.79-0.41-34.42-0.31c-5.25,1.13-6.26,5.75-6.26,5.75h40.68L654.05,231.79L654.05,231.79z"
				/>
			<path d="M652.6,232c10.17-0.31,21.79-0.41,34.42-0.31c5.25,1.13,6.26,5.75,6.26,5.75H652.6V232L652.6,232z"/>
		</g>
		<ellipse class="st17" cx="687.03" cy="181" rx="5.61" ry="5.16"/>
		<ellipse class="st6" cx="600.97" cy="181" rx="1.68" ry="1.54"/>
		<ellipse class="st6" cx="706.75" cy="179.45" rx="1.68" ry="1.54"/>
		<ellipse class="st17" cx="618.52" cy="179.45" rx="5.61" ry="5.16"/>
	</g>
</g>
<rect x="51.43" y="382.33" class="st8" width="273.2" height="62.11"/>
<text transform="matrix(1 0 0 1 149.391 421.9904)"><tspan x="0" y="0" class="st18 st19 st20">Patricia  </tspan><tspan x="-26.67" y="21.6" class="st18 st19 st20">Abderhalden</tspan></text>
<text transform="matrix(1 0 0 1 384.9333 425.1492)" class="st21 st22"> </text>
<g>
	<path d="M138.9,458.45v4.51h5.22v-4.51h1.41v10.79h-1.41v-5.06h-5.22v5.06h-1.39v-10.79H138.9z"/>
	<path d="M148.68,465.62c0.03,1.9,1.25,2.69,2.66,2.69c1.01,0,1.62-0.18,2.15-0.4l0.24,1.01c-0.5,0.22-1.34,0.48-2.58,0.48
		c-2.39,0-3.81-1.57-3.81-3.91s1.38-4.18,3.63-4.18c2.53,0,3.2,2.22,3.2,3.65c0,0.29-0.03,0.51-0.05,0.66H148.68z M152.81,464.61
		c0.02-0.9-0.37-2.29-1.95-2.29c-1.42,0-2.05,1.31-2.16,2.29H152.81z"/>
	<path d="M160.2,469.24l-0.11-0.98h-0.05c-0.43,0.61-1.26,1.15-2.37,1.15c-1.57,0-2.37-1.1-2.37-2.22c0-1.87,1.67-2.9,4.66-2.88
		v-0.16c0-0.64-0.18-1.79-1.76-1.79c-0.72,0-1.47,0.22-2.02,0.58l-0.32-0.93c0.64-0.42,1.57-0.69,2.54-0.69
		c2.37,0,2.95,1.62,2.95,3.17v2.9c0,0.67,0.03,1.33,0.13,1.86H160.2z M159.99,465.29c-1.54-0.03-3.28,0.24-3.28,1.74
		c0,0.91,0.61,1.34,1.33,1.34c1.01,0,1.65-0.64,1.87-1.3c0.05-0.14,0.08-0.3,0.08-0.45V465.29z"/>
	<path d="M170.31,457.88v9.36c0,0.69,0.02,1.47,0.06,2h-1.26l-0.06-1.34h-0.03c-0.43,0.86-1.38,1.52-2.64,1.52
		c-1.87,0-3.31-1.58-3.31-3.94c-0.02-2.58,1.58-4.16,3.47-4.16c1.18,0,1.98,0.56,2.34,1.18h0.03v-4.63H170.31z M168.91,464.65
		c0-0.18-0.02-0.42-0.06-0.59c-0.21-0.9-0.98-1.63-2.03-1.63c-1.46,0-2.32,1.28-2.32,2.99c0,1.57,0.77,2.87,2.29,2.87
		c0.95,0,1.81-0.62,2.07-1.68c0.05-0.19,0.06-0.38,0.06-0.61V464.65z"/>
	<path d="M183.05,465.3c0,2.87-1.99,4.11-3.86,4.11c-2.1,0-3.71-1.54-3.71-3.99c0-2.59,1.7-4.11,3.84-4.11
		C181.55,461.32,183.05,462.93,183.05,465.3z M176.9,465.38c0,1.7,0.98,2.98,2.35,2.98c1.34,0,2.35-1.26,2.35-3.01
		c0-1.31-0.66-2.98-2.32-2.98C177.62,462.37,176.9,463.91,176.9,465.38z"/>
	<path d="M184.97,469.24v-6.67h-1.09v-1.07h1.09v-0.37c0-1.09,0.24-2.08,0.9-2.71c0.53-0.51,1.23-0.72,1.89-0.72
		c0.5,0,0.93,0.11,1.2,0.22l-0.19,1.09c-0.21-0.1-0.5-0.18-0.9-0.18c-1.2,0-1.5,1.06-1.5,2.24v0.42h1.87v1.07h-1.87v6.67H184.97z"/>
	<path d="M200.48,468.89c-0.51,0.26-1.54,0.51-2.85,0.51c-3.04,0-5.33-1.92-5.33-5.46c0-3.38,2.29-5.67,5.63-5.67
		c1.34,0,2.19,0.29,2.56,0.48l-0.34,1.14c-0.53-0.26-1.28-0.45-2.18-0.45c-2.53,0-4.21,1.62-4.21,4.45c0,2.64,1.52,4.34,4.15,4.34
		c0.85,0,1.71-0.18,2.27-0.45L200.48,468.89z"/>
	<path d="M209,465.3c0,2.87-1.99,4.11-3.86,4.11c-2.1,0-3.71-1.54-3.71-3.99c0-2.59,1.7-4.11,3.84-4.11
		C207.5,461.32,209,462.93,209,465.3z M202.86,465.38c0,1.7,0.98,2.98,2.35,2.98c1.34,0,2.35-1.26,2.35-3.01
		c0-1.31-0.66-2.98-2.32-2.98C203.58,462.37,202.86,463.91,202.86,465.38z"/>
	<path d="M217.47,457.88v9.36c0,0.69,0.02,1.47,0.06,2h-1.26l-0.06-1.34h-0.03c-0.43,0.86-1.38,1.52-2.64,1.52
		c-1.87,0-3.31-1.58-3.31-3.94c-0.02-2.58,1.58-4.16,3.47-4.16c1.18,0,1.98,0.56,2.34,1.18h0.03v-4.63H217.47z M216.06,464.65
		c0-0.18-0.02-0.42-0.06-0.59c-0.21-0.9-0.98-1.63-2.03-1.63c-1.46,0-2.32,1.28-2.32,2.99c0,1.57,0.77,2.87,2.29,2.87
		c0.95,0,1.81-0.62,2.07-1.68c0.05-0.19,0.06-0.38,0.06-0.61V464.65z"/>
	<path d="M220.58,465.62c0.03,1.9,1.25,2.69,2.66,2.69c1.01,0,1.62-0.18,2.15-0.4l0.24,1.01c-0.5,0.22-1.34,0.48-2.58,0.48
		c-2.38,0-3.81-1.57-3.81-3.91s1.38-4.18,3.63-4.18c2.53,0,3.2,2.22,3.2,3.65c0,0.29-0.03,0.51-0.05,0.66H220.58z M224.71,464.61
		c0.02-0.9-0.37-2.29-1.95-2.29c-1.42,0-2.05,1.31-2.16,2.29H224.71z"/>
</g>
<g>
	<path d="M623.63,458.45v4.51h5.22v-4.51h1.41v10.79h-1.41v-5.06h-5.22v5.06h-1.39v-10.79H623.63z"/>
	<path d="M633.41,465.62c0.03,1.9,1.25,2.69,2.66,2.69c1.01,0,1.62-0.18,2.15-0.4l0.24,1.01c-0.5,0.22-1.34,0.48-2.58,0.48
		c-2.39,0-3.81-1.57-3.81-3.91s1.38-4.18,3.63-4.18c2.53,0,3.2,2.22,3.2,3.65c0,0.29-0.03,0.51-0.05,0.66H633.41z M637.54,464.61
		c0.02-0.9-0.37-2.29-1.95-2.29c-1.42,0-2.05,1.31-2.16,2.29H637.54z"/>
	<path d="M644.93,469.24l-0.11-0.98h-0.05c-0.43,0.61-1.26,1.15-2.37,1.15c-1.57,0-2.37-1.1-2.37-2.22c0-1.87,1.66-2.9,4.66-2.88
		v-0.16c0-0.64-0.18-1.79-1.76-1.79c-0.72,0-1.47,0.22-2.02,0.58l-0.32-0.93c0.64-0.42,1.57-0.69,2.54-0.69
		c2.37,0,2.95,1.62,2.95,3.17v2.9c0,0.67,0.03,1.33,0.13,1.86H644.93z M644.72,465.29c-1.54-0.03-3.28,0.24-3.28,1.74
		c0,0.91,0.61,1.34,1.33,1.34c1.01,0,1.65-0.64,1.87-1.3c0.05-0.14,0.08-0.3,0.08-0.45V465.29z"/>
	<path d="M655.04,457.88v9.36c0,0.69,0.02,1.47,0.06,2h-1.26l-0.06-1.34h-0.03c-0.43,0.86-1.38,1.52-2.64,1.52
		c-1.87,0-3.31-1.58-3.31-3.94c-0.02-2.58,1.58-4.16,3.47-4.16c1.18,0,1.98,0.56,2.34,1.18h0.03v-4.63H655.04z M653.63,464.65
		c0-0.18-0.02-0.42-0.06-0.59c-0.21-0.9-0.98-1.63-2.03-1.63c-1.46,0-2.32,1.28-2.32,2.99c0,1.57,0.77,2.87,2.29,2.87
		c0.95,0,1.81-0.62,2.07-1.68c0.05-0.19,0.06-0.38,0.06-0.61V464.65z"/>
	<path d="M667.78,465.3c0,2.87-1.99,4.11-3.86,4.11c-2.1,0-3.71-1.54-3.71-3.99c0-2.59,1.7-4.11,3.84-4.11
		C666.27,461.32,667.78,462.93,667.78,465.3z M661.63,465.38c0,1.7,0.98,2.98,2.35,2.98c1.34,0,2.35-1.26,2.35-3.01
		c0-1.31-0.66-2.98-2.32-2.98C662.35,462.37,661.63,463.91,661.63,465.38z"/>
	<path d="M669.69,469.24v-6.67h-1.09v-1.07h1.09v-0.37c0-1.09,0.24-2.08,0.9-2.71c0.53-0.51,1.23-0.72,1.89-0.72
		c0.5,0,0.93,0.11,1.2,0.22l-0.19,1.09c-0.21-0.1-0.5-0.18-0.9-0.18c-1.2,0-1.5,1.06-1.5,2.24v0.42h1.87v1.07h-1.87v6.67H669.69z"/>
	<path d="M685.2,468.89c-0.51,0.26-1.54,0.51-2.85,0.51c-3.04,0-5.33-1.92-5.33-5.46c0-3.38,2.29-5.67,5.63-5.67
		c1.34,0,2.19,0.29,2.56,0.48l-0.34,1.14c-0.53-0.26-1.28-0.45-2.18-0.45c-2.53,0-4.21,1.62-4.21,4.45c0,2.64,1.52,4.34,4.15,4.34
		c0.85,0,1.71-0.18,2.27-0.45L685.2,468.89z"/>
	<path d="M696.03,464.5c-0.08-1.5-0.18-3.31-0.16-4.66h-0.05c-0.37,1.26-0.82,2.61-1.36,4.1l-1.9,5.23h-1.06l-1.75-5.14
		c-0.51-1.52-0.94-2.91-1.25-4.19h-0.03c-0.03,1.34-0.11,3.15-0.21,4.77l-0.29,4.63h-1.33l0.75-10.79h1.78l1.84,5.22
		c0.45,1.33,0.82,2.51,1.09,3.63h0.05c0.27-1.09,0.66-2.27,1.14-3.63l1.92-5.22h1.78l0.67,10.79h-1.36L696.03,464.5z"/>
	<path d="M699.61,467.54c0.62,0.38,1.54,0.7,2.5,0.7c1.42,0,2.26-0.75,2.26-1.84c0-1.01-0.58-1.58-2.03-2.14
		c-1.76-0.62-2.85-1.54-2.85-3.06c0-1.68,1.39-2.93,3.49-2.93c1.1,0,1.91,0.26,2.38,0.53l-0.38,1.14c-0.35-0.19-1.07-0.51-2.05-0.51
		c-1.47,0-2.03,0.88-2.03,1.62c0,1.01,0.66,1.5,2.15,2.08c1.82,0.7,2.75,1.58,2.75,3.17c0,1.67-1.23,3.11-3.78,3.11
		c-1.04,0-2.18-0.3-2.75-0.69L699.61,467.54z"/>
</g>
<g>
	<path d="M368.85,458.45v4.51h5.22v-4.51h1.41v10.79h-1.41v-5.06h-5.22v5.06h-1.39v-10.79H368.85z"/>
	<path d="M378.63,465.62c0.03,1.9,1.25,2.69,2.66,2.69c1.01,0,1.62-0.18,2.15-0.4l0.24,1.01c-0.5,0.22-1.34,0.48-2.58,0.48
		c-2.39,0-3.81-1.57-3.81-3.91s1.38-4.18,3.63-4.18c2.53,0,3.2,2.22,3.2,3.65c0,0.29-0.03,0.51-0.05,0.66H378.63z M382.76,464.61
		c0.02-0.9-0.37-2.29-1.95-2.29c-1.42,0-2.05,1.31-2.16,2.29H382.76z"/>
	<path d="M390.15,469.24l-0.11-0.98h-0.05c-0.43,0.61-1.26,1.15-2.37,1.15c-1.57,0-2.37-1.1-2.37-2.22c0-1.87,1.67-2.9,4.66-2.88
		v-0.16c0-0.64-0.18-1.79-1.76-1.79c-0.72,0-1.47,0.22-2.02,0.58l-0.32-0.93c0.64-0.42,1.57-0.69,2.54-0.69
		c2.37,0,2.95,1.62,2.95,3.17v2.9c0,0.67,0.03,1.33,0.13,1.86H390.15z M389.94,465.29c-1.54-0.03-3.28,0.24-3.28,1.74
		c0,0.91,0.61,1.34,1.33,1.34c1.01,0,1.65-0.64,1.87-1.3c0.05-0.14,0.08-0.3,0.08-0.45V465.29z"/>
	<path d="M400.26,457.88v9.36c0,0.69,0.02,1.47,0.06,2h-1.26l-0.06-1.34h-0.03c-0.43,0.86-1.38,1.52-2.64,1.52
		c-1.87,0-3.31-1.58-3.31-3.94c-0.02-2.58,1.58-4.16,3.47-4.16c1.18,0,1.98,0.56,2.34,1.18h0.03v-4.63H400.26z M398.85,464.65
		c0-0.18-0.02-0.42-0.06-0.59c-0.21-0.9-0.98-1.63-2.03-1.63c-1.46,0-2.32,1.28-2.32,2.99c0,1.57,0.77,2.87,2.29,2.87
		c0.95,0,1.81-0.62,2.07-1.68c0.05-0.19,0.06-0.38,0.06-0.61V464.65z"/>
	<path d="M413,465.3c0,2.87-1.99,4.11-3.86,4.11c-2.1,0-3.71-1.54-3.71-3.99c0-2.59,1.7-4.11,3.84-4.11
		C411.49,461.32,413,462.93,413,465.3z M406.85,465.38c0,1.7,0.98,2.98,2.35,2.98c1.34,0,2.35-1.26,2.35-3.01
		c0-1.31-0.66-2.98-2.32-2.98C407.57,462.37,406.85,463.91,406.85,465.38z"/>
	<path d="M414.91,469.24v-6.67h-1.09v-1.07h1.09v-0.37c0-1.09,0.24-2.08,0.9-2.71c0.53-0.51,1.23-0.72,1.89-0.72
		c0.5,0,0.93,0.11,1.2,0.22l-0.19,1.09c-0.21-0.1-0.5-0.18-0.9-0.18c-1.2,0-1.5,1.06-1.5,2.24v0.42h1.87v1.07h-1.87v6.67H414.91z"/>
	<path d="M422.88,458.59c0.85-0.13,1.86-0.22,2.96-0.22c2,0,3.43,0.46,4.37,1.34c0.96,0.88,1.52,2.13,1.52,3.87
		c0,1.76-0.54,3.2-1.55,4.19c-1.01,1.01-2.67,1.55-4.77,1.55c-0.99,0-1.82-0.05-2.53-0.13V458.59z M424.27,468.13
		c0.35,0.06,0.86,0.08,1.41,0.08c2.98,0,4.59-1.67,4.59-4.58c0.02-2.54-1.42-4.16-4.37-4.16c-0.72,0-1.26,0.06-1.63,0.14V468.13z"/>
	<path d="M434.34,465.62c0.03,1.9,1.25,2.69,2.66,2.69c1.01,0,1.62-0.18,2.14-0.4l0.24,1.01c-0.5,0.22-1.34,0.48-2.58,0.48
		c-2.38,0-3.81-1.57-3.81-3.91s1.38-4.18,3.63-4.18c2.53,0,3.2,2.22,3.2,3.65c0,0.29-0.03,0.51-0.05,0.66H434.34z M438.47,464.61
		c0.02-0.9-0.37-2.29-1.95-2.29c-1.42,0-2.05,1.31-2.16,2.29H438.47z"/>
	<path d="M441.38,467.8c0.42,0.27,1.15,0.56,1.86,0.56c1.02,0,1.5-0.51,1.5-1.15c0-0.67-0.4-1.04-1.44-1.42
		c-1.39-0.5-2.05-1.26-2.05-2.19c0-1.25,1.01-2.27,2.67-2.27c0.78,0,1.47,0.22,1.9,0.48l-0.35,1.02c-0.3-0.19-0.86-0.45-1.58-0.45
		c-0.83,0-1.3,0.48-1.3,1.06c0,0.64,0.46,0.93,1.47,1.31c1.34,0.51,2.03,1.18,2.03,2.34c0,1.36-1.06,2.32-2.9,2.32
		c-0.85,0-1.63-0.21-2.18-0.53L441.38,467.8z"/>
	<path d="M449.47,459.32c0.02,0.48-0.34,0.86-0.9,0.86c-0.5,0-0.85-0.38-0.85-0.86c0-0.5,0.37-0.88,0.88-0.88
		C449.14,458.43,449.47,458.82,449.47,459.32z M447.9,469.24v-7.75h1.41v7.75H447.9z"/>
	<path d="M458.32,461.49c-0.03,0.56-0.06,1.18-0.06,2.13v4.5c0,1.78-0.35,2.87-1.1,3.54c-0.75,0.7-1.84,0.93-2.82,0.93
		c-0.93,0-1.95-0.22-2.58-0.64l0.35-1.07c0.51,0.32,1.31,0.61,2.27,0.61c1.44,0,2.5-0.75,2.5-2.71v-0.86h-0.03
		c-0.43,0.72-1.26,1.3-2.46,1.3c-1.92,0-3.3-1.63-3.3-3.78c0-2.62,1.71-4.11,3.49-4.11c1.34,0,2.08,0.7,2.42,1.34h0.03l0.06-1.17
		H458.32z M456.87,464.55c0-0.24-0.02-0.45-0.08-0.64c-0.26-0.82-0.94-1.49-1.97-1.49c-1.34,0-2.3,1.14-2.3,2.93
		c0,1.52,0.77,2.79,2.29,2.79c0.87,0,1.65-0.54,1.95-1.44c0.08-0.24,0.11-0.51,0.11-0.75V464.55z"/>
	<path d="M460.5,463.59c0-0.8-0.02-1.46-0.06-2.1h1.25l0.08,1.28h0.03c0.38-0.74,1.28-1.46,2.56-1.46c1.07,0,2.74,0.64,2.74,3.3
		v4.63h-1.41v-4.47c0-1.25-0.46-2.29-1.79-2.29c-0.93,0-1.65,0.66-1.89,1.44c-0.06,0.18-0.1,0.42-0.1,0.66v4.66h-1.41V463.59z"/>
</g>
<rect x="337" y="407.12" class="st8" width="164.49" height="62.11"/>
<text transform="matrix(1 0 0 1 398.192 422.6041)"><tspan x="0" y="0" class="st18 st19 st20">Tino </tspan><tspan x="-45.22" y="21.6" class="st18 st19 st20">Freiburghaus</tspan></text>
<rect x="563.97" y="382.33" class="st8" width="196.76" height="95.62"/>
<text transform="matrix(1 0 0 1 609.973 421.9899)"><tspan x="0" y="0" class="st18 st19 st20">Manynouk </tspan><tspan x="-2.13" y="21.6" class="st18 st19 st20"> Kaufmann</tspan></text>
<rect x="180.18" y="30.06" class="st8" width="3.32" height="0"/>
<rect x="161.43" y="550.6" class="st8" width="21.63" height="1.44"/>
</svg>
