<?xml version="1.0" encoding="utf-8"?>
<!-- Generator: Adobe Illustrator 26.0.1, SVG Export Plug-In . SVG Version: 6.00 Build 0)  -->
<svg version="1.1" id="Ebene_1" xmlns="http://www.w3.org/2000/svg" xmlns:xlink="http://www.w3.org/1999/xlink" x="0px" y="0px"
	 viewBox="0 0 841.9 595.3" style="enable-background:new 0 0 841.9 595.3;" xml:space="preserve">
<style type="text/css">
	.st0{opacity:0.9;fill:#FFE267;enable-background:new    ;}
	.st1{fill:none;}
	.st2{enable-background:new    ;}
	.st3{fill:#020203;}
	.st4{fill:#335AA5;stroke:#1E1E1C;stroke-width:0.75;stroke-miterlimit:10;}
	.st5{opacity:0.9;fill:#FFE267;stroke:#020203;stroke-width:0.75;stroke-miterlimit:10;enable-background:new    ;}
	.st6{fill:#1E1E1C;}
	.st7{fill:none;stroke:#1E1E1C;stroke-width:0.75;stroke-miterlimit:10;}
	.st8{fill:#D94536;stroke:#1E1E1C;stroke-width:0.75;stroke-miterlimit:10;}
	.st9{fill:#232A51;stroke:#1E1E1C;stroke-width:0.75;stroke-miterlimit:10;}
	.st10{fill:#009CBF;}
	.st11{fill:#009CBF;stroke:#1E1E1C;stroke-width:0.75;stroke-miterlimit:10;}
</style>
<g>
	<path class="st0" d="M475.3,198.5c-59.4,0-107.5-25.3-107.5-56.5s48.1-56.5,107.5-56.5s107.5,25.3,107.5,56.5
		c0,24.8-30.4,45.8-72.7,53.4c0,0,0,59.4-45.1,62c-13.9-4.3,38.1-33.7,22.5-59.3C483.5,198.4,479.4,198.5,475.3,198.5z"/>
	<rect x="370.4" y="129.5" class="st1" width="212.8" height="49.7"/>
	<g class="st2">
		<path class="st3" d="M378.6,138.1l-2.6-9.2h2l1.7,6.7l2-6.7h1.4l2,6.7l1.7-6.7h2l-2.6,9.2h-2l-1.7-5.7l-1.7,5.7H378.6z"/>
		<path class="st3" d="M390.8,131.2c-0.2,0-0.4,0-0.5-0.1c-0.2-0.1-0.3-0.2-0.4-0.4c-0.1-0.2-0.1-0.3-0.1-0.5c0-0.2,0-0.4,0.1-0.5
			c0.1-0.2,0.2-0.3,0.4-0.4s0.3-0.1,0.5-0.1c0.2,0,0.4,0,0.5,0.1s0.3,0.2,0.4,0.4c0.1,0.2,0.1,0.3,0.1,0.5c0,0.2,0,0.4-0.1,0.5
			c-0.1,0.2-0.2,0.3-0.4,0.4C391.2,131.2,391,131.2,390.8,131.2z M390,138.1v-5.7h1.7v5.7H390z"/>
		<path class="st3" d="M396.4,138.3c-0.6,0-1.2-0.1-1.7-0.4c-0.5-0.3-0.9-0.6-1.2-1.1c-0.3-0.5-0.4-1-0.4-1.5c0-0.4,0.1-0.8,0.2-1.2
			c0.2-0.4,0.4-0.7,0.7-1c0.3-0.3,0.6-0.5,1-0.6c0.4-0.2,0.8-0.2,1.2-0.2c0.6,0,1.1,0.1,1.6,0.4c0.4,0.2,0.8,0.6,1,1
			c0.3,0.4,0.4,0.9,0.4,1.5c0,0,0,0.1,0,0.1s0,0.1,0,0.2h-4.4c0,0.3,0.1,0.5,0.2,0.8c0.1,0.2,0.3,0.4,0.6,0.5
			c0.2,0.1,0.5,0.2,0.8,0.2c0.3,0,0.6-0.1,0.8-0.2c0.2-0.1,0.4-0.3,0.7-0.6l1.2,0.6c-0.3,0.5-0.6,0.8-1.1,1.1
			C397.6,138.2,397,138.3,396.4,138.3z M395,134.5h2.6c0-0.2-0.1-0.4-0.2-0.6c-0.1-0.2-0.3-0.3-0.5-0.4c-0.2-0.1-0.4-0.1-0.6-0.1
			c-0.2,0-0.5,0-0.7,0.1c-0.2,0.1-0.3,0.2-0.5,0.4C395.1,134.1,395,134.3,395,134.5z"/>
		<path class="st3" d="M404.1,138.1v-4.4h-0.8v-1.3h0.8V131c0-0.5,0.1-1,0.3-1.4c0.2-0.4,0.4-0.7,0.7-0.9c0.3-0.2,0.7-0.3,1.1-0.3
			c0.3,0,0.5,0,0.8,0.1c0.3,0.1,0.5,0.2,0.7,0.3l-0.6,1.2c-0.2-0.1-0.4-0.2-0.6-0.2c-0.2,0-0.3,0-0.4,0.1c-0.1,0.1-0.2,0.2-0.2,0.4
			c0,0.2-0.1,0.4-0.1,0.6v1.4h1.3v1.3h-1.3v4.4H404.1z"/>
		<path class="st3" d="M411.2,138.3c-1,0-1.8-0.2-2.2-0.6c-0.5-0.4-0.7-1.1-0.7-2v-3.2h1.7v2.8c0,0.6,0.1,1,0.3,1.3
			c0.2,0.2,0.5,0.4,0.9,0.4c0.5,0,0.8-0.1,1-0.4c0.2-0.2,0.3-0.7,0.3-1.3v-2.8h1.7v3.2c0,0.9-0.2,1.6-0.7,2
			C413,138.1,412.3,138.3,411.2,138.3z M409.9,131.2c-0.2,0-0.5-0.1-0.6-0.3c-0.2-0.2-0.3-0.4-0.3-0.6c0-0.3,0.1-0.5,0.3-0.6
			c0.2-0.2,0.4-0.3,0.6-0.3c0.3,0,0.5,0.1,0.6,0.3c0.2,0.2,0.3,0.4,0.3,0.6c0,0.2-0.1,0.5-0.3,0.6
			C410.4,131.2,410.2,131.2,409.9,131.2z M412.6,131.2c-0.2,0-0.5-0.1-0.6-0.3c-0.2-0.2-0.3-0.4-0.3-0.6c0-0.3,0.1-0.5,0.3-0.6
			c0.2-0.2,0.4-0.3,0.6-0.3c0.3,0,0.5,0.1,0.6,0.3c0.2,0.2,0.3,0.4,0.3,0.6c0,0.2-0.1,0.5-0.3,0.6
			C413,131.2,412.8,131.2,412.6,131.2z"/>
		<path class="st3" d="M416.1,138.1v-9.6h1.7v4.5c0.2-0.2,0.5-0.4,0.8-0.6c0.3-0.1,0.7-0.2,1.1-0.2c0.4,0,0.8,0.1,1.2,0.3
			c0.3,0.2,0.6,0.5,0.8,0.8c0.2,0.3,0.3,0.7,0.3,1.2v3.6h-1.7v-3.2c0-0.4-0.1-0.7-0.3-1s-0.5-0.3-0.9-0.3c-0.3,0-0.5,0.1-0.7,0.2
			c-0.2,0.1-0.3,0.2-0.4,0.4c-0.1,0.2-0.1,0.4-0.1,0.6v3.4H416.1z"/>
		<path class="st3" d="M423.8,138.1v-9.6h1.7v9.6H423.8z"/>
		<path class="st3" d="M429.5,138.3c-0.6,0-1-0.2-1.3-0.5c-0.3-0.4-0.5-0.9-0.5-1.5v-2.5h-0.8v-1.3h0.8v-2.1h1.7v2.1h1.3v1.3h-1.3
			v2.4c0,0.2,0,0.4,0.1,0.5c0.1,0.1,0.2,0.2,0.4,0.2c0.2,0,0.3-0.1,0.5-0.2l0.4,1.4c-0.2,0.1-0.4,0.2-0.6,0.2
			C429.9,138.3,429.7,138.3,429.5,138.3z"/>
		<path class="st3" d="M438,138.3c-0.6,0-1.2-0.1-1.7-0.4c-0.5-0.3-0.9-0.6-1.2-1.1c-0.3-0.5-0.4-1-0.4-1.5c0-0.4,0.1-0.8,0.2-1.2
			c0.2-0.4,0.4-0.7,0.7-1c0.3-0.3,0.6-0.5,1-0.6c0.4-0.2,0.8-0.2,1.2-0.2c0.6,0,1.1,0.1,1.6,0.4c0.4,0.2,0.8,0.6,1,1
			c0.3,0.4,0.4,0.9,0.4,1.5c0,0,0,0.1,0,0.1c0,0,0,0.1,0,0.2h-4.4c0,0.3,0.1,0.5,0.2,0.8c0.1,0.2,0.3,0.4,0.6,0.5s0.5,0.2,0.8,0.2
			c0.3,0,0.6-0.1,0.8-0.2c0.2-0.1,0.4-0.3,0.7-0.6l1.2,0.6c-0.3,0.5-0.6,0.8-1.1,1.1C439.2,138.2,438.6,138.3,438,138.3z
			 M436.6,134.5h2.7c0-0.2-0.1-0.4-0.2-0.6c-0.1-0.2-0.3-0.3-0.5-0.4c-0.2-0.1-0.4-0.1-0.6-0.1c-0.2,0-0.5,0-0.7,0.1
			c-0.2,0.1-0.3,0.2-0.5,0.4C436.7,134.1,436.6,134.3,436.6,134.5z"/>
		<path class="st3" d="M444.1,138.3c-0.5,0-0.9-0.1-1.3-0.2c-0.4-0.2-0.7-0.4-0.9-0.7l0.7-1.1c0.2,0.3,0.5,0.4,0.7,0.6
			c0.3,0.1,0.5,0.2,0.8,0.2c0.1,0,0.3,0,0.4-0.1s0.2-0.1,0.3-0.2c0.1-0.1,0.1-0.2,0.1-0.3c0-0.1,0-0.3-0.1-0.4
			c-0.1-0.1-0.2-0.2-0.4-0.2c-0.2-0.1-0.4-0.2-0.7-0.3c-0.2-0.1-0.5-0.2-0.7-0.3c-0.2-0.1-0.4-0.3-0.5-0.5s-0.2-0.4-0.2-0.7
			c0-0.4,0.1-0.7,0.3-0.9c0.2-0.3,0.5-0.5,0.8-0.6c0.3-0.2,0.7-0.2,1.2-0.2c0.3,0,0.6,0,0.9,0.1c0.3,0.1,0.6,0.2,1,0.4l-0.6,1.1
			c-0.5-0.3-0.9-0.5-1.3-0.5c-0.2,0-0.4,0-0.5,0.1c-0.1,0.1-0.2,0.2-0.2,0.4c0,0.1,0.1,0.2,0.2,0.3c0.1,0.1,0.3,0.2,0.5,0.3
			c0.2,0.1,0.4,0.1,0.5,0.2c0.3,0.1,0.5,0.2,0.8,0.3c0.2,0.1,0.4,0.3,0.5,0.5c0.1,0.2,0.2,0.5,0.2,0.8c0,0.4-0.1,0.8-0.3,1.1
			c-0.2,0.3-0.5,0.5-0.9,0.7C445,138.2,444.6,138.3,444.1,138.3z"/>
		<path class="st3" d="M452.8,138.3c-0.5,0-0.9-0.1-1.3-0.2c-0.4-0.2-0.7-0.4-0.9-0.7l0.7-1.1c0.2,0.3,0.5,0.4,0.7,0.6
			c0.3,0.1,0.5,0.2,0.8,0.2c0.1,0,0.3,0,0.4-0.1c0.1,0,0.2-0.1,0.3-0.2c0.1-0.1,0.1-0.2,0.1-0.3c0-0.1,0-0.3-0.1-0.4
			c-0.1-0.1-0.2-0.2-0.4-0.2c-0.2-0.1-0.4-0.2-0.7-0.3c-0.2-0.1-0.5-0.2-0.7-0.3c-0.2-0.1-0.4-0.3-0.5-0.5c-0.1-0.2-0.2-0.4-0.2-0.7
			c0-0.4,0.1-0.7,0.3-0.9c0.2-0.3,0.5-0.5,0.8-0.6c0.3-0.2,0.7-0.2,1.2-0.2c0.3,0,0.6,0,0.9,0.1c0.3,0.1,0.6,0.2,1,0.4l-0.6,1.1
			c-0.5-0.3-0.9-0.5-1.3-0.5c-0.2,0-0.4,0-0.5,0.1c-0.1,0.1-0.2,0.2-0.2,0.4c0,0.1,0.1,0.2,0.2,0.3c0.1,0.1,0.3,0.2,0.5,0.3
			c0.2,0.1,0.4,0.1,0.5,0.2c0.3,0.1,0.5,0.2,0.8,0.3c0.2,0.1,0.4,0.3,0.5,0.5c0.1,0.2,0.2,0.5,0.2,0.8c0,0.4-0.1,0.8-0.3,1.1
			c-0.2,0.3-0.5,0.5-0.9,0.7C453.7,138.2,453.3,138.3,452.8,138.3z"/>
		<path class="st3" d="M457.7,131.2c-0.2,0-0.4,0-0.5-0.1c-0.2-0.1-0.3-0.2-0.4-0.4c-0.1-0.2-0.1-0.3-0.1-0.5c0-0.2,0-0.4,0.1-0.5
			c0.1-0.2,0.2-0.3,0.4-0.4c0.2-0.1,0.3-0.1,0.5-0.1c0.2,0,0.4,0,0.5,0.1s0.3,0.2,0.4,0.4c0.1,0.2,0.1,0.3,0.1,0.5
			c0,0.2,0,0.4-0.1,0.5c-0.1,0.2-0.2,0.3-0.4,0.4C458.1,131.2,457.9,131.2,457.7,131.2z M456.8,138.1v-5.7h1.7v5.7H456.8z"/>
		<path class="st3" d="M463.2,138.3c-0.4,0-0.8-0.1-1.2-0.2s-0.7-0.4-1-0.6c-0.3-0.3-0.5-0.6-0.7-1c-0.2-0.4-0.3-0.8-0.3-1.2
			c0-0.4,0.1-0.8,0.2-1.2c0.2-0.4,0.4-0.7,0.7-1c0.3-0.3,0.6-0.5,1-0.7c0.4-0.2,0.8-0.2,1.3-0.2c0.4,0,0.7,0.1,1.1,0.2
			s0.6,0.2,0.8,0.4l-0.6,1.2c-0.3-0.2-0.6-0.3-1-0.3c-0.4,0-0.7,0.1-0.9,0.2c-0.2,0.2-0.4,0.4-0.6,0.6c-0.1,0.2-0.2,0.5-0.2,0.8
			c0,0.3,0.1,0.6,0.2,0.8c0.1,0.2,0.3,0.4,0.6,0.6c0.3,0.1,0.5,0.2,0.9,0.2c0.2,0,0.4,0,0.6-0.1c0.2-0.1,0.3-0.1,0.5-0.2l0.6,1.2
			c-0.2,0.2-0.5,0.3-0.8,0.4C464,138.2,463.6,138.3,463.2,138.3z"/>
		<path class="st3" d="M466.5,138.1v-9.6h1.7v4.5c0.2-0.2,0.5-0.4,0.8-0.6c0.3-0.1,0.7-0.2,1.1-0.2c0.4,0,0.8,0.1,1.2,0.3
			c0.3,0.2,0.6,0.5,0.8,0.8c0.2,0.3,0.3,0.7,0.3,1.2v3.6h-1.7v-3.2c0-0.4-0.1-0.7-0.3-1c-0.2-0.2-0.5-0.3-0.9-0.3
			c-0.3,0-0.5,0.1-0.7,0.2c-0.2,0.1-0.3,0.2-0.4,0.4c-0.1,0.2-0.1,0.4-0.1,0.6v3.4H466.5z"/>
		<path class="st3" d="M479.6,138.3c-0.5,0-1-0.1-1.4-0.4c-0.4-0.3-0.8-0.6-1-1.1c-0.3-0.5-0.4-1-0.4-1.6c0-0.6,0.1-1.1,0.4-1.5
			c0.2-0.5,0.6-0.8,1-1.1c0.4-0.3,0.9-0.4,1.5-0.4c0.4,0,0.8,0.1,1.1,0.2c0.4,0.2,0.6,0.4,0.9,0.6v-0.7h1.7v5.7h-1.7v-0.8
			c-0.3,0.3-0.6,0.5-0.9,0.7C480.4,138.2,480,138.3,479.6,138.3z M480.1,136.8c0.3,0,0.6-0.1,0.8-0.2c0.2-0.1,0.4-0.3,0.5-0.6
			c0.1-0.2,0.2-0.5,0.2-0.8c0-0.3-0.1-0.6-0.2-0.8c-0.1-0.2-0.3-0.4-0.5-0.6c-0.2-0.1-0.5-0.2-0.8-0.2c-0.3,0-0.6,0.1-0.8,0.2
			c-0.2,0.1-0.4,0.3-0.5,0.6c-0.1,0.2-0.2,0.5-0.2,0.8s0.1,0.6,0.2,0.8c0.1,0.2,0.3,0.4,0.5,0.6
			C479.6,136.8,479.8,136.8,480.1,136.8z"/>
		<path class="st3" d="M485.3,138.1v-5.7h1.7v0.6c0.2-0.2,0.5-0.4,0.8-0.6c0.3-0.1,0.7-0.2,1.1-0.2c0.4,0,0.8,0.1,1.2,0.3
			c0.3,0.2,0.6,0.5,0.8,0.8c0.2,0.3,0.3,0.7,0.3,1.2v3.6h-1.7v-3.2c0-0.4-0.1-0.7-0.3-1c-0.2-0.2-0.5-0.3-0.9-0.3
			c-0.3,0-0.5,0.1-0.7,0.2c-0.2,0.1-0.3,0.2-0.4,0.4c-0.1,0.2-0.1,0.4-0.1,0.6v3.4H485.3z"/>
		<path class="st3" d="M497,138.1l-2.6-9.2h2l1.7,6.7l2-6.7h1.4l2,6.7l1.7-6.7h2l-2.6,9.2h-2l-1.7-5.7l-1.7,5.7H497z"/>
		<path class="st3" d="M509.2,131.2c-0.2,0-0.4,0-0.5-0.1c-0.2-0.1-0.3-0.2-0.4-0.4c-0.1-0.2-0.1-0.3-0.1-0.5c0-0.2,0-0.4,0.1-0.5
			c0.1-0.2,0.2-0.3,0.4-0.4c0.2-0.1,0.3-0.1,0.5-0.1c0.2,0,0.4,0,0.5,0.1s0.3,0.2,0.4,0.4c0.1,0.2,0.1,0.3,0.1,0.5
			c0,0.2,0,0.4-0.1,0.5c-0.1,0.2-0.2,0.3-0.4,0.4C509.5,131.2,509.4,131.2,509.2,131.2z M508.3,138.1v-5.7h1.7v5.7H508.3z"/>
		<path class="st3" d="M512.1,138.1v-5.7h1.7v0.8c0.2-0.3,0.5-0.6,0.8-0.7c0.3-0.2,0.6-0.3,1-0.3c0.2,0,0.4,0,0.6,0.1
			c0.2,0.1,0.4,0.1,0.5,0.2L516,134c-0.1-0.1-0.3-0.2-0.4-0.2c-0.2,0-0.3-0.1-0.5-0.1c-0.2,0-0.4,0.1-0.6,0.2
			c-0.2,0.1-0.4,0.3-0.5,0.4c-0.1,0.2-0.2,0.4-0.2,0.6v3.2H512.1z"/>
		<path class="st3" d="M519.6,138.3c-0.6,0-1-0.2-1.3-0.5c-0.3-0.4-0.5-0.9-0.5-1.5v-2.5H517v-1.3h0.8v-2.1h1.7v2.1h1.3v1.3h-1.3
			v2.4c0,0.2,0,0.4,0.1,0.5s0.2,0.2,0.4,0.2c0.2,0,0.3-0.1,0.5-0.2l0.4,1.4c-0.2,0.1-0.4,0.2-0.6,0.2
			C520.1,138.3,519.8,138.3,519.6,138.3z"/>
		<path class="st3" d="M524,138.3c-0.5,0-0.9-0.1-1.3-0.2s-0.7-0.4-0.9-0.7l0.7-1.1c0.2,0.3,0.5,0.4,0.7,0.6
			c0.3,0.1,0.5,0.2,0.8,0.2c0.1,0,0.3,0,0.4-0.1c0.1,0,0.2-0.1,0.3-0.2c0.1-0.1,0.1-0.2,0.1-0.3c0-0.1,0-0.3-0.1-0.4
			s-0.2-0.2-0.4-0.2c-0.2-0.1-0.4-0.2-0.7-0.3c-0.2-0.1-0.5-0.2-0.7-0.3c-0.2-0.1-0.4-0.3-0.5-0.5c-0.1-0.2-0.2-0.4-0.2-0.7
			c0-0.4,0.1-0.7,0.3-0.9c0.2-0.3,0.5-0.5,0.8-0.6s0.7-0.2,1.2-0.2c0.3,0,0.6,0,0.9,0.1c0.3,0.1,0.6,0.2,1,0.4l-0.6,1.1
			c-0.5-0.3-0.9-0.5-1.3-0.5c-0.2,0-0.4,0-0.5,0.1c-0.1,0.1-0.2,0.2-0.2,0.4c0,0.1,0.1,0.2,0.2,0.3c0.1,0.1,0.3,0.2,0.5,0.3
			c0.2,0.1,0.4,0.1,0.5,0.2c0.3,0.1,0.5,0.2,0.8,0.3c0.2,0.1,0.4,0.3,0.5,0.5c0.1,0.2,0.2,0.5,0.2,0.8c0,0.4-0.1,0.8-0.3,1.1
			c-0.2,0.3-0.5,0.5-0.9,0.7C525,138.2,524.6,138.3,524,138.3z"/>
		<path class="st3" d="M530.8,138.3c-0.4,0-0.8-0.1-1.2-0.2c-0.4-0.2-0.7-0.4-1-0.6c-0.3-0.3-0.5-0.6-0.7-1
			c-0.2-0.4-0.3-0.8-0.3-1.2c0-0.4,0.1-0.8,0.2-1.2c0.2-0.4,0.4-0.7,0.7-1c0.3-0.3,0.6-0.5,1-0.7c0.4-0.2,0.8-0.2,1.3-0.2
			c0.4,0,0.7,0.1,1.1,0.2c0.3,0.1,0.6,0.2,0.8,0.4l-0.6,1.2c-0.3-0.2-0.6-0.3-1-0.3c-0.4,0-0.7,0.1-0.9,0.2
			c-0.2,0.2-0.4,0.4-0.6,0.6c-0.1,0.2-0.2,0.5-0.2,0.8c0,0.3,0.1,0.6,0.2,0.8c0.1,0.2,0.3,0.4,0.6,0.6c0.3,0.1,0.5,0.2,0.9,0.2
			c0.2,0,0.4,0,0.6-0.1c0.2-0.1,0.3-0.1,0.5-0.2l0.6,1.2c-0.2,0.2-0.5,0.3-0.8,0.4C531.5,138.2,531.2,138.3,530.8,138.3z"/>
		<path class="st3" d="M534.1,138.1v-9.6h1.7v4.5c0.2-0.2,0.5-0.4,0.8-0.6c0.3-0.1,0.7-0.2,1.1-0.2c0.4,0,0.8,0.1,1.2,0.3
			c0.3,0.2,0.6,0.5,0.8,0.8s0.3,0.7,0.3,1.2v3.6h-1.7v-3.2c0-0.4-0.1-0.7-0.3-1c-0.2-0.2-0.5-0.3-0.9-0.3c-0.3,0-0.5,0.1-0.7,0.2
			c-0.2,0.1-0.3,0.2-0.4,0.4c-0.1,0.2-0.1,0.4-0.1,0.6v3.4H534.1z"/>
		<path class="st3" d="M544.2,138.3c-0.5,0-1-0.1-1.4-0.4c-0.4-0.3-0.8-0.6-1-1.1c-0.3-0.5-0.4-1-0.4-1.6c0-0.6,0.1-1.1,0.4-1.5
			c0.2-0.5,0.6-0.8,1-1.1c0.4-0.3,0.9-0.4,1.5-0.4c0.4,0,0.8,0.1,1.1,0.2c0.4,0.2,0.6,0.4,0.9,0.6v-0.7h1.7v5.7h-1.7v-0.8
			c-0.3,0.3-0.6,0.5-0.9,0.7C544.9,138.2,544.6,138.3,544.2,138.3z M544.7,136.8c0.3,0,0.6-0.1,0.8-0.2c0.2-0.1,0.4-0.3,0.5-0.6
			c0.1-0.2,0.2-0.5,0.2-0.8c0-0.3-0.1-0.6-0.2-0.8c-0.1-0.2-0.3-0.4-0.5-0.6c-0.2-0.1-0.5-0.2-0.8-0.2c-0.3,0-0.6,0.1-0.8,0.2
			c-0.2,0.1-0.4,0.3-0.5,0.6c-0.1,0.2-0.2,0.5-0.2,0.8s0.1,0.6,0.2,0.8c0.1,0.2,0.3,0.4,0.5,0.6
			C544.1,136.8,544.4,136.8,544.7,136.8z"/>
		<path class="st3" d="M550.1,138.1v-4.4h-0.8v-1.3h0.8V131c0-0.5,0.1-1,0.3-1.4c0.2-0.4,0.4-0.7,0.7-0.9c0.3-0.2,0.7-0.3,1.1-0.3
			c0.3,0,0.5,0,0.8,0.1s0.5,0.2,0.7,0.3l-0.6,1.2c-0.2-0.1-0.4-0.2-0.6-0.2c-0.2,0-0.3,0-0.4,0.1c-0.1,0.1-0.2,0.2-0.2,0.4
			c0,0.2-0.1,0.4-0.1,0.6v1.4h1.3v1.3h-1.3v4.4H550.1z"/>
		<path class="st3" d="M556.4,138.3c-0.6,0-1-0.2-1.3-0.5c-0.3-0.4-0.5-0.9-0.5-1.5v-2.5h-0.8v-1.3h0.8v-2.1h1.7v2.1h1.3v1.3h-1.3
			v2.4c0,0.2,0,0.4,0.1,0.5s0.2,0.2,0.4,0.2c0.2,0,0.3-0.1,0.5-0.2l0.4,1.4c-0.2,0.1-0.4,0.2-0.6,0.2
			C556.8,138.3,556.6,138.3,556.4,138.3z"/>
		<path class="st3" d="M561.4,138.1l3.2-4.4h-2.7v-1.3h5.6l-3.2,4.4h3v1.3H561.4z"/>
		<path class="st3" d="M571.6,138.3c-1,0-1.8-0.2-2.2-0.6c-0.5-0.4-0.7-1.1-0.7-2v-3.2h1.7v2.8c0,0.6,0.1,1,0.3,1.3
			c0.2,0.2,0.5,0.4,0.9,0.4c0.5,0,0.8-0.1,1-0.4c0.2-0.2,0.3-0.7,0.3-1.3v-2.8h1.7v3.2c0,0.9-0.2,1.6-0.7,2
			C573.4,138.1,572.6,138.3,571.6,138.3z"/>
		<path class="st3" d="M446.1,151.7c-0.5,0-0.9-0.1-1.3-0.2s-0.7-0.4-0.9-0.7l0.7-1.1c0.2,0.3,0.5,0.4,0.7,0.6
			c0.3,0.1,0.5,0.2,0.8,0.2c0.1,0,0.3,0,0.4-0.1c0.1,0,0.2-0.1,0.3-0.2c0.1-0.1,0.1-0.2,0.1-0.3c0-0.1,0-0.3-0.1-0.4
			c-0.1-0.1-0.2-0.2-0.4-0.2c-0.2-0.1-0.4-0.2-0.7-0.3c-0.2-0.1-0.5-0.2-0.7-0.3c-0.2-0.1-0.4-0.3-0.5-0.5c-0.1-0.2-0.2-0.4-0.2-0.7
			c0-0.4,0.1-0.7,0.3-0.9c0.2-0.3,0.5-0.5,0.8-0.6c0.3-0.2,0.7-0.2,1.2-0.2c0.3,0,0.6,0,0.9,0.1c0.3,0.1,0.6,0.2,1,0.4l-0.6,1.1
			c-0.5-0.3-0.9-0.5-1.3-0.5c-0.2,0-0.4,0-0.5,0.1c-0.1,0.1-0.2,0.2-0.2,0.4c0,0.1,0.1,0.2,0.2,0.3c0.1,0.1,0.3,0.2,0.5,0.3
			c0.2,0.1,0.4,0.1,0.5,0.2c0.3,0.1,0.5,0.2,0.8,0.3c0.2,0.1,0.4,0.3,0.5,0.5c0.1,0.2,0.2,0.5,0.2,0.8c0,0.4-0.1,0.8-0.3,1.1
			c-0.2,0.3-0.5,0.5-0.9,0.7C447.1,151.6,446.6,151.7,446.1,151.7z"/>
		<path class="st3" d="M452,151.7c-0.6,0-1-0.2-1.3-0.5c-0.3-0.4-0.5-0.9-0.5-1.5v-2.5h-0.8v-1.3h0.8v-2.1h1.7v2.1h1.3v1.3H452v2.4
			c0,0.2,0,0.4,0.1,0.5c0.1,0.1,0.2,0.2,0.4,0.2c0.2,0,0.3-0.1,0.5-0.2l0.4,1.4c-0.2,0.1-0.4,0.2-0.6,0.2
			C452.5,151.6,452.3,151.7,452,151.7z"/>
		<path class="st3" d="M457.7,151.7c-1,0-1.8-0.2-2.2-0.6c-0.5-0.4-0.7-1.1-0.7-2v-3.2h1.7v2.8c0,0.6,0.1,1,0.3,1.3
			c0.2,0.2,0.5,0.4,0.9,0.4c0.5,0,0.8-0.1,1-0.4c0.2-0.2,0.3-0.7,0.3-1.3v-2.8h1.7v3.2c0,0.9-0.2,1.6-0.7,2
			C459.5,151.5,458.7,151.7,457.7,151.7z"/>
		<path class="st3" d="M464.8,151.7c-0.5,0-1-0.1-1.4-0.4c-0.4-0.3-0.8-0.6-1-1.1c-0.3-0.5-0.4-1-0.4-1.6c0-0.6,0.1-1.1,0.4-1.6
			c0.2-0.5,0.6-0.8,1-1.1c0.4-0.3,0.9-0.4,1.5-0.4c0.4,0,0.8,0.1,1.1,0.2c0.3,0.2,0.6,0.4,0.9,0.6v-4.6h1.7v9.6h-1.7v-0.8
			c-0.3,0.3-0.6,0.5-0.9,0.7C465.6,151.6,465.2,151.7,464.8,151.7z M465.4,150.2c0.3,0,0.6-0.1,0.8-0.2c0.2-0.1,0.4-0.3,0.5-0.6
			c0.1-0.2,0.2-0.5,0.2-0.8c0-0.3-0.1-0.6-0.2-0.8c-0.1-0.2-0.3-0.4-0.5-0.6c-0.2-0.1-0.5-0.2-0.8-0.2c-0.3,0-0.6,0.1-0.8,0.2
			c-0.2,0.1-0.4,0.3-0.5,0.6c-0.1,0.2-0.2,0.5-0.2,0.8c0,0.3,0.1,0.6,0.2,0.8c0.1,0.2,0.3,0.4,0.5,0.6
			C464.8,150.1,465.1,150.2,465.4,150.2z"/>
		<path class="st3" d="M471.4,144.6c-0.2,0-0.4,0-0.5-0.1c-0.2-0.1-0.3-0.2-0.4-0.4c-0.1-0.2-0.1-0.3-0.1-0.5c0-0.2,0-0.4,0.1-0.5
			c0.1-0.2,0.2-0.3,0.4-0.4c0.2-0.1,0.3-0.1,0.5-0.1s0.4,0,0.5,0.1s0.3,0.2,0.4,0.4c0.1,0.2,0.1,0.3,0.1,0.5c0,0.2,0,0.4-0.1,0.5
			c-0.1,0.2-0.2,0.3-0.4,0.4C471.8,144.6,471.6,144.6,471.4,144.6z M470.6,151.5v-5.7h1.7v5.7H470.6z"/>
		<path class="st3" d="M477,151.7c-0.6,0-1.2-0.1-1.7-0.4c-0.5-0.3-0.9-0.6-1.2-1.1c-0.3-0.5-0.4-1-0.4-1.5c0-0.4,0.1-0.8,0.2-1.2
			c0.2-0.4,0.4-0.7,0.7-1c0.3-0.3,0.6-0.5,1-0.6c0.4-0.2,0.8-0.2,1.2-0.2c0.6,0,1.1,0.1,1.6,0.4c0.4,0.2,0.8,0.6,1,1
			c0.3,0.4,0.4,0.9,0.4,1.5c0,0,0,0.1,0,0.1c0,0,0,0.1,0,0.2h-4.4c0,0.3,0.1,0.5,0.2,0.8c0.1,0.2,0.3,0.4,0.6,0.5
			c0.2,0.1,0.5,0.2,0.8,0.2c0.3,0,0.6-0.1,0.8-0.2c0.2-0.1,0.4-0.3,0.7-0.6l1.2,0.6c-0.3,0.5-0.6,0.8-1.1,1.1
			C478.2,151.5,477.6,151.7,477,151.7z M475.6,147.9h2.6c0-0.2-0.1-0.4-0.2-0.6s-0.3-0.3-0.5-0.4c-0.2-0.1-0.4-0.1-0.6-0.1
			c-0.2,0-0.5,0-0.7,0.1c-0.2,0.1-0.3,0.2-0.5,0.4S475.6,147.7,475.6,147.9z"/>
		<path class="st3" d="M481.5,151.5v-5.7h1.7v0.8c0.2-0.3,0.5-0.6,0.8-0.7c0.3-0.2,0.6-0.3,1-0.3c0.2,0,0.4,0,0.6,0.1
			c0.2,0.1,0.4,0.1,0.5,0.2l-0.7,1.4c-0.1-0.1-0.3-0.2-0.4-0.2c-0.2,0-0.3-0.1-0.5-0.1c-0.2,0-0.4,0.1-0.6,0.2
			c-0.2,0.1-0.4,0.3-0.5,0.4c-0.1,0.2-0.2,0.4-0.2,0.6v3.2H481.5z"/>
		<path class="st3" d="M489.7,151.7c-0.6,0-1.2-0.1-1.7-0.4c-0.5-0.3-0.9-0.6-1.2-1.1c-0.3-0.5-0.4-1-0.4-1.5c0-0.4,0.1-0.8,0.2-1.2
			c0.2-0.4,0.4-0.7,0.7-1c0.3-0.3,0.6-0.5,1-0.6c0.4-0.2,0.8-0.2,1.2-0.2c0.6,0,1.1,0.1,1.6,0.4c0.4,0.2,0.8,0.6,1,1
			c0.3,0.4,0.4,0.9,0.4,1.5c0,0,0,0.1,0,0.1c0,0,0,0.1,0,0.2h-4.4c0,0.3,0.1,0.5,0.2,0.8c0.1,0.2,0.3,0.4,0.6,0.5
			c0.2,0.1,0.5,0.2,0.8,0.2c0.3,0,0.6-0.1,0.8-0.2c0.2-0.1,0.4-0.3,0.7-0.6l1.2,0.6c-0.3,0.5-0.6,0.8-1.1,1.1
			C490.9,151.5,490.3,151.7,489.7,151.7z M488.3,147.9h2.6c0-0.2-0.1-0.4-0.2-0.6s-0.3-0.3-0.5-0.4c-0.2-0.1-0.4-0.1-0.6-0.1
			c-0.2,0-0.5,0-0.7,0.1c-0.2,0.1-0.3,0.2-0.5,0.4C488.4,147.5,488.3,147.7,488.3,147.9z"/>
		<path class="st3" d="M494.1,151.5v-5.7h1.7v0.6c0.2-0.2,0.5-0.4,0.8-0.6c0.3-0.1,0.7-0.2,1.1-0.2c0.4,0,0.8,0.1,1.2,0.3
			c0.3,0.2,0.6,0.5,0.8,0.8c0.2,0.3,0.3,0.7,0.3,1.2v3.6h-1.7v-3.2c0-0.4-0.1-0.7-0.3-1c-0.2-0.2-0.5-0.3-0.9-0.3
			c-0.3,0-0.5,0.1-0.7,0.2c-0.2,0.1-0.3,0.2-0.4,0.4c-0.1,0.2-0.1,0.4-0.1,0.6v3.4H494.1z"/>
		<path class="st3" d="M503.3,148.6v-2.5c0.1,0,0.2,0,0.3,0s0.2,0,0.4,0c0.3,0,0.6,0,0.9-0.1c0.2-0.1,0.4-0.2,0.6-0.4
			c0.1-0.2,0.2-0.4,0.2-0.7c0-0.3-0.1-0.5-0.2-0.7c-0.1-0.2-0.3-0.3-0.5-0.4c-0.2-0.1-0.5-0.2-0.8-0.2c-0.4,0-0.8,0.1-1,0.3
			s-0.4,0.5-0.5,0.9l-1.4-0.3c0.1-0.5,0.3-0.9,0.5-1.3c0.3-0.4,0.6-0.6,1-0.8c0.4-0.2,0.9-0.3,1.4-0.3c0.6,0,1.1,0.1,1.6,0.4
			c0.5,0.3,0.8,0.6,1.1,1c0.3,0.4,0.4,0.9,0.4,1.4c0,0.4-0.1,0.9-0.3,1.2c-0.2,0.4-0.5,0.7-0.8,1c-0.3,0.3-0.7,0.4-1.2,0.5v1H503.3z
			 M504.1,151.7c-0.2,0-0.4-0.1-0.6-0.2c-0.2-0.1-0.3-0.2-0.4-0.4c-0.1-0.2-0.1-0.4-0.1-0.6c0-0.2,0-0.4,0.1-0.6
			c0.1-0.2,0.2-0.3,0.4-0.4c0.2-0.1,0.4-0.1,0.6-0.1c0.2,0,0.4,0,0.6,0.1c0.2,0.1,0.3,0.2,0.4,0.4c0.1,0.2,0.1,0.4,0.1,0.6
			c0,0.2,0,0.4-0.1,0.6c-0.1,0.2-0.2,0.3-0.4,0.4C504.5,151.6,504.3,151.7,504.1,151.7z"/>
	</g>
	<g>
		<path class="st4" d="M318,369.9l-19.8-5.5c-5.2-2-5.7,10.5-7.3,28.4c-1.6,17.9-1.1,28.9,3.1,31.3c0.5,0.3,0.9,0.4,1.4,0.4
			l22.6,6.7L318,369.9L318,369.9z"/>
		<path class="st5" d="M311,257.4c0,0-30.6,50.6,0,90.5c12,5.3,66.6,10.6,73.2,0c4-8,15.9-59.9,4.6-90.5
			C378.9,253.4,332.3,244.1,311,257.4z"/>
		<circle class="st6" cx="382" cy="290.3" r="3.7"/>
		<circle class="st6" cx="343.6" cy="292.4" r="3.7"/>
		<path class="st7" d="M352.8,331.2c6.8,7.2,18.9,6.9,26.9-0.7"/>
		<path class="st5" d="M339.9,353.2v14.5c0,0,2.6,5.7,8.5,5.7c6.1,0,8.5-5.6,8.5-5.6v-14L339.9,353.2z"/>
		<polygon class="st8" points="316.4,438.2 327.3,506 337,506 336.1,447.7 359.8,448.3 362.8,506 372,506 377,439.5 		"/>
		<polygon class="st6" points="326.9,506 326.9,510.4 343.4,510.4 336.9,506 		"/>
		<polygon class="st6" points="362.5,506 362.5,510.4 378.1,510.4 371.9,506 		"/>
		<path class="st5" d="M309.2,457.8c-2.1-2-3.4-6.3-4-11.8h12C319.3,461.3,312.6,461.1,309.2,457.8z"/>
		<path class="st5" d="M386.3,450.9c-0.6,3.2-2.2,6.7-4.8,6.7c-2.7,0-4.8-1.1-4.8-4.4c0-0.9-0.4-6.7-0.2-7.5l0.6-5.1h9.5
			C386.7,444.7,386.7,448.6,386.3,450.9z"/>
		<path class="st9" d="M386.6,440.6h-9.5c0,0-59.8-3-59.8,5.4h-12c-2.8-25.2,7-77.8,7-77.8L340,368l41.5,0.2l4.8,62.4
			C386.3,433.4,386.5,437.1,386.6,440.6z"/>
		<g>
			<path class="st10" d="M357,361h10.9c0,0,10.5,0.7,13.8,7.1l-24.6-0.3L357,361L357,361z"/>
			<path class="st6" d="M381.8,368.1v-0.3c-3.3-6.5-13.5-7.1-14-7.1h-11.2v7.6l25.1,0.3 M357.3,367.5v-6.1h10.5
				c0.1,0,9.7,0.8,13.2,6.4L357.3,367.5z"/>
		</g>
		<path class="st6" d="M317.3,446"/>
		<path class="st11" d="M297.6,364c0,0,11.8-3.6,42.4-2.9v6.9l-27.7,0.2L297.6,364z"/>
		<line class="st1" x1="305.2" y1="446" x2="297.6" y2="446"/>
		<line class="st7" x1="317.3" y1="446" x2="325.9" y2="391"/>
		<line class="st7" x1="369.2" y1="390.1" x2="377.1" y2="440.6"/>
		<line class="st1" x1="393.7" y1="440.6" x2="386.6" y2="440.6"/>
		<path class="st3" d="M285.6,339.8c-1.2-3.2-27.8-67-13.7-89.8c2.7-3.1,12.4-26.4,62.9-18.4c9.9,1.9,25.4,16.5,87.9,9.3
			c-6.7,3.8-30,17.3-30,17.3l2.6,9.2c0,0-50.9,7.6-72.6,3.4c-3,7.4-13.8,14.9-13.1,32.3c1.1,9.4,5.3,45.6,5.3,45.6s-8,16-21.3,6.1
			C290,351,285.6,339.8,285.6,339.8z"/>
	</g>
</g>
</svg>
