<?xml version="1.0" encoding="utf-8"?>
<!-- Generator: Adobe Illustrator 26.0.1, SVG Export Plug-In . SVG Version: 6.00 Build 0)  -->
<svg version="1.1" id="Ebene_1" xmlns="http://www.w3.org/2000/svg" xmlns:xlink="http://www.w3.org/1999/xlink" x="0px" y="0px"
	 viewBox="0 0 841.9 595.3" style="enable-background:new 0 0 841.9 595.3;" xml:space="preserve">
<style type="text/css">
	.st0{opacity:0.9;fill:#FFE267;enable-background:new    ;}
	.st1{fill:none;}
	.st2{enable-background:new    ;}
	.st3{fill:#020203;}
	.st4{fill:#335AA5;stroke:#1E1E1C;stroke-width:0.75;stroke-miterlimit:10;}
	.st5{opacity:0.9;fill:#FFE267;stroke:#020203;stroke-width:0.75;stroke-miterlimit:10;enable-background:new    ;}
	.st6{fill:#1E1E1C;}
	.st7{fill:none;stroke:#1E1E1C;stroke-width:0.75;stroke-miterlimit:10;}
	.st8{fill:#D94536;stroke:#1E1E1C;stroke-width:0.75;stroke-miterlimit:10;}
	.st9{fill:#232A51;stroke:#1E1E1C;stroke-width:0.75;stroke-miterlimit:10;}
	.st10{fill:#009CBF;}
	.st11{fill:#009CBF;stroke:#1E1E1C;stroke-width:0.75;stroke-miterlimit:10;}
</style>
<g>
	<path class="st0" d="M475.3,206.1c-76.1,0-137.7-32.4-137.7-72.4s61.6-72.4,137.7-72.4S613,93.8,613,133.7
		c0,31.8-38.9,58.7-93.1,68.4c0,0,0,76.1-57.8,79.4c-17.8-5.5,48.8-43.2,28.8-75.9C485.8,206,480.6,206.1,475.3,206.1z"/>
	<rect x="370.4" y="129.5" class="st1" width="212.8" height="49.7"/>
	<g class="st2">
		<path class="st3" d="M345.7,132.3l-3.6-12.3h2.7l2.3,9l2.6-9h1.8l2.6,9l2.3-9h2.7l-3.6,12.3H353l-2.3-7.7l-2.3,7.7H345.7z"/>
		<path class="st3" d="M362.1,123.1c-0.2,0-0.5-0.1-0.7-0.2c-0.2-0.1-0.4-0.3-0.5-0.5c-0.1-0.2-0.2-0.4-0.2-0.7
			c0-0.2,0.1-0.5,0.2-0.7c0.1-0.2,0.3-0.4,0.5-0.5c0.2-0.1,0.4-0.2,0.7-0.2c0.2,0,0.5,0.1,0.7,0.2c0.2,0.1,0.4,0.3,0.5,0.5
			c0.1,0.2,0.2,0.4,0.2,0.7c0,0.2-0.1,0.5-0.2,0.7c-0.1,0.2-0.3,0.4-0.5,0.5C362.5,123,362.3,123.1,362.1,123.1z M360.9,132.3v-7.7
			h2.3v7.7H360.9z"/>
		<path class="st3" d="M369.6,132.5c-0.8,0-1.6-0.2-2.2-0.5c-0.7-0.4-1.2-0.8-1.6-1.5c-0.4-0.6-0.6-1.3-0.6-2.1
			c0-0.6,0.1-1.1,0.3-1.6c0.2-0.5,0.5-0.9,0.9-1.3c0.4-0.4,0.8-0.7,1.4-0.9c0.5-0.2,1.1-0.3,1.7-0.3c0.8,0,1.5,0.2,2.1,0.5
			c0.6,0.3,1.1,0.8,1.4,1.4c0.3,0.6,0.5,1.3,0.5,2.1c0,0.1,0,0.1,0,0.2s0,0.1,0,0.3h-5.9c0,0.4,0.1,0.7,0.3,1
			c0.2,0.3,0.4,0.5,0.7,0.7c0.3,0.2,0.7,0.2,1.1,0.2c0.4,0,0.8-0.1,1.1-0.2c0.3-0.2,0.6-0.4,0.9-0.7l1.7,0.8
			c-0.4,0.6-0.9,1.1-1.5,1.5C371.1,132.4,370.4,132.5,369.6,132.5z M367.7,127.5h3.6c0-0.3-0.2-0.5-0.3-0.8
			c-0.2-0.2-0.4-0.4-0.6-0.5c-0.2-0.1-0.5-0.2-0.8-0.2c-0.3,0-0.6,0.1-0.9,0.2c-0.3,0.1-0.5,0.3-0.6,0.5
			C367.8,127,367.7,127.2,367.7,127.5z"/>
		<path class="st3" d="M379.9,132.3v-5.9h-1v-1.7h1v-1.9c0-0.7,0.1-1.3,0.3-1.9c0.2-0.5,0.5-0.9,1-1.2c0.4-0.3,0.9-0.4,1.5-0.4
			c0.4,0,0.7,0.1,1.1,0.2c0.4,0.1,0.7,0.3,0.9,0.5l-0.8,1.6c-0.2-0.1-0.5-0.2-0.8-0.2c-0.3,0-0.5,0.1-0.6,0.2
			c-0.1,0.1-0.2,0.3-0.3,0.5c0,0.2-0.1,0.5-0.1,0.8v1.8h1.8v1.7h-1.8v5.9H379.9z"/>
		<path class="st3" d="M389.5,132.5c-1.4,0-2.4-0.3-3-0.8c-0.6-0.6-0.9-1.5-0.9-2.7v-4.4h2.3v3.8c0,0.8,0.1,1.4,0.4,1.7
			c0.3,0.3,0.7,0.5,1.3,0.5c0.6,0,1-0.2,1.3-0.5c0.2-0.3,0.4-0.9,0.4-1.7v-3.8h2.3v4.4c0,1.3-0.3,2.2-0.9,2.7
			C391.9,132.3,390.9,132.5,389.5,132.5z M387.7,123.1c-0.3,0-0.6-0.1-0.9-0.4c-0.2-0.2-0.4-0.5-0.4-0.9c0-0.3,0.1-0.6,0.4-0.9
			c0.2-0.2,0.5-0.4,0.9-0.4c0.3,0,0.6,0.1,0.9,0.4c0.2,0.2,0.4,0.5,0.4,0.9c0,0.3-0.1,0.6-0.4,0.9
			C388.4,122.9,388.1,123.1,387.7,123.1z M391.3,123.1c-0.3,0-0.6-0.1-0.9-0.4c-0.2-0.2-0.4-0.5-0.4-0.9c0-0.3,0.1-0.6,0.4-0.9
			c0.2-0.2,0.5-0.4,0.9-0.4c0.3,0,0.6,0.1,0.9,0.4c0.2,0.2,0.4,0.5,0.4,0.9c0,0.3-0.1,0.6-0.4,0.9
			C391.9,122.9,391.6,123.1,391.3,123.1z"/>
		<path class="st3" d="M396,132.3v-12.9h2.3v6.1c0.3-0.3,0.7-0.6,1.1-0.8s0.9-0.3,1.5-0.3c0.6,0,1.1,0.1,1.6,0.4
			c0.4,0.3,0.8,0.6,1.1,1.1c0.3,0.5,0.4,1,0.4,1.6v4.8h-2.3v-4.4c0-0.5-0.1-1-0.4-1.3s-0.7-0.5-1.2-0.5c-0.3,0-0.6,0.1-0.9,0.2
			c-0.2,0.1-0.4,0.3-0.6,0.6c-0.1,0.2-0.2,0.5-0.2,0.8v4.5H396z"/>
		<path class="st3" d="M406.4,132.3v-12.9h2.3v12.9H406.4z"/>
		<path class="st3" d="M414,132.5c-0.8,0-1.4-0.2-1.8-0.7c-0.4-0.5-0.6-1.2-0.6-2v-3.4h-1v-1.7h1v-2.9h2.3v2.9h1.7v1.7h-1.7v3.2
			c0,0.3,0.1,0.5,0.2,0.7c0.1,0.1,0.3,0.2,0.5,0.2c0.2,0,0.5-0.1,0.7-0.2l0.6,1.8c-0.3,0.1-0.6,0.2-0.9,0.3
			C414.6,132.5,414.3,132.5,414,132.5z"/>
		<path class="st3" d="M425.5,132.5c-0.8,0-1.6-0.2-2.2-0.5c-0.7-0.4-1.2-0.8-1.6-1.5c-0.4-0.6-0.6-1.3-0.6-2.1
			c0-0.6,0.1-1.1,0.3-1.6c0.2-0.5,0.5-0.9,0.9-1.3c0.4-0.4,0.8-0.7,1.4-0.9c0.5-0.2,1.1-0.3,1.7-0.3c0.8,0,1.5,0.2,2.1,0.5
			c0.6,0.3,1.1,0.8,1.4,1.4c0.3,0.6,0.5,1.3,0.5,2.1c0,0.1,0,0.1,0,0.2s0,0.1,0,0.3h-5.9c0,0.4,0.1,0.7,0.3,1
			c0.2,0.3,0.4,0.5,0.7,0.7c0.3,0.2,0.7,0.2,1.1,0.2c0.4,0,0.8-0.1,1.1-0.2c0.3-0.2,0.6-0.4,0.9-0.7l1.7,0.8
			c-0.4,0.6-0.9,1.1-1.5,1.5C427.1,132.4,426.3,132.5,425.5,132.5z M423.6,127.5h3.6c0-0.3-0.2-0.5-0.3-0.8
			c-0.2-0.2-0.4-0.4-0.6-0.5c-0.2-0.1-0.5-0.2-0.8-0.2c-0.3,0-0.6,0.1-0.9,0.2c-0.3,0.1-0.5,0.3-0.6,0.5
			C423.7,127,423.6,127.2,423.6,127.5z"/>
		<path class="st3" d="M433.6,132.5c-0.6,0-1.2-0.1-1.7-0.3c-0.5-0.2-0.9-0.5-1.3-0.9l1-1.5c0.3,0.3,0.7,0.6,1,0.8
			c0.3,0.2,0.7,0.3,1,0.3c0.2,0,0.4,0,0.5-0.1c0.1-0.1,0.3-0.2,0.3-0.3c0.1-0.1,0.1-0.3,0.1-0.4c0-0.2-0.1-0.4-0.2-0.5
			c-0.1-0.1-0.3-0.2-0.5-0.3c-0.2-0.1-0.5-0.2-0.9-0.4c-0.3-0.1-0.6-0.3-0.9-0.4c-0.3-0.2-0.5-0.4-0.7-0.6s-0.3-0.6-0.3-1
			c0-0.5,0.1-0.9,0.4-1.3c0.3-0.4,0.6-0.6,1.1-0.8s1-0.3,1.6-0.3c0.4,0,0.8,0.1,1.2,0.2c0.4,0.1,0.9,0.3,1.3,0.5l-0.8,1.5
			c-0.6-0.4-1.2-0.6-1.7-0.6c-0.3,0-0.5,0.1-0.7,0.2c-0.2,0.1-0.3,0.3-0.3,0.5c0,0.2,0.1,0.3,0.3,0.5c0.2,0.1,0.4,0.2,0.7,0.4
			c0.3,0.1,0.5,0.2,0.7,0.3c0.4,0.1,0.7,0.3,1,0.5c0.3,0.2,0.5,0.4,0.7,0.7c0.2,0.3,0.3,0.6,0.3,1.1c0,0.6-0.1,1-0.4,1.4
			c-0.3,0.4-0.7,0.7-1.2,0.9C434.9,132.4,434.3,132.5,433.6,132.5z"/>
		<path class="st3" d="M445.3,132.5c-0.6,0-1.2-0.1-1.7-0.3c-0.5-0.2-0.9-0.5-1.3-0.9l1-1.5c0.3,0.3,0.7,0.6,1,0.8
			c0.3,0.2,0.7,0.3,1,0.3c0.2,0,0.4,0,0.5-0.1c0.1-0.1,0.3-0.2,0.3-0.3c0.1-0.1,0.1-0.3,0.1-0.4c0-0.2-0.1-0.4-0.2-0.5
			c-0.1-0.1-0.3-0.2-0.5-0.3c-0.2-0.1-0.5-0.2-0.9-0.4c-0.3-0.1-0.6-0.3-0.9-0.4c-0.3-0.2-0.5-0.4-0.7-0.6s-0.3-0.6-0.3-1
			c0-0.5,0.1-0.9,0.4-1.3c0.3-0.4,0.6-0.6,1.1-0.8s1-0.3,1.6-0.3c0.4,0,0.8,0.1,1.2,0.2c0.4,0.1,0.9,0.3,1.3,0.5l-0.8,1.5
			c-0.6-0.4-1.2-0.6-1.7-0.6c-0.3,0-0.5,0.1-0.7,0.2c-0.2,0.1-0.3,0.3-0.3,0.5c0,0.2,0.1,0.3,0.3,0.5c0.2,0.1,0.4,0.2,0.7,0.4
			c0.3,0.1,0.5,0.2,0.7,0.3c0.4,0.1,0.7,0.3,1,0.5c0.3,0.2,0.5,0.4,0.7,0.7c0.2,0.3,0.3,0.6,0.3,1.1c0,0.6-0.1,1-0.4,1.4
			c-0.3,0.4-0.7,0.7-1.2,0.9C446.6,132.4,446,132.5,445.3,132.5z"/>
		<path class="st3" d="M451.9,123.1c-0.2,0-0.5-0.1-0.7-0.2c-0.2-0.1-0.4-0.3-0.5-0.5c-0.1-0.2-0.2-0.4-0.2-0.7
			c0-0.2,0.1-0.5,0.2-0.7c0.1-0.2,0.3-0.4,0.5-0.5s0.4-0.2,0.7-0.2s0.5,0.1,0.7,0.2c0.2,0.1,0.4,0.3,0.5,0.5
			c0.1,0.2,0.2,0.4,0.2,0.7c0,0.2-0.1,0.5-0.2,0.7c-0.1,0.2-0.3,0.4-0.5,0.5C452.4,123,452.2,123.1,451.9,123.1z M450.8,132.3v-7.7
			h2.3v7.7H450.8z"/>
		<path class="st3" d="M459.4,132.5c-0.6,0-1.1-0.1-1.6-0.3c-0.5-0.2-1-0.5-1.4-0.9c-0.4-0.4-0.7-0.8-0.9-1.3
			c-0.2-0.5-0.3-1-0.3-1.6c0-0.5,0.1-1.1,0.3-1.5c0.2-0.5,0.5-0.9,0.9-1.3c0.4-0.4,0.8-0.7,1.4-0.9c0.5-0.2,1.1-0.3,1.7-0.3
			c0.5,0,1,0.1,1.4,0.2c0.5,0.1,0.8,0.3,1.1,0.5l-0.8,1.5c-0.4-0.3-0.8-0.4-1.4-0.4c-0.5,0-0.9,0.1-1.2,0.3
			c-0.3,0.2-0.6,0.5-0.8,0.8c-0.2,0.3-0.3,0.7-0.3,1.1c0,0.4,0.1,0.8,0.3,1.1c0.2,0.3,0.4,0.6,0.8,0.8c0.3,0.2,0.7,0.3,1.2,0.3
			c0.3,0,0.5,0,0.8-0.1c0.2-0.1,0.4-0.2,0.6-0.3l0.8,1.5c-0.3,0.2-0.7,0.4-1.1,0.5C460.3,132.5,459.9,132.5,459.4,132.5z"/>
		<path class="st3" d="M463.7,132.3v-12.9h2.3v6.1c0.3-0.3,0.7-0.6,1.1-0.8c0.4-0.2,0.9-0.3,1.5-0.3c0.6,0,1.1,0.1,1.6,0.4
			c0.4,0.3,0.8,0.6,1.1,1.1c0.3,0.5,0.4,1,0.4,1.6v4.8h-2.3v-4.4c0-0.5-0.1-1-0.4-1.3c-0.3-0.3-0.7-0.5-1.2-0.5
			c-0.3,0-0.6,0.1-0.9,0.2c-0.2,0.1-0.4,0.3-0.6,0.6c-0.1,0.2-0.2,0.5-0.2,0.8v4.5H463.7z"/>
		<path class="st3" d="M481.4,132.5c-0.7,0-1.3-0.2-1.9-0.5c-0.6-0.4-1-0.8-1.4-1.4c-0.3-0.6-0.5-1.3-0.5-2.1c0-0.8,0.2-1.5,0.5-2.1
			s0.8-1.1,1.3-1.5c0.6-0.4,1.2-0.5,2-0.5c0.5,0,1.1,0.1,1.5,0.3c0.5,0.2,0.9,0.5,1.2,0.9v-0.9h2.3v7.7H484v-1
			c-0.3,0.4-0.7,0.7-1.2,0.9S481.9,132.5,481.4,132.5z M482,130.6c0.4,0,0.8-0.1,1.1-0.3c0.3-0.2,0.6-0.4,0.7-0.8
			c0.2-0.3,0.3-0.7,0.3-1.1c0-0.4-0.1-0.8-0.3-1.1c-0.2-0.3-0.4-0.6-0.7-0.7c-0.3-0.2-0.7-0.3-1.1-0.3c-0.4,0-0.7,0.1-1.1,0.3
			c-0.3,0.2-0.6,0.4-0.7,0.8c-0.2,0.3-0.3,0.7-0.3,1.1s0.1,0.8,0.3,1.1c0.2,0.3,0.4,0.6,0.7,0.8C481.3,130.5,481.6,130.6,482,130.6z
			"/>
		<path class="st3" d="M489,132.3v-7.7h2.3v0.9c0.3-0.3,0.7-0.6,1.1-0.8c0.4-0.2,0.9-0.3,1.5-0.3c0.6,0,1.1,0.1,1.6,0.4
			c0.4,0.3,0.8,0.6,1.1,1.1s0.4,1,0.4,1.6v4.8h-2.3v-4.4c0-0.5-0.1-1-0.4-1.3c-0.3-0.3-0.7-0.5-1.2-0.5c-0.3,0-0.6,0.1-0.9,0.2
			c-0.2,0.1-0.4,0.3-0.6,0.6c-0.1,0.2-0.2,0.5-0.2,0.8v4.5H489z"/>
		<path class="st3" d="M504.7,132.3l-3.6-12.3h2.7l2.3,9l2.6-9h1.8l2.6,9l2.3-9h2.7l-3.6,12.3H512l-2.3-7.7l-2.3,7.7H504.7z"/>
		<path class="st3" d="M521.1,123.1c-0.2,0-0.5-0.1-0.7-0.2c-0.2-0.1-0.4-0.3-0.5-0.5c-0.1-0.2-0.2-0.4-0.2-0.7
			c0-0.2,0.1-0.5,0.2-0.7c0.1-0.2,0.3-0.4,0.5-0.5c0.2-0.1,0.4-0.2,0.7-0.2c0.2,0,0.5,0.1,0.7,0.2c0.2,0.1,0.4,0.3,0.5,0.5
			c0.1,0.2,0.2,0.4,0.2,0.7c0,0.2-0.1,0.5-0.2,0.7c-0.1,0.2-0.3,0.4-0.5,0.5C521.6,123,521.4,123.1,521.1,123.1z M520,132.3v-7.7
			h2.3v7.7H520z"/>
		<path class="st3" d="M525,132.3v-7.7h2.3v1.1c0.3-0.4,0.6-0.8,1-1c0.4-0.2,0.9-0.3,1.3-0.3c0.3,0,0.5,0,0.8,0.1
			c0.3,0.1,0.5,0.2,0.7,0.3l-1,1.9c-0.2-0.1-0.4-0.2-0.6-0.3c-0.2-0.1-0.4-0.1-0.6-0.1c-0.3,0-0.6,0.1-0.9,0.2s-0.5,0.4-0.7,0.6
			c-0.2,0.2-0.2,0.5-0.2,0.8v4.3H525z"/>
		<path class="st3" d="M535.1,132.5c-0.8,0-1.4-0.2-1.8-0.7c-0.4-0.5-0.6-1.2-0.6-2v-3.4h-1v-1.7h1v-2.9h2.3v2.9h1.7v1.7H535v3.2
			c0,0.3,0.1,0.5,0.2,0.7s0.3,0.2,0.5,0.2c0.2,0,0.5-0.1,0.7-0.2l0.6,1.8c-0.3,0.1-0.5,0.2-0.9,0.3
			C535.7,132.5,535.4,132.5,535.1,132.5z"/>
		<path class="st3" d="M541.1,132.5c-0.6,0-1.2-0.1-1.7-0.3s-0.9-0.5-1.3-0.9l1-1.5c0.3,0.3,0.7,0.6,1,0.8c0.3,0.2,0.7,0.3,1,0.3
			c0.2,0,0.4,0,0.5-0.1c0.1-0.1,0.3-0.2,0.3-0.3c0.1-0.1,0.1-0.3,0.1-0.4c0-0.2-0.1-0.4-0.2-0.5c-0.1-0.1-0.3-0.2-0.5-0.3
			s-0.5-0.2-0.9-0.4c-0.3-0.1-0.6-0.3-0.9-0.4c-0.3-0.2-0.5-0.4-0.7-0.6c-0.2-0.3-0.3-0.6-0.3-1c0-0.5,0.1-0.9,0.4-1.3
			c0.3-0.4,0.6-0.6,1.1-0.8s1-0.3,1.6-0.3c0.4,0,0.8,0.1,1.2,0.2c0.4,0.1,0.9,0.3,1.3,0.5l-0.8,1.5c-0.6-0.4-1.2-0.6-1.7-0.6
			c-0.3,0-0.5,0.1-0.7,0.2c-0.2,0.1-0.3,0.3-0.3,0.5c0,0.2,0.1,0.3,0.3,0.5c0.2,0.1,0.4,0.2,0.7,0.4c0.3,0.1,0.5,0.2,0.7,0.3
			c0.4,0.1,0.7,0.3,1,0.5c0.3,0.2,0.5,0.4,0.7,0.7c0.2,0.3,0.3,0.6,0.3,1.1c0,0.6-0.1,1-0.4,1.4c-0.3,0.4-0.7,0.7-1.2,0.9
			C542.4,132.4,541.8,132.5,541.1,132.5z"/>
		<path class="st3" d="M550.1,132.5c-0.6,0-1.1-0.1-1.6-0.3c-0.5-0.2-1-0.5-1.4-0.9c-0.4-0.4-0.7-0.8-0.9-1.3
			c-0.2-0.5-0.3-1-0.3-1.6c0-0.5,0.1-1.1,0.3-1.5c0.2-0.5,0.5-0.9,0.9-1.3c0.4-0.4,0.8-0.7,1.4-0.9c0.5-0.2,1.1-0.3,1.7-0.3
			c0.5,0,1,0.1,1.4,0.2c0.5,0.1,0.8,0.3,1.1,0.5l-0.8,1.5c-0.4-0.3-0.8-0.4-1.4-0.4c-0.5,0-0.9,0.1-1.2,0.3
			c-0.3,0.2-0.6,0.5-0.8,0.8c-0.2,0.3-0.3,0.7-0.3,1.1c0,0.4,0.1,0.8,0.3,1.1c0.2,0.3,0.4,0.6,0.8,0.8c0.3,0.2,0.7,0.3,1.2,0.3
			c0.3,0,0.5,0,0.8-0.1c0.2-0.1,0.4-0.2,0.6-0.3l0.8,1.5c-0.3,0.2-0.7,0.4-1.1,0.5C551.1,132.5,550.6,132.5,550.1,132.5z"/>
		<path class="st3" d="M554.5,132.3v-12.9h2.3v6.1c0.3-0.3,0.7-0.6,1.1-0.8c0.4-0.2,0.9-0.3,1.5-0.3c0.6,0,1.1,0.1,1.6,0.4
			c0.4,0.3,0.8,0.6,1.1,1.1c0.3,0.5,0.4,1,0.4,1.6v4.8h-2.3v-4.4c0-0.5-0.1-1-0.4-1.3c-0.3-0.3-0.7-0.5-1.2-0.5
			c-0.3,0-0.6,0.1-0.9,0.2c-0.2,0.1-0.4,0.3-0.6,0.6c-0.1,0.2-0.2,0.5-0.2,0.8v4.5H554.5z"/>
		<path class="st3" d="M568.1,132.5c-0.7,0-1.3-0.2-1.9-0.5c-0.6-0.4-1-0.8-1.4-1.4c-0.3-0.6-0.5-1.3-0.5-2.1c0-0.8,0.2-1.5,0.5-2.1
			c0.3-0.6,0.8-1.1,1.3-1.5c0.6-0.4,1.2-0.5,2-0.5c0.5,0,1.1,0.1,1.5,0.3c0.5,0.2,0.9,0.5,1.2,0.9v-0.9h2.3v7.7h-2.3v-1
			c-0.3,0.4-0.8,0.7-1.2,0.9C569.1,132.4,568.6,132.5,568.1,132.5z M568.8,130.6c0.4,0,0.8-0.1,1.1-0.3c0.3-0.2,0.6-0.4,0.7-0.8
			c0.2-0.3,0.3-0.7,0.3-1.1c0-0.4-0.1-0.8-0.3-1.1c-0.2-0.3-0.4-0.6-0.7-0.7c-0.3-0.2-0.7-0.3-1.1-0.3c-0.4,0-0.7,0.1-1.1,0.3
			c-0.3,0.2-0.6,0.4-0.7,0.8c-0.2,0.3-0.3,0.7-0.3,1.1s0.1,0.8,0.3,1.1c0.2,0.3,0.4,0.6,0.7,0.8C568,130.5,568.4,130.6,568.8,130.6z
			"/>
		<path class="st3" d="M576,132.3v-5.9h-1v-1.7h1v-1.9c0-0.7,0.1-1.3,0.3-1.9c0.2-0.5,0.6-0.9,1-1.2c0.4-0.3,0.9-0.4,1.5-0.4
			c0.4,0,0.7,0.1,1.1,0.2c0.4,0.1,0.7,0.3,0.9,0.5l-0.8,1.6c-0.2-0.1-0.5-0.2-0.8-0.2c-0.3,0-0.5,0.1-0.6,0.2
			c-0.1,0.1-0.2,0.3-0.3,0.5c0,0.2-0.1,0.5-0.1,0.8v1.8h1.8v1.7h-1.8v5.9H576z"/>
		<path class="st3" d="M584.5,132.5c-0.8,0-1.4-0.2-1.8-0.7c-0.4-0.5-0.6-1.2-0.6-2v-3.4h-1v-1.7h1v-2.9h2.3v2.9h1.7v1.7h-1.7v3.2
			c0,0.3,0.1,0.5,0.2,0.7s0.3,0.2,0.5,0.2c0.2,0,0.5-0.1,0.7-0.2l0.6,1.8c-0.3,0.1-0.5,0.2-0.9,0.3
			C585.1,132.5,584.8,132.5,584.5,132.5z"/>
		<path class="st3" d="M591.3,132.3l4.2-5.9h-3.6v-1.7h7.5l-4.2,5.9h4v1.8H591.3z"/>
		<path class="st3" d="M604.9,132.5c-1.4,0-2.4-0.3-3-0.8c-0.6-0.6-0.9-1.5-0.9-2.7v-4.4h2.3v3.8c0,0.8,0.1,1.4,0.4,1.7
			c0.3,0.3,0.7,0.5,1.3,0.5c0.6,0,1-0.2,1.3-0.5c0.2-0.3,0.4-0.9,0.4-1.7v-3.8h2.3v4.4c0,1.3-0.3,2.2-0.9,2.7
			C607.4,132.3,606.3,132.5,604.9,132.5z"/>
		<path class="st3" d="M436.3,150.5c-0.6,0-1.2-0.1-1.7-0.3s-0.9-0.5-1.3-0.9l1-1.5c0.3,0.3,0.7,0.6,1,0.8c0.3,0.2,0.7,0.3,1,0.3
			c0.2,0,0.4,0,0.5-0.1c0.1-0.1,0.3-0.2,0.3-0.3c0.1-0.1,0.1-0.3,0.1-0.4c0-0.2-0.1-0.4-0.2-0.5c-0.1-0.1-0.3-0.2-0.5-0.3
			c-0.2-0.1-0.5-0.2-0.9-0.4c-0.3-0.1-0.6-0.3-0.9-0.4c-0.3-0.2-0.5-0.4-0.7-0.6c-0.2-0.3-0.3-0.6-0.3-1c0-0.5,0.1-0.9,0.4-1.3
			c0.3-0.4,0.6-0.6,1.1-0.8c0.5-0.2,1-0.3,1.6-0.3c0.4,0,0.8,0.1,1.2,0.2c0.4,0.1,0.9,0.3,1.3,0.5l-0.8,1.5
			c-0.6-0.4-1.2-0.6-1.7-0.6c-0.3,0-0.5,0.1-0.7,0.2c-0.2,0.1-0.3,0.3-0.3,0.5c0,0.2,0.1,0.3,0.3,0.5c0.2,0.1,0.4,0.2,0.7,0.4
			c0.3,0.1,0.5,0.2,0.7,0.3c0.4,0.1,0.7,0.3,1,0.5c0.3,0.2,0.5,0.4,0.7,0.7c0.2,0.3,0.3,0.6,0.3,1.1c0,0.6-0.1,1-0.4,1.4
			c-0.3,0.4-0.7,0.7-1.2,0.9C437.6,150.4,437,150.5,436.3,150.5z"/>
		<path class="st3" d="M444.3,150.5c-0.8,0-1.4-0.2-1.8-0.7c-0.4-0.5-0.6-1.2-0.6-2v-3.4h-1v-1.7h1v-2.9h2.3v2.9h1.7v1.7h-1.7v3.2
			c0,0.3,0.1,0.5,0.2,0.7c0.1,0.1,0.3,0.2,0.5,0.2c0.2,0,0.5-0.1,0.7-0.2l0.6,1.8c-0.3,0.1-0.6,0.2-0.9,0.3
			C445,150.5,444.6,150.5,444.3,150.5z"/>
		<path class="st3" d="M451.9,150.5c-1.4,0-2.4-0.3-3-0.8c-0.6-0.6-0.9-1.5-0.9-2.7v-4.4h2.3v3.8c0,0.8,0.1,1.4,0.4,1.7
			c0.3,0.3,0.7,0.5,1.3,0.5c0.6,0,1-0.2,1.3-0.5s0.4-0.9,0.4-1.7v-3.8h2.3v4.4c0,1.3-0.3,2.2-0.9,2.7
			C454.3,150.2,453.3,150.5,451.9,150.5z"/>
		<path class="st3" d="M461.5,150.5c-0.7,0-1.3-0.2-1.9-0.5c-0.6-0.3-1-0.8-1.4-1.4c-0.3-0.6-0.5-1.3-0.5-2.1c0-0.8,0.2-1.5,0.5-2.1
			c0.3-0.6,0.8-1.1,1.4-1.5c0.6-0.4,1.2-0.5,2-0.5c0.5,0,1,0.1,1.5,0.3c0.5,0.2,0.8,0.5,1.1,0.9v-6.1h2.3v12.9h-2.3v-1
			c-0.3,0.4-0.7,0.7-1.2,0.9C462.6,150.4,462.1,150.5,461.5,150.5z M462.2,148.5c0.4,0,0.8-0.1,1.1-0.3c0.3-0.2,0.6-0.4,0.7-0.8
			c0.2-0.3,0.3-0.7,0.3-1.1c0-0.4-0.1-0.8-0.3-1.1c-0.2-0.3-0.4-0.6-0.7-0.8c-0.3-0.2-0.7-0.3-1.1-0.3c-0.4,0-0.7,0.1-1.1,0.3
			c-0.3,0.2-0.6,0.4-0.7,0.8c-0.2,0.3-0.3,0.7-0.3,1.1c0,0.4,0.1,0.8,0.3,1.1c0.2,0.3,0.4,0.6,0.7,0.7
			C461.5,148.5,461.8,148.5,462.2,148.5z"/>
		<path class="st3" d="M470.4,141c-0.2,0-0.5-0.1-0.7-0.2c-0.2-0.1-0.4-0.3-0.5-0.5c-0.1-0.2-0.2-0.4-0.2-0.7c0-0.2,0.1-0.5,0.2-0.7
			c0.1-0.2,0.3-0.4,0.5-0.5c0.2-0.1,0.4-0.2,0.7-0.2c0.2,0,0.5,0.1,0.7,0.2c0.2,0.1,0.4,0.3,0.5,0.5c0.1,0.2,0.2,0.4,0.2,0.7
			c0,0.2-0.1,0.5-0.2,0.7c-0.1,0.2-0.3,0.4-0.5,0.5C470.8,140.9,470.6,141,470.4,141z M469.2,150.3v-7.7h2.3v7.7H469.2z"/>
		<path class="st3" d="M477.9,150.5c-0.8,0-1.6-0.2-2.2-0.5c-0.7-0.4-1.2-0.8-1.6-1.5c-0.4-0.6-0.6-1.3-0.6-2.1
			c0-0.6,0.1-1.1,0.3-1.6c0.2-0.5,0.5-0.9,0.9-1.3c0.4-0.4,0.8-0.7,1.4-0.9c0.5-0.2,1.1-0.3,1.7-0.3c0.8,0,1.5,0.2,2.1,0.5
			c0.6,0.3,1.1,0.8,1.4,1.4c0.3,0.6,0.5,1.3,0.5,2.1c0,0.1,0,0.1,0,0.2c0,0,0,0.1,0,0.3h-5.9c0,0.4,0.1,0.7,0.3,1
			c0.2,0.3,0.4,0.5,0.7,0.7c0.3,0.2,0.7,0.2,1.1,0.2c0.4,0,0.8-0.1,1.1-0.2c0.3-0.2,0.6-0.4,0.9-0.7l1.7,0.8
			c-0.4,0.6-0.9,1.1-1.5,1.5C479.4,150.3,478.7,150.5,477.9,150.5z M476,145.5h3.6c0-0.3-0.2-0.5-0.3-0.8c-0.2-0.2-0.4-0.4-0.6-0.5
			c-0.2-0.1-0.5-0.2-0.8-0.2c-0.3,0-0.6,0.1-0.9,0.2c-0.3,0.1-0.5,0.3-0.6,0.5C476.1,144.9,476,145.2,476,145.5z"/>
		<path class="st3" d="M483.8,150.3v-7.7h2.3v1.1c0.3-0.4,0.6-0.8,1-1c0.4-0.2,0.9-0.3,1.3-0.3c0.3,0,0.5,0,0.8,0.1
			c0.3,0.1,0.5,0.2,0.7,0.3l-1,1.9c-0.2-0.1-0.4-0.2-0.6-0.3c-0.2-0.1-0.4-0.1-0.6-0.1c-0.3,0-0.6,0.1-0.9,0.2
			c-0.3,0.2-0.5,0.4-0.7,0.6c-0.2,0.2-0.2,0.5-0.2,0.8v4.3H483.8z"/>
		<path class="st3" d="M494.9,150.5c-0.8,0-1.6-0.2-2.2-0.5c-0.7-0.4-1.2-0.8-1.6-1.5c-0.4-0.6-0.6-1.3-0.6-2.1
			c0-0.6,0.1-1.1,0.3-1.6c0.2-0.5,0.5-0.9,0.9-1.3c0.4-0.4,0.8-0.7,1.4-0.9c0.5-0.2,1.1-0.3,1.7-0.3c0.8,0,1.5,0.2,2.1,0.5
			c0.6,0.3,1.1,0.8,1.4,1.4c0.3,0.6,0.5,1.3,0.5,2.1c0,0.1,0,0.1,0,0.2c0,0,0,0.1,0,0.3h-5.9c0,0.4,0.1,0.7,0.3,1
			c0.2,0.3,0.4,0.5,0.7,0.7c0.3,0.2,0.7,0.2,1.1,0.2c0.4,0,0.8-0.1,1.1-0.2c0.3-0.2,0.6-0.4,0.9-0.7l1.7,0.8
			c-0.4,0.6-0.9,1.1-1.5,1.5C496.5,150.3,495.7,150.5,494.9,150.5z M493,145.5h3.6c0-0.3-0.2-0.5-0.3-0.8c-0.2-0.2-0.4-0.4-0.6-0.5
			c-0.2-0.1-0.5-0.2-0.8-0.2c-0.3,0-0.6,0.1-0.9,0.2c-0.3,0.1-0.5,0.3-0.6,0.5C493.2,144.9,493.1,145.2,493,145.5z"/>
		<path class="st3" d="M500.9,150.3v-7.7h2.3v0.9c0.3-0.3,0.7-0.6,1.1-0.8c0.4-0.2,0.9-0.3,1.5-0.3c0.6,0,1.1,0.1,1.6,0.4
			c0.4,0.3,0.8,0.6,1.1,1.1c0.3,0.5,0.4,1,0.4,1.6v4.8h-2.3v-4.4c0-0.5-0.1-1-0.4-1.3c-0.3-0.3-0.7-0.5-1.2-0.5
			c-0.3,0-0.6,0.1-0.9,0.2c-0.2,0.1-0.4,0.3-0.6,0.6c-0.1,0.2-0.2,0.5-0.2,0.8v4.5H500.9z"/>
		<path class="st3" d="M513.2,146.4V143c0.1,0,0.2,0,0.4,0.1c0.2,0,0.3,0,0.5,0c0.4,0,0.8-0.1,1.1-0.2c0.3-0.1,0.6-0.3,0.7-0.6
			c0.2-0.3,0.3-0.6,0.3-0.9c0-0.3-0.1-0.7-0.2-0.9c-0.2-0.3-0.4-0.4-0.7-0.6c-0.3-0.1-0.6-0.2-1.1-0.2c-0.6,0-1,0.1-1.4,0.4
			s-0.6,0.7-0.7,1.2l-1.9-0.4c0.1-0.7,0.4-1.2,0.7-1.7c0.4-0.5,0.8-0.8,1.4-1.1c0.6-0.3,1.2-0.4,1.8-0.4c0.8,0,1.5,0.2,2.1,0.5
			c0.6,0.3,1.1,0.8,1.4,1.4c0.4,0.6,0.5,1.2,0.5,1.9c0,0.6-0.1,1.2-0.4,1.7c-0.3,0.5-0.6,0.9-1.1,1.3c-0.5,0.3-1,0.6-1.6,0.7v1.4
			H513.2z M514.2,150.5c-0.3,0-0.5-0.1-0.8-0.2c-0.2-0.1-0.4-0.3-0.5-0.5c-0.1-0.2-0.2-0.5-0.2-0.8c0-0.3,0.1-0.5,0.2-0.8
			c0.1-0.2,0.3-0.4,0.5-0.5c0.2-0.1,0.5-0.2,0.8-0.2c0.3,0,0.5,0.1,0.8,0.2c0.2,0.1,0.4,0.3,0.5,0.5c0.1,0.2,0.2,0.5,0.2,0.8
			c0,0.3-0.1,0.5-0.2,0.8c-0.1,0.2-0.3,0.4-0.5,0.5C514.7,150.4,514.5,150.5,514.2,150.5z"/>
	</g>
	<g>
		<path class="st4" d="M318,369.9l-19.8-5.5c-5.2-2-5.7,10.5-7.3,28.4c-1.6,17.9-1.1,28.9,3.1,31.3c0.5,0.3,0.9,0.4,1.4,0.4
			l22.6,6.7L318,369.9L318,369.9z"/>
		<path class="st5" d="M311,257.4c0,0-30.6,50.6,0,90.5c12,5.3,66.6,10.6,73.2,0c4-8,15.9-59.9,4.6-90.5
			C378.9,253.4,332.3,244.1,311,257.4z"/>
		<circle class="st6" cx="382" cy="290.3" r="3.7"/>
		<circle class="st6" cx="343.6" cy="292.4" r="3.7"/>
		<path class="st7" d="M352.8,331.2c6.8,7.2,18.9,6.9,26.9-0.7"/>
		<path class="st5" d="M339.9,353.2v14.5c0,0,2.6,5.7,8.5,5.7c6.1,0,8.5-5.6,8.5-5.6v-14L339.9,353.2z"/>
		<polygon class="st8" points="316.4,438.2 327.3,506 337,506 336.1,447.7 359.8,448.3 362.8,506 372,506 377,439.5 		"/>
		<polygon class="st6" points="326.9,506 326.9,510.4 343.4,510.4 336.9,506 		"/>
		<polygon class="st6" points="362.5,506 362.5,510.4 378.1,510.4 371.9,506 		"/>
		<path class="st5" d="M309.2,457.8c-2.1-2-3.4-6.3-4-11.8h12C319.3,461.3,312.6,461.1,309.2,457.8z"/>
		<path class="st5" d="M386.3,450.9c-0.6,3.2-2.2,6.7-4.8,6.7c-2.7,0-4.8-1.1-4.8-4.4c0-0.9-0.4-6.7-0.2-7.5l0.6-5.1h9.5
			C386.7,444.7,386.7,448.6,386.3,450.9z"/>
		<path class="st9" d="M386.6,440.6h-9.5c0,0-59.8-3-59.8,5.4h-12c-2.8-25.2,7-77.8,7-77.8L340,368l41.5,0.2l4.8,62.4
			C386.3,433.4,386.5,437.1,386.6,440.6z"/>
		<g>
			<path class="st10" d="M357,361h10.9c0,0,10.5,0.7,13.8,7.1l-24.6-0.3L357,361L357,361z"/>
			<path class="st6" d="M381.8,368.1v-0.3c-3.3-6.5-13.5-7.1-14-7.1h-11.2v7.6l25.1,0.3 M357.3,367.5v-6.1h10.5
				c0.1,0,9.7,0.8,13.2,6.4L357.3,367.5z"/>
		</g>
		<path class="st6" d="M317.3,446"/>
		<path class="st11" d="M297.6,364c0,0,11.8-3.6,42.4-2.9v6.9l-27.7,0.2L297.6,364z"/>
		<line class="st1" x1="305.2" y1="446" x2="297.6" y2="446"/>
		<line class="st7" x1="317.3" y1="446" x2="325.9" y2="391"/>
		<line class="st7" x1="369.2" y1="390.1" x2="377.1" y2="440.6"/>
		<line class="st1" x1="393.7" y1="440.6" x2="386.6" y2="440.6"/>
		<path class="st3" d="M285.6,339.8c-1.2-3.2-27.8-67-13.7-89.8c2.7-3.1,12.4-26.4,62.9-18.4c9.9,1.9,25.4,16.5,87.9,9.3
			c-6.7,3.8-30,17.3-30,17.3l2.6,9.2c0,0-50.9,7.6-72.6,3.4c-3,7.4-13.8,14.9-13.1,32.3c1.1,9.4,5.3,45.6,5.3,45.6s-8,16-21.3,6.1
			C290,351,285.6,339.8,285.6,339.8z"/>
	</g>
</g>
</svg>
