<?xml version="1.0" encoding="utf-8"?>
<!-- Generator: Adobe Illustrator 26.0.1, SVG Export Plug-In . SVG Version: 6.00 Build 0)  -->
<svg version="1.1" id="Ebene_1" xmlns="http://www.w3.org/2000/svg" xmlns:xlink="http://www.w3.org/1999/xlink" x="0px" y="0px"
	 viewBox="0 0 841.9 595.3" style="enable-background:new 0 0 841.9 595.3;" xml:space="preserve">
<style type="text/css">
	.st0{opacity:0.9;fill:#FFE267;enable-background:new    ;}
	.st1{enable-background:new    ;}
	.st2{fill:#020203;}
	.st3{fill:#335AA5;stroke:#1E1E1C;stroke-width:0.75;stroke-miterlimit:10;}
	.st4{opacity:0.9;fill:#FFE267;stroke:#020203;stroke-width:0.75;stroke-miterlimit:10;enable-background:new    ;}
	.st5{fill:#1E1E1C;}
	.st6{fill:none;stroke:#1E1E1C;stroke-width:0.75;stroke-miterlimit:10;}
	.st7{fill:#D94536;stroke:#1E1E1C;stroke-width:0.75;stroke-miterlimit:10;}
	.st8{fill:#232A51;stroke:#1E1E1C;stroke-width:0.75;stroke-miterlimit:10;}
	.st9{fill:#009CBF;}
	.st10{fill:#009CBF;stroke:#1E1E1C;stroke-width:0.75;stroke-miterlimit:10;}
	.st11{fill:none;}
</style>
<g>
	<path class="st0" d="M487.7,205.6c-89.3,0-161.6-38-161.6-84.9s72.3-84.9,161.6-84.9s161.6,38,161.6,84.9
		c0,37.3-45.7,68.9-109.3,80.3c0,0,0,89.3-67.8,93.2c-20.9-6.5,57.3-50.7,33.8-89.2C500.1,205.5,493.9,205.6,487.7,205.6z"/>
	<g class="st1">
		<path class="st2" d="M332.1,125l-4.3-14.8h3.2l2.8,10.8l3.2-10.8h2.2l3.1,10.8l2.8-10.8h3.2l-4.3,14.8h-3.2l-2.8-9.2l-2.8,9.2
			H332.1z"/>
		<path class="st2" d="M351.8,113.9c-0.3,0-0.6-0.1-0.8-0.2c-0.2-0.1-0.4-0.3-0.6-0.6c-0.1-0.3-0.2-0.5-0.2-0.8
			c0-0.3,0.1-0.6,0.2-0.8c0.1-0.2,0.3-0.4,0.6-0.6s0.5-0.2,0.8-0.2s0.6,0.1,0.8,0.2c0.2,0.1,0.4,0.3,0.6,0.6
			c0.1,0.2,0.2,0.5,0.2,0.8c0,0.3-0.1,0.6-0.2,0.8s-0.3,0.4-0.6,0.6C352.3,113.8,352.1,113.9,351.8,113.9z M350.4,125v-9.2h2.8v9.2
			H350.4z"/>
		<path class="st2" d="M360.8,125.3c-1,0-1.9-0.2-2.7-0.6c-0.8-0.4-1.4-1-1.9-1.7c-0.5-0.7-0.7-1.6-0.7-2.5c0-0.7,0.1-1.3,0.4-1.9
			c0.3-0.6,0.6-1.1,1.1-1.6c0.5-0.4,1-0.8,1.6-1c0.6-0.2,1.3-0.4,2-0.4c1,0,1.8,0.2,2.5,0.6c0.7,0.4,1.3,0.9,1.7,1.7
			c0.4,0.7,0.6,1.5,0.6,2.5c0,0.1,0,0.1,0,0.2c0,0.1,0,0.2,0,0.3h-7c0,0.5,0.1,0.9,0.3,1.2c0.2,0.3,0.5,0.6,0.9,0.8
			c0.4,0.2,0.8,0.3,1.3,0.3c0.5,0,0.9-0.1,1.3-0.3c0.4-0.2,0.7-0.5,1.1-0.9l2,1c-0.4,0.7-1,1.3-1.8,1.7
			C362.7,125,361.8,125.3,360.8,125.3z M358.5,119.2h4.3c-0.1-0.4-0.2-0.7-0.4-0.9c-0.2-0.3-0.4-0.5-0.7-0.6c-0.3-0.1-0.6-0.2-1-0.2
			c-0.4,0-0.8,0.1-1.1,0.2c-0.3,0.1-0.6,0.3-0.7,0.6S358.6,118.9,358.5,119.2z"/>
		<path class="st2" d="M373.2,125v-7.1H372v-2.1h1.2v-2.3c0-0.9,0.1-1.6,0.4-2.2c0.3-0.6,0.7-1.1,1.2-1.5c0.5-0.3,1.1-0.5,1.8-0.5
			c0.4,0,0.9,0.1,1.3,0.2c0.4,0.1,0.8,0.3,1.1,0.6l-1,1.9c-0.3-0.2-0.6-0.3-1-0.3c-0.3,0-0.5,0.1-0.7,0.2c-0.2,0.2-0.3,0.4-0.3,0.7
			c-0.1,0.3-0.1,0.6-0.1,1v2.2h2.2v2.1H376v7.1H373.2z"/>
		<path class="st2" d="M384.7,125.3c-1.7,0-2.9-0.3-3.6-1c-0.7-0.7-1.1-1.7-1.1-3.3v-5.2h2.8v4.6c0,1,0.2,1.7,0.5,2.1
			c0.3,0.4,0.8,0.6,1.5,0.6c0.7,0,1.2-0.2,1.5-0.6c0.3-0.4,0.4-1.1,0.4-2.1v-4.6h2.8v5.2c0,1.5-0.4,2.6-1.1,3.3
			C387.6,124.9,386.4,125.3,384.7,125.3z M382.6,113.9c-0.4,0-0.7-0.1-1-0.4c-0.3-0.3-0.4-0.6-0.4-1c0-0.4,0.1-0.8,0.4-1
			c0.3-0.3,0.6-0.4,1-0.4c0.4,0,0.8,0.1,1,0.4c0.3,0.3,0.4,0.6,0.4,1c0,0.4-0.1,0.7-0.4,1C383.3,113.7,383,113.9,382.6,113.9z
			 M386.8,113.9c-0.4,0-0.7-0.1-1-0.4c-0.3-0.3-0.4-0.6-0.4-1c0-0.4,0.1-0.8,0.4-1c0.3-0.3,0.6-0.4,1-0.4c0.4,0,0.8,0.1,1,0.4
			c0.3,0.3,0.4,0.6,0.4,1c0,0.4-0.1,0.7-0.4,1C387.6,113.7,387.2,113.9,386.8,113.9z"/>
		<path class="st2" d="M392.5,125v-15.4h2.8v7.3c0.4-0.4,0.8-0.7,1.3-1s1.1-0.4,1.8-0.4c0.7,0,1.3,0.2,1.9,0.5
			c0.5,0.3,1,0.7,1.3,1.3c0.3,0.5,0.5,1.2,0.5,1.9v5.8h-2.8v-5.2c0-0.7-0.2-1.2-0.5-1.5c-0.3-0.4-0.8-0.6-1.4-0.6
			c-0.4,0-0.8,0.1-1.1,0.2c-0.3,0.2-0.5,0.4-0.7,0.7c-0.2,0.3-0.2,0.6-0.2,1v5.4H392.5z"/>
		<path class="st2" d="M404.9,125v-15.4h2.8V125H404.9z"/>
		<path class="st2" d="M414.1,125.3c-0.9,0-1.6-0.3-2.1-0.9c-0.5-0.6-0.8-1.4-0.8-2.4v-4.1H410v-2.1h1.2v-3.4h2.8v3.4h2v2.1h-2v3.9
			c0,0.3,0.1,0.6,0.2,0.8c0.1,0.2,0.3,0.3,0.6,0.3c0.3,0,0.6-0.1,0.8-0.3l0.7,2.2c-0.3,0.2-0.7,0.3-1,0.4
			C414.8,125.2,414.5,125.3,414.1,125.3z"/>
		<path class="st2" d="M427.9,125.3c-1,0-1.9-0.2-2.7-0.6c-0.8-0.4-1.4-1-1.9-1.7c-0.5-0.7-0.7-1.6-0.7-2.5c0-0.7,0.1-1.3,0.4-1.9
			c0.3-0.6,0.6-1.1,1.1-1.6c0.5-0.4,1-0.8,1.6-1s1.3-0.4,2-0.4c1,0,1.8,0.2,2.5,0.6c0.7,0.4,1.3,0.9,1.7,1.7
			c0.4,0.7,0.6,1.5,0.6,2.5c0,0.1,0,0.1,0,0.2s0,0.2,0,0.3h-7c0,0.5,0.1,0.9,0.3,1.2c0.2,0.3,0.5,0.6,0.9,0.8s0.8,0.3,1.3,0.3
			c0.5,0,0.9-0.1,1.3-0.3c0.4-0.2,0.7-0.5,1.1-0.9l2,1c-0.4,0.7-1,1.3-1.8,1.7C429.8,125,428.9,125.3,427.9,125.3z M425.6,119.2h4.3
			c-0.1-0.4-0.2-0.7-0.4-0.9s-0.4-0.5-0.7-0.6c-0.3-0.1-0.6-0.2-1-0.2c-0.4,0-0.8,0.1-1.1,0.2c-0.3,0.1-0.6,0.3-0.7,0.6
			C425.8,118.5,425.7,118.9,425.6,119.2z"/>
		<path class="st2" d="M437.6,125.3c-0.8,0-1.5-0.1-2.1-0.4c-0.6-0.2-1.1-0.6-1.5-1.1l1.2-1.8c0.4,0.4,0.8,0.7,1.2,0.9
			c0.4,0.2,0.8,0.3,1.3,0.3c0.2,0,0.4,0,0.6-0.1c0.2-0.1,0.3-0.2,0.4-0.3c0.1-0.1,0.1-0.3,0.1-0.5c0-0.2-0.1-0.4-0.2-0.6
			c-0.1-0.1-0.3-0.3-0.6-0.4c-0.3-0.1-0.6-0.3-1.1-0.4c-0.4-0.2-0.7-0.3-1.1-0.5c-0.3-0.2-0.6-0.4-0.8-0.8c-0.2-0.3-0.3-0.7-0.3-1.2
			c0-0.6,0.2-1.1,0.5-1.5c0.3-0.4,0.8-0.8,1.3-1s1.2-0.4,1.9-0.4c0.5,0,0.9,0.1,1.4,0.2c0.5,0.1,1,0.3,1.6,0.6l-0.9,1.8
			c-0.8-0.5-1.5-0.7-2.1-0.7c-0.3,0-0.6,0.1-0.8,0.2c-0.2,0.1-0.3,0.3-0.3,0.6c0,0.2,0.1,0.4,0.3,0.6c0.2,0.2,0.5,0.3,0.8,0.4
			c0.3,0.1,0.6,0.2,0.9,0.3c0.5,0.2,0.9,0.4,1.2,0.6c0.4,0.2,0.6,0.5,0.8,0.8c0.2,0.3,0.3,0.8,0.3,1.3c0,0.7-0.2,1.2-0.5,1.7
			c-0.3,0.5-0.8,0.8-1.4,1.1C439.2,125.1,438.5,125.3,437.6,125.3z"/>
		<path class="st2" d="M451.6,125.3c-0.8,0-1.5-0.1-2.1-0.4c-0.6-0.2-1.1-0.6-1.5-1.1l1.2-1.8c0.4,0.4,0.8,0.7,1.2,0.9
			c0.4,0.2,0.8,0.3,1.3,0.3c0.2,0,0.4,0,0.6-0.1c0.2-0.1,0.3-0.2,0.4-0.3c0.1-0.1,0.1-0.3,0.1-0.5c0-0.2-0.1-0.4-0.2-0.6
			c-0.1-0.1-0.3-0.3-0.6-0.4c-0.3-0.1-0.6-0.3-1.1-0.4c-0.4-0.2-0.7-0.3-1.1-0.5c-0.3-0.2-0.6-0.4-0.8-0.8c-0.2-0.3-0.3-0.7-0.3-1.2
			c0-0.6,0.2-1.1,0.5-1.5c0.3-0.4,0.8-0.8,1.3-1s1.2-0.4,1.9-0.4c0.5,0,0.9,0.1,1.4,0.2c0.5,0.1,1,0.3,1.6,0.6l-0.9,1.8
			c-0.8-0.5-1.5-0.7-2.1-0.7c-0.3,0-0.6,0.1-0.8,0.2c-0.2,0.1-0.3,0.3-0.3,0.6c0,0.2,0.1,0.4,0.3,0.6c0.2,0.2,0.5,0.3,0.8,0.4
			c0.3,0.1,0.6,0.2,0.9,0.3c0.5,0.2,0.9,0.4,1.2,0.6c0.4,0.2,0.6,0.5,0.8,0.8c0.2,0.3,0.3,0.8,0.3,1.3c0,0.7-0.2,1.2-0.5,1.7
			c-0.3,0.5-0.8,0.8-1.4,1.1C453.2,125.1,452.5,125.3,451.6,125.3z"/>
		<path class="st2" d="M459.6,113.9c-0.3,0-0.6-0.1-0.8-0.2c-0.2-0.1-0.4-0.3-0.6-0.6c-0.2-0.3-0.2-0.5-0.2-0.8
			c0-0.3,0.1-0.6,0.2-0.8c0.1-0.2,0.3-0.4,0.6-0.6c0.2-0.1,0.5-0.2,0.8-0.2c0.3,0,0.6,0.1,0.8,0.2c0.2,0.1,0.4,0.3,0.6,0.6
			c0.1,0.2,0.2,0.5,0.2,0.8c0,0.3-0.1,0.6-0.2,0.8c-0.1,0.3-0.3,0.4-0.6,0.6C460.2,113.8,459.9,113.9,459.6,113.9z M458.2,125v-9.2
			h2.8v9.2H458.2z"/>
		<path class="st2" d="M468.5,125.3c-0.7,0-1.4-0.1-2-0.4c-0.6-0.3-1.2-0.6-1.6-1c-0.5-0.4-0.8-1-1.1-1.6c-0.3-0.6-0.4-1.2-0.4-1.9
			c0-0.7,0.1-1.3,0.4-1.9c0.3-0.6,0.6-1.1,1.1-1.6c0.5-0.5,1-0.8,1.6-1.1c0.6-0.3,1.3-0.4,2-0.4c0.6,0,1.2,0.1,1.7,0.3
			c0.5,0.2,1,0.4,1.3,0.6l-0.9,1.9c-0.4-0.3-1-0.5-1.7-0.5c-0.6,0-1,0.1-1.4,0.4c-0.4,0.3-0.7,0.6-0.9,1c-0.2,0.4-0.3,0.8-0.3,1.3
			c0,0.5,0.1,0.9,0.3,1.3c0.2,0.4,0.5,0.7,0.9,0.9c0.4,0.2,0.9,0.3,1.4,0.3c0.3,0,0.6,0,0.9-0.1c0.3-0.1,0.5-0.2,0.7-0.4l0.9,1.9
			c-0.3,0.3-0.8,0.5-1.3,0.6C469.7,125.2,469.1,125.3,468.5,125.3z"/>
		<path class="st2" d="M473.8,125v-15.4h2.8v7.3c0.4-0.4,0.8-0.7,1.3-1c0.5-0.2,1.1-0.4,1.8-0.4c0.7,0,1.3,0.2,1.9,0.5
			c0.5,0.3,1,0.7,1.3,1.3c0.3,0.5,0.5,1.2,0.5,1.9v5.8h-2.8v-5.2c0-0.7-0.2-1.2-0.5-1.5c-0.3-0.4-0.8-0.6-1.4-0.6
			c-0.4,0-0.8,0.1-1.1,0.2c-0.3,0.2-0.5,0.4-0.7,0.7c-0.2,0.3-0.2,0.6-0.2,1v5.4H473.8z"/>
		<path class="st2" d="M494.9,125.3c-0.8,0-1.6-0.2-2.3-0.6c-0.7-0.4-1.2-1-1.6-1.7c-0.4-0.7-0.6-1.6-0.6-2.5c0-0.9,0.2-1.7,0.6-2.5
			c0.4-0.7,0.9-1.3,1.6-1.7c0.7-0.4,1.5-0.6,2.4-0.6c0.7,0,1.3,0.1,1.8,0.4c0.6,0.2,1,0.6,1.4,1v-1.1h2.8v9.2h-2.8v-1.2
			c-0.4,0.5-0.9,0.9-1.4,1.1C496.1,125.1,495.5,125.3,494.9,125.3z M495.7,122.9c0.5,0,0.9-0.1,1.3-0.3c0.4-0.2,0.7-0.5,0.9-0.9
			c0.2-0.4,0.3-0.8,0.3-1.3c0-0.5-0.1-0.9-0.3-1.3c-0.2-0.4-0.5-0.7-0.9-0.9c-0.4-0.2-0.8-0.3-1.3-0.3c-0.5,0-0.9,0.1-1.3,0.3
			c-0.4,0.2-0.7,0.5-0.9,0.9c-0.2,0.4-0.3,0.8-0.3,1.3c0,0.5,0.1,0.9,0.3,1.3c0.2,0.4,0.5,0.7,0.9,0.9
			C494.8,122.8,495.2,122.9,495.7,122.9z"/>
		<path class="st2" d="M504.1,125v-9.2h2.8v1c0.4-0.4,0.8-0.7,1.3-1c0.5-0.2,1.1-0.4,1.8-0.4c0.7,0,1.3,0.2,1.9,0.5
			c0.5,0.3,1,0.7,1.3,1.3c0.3,0.5,0.5,1.2,0.5,1.9v5.8h-2.8v-5.2c0-0.7-0.2-1.2-0.5-1.5c-0.3-0.4-0.8-0.6-1.4-0.6
			c-0.4,0-0.8,0.1-1.1,0.2c-0.3,0.2-0.5,0.4-0.7,0.7c-0.2,0.3-0.2,0.6-0.2,1v5.4H504.1z"/>
		<path class="st2" d="M522.9,125l-4.3-14.8h3.2l2.8,10.8l3.2-10.8h2.2l3.1,10.8l2.8-10.8h3.2L535,125h-3.2l-2.8-9.2l-2.8,9.2H522.9
			z"/>
		<path class="st2" d="M542.6,113.9c-0.3,0-0.6-0.1-0.8-0.2c-0.2-0.1-0.4-0.3-0.6-0.6c-0.2-0.3-0.2-0.5-0.2-0.8
			c0-0.3,0.1-0.6,0.2-0.8c0.1-0.2,0.3-0.4,0.6-0.6c0.2-0.1,0.5-0.2,0.8-0.2s0.6,0.1,0.8,0.2c0.2,0.1,0.4,0.3,0.6,0.6
			c0.1,0.2,0.2,0.5,0.2,0.8c0,0.3-0.1,0.6-0.2,0.8c-0.1,0.3-0.3,0.4-0.6,0.6C543.2,113.8,542.9,113.9,542.6,113.9z M541.2,125v-9.2
			h2.8v9.2H541.2z"/>
		<path class="st2" d="M547.2,125v-9.2h2.8v1.3c0.3-0.5,0.8-0.9,1.3-1.2c0.5-0.3,1-0.4,1.6-0.4c0.3,0,0.7,0,1,0.1
			c0.3,0.1,0.6,0.2,0.9,0.4l-1.1,2.3c-0.2-0.1-0.4-0.2-0.7-0.3c-0.3-0.1-0.5-0.1-0.8-0.1c-0.4,0-0.7,0.1-1,0.3
			c-0.3,0.2-0.6,0.4-0.8,0.7c-0.2,0.3-0.3,0.6-0.3,1v5.1H547.2z"/>
		<path class="st2" d="M559.4,125.3c-0.9,0-1.6-0.3-2.1-0.9c-0.5-0.6-0.8-1.4-0.8-2.4v-4.1h-1.2v-2.1h1.2v-3.4h2.8v3.4h2v2.1h-2v3.9
			c0,0.3,0.1,0.6,0.2,0.8c0.1,0.2,0.3,0.3,0.6,0.3c0.3,0,0.6-0.1,0.8-0.3l0.7,2.2c-0.3,0.2-0.7,0.3-1,0.4
			C560.1,125.2,559.8,125.3,559.4,125.3z"/>
		<path class="st2" d="M566.5,125.3c-0.8,0-1.5-0.1-2.1-0.4c-0.6-0.2-1.1-0.6-1.5-1.1l1.2-1.8c0.4,0.4,0.8,0.7,1.2,0.9
			c0.4,0.2,0.8,0.3,1.3,0.3c0.2,0,0.4,0,0.6-0.1c0.2-0.1,0.3-0.2,0.4-0.3c0.1-0.1,0.1-0.3,0.1-0.5c0-0.2-0.1-0.4-0.2-0.6
			c-0.1-0.1-0.3-0.3-0.6-0.4s-0.6-0.3-1.1-0.4c-0.4-0.2-0.7-0.3-1.1-0.5c-0.3-0.2-0.6-0.4-0.8-0.8c-0.2-0.3-0.3-0.7-0.3-1.2
			c0-0.6,0.2-1.1,0.5-1.5c0.3-0.4,0.8-0.8,1.3-1s1.2-0.4,1.9-0.4c0.5,0,0.9,0.1,1.4,0.2c0.5,0.1,1,0.3,1.6,0.6l-0.9,1.8
			c-0.8-0.5-1.5-0.7-2.1-0.7c-0.3,0-0.6,0.1-0.8,0.2c-0.2,0.1-0.3,0.3-0.3,0.6c0,0.2,0.1,0.4,0.3,0.6c0.2,0.2,0.5,0.3,0.8,0.4
			c0.3,0.1,0.6,0.2,0.9,0.3c0.5,0.2,0.9,0.4,1.2,0.6c0.4,0.2,0.6,0.5,0.8,0.8c0.2,0.3,0.3,0.8,0.3,1.3c0,0.7-0.2,1.2-0.5,1.7
			c-0.3,0.5-0.8,0.8-1.4,1.1C568.1,125.1,567.4,125.3,566.5,125.3z"/>
		<path class="st2" d="M577.4,125.3c-0.7,0-1.4-0.1-2-0.4c-0.6-0.3-1.2-0.6-1.6-1c-0.5-0.4-0.8-1-1.1-1.6c-0.3-0.6-0.4-1.2-0.4-1.9
			c0-0.7,0.1-1.3,0.4-1.9c0.3-0.6,0.6-1.1,1.1-1.6c0.5-0.5,1-0.8,1.6-1.1c0.6-0.3,1.3-0.4,2-0.4c0.6,0,1.2,0.1,1.7,0.3
			c0.5,0.2,1,0.4,1.3,0.6l-0.9,1.9c-0.4-0.3-1-0.5-1.7-0.5c-0.6,0-1.1,0.1-1.4,0.4c-0.4,0.3-0.7,0.6-0.9,1c-0.2,0.4-0.3,0.8-0.3,1.3
			c0,0.5,0.1,0.9,0.3,1.3c0.2,0.4,0.5,0.7,0.9,0.9c0.4,0.2,0.9,0.3,1.4,0.3c0.3,0,0.6,0,0.9-0.1c0.3-0.1,0.5-0.2,0.7-0.4l0.9,1.9
			c-0.3,0.3-0.8,0.5-1.3,0.6C578.6,125.2,578,125.3,577.4,125.3z"/>
		<path class="st2" d="M582.7,125v-15.4h2.8v7.3c0.4-0.4,0.8-0.7,1.3-1c0.5-0.2,1.1-0.4,1.8-0.4c0.7,0,1.3,0.2,1.9,0.5
			c0.5,0.3,1,0.7,1.3,1.3c0.3,0.5,0.5,1.2,0.5,1.9v5.8h-2.8v-5.2c0-0.7-0.2-1.2-0.5-1.5c-0.3-0.4-0.8-0.6-1.4-0.6
			c-0.4,0-0.8,0.1-1.1,0.2c-0.3,0.2-0.5,0.4-0.7,0.7c-0.2,0.3-0.2,0.6-0.2,1v5.4H582.7z"/>
		<path class="st2" d="M599,125.3c-0.8,0-1.6-0.2-2.3-0.6c-0.7-0.4-1.2-1-1.6-1.7c-0.4-0.7-0.6-1.6-0.6-2.5c0-0.9,0.2-1.7,0.6-2.5
			c0.4-0.7,0.9-1.3,1.6-1.7c0.7-0.4,1.5-0.6,2.4-0.6c0.7,0,1.3,0.1,1.8,0.4s1,0.6,1.4,1v-1.1h2.8v9.2h-2.8v-1.2
			c-0.4,0.5-0.9,0.9-1.4,1.1C600.2,125.1,599.6,125.3,599,125.3z M599.8,122.9c0.5,0,0.9-0.1,1.3-0.3c0.4-0.2,0.7-0.5,0.9-0.9
			c0.2-0.4,0.3-0.8,0.3-1.3c0-0.5-0.1-0.9-0.3-1.3c-0.2-0.4-0.5-0.7-0.9-0.9c-0.4-0.2-0.8-0.3-1.3-0.3c-0.5,0-0.9,0.1-1.3,0.3
			c-0.4,0.2-0.7,0.5-0.9,0.9c-0.2,0.4-0.3,0.8-0.3,1.3c0,0.5,0.1,0.9,0.3,1.3c0.2,0.4,0.5,0.7,0.9,0.9
			C598.9,122.8,599.3,122.9,599.8,122.9z"/>
		<path class="st2" d="M608.5,125v-7.1h-1.2v-2.1h1.2v-2.3c0-0.9,0.1-1.6,0.4-2.2c0.3-0.6,0.7-1.1,1.2-1.5c0.5-0.3,1.1-0.5,1.8-0.5
			c0.4,0,0.9,0.1,1.3,0.2c0.4,0.1,0.8,0.3,1.1,0.6l-1,1.9c-0.3-0.2-0.6-0.3-1-0.3c-0.3,0-0.5,0.1-0.7,0.2c-0.2,0.2-0.3,0.4-0.3,0.7
			c-0.1,0.3-0.1,0.6-0.1,1v2.2h2.2v2.1h-2.2v7.1H608.5z"/>
		<path class="st2" d="M618.6,125.3c-0.9,0-1.6-0.3-2.1-0.9c-0.5-0.6-0.8-1.4-0.8-2.4v-4.1h-1.2v-2.1h1.2v-3.4h2.8v3.4h2v2.1h-2v3.9
			c0,0.3,0.1,0.6,0.2,0.8c0.1,0.2,0.3,0.3,0.6,0.3c0.3,0,0.6-0.1,0.8-0.3l0.7,2.2c-0.3,0.2-0.7,0.3-1,0.4
			C619.4,125.2,619,125.3,618.6,125.3z"/>
		<path class="st2" d="M626.8,125l5.1-7.1h-4.3v-2.1h9l-5.1,7.1h4.8v2.1H626.8z"/>
		<path class="st2" d="M643.2,125.3c-1.7,0-2.9-0.3-3.6-1c-0.7-0.7-1.1-1.7-1.1-3.3v-5.2h2.8v4.6c0,1,0.2,1.7,0.5,2.1
			c0.3,0.4,0.8,0.6,1.5,0.6c0.7,0,1.2-0.2,1.5-0.6s0.4-1.1,0.4-2.1v-4.6h2.8v5.2c0,1.5-0.4,2.6-1.1,3.3
			C646.1,124.9,644.9,125.3,643.2,125.3z"/>
		<path class="st2" d="M440.9,146.8c-0.8,0-1.5-0.1-2.1-0.4s-1.1-0.6-1.5-1.1l1.2-1.8c0.4,0.4,0.8,0.7,1.2,0.9
			c0.4,0.2,0.8,0.3,1.3,0.3c0.2,0,0.4,0,0.6-0.1c0.2-0.1,0.3-0.2,0.4-0.3c0.1-0.1,0.1-0.3,0.1-0.5c0-0.2-0.1-0.4-0.2-0.6
			s-0.3-0.3-0.6-0.4c-0.3-0.1-0.6-0.3-1.1-0.4c-0.4-0.2-0.7-0.3-1.1-0.5c-0.3-0.2-0.6-0.4-0.8-0.8c-0.2-0.3-0.3-0.7-0.3-1.2
			c0-0.6,0.2-1.1,0.5-1.5c0.3-0.4,0.8-0.8,1.3-1s1.2-0.4,1.9-0.4c0.5,0,0.9,0.1,1.4,0.2c0.5,0.1,1,0.3,1.6,0.6l-0.9,1.8
			c-0.8-0.5-1.5-0.7-2.1-0.7c-0.3,0-0.6,0.1-0.8,0.2c-0.2,0.1-0.3,0.3-0.3,0.6c0,0.2,0.1,0.4,0.3,0.6c0.2,0.2,0.5,0.3,0.8,0.4
			c0.3,0.1,0.6,0.2,0.9,0.3c0.5,0.2,0.9,0.4,1.2,0.6s0.6,0.5,0.8,0.8c0.2,0.3,0.3,0.8,0.3,1.3c0,0.7-0.2,1.2-0.5,1.7
			c-0.3,0.5-0.8,0.8-1.4,1.1C442.5,146.7,441.7,146.8,440.9,146.8z"/>
		<path class="st2" d="M450.5,146.8c-0.9,0-1.6-0.3-2.1-0.9c-0.5-0.6-0.8-1.4-0.8-2.4v-4.1h-1.2v-2.1h1.2v-3.4h2.8v3.4h2v2.1h-2v3.9
			c0,0.3,0.1,0.6,0.2,0.8c0.1,0.2,0.3,0.3,0.6,0.3c0.3,0,0.6-0.1,0.8-0.3l0.7,2.2c-0.3,0.2-0.7,0.3-1,0.4
			C451.2,146.7,450.9,146.8,450.5,146.8z"/>
		<path class="st2" d="M459.5,146.8c-1.7,0-2.9-0.3-3.6-1c-0.7-0.7-1.1-1.7-1.1-3.3v-5.2h2.8v4.6c0,1,0.2,1.7,0.5,2.1
			c0.3,0.4,0.8,0.6,1.5,0.6c0.7,0,1.2-0.2,1.5-0.6c0.3-0.4,0.4-1.1,0.4-2.1v-4.6h2.8v5.2c0,1.5-0.4,2.6-1.1,3.3
			C462.4,146.5,461.2,146.8,459.5,146.8z"/>
		<path class="st2" d="M471.1,146.8c-0.8,0-1.6-0.2-2.3-0.6c-0.7-0.4-1.2-1-1.6-1.7c-0.4-0.7-0.6-1.6-0.6-2.5c0-0.9,0.2-1.8,0.6-2.5
			c0.4-0.7,0.9-1.3,1.6-1.7c0.7-0.4,1.5-0.6,2.4-0.6c0.6,0,1.2,0.1,1.8,0.4c0.6,0.2,1,0.6,1.4,1v-7.4h2.8v15.4h-2.8v-1.2
			c-0.4,0.5-0.9,0.8-1.4,1.1C472.4,146.7,471.8,146.8,471.1,146.8z M471.9,144.4c0.5,0,0.9-0.1,1.3-0.3c0.4-0.2,0.7-0.5,0.9-0.9
			c0.2-0.4,0.3-0.8,0.3-1.3c0-0.5-0.1-0.9-0.3-1.3c-0.2-0.4-0.5-0.7-0.9-0.9c-0.4-0.2-0.8-0.3-1.3-0.3c-0.5,0-0.9,0.1-1.3,0.3
			c-0.4,0.2-0.7,0.5-0.9,0.9c-0.2,0.4-0.3,0.8-0.3,1.3c0,0.5,0.1,0.9,0.3,1.3c0.2,0.4,0.5,0.7,0.9,0.9
			C471,144.3,471.5,144.4,471.9,144.4z"/>
		<path class="st2" d="M481.7,135.4c-0.3,0-0.6-0.1-0.8-0.2c-0.2-0.1-0.4-0.3-0.6-0.6c-0.2-0.3-0.2-0.5-0.2-0.8
			c0-0.3,0.1-0.6,0.2-0.8c0.1-0.2,0.3-0.4,0.6-0.6s0.5-0.2,0.8-0.2s0.6,0.1,0.8,0.2c0.2,0.1,0.4,0.3,0.6,0.6
			c0.1,0.2,0.2,0.5,0.2,0.8c0,0.3-0.1,0.6-0.2,0.8c-0.1,0.3-0.3,0.4-0.6,0.6C482.3,135.3,482,135.4,481.7,135.4z M480.3,146.5v-9.2
			h2.8v9.2H480.3z"/>
		<path class="st2" d="M490.8,146.8c-1,0-1.9-0.2-2.7-0.6c-0.8-0.4-1.4-1-1.9-1.7c-0.5-0.7-0.7-1.6-0.7-2.5c0-0.7,0.1-1.3,0.4-1.9
			c0.3-0.6,0.6-1.1,1.1-1.6c0.5-0.4,1-0.8,1.6-1c0.6-0.2,1.3-0.4,2-0.4c1,0,1.8,0.2,2.5,0.6c0.7,0.4,1.3,0.9,1.7,1.7
			c0.4,0.7,0.6,1.5,0.6,2.5c0,0.1,0,0.1,0,0.2s0,0.2,0,0.3h-7c0,0.5,0.1,0.9,0.3,1.2c0.2,0.3,0.5,0.6,0.9,0.8
			c0.4,0.2,0.8,0.3,1.3,0.3c0.5,0,0.9-0.1,1.3-0.3c0.4-0.2,0.7-0.5,1.1-0.9l2,1c-0.4,0.7-1,1.3-1.8,1.7
			C492.6,146.6,491.7,146.8,490.8,146.8z M488.5,140.7h4.3c-0.1-0.4-0.2-0.7-0.4-0.9c-0.2-0.3-0.4-0.5-0.7-0.6
			c-0.3-0.1-0.6-0.2-1-0.2c-0.4,0-0.8,0.1-1.1,0.2c-0.3,0.1-0.6,0.3-0.7,0.6C488.6,140.1,488.5,140.4,488.5,140.7z"/>
		<path class="st2" d="M497.9,146.5v-9.2h2.8v1.3c0.3-0.5,0.8-0.9,1.3-1.2c0.5-0.3,1-0.4,1.6-0.4c0.3,0,0.7,0,1,0.1
			c0.3,0.1,0.6,0.2,0.9,0.4l-1.1,2.3c-0.2-0.1-0.4-0.2-0.7-0.3c-0.3-0.1-0.5-0.1-0.8-0.1c-0.4,0-0.7,0.1-1,0.3
			c-0.3,0.2-0.6,0.4-0.8,0.7c-0.2,0.3-0.3,0.6-0.3,1v5.1H497.9z"/>
		<path class="st2" d="M511.2,146.8c-1,0-1.9-0.2-2.7-0.6c-0.8-0.4-1.4-1-1.9-1.7c-0.5-0.7-0.7-1.6-0.7-2.5c0-0.7,0.1-1.3,0.4-1.9
			c0.3-0.6,0.6-1.1,1.1-1.6c0.5-0.4,1-0.8,1.6-1c0.6-0.2,1.3-0.4,2-0.4c1,0,1.8,0.2,2.5,0.6c0.7,0.4,1.3,0.9,1.7,1.7
			c0.4,0.7,0.6,1.5,0.6,2.5c0,0.1,0,0.1,0,0.2s0,0.2,0,0.3h-7c0,0.5,0.1,0.9,0.3,1.2c0.2,0.3,0.5,0.6,0.9,0.8
			c0.4,0.2,0.8,0.3,1.3,0.3c0.5,0,0.9-0.1,1.3-0.3c0.4-0.2,0.7-0.5,1.1-0.9l2,1c-0.4,0.7-1,1.3-1.8,1.7
			C513.1,146.6,512.2,146.8,511.2,146.8z M508.9,140.7h4.3c-0.1-0.4-0.2-0.7-0.4-0.9c-0.2-0.3-0.4-0.5-0.7-0.6
			c-0.3-0.1-0.6-0.2-1-0.2c-0.4,0-0.8,0.1-1.1,0.2c-0.3,0.1-0.6,0.3-0.7,0.6C509.1,140.1,509,140.4,508.9,140.7z"/>
		<path class="st2" d="M518.4,146.5v-9.2h2.8v1c0.4-0.4,0.8-0.7,1.3-1c0.5-0.2,1.1-0.4,1.8-0.4c0.7,0,1.3,0.2,1.9,0.5
			c0.5,0.3,1,0.7,1.3,1.3c0.3,0.5,0.5,1.2,0.5,1.9v5.8H525v-5.2c0-0.7-0.2-1.2-0.5-1.5c-0.3-0.4-0.8-0.6-1.4-0.6
			c-0.4,0-0.8,0.1-1.1,0.2c-0.3,0.2-0.5,0.4-0.7,0.7c-0.2,0.3-0.2,0.6-0.2,1v5.4H518.4z"/>
		<path class="st2" d="M533.1,141.9v-4.1c0.1,0,0.3,0.1,0.5,0.1c0.2,0,0.4,0,0.6,0c0.5,0,1-0.1,1.4-0.2c0.4-0.2,0.7-0.4,0.9-0.7
			c0.2-0.3,0.3-0.7,0.3-1.1c0-0.4-0.1-0.8-0.3-1.1c-0.2-0.3-0.5-0.5-0.8-0.7c-0.4-0.2-0.8-0.2-1.3-0.2c-0.7,0-1.2,0.2-1.6,0.5
			s-0.7,0.8-0.8,1.4l-2.3-0.5c0.1-0.8,0.4-1.5,0.9-2.1c0.5-0.6,1-1,1.7-1.3c0.7-0.3,1.4-0.5,2.2-0.5c1,0,1.8,0.2,2.5,0.6
			c0.7,0.4,1.3,0.9,1.7,1.6c0.4,0.7,0.6,1.4,0.6,2.2c0,0.7-0.2,1.4-0.5,2c-0.3,0.6-0.8,1.1-1.3,1.5c-0.6,0.4-1.2,0.7-1.9,0.8v1.7
			H533.1z M534.3,146.8c-0.3,0-0.6-0.1-0.9-0.2c-0.3-0.2-0.5-0.4-0.6-0.7c-0.2-0.3-0.2-0.6-0.2-0.9c0-0.3,0.1-0.6,0.2-0.9
			c0.2-0.3,0.4-0.5,0.6-0.6c0.3-0.2,0.6-0.2,0.9-0.2c0.3,0,0.6,0.1,0.9,0.2c0.3,0.2,0.5,0.4,0.7,0.6c0.2,0.3,0.2,0.6,0.2,0.9
			c0,0.3-0.1,0.6-0.2,0.9c-0.2,0.3-0.4,0.5-0.7,0.7C535,146.7,534.7,146.8,534.3,146.8z"/>
	</g>
	<g>
		<path class="st3" d="M318,369.9l-19.8-5.5c-5.2-2-5.7,10.5-7.3,28.4c-1.6,17.9-1.1,28.9,3.1,31.3c0.5,0.3,0.9,0.4,1.4,0.4
			l22.6,6.7L318,369.9L318,369.9z"/>
		<path class="st4" d="M311,257.4c0,0-30.6,50.6,0,90.5c12,5.3,66.6,10.6,73.2,0c4-8,15.9-59.9,4.6-90.5
			C378.9,253.4,332.3,244.1,311,257.4z"/>
		<circle class="st5" cx="382" cy="290.3" r="3.7"/>
		<circle class="st5" cx="343.6" cy="292.4" r="3.7"/>
		<path class="st6" d="M352.8,331.2c6.8,7.2,18.9,6.9,26.9-0.7"/>
		<path class="st4" d="M339.9,353.2v14.5c0,0,2.6,5.7,8.5,5.7c6.1,0,8.5-5.6,8.5-5.6v-14L339.9,353.2z"/>
		<polygon class="st7" points="316.4,438.2 327.3,506 337,506 336.1,447.7 359.8,448.3 362.8,506 372,506 377,439.5 		"/>
		<polygon class="st5" points="326.9,506 326.9,510.4 343.4,510.4 336.9,506 		"/>
		<polygon class="st5" points="362.5,506 362.5,510.4 378.1,510.4 371.9,506 		"/>
		<path class="st4" d="M309.2,457.8c-2.1-2-3.4-6.3-4-11.8h12C319.3,461.3,312.6,461.1,309.2,457.8z"/>
		<path class="st4" d="M386.3,450.9c-0.6,3.2-2.2,6.7-4.8,6.7c-2.7,0-4.8-1.1-4.8-4.4c0-0.9-0.4-6.7-0.2-7.5l0.6-5.1h9.5
			C386.7,444.7,386.7,448.6,386.3,450.9z"/>
		<path class="st8" d="M386.6,440.6h-9.5c0,0-59.8-3-59.8,5.4h-12c-2.8-25.2,7-77.8,7-77.8L340,368l41.5,0.2l4.8,62.4
			C386.3,433.4,386.5,437.1,386.6,440.6z"/>
		<g>
			<path class="st9" d="M357,361h10.9c0,0,10.5,0.7,13.8,7.1l-24.6-0.3L357,361L357,361z"/>
			<path class="st5" d="M381.8,368.1v-0.3c-3.3-6.5-13.5-7.1-14-7.1h-11.2v7.6l25.1,0.3 M357.3,367.5v-6.1h10.5
				c0.1,0,9.7,0.8,13.2,6.4L357.3,367.5z"/>
		</g>
		<path class="st5" d="M317.3,446"/>
		<path class="st10" d="M297.6,364c0,0,11.8-3.6,42.4-2.9v6.9l-27.7,0.2L297.6,364z"/>
		<line class="st11" x1="305.2" y1="446" x2="297.6" y2="446"/>
		<line class="st6" x1="317.3" y1="446" x2="325.9" y2="391"/>
		<line class="st6" x1="369.2" y1="390.1" x2="377.1" y2="440.6"/>
		<line class="st11" x1="393.7" y1="440.6" x2="386.6" y2="440.6"/>
		<path class="st2" d="M285.6,339.8c-1.2-3.2-27.8-67-13.7-89.8c2.7-3.1,12.4-26.4,62.9-18.4c9.9,1.9,25.4,16.5,87.9,9.3
			c-6.7,3.8-30,17.3-30,17.3l2.6,9.2c0,0-50.9,7.6-72.6,3.4c-3,7.4-13.8,14.9-13.1,32.3c1.1,9.4,5.3,45.6,5.3,45.6s-8,16-21.3,6.1
			C290,351,285.6,339.8,285.6,339.8z"/>
	</g>
</g>
</svg>
