<?xml version="1.0" encoding="utf-8"?>
<!-- Generator: Adobe Illustrator 26.0.1, SVG Export Plug-In . SVG Version: 6.00 Build 0)  -->
<svg version="1.1" id="Ebene_1" xmlns="http://www.w3.org/2000/svg" xmlns:xlink="http://www.w3.org/1999/xlink" x="0px" y="0px"
	 viewBox="0 0 841.9 595.3" style="enable-background:new 0 0 841.9 595.3;" xml:space="preserve">
<style type="text/css">
	.st0{opacity:0.9;fill:#FFE267;}
	.st1{fill:none;}
	.st2{fill:#020203;}
	.st3{font-family:'Spartan-Light';}
	.st4{font-size:10px;}
	.st5{fill:#335AA5;stroke:#1E1E1C;stroke-width:0.75;stroke-miterlimit:10;}
	.st6{opacity:0.9;fill:#FFE267;stroke:#020203;stroke-width:0.75;stroke-miterlimit:10;}
	.st7{fill:#1E1E1C;}
	.st8{fill:none;stroke:#1E1E1C;stroke-width:0.75;stroke-miterlimit:10;}
	.st9{fill:#D94536;stroke:#1E1E1C;stroke-width:0.75;stroke-miterlimit:10;}
	.st10{fill:#232A51;stroke:#1E1E1C;stroke-width:0.75;stroke-miterlimit:10;}
	.st11{fill:#009CBF;}
	.st12{fill:#009CBF;stroke:#1E1E1C;stroke-width:0.75;stroke-miterlimit:10;}
</style>
<g>
	<path class="st0" d="M475.3,198.5c-59.4,0-107.5-25.3-107.5-56.5s48.1-56.5,107.5-56.5c59.4,0,107.5,25.3,107.5,56.5
		c0,24.8-30.4,45.8-72.7,53.4c0,0,0,59.4-45.1,62c-13.9-4.3,38.1-33.7,22.5-59.3C483.5,198.4,479.4,198.5,475.3,198.5z"/>
	<rect x="370.4" y="129.5" class="st1" width="212.8" height="49.7"/>
	<text transform="matrix(1 0 0 1 391.2099 138.0656)"><tspan x="0" y="0" class="st2 st3 st4">Wie fühlt es sich an Wirtschaft zu </tspan><tspan x="57.9" y="12" class="st2 st3 st4">studieren?</tspan></text>
	<g>
		<path class="st5" d="M318,369.9l-19.8-5.5c-5.2-2-5.7,10.5-7.3,28.4c-1.6,17.9-1.1,28.9,3.1,31.3c0.5,0.3,0.9,0.4,1.4,0.4
			l22.6,6.7V369.9z"/>
		<path class="st6" d="M311,257.4c0,0-30.6,50.6,0,90.5c12,5.3,66.6,10.6,73.2,0c4-8,15.9-59.9,4.6-90.5
			C378.9,253.4,332.3,244.1,311,257.4z"/>
		<circle class="st7" cx="382" cy="290.3" r="3.7"/>
		<circle class="st7" cx="343.6" cy="292.4" r="3.7"/>
		<path class="st8" d="M352.8,331.2c6.8,7.2,18.9,6.9,26.9-0.7"/>
		<path class="st6" d="M339.9,353.2v14.5c0,0,2.6,5.7,8.5,5.7c6.1,0,8.5-5.6,8.5-5.6v-14L339.9,353.2z"/>
		<polygon class="st9" points="316.4,438.2 327.3,506 337,506 336.1,447.7 359.8,448.3 362.8,506 372,506 377,439.5 		"/>
		<polygon class="st7" points="326.9,506 326.9,510.4 343.4,510.4 336.9,506 		"/>
		<polygon class="st7" points="362.5,506 362.5,510.4 378.1,510.4 371.9,506 		"/>
		<path class="st6" d="M309.2,457.8c-2.1-2-3.4-6.3-4-11.8h12C319.3,461.3,312.6,461.1,309.2,457.8z"/>
		<path class="st6" d="M386.3,450.9c-0.6,3.2-2.2,6.7-4.8,6.7c-2.7,0-4.8-1.1-4.8-4.4c0-0.9-0.4-6.7-0.2-7.5l0.6-5.1h9.5
			C386.7,444.7,386.7,448.6,386.3,450.9z"/>
		<path class="st10" d="M386.6,440.6h-9.5c0,0-59.8-3-59.8,5.4h-12c-2.8-25.2,7-77.8,7-77.8l27.7-0.2l41.5,0.2l4.8,62.4
			C386.3,433.4,386.5,437.1,386.6,440.6z"/>
		<g>
			<path class="st11" d="M357,361h10.9c0,0,10.5,0.7,13.8,7.1l-24.6-0.3V361z"/>
			<path class="st7" d="M381.8,368.1v-0.3c-3.3-6.5-13.5-7.1-14-7.1h-11.2v7.6l25.1,0.3 M357.3,367.5v-6.1h10.5
				c0.1,0,9.7,0.8,13.2,6.4L357.3,367.5z"/>
		</g>
		<path class="st7" d="M317.3,446"/>
		<path class="st12" d="M297.6,364c0,0,11.8-3.6,42.4-2.9v6.9l-27.7,0.2L297.6,364z"/>
		<line class="st1" x1="305.2" y1="446" x2="297.6" y2="446"/>
		<line class="st8" x1="317.3" y1="446" x2="325.9" y2="391"/>
		<line class="st8" x1="369.2" y1="390.1" x2="377.1" y2="440.6"/>
		<line class="st1" x1="393.7" y1="440.6" x2="386.6" y2="440.6"/>
		<path class="st2" d="M285.6,339.8c-1.2-3.2-27.8-67-13.7-89.8c2.7-3.1,12.4-26.4,62.9-18.4c9.9,1.9,25.4,16.5,87.9,9.3
			c-6.7,3.8-30,17.3-30,17.3l2.6,9.2c0,0-50.9,7.6-72.6,3.4c-3,7.4-13.8,14.9-13.1,32.3c1.1,9.4,5.3,45.6,5.3,45.6s-8,16-21.3,6.1
			C290,351,285.6,339.8,285.6,339.8z"/>
	</g>
</g>
</svg>
