<?xml version="1.0" encoding="utf-8"?>
<!-- Generator: Adobe Illustrator 26.0.1, SVG Export Plug-In . SVG Version: 6.00 Build 0)  -->
<svg version="1.1" id="Ebene_1" xmlns="http://www.w3.org/2000/svg" xmlns:xlink="http://www.w3.org/1999/xlink" x="0px" y="0px"
	 viewBox="0 0 1920 1080" style="enable-background:new 0 0 1920 1080;" xml:space="preserve">
<style type="text/css">
	.st0{opacity:0.9;fill:#FFE266;}
	.st1{fill:#D94436;}
	.st2{fill:#009CBF;}
	.st3{fill:#FFFFFF;}
	.st4{fill:#3159A4;}
	.st5{fill:#1D1D1B;}
	.st6{fill:none;stroke:#1D1D1B;stroke-width:0.75;stroke-miterlimit:10;}
	.st7{fill:#222951;}
	.st8{fill:none;}
	.st9{fill:none;stroke:#1D1D1B;stroke-miterlimit:10;}
</style>
<g>
	<path class="st0" d="M537.5,355.6c-3.8-3-7.2-3.7-11.8-1.7c-3.9,1.6-7.2-2.6-5.9-6.7c0.1-0.2,0.1-0.5,0.2-0.7
		c1.7-3.2,1.1-5.8-1.6-8.3c-1.8-1.6-2.7-3.9-1.6-6.3c1.1-2.5,3.3-3.1,5.7-3.1c0.8,0,1.7-0.1,2.5,0c1.9,0.3,2.9-0.6,3.8-2.1
		c0.6-1.1,1.4-2.1,2.1-3.1c2.6-3.3,7.6-2.8,8.8,1.2c1.3,4.3,3.6,6.7,8.2,7.6c3.7,0.7,4.7,5.6,1.6,9c-4.8,1.5-5.1,5.7-4.8,10.6
		C545,355.3,540.3,357.8,537.5,355.6z"/>
	<path class="st0" d="M430,287.7c-3.1,1.6-5.4-0.3-7.6-2.1c-1.7-1.4-3.3-2-5.4-0.8c-1.1,0.6-2.5,1-3.8,1.2c-3.8,0.6-6.8-2.8-5.7-6.6
		c0-0.2,0.1-0.3,0.2-0.5c1.6-3.4,1.7-6.3-1.5-9c-1.9-1.6-2.6-3.9-1.5-6.3c1.1-2.4,3.4-3.3,5.8-2.9c3.7,0.6,5.9-1,7.5-4.1
		c1.1-2.2,2.8-3.5,5.4-3.2c2.5,0.3,4.2,1.8,4.7,4.2c0.8,4,3.3,5.5,7.1,6.3c4.1,0.9,5.5,5.6,2.7,8.8c-0.8,0.6-1.6,1.5-2.7,2.1
		c-2.2,1.2-2.9,2.9-2.5,5.3C433.1,283,433.2,286,430,287.7z"/>
	<path class="st1" d="M577,474c-1.7,1.1-3.4,2.1-5.1,3.2c-0.8,0.5-1.3,1.5-2.1,1.9c-0.9,0.5-2.4,1.3-2.9,0.9c-0.8-0.5-1.4-2-1.2-3
		c0.1-1,1.1-2,2-2.7c2.6-1.8,5.3-3.4,7.9-5.2c4.2-3.1,4.1-7.7-0.4-10.6c-1.7-1.1-3.5-1.8-5.3-2.7c-1.2-0.6-2.4-1.1-3.5-1.9
		c-3-2.1-3.1-5.1-0.1-7.4c1.6-1.2,3.4-2.1,5-3.2c1.3-0.9,2.7-1.7,3.8-2.8c3.1-2.9,2.9-6.7-0.5-9.1c-1.9-1.3-4-2.3-6.1-3.4
		c-1-0.6-2.2-0.9-3.1-1.6c-3.5-2.3-3.7-5.3-0.3-7.8c2.2-1.6,4.6-2.9,6.9-4.4c5.4-3.6,5.2-8.4-0.3-11.7c-2.5-1.5-5.3-2.5-7.7-4
		c-1.1-0.7-2-2.2-2.4-3.5c-0.2-0.6,0.7-2,1.5-2.4c0.6-0.3,1.8,0.2,2.6,0.7c1.2,0.7,2.3,1.8,3.5,2.5c2.3,1.4,4.9,2.5,7.1,4.1
		c5.9,4.3,6,12.4,0.4,16.9c-1.7,1.3-3.6,2.4-5.4,3.5c-0.9,0.6-1.9,1.3-3,2c2.7,1.4,5.1,2.4,7.3,3.8c8.5,5,8.9,14,0.7,19.8
		c-2.1,1.5-4.3,2.7-6.8,4.3c2.5,1.2,4.7,2.2,6.8,3.3C585.6,458.6,585.9,468.1,577,474z"/>
	<path class="st1" d="M436.6,333.8c-3.6-0.9-5.6,1.4-7.7,3.5c-1.3,1.3-2.4,2.8-3.9,3.8c-1.2,0.8-3.1,1.6-4.2,1.1
		c-1.1-0.4-1.8-2.4-2.1-3.8c-0.3-1.4,0-3,0-4.5c0-1.8,0.1-3.7-0.2-5.5c-0.6-3.3-2.7-4.2-5.4-2.2c-2,1.5-3.6,3.4-5.5,5.1
		c-0.7,0.7-1.4,1.4-2.3,1.9c-2.8,1.9-5.1,1-5.5-2.4c-0.3-2.5,0-5.1,0-7.7c0-2.2,0.3-4.9-2.2-5.9c-2.4-1-4,1-5.6,2.4
		c-1.6,1.4-2.8,3.3-4.6,4.6c-1.2,0.9-3,1.6-4.4,1.4c-2-0.3-2.3-2.4-2.4-4.2c0-2.7,0.3-5.5,0-8.2c-0.2-1.6-1.5-3.1-2.2-4.7
		c-0.4-1-0.9-2.6-0.4-3.2c0.5-0.7,2.3-1,3.1-0.6c2.8,1.2,3.8,3.8,4.3,6.6c0.4,2.4,0.6,4.7,0.9,6.8c1.6-1.3,3.5-3.2,5.7-4.6
		c5.4-3.4,10.8-1,12.1,5.2c0.5,2.6,0.5,5.2,0.7,8.2c1.3-1.2,2.4-2.4,3.7-3.4c1.4-1,2.8-2.1,4.4-2.7c4.2-1.7,8.5,0.3,9.7,4.7
		c0.8,3.1,0.9,6.4,1.3,9.9c0.6-0.7,1.1-1.5,1.9-2c2-1.5,4-3.3,6.3-4.3c1.6-0.6,3.7-0.2,5.5,0.2c0.6,0.1,1.4,1.8,1.2,2.5
		C438.6,332.7,437.2,333.9,436.6,333.8z"/>
	<path class="st2" d="M506.1,326.8c4.8-5.9,3.7-14.9-2.6-20c-5.6-4.6-14.7-3.7-19.3,2c-5.1,6.3-4.4,15.1,1.7,20
		C492.3,334,500.9,333.1,506.1,326.8z M488.7,324.9c-3.8-3.5-4.1-9.3-0.5-13.2c3.5-3.8,9.2-4,12.9-0.4c3.9,3.7,4.2,9.2,0.7,12.9
		C498.1,328.1,492.6,328.4,488.7,324.9z"/>
	<path class="st2" d="M337.9,254.6c-5.7-5.2-14.5-4.7-19.7,1.1c-5.4,6-5,14.5,0.9,19.8c6,5.5,14.4,5.2,20-0.9
		C344.4,268.8,343.9,260,337.9,254.6z M322.4,272c-3.9-3.6-4.2-9.2-0.6-13.1c3.5-3.8,9.3-4,13-0.5c3.8,3.6,4.2,9.3,0.8,13
		C331.9,275.3,326.4,275.6,322.4,272z"/>
	<path d="M355.3,294.7c-1.5,1.3-4.4,1.2-6.6,1.1c-1.5-0.1-2.1-1.8-1.4-3.1c0.6-1.2,0.6-1.9,0.1-3.1c-0.7-1.6,0.8-3.4,2.5-2.9
		c1.3,0.3,2.2,0.4,3.3-0.4c0.6-0.4,1.7-0.1,2.7-0.1c0.3,0.9,0.8,1.6,0.7,2.3C356.3,290.6,356.6,293.6,355.3,294.7z"/>
	<path d="M383.9,263.9c-0.6,0.3-1.2,0.6-1.7,0.6c-2,0.1-4.1,0.3-6.1,0.1c-0.4,0-1.2-1.8-1-2c2.1-1.9-1.5-4.9,1.3-6.6
		c0.4-0.2,1.1-0.5,1.4-0.3c1.4,0.8,2.4,0,3.5-0.5c1.7-0.7,3.6,0.8,3.1,2.6c-0.4,1.4-1,2.6-0.2,4.1
		C384.5,262.5,384.1,263.3,383.9,263.9z"/>
	<path d="M506.7,363.4c-2.6,0.2-5.1,0.5-7.6,0.6c-0.4,0-1.3-1.7-1.1-1.9c1.9-2-1.3-4.9,1.3-6.7c0.4-0.3,1.1-0.5,1.4-0.3
		c1.4,0.7,2.4,0.2,3.6-0.5c0.6-0.3,1.8,0.1,2.4,0.6c0.5,0.4,0.9,1.7,0.6,2.2c-0.8,1.3-0.6,2.3-0.1,3.6
		C507.3,361.6,506.9,362.5,506.7,363.4z"/>
	<path d="M548.2,363c-1.4-0.5-2.4-0.2-3.5,0.5c-0.6,0.3-1.5,0-2.4-0.1c-0.3-0.9-0.8-1.6-0.8-2.2c0.3-2.2,0.1-5,1.3-6.2
		c1.3-1.2,4.2-1.1,6.4-1.1c0.6,0,1.7,1.9,1.5,2.8c-0.2,1.2-0.8,2.2-0.1,3.6C551.3,361.6,549.7,363.5,548.2,363z"/>
	<path d="M464.9,337.8c-2.5,0.2-5,0.6-7.6,0.6c-0.4,0-1.3-1.7-1.1-1.9c2-2-1.6-5.4,1.5-6.7c1.7-0.7,3.9,0,5.9-0.8
		c0.3-0.1,2.1,1.8,1.9,2.5c-0.4,1.5-0.6,2.9-0.1,4.4C465.6,336.3,465.2,337,464.9,337.8z"/>
	<path d="M464.3,287.2c-0.6-0.1-1.4-0.5-1.8-0.2c-1.4,1-2.9,1.6-3.9-0.1c-0.6-0.9-0.1-2.4-0.2-3.7c0.1,0,0.1,0,0.2,0
		c0-1.2-0.4-2.6,0.1-3.6c0.7-1.4,2-1.3,3.4-0.6c0.3,0.2,1-0.6,1.6-0.6c0.9-0.1,2.2-0.4,2.7,0.1c0.6,0.6,0.7,1.8,0.8,2.8
		c0.1,0.9-0.2,1.9,0,2.8C467.7,286,466.3,287.6,464.3,287.2z"/>
	<path class="st3" d="M501.1,311.2c-3.7-3.6-9.4-3.4-12.9,0.4c-3.6,3.9-3.4,9.6,0.5,13.2c3.9,3.6,9.4,3.3,13.1-0.7
		C505.3,320.4,505,315,501.1,311.2z M492,321.2c-1.6-1.6-1.7-4.4-0.2-6.1c1.6-1.7,4.3-1.9,6-0.3c1.7,1.6,1.9,4.2,0.3,6
		C496.6,322.7,493.7,322.8,492,321.2z"/>
	<path class="st3" d="M334.8,258.3c-3.7-3.5-9.5-3.2-13,0.5c-3.6,3.9-3.3,9.6,0.6,13.1c3.9,3.6,9.5,3.3,13.1-0.7
		C338.9,267.7,338.6,261.9,334.8,258.3z M325.7,268.4c-1.6-1.5-1.8-4.4-0.3-6.1c1.6-1.8,4.6-1.8,6.2-0.2c1.7,1.7,1.7,4.3,0.1,6
		C330.1,269.8,327.3,269.9,325.7,268.4z"/>
	<path class="st2" d="M497.8,314.8c1.7,1.6,1.9,4.3,0.3,6c-1.6,1.8-4.5,2-6.2,0.3c-1.6-1.6-1.7-4.4-0.2-6.1
		C493.4,313.4,496.1,313.2,497.8,314.8z"/>
	<path d="M331.7,268.1c-1.6,1.7-4.4,1.8-6.1,0.2c-1.6-1.6-1.8-4.4-0.3-6.1c1.6-1.8,4.6-1.8,6.2-0.2
		C333.3,263.8,333.3,266.4,331.7,268.1z"/>
</g>
<g>
	<g>
		<path class="st4" d="M342.4,592.6l-31.8-9.2c-8.6-3.4-11.1,18-13.8,48c-2.7,30-1.9,48.4,5.3,52.4c0.8,0.4,1.6,0.7,2.4,0.7
			l37.8,11.2L342.4,592.6z"/>
		<path class="st0" d="M330.5,404.6c0,0-51.2,84.7,0,151.5c20.1,8.9,111.4,17.8,122.5,0c6.7-13.4,26.5-100.3,7.7-151.5
			C444.2,397.9,366.2,382.3,330.5,404.6z"/>
		<circle class="st5" cx="449.4" cy="459.7" r="6.2"/>
		<circle class="st5" cx="385.1" cy="463.2" r="6.2"/>
		<path class="st6" d="M400.4,528.2c11.5,12.1,31.6,11.6,45-1.1"/>
		<path class="st0" d="M379,565v24.4c0,0,4.4,9.5,14.3,9.5c10.2,0,14.3-9.4,14.3-9.4V566L379,565z"/>
		<polygon class="st1" points="339.5,707.3 357.7,820.7 374,820.7 372.5,723.2 412.3,724.1 417.3,820.7 432.7,820.7 441,709.4 		"/>
		<polygon class="st5" points="357.1,820.7 357.1,828.2 384.7,828.2 373.8,820.7 		"/>
		<polygon class="st5" points="416.7,820.7 416.7,828.2 442.8,828.2 432.5,820.7 		"/>
		<path class="st0" d="M327.5,740.1c-3.5-3.4-5.6-10.5-6.6-19.8h20.2C344.4,745.9,333.2,745.6,327.5,740.1z"/>
		<path class="st0" d="M456.6,728.4c-1,5.4-3.7,11.2-8.1,11.2c-4.4,0-8-1.8-8-7.3c0-1.4-0.7-11.3-0.3-12.5l1-8.6h15.9
			C457.3,718.1,457.3,724.6,456.6,728.4z"/>
		<path class="st7" d="M457.1,711.2h-15.9c0,0-100.2-5-100.2,9.1h-20.2c-4.7-42.2,11.7-130.2,11.7-130.2l46.4-0.4l69.5,0.3l8,104.4
			C456.6,699.3,456.9,705.4,457.1,711.2z"/>
		<g>
			<path class="st2" d="M407.5,578.5l18,0c0,0,17.5,0.9,23,11.6l-41.2-0.2L407.5,578.5z"/>
		</g>
		<path class="st5" d="M341.1,720.3"/>
		<path class="st2" d="M308.1,583.1c0,0,19.7-5.9,70.9-4.9v11.6l-46.4,0.4L308.1,583.1z"/>
		<line class="st8" x1="320.9" y1="720.3" x2="308.1" y2="720.3"/>
		<line class="st6" x1="341.1" y1="720.3" x2="355.4" y2="628.3"/>
		<line class="st6" x1="427.9" y1="626.8" x2="441.2" y2="711.2"/>
		<line class="st8" x1="468.9" y1="711.2" x2="457.1" y2="711.2"/>
		<path d="M288,542.6c-1.9-5.4-46.6-112.1-22.8-150.3c4.5-5.2,20.8-44.1,105.2-30.8c16.6,3.1,42.6,27.6,147.1,15.6
			c-11.2,6.4-50.2,29-50.2,29l4.3,15.3c0,0-85.2,12.8-121.5,5.7c-5,12.4-23.1,25-22,54.1c1.8,15.7,8.9,76.4,8.9,76.4
			s-13.5,26.8-35.6,10.3C295.4,561.4,288,542.6,288,542.6z"/>
	</g>
	<g>
		<polygon class="st4" points="319.9,242.5 375.6,309.3 434.3,378.9 345.5,391 261.2,401 289.8,324.1 		"/>
		<path class="st9" d="M307.8,273.7c0,0,20.9,3.9,34.2-4.1"/>
		<path class="st9" d="M297.7,303c0,0,48,5,61.8-13.3"/>
		<path class="st9" d="M287.9,329c0,0,72.5,5,93.3-13.3"/>
		<path class="st9" d="M275.3,363.7c0,0,102.3,7.8,132.2-17.2"/>
		<path class="st4" d="M261.2,401c0,0,91.6,2.8,173.2-22.1"/>
	</g>
	<g>
		<path class="st4" d="M416.9,536.4l136.4-1.9c0,0,34.6,5.4,32.7-22c-5-13.7-18.5-21.7-32.2-7.8c2.5,10.8,2.5,18.6,14.5,11.7
			C543.8,518.4,416.9,536.4,416.9,536.4z"/>
		<ellipse class="st4" cx="569.1" cy="513.3" rx="17" ry="18.6"/>
	</g>
</g>
<g>
	<path class="st0" d="M292.7,300.6c-1.1,4.9-0.1,8.3,4.1,11.8c3.4,3,1,7.9-3.7,8.4c-0.3,0-0.5,0.1-0.8,0.1c-3.9-0.2-6.2,1.4-7.3,5.1
		c-0.7,2.4-2.5,4.2-5.4,4.2c-2.9,0-4.6-1.7-5.8-4.1c-0.4-0.8-0.9-1.5-1.2-2.3c-0.6-1.9-2-2.5-3.9-2.6c-1.3-0.1-2.7-0.4-4-0.7
		c-4.4-1.1-6.4-5.9-3.1-8.8c3.5-3.1,4.8-6.2,3.4-10.9c-1.1-3.8,3.2-6.8,7.9-5.4c3.8,3.9,8,2.3,12.6-0.1
		C288.8,293.7,293.5,297,292.7,300.6z"/>
	<path class="st0" d="M201.2,390.4c3.1,2.2,2.3,5.2,1.6,8c-0.5,2.2-0.4,3.9,1.8,5.4c1.2,0.8,2.2,1.9,3,3c2.5,3.3,0.5,7.6-3.6,8.2
		c-0.2,0-0.4,0-0.5,0c-4,0-6.9,1.1-8,5.3c-0.6,2.4-2.5,4.1-5.4,4.1c-2.9,0-4.9-1.7-5.7-4.2c-1.2-3.7-3.8-5.1-7.6-5.2
		c-2.6-0.1-4.7-1.1-5.7-3.7c-0.9-2.5-0.3-4.7,1.8-6.2c3.5-2.5,3.8-5.5,2.7-9.3c-1.1-4.2,2.8-7.5,7.2-6.3c0.9,0.5,2.3,0.9,3.3,1.7
		c2.2,1.5,4.2,1.5,6.4,0.1C195.1,389.6,198,388.2,201.2,390.4z"/>
	<path class="st1" d="M320.7,223.6c1.9,1.1,3.6,2.3,5.5,3.4c0.9,0.5,2.1,0.6,2.9,1.2c0.9,0.6,2.4,1.7,2.3,2.4
		c-0.1,1-1.3,2.2-2.3,2.5c-1,0.3-2.5-0.2-3.6-0.7c-3-1.6-5.8-3.6-8.9-5.1c-5.1-2.6-9.5-0.5-10.1,4.9c-0.2,2-0.1,4.1-0.1,6.1
		c0,1.4,0.1,2.8-0.1,4.1c-0.6,3.8-3.5,5.1-7.1,3.3c-1.9-1-3.7-2.2-5.6-3.3c-1.5-0.8-2.9-1.8-4.5-2.4c-4.3-1.6-7.9,0.2-8.6,4.4
		c-0.4,2.3-0.3,4.8-0.3,7.1c0,1.2,0.2,2.4,0,3.6c-0.6,4.3-3.4,5.7-7.4,3.6c-2.6-1.4-5.1-3.1-7.7-4.6c-6.1-3.5-10.7-1.3-11.2,5.4
		c-0.2,3,0.2,6-0.2,9c-0.2,1.4-1.1,2.8-2.2,3.8c-0.5,0.5-2.3,0.2-3.1-0.3c-0.6-0.4-0.7-1.8-0.6-2.7c0.1-1.5,0.6-2.9,0.7-4.4
		c0.2-2.8,0.1-5.7,0.5-8.4c1.3-7.3,9.1-11,16.2-7.7c2.1,1,4,2.4,6,3.5c1.1,0.6,2.1,1.2,3.5,2c0-3.1-0.1-5.8,0.1-8.5
		c0.7-10.2,9.3-14.4,18.8-9.2c2.4,1.3,4.7,2.9,7.4,4.6c0-2.9-0.2-5.3-0.1-7.8C301.6,222.2,310.6,217.8,320.7,223.6z"/>
	<path class="st1" d="M242.6,364.4c0.9,3.8,4.1,4.6,7.1,5.7c1.9,0.7,3.9,1.1,5.6,2.1c1.3,0.8,3,2.3,3.1,3.5c0.1,1.2-1.4,2.7-2.6,3.6
		c-1.2,0.9-2.9,1.2-4.3,1.9c-1.8,0.8-3.6,1.5-5.2,2.5c-2.9,1.9-2.7,4.4,0.5,6c2.4,1.2,5,1.9,7.6,2.9c1,0.4,2,0.8,3,1.3
		c3.2,1.9,3.4,4.4,0.3,6.2c-2.3,1.4-5,2.2-7.5,3.4c-2.1,1-4.9,1.8-4.7,4.6c0.2,2.6,3,3.3,5.1,4.2c2.2,0.9,4.6,1.2,6.7,2.3
		c1.4,0.8,3.1,2.2,3.5,3.6c0.7,2-1.2,3.2-2.9,4c-2.6,1.2-5.5,2.1-8,3.6c-1.5,0.9-2.2,2.8-3.5,4c-0.8,0.8-2.1,1.9-2.9,1.8
		c-0.9-0.2-2-1.7-2.1-2.7c-0.2-3.1,1.9-5.2,4.3-6.8c2.1-1.4,4.3-2.6,6.1-3.7c-2-0.9-4.8-1.9-7.2-3.4c-5.9-3.6-6.3-9.7-0.8-13.6
		c2.2-1.6,4.8-2.7,7.6-4.2c-1.8-0.7-3.5-1.2-5.1-2c-1.7-0.9-3.4-1.8-4.8-3c-3.6-3.2-3.8-8-0.2-11.1c2.6-2.1,5.7-3.6,8.9-5.5
		c-0.9-0.3-2-0.4-2.8-0.9c-2.5-1.3-5.2-2.3-7.2-4.1c-1.4-1.2-2-3.4-2.5-5.2c-0.2-0.6,1.1-2,1.9-2.2
		C240.6,363,242.5,363.8,242.6,364.4z"/>
	<path class="st2" d="M202.2,302.3c-8-2-16.3,3-18.2,11c-1.7,7.3,3.6,15.3,11.3,17.2c8.6,2.1,16.8-2.4,18.6-10.2
		C215.8,312.2,210.8,304.4,202.2,302.3z M208.7,319.4c-1.6,5.1-7.1,7.8-12.5,6.1c-5.4-1.7-8.3-6.9-6.7-11.9
		c1.7-5.2,6.9-7.9,12.2-6.2C207.3,309.2,210.3,314.2,208.7,319.4z"/>
	<path class="st2" d="M213.6,491.1c-2.3,7.5,2.5,15.6,10.6,18c8.4,2.4,16.4-1.6,18.8-9.4c2.4-8-2-15.7-10.5-18.4
		C224.3,478.8,216,483.1,213.6,491.1z M238,498c-1.6,5.2-6.9,7.9-12.4,6.3c-5.3-1.6-8.4-7-6.8-11.9c1.6-5.1,7-7.9,12.2-6.3
		C236.6,487.7,239.6,492.8,238,498z"/>
	<path d="M244.1,457.4c1.9,0.8,3.3,3.6,4.2,5.8c0.7,1.5-0.7,2.7-2.3,2.6c-1.4-0.1-2.1,0.3-3,1.3c-1.3,1.3-3.6,0.7-4-1.1
		c-0.3-1.3-0.7-2.2-2-2.9c-0.7-0.4-0.9-1.5-1.4-2.5c0.8-0.7,1.2-1.4,1.9-1.6C239.7,458.2,242.4,456.7,244.1,457.4z"/>
	<path d="M200.4,443.8c0.6,0.5,1.2,0.8,1.5,1.3c1.1,1.9,2.3,3.7,3.1,5.7c0.2,0.4-1.2,1.9-1.4,1.8c-2.9-1.1-4,3.6-7,1.6
		c-0.4-0.3-1-0.8-0.9-1.2c0.1-1.6-1.1-2.2-2.2-3.1c-1.5-1.3-0.9-3.8,1-4c1.6-0.2,3-0.2,4-1.6C198.7,443.9,199.7,444,200.4,443.8z"/>
	<path d="M237.4,286c1.5,2.4,3,4.6,4.3,6.9c0.2,0.4-1.1,1.9-1.3,1.9c-2.9-0.9-4.2,3.4-7.1,1.7c-0.4-0.2-1-0.8-1-1.2
		c0-1.6-1-2.3-2.2-3.2c-0.6-0.4-0.8-1.8-0.6-2.5c0.2-0.6,1.2-1.5,1.8-1.5c1.6,0.2,2.6-0.4,3.6-1.5
		C235.3,286.1,236.4,286.2,237.4,286z"/>
	<path d="M216.8,247.2c0.2,1.6,0.9,2.3,2.2,3.1c0.6,0.4,0.7,1.4,1.1,2.3c-0.7,0.7-1.1,1.5-1.8,1.7c-2.2,0.7-4.9,2.1-6.7,1.4
		c-1.9-0.7-3.1-3.5-4.1-5.5c-0.3-0.5,1-2.4,1.9-2.6c1.3-0.3,2.5-0.2,3.5-1.4C214,244.9,216.6,245.6,216.8,247.2z"/>
	<path d="M232.8,336.1c1.4,2.3,3,4.5,4.3,6.8c0.2,0.3-1.1,1.9-1.3,1.9c-2.9-1-4.5,3.8-7.2,1.5c-1.5-1.3-1.9-3.7-3.7-5.1
		c-0.3-0.2,0.8-2.7,1.5-2.8c1.7-0.2,3.1-0.7,4.3-1.8C231,336.1,231.8,336.2,232.8,336.1z"/>
	<path d="M184,358.5c0.2,0.6,0.2,1.5,0.7,1.7c1.6,0.9,2.9,2,1.8,3.7c-0.6,0.9-2.3,1.2-3.5,1.7c0-0.1-0.1-0.1-0.1-0.2
		c-1.2,0.5-2.3,1.5-3.5,1.5c-1.7,0-2.3-1.4-2.2-3c0-0.4-1.1-0.7-1.4-1.2c-0.6-0.8-1.5-1.9-1.2-2.5c0.2-0.8,1.4-1.5,2.3-2
		c0.9-0.5,2-0.6,2.8-1.2C181.2,355.8,183.4,356.5,184,358.5z"/>
	<path class="st3" d="M189.5,313.6c-1.6,5,1.3,10.2,6.7,11.9c5.5,1.7,11-1,12.5-6.1c1.6-5.2-1.4-10.2-7-12
		C196.3,305.8,191.2,308.4,189.5,313.6z M203.5,317.9c-0.7,2.2-3.4,3.5-5.8,2.8c-2.5-0.8-3.9-3.2-3.2-5.5c0.7-2.3,3.2-3.6,5.7-2.9
		C202.7,313,204.3,315.6,203.5,317.9z"/>
	<path class="st3" d="M218.8,492.3c-1.6,4.9,1.5,10.3,6.8,11.9c5.5,1.7,10.9-1,12.4-6.3c1.6-5.2-1.4-10.3-7-12
		C225.8,484.4,220.4,487.2,218.8,492.3z M232.9,496.6c-0.7,2.2-3.4,3.6-5.8,2.9c-2.5-0.7-4-3.5-3.2-5.8c0.8-2.3,3.4-3.5,5.8-2.7
		C232.2,491.8,233.7,494.3,232.9,496.6z"/>
	<path class="st2" d="M194.5,315.2c0.7-2.3,3.2-3.6,5.7-2.9c2.5,0.7,4.1,3.4,3.3,5.7c-0.7,2.2-3.4,3.5-5.8,2.8
		C195.3,319.9,193.9,317.5,194.5,315.2z"/>
	<path class="st2" d="M229.8,491c2.4,0.8,3.9,3.4,3.2,5.6c-0.7,2.2-3.4,3.6-5.8,2.9c-2.5-0.7-4-3.5-3.2-5.8
		C224.8,491.4,227.4,490.2,229.8,491z"/>
</g>
<g>
	<path class="st0" d="M379.7,235.8c-2.7-0.8-4.6-0.4-6.6,1.6c-1.7,1.7-4.3,0.1-4.5-2.3c0-0.1,0-0.3,0-0.4c0.2-2-0.6-3.3-2.6-4
		c-1.3-0.5-2.2-1.5-2.2-3c0.1-1.5,1.1-2.3,2.4-2.8c0.4-0.2,0.9-0.4,1.3-0.5c1-0.2,1.4-0.9,1.5-1.9c0.1-0.7,0.3-1.4,0.5-2.1
		c0.7-2.3,3.4-3.1,4.9-1.2c1.6,2,3.3,2.8,5.9,2.3c2.1-0.4,3.7,2,2.7,4.4c-2.2,1.8-1.5,4.1-0.3,6.6
		C383.6,234,381.7,236.3,379.7,235.8z"/>
	<path class="st0" d="M332.8,183.7c-1.3,1.5-2.9,1-4.5,0.5c-1.2-0.4-2.2-0.4-3,0.7c-0.5,0.6-1.1,1.1-1.7,1.4
		c-1.9,1.1-4.2-0.1-4.4-2.3c0-0.1,0-0.2,0-0.3c0.1-2.1-0.4-3.7-2.7-4.4c-1.3-0.4-2.2-1.5-2.1-3c0.1-1.5,1.1-2.5,2.4-2.8
		c2.1-0.5,2.9-1.8,3.1-3.7c0.1-1.4,0.8-2.4,2.2-2.8c1.4-0.4,2.6,0.1,3.3,1.2c1.3,2,2.9,2.2,5.1,1.8c2.3-0.4,4.1,1.8,3.3,4.1
		c-0.3,0.5-0.6,1.1-1,1.7c-0.9,1.1-0.9,2.1-0.2,3.3C333.5,180.6,334.2,182.1,332.8,183.7z"/>
	<path class="st1" d="M421.2,253.9c-0.6,0.9-1.4,1.8-2,2.7c-0.3,0.5-0.4,1.1-0.7,1.5c-0.4,0.5-1,1.2-1.4,1.1
		c-0.5-0.1-1.2-0.8-1.3-1.3c-0.1-0.5,0.1-1.3,0.5-1.8c1-1.5,2.1-2.9,3.1-4.4c1.6-2.5,0.5-4.9-2.4-5.5c-1.1-0.2-2.2-0.2-3.4-0.3
		c-0.8-0.1-1.5-0.1-2.2-0.3c-2.1-0.5-2.7-2.1-1.6-3.9c0.6-1,1.3-1.8,2-2.8c0.5-0.7,1-1.5,1.4-2.3c1-2.2,0.1-4.1-2.2-4.7
		c-1.3-0.3-2.6-0.4-3.9-0.5c-0.7-0.1-1.3,0-2-0.2c-2.3-0.5-3-2-1.8-4c0.8-1.3,1.8-2.5,2.7-3.8c2.1-3,1-5.5-2.6-6.1
		c-1.6-0.2-3.3-0.2-4.9-0.5c-0.7-0.1-1.5-0.7-2-1.3c-0.2-0.3-0.1-1.2,0.3-1.6c0.3-0.3,1-0.3,1.5-0.2c0.8,0.1,1.6,0.5,2.4,0.6
		c1.5,0.3,3.1,0.3,4.6,0.7c4,1,5.8,5.3,3.8,8.8c-0.6,1.1-1.4,2-2.1,3c-0.4,0.5-0.7,1.1-1.2,1.7c1.7,0.2,3.2,0.2,4.6,0.4
		c5.6,0.9,7.6,5.5,4.5,10.3c-0.8,1.2-1.7,2.3-2.7,3.7c1.6,0.1,2.9,0.2,4.3,0.3C422.5,244,424.7,248.9,421.2,253.9z"/>
	<path class="st1" d="M346,206.6c-2.1,0.3-2.6,1.9-3.3,3.5c-0.4,0.9-0.7,2-1.3,2.8c-0.5,0.7-1.3,1.5-2,1.5c-0.7,0-1.4-0.9-1.9-1.5
		c-0.5-0.7-0.6-1.6-0.9-2.4c-0.4-1-0.7-2-1.3-2.8c-1-1.6-2.3-1.6-3.3,0c-0.7,1.2-1.2,2.6-1.8,3.8c-0.2,0.5-0.5,1-0.8,1.5
		c-1.1,1.6-2.5,1.6-3.4-0.1c-0.7-1.3-1.1-2.7-1.6-4.1c-0.5-1.2-0.9-2.6-2.4-2.7c-1.5,0-1.9,1.4-2.4,2.5c-0.5,1.1-0.8,2.3-1.4,3.4
		c-0.5,0.7-1.3,1.5-2,1.7c-1.1,0.2-1.7-0.8-2.1-1.7c-0.6-1.4-1-3-1.7-4.3c-0.5-0.8-1.5-1.3-2.1-2c-0.4-0.5-1-1.2-0.9-1.6
		c0.1-0.4,1-1,1.5-1c1.7,0,2.8,1.2,3.6,2.6c0.7,1.2,1.3,2.4,1.9,3.4c0.6-1,1.2-2.4,2-3.6c2.2-2.9,5.5-2.8,7.5,0.2
		c0.8,1.2,1.3,2.7,2.1,4.2c0.4-0.9,0.8-1.8,1.2-2.6c0.5-0.8,1.1-1.7,1.8-2.4c1.9-1.8,4.5-1.6,6.1,0.4c1.1,1.4,1.8,3.2,2.8,4.9
		c0.2-0.5,0.3-1,0.6-1.4c0.8-1.2,1.4-2.6,2.4-3.6c0.7-0.7,1.9-0.9,2.9-1.1c0.3-0.1,1.1,0.7,1.2,1.1
		C346.9,205.6,346.4,206.5,346,206.6z"/>
	<path class="st2" d="M381.2,188.3c1.3-4.1-1.2-8.7-5.6-10c-3.9-1.2-8.5,1.2-9.8,5.1c-1.4,4.4,0.9,8.9,5.1,10.2
		C375.4,195,379.8,192.7,381.2,188.3z M371.6,190.9c-2.8-1.1-4.1-4.1-3-6.8c1.1-2.7,4-4,6.7-2.9c2.8,1.1,4.1,4,3.1,6.7
		C377.3,190.7,374.4,192,371.6,190.9z"/>
	<path class="st2" d="M277.3,185.6c-4.1-1.5-8.6,0.6-10.1,4.7c-1.6,4.3,0.4,8.7,4.7,10.3c4.3,1.6,8.7-0.3,10.4-4.7
		C283.7,191.8,281.6,187.2,277.3,185.6z M272.8,198c-2.8-1.1-4.2-4-3.1-6.8c1-2.7,4.1-4.1,6.7-3c2.8,1.1,4.2,4.1,3.1,6.7
		C278.5,197.8,275.6,199.1,272.8,198z"/>
	<path d="M294.9,203.1c-0.5,1-2.1,1.5-3.3,2c-0.8,0.3-1.5-0.5-1.4-1.3c0.1-0.7-0.1-1.1-0.6-1.6c-0.7-0.7-0.3-1.9,0.7-2.1
		c0.7-0.1,1.2-0.2,1.6-0.9c0.2-0.3,0.9-0.4,1.4-0.6c0.3,0.4,0.7,0.7,0.8,1.1C294.6,200.7,295.4,202.2,294.9,203.1z"/>
	<path d="M303.6,180.8c-0.3,0.3-0.5,0.6-0.8,0.7c-1,0.5-2.1,1-3.2,1.4c-0.2,0.1-1-0.7-0.9-0.8c0.7-1.5-1.9-2.3-0.7-3.8
		c0.2-0.2,0.5-0.5,0.7-0.4c0.9,0.1,1.2-0.5,1.8-1c0.7-0.7,2.1-0.3,2.2,0.7c0.1,0.8,0,1.6,0.8,2.2
		C303.6,179.9,303.5,180.5,303.6,180.8z"/>
	<path d="M389.2,207.5c-1.3,0.7-2.6,1.4-3.9,1.9c-0.2,0.1-1-0.7-1-0.8c0.6-1.5-1.7-2.3-0.7-3.8c0.1-0.2,0.5-0.5,0.7-0.5
		c0.9,0.1,1.3-0.4,1.8-1c0.2-0.3,1-0.3,1.4-0.2c0.3,0.1,0.8,0.7,0.8,1c-0.2,0.9,0.2,1.4,0.7,1.9
		C389.2,206.4,389.1,206.9,389.2,207.5z"/>
	<path d="M411,198.5c-0.9,0-1.3,0.4-1.8,1c-0.2,0.3-0.8,0.3-1.3,0.5c-0.4-0.4-0.8-0.7-0.9-1c-0.3-1.2-1-2.7-0.6-3.6
		c0.4-0.9,2-1.5,3.2-1.9c0.3-0.1,1.3,0.7,1.4,1.1c0.1,0.7,0,1.3,0.7,1.9C412.4,197.1,411.9,198.5,411,198.5z"/>
	<path d="M361.8,202.8c-1.3,0.7-2.5,1.4-3.9,1.9c-0.2,0.1-1-0.7-1-0.8c0.6-1.5-2-2.5-0.6-3.8c0.8-0.7,2.1-0.8,2.9-1.7
		c0.1-0.1,1.5,0.5,1.5,0.9c0.1,0.9,0.3,1.7,0.9,2.3C361.9,201.8,361.8,202.3,361.8,202.8z"/>
	<path d="M350.8,176.2c-0.3,0.1-0.8,0.1-1,0.3c-0.5,0.8-1.2,1.4-2.1,0.8c-0.5-0.4-0.6-1.3-0.9-1.9c0,0,0.1,0,0.1-0.1
		c-0.3-0.6-0.8-1.3-0.7-1.9c0-0.9,0.8-1.1,1.7-1c0.2,0,0.4-0.5,0.7-0.7c0.5-0.3,1.1-0.7,1.4-0.5c0.4,0.2,0.8,0.8,1,1.3
		c0.3,0.5,0.3,1.1,0.6,1.5C352.4,174.9,352,176,350.8,176.2z"/>
	<path class="st3" d="M375.3,181.1c-2.7-1.1-5.7,0.2-6.7,2.9c-1.1,2.8,0.3,5.8,3,6.8c2.8,1.1,5.7-0.3,6.8-3.1
		C379.5,185.1,378.1,182.3,375.3,181.1z M372.6,188.3c-1.2-0.5-1.8-2-1.4-3.2c0.5-1.3,1.9-1.9,3.1-1.4c1.2,0.5,1.9,1.8,1.4,3.1
		C375.3,188.1,373.8,188.8,372.6,188.3z"/>
	<path class="st3" d="M276.5,188.2c-2.7-1.1-5.7,0.3-6.7,3c-1.1,2.8,0.3,5.7,3.1,6.8c2.8,1.1,5.7-0.3,6.8-3.1
		C280.6,192.3,279.2,189.3,276.5,188.2z M273.7,195.4c-1.2-0.5-1.9-2-1.4-3.2c0.5-1.3,2-1.9,3.3-1.4c1.2,0.5,1.8,1.9,1.3,3.2
		C276.4,195.3,274.9,195.9,273.7,195.4z"/>
	<path class="st2" d="M374.3,183.7c1.2,0.5,1.9,1.8,1.4,3.1c-0.5,1.3-2,2-3.2,1.5c-1.2-0.5-1.8-2-1.4-3.2
		C371.7,183.9,373.1,183.2,374.3,183.7z"/>
	<path class="st2" d="M276.9,194.1c-0.5,1.2-2,1.9-3.1,1.4c-1.2-0.5-1.9-2-1.4-3.2c0.5-1.3,2-1.9,3.3-1.4
		C276.8,191.4,277.4,192.8,276.9,194.1z"/>
</g>
<g>
	<path class="st0" d="M236.8,257.6c-0.9,2.6-0.6,4.5,1.3,6.7c1.6,1.8-0.1,4.3-2.5,4.4c-0.1,0-0.3,0-0.4,0c-2-0.3-3.3,0.5-4.2,2.4
		c-0.5,1.3-1.6,2.1-3.1,2c-1.5-0.1-2.3-1.2-2.7-2.5c-0.1-0.4-0.4-0.9-0.5-1.3c-0.2-1-0.8-1.5-1.8-1.6c-0.7-0.1-1.4-0.3-2-0.6
		c-2.2-0.8-2.9-3.6-1-5c2.1-1.5,2.9-3.2,2.5-5.8c-0.3-2.1,2.1-3.6,4.5-2.5c1.7,2.3,4,1.7,6.6,0.6
		C235.2,253.6,237.4,255.6,236.8,257.6z"/>
	<path class="st0" d="M182.5,301.9c1.5,1.4,0.8,3,0.3,4.5c-0.4,1.2-0.5,2.1,0.5,3c0.5,0.5,1,1.1,1.4,1.8c1.1,1.9-0.3,4.2-2.5,4.3
		c-0.1,0-0.2,0-0.3,0c-2.1-0.2-3.7,0.3-4.6,2.5c-0.5,1.3-1.6,2.1-3.1,2c-1.5-0.2-2.4-1.2-2.6-2.6c-0.4-2.1-1.6-3-3.6-3.3
		c-1.4-0.2-2.4-0.9-2.7-2.3c-0.3-1.4,0.2-2.6,1.4-3.3c2-1.2,2.4-2.8,2.1-5c-0.3-2.3,2-4,4.2-3.1c0.5,0.3,1.1,0.6,1.6,1.1
		c1,1,2.1,1,3.3,0.4C179.4,301.1,181,300.4,182.5,301.9z"/>
	<path class="st1" d="M256.9,217c0.9,0.7,1.7,1.5,2.6,2.1c0.4,0.3,1,0.4,1.4,0.8c0.4,0.4,1.1,1.1,1,1.4c-0.1,0.5-0.8,1.1-1.4,1.2
		s-1.3-0.2-1.8-0.6c-1.5-1-2.8-2.2-4.3-3.3c-2.5-1.7-4.9-0.8-5.6,2.1c-0.3,1.1-0.3,2.2-0.5,3.3c-0.1,0.7-0.2,1.5-0.4,2.2
		c-0.6,2-2.2,2.6-3.9,1.4c-0.9-0.6-1.8-1.4-2.7-2.1c-0.7-0.5-1.4-1.1-2.2-1.5c-2.1-1.1-4.1-0.3-4.8,2c-0.4,1.3-0.5,2.6-0.7,3.9
		c-0.1,0.7-0.1,1.3-0.3,2c-0.6,2.3-2.2,2.9-4.1,1.6c-1.3-0.9-2.4-2-3.7-2.9c-2.9-2.2-5.5-1.3-6.2,2.3c-0.3,1.6-0.3,3.3-0.7,4.9
		c-0.2,0.7-0.8,1.5-1.4,1.9c-0.3,0.2-1.2,0-1.6-0.3c-0.3-0.3-0.2-1-0.1-1.5c0.2-0.8,0.5-1.6,0.7-2.3c0.3-1.5,0.4-3.1,0.9-4.6
		c1.2-3.9,5.5-5.5,9-3.3c1,0.6,1.9,1.5,2.9,2.2c0.5,0.4,1,0.8,1.7,1.3c0.2-1.7,0.4-3.2,0.7-4.6c1.1-5.5,5.9-7.4,10.5-4
		c1.2,0.8,2.2,1.8,3.6,2.9c0.2-1.6,0.3-2.9,0.5-4.2C247.1,215.2,252.1,213.3,256.9,217z"/>
	<path class="st1" d="M206,289.8c0.2,2.1,1.8,2.7,3.3,3.5c0.9,0.5,2,0.8,2.8,1.4c0.6,0.5,1.4,1.4,1.4,2.1c0,0.7-0.9,1.4-1.6,1.8
		c-0.7,0.4-1.6,0.5-2.4,0.8c-1,0.3-2,0.6-2.9,1.1c-1.7,0.9-1.7,2.2-0.2,3.3c1.2,0.8,2.5,1.3,3.7,2c0.5,0.3,1,0.5,1.5,0.9
		c1.5,1.2,1.5,2.6-0.3,3.4c-1.3,0.6-2.8,0.9-4.1,1.4c-1.2,0.4-2.7,0.7-2.8,2.3c-0.1,1.4,1.3,2,2.3,2.6c1.1,0.6,2.3,0.9,3.3,1.6
		c0.7,0.5,1.4,1.3,1.6,2.1c0.2,1.1-0.9,1.7-1.8,2c-1.5,0.5-3,0.8-4.4,1.5c-0.8,0.4-1.4,1.4-2.1,2c-0.5,0.4-1.2,1-1.6,0.8
		c-0.4-0.1-0.9-1-0.9-1.6c0.1-1.7,1.4-2.7,2.8-3.5c1.2-0.6,2.4-1.2,3.5-1.7c-1-0.6-2.3-1.3-3.5-2.2c-2.8-2.3-2.6-5.6,0.6-7.5
		c1.3-0.7,2.7-1.2,4.3-1.9c-0.9-0.5-1.8-0.8-2.5-1.4c-0.8-0.6-1.6-1.1-2.3-1.9c-1.7-2-1.4-4.6,0.7-6.1c1.5-1,3.2-1.6,5.1-2.5
		c-0.5-0.2-1-0.3-1.4-0.6c-1.2-0.8-2.5-1.5-3.5-2.6c-0.6-0.7-0.8-2-0.9-3c0-0.3,0.7-1.1,1.1-1.1C205.1,288.9,206,289.5,206,289.8z"
		/>
	<path class="st2" d="M189.4,253.8c-4-1.5-8.7,0.8-10.3,5.1c-1.4,3.9,0.7,8.6,4.6,10c4.4,1.6,8.9-0.4,10.4-4.6
		C195.8,259.9,193.8,255.4,189.4,253.8z M191.6,263.5c-1.2,2.7-4.3,3.9-7,2.7c-2.7-1.2-3.8-4.2-2.6-6.9c1.3-2.8,4.2-3.9,6.8-2.8
		C191.6,257.8,192.8,260.7,191.6,263.5z"/>
	<path class="st2" d="M181.7,357.4c-1.7,4,0.2,8.6,4.2,10.4c4.2,1.8,8.7,0,10.5-4.2c1.9-4.3,0.1-8.7-4.2-10.6
		C188.1,351.3,183.5,353.2,181.7,357.4z M193.9,362.5c-1.2,2.8-4.2,4-6.9,2.8c-2.7-1.2-3.9-4.3-2.7-6.9c1.2-2.7,4.3-4,6.8-2.8
		C193.9,356.8,195.1,359.7,193.9,362.5z"/>
	<path d="M200,340.7c0.9,0.6,1.4,2.1,1.8,3.4c0.3,0.8-0.6,1.4-1.4,1.3c-0.7-0.1-1.1,0.1-1.7,0.5c-0.8,0.7-2,0.2-2-0.8
		c-0.1-0.7-0.2-1.2-0.8-1.7c-0.3-0.2-0.3-0.9-0.5-1.4c0.4-0.3,0.7-0.7,1.1-0.8C197.6,340.9,199.2,340.2,200,340.7z"/>
	<path d="M178.2,331c0.3,0.3,0.5,0.5,0.7,0.8c0.4,1.1,0.9,2.1,1.2,3.3c0.1,0.2-0.7,1-0.9,0.9c-1.4-0.7-2.4,1.7-3.8,0.5
		c-0.2-0.2-0.4-0.5-0.4-0.7c0.2-0.9-0.4-1.3-0.9-1.8c-0.7-0.8-0.2-2.1,0.8-2.1c0.8,0,1.6,0.1,2.2-0.7
		C177.3,330.9,177.8,331,178.2,331z"/>
	<path d="M209,246.7c0.6,1.4,1.2,2.7,1.7,4c0.1,0.2-0.7,1-0.8,0.9c-1.4-0.6-2.4,1.6-3.8,0.5c-0.2-0.2-0.4-0.5-0.4-0.7
		c0.1-0.9-0.3-1.3-0.9-1.9c-0.3-0.2-0.3-1-0.1-1.4c0.1-0.3,0.8-0.8,1.1-0.7c0.8,0.2,1.4-0.1,2-0.6
		C207.9,246.7,208.4,246.8,209,246.7z"/>
	<path d="M201.1,224.5c0,0.9,0.3,1.3,0.9,1.8c0.3,0.2,0.3,0.8,0.4,1.3c-0.4,0.3-0.7,0.7-1,0.8c-1.2,0.3-2.7,0.9-3.6,0.4
		c-0.9-0.5-1.4-2.1-1.8-3.2c-0.1-0.3,0.7-1.3,1.2-1.3c0.7-0.1,1.3,0,1.9-0.6C199.8,223,201.1,223.6,201.1,224.5z"/>
	<path d="M202.9,273.8c0.6,1.3,1.2,2.6,1.7,3.9c0.1,0.2-0.7,1-0.8,0.9c-1.4-0.7-2.6,1.9-3.9,0.4c-0.7-0.8-0.7-2.1-1.5-3
		c-0.1-0.1,0.6-1.5,1-1.5c0.9,0,1.7-0.2,2.4-0.8C202,273.7,202.4,273.9,202.9,273.8z"/>
	<path d="M175.9,283.5c0,0.3,0,0.8,0.2,1c0.8,0.6,1.4,1.3,0.7,2.1c-0.4,0.5-1.3,0.5-2,0.8c0,0,0-0.1,0-0.1c-0.6,0.2-1.3,0.7-1.9,0.6
		c-0.9-0.1-1.1-0.9-0.9-1.7c0-0.2-0.5-0.5-0.6-0.8c-0.2-0.5-0.6-1.1-0.5-1.4c0.2-0.4,0.8-0.7,1.3-1c0.5-0.2,1.1-0.2,1.5-0.5
		C174.6,281.9,175.7,282.4,175.9,283.5z"/>
	<path class="st3" d="M182,259.3c-1.2,2.7-0.1,5.7,2.6,6.9c2.7,1.2,5.8,0,7-2.7c1.2-2.7,0-5.7-2.8-6.9
		C186.1,255.4,183.3,256.5,182,259.3z M189,262.4c-0.5,1.2-2,1.7-3.2,1.2c-1.2-0.5-1.8-2-1.3-3.2c0.5-1.2,1.9-1.8,3.2-1.3
		C188.9,259.6,189.6,261.2,189,262.4z"/>
	<path class="st3" d="M184.3,358.4c-1.2,2.6,0,5.7,2.7,6.9c2.8,1.2,5.7,0,6.9-2.8c1.2-2.8,0-5.7-2.8-6.9
		C188.5,354.4,185.5,355.7,184.3,358.4z M191.3,361.4c-0.5,1.2-2,1.8-3.2,1.3c-1.2-0.5-1.8-2.1-1.2-3.3c0.6-1.2,2-1.7,3.2-1.2
		C191.3,358.8,191.9,360.3,191.3,361.4z"/>
	<path class="st2" d="M184.5,260.4c0.5-1.2,1.9-1.8,3.2-1.3c1.3,0.5,1.9,2.1,1.3,3.3c-0.5,1.2-2,1.7-3.2,1.2
		C184.5,263.1,184,261.6,184.5,260.4z"/>
	<path class="st2" d="M190.1,358.2c1.2,0.5,1.8,2,1.2,3.2c-0.5,1.2-2,1.8-3.2,1.3c-1.2-0.5-1.8-2.1-1.2-3.3
		C187.5,358.2,188.9,357.7,190.1,358.2z"/>
</g>
<g>
	<path d="M509.1,638.2c-4,0-7.7-0.8-11.1-2.3c-3.4-1.5-6.4-3.6-9-6.4c-2.6-2.7-4.6-5.9-6-9.5c-1.4-3.6-2.2-7.6-2.2-11.8
		c0-4.1,0.7-7.9,2-11.5c1.4-3.6,3.3-6.8,5.8-9.6c2.5-2.8,5.6-4.9,9.2-6.5c3.6-1.6,7.6-2.4,12.1-2.4c2.5,0,5.1,0.3,7.6,0.8
		c2.6,0.6,5,1.4,7.4,2.5s4.5,2.4,6.4,4l-5.3,8.8c-2-1.9-4.5-3.4-7.4-4.4c-2.9-1-5.7-1.6-8.5-1.6c-2.8,0-5.2,0.5-7.3,1.5
		c-2.1,1-3.9,2.3-5.3,4.1c-1.4,1.8-2.5,3.8-3.3,6.1c-0.7,2.3-1.1,4.9-1.1,7.6c0,3,0.4,5.7,1.3,8.2c0.8,2.4,2,4.6,3.5,6.3
		s3.3,3.1,5.3,4.1c2,1,4.2,1.4,6.5,1.4c1.9,0,3.7-0.3,5.4-0.9s3.3-1.5,4.6-2.6c1.4-1.1,2.4-2.4,3.2-4s1.2-3.2,1.2-5v-0.9h-15.2v-8.8
		h26.7v8.8c0,3.5-0.7,6.7-2.2,9.6c-1.5,2.9-3.4,5.4-6,7.5c-2.5,2.1-5.4,3.7-8.5,4.9C515.8,637.6,512.5,638.2,509.1,638.2z"/>
	<path d="M563.4,638.2c-3.9,0-7.5-0.8-10.7-2.4c-3.2-1.6-5.7-3.9-7.6-6.7c-1.9-2.9-2.8-6.2-2.8-9.9s0.9-7,2.8-9.9
		c1.9-2.9,4.4-5.1,7.6-6.7c3.2-1.6,6.7-2.4,10.7-2.4c4,0,7.5,0.8,10.7,2.4c3.2,1.6,5.7,3.9,7.5,6.7s2.8,6.2,2.8,9.9s-0.9,7-2.8,9.9
		c-1.9,2.9-4.4,5.1-7.5,6.7C570.9,637.3,567.4,638.2,563.4,638.2z M563.4,629c1.8,0,3.5-0.4,5-1.3c1.5-0.8,2.7-2,3.5-3.5
		c0.9-1.5,1.3-3.2,1.3-5.1s-0.4-3.6-1.3-5.1c-0.9-1.5-2-2.6-3.5-3.5c-1.5-0.8-3.2-1.3-5-1.3c-1.8,0-3.5,0.4-5,1.3
		c-1.5,0.8-2.7,2-3.5,3.5c-0.9,1.5-1.3,3.2-1.3,5.1s0.4,3.6,1.3,5.1c0.9,1.5,2,2.6,3.5,3.5C559.9,628.6,561.6,629,563.4,629z"/>
	<path d="M614.3,637v-27.7h-4.8v-8.2h4.8v-8.9c0-3.4,0.5-6.3,1.6-8.8c1.1-2.5,2.6-4.4,4.5-5.7s4.3-2,7.1-2c1.7,0,3.4,0.3,5.1,0.8
		c1.7,0.5,3.1,1.3,4.2,2.2l-3.7,7.5c-1.1-0.7-2.3-1-3.7-1c-1.2,0-2.1,0.3-2.7,0.9c-0.6,0.6-1,1.5-1.3,2.6c-0.2,1.1-0.3,2.4-0.3,3.8
		v8.6h8.5v8.2h-8.5V637H614.3z"/>
	<path d="M659.4,638.2c-3.9,0-7.5-0.8-10.7-2.4c-3.2-1.6-5.7-3.9-7.6-6.7c-1.9-2.9-2.8-6.2-2.8-9.9s0.9-7,2.8-9.9
		c1.9-2.9,4.4-5.1,7.6-6.7c3.2-1.6,6.7-2.4,10.7-2.4c4,0,7.5,0.8,10.7,2.4c3.2,1.6,5.7,3.9,7.5,6.7s2.8,6.2,2.8,9.9s-0.9,7-2.8,9.9
		c-1.9,2.9-4.4,5.1-7.5,6.7C666.9,637.3,663.4,638.2,659.4,638.2z M659.4,629c1.8,0,3.5-0.4,5-1.3c1.5-0.8,2.7-2,3.5-3.5
		c0.9-1.5,1.3-3.2,1.3-5.1s-0.4-3.6-1.3-5.1c-0.9-1.5-2-2.6-3.5-3.5c-1.5-0.8-3.2-1.3-5-1.3c-1.8,0-3.5,0.4-5,1.3
		c-1.5,0.8-2.7,2-3.5,3.5c-0.9,1.5-1.3,3.2-1.3,5.1s0.4,3.6,1.3,5.1c0.9,1.5,2,2.6,3.5,3.5C655.9,628.6,657.6,629,659.4,629z"/>
	<path d="M689.8,637v-35.8h10.7v5.1c1.3-2,3-3.6,4.9-4.6c1.9-1.1,4-1.6,6.2-1.6c1.3,0,2.6,0.2,3.9,0.6c1.4,0.4,2.5,0.9,3.4,1.4
		l-4.5,9.1c-0.8-0.5-1.7-1-2.8-1.3c-1.1-0.3-2-0.5-3-0.5c-1.4,0-2.7,0.4-4,1.1c-1.3,0.7-2.3,1.7-3,2.8c-0.8,1.2-1.2,2.4-1.2,3.7v20
		H689.8z"/>
	<path d="M745.3,637v-57.8h15.9c4.1,0,7.9,0.7,11.4,2.2c3.5,1.5,6.6,3.5,9.3,6.2c2.6,2.6,4.7,5.7,6.2,9.2c1.5,3.5,2.2,7.3,2.2,11.3
		c0,4.1-0.7,7.9-2.2,11.4c-1.5,3.5-3.5,6.5-6.2,9.2c-2.6,2.6-5.7,4.7-9.3,6.1s-7.4,2.2-11.5,2.2H745.3z M756.7,626.9h3.3
		c2.6,0,5-0.5,7.2-1.4c2.2-0.9,4.1-2.2,5.8-3.9c1.6-1.7,2.9-3.7,3.8-5.9c0.9-2.3,1.4-4.8,1.4-7.5c0-2.7-0.5-5.2-1.4-7.4
		c-0.9-2.3-2.2-4.3-3.8-6c-1.6-1.7-3.6-3-5.8-3.9c-2.2-0.9-4.6-1.4-7.2-1.4h-3.3V626.9z"/>
	<path d="M805.5,593.7c-1.2,0-2.2-0.3-3.2-0.9c-1-0.6-1.7-1.3-2.3-2.3c-0.6-1-0.9-2.1-0.9-3.2s0.3-2.2,0.9-3.2
		c0.6-1,1.4-1.7,2.3-2.3c1-0.6,2-0.9,3.2-0.9c1.2,0,2.2,0.3,3.2,0.9c1,0.6,1.7,1.3,2.3,2.3c0.6,1,0.9,2,0.9,3.2s-0.3,2.2-0.9,3.2
		c-0.6,1-1.3,1.8-2.3,2.3C807.8,593.5,806.7,593.7,805.5,593.7z M800.2,637v-35.8h10.7V637H800.2z"/>
	<path d="M840.8,656.3c-4.8,0-8.9-0.9-12.2-2.6s-5.7-4.4-7.2-7.8l8.8-4.3c1,1.7,2.4,3,4.3,4c1.9,1,4,1.5,6.2,1.5
		c2,0,3.8-0.4,5.4-1.2c1.5-0.8,2.7-1.9,3.6-3.4s1.3-3.1,1.3-5.1v-5c-1.6,1.8-3.5,3.3-5.6,4.3s-4.5,1.5-7,1.5c-3.2,0-6.2-0.8-8.9-2.4
		c-2.7-1.6-4.8-3.9-6.4-6.7c-1.6-2.9-2.4-6.2-2.4-9.9c0-3.6,0.8-6.9,2.3-9.7c1.6-2.9,3.7-5.1,6.4-6.8c2.7-1.7,5.8-2.5,9.2-2.5
		c2.5,0,4.9,0.5,7,1.5c2.1,1,3.9,2.3,5.4,4v-4.4h10.7V638c0,3.5-0.8,6.7-2.3,9.4c-1.5,2.8-3.8,4.9-6.9,6.5
		C849.4,655.5,845.5,656.3,840.8,656.3z M841.6,629c1.9,0,3.6-0.4,5-1.3c1.5-0.9,2.6-2,3.4-3.5c0.8-1.5,1.2-3.2,1.2-5.1
		c0-1.9-0.4-3.7-1.2-5.1s-2-2.7-3.4-3.5c-1.4-0.9-3.1-1.3-4.9-1.3c-1.8,0-3.5,0.4-4.9,1.3c-1.4,0.9-2.6,2-3.4,3.6
		c-0.8,1.5-1.3,3.2-1.3,5.1c0,1.9,0.4,3.6,1.2,5.1c0.8,1.5,1.9,2.6,3.4,3.5C838.1,628.6,839.8,629,841.6,629z"/>
	<path d="M879.8,593.7c-1.2,0-2.2-0.3-3.2-0.9c-1-0.6-1.7-1.3-2.3-2.3c-0.6-1-0.9-2.1-0.9-3.2s0.3-2.2,0.9-3.2
		c0.6-1,1.4-1.7,2.3-2.3c1-0.6,2-0.9,3.2-0.9c1.2,0,2.2,0.3,3.2,0.9c1,0.6,1.7,1.3,2.3,2.3c0.6,1,0.9,2,0.9,3.2s-0.3,2.2-0.9,3.2
		c-0.6,1-1.3,1.8-2.3,2.3C882,593.5,880.9,593.7,879.8,593.7z M874.4,637v-35.8h10.7V637H874.4z"/>
	<path d="M910.2,638.2c-3.6,0-6.3-1.1-8.3-3.4c-2-2.3-3-5.5-3-9.5v-15.9h-4.8v-8.2h4.8v-13.4h10.7v13.4h7.9v8.2h-7.9v15.1
		c0,1.4,0.3,2.4,0.8,3.1s1.3,1,2.3,1c1.1,0,2.2-0.4,3.2-1.1l2.7,8.6c-1.2,0.7-2.6,1.2-4.1,1.5S911.6,638.2,910.2,638.2z"/>
	<path d="M942.7,638.2c-3.3,0-6.3-0.8-9-2.5c-2.7-1.6-4.8-3.9-6.4-6.8s-2.4-6.2-2.4-9.9c0-3.6,0.8-6.8,2.3-9.7
		c1.5-2.9,3.6-5.1,6.3-6.8c2.7-1.7,5.7-2.5,9.2-2.5c2.5,0,4.9,0.5,7.1,1.5c2.2,1,4,2.3,5.4,4v-4.4H966V637h-10.7v-4.7
		c-1.6,1.9-3.5,3.3-5.6,4.3C947.5,637.7,945.2,638.2,942.7,638.2z M945.9,629c1.9,0,3.5-0.4,5-1.3c1.4-0.9,2.6-2,3.4-3.5
		c0.8-1.5,1.2-3.2,1.2-5.1c0-1.9-0.4-3.6-1.2-5.1c-0.8-1.5-2-2.6-3.4-3.5c-1.4-0.9-3.1-1.3-5-1.3c-1.8,0-3.5,0.4-4.9,1.3
		c-1.4,0.9-2.6,2-3.4,3.5c-0.8,1.5-1.3,3.2-1.3,5.1s0.4,3.6,1.2,5.1c0.8,1.5,2,2.7,3.4,3.5C942.4,628.6,944.1,629,945.9,629z"/>
	<path d="M978.7,637v-60.2h10.7V637H978.7z"/>
	<path d="M1022.4,637v-57.8h11.3V637H1022.4z"/>
	<path d="M1062.9,638.2c-3.2,0-6.2-0.8-8.9-2.4c-2.7-1.6-4.8-3.9-6.4-6.7c-1.6-2.9-2.4-6.2-2.4-9.9c0-3.6,0.8-6.9,2.3-9.7
		c1.5-2.9,3.7-5.1,6.4-6.8c2.7-1.7,5.8-2.5,9.3-2.5c2.5,0,4.9,0.5,7,1.5c2.1,1,3.9,2.3,5.4,4v-28.7h10.7V637h-10.7v-4.7
		c-1.6,1.8-3.5,3.3-5.6,4.3S1065.4,638.2,1062.9,638.2z M1066.1,629c1.9,0,3.6-0.4,5-1.3c1.4-0.9,2.6-2,3.4-3.5
		c0.8-1.5,1.2-3.2,1.2-5.1c0-1.9-0.4-3.6-1.2-5.1s-2-2.7-3.4-3.5c-1.4-0.9-3.1-1.3-5-1.3c-1.8,0-3.5,0.4-4.9,1.3s-2.6,2-3.4,3.6
		s-1.3,3.2-1.3,5.1c0,1.9,0.4,3.6,1.2,5.1c0.8,1.5,1.9,2.6,3.4,3.5C1062.6,628.6,1064.2,629,1066.1,629z"/>
	<path d="M1116.1,638.2c-3.9,0-7.3-0.8-10.4-2.5s-5.5-3.9-7.3-6.8s-2.7-6.1-2.7-9.7c0-2.7,0.5-5.1,1.5-7.5c1-2.3,2.4-4.3,4.3-6.1
		s3.9-3.1,6.3-4.1c2.4-1,5-1.5,7.8-1.5c3.7,0,7,0.8,9.8,2.3s5,3.7,6.6,6.5s2.4,6,2.4,9.6c0,0.3,0,0.6,0,0.8s-0.1,0.6-0.1,1.2h-27.5
		c0,1.8,0.4,3.4,1.2,4.8s2,2.4,3.5,3.2c1.5,0.8,3.2,1.1,5.2,1.1c1.9,0,3.5-0.4,5-1.1c1.4-0.7,2.8-1.9,4.1-3.5l7.7,3.9
		c-1.7,2.9-4.1,5.2-7.1,6.8S1119.9,638.2,1116.1,638.2z M1107.1,614.6h16.7c-0.2-1.4-0.7-2.6-1.5-3.6s-1.7-1.8-2.9-2.3
		c-1.2-0.5-2.5-0.8-4-0.8c-1.6,0-2.9,0.3-4.1,0.8c-1.2,0.5-2.1,1.3-2.9,2.3C1107.7,612,1107.3,613.2,1107.1,614.6z"/>
	<path d="M1158.7,638.2c-3.3,0-6.3-0.8-9-2.5c-2.7-1.6-4.8-3.9-6.4-6.8c-1.6-2.9-2.4-6.2-2.4-9.9c0-3.6,0.8-6.8,2.3-9.7
		c1.5-2.9,3.6-5.1,6.3-6.8c2.7-1.7,5.7-2.5,9.2-2.5c2.5,0,4.9,0.5,7.1,1.5c2.2,1,4,2.3,5.4,4v-4.4h10.7V637h-10.7v-4.7
		c-1.6,1.9-3.5,3.3-5.6,4.3C1163.5,637.7,1161.2,638.2,1158.7,638.2z M1161.9,629c1.9,0,3.5-0.4,5-1.3c1.4-0.9,2.6-2,3.4-3.5
		c0.8-1.5,1.2-3.2,1.2-5.1c0-1.9-0.4-3.6-1.2-5.1c-0.8-1.5-2-2.6-3.4-3.5c-1.4-0.9-3.1-1.3-5-1.3c-1.8,0-3.5,0.4-4.9,1.3
		c-1.4,0.9-2.6,2-3.4,3.5c-0.8,1.5-1.3,3.2-1.3,5.1s0.4,3.6,1.2,5.1c0.8,1.5,2,2.7,3.4,3.5C1158.4,628.6,1160,629,1161.9,629z"/>
	<path d="M1206.5,638.2c-3.6,0-6.3-1.1-8.3-3.4c-2-2.3-3-5.5-3-9.5v-15.9h-4.8v-8.2h4.8v-13.4h10.7v13.4h7.9v8.2h-7.9v15.1
		c0,1.4,0.3,2.4,0.8,3.1c0.5,0.7,1.3,1,2.3,1c1.1,0,2.2-0.4,3.2-1.1l2.7,8.6c-1.2,0.7-2.6,1.2-4.1,1.5
		C1209.4,638,1207.9,638.2,1206.5,638.2z"/>
	<path d="M1229.6,593.7c-1.2,0-2.2-0.3-3.2-0.9c-1-0.6-1.7-1.3-2.3-2.3c-0.6-1-0.9-2.1-0.9-3.2s0.3-2.2,0.9-3.2s1.4-1.7,2.3-2.3
		c1-0.6,2-0.9,3.2-0.9c1.2,0,2.2,0.3,3.2,0.9c1,0.6,1.7,1.3,2.3,2.3s0.9,2,0.9,3.2s-0.3,2.2-0.9,3.2c-0.6,1-1.3,1.8-2.3,2.3
		C1231.8,593.5,1230.8,593.7,1229.6,593.7z M1224.2,637v-35.8h10.7V637H1224.2z"/>
	<path d="M1265.5,638.2c-3.9,0-7.5-0.8-10.7-2.4c-3.2-1.6-5.7-3.9-7.6-6.7c-1.9-2.9-2.8-6.2-2.8-9.9s0.9-7,2.8-9.9s4.4-5.1,7.6-6.7
		s6.7-2.4,10.7-2.4c4,0,7.5,0.8,10.7,2.4s5.7,3.9,7.5,6.7s2.8,6.2,2.8,9.9s-0.9,7-2.8,9.9c-1.9,2.9-4.4,5.1-7.5,6.7
		C1273,637.3,1269.4,638.2,1265.5,638.2z M1265.5,629c1.8,0,3.5-0.4,5-1.3c1.5-0.8,2.7-2,3.5-3.5c0.9-1.5,1.3-3.2,1.3-5.1
		s-0.4-3.6-1.3-5.1c-0.9-1.5-2-2.6-3.5-3.5c-1.5-0.8-3.2-1.3-5-1.3c-1.8,0-3.5,0.4-5,1.3c-1.5,0.8-2.7,2-3.5,3.5
		c-0.9,1.5-1.3,3.2-1.3,5.1s0.4,3.6,1.3,5.1c0.9,1.5,2,2.6,3.5,3.5C1262,628.6,1263.7,629,1265.5,629z"/>
	<path d="M1295.9,637v-35.8h10.7v4c1.4-1.5,3.1-2.8,5.2-3.7c2.1-0.9,4.3-1.4,6.8-1.4c2.8,0,5.2,0.6,7.3,1.8c2.1,1.2,3.7,2.9,4.9,5
		c1.2,2.1,1.8,4.6,1.8,7.5V637h-10.7v-20.4c0-2.6-0.7-4.6-2-6c-1.3-1.4-3.2-2.2-5.5-2.2c-1.6,0-3,0.3-4.1,1c-1.2,0.6-2,1.5-2.7,2.6
		c-0.6,1.1-0.9,2.4-0.9,3.8V637H1295.9z"/>
	<path d="M1351.8,638.2c-1.3,0-2.5-0.3-3.5-0.9c-1.1-0.6-1.9-1.5-2.5-2.5c-0.6-1.1-0.9-2.2-0.9-3.5c0-1.3,0.3-2.5,0.9-3.5
		c0.6-1,1.5-1.9,2.5-2.5c1.1-0.6,2.2-0.9,3.5-0.9c1.3,0,2.5,0.3,3.5,0.9c1.1,0.6,1.9,1.5,2.5,2.5c0.6,1,0.9,2.2,0.9,3.5
		c0,1.3-0.3,2.5-0.9,3.5c-0.6,1.1-1.5,1.9-2.5,2.5C1354.2,637.8,1353.1,638.2,1351.8,638.2z M1347.9,619.3l-1.4-42.5h10.7l-1.4,42.5
		H1347.9z"/>
</g>
<g>
	<path d="M627.9,547.3v-47.7h-14.6v-10h40.6v10h-14.7v47.7H627.9z"/>
	<path d="M661.5,547.3v-60.2h10.7v28.4c1.4-1.5,3.1-2.8,5.2-3.7c2.1-0.9,4.3-1.4,6.8-1.4c2.8,0,5.2,0.6,7.3,1.8
		c2.1,1.2,3.7,2.9,4.9,5c1.2,2.1,1.8,4.6,1.8,7.5v22.7h-10.7v-20.4c0-2.6-0.7-4.6-2-6c-1.3-1.4-3.2-2.2-5.5-2.2c-1.6,0-3,0.3-4.1,1
		c-1.2,0.6-2,1.5-2.7,2.6c-0.6,1.1-0.9,2.4-0.9,3.8v21.2H661.5z"/>
	<path d="M725.1,548.4c-3.3,0-6.3-0.8-9-2.5c-2.7-1.6-4.8-3.9-6.4-6.8c-1.6-2.9-2.4-6.2-2.4-9.9c0-3.6,0.8-6.8,2.3-9.7
		c1.5-2.9,3.6-5.1,6.3-6.8c2.7-1.7,5.7-2.5,9.2-2.5c2.5,0,4.9,0.5,7.1,1.5s4,2.3,5.4,4v-4.4h10.7v35.8h-10.7v-4.7
		c-1.6,1.9-3.5,3.3-5.6,4.3C729.9,547.9,727.6,548.4,725.1,548.4z M728.3,539.3c1.9,0,3.5-0.4,5-1.3c1.4-0.9,2.6-2,3.4-3.5
		c0.8-1.5,1.2-3.2,1.2-5.1c0-1.9-0.4-3.6-1.2-5.1c-0.8-1.5-2-2.6-3.4-3.5c-1.4-0.9-3.1-1.3-5-1.3c-1.8,0-3.5,0.4-4.9,1.3
		c-1.4,0.9-2.6,2-3.4,3.5c-0.8,1.5-1.3,3.2-1.3,5.1c0,1.9,0.4,3.6,1.2,5.1c0.8,1.5,2,2.7,3.4,3.5
		C724.8,538.9,726.4,539.3,728.3,539.3z"/>
	<path d="M772.9,548.4c-3.6,0-6.3-1.1-8.3-3.4c-2-2.3-3-5.5-3-9.5v-15.9h-4.8v-8.2h4.8V498h10.7v13.4h7.9v8.2h-7.9v15.1
		c0,1.4,0.3,2.4,0.8,3.1s1.3,1,2.3,1c1.1,0,2.2-0.4,3.2-1.1l2.7,8.6c-1.2,0.7-2.6,1.2-4.1,1.5S774.3,548.4,772.9,548.4z"/>
	<path d="M795.5,511.4c-1.9,0-3.5-0.6-4.7-1.8c-1.2-1.2-1.8-2.9-1.8-5c0-2.6,0.8-5.3,2.5-8.1c1.7-2.8,4-5.5,6.9-7.9l2.8,2.3
		c-0.6,0.5-1.2,1.3-1.8,2.2c-0.6,1-1.1,2-1.6,3.1s-0.8,2.1-0.9,3c1.5,0.4,2.7,1.1,3.5,2.1s1.3,2.4,1.3,3.9c0,1.8-0.6,3.3-1.8,4.5
		C799,510.8,797.4,511.4,795.5,511.4z"/>
	<path d="M819.9,548.4c-3,0-5.7-0.5-8.1-1.4c-2.4-1-4.4-2.4-6-4.2l4.5-7.2c1.5,1.6,3.1,2.8,4.7,3.6c1.6,0.8,3.3,1.3,4.9,1.3
		c0.9,0,1.7-0.2,2.4-0.5s1.2-0.7,1.6-1.3c0.4-0.6,0.6-1.3,0.6-2.1c0-0.9-0.3-1.7-0.8-2.2c-0.5-0.5-1.3-1-2.4-1.5
		c-1.1-0.5-2.5-1-4.2-1.7c-1.4-0.6-2.8-1.3-4.2-2.1s-2.4-1.8-3.2-2.9s-1.2-2.7-1.2-4.5c0-2.2,0.6-4.2,1.9-5.9c1.2-1.7,2.9-3,5.1-4
		c2.2-1,4.7-1.4,7.5-1.4c1.8,0,3.6,0.3,5.6,0.8c1.9,0.5,4,1.4,6.2,2.5l-3.7,6.9c-3-1.9-5.7-2.9-8.1-2.9c-1.3,0-2.4,0.3-3.2,0.9
		c-0.8,0.6-1.2,1.3-1.2,2.2c0,0.8,0.4,1.6,1.2,2.2c0.8,0.6,1.8,1.2,3,1.6c1.2,0.5,2.4,0.9,3.4,1.3c1.8,0.7,3.4,1.4,4.8,2.2
		c1.4,0.8,2.5,1.8,3.3,3.1c0.8,1.3,1.2,3,1.2,5.1c0,2.6-0.6,4.8-1.9,6.6c-1.2,1.8-3,3.2-5.4,4.1C826,548,823.2,548.4,819.9,548.4z"
		/>
	<path d="M869.8,504c-1.2,0-2.2-0.3-3.2-0.9c-1-0.6-1.7-1.3-2.3-2.3c-0.6-1-0.9-2.1-0.9-3.2c0-1.2,0.3-2.2,0.9-3.2
		c0.6-1,1.4-1.7,2.3-2.3c1-0.6,2-0.9,3.2-0.9c1.2,0,2.2,0.3,3.2,0.9c1,0.6,1.7,1.3,2.3,2.3c0.6,1,0.9,2,0.9,3.2
		c0,1.2-0.3,2.2-0.9,3.2c-0.6,1-1.3,1.8-2.3,2.3C872,503.7,871,504,869.8,504z M864.4,547.3v-35.8h10.7v35.8H864.4z"/>
	<path d="M900.2,548.4c-3.6,0-6.3-1.1-8.3-3.4c-2-2.3-3-5.5-3-9.5v-15.9h-4.8v-8.2h4.8V498h10.7v13.4h7.9v8.2h-7.9v15.1
		c0,1.4,0.3,2.4,0.8,3.1s1.3,1,2.3,1c1.1,0,2.2-0.4,3.2-1.1l2.7,8.6c-1.2,0.7-2.6,1.2-4.1,1.5S901.6,548.4,900.2,548.4z"/>
	<path d="M921.9,559.4l-3-2.5c0.6-0.6,1.2-1.4,1.9-2.5c0.7-1,1.2-2.2,1.8-3.4c0.5-1.2,0.8-2.3,1-3.3c-1.7-0.4-3-1.2-3.9-2.3
		c-0.9-1.2-1.4-2.6-1.4-4.2c0-2,0.7-3.7,2-5c1.3-1.3,3-1.9,5.1-1.9c2.1,0,3.8,0.7,5.1,2c1.3,1.3,1.9,3.2,1.9,5.5
		c0,2.8-0.9,5.7-2.7,8.8C927.6,553.9,925.1,556.8,921.9,559.4z"/>
	<path d="M964.8,547.3v-57.8h11.3v23.8h21.6v-23.8h11.3v57.8h-11.3v-24h-21.6v24H964.8z"/>
	<path d="M1040.9,548.4c-6.5,0-11.2-1.3-14.1-3.9c-2.9-2.6-4.3-6.8-4.3-12.7v-20.4h10.7v17.8c0,3.8,0.6,6.5,1.8,8
		c1.2,1.6,3.2,2.3,6,2.3c2.8,0,4.8-0.8,6-2.3c1.2-1.6,1.7-4.2,1.7-8v-17.8h10.7v20.4c0,5.9-1.4,10.1-4.3,12.7
		C1052.2,547.1,1047.4,548.4,1040.9,548.4z"/>
	<path d="M1071.2,547.3v-35.8h10.7v5.1c1.3-2,3-3.6,4.9-4.6c1.9-1.1,4-1.6,6.2-1.6c1.3,0,2.6,0.2,3.9,0.6c1.4,0.4,2.5,0.9,3.4,1.4
		l-4.5,9.1c-0.8-0.5-1.7-1-2.8-1.3c-1.1-0.3-2-0.5-3-0.5c-1.4,0-2.7,0.4-4,1.1c-1.3,0.7-2.3,1.7-3,2.8c-0.8,1.2-1.2,2.4-1.2,3.7v20
		H1071.2z"/>
	<path d="M1106.3,547.3v-35.8h10.7v5.1c1.3-2,3-3.6,4.9-4.6c1.9-1.1,4-1.6,6.2-1.6c1.3,0,2.6,0.2,3.9,0.6c1.4,0.4,2.5,0.9,3.4,1.4
		l-4.5,9.1c-0.8-0.5-1.7-1-2.8-1.3c-1.1-0.3-2-0.5-3-0.5c-1.4,0-2.7,0.4-4,1.1c-1.3,0.7-2.3,1.7-3,2.8c-0.8,1.2-1.2,2.4-1.2,3.7v20
		H1106.3z"/>
	<path d="M1155.8,548.4c-3.3,0-6.3-0.8-9-2.5c-2.7-1.6-4.8-3.9-6.4-6.8c-1.6-2.9-2.4-6.2-2.4-9.9c0-3.6,0.8-6.8,2.3-9.7
		c1.5-2.9,3.6-5.1,6.3-6.8c2.7-1.7,5.7-2.5,9.2-2.5c2.5,0,4.9,0.5,7.1,1.5s4,2.3,5.4,4v-4.4h10.7v35.8h-10.7v-4.7
		c-1.6,1.9-3.5,3.3-5.6,4.3C1160.5,547.9,1158.2,548.4,1155.8,548.4z M1158.9,539.3c1.9,0,3.5-0.4,5-1.3c1.4-0.9,2.6-2,3.4-3.5
		c0.8-1.5,1.2-3.2,1.2-5.1c0-1.9-0.4-3.6-1.2-5.1c-0.8-1.5-2-2.6-3.4-3.5c-1.4-0.9-3.1-1.3-5-1.3c-1.8,0-3.5,0.4-4.9,1.3
		c-1.4,0.9-2.6,2-3.4,3.5c-0.8,1.5-1.3,3.2-1.3,5.1c0,1.9,0.4,3.6,1.2,5.1c0.8,1.5,2,2.7,3.4,3.5
		C1155.4,538.9,1157.1,539.3,1158.9,539.3z"/>
	<path d="M1198.9,548.4c-1.3,0-2.5-0.3-3.5-0.9s-1.9-1.5-2.5-2.5s-0.9-2.2-0.9-3.5c0-1.3,0.3-2.5,0.9-3.5s1.5-1.9,2.5-2.5
		s2.2-0.9,3.5-0.9c1.3,0,2.5,0.3,3.5,0.9s1.9,1.5,2.5,2.5c0.6,1,0.9,2.2,0.9,3.5c0,1.3-0.3,2.5-0.9,3.5c-0.6,1.1-1.5,1.9-2.5,2.5
		S1200.2,548.4,1198.9,548.4z M1195,529.6l-1.4-42.5h10.7l-1.4,42.5H1195z"/>
</g>
</svg>
