<?xml version="1.0" encoding="utf-8"?>
<!-- Generator: Adobe Illustrator 26.0.1, SVG Export Plug-In . SVG Version: 6.00 Build 0)  -->
<svg version="1.1" id="Ebene_1" xmlns="http://www.w3.org/2000/svg" xmlns:xlink="http://www.w3.org/1999/xlink" x="0px" y="0px"
	 viewBox="0 0 1920 1080" style="enable-background:new 0 0 1920 1080;" xml:space="preserve">
<style type="text/css">
	.st0{fill:#049DBF;}
	.st1{fill:#0A1E59;}
	.st2{fill:#2458BF;}
	.st3{fill:#F2BF5E;}
	.st4{fill:#D94436;}
</style>
<g>
	<path class="st0" d="M915.8,140.5c0,0,456.1-7.6,577.3,338.6c18.6,52.2,36,261.3-106.7,289.3c-27.5,3.7-86.7-6.7-157.3-33.3
		c-20.8-7.4-82.7,6.7-80,78.7c0.4,18,0,84-136,53.3c-38.7-10.7-269.3-93.3-364-282.6c-14.3-33-72-160,16-305.3
		C698.5,231.2,752.9,147.4,915.8,140.5z"/>
	<path class="st1" d="M1224.6,469.6c9.6,51.8,38,104.5,98.7,104.5c60.7,0,119.2-42.3,104.3-92.9c-16.4-55.4-45.8-77.4-102.9-91.3
		C1265.7,375.5,1213,407.3,1224.6,469.6z"/>
	<path class="st2" d="M810.3,598.1c-15,50.5-13.7,110.3,40.3,138c54,27.6,125.4,16.6,135.1-35.2c10.6-56.8-5.5-89.8-50.1-128.2
		C889.7,533.1,828.3,537.4,810.3,598.1z"/>
	<path class="st3" d="M1011.5,231c-30.3,43.2-48,100.3-5.5,143.6s113.7,55.5,139.3,9.4c28.1-50.5,23.2-86.9-6.9-137.5
		C1107.5,194.5,1047.9,179.1,1011.5,231z"/>
	<path class="st4" d="M827,273c-52.6,3.7-108.1,25.9-115,86.2s28.5,123.3,80.4,114.2c56.9-10,82.1-36.7,102.4-91.9
		C915.8,324.5,890.3,268.6,827,273z"/>
	<ellipse cx="1122.3" cy="616.1" rx="67.2" ry="67.4"/>
</g>
</svg>
