<?xml version="1.0" encoding="utf-8"?>
<!-- Generator: Adobe Illustrator 26.0.1, SVG Export Plug-In . SVG Version: 6.00 Build 0)  -->
<svg version="1.1" id="Ebene_1" xmlns="http://www.w3.org/2000/svg" xmlns:xlink="http://www.w3.org/1999/xlink" x="0px" y="0px"
	 viewBox="0 0 1920 1080" style="enable-background:new 0 0 1920 1080;" xml:space="preserve">
<style type="text/css">
	.st0{opacity:0.9;}
	.st1{fill:#FFE266;}
	.st2{fill:#049DBF;}
	.st3{fill:#FFFFFF;}
	.st4{fill:#D94436;}
	.st5{fill:none;stroke:#000000;stroke-width:2;stroke-miterlimit:10;}
	.st6{fill:#0A1E59;}
	.st7{fill:#2458BF;}
	.st8{fill:#F2BF5E;}
	.st9{fill:#3159A4;}
	.st10{opacity:0.9;fill:#FFE266;}
	.st11{fill:#1D1D1B;}
	.st12{fill:none;stroke:#1D1D1B;stroke-width:0.75;stroke-miterlimit:10;}
	.st13{fill:#222951;}
	.st14{fill:#009CBF;}
	.st15{fill:none;}
</style>
<g class="st0">
	<g>
		<path class="st1" d="M1920.6,737.4c9.9,0-164-24.1-239.8-253.8c-58.2-93.5-72.3-122.4-259.5-158.3
			c-72.3-32.8-298.9-32.8-417.2-325.5C1155.2,2.7,1920,0,1920,0L1920.6,737.4z"/>
	</g>
</g>
<g class="st0">
	<path class="st1" d="M0.6,400c-11.6,0,193.8,22.2,283.3,234.2c68.7,86.2,85.4,113,306.6,146c85.4,30.3,353.2,30.3,492.9,300.3
		c-178.5-2.8-1082.8,0-1082.8,0V400z"/>
</g>
<g>
	<polygon class="st2" points="1277.9,98.5 1170.4,236.8 919.5,57.7 963.8,0.7 1140.8,0.7 	"/>
	<path class="st1" d="M1231.3,126.1c0,0-39,48.8-48.3,62.2c-17.7-17.5-41.7,4.8-41.7,4.8s-39.2-28.1-80.2-57.5c0,0,0,0,0,0
		c-3.6-2.6-7.3-5.3-11-7.9c0,0,0,0,0,0c-37.2-26.7-73.1-52.6-80.3-58C988.1,48.2,964,31,964,31s12-15,24-30.3h116.7
		c9.2,6.5,19,13.4,28.9,20.3c0,0,0,0,0,0c3.3,2.3,6.6,4.6,9.9,7c39.9,28.1,78.7,55.6,82.9,59
		C1206.2,106.6,1231.3,126.1,1231.3,126.1z"/>
	<ellipse transform="matrix(0.9942 -0.1072 0.1072 0.9942 3.4719 109.462)" class="st2" cx="1019.5" cy="22.4" rx="8.9" ry="8.6"/>
	<ellipse transform="matrix(0.9942 -0.1072 0.1072 0.9942 -7.6593 126.9968)" class="st2" cx="1177" cy="134.7" rx="8.9" ry="8.6"/>
	
		<ellipse transform="matrix(0.6875 -0.7261 0.7261 0.6875 286.038 821.2057)" class="st2" cx="1097.3" cy="78.2" rx="68.3" ry="57.2"/>
	<g>
		<path class="st3" d="M1133.1,38.7l-6.5-4.7l-7.9,10.1c-6.1-4.2-13.7-6.8-19.3-6.9l-2.7,8.5c5.6,0.2,12.5,2.2,18.3,6.3
			c7.4,5.2,9.2,12.9,4.7,18.6c-4.3,5.5-11,6-21,3.6c-13.7-3.5-23.8-3.6-30.6,5.1c-6.5,8.3-5.2,19,3.1,27.3l-7.9,10.1l6.4,4.6
			l7.5-9.7c6.4,4.2,11.9,5.7,16.2,6.1l2.5-8.5c-3.1-0.4-9.1-1.2-15.7-5.9c-8-5.7-7.4-12.5-4.3-16.5c4-5.2,9.9-5.1,21.7-2.2
			c14,3.4,23.4,2,30.3-6.9c6.2-7.9,6.2-19.4-3.1-28.7L1133.1,38.7z"/>
	</g>
</g>
<path class="st4" d="M-102.3,982.2l4.6,15.6C-99.4,992.7-100.9,987.5-102.3,982.2z"/>
<path class="st4" d="M267.2,1029.9c-10.9,19.6-24.5,36.7-40.2,51H106.6c-6.5-42.3,0.4-86.9,22.7-127.2
	c31.4-56.8,86.4-92.4,146-101.2C299.5,907.6,298.6,973.1,267.2,1029.9z"/>
<path class="st4" d="M502.7,1080.9H0.5V754.8c57.3-29.3,127.8-30.6,188.4,3c40,22.1,69.5,55.9,86.5,94.7c42-6.2,86.2,0.8,126.2,22.9
	C477,917,515,1000.4,502.7,1080.9z"/>
<g>
	<polygon class="st4" points="388.5,0 52.3,460.3 0.1,315.2 0.1,40.3 113.5,0 	"/>
	<polygon class="st1" points="270.9,20.7 68.5,298.1 3,116 	"/>
	<line class="st5" x1="63.2" y1="393.4" x2="81.7" y2="406.9"/>
	<line class="st5" x1="89" y1="376.2" x2="98.9" y2="383.4"/>
	<line class="st5" x1="106.7" y1="351.9" x2="116.5" y2="359.1"/>
	<line class="st5" x1="124.2" y1="327.8" x2="134.1" y2="335"/>
	<line class="st5" x1="141.5" y1="304.1" x2="151.4" y2="311.3"/>
	<line class="st5" x1="150.7" y1="273.5" x2="169.1" y2="286.9"/>
	<line class="st5" x1="176.3" y1="256.1" x2="186.3" y2="263.4"/>
	<line class="st5" x1="194" y1="231.9" x2="203.9" y2="239.1"/>
	<line class="st5" x1="211.6" y1="207.8" x2="221.5" y2="215"/>
	<line class="st5" x1="228.8" y1="184.1" x2="238.7" y2="191.3"/>
	<line class="st5" x1="238.7" y1="152.4" x2="257.2" y2="165.8"/>
	<line class="st5" x1="264.5" y1="135.2" x2="274.3" y2="142.3"/>
	<line class="st5" x1="282.1" y1="110.9" x2="292" y2="118.1"/>
	<line class="st5" x1="299.7" y1="86.8" x2="309.5" y2="93.9"/>
	<line class="st5" x1="316.9" y1="63.1" x2="326.7" y2="70.2"/>
	<line class="st5" x1="326.6" y1="31.8" x2="345" y2="45.2"/>
	<line class="st5" x1="352.3" y1="14.5" x2="362.2" y2="21.7"/>
</g>
<g>
	<path class="st2" d="M1919.9,167.2c-63.7,76.5-193.3,89.6-212.1,90.3c-65.6-0.6-58.6-30.8-56.5-39c9-32.7-17.9-45.7-28.2-44.6
		c-35.2,4.6-63.4,3-75.6-1.7c-62.3-28.2-31.8-122-17.7-143.9c6.6-10.4,13.8-19.8,21.5-28.2L1920,0"/>
	<path class="st6" d="M1653.7,52.8c-10,22.7-28.6,43.7-56.4,37.2s-50-32.2-37.8-53.7c13.5-23.6,29.3-30.5,56.9-30.7
		C1645,5.4,1665.7,25.5,1653.7,52.8z"/>
	<path class="st7" d="M1829.6,156.2c1.4,24.7-5.6,52-33.3,58.8s-59.2-5.9-58.1-30.6c1.2-27.2,12.2-40.5,36.7-53.3
		C1800.2,117.9,1827.9,126.4,1829.6,156.2z"/>
	<path class="st8" d="M1783.2,0.1c-0.8,12.8-6.3,24.6-19.2,32.8c-24.1,15.3-58,13.2-64.8-10.7c-2.3-8.2-3.3-15.4-3-22.1H1783.2z"/>
	<path class="st4" d="M1856.8,5.6c23.7,7.3,46.7,23.5,43.4,51.8c-3.3,28.3-26.3,53.4-49.1,43.6c-25-10.7-33.7-25.6-37-53.1
		C1810.7,19.6,1828.4-3.3,1856.8,5.6z"/>
	<ellipse transform="matrix(0.2286 -0.9735 0.9735 0.2286 1172.2255 1741.1566)" cx="1684.8" cy="130.9" rx="31.7" ry="31.6"/>
</g>
<g>
	<path class="st9" d="M436.2,510.2l-27.1-7.7c-7.3-2.8-9.4,15.3-11.5,40.8s-1.4,41.1,4.7,44.5c0.7,0.4,1.3,0.6,2,0.6l32.1,9.4
		L436.2,510.2z"/>
	<path class="st10" d="M425.4,350.6c0,0-43.2,72.1,0.5,128.6c17.1,7.5,94.7,14.7,104-0.4c5.6-11.4,22.2-85.2,6-128.7
		C521.8,344.6,455.6,331.6,425.4,350.6z"/>
	<circle class="st11" cx="526.5" cy="397.1" r="5.2"/>
	<circle class="st11" cx="471.9" cy="400.2" r="5.2"/>
	<path class="st12" d="M485.2,455.4c9.8,10.2,26.8,9.7,38.2-1.1"/>
	<path class="st10" d="M467.1,486.7l0.1,20.7c0,0,3.8,8,12.1,8c8.6,0,12.1-8,12.1-8l-0.1-19.9L467.1,486.7z"/>
	<polygon class="st4" points="434.1,607.7 450,703.9 463.7,703.8 462.1,621 495.9,621.7 500.5,703.6 513.6,703.6 520.2,609 	"/>
	<polygon class="st11" points="449.4,703.9 449.5,710.2 472.9,710.1 463.6,703.8 	"/>
	<polygon class="st11" points="500,703.6 500,710 522.2,709.9 513.4,703.6 	"/>
	<path class="st10" d="M424,635.6c-3-2.9-4.8-8.9-5.7-16.8l17.1-0.1C438.4,640.4,428.8,640.2,424,635.6z"/>
	<path class="st10" d="M533.6,625.2c-0.8,4.6-3.1,9.5-6.9,9.5c-3.8,0-6.8-1.5-6.8-6.2c0-1.2-0.6-9.6-0.3-10.6l0.8-7.3l13.5-0.1
		C534.1,616.4,534.1,621.9,533.6,625.2z"/>
	<path class="st13" d="M533.9,610.6l-13.5,0.1c0,0-85.1-3.9-85,8.1l-17.1,0.1c-4.1-35.8,9.5-110.6,9.5-110.6l39.4-0.5l59,0l7.1,88.6
		C533.5,600.4,533.7,605.6,533.9,610.6z"/>
	<g>
		<path class="st14" d="M491.3,498l15.3-0.1c0,0,14.9,0.7,19.6,9.8l-35,0L491.3,498z"/>
	</g>
	<path class="st11" d="M435.4,618.7"/>
	<path class="st14" d="M406.9,502.3c0,0,16.7-5.1,60.2-4.4l0,9.8l-39.4,0.5L406.9,502.3z"/>
	<line class="st15" x1="418.3" y1="618.8" x2="407.4" y2="618.8"/>
	<line class="st12" x1="435.4" y1="618.7" x2="447.3" y2="540.5"/>
	<line class="st12" x1="508.8" y1="539" x2="520.4" y2="610.6"/>
	<line class="st15" x1="544" y1="610.5" x2="533.9" y2="610.6"/>
	<path d="M389.8,468c-1.7-4.6-39.9-95.1-19.9-127.5c3.8-4.5,17.5-37.5,89.2-26.5c14.1,2.6,36.2,23.3,124.9,12.7
		c-9.5,5.5-42.5,24.8-42.5,24.8l3.7,13c0,0-72.3,11.2-103.1,5.3c-4.2,10.5-19.5,21.3-18.5,46c1.6,13.3,7.8,64.8,7.8,64.8
		s-11.3,22.8-30.2,8.9C396.1,483.9,389.8,468,389.8,468z"/>
</g>
<g>
	<path d="M1021.7,616.5v-54.6H1005v-11.4h46.4v11.4h-16.8v54.6H1021.7z"/>
	<path d="M1087.8,617.7c-4.6,0-8.9-0.9-13-2.6c-4-1.8-7.6-4.2-10.6-7.3c-3-3.1-5.4-6.8-7.1-10.9s-2.6-8.6-2.6-13.3
		c0-4.7,0.9-9.2,2.6-13.3s4.1-7.8,7.1-10.9c3-3.1,6.6-5.6,10.6-7.3c4-1.8,8.3-2.6,13-2.6c4.6,0,8.9,0.9,13,2.6
		c4,1.8,7.6,4.2,10.6,7.3c3,3.1,5.4,6.8,7.1,10.9c1.7,4.1,2.6,8.6,2.6,13.3c0,4.7-0.9,9.2-2.6,13.3c-1.7,4.1-4.1,7.8-7.1,10.9
		c-3,3.1-6.6,5.6-10.6,7.3C1096.8,616.9,1092.4,617.7,1087.8,617.7z M1087.8,605.3c2.8,0,5.4-0.5,7.8-1.6s4.4-2.6,6.1-4.5
		c1.7-1.9,3.1-4.2,4-6.9c1-2.7,1.4-5.6,1.4-8.7s-0.5-6.1-1.4-8.7s-2.3-5-4-6.9c-1.7-1.9-3.8-3.5-6.1-4.5s-4.9-1.6-7.8-1.6
		c-2.8,0-5.3,0.5-7.7,1.6s-4.4,2.6-6.1,4.5c-1.7,1.9-3.1,4.2-4,6.9s-1.4,5.6-1.4,8.7s0.5,6.1,1.4,8.7c0.9,2.7,2.3,5,4,6.9
		c1.7,1.9,3.8,3.5,6.1,4.5S1085,605.3,1087.8,605.3z"/>
	<path d="M1158.3,617.7c-8.3,0-14.5-2.1-18.8-6.2c-4.2-4.1-6.4-10.3-6.4-18.5v-42.6h13v38.9c0,5.6,1,9.6,2.9,12
		c1.9,2.4,5,3.7,9.3,3.7c4.3,0,7.4-1.2,9.3-3.7c1.9-2.4,2.9-6.4,2.9-12v-38.9h13v42.6c0,8.2-2.1,14.3-6.3,18.5
		C1172.8,615.7,1166.6,617.7,1158.3,617.7z"/>
	<path d="M1200.3,616.5v-66h22.5c4.5,0,8.4,0.8,11.7,2.4c3.3,1.6,5.9,3.9,7.7,6.8c1.8,3,2.7,6.6,2.7,10.7c0,3.3-0.6,6.3-1.8,8.9
		c-1.2,2.7-2.9,4.9-5,6.7c-2.2,1.8-4.8,3.2-8,4l21.6,26.4h-16.4l-19-24.9h-3.1v24.9H1200.3z M1213.3,580.8h5.5c2.7,0,5-0.4,6.8-1.2
		c1.9-0.8,3.3-1.9,4.3-3.4s1.5-3.3,1.5-5.4c0-3.2-1.1-5.7-3.3-7.4c-2.2-1.7-5.3-2.6-9.3-2.6h-5.5V580.8z"/>
	<path d="M1282.2,616.5v-66h18.1c4.7,0,9.1,0.8,13.1,2.5c4,1.7,7.6,4,10.6,7c3,3,5.4,6.5,7.1,10.5c1.7,4,2.5,8.3,2.5,13
		c0,4.7-0.8,9-2.5,13c-1.7,4-4,7.5-7.1,10.5c-3,3-6.6,5.3-10.6,7c-4,1.7-8.4,2.5-13.1,2.5H1282.2z M1295.2,604.9h3.7
		c3,0,5.7-0.5,8.3-1.6s4.7-2.6,6.6-4.5c1.9-1.9,3.3-4.2,4.4-6.8c1-2.6,1.6-5.4,1.6-8.5c0-3.1-0.5-5.9-1.6-8.5
		c-1-2.6-2.5-4.9-4.4-6.8c-1.9-1.9-4.1-3.4-6.6-4.5s-5.3-1.6-8.3-1.6h-3.7V604.9z"/>
	<path d="M1370.7,617.7c-8.3,0-14.5-2.1-18.8-6.2c-4.2-4.1-6.4-10.3-6.4-18.5v-42.6h13v38.9c0,5.6,1,9.6,2.9,12
		c1.9,2.4,5,3.7,9.3,3.7c4.3,0,7.4-1.2,9.3-3.7c1.9-2.4,2.9-6.4,2.9-12v-38.9h13v42.6c0,8.2-2.1,14.3-6.3,18.5
		C1385.3,615.7,1379,617.7,1370.7,617.7z"/>
	<path d="M1412.7,616.5v-66h22.5c4.5,0,8.4,0.8,11.7,2.4c3.3,1.6,5.9,3.9,7.7,6.8c1.8,3,2.7,6.6,2.7,10.7c0,3.3-0.6,6.3-1.8,8.9
		c-1.2,2.7-2.9,4.9-5,6.7c-2.2,1.8-4.8,3.2-8,4l21.6,26.4h-16.4l-19-24.9h-3.1v24.9H1412.7z M1425.7,580.8h5.5c2.7,0,5-0.4,6.8-1.2
		c1.9-0.8,3.3-1.9,4.3-3.4s1.5-3.3,1.5-5.4c0-3.2-1.1-5.7-3.3-7.4c-2.2-1.7-5.3-2.6-9.3-2.6h-5.5V580.8z"/>
	<path d="M1502.8,617.7c-5,0-9.7-0.9-14-2.6c-4.4-1.8-8.2-4.2-11.6-7.3c-3.3-3.1-5.9-6.8-7.8-10.9c-1.9-4.1-2.8-8.6-2.8-13.3
		c0-4.8,0.9-9.2,2.8-13.4s4.5-7.8,7.8-10.9c3.3-3.1,7.2-5.6,11.5-7.3c4.4-1.8,9-2.6,14-2.6c4.1,0,7.9,0.6,11.6,1.7
		c3.7,1.1,6.8,2.7,9.4,4.5l-5.6,11c-1.8-1.4-4-2.5-6.5-3.3c-2.6-0.8-5.2-1.2-8-1.2c-3.3,0-6.3,0.5-9.1,1.6c-2.8,1.1-5.2,2.6-7.3,4.6
		c-2.1,1.9-3.7,4.2-4.8,6.8c-1.1,2.6-1.7,5.4-1.7,8.5s0.6,5.9,1.7,8.5c1.1,2.6,2.8,4.9,4.8,6.8c2.1,1.9,4.5,3.5,7.3,4.6
		c2.8,1.1,5.8,1.6,9.1,1.6c2.8,0,5.5-0.4,8-1.2c2.6-0.8,4.7-1.9,6.5-3.3l5.6,11c-2.5,1.8-5.6,3.3-9.2,4.5
		C1510.9,617.1,1507,617.7,1502.8,617.7z"/>
	<path d="M1534.3,616.5v-66h13v27.2h24.7v-27.2h12.9v66h-12.9v-27.4h-24.7v27.4H1534.3z"/>
	<path d="M739,712.5v-66h18.1c4.7,0,9.1,0.8,13.1,2.5c4,1.7,7.6,4,10.6,7c3,3,5.4,6.5,7.1,10.5c1.7,4,2.5,8.3,2.5,13
		c0,4.7-0.8,9-2.5,13c-1.7,4-4,7.5-7.1,10.5c-3,3-6.6,5.3-10.6,7c-4,1.7-8.4,2.5-13.1,2.5H739z M751.9,700.9h3.7
		c3,0,5.7-0.5,8.3-1.6c2.5-1.1,4.7-2.6,6.6-4.5c1.9-1.9,3.3-4.2,4.4-6.8c1-2.6,1.6-5.4,1.6-8.5c0-3.1-0.5-5.9-1.6-8.5
		c-1-2.6-2.5-4.9-4.4-6.8c-1.9-1.9-4.1-3.4-6.6-4.5c-2.5-1.1-5.3-1.6-8.3-1.6h-3.7V700.9z"/>
	<path d="M803.4,712.5v-66h13v66H803.4z"/>
	<path d="M834.4,712.5v-66h36.7v11.4h-23.8v15.9h22.8v11.4h-22.8v16h23.8v11.4H834.4z"/>
	<path d="M908.5,712.5v-66h13v27.2h24.7v-27.2h12.9v66h-12.9v-27.4h-24.7v27.4H908.5z"/>
	<path d="M1005.6,713.7c-4.6,0-8.9-0.9-13-2.6s-7.6-4.2-10.6-7.3c-3-3.1-5.4-6.8-7.1-10.9c-1.7-4.1-2.6-8.6-2.6-13.3
		c0-4.7,0.9-9.2,2.6-13.3c1.7-4.1,4.1-7.8,7.1-10.9c3-3.1,6.6-5.6,10.6-7.3c4-1.8,8.3-2.6,13-2.6s8.9,0.9,13,2.6
		c4,1.8,7.6,4.2,10.6,7.3c3,3.1,5.4,6.8,7.1,10.9s2.6,8.6,2.6,13.3c0,4.7-0.9,9.2-2.6,13.3s-4.1,7.8-7.1,10.9
		c-3,3.1-6.6,5.6-10.6,7.3S1010.2,713.7,1005.6,713.7z M1005.6,701.3c2.8,0,5.4-0.5,7.8-1.6c2.3-1.1,4.4-2.6,6.1-4.5
		c1.7-1.9,3.1-4.2,4-6.9c1-2.7,1.4-5.6,1.4-8.7s-0.5-6.1-1.4-8.7s-2.3-5-4-6.9c-1.7-1.9-3.8-3.5-6.1-4.5c-2.3-1.1-4.9-1.6-7.8-1.6
		c-2.8,0-5.3,0.5-7.7,1.6c-2.4,1.1-4.4,2.6-6.1,4.5c-1.7,1.9-3.1,4.2-4,6.9c-0.9,2.7-1.4,5.6-1.4,8.7s0.5,6.1,1.4,8.7
		c0.9,2.7,2.3,5,4,6.9c1.7,1.9,3.8,3.5,6.1,4.5C1000.2,700.7,1002.8,701.3,1005.6,701.3z"/>
	<path d="M1081.8,713.7c-5,0-9.7-0.9-14-2.6c-4.4-1.8-8.2-4.2-11.6-7.3c-3.3-3.1-5.9-6.8-7.8-10.9c-1.9-4.1-2.8-8.6-2.8-13.3
		c0-4.8,0.9-9.2,2.8-13.4c1.9-4.1,4.5-7.8,7.8-10.9c3.3-3.1,7.2-5.6,11.5-7.3c4.4-1.8,9-2.6,14-2.6c4.1,0,7.9,0.6,11.6,1.7
		c3.7,1.1,6.8,2.7,9.4,4.5l-5.6,11c-1.8-1.4-4-2.5-6.5-3.3c-2.6-0.8-5.2-1.2-8-1.2c-3.3,0-6.3,0.5-9.1,1.6s-5.2,2.6-7.3,4.6
		c-2.1,1.9-3.7,4.2-4.8,6.8c-1.1,2.6-1.7,5.4-1.7,8.5s0.6,5.9,1.7,8.5c1.1,2.6,2.8,4.9,4.8,6.8c2.1,1.9,4.5,3.5,7.3,4.6
		s5.8,1.6,9.1,1.6c2.8,0,5.5-0.4,8-1.2c2.6-0.8,4.7-1.9,6.5-3.3l5.6,11c-2.5,1.8-5.6,3.3-9.2,4.5
		C1089.8,713.1,1085.9,713.7,1081.8,713.7z"/>
	<path d="M1113.3,712.5v-66h13v27.2h24.7v-27.2h12.9v66h-12.9v-27.4h-24.7v27.4H1113.3z"/>
	<path d="M1197.5,713.7c-3.1,0-5.9-0.3-8.5-1c-2.6-0.7-4.9-1.5-6.9-2.6c-2-1-3.8-2.1-5.3-3.2c-1.5-1.1-2.6-2.1-3.5-2.9l6.6-10.7
		c0.9,0.8,1.9,1.6,3.2,2.6s2.6,1.9,4.1,2.7c1.5,0.9,3.2,1.6,4.9,2.2s3.7,0.9,5.7,0.9c1.9,0,3.5-0.3,4.9-0.9c1.4-0.6,2.6-1.5,3.4-2.6
		c0.8-1.2,1.2-2.6,1.2-4.3c0-1.6-0.3-2.9-1-4c-0.7-1.1-1.6-2.1-2.9-3c-1.3-0.9-2.9-1.8-4.8-2.6c-1.9-0.9-4-1.8-6.4-2.9
		c-1.8-0.8-3.5-1.7-5.1-2.7c-1.6-1-3-2.2-4.3-3.6c-1.3-1.4-2.2-2.9-3-4.6c-0.7-1.7-1.1-3.6-1.1-5.8c0-2.5,0.5-5,1.5-7.3
		c1-2.3,2.5-4.4,4.3-6.2s4.1-3.3,6.7-4.3c2.6-1.1,5.5-1.6,8.7-1.6c2.4,0,4.8,0.3,7.2,1c2.4,0.6,4.6,1.5,6.7,2.5
		c2.1,1,3.8,2.2,5.3,3.4l-5.4,10.2c-1.1-1-2.4-1.9-3.9-2.7c-1.5-0.8-3-1.4-4.6-1.9c-1.6-0.5-3.3-0.7-5-0.7c-1.9,0-3.5,0.3-4.8,1
		c-1.3,0.7-2.3,1.6-3,2.7c-0.7,1.1-1.1,2.3-1.1,3.7c0,1.1,0.2,2.1,0.7,2.9c0.5,0.8,1.1,1.5,2,2c0.9,0.6,1.9,1.1,3.1,1.6
		c1.2,0.5,2.5,1.1,4,1.7c3.1,1.3,5.9,2.6,8.4,3.9c2.5,1.3,4.7,2.7,6.4,4.3c1.8,1.6,3.2,3.4,4.1,5.5s1.4,4.6,1.4,7.4
		c0,4.2-1,7.8-3,10.8c-2,3-4.8,5.3-8.4,6.9C1206.5,712.9,1202.3,713.7,1197.5,713.7z"/>
	<path d="M1264.5,713.7c-5,0-9.7-0.9-14-2.6c-4.4-1.8-8.2-4.2-11.6-7.3c-3.3-3.1-5.9-6.8-7.8-10.9c-1.9-4.1-2.8-8.6-2.8-13.3
		c0-4.8,0.9-9.2,2.8-13.4c1.9-4.1,4.5-7.8,7.8-10.9c3.3-3.1,7.2-5.6,11.5-7.3c4.4-1.8,9-2.6,14-2.6c4.1,0,7.9,0.6,11.6,1.7
		c3.7,1.1,6.8,2.7,9.4,4.5l-5.6,11c-1.8-1.4-4-2.5-6.5-3.3c-2.6-0.8-5.2-1.2-8-1.2c-3.3,0-6.3,0.5-9.1,1.6s-5.2,2.6-7.3,4.6
		c-2.1,1.9-3.7,4.2-4.8,6.8c-1.1,2.6-1.7,5.4-1.7,8.5s0.6,5.9,1.7,8.5c1.1,2.6,2.8,4.9,4.8,6.8c2.1,1.9,4.5,3.5,7.3,4.6
		s5.8,1.6,9.1,1.6c2.8,0,5.5-0.4,8-1.2c2.6-0.8,4.7-1.9,6.5-3.3l5.6,11c-2.5,1.8-5.6,3.3-9.2,4.5
		C1272.5,713.1,1268.6,713.7,1264.5,713.7z"/>
	<path d="M1296,712.5v-66h13v27.2h24.7v-27.2h12.9v66h-12.9v-27.4h-24.7v27.4H1296z"/>
	<path d="M1388.6,713.7c-8.3,0-14.5-2.1-18.8-6.2c-4.2-4.1-6.4-10.3-6.4-18.5v-42.6h13v38.9c0,5.6,1,9.6,2.9,12
		c1.9,2.4,5,3.7,9.3,3.7c4.3,0,7.4-1.2,9.3-3.7c1.9-2.4,2.9-6.4,2.9-12v-38.9h13v42.6c0,8.2-2.1,14.3-6.3,18.5
		C1403.1,711.7,1396.9,713.7,1388.6,713.7z"/>
	<path d="M1430.6,712.5v-66h13v54.6h23.8v11.4H1430.6z"/>
	<path d="M1478,712.5v-66h36.7v11.4h-23.8v15.9h22.8v11.4h-22.8v16h23.8v11.4H1478z"/>
	<path d="M1530.5,712.5v-66h13l28.4,44.4v-44.4h13v66h-13l-28.4-44.4v44.4H1530.5z"/>
	<path d="M1242.5,808.5v-66h13v54.6h23.8v11.4H1242.5z"/>
	<path d="M1313.8,809.7c-8.3,0-14.5-2.1-18.8-6.2c-4.2-4.1-6.4-10.3-6.4-18.5v-42.6h13v38.9c0,5.6,1,9.6,2.9,12
		c1.9,2.4,5,3.7,9.3,3.7c4.3,0,7.4-1.2,9.3-3.7c1.9-2.4,2.9-6.4,2.9-12v-38.9h13v42.6c0,8.2-2.1,14.3-6.3,18.5
		C1328.4,807.7,1322.1,809.7,1313.8,809.7z"/>
	<path d="M1348.5,808.5l35.1-54.6h-30.5v-11.4h53.2l-35.1,54.6h33v11.4H1348.5z"/>
	<path d="M1417.6,808.5v-66h36.7v11.4h-23.8v15.9h22.8v11.4h-22.8v16h23.8v11.4H1417.6z"/>
	<path d="M1470.2,808.5v-66h22.5c4.5,0,8.4,0.8,11.7,2.4c3.3,1.6,5.9,3.9,7.7,6.8c1.8,3,2.7,6.6,2.7,10.7c0,3.3-0.6,6.3-1.8,8.9
		c-1.2,2.7-2.9,4.9-5,6.7c-2.2,1.8-4.8,3.2-8,4l21.6,26.4h-16.4l-19-24.9h-3.1v24.9H1470.2z M1483.1,772.8h5.5c2.7,0,5-0.4,6.8-1.2
		s3.3-1.9,4.3-3.4s1.5-3.3,1.5-5.4c0-3.2-1.1-5.7-3.3-7.4c-2.2-1.7-5.3-2.6-9.3-2.6h-5.5V772.8z"/>
	<path d="M1530.5,808.5v-66h13l28.4,44.4v-44.4h13v66h-13l-28.4-44.4v44.4H1530.5z"/>
</g>
<g>
	<g>
		<path class="st10" d="M660,383.6c-13.6,15.3-29.9,27.1-47.4,37.3c-4.9,2.9-9.8,5.8-14.4,9.2c-1.6,1.2-3,4.1-2.8,6
			c0.3,3,3.4,3.5,6.1,3.4c12.2-0.4,23.7-4.2,35.1-7.8c24.4-7.7,47.2-18.9,68.8-32.6c7.8-4.9,14.7-5.9,23.8-3.3
			c29.7,8.6,60.2,12.5,91.1,11.8c58.5-1.3,111.1-19.5,156.7-56.6c18.6-15.1,34.5-33.1,40.8-56.5c10.9-40.5,2.8-77-27.9-107.1
			c-25.6-25.2-56.7-40.3-91.2-49.1c-32.8-8.4-66.2-9-99.8-7.7c-26,1-51.8,4.3-77.1,11c-41.3,11-77.2,31.2-106,63.1
			c-13.6,15-23.8,32-28.3,51.9c-5.4,24.3,0.8,46.4,14.4,66.7c12.7,19.1,30.8,31.7,50.7,42.2c4.9,2.6,9.7,5.1,15.3,8.1
			C665.1,377.1,662.7,380.5,660,383.6z"/>
		<path class="st15" d="M652.7,365.5c-19.9-10.5-38-23.2-50.7-42.2c-13.6-20.3-19.8-42.4-14.4-66.7c4.4-19.9,14.7-36.9,28.3-51.9
			c28.8-31.9,64.7-52.1,106-63.1c25.2-6.7,51-10.1,77.1-11c33.5-1.3,67-0.7,99.8,7.7c34.5,8.8,65.5,24,91.2,49.1
			c30.7,30.1,38.7,66.7,27.9,107.1c-6.3,23.5-22.2,41.4-40.8,56.5c-45.6,37.1-98.2,55.2-156.7,56.6c-31,0.7-61.5-3.2-91.1-11.8
			c-9.1-2.6-16-1.7-23.8,3.3c-21.5,13.7-44.3,24.9-68.8,32.6c-11.5,3.6-22.9,7.4-35.1,7.8c-2.7,0.1-5.8-0.4-6.1-3.4
			c-0.2-1.9,1.2-4.8,2.8-6c4.5-3.4,9.5-6.3,14.4-9.2c17.6-10.2,33.9-22,47.4-37.3c2.7-3.1,5.2-6.5,8-10
			C662.5,370.7,657.6,368.1,652.7,365.5z M656.4,416.1c15.9-7.5,31.5-15.7,46.7-24.5c8.8-5.1,16.6-6.5,26.7-3.5
			c33.3,9.8,67.4,13.8,102.1,11.5c56.5-3.8,106.8-23.3,148.9-61.9c14.6-13.4,26.6-29.2,30.9-48.8c7.4-33.6,2-64.6-22.1-90.8
			c-24.3-26.5-55-42.2-89.2-51.5c-26-7.1-52.6-8.9-79.3-8.9c-32.8,0.1-65.2,2.8-97,11.3c-39.5,10.5-74,29.8-101.8,60.1
			c-13,14.2-22.9,30.3-27.2,49.3c-5.2,23.4,1.4,44.2,15,63.2c9,12.6,20.4,22.4,33.8,30.1c8.9,5.1,18,9.9,27.1,14.8
			c5.1,2.7,6.6,5.5,3.4,10.3c-4,6.1-8.6,11.8-13.6,17.1c-12.5,13.2-27.2,23.6-42.8,32.8c-1.8,1.1-3.6,2.3-5.5,3.4
			C627.7,427,642.5,422.6,656.4,416.1z"/>
		<path class="st3" d="M622.2,209"/>
	</g>
	<g>
		<path d="M625.3,233.2v-16.5h3.5c1.2,0,2.3,0.2,3.3,0.6c1,0.4,1.9,1,2.6,1.8s1.3,1.6,1.8,2.6s0.6,2.1,0.6,3.2
			c0,1.2-0.2,2.2-0.6,3.2s-1,1.9-1.8,2.6c-0.8,0.8-1.6,1.3-2.6,1.8c-1,0.4-2.1,0.6-3.3,0.6H625.3z M626.4,232.2h2.4
			c1,0,2-0.2,2.8-0.6c0.9-0.4,1.7-0.9,2.3-1.5c0.7-0.7,1.2-1.4,1.5-2.3c0.4-0.9,0.6-1.8,0.6-2.9c0-1-0.2-2-0.5-2.9
			c-0.4-0.9-0.9-1.6-1.5-2.3c-0.7-0.7-1.4-1.2-2.3-1.5c-0.9-0.4-1.8-0.6-2.8-0.6h-2.4V232.2z"/>
		<path d="M646,233.5c-1.1,0-2-0.2-2.9-0.7s-1.5-1.1-2-1.9c-0.5-0.8-0.7-1.7-0.7-2.7c0-0.8,0.1-1.5,0.4-2.2c0.3-0.7,0.7-1.2,1.1-1.8
			c0.5-0.5,1.1-0.9,1.7-1.2c0.6-0.3,1.3-0.4,2.1-0.4c1,0,1.8,0.2,2.6,0.7c0.8,0.4,1.4,1.1,1.9,1.8c0.5,0.8,0.7,1.7,0.8,2.7
			c0,0.1,0,0.1,0,0.2c0,0,0,0.1,0,0.2h-9.6c0,0.9,0.2,1.6,0.6,2.3c0.4,0.7,0.9,1.2,1.6,1.6c0.7,0.4,1.5,0.6,2.3,0.6
			c0.8,0,1.6-0.2,2.3-0.5s1.2-0.9,1.6-1.5l0.8,0.4c-0.5,0.8-1.1,1.4-2,1.8C647.9,233.3,647,233.5,646,233.5z M641.5,227.3h8.5
			c-0.1-0.7-0.3-1.4-0.7-1.9c-0.4-0.6-0.9-1-1.5-1.3c-0.6-0.3-1.3-0.5-2-0.5c-0.7,0-1.4,0.2-2,0.5s-1.1,0.8-1.5,1.3
			C641.9,226,641.6,226.6,641.5,227.3z"/>
		<path d="M654.6,233.2V223h1.1v1.5c0.3-0.5,0.7-0.9,1.3-1.3c0.6-0.3,1.3-0.5,2.2-0.5c0.8,0,1.5,0.2,2,0.5c0.6,0.3,1,0.8,1.3,1.4
			c0.3,0.6,0.5,1.4,0.5,2.3v6.4h-1.1V227c0-1.1-0.3-2-0.8-2.6s-1.3-0.9-2.2-0.9c-0.7,0-1.2,0.1-1.7,0.4c-0.5,0.3-0.8,0.6-1.1,1
			c-0.3,0.4-0.4,0.9-0.4,1.4v6.8H654.6z"/>
		<path d="M672.3,233.2V223h1.1v1.5c0.3-0.6,0.7-1.1,1.2-1.4c0.5-0.3,1.1-0.5,1.8-0.5c0.3,0,0.6,0,0.9,0.1s0.5,0.1,0.8,0.2l-0.4,0.9
			c-0.2-0.1-0.4-0.2-0.7-0.2c-0.2,0-0.5-0.1-0.7-0.1c-0.5,0-0.9,0.1-1.4,0.4s-0.8,0.6-1.1,1c-0.3,0.4-0.4,0.8-0.4,1.3v7H672.3z"/>
		<path d="M681.5,221c-0.1,0-0.3,0-0.4-0.1c-0.1-0.1-0.2-0.2-0.3-0.3c-0.1-0.1-0.1-0.2-0.1-0.4c0-0.1,0-0.3,0.1-0.4
			c0.1-0.1,0.2-0.2,0.3-0.3c0.1-0.1,0.2-0.1,0.4-0.1c0.1,0,0.3,0,0.4,0.1c0.1,0.1,0.2,0.2,0.3,0.3c0.1,0.1,0.1,0.2,0.1,0.4
			c0,0.1,0,0.3-0.1,0.4c-0.1,0.1-0.2,0.2-0.3,0.3C681.7,220.9,681.6,221,681.5,221z M680.9,233.2V223h1.1v10.2H680.9z"/>
		<path d="M691.2,233.5c-0.8,0-1.5-0.1-2.2-0.4s-1.3-0.6-1.8-1.1c-0.5-0.5-0.9-1.1-1.2-1.7c-0.3-0.7-0.4-1.4-0.4-2.2
			s0.1-1.5,0.4-2.2c0.3-0.7,0.7-1.2,1.2-1.7c0.5-0.5,1.1-0.9,1.8-1.1s1.4-0.4,2.2-0.4c0.7,0,1.3,0.1,1.9,0.3
			c0.6,0.2,1.1,0.5,1.6,0.9l-0.5,0.7c-0.8-0.6-1.8-1-2.9-1c-0.9,0-1.7,0.2-2.4,0.6c-0.7,0.4-1.2,0.9-1.6,1.6
			c-0.4,0.7-0.6,1.5-0.6,2.3c0,0.9,0.2,1.6,0.6,2.3c0.4,0.7,0.9,1.2,1.6,1.6s1.5,0.6,2.4,0.6c0.6,0,1.1-0.1,1.6-0.2
			c0.5-0.2,0.9-0.4,1.3-0.7l0.5,0.7c-0.5,0.4-1,0.6-1.6,0.8C692.6,233.4,691.9,233.5,691.2,233.5z"/>
		<path d="M698.1,233.2V216h1.1v8.4c0.3-0.5,0.7-0.9,1.3-1.3c0.6-0.3,1.3-0.5,2.2-0.5c0.8,0,1.5,0.2,2,0.5c0.6,0.3,1,0.8,1.3,1.4
			c0.3,0.6,0.5,1.4,0.5,2.3v6.4h-1.1V227c0-1.1-0.3-2-0.8-2.6c-0.5-0.6-1.3-0.9-2.2-0.9c-0.7,0-1.2,0.1-1.7,0.4
			c-0.5,0.3-0.8,0.6-1.1,1.1c-0.3,0.4-0.4,0.9-0.4,1.4v6.8H698.1z"/>
		<path d="M712.9,233.5c-0.7,0-1.3-0.2-1.6-0.7c-0.4-0.5-0.6-1.2-0.6-2v-7h-1V223h1v-3.8h1.1v3.8h2.6v0.8h-2.6v6.9
			c0,0.6,0.1,1.1,0.4,1.4c0.2,0.3,0.6,0.5,1,0.5c0.4,0,0.8-0.1,1.1-0.3l0.3,0.9c-0.2,0.1-0.4,0.2-0.7,0.3S713.2,233.5,712.9,233.5z"
			/>
		<path d="M718.3,221c-0.1,0-0.3,0-0.4-0.1c-0.1-0.1-0.2-0.2-0.3-0.3c-0.1-0.1-0.1-0.2-0.1-0.4c0-0.1,0-0.3,0.1-0.4
			c0.1-0.1,0.2-0.2,0.3-0.3c0.1-0.1,0.2-0.1,0.4-0.1c0.1,0,0.3,0,0.4,0.1c0.1,0.1,0.2,0.2,0.3,0.3c0.1,0.1,0.1,0.2,0.1,0.4
			c0,0.1,0,0.3-0.1,0.4c-0.1,0.1-0.2,0.2-0.3,0.3C718.5,220.9,718.4,221,718.3,221z M717.8,233.2V223h1.1v10.2H717.8z"/>
		<path d="M727.7,238.7c-1.3,0-2.4-0.3-3.2-0.8c-0.9-0.5-1.5-1.2-2-2.2l0.9-0.4c0.3,0.8,0.9,1.4,1.6,1.8c0.8,0.5,1.7,0.7,2.7,0.7
			c0.8,0,1.6-0.2,2.2-0.5c0.7-0.3,1.2-0.8,1.6-1.4c0.4-0.6,0.6-1.4,0.6-2.3v-2.8c-0.4,0.8-1,1.5-1.8,2c-0.8,0.5-1.6,0.7-2.6,0.7
			c-1,0-1.8-0.2-2.6-0.7c-0.8-0.5-1.4-1.1-1.8-1.9c-0.5-0.8-0.7-1.8-0.7-2.8c0-1.1,0.2-2,0.7-2.8c0.4-0.8,1.1-1.5,1.8-1.9
			s1.6-0.7,2.6-0.7c1,0,1.8,0.2,2.6,0.7c0.8,0.5,1.4,1.1,1.8,2V223h1.1v10.5c0,1.2-0.2,2.1-0.7,2.9c-0.5,0.8-1.1,1.4-1.9,1.7
			C729.8,238.5,728.8,238.7,727.7,238.7z M727.9,232.6c0.8,0,1.6-0.2,2.2-0.6c0.6-0.4,1.1-0.9,1.5-1.6c0.4-0.7,0.5-1.5,0.5-2.3
			c0-0.9-0.2-1.6-0.5-2.3c-0.4-0.7-0.9-1.2-1.5-1.6c-0.6-0.4-1.4-0.6-2.2-0.6c-0.8,0-1.6,0.2-2.2,0.6c-0.6,0.4-1.1,0.9-1.5,1.6
			c-0.4,0.7-0.5,1.5-0.5,2.3c0,0.9,0.2,1.6,0.5,2.3s0.9,1.2,1.5,1.6C726.4,232.4,727.1,232.6,727.9,232.6z"/>
		<path d="M742.3,233.5c-1.1,0-2-0.2-2.9-0.7s-1.5-1.1-2-1.9c-0.5-0.8-0.7-1.7-0.7-2.7c0-0.8,0.1-1.5,0.4-2.2
			c0.3-0.7,0.7-1.2,1.1-1.8c0.5-0.5,1.1-0.9,1.7-1.2c0.6-0.3,1.3-0.4,2.1-0.4c1,0,1.8,0.2,2.6,0.7c0.8,0.4,1.4,1.1,1.9,1.8
			c0.5,0.8,0.7,1.7,0.8,2.7c0,0.1,0,0.1,0,0.2c0,0,0,0.1,0,0.2h-9.6c0,0.9,0.2,1.6,0.6,2.3c0.4,0.7,0.9,1.2,1.6,1.6
			c0.7,0.4,1.5,0.6,2.3,0.6c0.8,0,1.6-0.2,2.3-0.5s1.2-0.9,1.6-1.5l0.8,0.4c-0.5,0.8-1.1,1.4-2,1.8
			C744.2,233.3,743.3,233.5,742.3,233.5z M737.9,227.3h8.5c-0.1-0.7-0.3-1.4-0.7-1.9c-0.4-0.6-0.9-1-1.5-1.3c-0.6-0.3-1.3-0.5-2-0.5
			c-0.7,0-1.4,0.2-2,0.5s-1.1,0.8-1.5,1.3C738.2,226,738,226.6,737.9,227.3z"/>
		<path d="M751,233.2V223h1.1v1.5c0.3-0.5,0.7-0.9,1.3-1.3c0.6-0.3,1.3-0.5,2.2-0.5c0.8,0,1.5,0.2,2,0.5c0.6,0.3,1,0.8,1.3,1.4
			c0.3,0.6,0.5,1.4,0.5,2.3v6.4h-1.1V227c0-1.1-0.3-2-0.8-2.6s-1.3-0.9-2.2-0.9c-0.7,0-1.2,0.1-1.7,0.4c-0.5,0.3-0.8,0.6-1.1,1
			c-0.3,0.4-0.4,0.9-0.4,1.4v6.8H751z"/>
		<path d="M772.9,233.5c-0.9,0-1.6-0.1-2.3-0.4c-0.6-0.3-1.2-0.6-1.6-1c-0.4-0.4-0.8-0.8-1-1.1c-0.2-0.4-0.4-0.6-0.5-0.8l0.7-0.7
			c0.1,0.2,0.3,0.4,0.5,0.8c0.2,0.3,0.5,0.7,0.9,1c0.4,0.4,0.8,0.6,1.4,0.9c0.6,0.2,1.2,0.4,2,0.4c0.7,0,1.4-0.1,2-0.4
			s1.1-0.7,1.5-1.2c0.4-0.5,0.5-1.2,0.5-1.9c0-0.6-0.1-1.2-0.4-1.6s-0.6-0.8-1-1.1c-0.4-0.3-0.9-0.6-1.4-0.8
			c-0.5-0.2-1.1-0.4-1.7-0.6c-0.4-0.1-0.8-0.3-1.2-0.5c-0.4-0.2-0.9-0.5-1.3-0.8c-0.4-0.3-0.7-0.7-1-1.2c-0.3-0.5-0.4-1-0.4-1.7
			c0-0.6,0.1-1.2,0.3-1.7c0.2-0.5,0.5-1,0.9-1.4c0.4-0.4,0.9-0.7,1.4-0.9s1.1-0.3,1.8-0.3c0.7,0,1.3,0.1,1.8,0.3
			c0.5,0.2,1,0.5,1.4,0.9c0.4,0.4,0.7,0.7,0.9,1.1l-0.6,0.7c-0.2-0.3-0.4-0.6-0.7-0.9c-0.3-0.3-0.7-0.5-1.2-0.7s-1-0.3-1.6-0.3
			c-0.7,0-1.4,0.2-1.9,0.5c-0.5,0.3-0.9,0.7-1.2,1.3c-0.3,0.5-0.4,1-0.4,1.6c0,0.5,0.1,1,0.3,1.3c0.2,0.4,0.5,0.7,0.8,0.9
			c0.3,0.2,0.7,0.4,1.1,0.6s0.8,0.3,1.2,0.4c0.6,0.2,1.2,0.5,1.8,0.7c0.6,0.3,1.1,0.6,1.6,0.9s0.9,0.8,1.1,1.3
			c0.3,0.5,0.4,1.2,0.4,2c0,1-0.2,1.8-0.7,2.5c-0.5,0.7-1.1,1.2-1.8,1.5C774.7,233.4,773.8,233.5,772.9,233.5z"/>
		<path d="M784.2,233.5c-0.7,0-1.3-0.2-1.6-0.7c-0.4-0.5-0.6-1.2-0.6-2v-7h-1V223h1v-3.8h1.1v3.8h2.6v0.8h-2.6v6.9
			c0,0.6,0.1,1.1,0.4,1.4c0.2,0.3,0.6,0.5,1,0.5c0.4,0,0.8-0.1,1.1-0.3l0.3,0.9c-0.2,0.1-0.4,0.2-0.7,0.3S784.5,233.5,784.2,233.5z"
			/>
		<path d="M793,233.5c-1.5,0-2.5-0.3-3.2-1c-0.6-0.7-0.9-1.8-0.9-3.5V223h1.1v5.9c0,1.3,0.2,2.3,0.7,2.9c0.5,0.6,1.2,0.9,2.3,0.9
			c1.1,0,1.9-0.3,2.3-0.9s0.7-1.5,0.7-2.9V223h1.1v6.1c0,1.6-0.3,2.8-0.9,3.5S794.5,233.5,793,233.5z"/>
		<path d="M805.8,233.5c-1,0-1.8-0.2-2.6-0.7c-0.8-0.5-1.4-1.1-1.8-1.9c-0.4-0.8-0.7-1.8-0.7-2.8c0-1.1,0.2-2,0.7-2.8
			c0.4-0.8,1.1-1.5,1.8-1.9s1.6-0.7,2.6-0.7c1,0,1.8,0.2,2.6,0.7c0.8,0.5,1.4,1.1,1.8,2V216h1.1v17.2h-1.1v-2.4
			c-0.4,0.8-1,1.5-1.8,2C807.6,233.3,806.7,233.5,805.8,233.5z M806,232.6c0.8,0,1.6-0.2,2.2-0.6s1.1-0.9,1.5-1.6s0.5-1.5,0.5-2.3
			c0-0.9-0.2-1.6-0.5-2.3c-0.4-0.7-0.9-1.2-1.5-1.6s-1.4-0.6-2.2-0.6c-0.8,0-1.5,0.2-2.2,0.6s-1.1,0.9-1.5,1.6
			c-0.4,0.7-0.5,1.5-0.5,2.3c0,0.9,0.2,1.6,0.5,2.3s0.9,1.2,1.5,1.6C804.5,232.4,805.2,232.6,806,232.6z"/>
		<path d="M816.3,221c-0.1,0-0.3,0-0.4-0.1c-0.1-0.1-0.2-0.2-0.3-0.3c-0.1-0.1-0.1-0.2-0.1-0.4c0-0.1,0-0.3,0.1-0.4
			c0.1-0.1,0.2-0.2,0.3-0.3c0.1-0.1,0.2-0.1,0.4-0.1c0.1,0,0.3,0,0.4,0.1c0.1,0.1,0.2,0.2,0.3,0.3c0.1,0.1,0.1,0.2,0.1,0.4
			c0,0.1,0,0.3-0.1,0.4c-0.1,0.1-0.2,0.2-0.3,0.3C816.5,220.9,816.4,221,816.3,221z M815.7,233.2V223h1.1v10.2H815.7z"/>
		<path d="M826,233.5c-1.1,0-2-0.2-2.9-0.7s-1.5-1.1-2-1.9c-0.5-0.8-0.7-1.7-0.7-2.7c0-0.8,0.1-1.5,0.4-2.2c0.3-0.7,0.7-1.2,1.1-1.8
			c0.5-0.5,1.1-0.9,1.7-1.2c0.6-0.3,1.3-0.4,2.1-0.4c1,0,1.8,0.2,2.6,0.7c0.8,0.4,1.4,1.1,1.9,1.8c0.5,0.8,0.7,1.7,0.8,2.7
			c0,0.1,0,0.1,0,0.2c0,0,0,0.1,0,0.2h-9.6c0,0.9,0.2,1.6,0.6,2.3c0.4,0.7,0.9,1.2,1.6,1.6c0.7,0.4,1.5,0.6,2.3,0.6
			c0.8,0,1.6-0.2,2.3-0.5s1.2-0.9,1.6-1.5l0.8,0.4c-0.5,0.8-1.1,1.4-2,1.8C828,233.3,827.1,233.5,826,233.5z M821.6,227.3h8.5
			c-0.1-0.7-0.3-1.4-0.7-1.9c-0.4-0.6-0.9-1-1.5-1.3c-0.6-0.3-1.3-0.5-2-0.5c-0.7,0-1.4,0.2-2,0.5s-1.1,0.8-1.5,1.3
			C821.9,226,821.7,226.6,821.6,227.3z"/>
		<path d="M834.7,233.2V223h1.1v1.5c0.3-0.5,0.7-0.9,1.3-1.3c0.6-0.3,1.3-0.5,2.2-0.5c0.8,0,1.5,0.2,2,0.5c0.6,0.3,1,0.8,1.3,1.4
			c0.3,0.6,0.5,1.4,0.5,2.3v6.4h-1.1V227c0-1.1-0.3-2-0.8-2.6s-1.3-0.9-2.2-0.9c-0.7,0-1.2,0.1-1.7,0.4c-0.5,0.3-0.8,0.6-1.1,1
			c-0.3,0.4-0.4,0.9-0.4,1.4v6.8H834.7z"/>
		<path d="M851.7,238.7c-1.3,0-2.4-0.3-3.2-0.8c-0.9-0.5-1.5-1.2-2-2.2l0.9-0.4c0.3,0.8,0.9,1.4,1.6,1.8c0.8,0.5,1.7,0.7,2.7,0.7
			c0.8,0,1.6-0.2,2.2-0.5c0.7-0.3,1.2-0.8,1.6-1.4c0.4-0.6,0.6-1.4,0.6-2.3v-2.8c-0.4,0.8-1,1.5-1.8,2c-0.8,0.5-1.6,0.7-2.6,0.7
			c-1,0-1.8-0.2-2.6-0.7c-0.8-0.5-1.4-1.1-1.8-1.9c-0.5-0.8-0.7-1.8-0.7-2.8c0-1.1,0.2-2,0.7-2.8c0.4-0.8,1.1-1.5,1.8-1.9
			s1.6-0.7,2.6-0.7c1,0,1.8,0.2,2.6,0.7c0.8,0.5,1.4,1.1,1.8,2V223h1.1v10.5c0,1.2-0.2,2.1-0.7,2.9c-0.5,0.8-1.1,1.4-1.9,1.7
			C853.7,238.5,852.8,238.7,851.7,238.7z M851.9,232.6c0.8,0,1.6-0.2,2.2-0.6c0.6-0.4,1.1-0.9,1.5-1.6c0.4-0.7,0.5-1.5,0.5-2.3
			c0-0.9-0.2-1.6-0.5-2.3c-0.4-0.7-0.9-1.2-1.5-1.6c-0.6-0.4-1.4-0.6-2.2-0.6c-0.8,0-1.6,0.2-2.2,0.6c-0.6,0.4-1.1,0.9-1.5,1.6
			c-0.4,0.7-0.5,1.5-0.5,2.3c0,0.9,0.2,1.6,0.5,2.3s0.9,1.2,1.5,1.6C850.3,232.4,851.1,232.6,851.9,232.6z"/>
		<path d="M866,233.5c-1,0-1.8-0.2-2.6-0.7c-0.8-0.5-1.4-1.1-1.8-1.9c-0.4-0.8-0.7-1.8-0.7-2.8c0-1.1,0.2-2,0.7-2.8
			c0.4-0.8,1.1-1.5,1.8-1.9s1.6-0.7,2.6-0.7c1,0,1.9,0.2,2.6,0.7c0.8,0.5,1.4,1.1,1.8,2V223h1.1v10.2h-1.1v-2.4
			c-0.4,0.8-1,1.5-1.8,2S867,233.5,866,233.5z M866.2,232.6c0.8,0,1.6-0.2,2.2-0.6s1.1-0.9,1.5-1.6s0.5-1.5,0.5-2.3
			c0-0.9-0.2-1.7-0.5-2.3c-0.4-0.7-0.9-1.2-1.5-1.6s-1.4-0.6-2.2-0.6s-1.6,0.2-2.2,0.6s-1.1,0.9-1.5,1.6c-0.4,0.7-0.5,1.5-0.5,2.3
			c0,0.9,0.2,1.6,0.5,2.3s0.9,1.2,1.5,1.6C864.7,232.4,865.4,232.6,866.2,232.6z"/>
		<path d="M876,233.2V223h1.1v1.5c0.3-0.5,0.7-0.9,1.3-1.3c0.6-0.3,1.3-0.5,2.2-0.5c0.8,0,1.5,0.2,2,0.5c0.6,0.3,1,0.8,1.3,1.4
			c0.3,0.6,0.5,1.4,0.5,2.3v6.4h-1.1V227c0-1.1-0.3-2-0.8-2.6s-1.3-0.9-2.2-0.9c-0.7,0-1.2,0.1-1.7,0.4c-0.5,0.3-0.8,0.6-1.1,1
			c-0.3,0.4-0.4,0.9-0.4,1.4v6.8H876z"/>
		<path d="M893,238.7c-1.3,0-2.4-0.3-3.2-0.8c-0.9-0.5-1.5-1.2-2-2.2l0.9-0.4c0.3,0.8,0.9,1.4,1.6,1.8c0.8,0.5,1.7,0.7,2.7,0.7
			c0.8,0,1.6-0.2,2.2-0.5c0.7-0.3,1.2-0.8,1.6-1.4c0.4-0.6,0.6-1.4,0.6-2.3v-2.8c-0.4,0.8-1,1.5-1.8,2c-0.8,0.5-1.6,0.7-2.6,0.7
			c-1,0-1.8-0.2-2.6-0.7c-0.8-0.5-1.4-1.1-1.8-1.9c-0.5-0.8-0.7-1.8-0.7-2.8c0-1.1,0.2-2,0.7-2.8c0.4-0.8,1.1-1.5,1.8-1.9
			s1.6-0.7,2.6-0.7c1,0,1.8,0.2,2.6,0.7c0.8,0.5,1.4,1.1,1.8,2V223h1.1v10.5c0,1.2-0.2,2.1-0.7,2.9c-0.5,0.8-1.1,1.4-1.9,1.7
			C895,238.5,894.1,238.7,893,238.7z M893.2,232.6c0.8,0,1.6-0.2,2.2-0.6c0.6-0.4,1.1-0.9,1.5-1.6c0.4-0.7,0.5-1.5,0.5-2.3
			c0-0.9-0.2-1.6-0.5-2.3c-0.4-0.7-0.9-1.2-1.5-1.6c-0.6-0.4-1.4-0.6-2.2-0.6c-0.8,0-1.6,0.2-2.2,0.6c-0.6,0.4-1.1,0.9-1.5,1.6
			c-0.4,0.7-0.5,1.5-0.5,2.3c0,0.9,0.2,1.6,0.5,2.3s0.9,1.2,1.5,1.6C891.6,232.4,892.3,232.6,893.2,232.6z"/>
		<path d="M906.6,233.2l8.1-9.3h-7.3V223h9.3l-8.1,9.3h7.9v0.9H906.6z"/>
		<path d="M923.9,233.5c-1.5,0-2.5-0.3-3.2-1c-0.6-0.7-0.9-1.8-0.9-3.5V223h1.1v5.9c0,1.3,0.2,2.3,0.7,2.9c0.5,0.6,1.2,0.9,2.3,0.9
			c1.1,0,1.9-0.3,2.3-0.9s0.7-1.5,0.7-2.9V223h1.1v6.1c0,1.6-0.3,2.8-0.9,3.5S925.4,233.5,923.9,233.5z"/>
		<path d="M937.5,233.2v-9.4h-0.9V223h0.9V219c0-0.8,0.1-1.4,0.3-1.9c0.2-0.5,0.5-0.8,0.9-1.1c0.4-0.2,0.8-0.3,1.4-0.3
			c0.3,0,0.7,0.1,1,0.2s0.6,0.3,0.9,0.5s0.5,0.4,0.6,0.7l-0.6,0.6c-0.1-0.3-0.4-0.5-0.7-0.7c-0.3-0.2-0.6-0.3-1-0.3
			c-0.6,0-1,0.2-1.3,0.5c-0.3,0.4-0.5,1-0.5,1.8v4h4.3v10.2h-1.1v-9.4h-3.2v9.4H937.5z"/>
		<path d="M946.8,233.2V223h1.1v1.5c0.3-0.5,0.7-0.9,1.3-1.3c0.6-0.3,1.3-0.5,2.2-0.5c0.8,0,1.5,0.2,2,0.5c0.6,0.3,1,0.8,1.3,1.4
			c0.3,0.6,0.5,1.4,0.5,2.3v6.4h-1.1V227c0-1.1-0.3-2-0.8-2.6s-1.3-0.9-2.2-0.9c-0.7,0-1.2,0.1-1.7,0.4c-0.5,0.3-0.8,0.6-1.1,1
			c-0.3,0.4-0.4,0.9-0.4,1.4v6.8H946.8z"/>
		<path d="M963.8,233.5c-1,0-1.8-0.2-2.6-0.7c-0.8-0.5-1.4-1.1-1.8-1.9c-0.4-0.8-0.7-1.8-0.7-2.8c0-1.1,0.2-2,0.7-2.8
			c0.4-0.8,1.1-1.5,1.8-1.9s1.6-0.7,2.6-0.7c1,0,1.8,0.2,2.6,0.7c0.8,0.5,1.4,1.1,1.8,2V216h1.1v17.2h-1.1v-2.4
			c-0.4,0.8-1,1.5-1.8,2S964.8,233.5,963.8,233.5z M964,232.6c0.8,0,1.6-0.2,2.2-0.6c0.6-0.4,1.1-0.9,1.5-1.6s0.5-1.5,0.5-2.3
			c0-0.9-0.2-1.6-0.5-2.3c-0.4-0.7-0.9-1.2-1.5-1.6c-0.6-0.4-1.4-0.6-2.2-0.6c-0.8,0-1.5,0.2-2.2,0.6s-1.1,0.9-1.5,1.6
			c-0.4,0.7-0.5,1.5-0.5,2.3c0,0.9,0.2,1.6,0.5,2.3s0.9,1.2,1.5,1.6C962.5,232.4,963.2,232.6,964,232.6z"/>
		<path d="M978.5,233.5c-1.1,0-2-0.2-2.9-0.7c-0.8-0.5-1.5-1.1-2-1.9c-0.5-0.8-0.7-1.7-0.7-2.7c0-0.8,0.1-1.5,0.4-2.2
			c0.3-0.7,0.7-1.2,1.2-1.8s1.1-0.9,1.7-1.2c0.6-0.3,1.3-0.4,2.1-0.4c1,0,1.8,0.2,2.6,0.7s1.4,1.1,1.9,1.8c0.5,0.8,0.7,1.7,0.8,2.7
			c0,0.1,0,0.1,0,0.2c0,0,0,0.1,0,0.2H974c0,0.9,0.2,1.6,0.6,2.3c0.4,0.7,0.9,1.2,1.6,1.6c0.7,0.4,1.5,0.6,2.3,0.6
			c0.8,0,1.6-0.2,2.3-0.5s1.2-0.9,1.6-1.5l0.8,0.4c-0.5,0.8-1.1,1.4-2,1.8C980.5,233.3,979.5,233.5,978.5,233.5z M974.1,227.3h8.5
			c-0.1-0.7-0.3-1.4-0.7-1.9c-0.4-0.6-0.9-1-1.5-1.3c-0.6-0.3-1.3-0.5-2-0.5c-0.7,0-1.4,0.2-2,0.5c-0.6,0.3-1.1,0.8-1.5,1.3
			C974.4,226,974.2,226.6,974.1,227.3z"/>
		<path d="M987.2,233.2V223h1.1v1.5c0.3-0.5,0.7-0.9,1.3-1.3c0.6-0.3,1.3-0.5,2.2-0.5c0.8,0,1.5,0.2,2,0.5c0.6,0.3,1,0.8,1.3,1.4
			c0.3,0.6,0.5,1.4,0.5,2.3v6.4h-1.1V227c0-1.1-0.3-2-0.8-2.6s-1.3-0.9-2.2-0.9c-0.7,0-1.2,0.1-1.7,0.4c-0.5,0.3-0.8,0.6-1.1,1
			c-0.3,0.4-0.4,0.9-0.4,1.4v6.8H987.2z"/>
		<path d="M713.2,245c-0.1,0-0.3,0-0.4-0.1c-0.1-0.1-0.2-0.2-0.3-0.3c-0.1-0.1-0.1-0.2-0.1-0.4c0-0.1,0-0.3,0.1-0.4
			c0.1-0.1,0.2-0.2,0.3-0.3c0.1-0.1,0.2-0.1,0.4-0.1c0.1,0,0.3,0,0.4,0.1c0.1,0.1,0.2,0.2,0.3,0.3c0.1,0.1,0.1,0.2,0.1,0.4
			c0,0.1,0,0.3-0.1,0.4c-0.1,0.1-0.2,0.2-0.3,0.3C713.5,244.9,713.3,245,713.2,245z M712.7,257.2V247h1.1v10.2H712.7z"/>
		<path d="M720.8,257.5c-0.8,0-1.6-0.2-2.2-0.7c-0.6-0.4-1.1-1.1-1.5-1.9l0.6-0.5c0.3,0.7,0.7,1.2,1.2,1.6c0.5,0.4,1.1,0.6,1.8,0.6
			c0.5,0,0.9-0.1,1.3-0.3c0.4-0.2,0.7-0.5,0.9-0.8c0.2-0.4,0.4-0.8,0.4-1.3c0-0.4-0.1-0.8-0.3-1c-0.2-0.2-0.5-0.5-0.9-0.6
			c-0.4-0.2-0.9-0.4-1.4-0.6c-0.4-0.2-0.9-0.4-1.3-0.6c-0.4-0.2-0.8-0.5-1-0.8c-0.3-0.3-0.4-0.8-0.4-1.3c0-0.5,0.1-0.9,0.4-1.3
			c0.3-0.4,0.6-0.7,1.1-0.9s1-0.3,1.6-0.3c0.6,0,1.1,0.1,1.6,0.4c0.5,0.3,0.9,0.7,1.3,1.1l-0.6,0.6c-0.5-0.9-1.3-1.3-2.3-1.3
			c-0.6,0-1.1,0.2-1.5,0.5c-0.4,0.3-0.6,0.8-0.6,1.3c0,0.4,0.1,0.7,0.3,0.9c0.2,0.2,0.5,0.4,0.9,0.6s0.8,0.3,1.2,0.5
			c0.6,0.2,1.2,0.5,1.6,0.7c0.5,0.2,0.8,0.5,1.1,0.9c0.2,0.3,0.4,0.8,0.4,1.4c0,0.7-0.2,1.2-0.5,1.7s-0.7,0.9-1.3,1.1
			S721.5,257.5,720.8,257.5z"/>
		<path d="M730.2,257.5c-0.7,0-1.3-0.2-1.6-0.7c-0.4-0.5-0.6-1.2-0.6-2v-7h-1V247h1v-3.8h1.1v3.8h2.6v0.8H729v6.9
			c0,0.6,0.1,1.1,0.4,1.4c0.2,0.3,0.6,0.5,1,0.5c0.4,0,0.8-0.1,1.1-0.3l0.3,0.9c-0.2,0.1-0.4,0.2-0.7,0.3S730.5,257.5,730.2,257.5z"
			/>
		<path d="M744.5,262.7c-1.3,0-2.4-0.3-3.2-0.8c-0.9-0.5-1.5-1.2-2-2.2l0.9-0.4c0.3,0.8,0.9,1.4,1.6,1.8c0.8,0.5,1.7,0.7,2.7,0.7
			c0.8,0,1.6-0.2,2.2-0.5c0.7-0.3,1.2-0.8,1.6-1.4c0.4-0.6,0.6-1.4,0.6-2.3v-2.8c-0.4,0.8-1,1.5-1.8,2c-0.8,0.5-1.6,0.7-2.6,0.7
			c-1,0-1.8-0.2-2.6-0.7c-0.8-0.5-1.4-1.1-1.8-1.9c-0.5-0.8-0.7-1.8-0.7-2.8c0-1.1,0.2-2,0.7-2.8c0.4-0.8,1.1-1.5,1.8-1.9
			s1.6-0.7,2.6-0.7c1,0,1.8,0.2,2.6,0.7c0.8,0.5,1.4,1.1,1.8,2V247h1.1v10.5c0,1.2-0.2,2.1-0.7,2.9c-0.5,0.8-1.1,1.4-1.9,1.7
			C746.6,262.5,745.6,262.7,744.5,262.7z M744.7,256.6c0.8,0,1.6-0.2,2.2-0.6c0.6-0.4,1.1-0.9,1.5-1.6c0.4-0.7,0.5-1.5,0.5-2.3
			c0-0.9-0.2-1.6-0.5-2.3c-0.4-0.7-0.9-1.2-1.5-1.6c-0.6-0.4-1.4-0.6-2.2-0.6c-0.8,0-1.6,0.2-2.2,0.6c-0.6,0.4-1.1,0.9-1.5,1.6
			c-0.4,0.7-0.5,1.5-0.5,2.3c0,0.9,0.2,1.6,0.5,2.3s0.9,1.2,1.5,1.6C743.2,256.4,743.9,256.6,744.7,256.6z"/>
		<path d="M758.8,257.5c-1,0-1.8-0.2-2.6-0.7c-0.8-0.5-1.4-1.1-1.8-1.9c-0.4-0.8-0.7-1.8-0.7-2.8c0-1.1,0.2-2,0.7-2.8
			c0.4-0.8,1.1-1.5,1.8-1.9s1.6-0.7,2.6-0.7c1,0,1.9,0.2,2.6,0.7c0.8,0.5,1.4,1.1,1.8,2V247h1.1v10.2h-1.1v-2.4
			c-0.4,0.8-1,1.5-1.8,2S759.8,257.5,758.8,257.5z M759.1,256.6c0.8,0,1.6-0.2,2.2-0.6s1.1-0.9,1.5-1.6s0.5-1.5,0.5-2.3
			c0-0.9-0.2-1.7-0.5-2.3c-0.4-0.7-0.9-1.2-1.5-1.6s-1.4-0.6-2.2-0.6s-1.6,0.2-2.2,0.6s-1.1,0.9-1.5,1.6c-0.4,0.7-0.5,1.5-0.5,2.3
			c0,0.9,0.2,1.6,0.5,2.3s0.9,1.2,1.5,1.6C757.5,256.4,758.2,256.6,759.1,256.6z"/>
		<path d="M768.8,257.2V247h1.1v1.5c0.3-0.6,0.7-1.1,1.2-1.4c0.5-0.3,1.1-0.5,1.8-0.5c0.3,0,0.6,0,0.9,0.1s0.5,0.1,0.8,0.2l-0.4,0.9
			c-0.2-0.1-0.4-0.2-0.7-0.2c-0.2,0-0.5-0.1-0.7-0.1c-0.5,0-0.9,0.1-1.4,0.4s-0.8,0.6-1.1,1c-0.3,0.4-0.4,0.8-0.4,1.3v7H768.8z"/>
		<path d="M782.5,257.2V240h1.1v11.3l4.2-4.3h1.4l-4.6,4.8l4.8,5.5H788l-4.4-5.1v5.1H782.5z"/>
		<path d="M797.3,257.5c-1.1,0-2-0.2-2.9-0.7s-1.5-1.1-2-1.9c-0.5-0.8-0.7-1.7-0.7-2.7c0-0.8,0.1-1.5,0.4-2.2
			c0.3-0.7,0.7-1.2,1.1-1.8c0.5-0.5,1.1-0.9,1.7-1.2c0.6-0.3,1.3-0.4,2.1-0.4c1,0,1.8,0.2,2.6,0.7c0.8,0.4,1.4,1.1,1.9,1.8
			c0.5,0.8,0.7,1.7,0.8,2.7c0,0.1,0,0.1,0,0.2c0,0,0,0.1,0,0.2h-9.6c0,0.9,0.2,1.6,0.6,2.3c0.4,0.7,0.9,1.2,1.6,1.6
			c0.7,0.4,1.5,0.6,2.3,0.6c0.8,0,1.6-0.2,2.3-0.5s1.2-0.9,1.6-1.5l0.8,0.4c-0.5,0.8-1.1,1.4-2,1.8
			C799.3,257.3,798.3,257.5,797.3,257.5z M792.9,251.3h8.5c-0.1-0.7-0.3-1.4-0.7-1.9c-0.4-0.6-0.9-1-1.5-1.3c-0.6-0.3-1.3-0.5-2-0.5
			c-0.7,0-1.4,0.2-2,0.5s-1.1,0.8-1.5,1.3C793.2,250,793,250.6,792.9,251.3z"/>
		<path d="M806.5,245c-0.1,0-0.3,0-0.4-0.1c-0.1-0.1-0.2-0.2-0.3-0.3c-0.1-0.1-0.1-0.2-0.1-0.4c0-0.1,0-0.3,0.1-0.4
			c0.1-0.1,0.2-0.2,0.3-0.3c0.1-0.1,0.2-0.1,0.4-0.1c0.1,0,0.3,0,0.4,0.1c0.1,0.1,0.2,0.2,0.3,0.3c0.1,0.1,0.1,0.2,0.1,0.4
			c0,0.1,0,0.3-0.1,0.4c-0.1,0.1-0.2,0.2-0.3,0.3C806.8,244.9,806.6,245,806.5,245z M806,257.2V247h1.1v10.2H806z"/>
		<path d="M811.5,257.2V247h1.1v1.5c0.3-0.5,0.7-0.9,1.3-1.3c0.6-0.3,1.3-0.5,2.2-0.5c0.8,0,1.5,0.2,2,0.5c0.6,0.3,1,0.8,1.3,1.4
			c0.3,0.6,0.5,1.4,0.5,2.3v6.4h-1.1V251c0-1.1-0.3-2-0.8-2.6s-1.3-0.9-2.2-0.9c-0.7,0-1.2,0.1-1.7,0.4c-0.5,0.3-0.8,0.6-1.1,1
			c-0.3,0.4-0.4,0.9-0.4,1.4v6.8H811.5z"/>
		<path d="M828.9,257.5c-1.1,0-2-0.2-2.9-0.7s-1.5-1.1-2-1.9c-0.5-0.8-0.7-1.7-0.7-2.7c0-0.8,0.1-1.5,0.4-2.2
			c0.3-0.7,0.7-1.2,1.1-1.8c0.5-0.5,1.1-0.9,1.7-1.2c0.6-0.3,1.3-0.4,2.1-0.4c1,0,1.8,0.2,2.6,0.7c0.8,0.4,1.4,1.1,1.9,1.8
			c0.5,0.8,0.7,1.7,0.8,2.7c0,0.1,0,0.1,0,0.2c0,0,0,0.1,0,0.2h-9.6c0,0.9,0.2,1.6,0.6,2.3c0.4,0.7,0.9,1.2,1.6,1.6
			c0.7,0.4,1.5,0.6,2.3,0.6c0.8,0,1.6-0.2,2.3-0.5s1.2-0.9,1.6-1.5l0.8,0.4c-0.5,0.8-1.1,1.4-2,1.8
			C830.8,257.3,829.9,257.5,828.9,257.5z M824.4,251.3h8.5c-0.1-0.7-0.3-1.4-0.7-1.9c-0.4-0.6-0.9-1-1.5-1.3c-0.6-0.3-1.3-0.5-2-0.5
			c-0.7,0-1.4,0.2-2,0.5s-1.1,0.8-1.5,1.3C824.8,250,824.5,250.6,824.4,251.3z"/>
		<path d="M842.6,257.2V240h1.1v17.2H842.6z"/>
		<path d="M853,257.5c-1.1,0-2-0.2-2.9-0.7s-1.5-1.1-2-1.9c-0.5-0.8-0.7-1.7-0.7-2.7c0-0.8,0.1-1.5,0.4-2.2c0.3-0.7,0.7-1.2,1.1-1.8
			c0.5-0.5,1.1-0.9,1.7-1.2c0.6-0.3,1.3-0.4,2.1-0.4c1,0,1.8,0.2,2.6,0.7c0.8,0.4,1.4,1.1,1.9,1.8c0.5,0.8,0.7,1.7,0.8,2.7
			c0,0.1,0,0.1,0,0.2c0,0,0,0.1,0,0.2h-9.6c0,0.9,0.2,1.6,0.6,2.3c0.4,0.7,0.9,1.2,1.6,1.6c0.7,0.4,1.5,0.6,2.3,0.6
			c0.8,0,1.6-0.2,2.3-0.5s1.2-0.9,1.6-1.5l0.8,0.4c-0.5,0.8-1.1,1.4-2,1.8C854.9,257.3,854,257.5,853,257.5z M848.5,251.3h8.5
			c-0.1-0.7-0.3-1.4-0.7-1.9c-0.4-0.6-0.9-1-1.5-1.3c-0.6-0.3-1.3-0.5-2-0.5c-0.7,0-1.4,0.2-2,0.5s-1.1,0.8-1.5,1.3
			C848.8,250,848.6,250.6,848.5,251.3z"/>
		<path d="M862.1,245c-0.1,0-0.3,0-0.4-0.1c-0.1-0.1-0.2-0.2-0.3-0.3c-0.1-0.1-0.1-0.2-0.1-0.4c0-0.1,0-0.3,0.1-0.4
			c0.1-0.1,0.2-0.2,0.3-0.3c0.1-0.1,0.2-0.1,0.4-0.1c0.1,0,0.3,0,0.4,0.1c0.1,0.1,0.2,0.2,0.3,0.3c0.1,0.1,0.1,0.2,0.1,0.4
			c0,0.1,0,0.3-0.1,0.4c-0.1,0.1-0.2,0.2-0.3,0.3C862.4,244.9,862.3,245,862.1,245z M861.6,257.2V247h1.1v10.2H861.6z"/>
		<path d="M871.9,257.5c-0.8,0-1.5-0.1-2.2-0.4s-1.3-0.6-1.8-1.1c-0.5-0.5-0.9-1.1-1.2-1.7c-0.3-0.7-0.4-1.4-0.4-2.2
			s0.1-1.5,0.4-2.2c0.3-0.7,0.7-1.2,1.2-1.7c0.5-0.5,1.1-0.9,1.8-1.1s1.4-0.4,2.2-0.4c0.7,0,1.3,0.1,1.9,0.3
			c0.6,0.2,1.1,0.5,1.6,0.9l-0.5,0.7c-0.8-0.6-1.8-1-2.9-1c-0.9,0-1.7,0.2-2.4,0.6c-0.7,0.4-1.2,0.9-1.6,1.6
			c-0.4,0.7-0.6,1.5-0.6,2.3c0,0.9,0.2,1.6,0.6,2.3c0.4,0.7,0.9,1.2,1.6,1.6s1.5,0.6,2.4,0.6c0.6,0,1.1-0.1,1.6-0.2
			c0.5-0.2,0.9-0.4,1.3-0.7l0.5,0.7c-0.5,0.4-1,0.6-1.6,0.8C873.2,257.4,872.6,257.5,871.9,257.5z"/>
		<path d="M878.8,257.2V240h1.1v8.4c0.3-0.5,0.7-0.9,1.3-1.3c0.6-0.3,1.3-0.5,2.2-0.5c0.8,0,1.5,0.2,2,0.5c0.6,0.3,1,0.8,1.3,1.4
			c0.3,0.6,0.5,1.4,0.5,2.3v6.4H886V251c0-1.1-0.3-2-0.8-2.6c-0.5-0.6-1.3-0.9-2.2-0.9c-0.7,0-1.2,0.1-1.7,0.4
			c-0.5,0.3-0.8,0.6-1.1,1.1c-0.3,0.4-0.4,0.9-0.4,1.4v6.8H878.8z"/>
		<path d="M893.5,257.5c-0.7,0-1.3-0.2-1.6-0.7c-0.4-0.5-0.6-1.2-0.6-2v-7h-1V247h1v-3.8h1.1v3.8h2.6v0.8h-2.6v6.9
			c0,0.6,0.1,1.1,0.4,1.4c0.2,0.3,0.6,0.5,1,0.5c0.4,0,0.8-0.1,1.1-0.3l0.3,0.9c-0.2,0.1-0.4,0.2-0.7,0.3S893.8,257.5,893.5,257.5z"
			/>
		<path d="M903.2,257.5c-1.1,0-2-0.2-2.9-0.7s-1.5-1.1-2-1.9c-0.5-0.8-0.7-1.7-0.7-2.7c0-0.8,0.1-1.5,0.4-2.2
			c0.3-0.7,0.7-1.2,1.1-1.8c0.5-0.5,1.1-0.9,1.7-1.2c0.6-0.3,1.3-0.4,2.1-0.4c1,0,1.8,0.2,2.6,0.7c0.8,0.4,1.4,1.1,1.9,1.8
			c0.5,0.8,0.7,1.7,0.8,2.7c0,0.1,0,0.1,0,0.2c0,0,0,0.1,0,0.2h-9.6c0,0.9,0.2,1.6,0.6,2.3c0.4,0.7,0.9,1.2,1.6,1.6
			c0.7,0.4,1.5,0.6,2.3,0.6c0.8,0,1.6-0.2,2.3-0.5s1.2-0.9,1.6-1.5l0.8,0.4c-0.5,0.8-1.1,1.4-2,1.8
			C905.1,257.3,904.2,257.5,903.2,257.5z M898.7,251.3h8.5c-0.1-0.7-0.3-1.4-0.7-1.9c-0.4-0.6-0.9-1-1.5-1.3c-0.6-0.3-1.3-0.5-2-0.5
			c-0.7,0-1.4,0.2-2,0.5s-1.1,0.8-1.5,1.3C899.1,250,898.8,250.6,898.7,251.3z"/>
		<path d="M639.8,281.2l6.5-16.5h1l6.5,16.5h-1.2l-2.2-5.6h-7.2l-2.2,5.6H639.8z M643.5,274.6h6.5l-3.3-8.5L643.5,274.6z"/>
		<path d="M661.2,281.5c-1.5,0-2.5-0.3-3.2-1c-0.6-0.7-0.9-1.8-0.9-3.5V271h1.1v5.9c0,1.3,0.2,2.3,0.7,2.9c0.5,0.6,1.2,0.9,2.3,0.9
			c1.1,0,1.9-0.3,2.3-0.9s0.7-1.5,0.7-2.9V271h1.1v6.1c0,1.6-0.3,2.8-0.9,3.5S662.7,281.5,661.2,281.5z"/>
		<path d="M669.8,281.2v-9.4h-1V271h1V267c0-0.7,0.1-1.3,0.3-1.8c0.2-0.5,0.5-0.9,0.9-1.1c0.4-0.3,0.9-0.4,1.4-0.4
			c0.3,0,0.7,0,1,0.1c0.3,0.1,0.5,0.2,0.8,0.4l-0.4,0.8c-0.3-0.2-0.7-0.4-1.2-0.4c-0.4,0-0.7,0.1-1,0.3c-0.3,0.2-0.4,0.4-0.6,0.8
			c-0.1,0.3-0.2,0.8-0.2,1.2v4h2.7v0.8h-2.7v9.4H669.8z"/>
		<path d="M681,286.7c-1.3,0-2.4-0.3-3.2-0.8c-0.9-0.5-1.5-1.2-2-2.2l0.9-0.4c0.3,0.8,0.9,1.4,1.6,1.8c0.8,0.5,1.7,0.7,2.7,0.7
			c0.8,0,1.6-0.2,2.2-0.5c0.7-0.3,1.2-0.8,1.6-1.4c0.4-0.6,0.6-1.4,0.6-2.3v-2.8c-0.4,0.8-1,1.5-1.8,2c-0.8,0.5-1.6,0.7-2.6,0.7
			c-1,0-1.8-0.2-2.6-0.7c-0.8-0.5-1.4-1.1-1.8-1.9c-0.5-0.8-0.7-1.8-0.7-2.8c0-1.1,0.2-2,0.7-2.8c0.4-0.8,1.1-1.5,1.8-1.9
			s1.6-0.7,2.6-0.7c1,0,1.8,0.2,2.6,0.7c0.8,0.5,1.4,1.1,1.8,2V271h1.1v10.5c0,1.2-0.2,2.1-0.7,2.9c-0.5,0.8-1.1,1.4-1.9,1.7
			C683.1,286.5,682.1,286.7,681,286.7z M681.2,280.6c0.8,0,1.6-0.2,2.2-0.6c0.6-0.4,1.1-0.9,1.5-1.6c0.4-0.7,0.5-1.5,0.5-2.3
			c0-0.9-0.2-1.6-0.5-2.3c-0.4-0.7-0.9-1.2-1.5-1.6c-0.6-0.4-1.4-0.6-2.2-0.6c-0.8,0-1.6,0.2-2.2,0.6c-0.6,0.4-1.1,0.9-1.5,1.6
			c-0.4,0.7-0.5,1.5-0.5,2.3c0,0.9,0.2,1.6,0.5,2.3s0.9,1.2,1.5,1.6C679.7,280.4,680.4,280.6,681.2,280.6z"/>
		<path d="M695.4,281.5c-1,0-1.8-0.2-2.6-0.7c-0.8-0.5-1.4-1.1-1.8-1.9c-0.4-0.8-0.7-1.8-0.7-2.8c0-1.1,0.2-2,0.7-2.8
			c0.4-0.8,1.1-1.5,1.8-1.9s1.6-0.7,2.6-0.7c1,0,1.9,0.2,2.6,0.7c0.8,0.5,1.4,1.1,1.8,2V271h1.1v10.2h-1.1v-2.4
			c-0.4,0.8-1,1.5-1.8,2S696.3,281.5,695.4,281.5z M695.6,280.6c0.8,0,1.6-0.2,2.2-0.6s1.1-0.9,1.5-1.6s0.5-1.5,0.5-2.3
			c0-0.9-0.2-1.7-0.5-2.3c-0.4-0.7-0.9-1.2-1.5-1.6s-1.4-0.6-2.2-0.6s-1.6,0.2-2.2,0.6s-1.1,0.9-1.5,1.6c-0.4,0.7-0.5,1.5-0.5,2.3
			c0,0.9,0.2,1.6,0.5,2.3s0.9,1.2,1.5,1.6C694,280.4,694.8,280.6,695.6,280.6z"/>
		<path d="M710.8,281.5c-1,0-1.8-0.2-2.6-0.7c-0.8-0.5-1.4-1.1-1.8-2v2.4h-1.1V264h1.1v9.3c0.4-0.8,1-1.5,1.8-2
			c0.8-0.5,1.6-0.7,2.6-0.7c1,0,1.8,0.2,2.6,0.7s1.4,1.1,1.8,1.9c0.4,0.8,0.7,1.8,0.7,2.8c0,1-0.2,2-0.7,2.8
			c-0.4,0.8-1.1,1.5-1.8,1.9C712.6,281.3,711.7,281.5,710.8,281.5z M710.6,280.6c0.8,0,1.5-0.2,2.2-0.6c0.6-0.4,1.1-0.9,1.5-1.6
			s0.5-1.5,0.5-2.3c0-0.9-0.2-1.6-0.5-2.3c-0.4-0.7-0.9-1.2-1.5-1.6s-1.4-0.6-2.2-0.6c-0.8,0-1.6,0.2-2.2,0.6s-1.1,0.9-1.5,1.6
			c-0.4,0.7-0.5,1.5-0.5,2.3c0,0.9,0.2,1.6,0.5,2.3c0.4,0.7,0.9,1.2,1.5,1.6S709.7,280.6,710.6,280.6z"/>
		<path d="M724.4,281.5c-1.1,0-2-0.2-2.9-0.7s-1.5-1.1-2-1.9c-0.5-0.8-0.7-1.7-0.7-2.7c0-0.8,0.1-1.5,0.4-2.2
			c0.3-0.7,0.7-1.2,1.1-1.8c0.5-0.5,1.1-0.9,1.7-1.2c0.6-0.3,1.3-0.4,2.1-0.4c1,0,1.8,0.2,2.6,0.7c0.8,0.4,1.4,1.1,1.9,1.8
			c0.5,0.8,0.7,1.7,0.8,2.7c0,0.1,0,0.1,0,0.2c0,0,0,0.1,0,0.2h-9.6c0,0.9,0.2,1.6,0.6,2.3c0.4,0.7,0.9,1.2,1.6,1.6
			c0.7,0.4,1.5,0.6,2.3,0.6c0.8,0,1.6-0.2,2.3-0.5s1.2-0.9,1.6-1.5l0.8,0.4c-0.5,0.8-1.1,1.4-2,1.8
			C726.3,281.3,725.4,281.5,724.4,281.5z M720,275.3h8.5c-0.1-0.7-0.3-1.4-0.7-1.9c-0.4-0.6-0.9-1-1.5-1.3c-0.6-0.3-1.3-0.5-2-0.5
			c-0.7,0-1.4,0.2-2,0.5s-1.1,0.8-1.5,1.3C720.3,274,720.1,274.6,720,275.3z"/>
		<path d="M734.6,281.5c-0.1,0-0.3,0-0.4-0.1c-0.1-0.1-0.2-0.2-0.3-0.3c-0.1-0.1-0.1-0.3-0.1-0.4c0-0.1,0-0.3,0.1-0.4
			c0.1-0.1,0.2-0.2,0.3-0.3c0.1-0.1,0.2-0.1,0.4-0.1c0.1,0,0.3,0,0.4,0.1c0.1,0.1,0.2,0.2,0.3,0.3c0.1,0.1,0.1,0.2,0.1,0.4
			c0,0.1,0,0.3-0.1,0.4c-0.1,0.1-0.2,0.2-0.3,0.3C734.9,281.5,734.7,281.5,734.6,281.5z"/>
		<path d="M741.1,281.2v-16.5h3.5c1.2,0,2.3,0.2,3.3,0.6c1,0.4,1.9,1,2.6,1.8s1.3,1.6,1.8,2.6s0.6,2.1,0.6,3.2
			c0,1.2-0.2,2.2-0.6,3.2s-1,1.9-1.8,2.6c-0.8,0.8-1.6,1.3-2.6,1.8c-1,0.4-2.1,0.6-3.3,0.6H741.1z M742.2,280.2h2.4
			c1,0,2-0.2,2.8-0.6c0.9-0.4,1.7-0.9,2.3-1.5c0.7-0.7,1.2-1.4,1.5-2.3c0.4-0.9,0.6-1.8,0.6-2.9c0-1-0.2-2-0.5-2.9
			c-0.4-0.9-0.9-1.6-1.5-2.3c-0.7-0.7-1.4-1.2-2.3-1.5c-0.9-0.4-1.8-0.6-2.8-0.6h-2.4V280.2z"/>
		<path d="M761.4,281.5c-1,0-1.8-0.2-2.6-0.7c-0.8-0.5-1.4-1.1-1.8-1.9c-0.4-0.8-0.7-1.8-0.7-2.8c0-1.1,0.2-2,0.7-2.8
			c0.4-0.8,1.1-1.5,1.8-1.9s1.6-0.7,2.6-0.7c1,0,1.9,0.2,2.6,0.7c0.8,0.5,1.4,1.1,1.8,2V271h1.1v10.2h-1.1v-2.4
			c-0.4,0.8-1,1.5-1.8,2S762.4,281.5,761.4,281.5z M761.6,280.6c0.8,0,1.6-0.2,2.2-0.6s1.1-0.9,1.5-1.6s0.5-1.5,0.5-2.3
			c0-0.9-0.2-1.7-0.5-2.3c-0.4-0.7-0.9-1.2-1.5-1.6s-1.4-0.6-2.2-0.6s-1.6,0.2-2.2,0.6s-1.1,0.9-1.5,1.6c-0.4,0.7-0.5,1.5-0.5,2.3
			c0,0.9,0.2,1.6,0.5,2.3s0.9,1.2,1.5,1.6C760.1,280.4,760.8,280.6,761.6,280.6z"/>
		<path d="M771.4,281.2V264h1.1v8.4c0.3-0.5,0.7-0.9,1.3-1.3c0.6-0.3,1.3-0.5,2.2-0.5c0.8,0,1.5,0.2,2,0.5c0.6,0.3,1,0.8,1.3,1.4
			c0.3,0.6,0.5,1.4,0.5,2.3v6.4h-1.1V275c0-1.1-0.3-2-0.8-2.6c-0.5-0.6-1.3-0.9-2.2-0.9c-0.7,0-1.2,0.1-1.7,0.4
			c-0.5,0.3-0.8,0.6-1.1,1.1c-0.3,0.4-0.4,0.9-0.4,1.4v6.8H771.4z"/>
		<path d="M788.7,281.5c-1.1,0-2-0.2-2.9-0.7s-1.5-1.1-2-1.9c-0.5-0.8-0.7-1.7-0.7-2.7c0-0.8,0.1-1.5,0.4-2.2
			c0.3-0.7,0.7-1.2,1.1-1.8c0.5-0.5,1.1-0.9,1.7-1.2c0.6-0.3,1.3-0.4,2.1-0.4c1,0,1.8,0.2,2.6,0.7c0.8,0.4,1.4,1.1,1.9,1.8
			c0.5,0.8,0.7,1.7,0.8,2.7c0,0.1,0,0.1,0,0.2c0,0,0,0.1,0,0.2h-9.6c0,0.9,0.2,1.6,0.6,2.3c0.4,0.7,0.9,1.2,1.6,1.6
			c0.7,0.4,1.5,0.6,2.3,0.6c0.8,0,1.6-0.2,2.3-0.5s1.2-0.9,1.6-1.5l0.8,0.4c-0.5,0.8-1.1,1.4-2,1.8
			C790.7,281.3,789.7,281.5,788.7,281.5z M784.3,275.3h8.5c-0.1-0.7-0.3-1.4-0.7-1.9c-0.4-0.6-0.9-1-1.5-1.3c-0.6-0.3-1.3-0.5-2-0.5
			c-0.7,0-1.4,0.2-2,0.5s-1.1,0.8-1.5,1.3C784.6,274,784.4,274.6,784.3,275.3z"/>
		<path d="M797.4,281.2V271h1.1v1.5c0.3-0.6,0.7-1.1,1.2-1.4c0.5-0.3,1.1-0.5,1.8-0.5c0.3,0,0.6,0,0.9,0.1s0.5,0.1,0.8,0.2l-0.4,0.9
			c-0.2-0.1-0.4-0.2-0.7-0.2c-0.2,0-0.5-0.1-0.7-0.1c-0.5,0-0.9,0.1-1.4,0.4s-0.8,0.6-1.1,1c-0.3,0.4-0.4,0.8-0.4,1.3v7H797.4z"/>
		<path d="M816.6,281.5c-1,0-1.8-0.2-2.6-0.7c-0.8-0.5-1.4-1.1-1.8-2v2.4h-1.1V264h1.1v9.3c0.4-0.8,1-1.5,1.8-2
			c0.8-0.5,1.6-0.7,2.6-0.7c1,0,1.8,0.2,2.6,0.7s1.4,1.1,1.8,1.9c0.4,0.8,0.7,1.8,0.7,2.8c0,1-0.2,2-0.7,2.8
			c-0.4,0.8-1.1,1.5-1.8,1.9C818.4,281.3,817.5,281.5,816.6,281.5z M816.4,280.6c0.8,0,1.5-0.2,2.2-0.6c0.6-0.4,1.1-0.9,1.5-1.6
			s0.5-1.5,0.5-2.3c0-0.9-0.2-1.6-0.5-2.3c-0.4-0.7-0.9-1.2-1.5-1.6s-1.4-0.6-2.2-0.6c-0.8,0-1.6,0.2-2.2,0.6s-1.1,0.9-1.5,1.6
			c-0.4,0.7-0.5,1.5-0.5,2.3c0,0.9,0.2,1.6,0.5,2.3c0.4,0.7,0.9,1.2,1.5,1.6S815.5,280.6,816.4,280.6z"/>
		<path d="M830.2,281.5c-1.1,0-2-0.2-2.9-0.7s-1.5-1.1-2-1.9c-0.5-0.8-0.7-1.7-0.7-2.7c0-0.8,0.1-1.5,0.4-2.2
			c0.3-0.7,0.7-1.2,1.1-1.8c0.5-0.5,1.1-0.9,1.7-1.2c0.6-0.3,1.3-0.4,2.1-0.4c1,0,1.8,0.2,2.6,0.7c0.8,0.4,1.4,1.1,1.9,1.8
			c0.5,0.8,0.7,1.7,0.8,2.7c0,0.1,0,0.1,0,0.2c0,0,0,0.1,0,0.2h-9.6c0,0.9,0.2,1.6,0.6,2.3c0.4,0.7,0.9,1.2,1.6,1.6
			c0.7,0.4,1.5,0.6,2.3,0.6c0.8,0,1.6-0.2,2.3-0.5s1.2-0.9,1.6-1.5l0.8,0.4c-0.5,0.8-1.1,1.4-2,1.8
			C832.1,281.3,831.2,281.5,830.2,281.5z M825.8,275.3h8.5c-0.1-0.7-0.3-1.4-0.7-1.9c-0.4-0.6-0.9-1-1.5-1.3c-0.6-0.3-1.3-0.5-2-0.5
			c-0.7,0-1.4,0.2-2,0.5s-1.1,0.8-1.5,1.3C826.1,274,825.9,274.6,825.8,275.3z"/>
		<path d="M843.3,286.7c-1.3,0-2.4-0.3-3.2-0.8c-0.9-0.5-1.5-1.2-2-2.2l0.9-0.4c0.3,0.8,0.9,1.4,1.6,1.8c0.8,0.5,1.7,0.7,2.7,0.7
			c0.8,0,1.6-0.2,2.2-0.5c0.7-0.3,1.2-0.8,1.6-1.4c0.4-0.6,0.6-1.4,0.6-2.3v-2.8c-0.4,0.8-1,1.5-1.8,2c-0.8,0.5-1.6,0.7-2.6,0.7
			c-1,0-1.8-0.2-2.6-0.7c-0.8-0.5-1.4-1.1-1.8-1.9c-0.5-0.8-0.7-1.8-0.7-2.8c0-1.1,0.2-2,0.7-2.8c0.4-0.8,1.1-1.5,1.8-1.9
			s1.6-0.7,2.6-0.7c1,0,1.8,0.2,2.6,0.7c0.8,0.5,1.4,1.1,1.8,2V271h1.1v10.5c0,1.2-0.2,2.1-0.7,2.9c-0.5,0.8-1.1,1.4-1.9,1.7
			C845.4,286.5,844.4,286.7,843.3,286.7z M843.5,280.6c0.8,0,1.6-0.2,2.2-0.6c0.6-0.4,1.1-0.9,1.5-1.6c0.4-0.7,0.5-1.5,0.5-2.3
			c0-0.9-0.2-1.6-0.5-2.3c-0.4-0.7-0.9-1.2-1.5-1.6c-0.6-0.4-1.4-0.6-2.2-0.6c-0.8,0-1.6,0.2-2.2,0.6c-0.6,0.4-1.1,0.9-1.5,1.6
			c-0.4,0.7-0.5,1.5-0.5,2.3c0,0.9,0.2,1.6,0.5,2.3s0.9,1.2,1.5,1.6C842,280.4,842.7,280.6,843.5,280.6z"/>
		<path d="M857.9,281.5c-1.1,0-2-0.2-2.9-0.7s-1.5-1.1-2-1.9c-0.5-0.8-0.7-1.7-0.7-2.7c0-0.8,0.1-1.5,0.4-2.2
			c0.3-0.7,0.7-1.2,1.1-1.8c0.5-0.5,1.1-0.9,1.7-1.2c0.6-0.3,1.3-0.4,2.1-0.4c1,0,1.8,0.2,2.6,0.7c0.8,0.4,1.4,1.1,1.9,1.8
			c0.5,0.8,0.7,1.7,0.8,2.7c0,0.1,0,0.1,0,0.2c0,0,0,0.1,0,0.2h-9.6c0,0.9,0.2,1.6,0.6,2.3c0.4,0.7,0.9,1.2,1.6,1.6
			c0.7,0.4,1.5,0.6,2.3,0.6c0.8,0,1.6-0.2,2.3-0.5s1.2-0.9,1.6-1.5l0.8,0.4c-0.5,0.8-1.1,1.4-2,1.8
			C859.8,281.3,858.9,281.5,857.9,281.5z M853.5,275.3h8.5c-0.1-0.7-0.3-1.4-0.7-1.9c-0.4-0.6-0.9-1-1.5-1.3c-0.6-0.3-1.3-0.5-2-0.5
			c-0.7,0-1.4,0.2-2,0.5s-1.1,0.8-1.5,1.3C853.8,274,853.6,274.6,853.5,275.3z"/>
		<path d="M872,281.5c-1,0-1.8-0.2-2.6-0.7c-0.8-0.5-1.4-1.1-1.8-2v2.4h-1.1V264h1.1v9.3c0.4-0.8,1-1.5,1.8-2
			c0.8-0.5,1.6-0.7,2.6-0.7c1,0,1.8,0.2,2.6,0.7s1.4,1.1,1.8,1.9c0.4,0.8,0.7,1.8,0.7,2.8c0,1-0.2,2-0.7,2.8
			c-0.4,0.8-1.1,1.5-1.8,1.9C873.9,281.3,873,281.5,872,281.5z M871.8,280.6c0.8,0,1.5-0.2,2.2-0.6c0.6-0.4,1.1-0.9,1.5-1.6
			s0.5-1.5,0.5-2.3c0-0.9-0.2-1.6-0.5-2.3c-0.4-0.7-0.9-1.2-1.5-1.6s-1.4-0.6-2.2-0.6c-0.8,0-1.6,0.2-2.2,0.6s-1.1,0.9-1.5,1.6
			c-0.4,0.7-0.5,1.5-0.5,2.3c0,0.9,0.2,1.6,0.5,2.3c0.4,0.7,0.9,1.2,1.5,1.6S871,280.6,871.8,280.6z"/>
		<path d="M885.7,281.5c-1.1,0-2-0.2-2.9-0.7s-1.5-1.1-2-1.9c-0.5-0.8-0.7-1.7-0.7-2.7c0-0.8,0.1-1.5,0.4-2.2
			c0.3-0.7,0.7-1.2,1.1-1.8c0.5-0.5,1.1-0.9,1.7-1.2c0.6-0.3,1.3-0.4,2.1-0.4c1,0,1.8,0.2,2.6,0.7c0.8,0.4,1.4,1.1,1.9,1.8
			c0.5,0.8,0.7,1.7,0.8,2.7c0,0.1,0,0.1,0,0.2c0,0,0,0.1,0,0.2h-9.6c0,0.9,0.2,1.6,0.6,2.3c0.4,0.7,0.9,1.2,1.6,1.6
			c0.7,0.4,1.5,0.6,2.3,0.6c0.8,0,1.6-0.2,2.3-0.5s1.2-0.9,1.6-1.5l0.8,0.4c-0.5,0.8-1.1,1.4-2,1.8
			C887.6,281.3,886.7,281.5,885.7,281.5z M881.2,275.3h8.5c-0.1-0.7-0.3-1.4-0.7-1.9c-0.4-0.6-0.9-1-1.5-1.3c-0.6-0.3-1.3-0.5-2-0.5
			c-0.7,0-1.4,0.2-2,0.5s-1.1,0.8-1.5,1.3C881.6,274,881.3,274.6,881.2,275.3z"/>
		<path d="M900,269c-0.1,0-0.3,0-0.4-0.1c-0.1-0.1-0.2-0.2-0.3-0.3c-0.1-0.1-0.1-0.2-0.1-0.4c0-0.1,0-0.3,0.1-0.4
			c0.1-0.1,0.2-0.2,0.3-0.3c0.1-0.1,0.2-0.1,0.4-0.1c0.1,0,0.3,0,0.4,0.1c0.1,0.1,0.2,0.2,0.3,0.3c0.1,0.1,0.1,0.2,0.1,0.4
			c0,0.1,0,0.3-0.1,0.4c-0.1,0.1-0.2,0.2-0.3,0.3C900.2,268.9,900.1,269,900,269z M899.4,281.2V271h1.1v10.2H899.4z"/>
		<path d="M909.7,281.5c-0.8,0-1.5-0.1-2.2-0.4s-1.3-0.6-1.8-1.1c-0.5-0.5-0.9-1.1-1.2-1.7c-0.3-0.7-0.4-1.4-0.4-2.2
			s0.1-1.5,0.4-2.2c0.3-0.7,0.7-1.2,1.2-1.7c0.5-0.5,1.1-0.9,1.8-1.1s1.4-0.4,2.2-0.4c0.7,0,1.3,0.1,1.9,0.3
			c0.6,0.2,1.1,0.5,1.6,0.9l-0.5,0.7c-0.8-0.6-1.8-1-2.9-1c-0.9,0-1.7,0.2-2.4,0.6c-0.7,0.4-1.2,0.9-1.6,1.6
			c-0.4,0.7-0.6,1.5-0.6,2.3c0,0.9,0.2,1.6,0.6,2.3c0.4,0.7,0.9,1.2,1.6,1.6s1.5,0.6,2.4,0.6c0.6,0,1.1-0.1,1.6-0.2
			c0.5-0.2,0.9-0.4,1.3-0.7l0.5,0.7c-0.5,0.4-1,0.6-1.6,0.8C911.1,281.4,910.4,281.5,909.7,281.5z"/>
		<path d="M916.6,281.2V264h1.1v8.4c0.3-0.5,0.7-0.9,1.3-1.3c0.6-0.3,1.3-0.5,2.2-0.5c0.8,0,1.5,0.2,2,0.5c0.6,0.3,1,0.8,1.3,1.4
			c0.3,0.6,0.5,1.4,0.5,2.3v6.4h-1.1V275c0-1.1-0.3-2-0.8-2.6c-0.5-0.6-1.3-0.9-2.2-0.9c-0.7,0-1.2,0.1-1.7,0.4
			c-0.5,0.3-0.8,0.6-1.1,1.1c-0.3,0.4-0.4,0.9-0.4,1.4v6.8H916.6z"/>
		<path d="M934.3,281.2V271h1.1v1.5c0.4-0.6,0.9-1,1.4-1.3c0.6-0.3,1.2-0.5,2-0.5c0.9,0,1.6,0.2,2.2,0.6c0.6,0.4,1,0.9,1.3,1.6
			c0.4-0.7,0.9-1.2,1.5-1.6c0.6-0.4,1.4-0.6,2.2-0.6c0.7,0,1.4,0.1,1.9,0.4c0.6,0.3,1,0.7,1.3,1.3c0.3,0.6,0.5,1.3,0.5,2.1v6.7h-1.1
			v-6.4c0-1-0.3-1.8-0.8-2.4c-0.5-0.6-1.2-0.9-2.1-0.9c-0.6,0-1.2,0.1-1.6,0.4c-0.5,0.3-0.9,0.6-1.2,1c-0.3,0.4-0.4,0.8-0.4,1.3v7
			h-1.1v-6.6c0-0.9-0.3-1.7-0.8-2.3s-1.2-0.8-2.1-0.8c-0.6,0-1.1,0.1-1.6,0.4c-0.5,0.3-0.9,0.6-1.2,1s-0.5,0.8-0.5,1.2v7.1H934.3z"
			/>
		<path d="M954.5,269c-0.1,0-0.3,0-0.4-0.1c-0.1-0.1-0.2-0.2-0.3-0.3c-0.1-0.1-0.1-0.2-0.1-0.4c0-0.1,0-0.3,0.1-0.4
			c0.1-0.1,0.2-0.2,0.3-0.3c0.1-0.1,0.2-0.1,0.4-0.1c0.1,0,0.3,0,0.4,0.1c0.1,0.1,0.2,0.2,0.3,0.3c0.1,0.1,0.1,0.2,0.1,0.4
			c0,0.1,0,0.3-0.1,0.4c-0.1,0.1-0.2,0.2-0.3,0.3C954.8,268.9,954.7,269,954.5,269z M954,281.2V271h1.1v10.2H954z"/>
		<path d="M964.3,281.5c-0.8,0-1.5-0.1-2.2-0.4s-1.3-0.6-1.8-1.1c-0.5-0.5-0.9-1.1-1.2-1.7c-0.3-0.7-0.4-1.4-0.4-2.2
			s0.1-1.5,0.4-2.2c0.3-0.7,0.7-1.2,1.2-1.7c0.5-0.5,1.1-0.9,1.8-1.1c0.7-0.3,1.4-0.4,2.2-0.4c0.7,0,1.3,0.1,1.9,0.3
			c0.6,0.2,1.1,0.5,1.6,0.9l-0.5,0.7c-0.8-0.6-1.8-1-2.9-1c-0.9,0-1.7,0.2-2.4,0.6c-0.7,0.4-1.2,0.9-1.6,1.6
			c-0.4,0.7-0.6,1.5-0.6,2.3c0,0.9,0.2,1.6,0.6,2.3c0.4,0.7,0.9,1.2,1.6,1.6s1.5,0.6,2.4,0.6c0.6,0,1.1-0.1,1.6-0.2
			c0.5-0.2,0.9-0.4,1.3-0.7l0.5,0.7c-0.5,0.4-1,0.6-1.6,0.8C965.6,281.4,965,281.5,964.3,281.5z"/>
		<path d="M971.2,281.2V264h1.1v8.4c0.3-0.5,0.7-0.9,1.3-1.3c0.6-0.3,1.3-0.5,2.2-0.5c0.8,0,1.5,0.2,2,0.5c0.6,0.3,1,0.8,1.3,1.4
			c0.3,0.6,0.5,1.4,0.5,2.3v6.4h-1.1V275c0-1.1-0.3-2-0.8-2.6c-0.5-0.6-1.3-0.9-2.2-0.9c-0.7,0-1.2,0.1-1.7,0.4s-0.8,0.6-1.1,1.1
			c-0.3,0.4-0.4,0.9-0.4,1.4v6.8H971.2z"/>
		<path d="M660.9,305.5c-1,0-1.8-0.2-2.6-0.7c-0.8-0.5-1.4-1.1-1.8-1.9c-0.4-0.8-0.7-1.8-0.7-2.8c0-1.1,0.2-2,0.7-2.8
			c0.4-0.8,1.1-1.5,1.8-1.9s1.6-0.7,2.6-0.7c1,0,1.9,0.2,2.6,0.7c0.8,0.5,1.4,1.1,1.8,2V295h1.1v10.2h-1.1v-2.4
			c-0.4,0.8-1,1.5-1.8,2S661.8,305.5,660.9,305.5z M661.1,304.6c0.8,0,1.6-0.2,2.2-0.6s1.1-0.9,1.5-1.6s0.5-1.5,0.5-2.3
			c0-0.9-0.2-1.7-0.5-2.3c-0.4-0.7-0.9-1.2-1.5-1.6s-1.4-0.6-2.2-0.6s-1.6,0.2-2.2,0.6s-1.1,0.9-1.5,1.6c-0.4,0.7-0.5,1.5-0.5,2.3
			c0,0.9,0.2,1.6,0.5,2.3s0.9,1.2,1.5,1.6C659.5,304.4,660.2,304.6,661.1,304.6z"/>
		<path d="M674.7,305.5c-1.5,0-2.5-0.3-3.2-1c-0.6-0.7-0.9-1.8-0.9-3.5V295h1.1v5.9c0,1.3,0.2,2.3,0.7,2.9c0.5,0.6,1.2,0.9,2.3,0.9
			c1.1,0,1.9-0.3,2.3-0.9s0.7-1.5,0.7-2.9V295h1.1v6.1c0,1.6-0.3,2.8-0.9,3.5S676.2,305.5,674.7,305.5z"/>
		<path d="M683.3,305.2v-9.4h-1V295h1V291c0-0.7,0.1-1.3,0.3-1.8c0.2-0.5,0.5-0.9,0.9-1.1c0.4-0.3,0.9-0.4,1.4-0.4
			c0.3,0,0.7,0,1,0.1c0.3,0.1,0.5,0.2,0.8,0.4l-0.4,0.8c-0.3-0.2-0.7-0.4-1.2-0.4c-0.4,0-0.7,0.1-1,0.3c-0.3,0.2-0.4,0.4-0.6,0.8
			c-0.1,0.3-0.2,0.8-0.2,1.2v4h2.7v0.8h-2.7v9.4H683.3z"/>
		<path d="M700,305.5c-1.1,0-2-0.2-2.9-0.7s-1.5-1.1-2-1.9c-0.5-0.8-0.7-1.7-0.7-2.7c0-0.8,0.1-1.5,0.4-2.2c0.3-0.7,0.7-1.2,1.1-1.8
			c0.5-0.5,1.1-0.9,1.7-1.2c0.6-0.3,1.3-0.4,2.1-0.4c1,0,1.8,0.2,2.6,0.7c0.8,0.4,1.4,1.1,1.9,1.8c0.5,0.8,0.7,1.7,0.8,2.7
			c0,0.1,0,0.1,0,0.2c0,0,0,0.1,0,0.2h-9.6c0,0.9,0.2,1.6,0.6,2.3c0.4,0.7,0.9,1.2,1.6,1.6c0.7,0.4,1.5,0.6,2.3,0.6
			c0.8,0,1.6-0.2,2.3-0.5s1.2-0.9,1.6-1.5l0.8,0.4c-0.5,0.8-1.1,1.4-2,1.8C701.9,305.3,701,305.5,700,305.5z M695.5,299.3h8.5
			c-0.1-0.7-0.3-1.4-0.7-1.9c-0.4-0.6-0.9-1-1.5-1.3c-0.6-0.3-1.3-0.5-2-0.5c-0.7,0-1.4,0.2-2,0.5s-1.1,0.8-1.5,1.3
			C695.8,298,695.6,298.6,695.5,299.3z"/>
		<path d="M709.1,293c-0.1,0-0.3,0-0.4-0.1c-0.1-0.1-0.2-0.2-0.3-0.3c-0.1-0.1-0.1-0.2-0.1-0.4c0-0.1,0-0.3,0.1-0.4
			c0.1-0.1,0.2-0.2,0.3-0.3c0.1-0.1,0.2-0.1,0.4-0.1c0.1,0,0.3,0,0.4,0.1c0.1,0.1,0.2,0.2,0.3,0.3c0.1,0.1,0.1,0.2,0.1,0.4
			c0,0.1,0,0.3-0.1,0.4c-0.1,0.1-0.2,0.2-0.3,0.3C709.4,292.9,709.3,293,709.1,293z M708.6,305.2V295h1.1v10.2H708.6z"/>
		<path d="M714.1,305.2V295h1.1v1.5c0.3-0.5,0.7-0.9,1.3-1.3c0.6-0.3,1.3-0.5,2.2-0.5c0.8,0,1.5,0.2,2,0.5c0.6,0.3,1,0.8,1.3,1.4
			c0.3,0.6,0.5,1.4,0.5,2.3v6.4h-1.1V299c0-1.1-0.3-2-0.8-2.6s-1.3-0.9-2.2-0.9c-0.7,0-1.2,0.1-1.7,0.4c-0.5,0.3-0.8,0.6-1.1,1
			c-0.3,0.4-0.4,0.9-0.4,1.4v6.8H714.1z"/>
		<path d="M731.5,305.5c-1.1,0-2-0.2-2.9-0.7s-1.5-1.1-2-1.9c-0.5-0.8-0.7-1.7-0.7-2.7c0-0.8,0.1-1.5,0.4-2.2
			c0.3-0.7,0.7-1.2,1.1-1.8c0.5-0.5,1.1-0.9,1.7-1.2c0.6-0.3,1.3-0.4,2.1-0.4c1,0,1.8,0.2,2.6,0.7c0.8,0.4,1.4,1.1,1.9,1.8
			c0.5,0.8,0.7,1.7,0.8,2.7c0,0.1,0,0.1,0,0.2c0,0,0,0.1,0,0.2H727c0,0.9,0.2,1.6,0.6,2.3c0.4,0.7,0.9,1.2,1.6,1.6
			c0.7,0.4,1.5,0.6,2.3,0.6c0.8,0,1.6-0.2,2.3-0.5s1.2-0.9,1.6-1.5l0.8,0.4c-0.5,0.8-1.1,1.4-2,1.8
			C733.4,305.3,732.5,305.5,731.5,305.5z M727.1,299.3h8.5c-0.1-0.7-0.3-1.4-0.7-1.9c-0.4-0.6-0.9-1-1.5-1.3c-0.6-0.3-1.3-0.5-2-0.5
			c-0.7,0-1.4,0.2-2,0.5s-1.1,0.8-1.5,1.3C727.4,298,727.2,298.6,727.1,299.3z"/>
		<path d="M745.8,305.2v-16.5h4c1.1,0,2,0.2,2.8,0.6c0.8,0.4,1.4,0.9,1.8,1.6c0.4,0.7,0.6,1.5,0.6,2.4c0,0.9-0.2,1.7-0.6,2.4
			c-0.4,0.7-0.9,1.2-1.6,1.6s-1.5,0.6-2.5,0.7l5.5,7.2h-1.4l-5.4-7.1h-2.1v7.1H745.8z M746.9,297.1h2.7c0.9,0,1.6-0.2,2.3-0.5
			c0.6-0.3,1.1-0.8,1.5-1.3c0.4-0.6,0.5-1.2,0.5-2c0-1.1-0.4-2.1-1.1-2.7c-0.8-0.7-1.8-1-3.2-1h-2.7V297.1z"/>
		<path d="M763.3,305.5c-1.1,0-2-0.2-2.9-0.7s-1.5-1.1-2-1.9c-0.5-0.8-0.7-1.7-0.7-2.7c0-0.8,0.1-1.5,0.4-2.2
			c0.3-0.7,0.7-1.2,1.1-1.8c0.5-0.5,1.1-0.9,1.7-1.2c0.6-0.3,1.3-0.4,2.1-0.4c1,0,1.8,0.2,2.6,0.7c0.8,0.4,1.4,1.1,1.9,1.8
			c0.5,0.8,0.7,1.7,0.8,2.7c0,0.1,0,0.1,0,0.2c0,0,0,0.1,0,0.2h-9.6c0,0.9,0.2,1.6,0.6,2.3c0.4,0.7,0.9,1.2,1.6,1.6
			c0.7,0.4,1.5,0.6,2.3,0.6c0.8,0,1.6-0.2,2.3-0.5s1.2-0.9,1.6-1.5l0.8,0.4c-0.5,0.8-1.1,1.4-2,1.8
			C765.2,305.3,764.3,305.5,763.3,305.5z M758.8,299.3h8.5c-0.1-0.7-0.3-1.4-0.7-1.9c-0.4-0.6-0.9-1-1.5-1.3c-0.6-0.3-1.3-0.5-2-0.5
			c-0.7,0-1.4,0.2-2,0.5s-1.1,0.8-1.5,1.3C759.1,298,758.9,298.6,758.8,299.3z"/>
		<path d="M772.4,293c-0.1,0-0.3,0-0.4-0.1c-0.1-0.1-0.2-0.2-0.3-0.3c-0.1-0.1-0.1-0.2-0.1-0.4c0-0.1,0-0.3,0.1-0.4
			c0.1-0.1,0.2-0.2,0.3-0.3c0.1-0.1,0.2-0.1,0.4-0.1c0.1,0,0.3,0,0.4,0.1c0.1,0.1,0.2,0.2,0.3,0.3c0.1,0.1,0.1,0.2,0.1,0.4
			c0,0.1,0,0.3-0.1,0.4c-0.1,0.1-0.2,0.2-0.3,0.3C772.7,292.9,772.6,293,772.4,293z M771.9,305.2V295h1.1v10.2H771.9z"/>
		<path d="M780,305.5c-0.8,0-1.6-0.2-2.2-0.7c-0.6-0.4-1.1-1.1-1.5-1.9l0.6-0.5c0.3,0.7,0.7,1.2,1.2,1.6c0.5,0.4,1.1,0.6,1.8,0.6
			c0.5,0,0.9-0.1,1.3-0.3c0.4-0.2,0.7-0.5,0.9-0.8c0.2-0.4,0.4-0.8,0.4-1.3c0-0.4-0.1-0.8-0.3-1c-0.2-0.2-0.5-0.5-0.9-0.6
			c-0.4-0.2-0.9-0.4-1.4-0.6c-0.4-0.2-0.9-0.4-1.3-0.6c-0.4-0.2-0.8-0.5-1-0.8c-0.3-0.3-0.4-0.8-0.4-1.3c0-0.5,0.1-0.9,0.4-1.3
			c0.3-0.4,0.6-0.7,1.1-0.9s1-0.3,1.6-0.3c0.6,0,1.1,0.1,1.6,0.4c0.5,0.3,0.9,0.7,1.3,1.1l-0.6,0.6c-0.5-0.9-1.3-1.3-2.3-1.3
			c-0.6,0-1.1,0.2-1.5,0.5c-0.4,0.3-0.6,0.8-0.6,1.3c0,0.4,0.1,0.7,0.3,0.9c0.2,0.2,0.5,0.4,0.9,0.6s0.8,0.3,1.2,0.5
			c0.6,0.2,1.2,0.5,1.6,0.7c0.5,0.2,0.8,0.5,1.1,0.9c0.2,0.3,0.4,0.8,0.4,1.4c0,0.7-0.2,1.2-0.5,1.7s-0.7,0.9-1.3,1.1
			S780.7,305.5,780,305.5z"/>
		<path d="M792,305.5c-1.1,0-2-0.2-2.9-0.7s-1.5-1.1-2-1.9c-0.5-0.8-0.7-1.7-0.7-2.7c0-0.8,0.1-1.5,0.4-2.2c0.3-0.7,0.7-1.2,1.1-1.8
			c0.5-0.5,1.1-0.9,1.7-1.2c0.6-0.3,1.3-0.4,2.1-0.4c1,0,1.8,0.2,2.6,0.7c0.8,0.4,1.4,1.1,1.9,1.8c0.5,0.8,0.7,1.7,0.8,2.7
			c0,0.1,0,0.1,0,0.2c0,0,0,0.1,0,0.2h-9.6c0,0.9,0.2,1.6,0.6,2.3c0.4,0.7,0.9,1.2,1.6,1.6c0.7,0.4,1.5,0.6,2.3,0.6
			c0.8,0,1.6-0.2,2.3-0.5s1.2-0.9,1.6-1.5l0.8,0.4c-0.5,0.8-1.1,1.4-2,1.8C794,305.3,793,305.5,792,305.5z M787.6,299.3h8.5
			c-0.1-0.7-0.3-1.4-0.7-1.9c-0.4-0.6-0.9-1-1.5-1.3c-0.6-0.3-1.3-0.5-2-0.5c-0.7,0-1.4,0.2-2,0.5s-1.1,0.8-1.5,1.3
			C787.9,298,787.7,298.6,787.6,299.3z"/>
		<path d="M810.2,305.5c-1,0-1.8-0.2-2.6-0.7c-0.8-0.5-1.4-1.1-1.8-1.9c-0.4-0.8-0.7-1.8-0.7-2.8c0-1.1,0.2-2,0.7-2.8
			c0.4-0.8,1.1-1.5,1.8-1.9s1.6-0.7,2.6-0.7c1,0,1.8,0.2,2.6,0.7c0.8,0.5,1.4,1.1,1.8,2V288h1.1v17.2h-1.1v-2.4
			c-0.4,0.8-1,1.5-1.8,2C812,305.3,811.1,305.5,810.2,305.5z M810.4,304.6c0.8,0,1.6-0.2,2.2-0.6s1.1-0.9,1.5-1.6s0.5-1.5,0.5-2.3
			c0-0.9-0.2-1.6-0.5-2.3c-0.4-0.7-0.9-1.2-1.5-1.6s-1.4-0.6-2.2-0.6c-0.8,0-1.5,0.2-2.2,0.6s-1.1,0.9-1.5,1.6
			c-0.4,0.7-0.5,1.5-0.5,2.3c0,0.9,0.2,1.6,0.5,2.3s0.9,1.2,1.5,1.6C808.8,304.4,809.6,304.6,810.4,304.6z"/>
		<path d="M824,305.5c-1.5,0-2.5-0.3-3.2-1c-0.6-0.7-0.9-1.8-0.9-3.5V295h1.1v5.9c0,1.3,0.2,2.3,0.7,2.9c0.5,0.6,1.2,0.9,2.3,0.9
			c1.1,0,1.9-0.3,2.3-0.9s0.7-1.5,0.7-2.9V295h1.1v6.1c0,1.6-0.3,2.8-0.9,3.5S825.5,305.5,824,305.5z"/>
		<path d="M832.4,305.2V295h1.1v1.5c0.3-0.6,0.7-1.1,1.2-1.4c0.5-0.3,1.1-0.5,1.8-0.5c0.3,0,0.6,0,0.9,0.1s0.5,0.1,0.8,0.2l-0.4,0.9
			c-0.2-0.1-0.4-0.2-0.7-0.2c-0.2,0-0.5-0.1-0.7-0.1c-0.5,0-0.9,0.1-1.4,0.4s-0.8,0.6-1.1,1c-0.3,0.4-0.4,0.8-0.4,1.3v7H832.4z"/>
		<path d="M845.7,305.5c-0.8,0-1.5-0.1-2.2-0.4s-1.3-0.6-1.8-1.1c-0.5-0.5-0.9-1.1-1.2-1.7c-0.3-0.7-0.4-1.4-0.4-2.2
			s0.1-1.5,0.4-2.2c0.3-0.7,0.7-1.2,1.2-1.7c0.5-0.5,1.1-0.9,1.8-1.1s1.4-0.4,2.2-0.4c0.7,0,1.3,0.1,1.9,0.3
			c0.6,0.2,1.1,0.5,1.6,0.9l-0.5,0.7c-0.8-0.6-1.8-1-2.9-1c-0.9,0-1.7,0.2-2.4,0.6c-0.7,0.4-1.2,0.9-1.6,1.6
			c-0.4,0.7-0.6,1.5-0.6,2.3c0,0.9,0.2,1.6,0.6,2.3c0.4,0.7,0.9,1.2,1.6,1.6s1.5,0.6,2.4,0.6c0.6,0,1.1-0.1,1.6-0.2
			c0.5-0.2,0.9-0.4,1.3-0.7l0.5,0.7c-0.5,0.4-1,0.6-1.6,0.8C847.1,305.4,846.4,305.5,845.7,305.5z"/>
		<path d="M852.6,305.2V288h1.1v8.4c0.3-0.5,0.7-0.9,1.3-1.3c0.6-0.3,1.3-0.5,2.2-0.5c0.8,0,1.5,0.2,2,0.5c0.6,0.3,1,0.8,1.3,1.4
			c0.3,0.6,0.5,1.4,0.5,2.3v6.4h-1.1V299c0-1.1-0.3-2-0.8-2.6c-0.5-0.6-1.3-0.9-2.2-0.9c-0.7,0-1.2,0.1-1.7,0.4
			c-0.5,0.3-0.8,0.6-1.1,1.1c-0.3,0.4-0.4,0.9-0.4,1.4v6.8H852.6z"/>
		<path d="M874.7,305.5c-1,0-1.8-0.2-2.6-0.7c-0.8-0.5-1.4-1.1-1.8-1.9c-0.4-0.8-0.7-1.8-0.7-2.8c0-1.1,0.2-2,0.7-2.8
			c0.4-0.8,1.1-1.5,1.8-1.9s1.6-0.7,2.6-0.7c1,0,1.8,0.2,2.6,0.7c0.8,0.5,1.4,1.1,1.8,2V288h1.1v17.2h-1.1v-2.4
			c-0.4,0.8-1,1.5-1.8,2C876.5,305.3,875.6,305.5,874.7,305.5z M874.9,304.6c0.8,0,1.6-0.2,2.2-0.6s1.1-0.9,1.5-1.6s0.5-1.5,0.5-2.3
			c0-0.9-0.2-1.6-0.5-2.3c-0.4-0.7-0.9-1.2-1.5-1.6s-1.4-0.6-2.2-0.6c-0.8,0-1.5,0.2-2.2,0.6s-1.1,0.9-1.5,1.6
			c-0.4,0.7-0.5,1.5-0.5,2.3c0,0.9,0.2,1.6,0.5,2.3s0.9,1.2,1.5,1.6C873.3,304.4,874.1,304.6,874.9,304.6z"/>
		<path d="M885.1,293c-0.1,0-0.3,0-0.4-0.1c-0.1-0.1-0.2-0.2-0.3-0.3c-0.1-0.1-0.1-0.2-0.1-0.4c0-0.1,0-0.3,0.1-0.4
			c0.1-0.1,0.2-0.2,0.3-0.3c0.1-0.1,0.2-0.1,0.4-0.1c0.1,0,0.3,0,0.4,0.1c0.1,0.1,0.2,0.2,0.3,0.3c0.1,0.1,0.1,0.2,0.1,0.4
			c0,0.1,0,0.3-0.1,0.4c-0.1,0.1-0.2,0.2-0.3,0.3C885.4,292.9,885.3,293,885.1,293z M884.6,305.2V295h1.1v10.2H884.6z"/>
		<path d="M894.9,305.5c-1.1,0-2-0.2-2.9-0.7s-1.5-1.1-2-1.9c-0.5-0.8-0.7-1.7-0.7-2.7c0-0.8,0.1-1.5,0.4-2.2
			c0.3-0.7,0.7-1.2,1.1-1.8c0.5-0.5,1.1-0.9,1.7-1.2c0.6-0.3,1.3-0.4,2.1-0.4c1,0,1.8,0.2,2.6,0.7c0.8,0.4,1.4,1.1,1.9,1.8
			c0.5,0.8,0.7,1.7,0.8,2.7c0,0.1,0,0.1,0,0.2c0,0,0,0.1,0,0.2h-9.6c0,0.9,0.2,1.6,0.6,2.3c0.4,0.7,0.9,1.2,1.6,1.6
			c0.7,0.4,1.5,0.6,2.3,0.6c0.8,0,1.6-0.2,2.3-0.5s1.2-0.9,1.6-1.5l0.8,0.4c-0.5,0.8-1.1,1.4-2,1.8
			C896.8,305.3,895.9,305.5,894.9,305.5z M890.5,299.3h8.5c-0.1-0.7-0.3-1.4-0.7-1.9c-0.4-0.6-0.9-1-1.5-1.3c-0.6-0.3-1.3-0.5-2-0.5
			c-0.7,0-1.4,0.2-2,0.5s-1.1,0.8-1.5,1.3C890.8,298,890.6,298.6,890.5,299.3z"/>
		<path d="M909.2,305.2v-16.5h1.1v7.8h9.7v-7.8h1.1v16.5H920v-7.8h-9.7v7.8H909.2z"/>
		<path d="M930.4,305.5c-0.9,0-1.6-0.1-2.3-0.4c-0.6-0.3-1.2-0.6-1.6-1c-0.4-0.4-0.8-0.8-1-1.1c-0.2-0.4-0.4-0.6-0.5-0.8l0.7-0.7
			c0.1,0.2,0.3,0.4,0.5,0.8c0.2,0.3,0.5,0.7,0.9,1c0.4,0.4,0.8,0.6,1.4,0.9c0.6,0.2,1.2,0.4,2,0.4c0.7,0,1.4-0.1,2-0.4
			s1.1-0.7,1.5-1.2c0.4-0.5,0.5-1.2,0.5-1.9c0-0.6-0.1-1.2-0.4-1.6s-0.6-0.8-1-1.1c-0.4-0.3-0.9-0.6-1.4-0.8
			c-0.5-0.2-1.1-0.4-1.7-0.6c-0.4-0.1-0.8-0.3-1.2-0.5c-0.4-0.2-0.9-0.5-1.3-0.8c-0.4-0.3-0.7-0.7-1-1.2c-0.3-0.5-0.4-1-0.4-1.7
			c0-0.6,0.1-1.2,0.3-1.7c0.2-0.5,0.5-1,0.9-1.4c0.4-0.4,0.9-0.7,1.4-0.9s1.1-0.3,1.8-0.3c0.7,0,1.3,0.1,1.8,0.3
			c0.5,0.2,1,0.5,1.4,0.9c0.4,0.4,0.7,0.7,0.9,1.1l-0.6,0.7c-0.2-0.3-0.4-0.6-0.7-0.9c-0.3-0.3-0.7-0.5-1.2-0.7s-1-0.3-1.6-0.3
			c-0.7,0-1.4,0.2-1.9,0.5c-0.5,0.3-0.9,0.7-1.2,1.3c-0.3,0.5-0.4,1-0.4,1.6c0,0.5,0.1,1,0.3,1.3c0.2,0.4,0.5,0.7,0.8,0.9
			c0.3,0.2,0.7,0.4,1.1,0.6s0.8,0.3,1.2,0.4c0.6,0.2,1.2,0.5,1.8,0.7c0.6,0.3,1.1,0.6,1.6,0.9s0.9,0.8,1.1,1.3
			c0.3,0.5,0.4,1.2,0.4,2c0,1-0.2,1.8-0.7,2.5c-0.5,0.7-1.1,1.2-1.8,1.5C932.2,305.4,931.4,305.5,930.4,305.5z"/>
		<path d="M940,305.2v-16.5h1.1v15.5h7.1v1H940z"/>
		<path d="M957.7,305.5c-1.9,0-3.3-0.5-4.2-1.6c-0.9-1-1.4-2.6-1.4-4.7v-10.6h1.1v10.4c0,1.8,0.4,3.1,1.1,4s1.9,1.3,3.4,1.3
			c1.5,0,2.6-0.4,3.4-1.3c0.8-0.9,1.1-2.2,1.1-4v-10.4h1.1v10.6c0,2.1-0.5,3.6-1.4,4.7C960.9,305,959.6,305.5,957.7,305.5z"/>
		<path d="M735.8,329.2v-16.5h3.5c1.2,0,2.3,0.2,3.3,0.6c1,0.4,1.9,1,2.6,1.8s1.3,1.6,1.8,2.6s0.6,2.1,0.6,3.2
			c0,1.2-0.2,2.2-0.6,3.2s-1,1.9-1.8,2.6c-0.8,0.8-1.6,1.3-2.6,1.8c-1,0.4-2.1,0.6-3.3,0.6H735.8z M736.9,328.2h2.4
			c1,0,2-0.2,2.8-0.6c0.9-0.4,1.7-0.9,2.3-1.5c0.7-0.7,1.2-1.4,1.5-2.3c0.4-0.9,0.6-1.8,0.6-2.9c0-1-0.2-2-0.5-2.9
			c-0.4-0.9-0.9-1.6-1.5-2.3c-0.7-0.7-1.4-1.2-2.3-1.5c-0.9-0.4-1.8-0.6-2.8-0.6h-2.4V328.2z"/>
		<path d="M756.5,329.5c-1.1,0-2-0.2-2.9-0.7s-1.5-1.1-2-1.9c-0.5-0.8-0.7-1.7-0.7-2.7c0-0.8,0.1-1.5,0.4-2.2
			c0.3-0.7,0.7-1.2,1.1-1.8c0.5-0.5,1.1-0.9,1.7-1.2c0.6-0.3,1.3-0.4,2.1-0.4c1,0,1.8,0.2,2.6,0.7c0.8,0.4,1.4,1.1,1.9,1.8
			c0.5,0.8,0.7,1.7,0.8,2.7c0,0.1,0,0.1,0,0.2c0,0,0,0.1,0,0.2H752c0,0.9,0.2,1.6,0.6,2.3c0.4,0.7,0.9,1.2,1.6,1.6
			c0.7,0.4,1.5,0.6,2.3,0.6c0.8,0,1.6-0.2,2.3-0.5s1.2-0.9,1.6-1.5l0.8,0.4c-0.5,0.8-1.1,1.4-2,1.8
			C758.4,329.3,757.5,329.5,756.5,329.5z M752,323.3h8.5c-0.1-0.7-0.3-1.4-0.7-1.9c-0.4-0.6-0.9-1-1.5-1.3c-0.6-0.3-1.3-0.5-2-0.5
			c-0.7,0-1.4,0.2-2,0.5s-1.1,0.8-1.5,1.3C752.4,322,752.1,322.6,752,323.3z"/>
		<path d="M765.1,334.4V319h1.1v2.3c0.4-0.8,1-1.5,1.8-1.9s1.6-0.7,2.6-0.7c1,0,1.9,0.2,2.6,0.7c0.8,0.5,1.4,1.1,1.8,1.9
			c0.4,0.8,0.7,1.7,0.7,2.8c0,1-0.2,2-0.7,2.8c-0.4,0.8-1.1,1.5-1.8,1.9c-0.8,0.5-1.6,0.7-2.6,0.7c-0.9,0-1.8-0.2-2.6-0.7
			c-0.8-0.5-1.4-1.1-1.8-2v7.6H765.1z M770.4,328.6c0.8,0,1.5-0.2,2.2-0.6c0.6-0.4,1.1-0.9,1.5-1.6s0.5-1.5,0.5-2.3
			c0-0.9-0.2-1.6-0.5-2.3c-0.4-0.7-0.9-1.2-1.5-1.6s-1.4-0.6-2.2-0.6c-0.8,0-1.6,0.2-2.2,0.6s-1.1,0.9-1.5,1.6
			c-0.4,0.7-0.5,1.5-0.5,2.3c0,0.9,0.2,1.6,0.5,2.3c0.4,0.7,0.9,1.2,1.5,1.6S769.6,328.6,770.4,328.6z"/>
		<path d="M783.8,329.5c-1,0-1.8-0.2-2.6-0.7c-0.8-0.5-1.4-1.1-1.8-1.9c-0.4-0.8-0.7-1.8-0.7-2.8c0-1.1,0.2-2,0.7-2.8
			c0.4-0.8,1.1-1.5,1.8-1.9s1.6-0.7,2.6-0.7c1,0,1.9,0.2,2.6,0.7c0.8,0.5,1.4,1.1,1.8,2V319h1.1v10.2h-1.1v-2.4
			c-0.4,0.8-1,1.5-1.8,2S784.8,329.5,783.8,329.5z M784.1,328.6c0.8,0,1.6-0.2,2.2-0.6s1.1-0.9,1.5-1.6s0.5-1.5,0.5-2.3
			c0-0.9-0.2-1.7-0.5-2.3c-0.4-0.7-0.9-1.2-1.5-1.6s-1.4-0.6-2.2-0.6s-1.6,0.2-2.2,0.6s-1.1,0.9-1.5,1.6c-0.4,0.7-0.5,1.5-0.5,2.3
			c0,0.9,0.2,1.6,0.5,2.3s0.9,1.2,1.5,1.6C782.5,328.4,783.2,328.6,784.1,328.6z"/>
		<path d="M793.8,329.2V319h1.1v1.5c0.3-0.6,0.7-1.1,1.2-1.4c0.5-0.3,1.1-0.5,1.8-0.5c0.3,0,0.6,0,0.9,0.1s0.5,0.1,0.8,0.2l-0.4,0.9
			c-0.2-0.1-0.4-0.2-0.7-0.2c-0.2,0-0.5-0.1-0.7-0.1c-0.5,0-0.9,0.1-1.4,0.4s-0.8,0.6-1.1,1c-0.3,0.4-0.4,0.8-0.4,1.3v7H793.8z"/>
		<path d="M804.7,329.5c-0.7,0-1.3-0.2-1.6-0.7c-0.4-0.5-0.6-1.2-0.6-2v-7h-1V319h1v-3.8h1.1v3.8h2.6v0.8h-2.6v6.9
			c0,0.6,0.1,1.1,0.4,1.4c0.2,0.3,0.6,0.5,1,0.5c0.4,0,0.8-0.1,1.1-0.3l0.3,0.9c-0.2,0.1-0.4,0.2-0.7,0.3S805,329.5,804.7,329.5z"/>
		<path d="M814.4,329.5c-1.1,0-2-0.2-2.9-0.7s-1.5-1.1-2-1.9c-0.5-0.8-0.7-1.7-0.7-2.7c0-0.8,0.1-1.5,0.4-2.2
			c0.3-0.7,0.7-1.2,1.1-1.8c0.5-0.5,1.1-0.9,1.7-1.2c0.6-0.3,1.3-0.4,2.1-0.4c1,0,1.8,0.2,2.6,0.7c0.8,0.4,1.4,1.1,1.9,1.8
			c0.5,0.8,0.7,1.7,0.8,2.7c0,0.1,0,0.1,0,0.2c0,0,0,0.1,0,0.2h-9.6c0,0.9,0.2,1.6,0.6,2.3c0.4,0.7,0.9,1.2,1.6,1.6
			c0.7,0.4,1.5,0.6,2.3,0.6c0.8,0,1.6-0.2,2.3-0.5s1.2-0.9,1.6-1.5l0.8,0.4c-0.5,0.8-1.1,1.4-2,1.8
			C816.3,329.3,815.4,329.5,814.4,329.5z M809.9,323.3h8.5c-0.1-0.7-0.3-1.4-0.7-1.9c-0.4-0.6-0.9-1-1.5-1.3c-0.6-0.3-1.3-0.5-2-0.5
			c-0.7,0-1.4,0.2-2,0.5s-1.1,0.8-1.5,1.3C810.3,322,810,322.6,809.9,323.3z"/>
		<path d="M823,329.2V319h1.1v1.5c0.4-0.6,0.9-1,1.4-1.3c0.6-0.3,1.2-0.5,2-0.5c0.9,0,1.6,0.2,2.2,0.6c0.6,0.4,1,0.9,1.3,1.6
			c0.4-0.7,0.9-1.2,1.5-1.6c0.6-0.4,1.4-0.6,2.2-0.6c0.7,0,1.4,0.1,1.9,0.4c0.6,0.3,1,0.7,1.3,1.3c0.3,0.6,0.5,1.3,0.5,2.1v6.7h-1.1
			v-6.4c0-1-0.3-1.8-0.8-2.4c-0.5-0.6-1.2-0.9-2.1-0.9c-0.6,0-1.2,0.1-1.6,0.4c-0.5,0.3-0.9,0.6-1.2,1c-0.3,0.4-0.4,0.8-0.4,1.3v7
			h-1.1v-6.6c0-0.9-0.3-1.7-0.8-2.3s-1.2-0.8-2.1-0.8c-0.6,0-1.1,0.1-1.6,0.4c-0.5,0.3-0.9,0.6-1.2,1s-0.5,0.8-0.5,1.2v7.1H823z"/>
		<path d="M847.5,329.5c-1.1,0-2-0.2-2.9-0.7s-1.5-1.1-2-1.9c-0.5-0.8-0.7-1.7-0.7-2.7c0-0.8,0.1-1.5,0.4-2.2
			c0.3-0.7,0.7-1.2,1.1-1.8c0.5-0.5,1.1-0.9,1.7-1.2c0.6-0.3,1.3-0.4,2.1-0.4c1,0,1.8,0.2,2.6,0.7c0.8,0.4,1.4,1.1,1.9,1.8
			c0.5,0.8,0.7,1.7,0.8,2.7c0,0.1,0,0.1,0,0.2c0,0,0,0.1,0,0.2H843c0,0.9,0.2,1.6,0.6,2.3c0.4,0.7,0.9,1.2,1.6,1.6
			c0.7,0.4,1.5,0.6,2.3,0.6c0.8,0,1.6-0.2,2.3-0.5s1.2-0.9,1.6-1.5l0.8,0.4c-0.5,0.8-1.1,1.4-2,1.8
			C849.4,329.3,848.5,329.5,847.5,329.5z M843.1,323.3h8.5c-0.1-0.7-0.3-1.4-0.7-1.9c-0.4-0.6-0.9-1-1.5-1.3c-0.6-0.3-1.3-0.5-2-0.5
			c-0.7,0-1.4,0.2-2,0.5s-1.1,0.8-1.5,1.3C843.4,322,843.2,322.6,843.1,323.3z"/>
		<path d="M856.2,329.2V319h1.1v1.5c0.3-0.5,0.7-0.9,1.3-1.3c0.6-0.3,1.3-0.5,2.2-0.5c0.8,0,1.5,0.2,2,0.5c0.6,0.3,1,0.8,1.3,1.4
			c0.3,0.6,0.5,1.4,0.5,2.3v6.4h-1.1V323c0-1.1-0.3-2-0.8-2.6s-1.3-0.9-2.2-0.9c-0.7,0-1.2,0.1-1.7,0.4c-0.5,0.3-0.8,0.6-1.1,1
			c-0.3,0.4-0.4,0.9-0.4,1.4v6.8H856.2z"/>
		<path d="M870.9,329.5c-0.7,0-1.3-0.2-1.6-0.7c-0.4-0.5-0.6-1.2-0.6-2v-7h-1V319h1v-3.8h1.1v3.8h2.6v0.8h-2.6v6.9
			c0,0.6,0.1,1.1,0.4,1.4c0.2,0.3,0.6,0.5,1,0.5c0.4,0,0.8-0.1,1.1-0.3l0.3,0.9c-0.2,0.1-0.4,0.2-0.7,0.3S871.2,329.5,870.9,329.5z"
			/>
		<path d="M880.6,329.5c-1.1,0-2-0.2-2.9-0.7s-1.5-1.1-2-1.9c-0.5-0.8-0.7-1.7-0.7-2.7c0-0.8,0.1-1.5,0.4-2.2
			c0.3-0.7,0.7-1.2,1.1-1.8c0.5-0.5,1.1-0.9,1.7-1.2c0.6-0.3,1.3-0.4,2.1-0.4c1,0,1.8,0.2,2.6,0.7c0.8,0.4,1.4,1.1,1.9,1.8
			c0.5,0.8,0.7,1.7,0.8,2.7c0,0.1,0,0.1,0,0.2c0,0,0,0.1,0,0.2h-9.6c0,0.9,0.2,1.6,0.6,2.3c0.4,0.7,0.9,1.2,1.6,1.6
			c0.7,0.4,1.5,0.6,2.3,0.6c0.8,0,1.6-0.2,2.3-0.5s1.2-0.9,1.6-1.5l0.8,0.4c-0.5,0.8-1.1,1.4-2,1.8
			C882.5,329.3,881.6,329.5,880.6,329.5z M876.1,323.3h8.5c-0.1-0.7-0.3-1.4-0.7-1.9c-0.4-0.6-0.9-1-1.5-1.3c-0.6-0.3-1.3-0.5-2-0.5
			c-0.7,0-1.4,0.2-2,0.5s-1.1,0.8-1.5,1.3C876.5,322,876.2,322.6,876.1,323.3z"/>
		<g>
			<path d="M891.2,329.2c-0.1,0-0.3,0-0.4-0.1s-0.2-0.2-0.3-0.3c-0.1-0.1-0.1-0.3-0.1-0.4c0-0.1,0-0.3,0.1-0.4
				c0.1-0.1,0.2-0.2,0.3-0.3c0.1-0.1,0.2-0.1,0.4-0.1c0.1,0,0.3,0,0.4,0.1c0.1,0.1,0.2,0.2,0.3,0.3c0.1,0.1,0.1,0.2,0.1,0.4
				c0,0.1,0,0.3-0.1,0.4c-0.1,0.1-0.2,0.2-0.3,0.3C891.5,329.1,891.3,329.2,891.2,329.2z"/>
		</g>
	</g>
</g>
<path class="st6" d="M1729.8,1059.2c8.7,8.2,18.1,15.1,28,20.8h162.3v-81.5c-2.2,2.3-5.4,3.6-9.5,3.7c-37.8,0.7-75.7,1.2-113.5,1.6
	c-3.2,0-6.4-1.5-8.1-2c-4.8-5.1-5.6-9.5-3.9-14.2c1.9-5.6,6.4-7.8,12-7.9c37.7-0.6,75.3-1.2,113-1.6c4.3-0.1,7.7,1.4,10,3.8V718
	c-2.4-1.3-4.8-2.4-7.3-3.5c-11-4.6-22.5-8-33.7-11.9c-0.9,0.3-1.7,0.6-2.6,0.9c0.5-2,1.5-4,1.5-6c-0.8-59.6-1.7-119.2-2.4-178.8
	c0-3.7,1.4-7.5,3-11c2.8-6.1,6.2-12,9.8-18.8l-2.2-61.6c-0.8-7.4-4.8-10.9-12.9-10.8c-17.7,0.2-35.3,0.5-52.9,0.8
	c-11.9,0.2-14.5,2.5-15.8,14.3l-0.2,17.8l0.5-9.8c-0.2,3.6-0.3,6.7-0.5,9.8l-0.4,41.9c4.8,8.2,8.7,14.8,12.5,21.4
	c1,1.7,1.8,3.7,1.8,5.6c0.9,61.1,1.8,122.3,2.6,183.4c0,0.8-0.1,1.7-0.1,1.2c-13,5.3-25.6,9.7-37.6,15.4
	c-12.6,6.1-23.3,15.1-31.5,26.6c-14.6,20.4-16.7,41.7-6.1,64.8c13.1,28.6,12.8,57.2-4.3,84.4c-7.3,11.6-16.1,22.1-23.2,33.8
	c-10.1,16.7-16.9,34.8-19.1,54.3C1695.7,1013.1,1707.7,1038.2,1729.8,1059.2z M1805.5,465.7l0.1,15.6
	C1805.6,476.2,1805.5,471.4,1805.5,465.7z M1818,814.2c18.4-18.8,47.6-19.2,66.4-0.9c18.6,18.1,19.2,47.5,1.2,66
	c-18.5,19.1-47.6,19.5-66.7,0.9C1800.3,862.2,1799.9,832.7,1818,814.2z"/>
</svg>
