<?xml version="1.0" encoding="utf-8"?>
<!-- Generator: Adobe Illustrator 26.0.1, SVG Export Plug-In . SVG Version: 6.00 Build 0)  -->
<svg version="1.1" id="Ebene_1" xmlns="http://www.w3.org/2000/svg" xmlns:xlink="http://www.w3.org/1999/xlink" x="0px" y="0px"
	 viewBox="0 0 1920 1080" style="enable-background:new 0 0 1920 1080;" xml:space="preserve">
<style type="text/css">
	.st0{fill:#FFFFFF;}
	.st1{fill:#0A1E59;}
	.st2{opacity:0.9;fill:#FFE266;}
</style>
<g>
	<path class="st0" d="M671,154.1c-5.8-5.1-11-9.7-17.5-15.4 M679.6,165.2 M621.4,272.1c10.5,3.1,19.8,5.4,28.8,8.6
		c5,1.8,10.4,4.1,14.1,7.8c59.8,59.5,119.4,119.2,179.2,178.8c2,2,5,3,7.6,4.4c-1.2,0.6-2.3,1.2-3.5,1.8c-7.1,15.3-15,30.3-21.1,46
		c-7.7,19.6-10.4,40.4-7.7,61.4c4.6,35.8,23.7,60,57.6,73.6c48.4,19.3,76.8,54.6,81.7,107.6c2.9,31.9,11.8,62.2,27.2,90.5
		c20.8,38.2,52.3,61.6,95.5,68.5c32.1,5.1,63.3,0.4,93.6-10.4c58.1-20.8,103.6-58.1,138.4-108.5c26.7-38.6,43.4-80.9,44-128.6
		c0.6-43.1-13.1-80-48-107.1c-21.9-17-47.1-28.1-74-34.2c-18.8-4.3-38.3-5.7-57.2-9.7c-44.5-9.5-73.8-37.4-89.9-78.9
		c-13.1-33.6-36.8-52.5-71.9-57.8c-19.8-3-39.4-1-58.1,5.7c-17.6,6.4-34.5,14.9-52.7,22.9c0.5,0.5-0.4-0.2-1.2-1.1
		C842.6,352.4,781.4,291.2,720.2,230c-1.9-1.9-3.1-4.8-3.9-7.4 M604.3,298.4 M614.2,263.5 M645.7,130.5c-13.2-10.3-18.1-10-30,1.9
		c-17.7,17.6-35.4,35.3-53,53c-8,8.1-8.4,15.6-1.7,23.8"/>
	<path class="st1" d="M614.2,263.5 M706.9,188.8c3.6,13,6.4,23.4,9.4,33.7c0.8,2.6,2,5.5,3.9,7.4c61.2,61.3,122.4,122.4,183.7,183.5
		c0.8,0.8,1.8,1.5,1.2,1.1c18.2-8,35.1-16.5,52.7-22.9c18.6-6.8,38.3-8.7,58.1-5.7c35,5.3,58.8,24.1,71.9,57.8
		c16.1,41.4,45.4,69.4,89.9,78.9c18.9,4,38.4,5.4,57.2,9.7c26.9,6.1,52,17.1,74,34.2c34.9,27.1,48.5,64,48,107.1
		c-0.6,47.7-17.3,90.1-44,128.6c-34.9,50.3-80.3,87.7-138.4,108.5c-30.3,10.8-61.5,15.5-93.6,10.4c-43.2-6.9-74.7-30.3-95.5-68.5
		c-15.4-28.3-24.2-58.6-27.2-90.5c-4.9-53-33.3-88.3-81.7-107.6c-34-13.6-53.1-37.8-57.6-73.6c-2.7-21,0-41.8,7.7-61.4
		c6.1-15.7,14-30.7,21.1-46c1.2-0.6,2.3-1.2,3.5-1.8c-2.5-1.4-5.6-2.4-7.6-4.4C783.7,407.7,724.1,348,664.3,288.5
		c-3.7-3.6-9.1-6-14.1-7.8c-9-3.2-18.3-5.5-28.8-8.6l-60.4-63c-6.7-8.1-6.3-15.7,1.7-23.8c17.6-17.7,35.3-35.3,53-53
		c11.9-11.9,16.8-12.2,30-1.9 M679.6,165.2c5.7,5.7,10.5,10.4,15.7,15.5 M653.5,138.7c6.5,5.7,11.7,10.3,17.5,15.4 M954.8,588
		c0.1,36.8,29.3,66.3,65.9,66.3c37.7,0,66.8-29.1,66.7-66.8c0-36.6-29.6-66.1-66.2-65.9C983.9,521.7,954.7,550.9,954.8,588z
		 M1240.2,677.2c-0.4-9.9-4.2-15-10.6-18c-7.6-3.6-14.2-1.1-19.8,4.5c-37.8,37.7-75.5,75.3-113.1,113.1c-7.7,7.8-7.9,17.6-1.1,24.7
		c7.1,7.5,17.1,7.6,25.1-0.4c38-37.8,75.9-75.6,113.6-113.7C1237.5,684.1,1239,679.3,1240.2,677.2z"/>
	<path class="st2" d="M954.8,588c-0.1-37.1,29.1-66.3,66.4-66.5c36.6-0.1,66.1,29.3,66.2,65.9c0,37.7-29,66.9-66.7,66.8
		C984.1,654.3,954.9,624.8,954.8,588z"/>
	<path class="st2" d="M1240.2,677.2c-1.2,2.1-2.8,6.9-6,10.1c-37.7,38.1-75.6,75.9-113.6,113.7c-8,8-18,7.9-25.1,0.4
		c-6.8-7.1-6.6-16.9,1.1-24.7c37.6-37.8,75.4-75.5,113.1-113.1c5.6-5.6,12.2-8,19.8-4.5C1236,662.1,1239.8,667.2,1240.2,677.2z"/>
</g>
</svg>
