<?xml version="1.0" encoding="utf-8"?>
<!-- Generator: Adobe Illustrator 26.0.1, SVG Export Plug-In . SVG Version: 6.00 Build 0)  -->
<svg version="1.1" id="Ebene_1" xmlns="http://www.w3.org/2000/svg" xmlns:xlink="http://www.w3.org/1999/xlink" x="0px" y="0px"
	 viewBox="0 0 1920 1080" style="enable-background:new 0 0 1920 1080;" xml:space="preserve">
<style type="text/css">
	.st0{fill:#D94436;}
	.st1{opacity:0.9;fill:#FFE266;}
	.st2{fill:none;stroke:#000000;stroke-width:2;stroke-miterlimit:10;}
</style>
<g>
	<polygon class="st0" points="442.5,760.1 1450.7,758.3 1131.9,288.5 	"/>
	<polygon class="st1" points="785.5,645.7 1257.4,645.1 1108,425.1 	"/>
	<line class="st2" x1="1367.6" y1="716.4" x2="1367.6" y2="747.8"/>
	<line class="st2" x1="1327.6" y1="731.1" x2="1327.6" y2="747.9"/>
	<line class="st2" x1="1286.3" y1="731" x2="1286.3" y2="747.8"/>
	<line class="st2" x1="1245.4" y1="731" x2="1245.4" y2="747.9"/>
	<line class="st2" x1="1205.1" y1="731.1" x2="1205.1" y2="747.9"/>
	<line class="st2" x1="1163.6" y1="716.5" x2="1163.6" y2="747.9"/>
	<line class="st2" x1="1123.6" y1="731" x2="1123.6" y2="747.9"/>
	<line class="st2" x1="1082.4" y1="731.1" x2="1082.4" y2="747.9"/>
	<line class="st2" x1="1041.4" y1="731.1" x2="1041.4" y2="747.9"/>
	<line class="st2" x1="1001.1" y1="731.1" x2="1001.1" y2="747.9"/>
	<line class="st2" x1="957.9" y1="716.4" x2="957.9" y2="747.8"/>
	<line class="st2" x1="917.9" y1="731.1" x2="917.9" y2="747.9"/>
	<line class="st2" x1="876.7" y1="731.1" x2="876.7" y2="747.9"/>
	<line class="st2" x1="835.7" y1="731.1" x2="835.7" y2="747.8"/>
	<line class="st2" x1="795.4" y1="731.1" x2="795.4" y2="747.8"/>
	<line class="st2" x1="752.8" y1="716.5" x2="752.8" y2="747.9"/>
	<line class="st2" x1="712.8" y1="731.1" x2="712.8" y2="747.9"/>
	<line class="st2" x1="671.5" y1="731" x2="671.5" y2="747.8"/>
	<line class="st2" x1="630.6" y1="731.1" x2="630.6" y2="747.8"/>
	<line class="st2" x1="590.3" y1="731.1" x2="590.3" y2="747.9"/>
	<line class="st2" x1="548.2" y1="716.5" x2="548.2" y2="747.9"/>
</g>
</svg>
