<?xml version="1.0" encoding="utf-8"?>
<!-- Generator: Adobe Illustrator 26.0.1, SVG Export Plug-In . SVG Version: 6.00 Build 0)  -->
<svg version="1.1" id="Ebene_1" xmlns="http://www.w3.org/2000/svg" xmlns:xlink="http://www.w3.org/1999/xlink" x="0px" y="0px"
	 viewBox="0 0 1920 1080" style="enable-background:new 0 0 1920 1080;" xml:space="preserve">
<style type="text/css">
	.st0{fill:#049DBF;}
	.st1{opacity:0.9;fill:#FFE266;}
	.st2{fill:#FFFFFF;}
</style>
<g>
	<rect x="528.3" y="289.4" class="st0" width="851.9" height="485.6"/>
	<path class="st1" d="M580.2,421.6c0,0,81.7,0,78-78c54.9-1.2,584-2.4,584-2.4s14.6,89,82.9,78c-2.4,45.1,0,218.2,0,218.2
		s-87.8,3.7-76.8,80.5c-31.7,2.4-587.7-2.4-587.7-2.4s-7.3-78-80.5-80.5C582.6,600.8,580.2,421.6,580.2,421.6z"/>
	<ellipse class="st0" cx="686.8" cy="530.3" rx="24.2" ry="24.2"/>
	<ellipse class="st0" cx="1221.1" cy="530.5" rx="24.2" ry="24.2"/>
	<ellipse class="st0" cx="951.3" cy="529.7" rx="158.6" ry="189"/>
	<g>
		<path class="st2" d="M940.4,676.7v-35.5c-20.4-0.4-41.5-6.7-53.8-15.5l8.4-23.6c12.7,8.4,31,15.1,50.7,15.1
			c25,0,41.9-14.4,41.9-34.5c0-19.4-13.7-31.3-39.8-41.9c-35.9-14.1-58.1-30.3-58.1-60.9c0-29.2,20.8-51.4,53.1-56.7v-35.5h21.8
			v34.1c21.1,0.7,35.5,6.3,45.7,12.3l-8.8,23.2c-7.4-4.2-21.8-12-44.3-12c-27.1,0-37.3,16.2-37.3,30.3c0,18.3,13,27.4,43.6,40.1
			c36.2,14.8,54.5,33.1,54.5,64.4c0,27.8-19.4,53.8-55.6,59.8v36.6H940.4z"/>
	</g>
</g>
</svg>
