<?xml version="1.0" encoding="utf-8"?>
<!-- Generator: Adobe Illustrator 26.0.1, SVG Export Plug-In . SVG Version: 6.00 Build 0)  -->
<svg version="1.1" id="Ebene_1" xmlns="http://www.w3.org/2000/svg" xmlns:xlink="http://www.w3.org/1999/xlink" x="0px" y="0px"
	 viewBox="0 0 1920 1080" style="enable-background:new 0 0 1920 1080;" xml:space="preserve">
<style type="text/css">
	.st0{enable-background:new    ;}
	.st1{fill:none;stroke:#000000;stroke-width:6;stroke-miterlimit:10;}
	.st2{fill:#FFFFFF;}
	.st3{fill:none;stroke:#2662F7;stroke-width:0.75;stroke-miterlimit:10;}
</style>
<g>
	<g class="st0">
		<path d="M1100.2,785.5v-92.2h18.1v38.1h34.5v-38.1h18.1v92.2h-18.1v-38.3h-34.5v38.3H1100.2z"/>
		<path d="M1222.1,787.3c-6.3,0-12-1.3-17-3.9c-5.1-2.6-9.1-6.2-12.1-10.7c-3-4.6-4.5-9.8-4.5-15.8s1.5-11.2,4.4-15.8
			c3-4.6,7-8.1,12.1-10.7c5.1-2.6,10.8-3.9,17.1-3.9c6.3,0,12,1.3,17.1,3.9c5.1,2.6,9.1,6.2,12,10.7c3,4.6,4.4,9.8,4.4,15.8
			s-1.5,11.2-4.4,15.8c-3,4.6-7,8.1-12,10.7C1234.2,786,1228.5,787.3,1222.1,787.3z M1222.2,772.6c2.9,0,5.6-0.7,7.9-2
			c2.4-1.3,4.3-3.2,5.6-5.6c1.4-2.4,2.1-5.1,2.1-8.2c0-3.1-0.7-5.8-2.1-8.2c-1.4-2.4-3.3-4.2-5.6-5.6c-2.4-1.3-5-2-7.9-2
			c-2.9,0-5.6,0.7-8,2c-2.4,1.3-4.2,3.2-5.6,5.6c-1.4,2.4-2.1,5.1-2.1,8.2c0,3.1,0.7,5.8,2.1,8.2c1.4,2.4,3.3,4.2,5.6,5.6
			C1216.6,771.9,1219.2,772.6,1222.2,772.6z"/>
		<path d="M1270.7,785.5v-57.2h17.2v6.4c2.8-2.8,5.6-4.9,8.4-6.2c2.8-1.3,5.8-2,9.1-2c4.4,0,8.4,1,11.9,3c3.5,2,6.1,4.6,7.6,7.9
			c2.8-3.6,5.8-6.3,9-8.2c3.2-1.8,6.9-2.7,11-2.7c4.1,0,7.8,0.9,11,2.6c3.2,1.7,5.7,4.1,7.6,7.3c1.8,3.1,2.8,6.9,2.8,11.2v38h-17.2
			v-33.3c0-3.7-1-6.7-2.9-8.8c-1.9-2.1-4.5-3.2-7.8-3.2c-2.2,0-4.2,0.5-5.9,1.4c-1.7,0.9-3,2.2-4,3.7c-1,1.6-1.5,3.3-1.5,5.2v35
			h-17.2v-33.6c0-3.5-0.9-6.4-2.8-8.5c-1.9-2.1-4.5-3.2-7.8-3.2c-2.2,0-4.2,0.5-5.9,1.4c-1.7,0.9-3.1,2.2-4.1,3.8
			c-1,1.6-1.5,3.4-1.5,5.3v34.8H1270.7z"/>
		<path d="M1413,787.3c-6.2,0-11.7-1.3-16.6-4c-4.9-2.7-8.8-6.3-11.7-10.9c-2.9-4.6-4.3-9.8-4.3-15.5c0-4.2,0.8-8.2,2.4-11.9
			c1.6-3.7,3.9-6.9,6.8-9.7c2.9-2.8,6.3-4.9,10.1-6.5c3.8-1.5,8-2.3,12.5-2.3c6,0,11.2,1.2,15.7,3.7c4.5,2.5,8,5.9,10.5,10.3
			s3.8,9.5,3.8,15.4c0,0.5,0,0.9,0,1.3c0,0.4-0.1,1-0.2,2h-43.9c0,2.9,0.7,5.4,2,7.6c1.3,2.2,3.2,3.8,5.6,5.1
			c2.4,1.2,5.2,1.8,8.3,1.8c3,0,5.6-0.6,7.9-1.7c2.3-1.2,4.5-3,6.6-5.5l12.4,6.2c-2.7,4.6-6.5,8.2-11.4,10.8
			C1424.5,786,1419,787.3,1413,787.3z M1398.7,749.6h26.6c-0.4-2.2-1.2-4.1-2.4-5.7c-1.2-1.6-2.7-2.8-4.6-3.7s-4-1.3-6.3-1.3
			c-2.5,0-4.7,0.4-6.6,1.3c-1.9,0.9-3.4,2.1-4.6,3.7C1399.7,745.5,1399,747.4,1398.7,749.6z"/>
	</g>
	<polyline class="st1" points="665.4,480.8 816,355 920.8,436.8 1106.1,581.7 	"/>
	<polyline points="1020.3,604.6 915.5,522.8 810.7,440.9 705.9,522.8 	"/>
	<polygon points="1013.4,785.4 705.9,785.4 705.9,522.8 1020.3,604.6 	"/>
	<rect x="748.7" y="597.7" class="st2" width="55.4" height="43.2"/>
	<rect x="850.5" y="600.4" class="st2" width="55.4" height="43.2"/>
	<rect x="787.2" y="693.7" class="st2" width="48" height="91.8"/>
</g>
<path class="st3" d="M1064.3,555"/>
<path class="st3" d="M1016.5,602"/>
</svg>
